<?xml version="1.0" encoding="UTF-8" standalone="no"?>
<!DOCTYPE svg PUBLIC "-//W3C//DTD SVG 1.1//EN" "http://www.w3.org/Graphics/SVG/1.1/DTD/svg11.dtd">
<svg width="100%" height="100%" viewBox="0 0 325 230" version="1.1" xmlns="http://www.w3.org/2000/svg" xmlns:xlink="http://www.w3.org/1999/xlink" xml:space="preserve" xmlns:serif="http://www.serif.com/" style="fill-rule:evenodd;clip-rule:evenodd;stroke-linejoin:round;stroke-miterlimit:2;">
    <g transform="matrix(1.8854,0,0,1.8854,33.8456,-100.969)">
        <path d="M89.4,71C89.7,69.9 90.7,68.4 91,67.2C91.3,66.2 91.2,65.5 90.8,65.3C91.1,62 88.8,58.9 85.5,58.2C81.9,57.5 78.4,59.8 77.6,63.4C76.9,67 79.2,70.5 82.8,71.3C83.3,71.4 83.8,71.4 84.3,71.4C84.6,71.5 84.8,71.7 84.9,71.8C85.2,72.1 85.4,73.2 85.1,73.7C84.9,74.2 83.5,75.7 81.9,77.4C80.3,79.1 79.8,79.3 78.4,81C77.7,81.8 77.5,82.8 77.5,82.8C77.5,82.8 76.2,83.5 75.3,84.7C74.4,86 73.2,88.4 73.2,88.4C73.2,88.4 72.2,89 71.6,89.4C71.1,89.9 70.7,90.2 69.9,91.2C69.9,90.3 70.2,89.9 70.8,89.5C71.2,89.2 71.8,87.7 71.9,85.9C72.7,85.5 73.3,84.6 73.3,83.6C73.3,82.2 72.1,81 70.7,81C70.1,81 69.6,81.2 69.2,81.5C68.2,81 66.9,80.8 65.4,81.1C64.9,81.2 64.4,81.4 64.3,81.8C64,81.9 63.5,82.1 62.9,83C62.2,84 62.5,84.7 62.4,85.1C62.3,85.4 61.2,86 61.7,88.3C61.9,89.2 61.8,89.9 61.9,90.2C62,90.6 62.1,90.8 62.5,90.9C62.7,91 63,91.1 63.2,91.2C63.6,91.3 63.7,91.4 63.8,91.8L63.8,92.6C63.8,92.7 63.7,92.9 63.5,92.9L61,93C59.5,92.9 58.7,93.4 58.7,93.4C58.7,93.4 57.2,93.5 56.2,94.1C55.2,94.7 53.9,96.3 53.6,97.7C53.4,98.3 53.3,98.7 53,99.2C52.8,99.5 51.9,100.1 51.2,100.8C50.8,99.3 50.2,97.5 50.2,96.2L50.2,95.9C50.2,95.5 50.2,95.1 50.4,94.7C50.8,94.1 51.1,93.4 51,92.6C51,92.1 51.1,91.5 51.2,91C51.3,90.6 51.2,90.3 51.4,90C51.5,89.8 51.7,89.5 51.7,89.2C51.6,88.9 51.2,88.9 51,89C50.5,89.2 50.4,89.7 50.2,90.2C50.1,90.5 50.1,90.9 49.9,91C49.7,91.1 49.4,91.1 49.2,90.9C49,90.6 48.9,90.4 48.7,90.1C48.6,89.8 48,87.8 47.5,86.8C47.3,86.6 47.2,86.3 46.9,86.2C46.7,86.1 46.4,86.3 46.5,86.5C46.7,87.1 47,87.7 47.2,88.3C47,87.9 46.7,87.5 46.5,87.2C46.3,87 46.1,86.7 45.8,86.6C45.6,86.5 45.4,86.6 45.3,86.8C45.3,86.9 45.4,87.1 45.4,87.2C45.8,87.7 46.2,88.3 46.5,89C46.3,88.8 46.1,88.6 45.8,88.6C45.7,88.6 45.5,88.6 45.4,88.7C45.4,88.8 45.4,89 45.5,89.1C45.8,89.5 46.2,89.9 46.4,90.3C46.6,90.6 46.8,91 47,91.3C47,91.1 46.7,91.1 46.7,91.4C46.9,91.8 47.4,92.1 47.5,92.6C47.9,93.6 47.8,94.7 47.7,95.9C47.6,97.2 47.8,100.6 47.5,102.1C47,104.5 47.1,105.4 47.7,108.1C48,109.7 49.6,109.7 50.8,108.9C52.8,107.6 54.9,104.6 55.4,104C55.8,103.5 56.1,102.7 56.4,102.8C57.1,103.6 57.6,106.9 57,109.8C56.9,110.4 56.5,111.5 56.6,111.8C56.7,112.2 57,112.3 57,112.4C56.9,114.6 55.5,115 54.9,117.3C54.4,119.6 54.6,121.2 55,123.5C55.5,125.8 56.5,128.1 57.4,129.8C58.3,131.5 58.5,132.8 58.5,132.8L59.3,132.8C59.3,132.8 60.5,137.7 63,141.5C70.3,152.5 72.9,157.4 73.4,158.5C73.9,159.5 73.2,159.5 73.2,160C73.2,160.5 73.6,161 74.8,161.8C76.1,162.6 77.1,165.4 77.6,166.9C78,168.4 79.1,171.3 81.3,171C83.6,170.7 83.5,167.8 83.1,166C82.6,164.2 80.8,163.3 80.5,162.1C80.2,161 79,159.1 78.9,156.8C78.9,156.5 78.9,156.2 79,155.8C79.1,154.5 79.9,152.8 79.8,151.8C79.7,150.8 77.1,149 76.5,147.9C75.9,146.8 75.5,144.5 75.3,144.4C75,144.3 74.7,144.3 74.7,144.3C74.7,144.3 74.3,136.7 73.3,133.6C72.5,131.3 70.5,129.3 70.5,129.3C70.5,129.3 71.4,127.6 72.6,123.2C74,117.9 71.9,115.4 71.3,112.4C70.8,110 71.4,106.4 72.9,102.9C73.5,101.5 74.6,98 74.7,96.2C74.7,95.4 75.2,94.8 76,93.7C76.8,92.6 77.5,91.4 77.8,90.4C78.1,89.4 78.9,88.4 80.1,86.7C80.7,85.8 81,85 81,85C81,85 83.2,82.8 84.8,80.6C86.7,78.1 87,76.6 87.1,76.1C87.2,75.6 88,75 88.4,74.1C88.8,73.5 89.1,72.1 89.4,71Z" style="fill:rgb(250,77,0);fill-rule:nonzero;"/>
    </g>
</svg>
