<?xml version="1.0" encoding="UTF-8" standalone="no"?>
<!DOCTYPE svg PUBLIC "-//W3C//DTD SVG 1.1//EN" "http://www.w3.org/Graphics/SVG/1.1/DTD/svg11.dtd">
<svg width="100%" height="100%" viewBox="0 0 720 720" version="1.1" xmlns="http://www.w3.org/2000/svg" xmlns:xlink="http://www.w3.org/1999/xlink" xml:space="preserve" xmlns:serif="http://www.serif.com/" style="fill-rule:evenodd;clip-rule:evenodd;stroke-linejoin:round;stroke-miterlimit:2;">
    <g>
        <path d="M435.747,36L284.063,36C247.03,36 217.008,66.023 217.008,103.055L217.008,616.755C217.008,653.82 246.998,683.895 284.063,684L435.747,684C472.842,683.895 502.887,653.852 502.992,616.755L502.992,103.055C502.782,66.035 472.766,36.105 435.747,36Z" style="fill:white;fill-rule:nonzero;"/>
        <path d="M380.919,145.275C379.008,143.365 379.962,139.352 381.109,137.824C385.313,137.251 390.661,128.081 395.054,118.72C398.495,118.912 399.641,115.473 400.786,113.562C404.608,107.45 408.621,102.292 403.462,98.853C415.306,77.839 407.664,63.701 401.361,63.128C398.686,57.97 394.292,54.723 386.459,51.857L435.555,51.857C463.758,51.962 486.563,74.853 486.563,103.055L486.563,351.022C485.002,347.243 483.014,343.654 480.641,340.324C480.641,333.448 472.999,333.065 471.279,330.964C469.56,328.862 473.19,327.526 460.39,324.659C458.099,323.323 456.188,304.601 456.188,304.601C454.277,292.374 450.075,284.159 443.58,271.36C440.331,264.673 438.803,244.232 435.364,233.916C437.465,186.157 422.183,172.402 409.766,164.569C404.989,161.704 402.697,159.412 398.114,156.737L398.114,154.635C392.928,150.6 387.121,147.438 380.919,145.275ZM427.576,410.224C404.171,400.841 392.804,374.261 402.187,350.855C407.657,337.207 419.368,327.029 433.646,323.512C428.296,310.331 417.216,288.935 413.969,281.866C410.72,274.797 403.271,231.432 401.742,222.835C401.361,220.924 382.066,234.107 382.066,234.871C382.066,235.635 367.547,270.976 366.974,272.887C366.4,274.797 366.591,278.81 366.591,278.81C366.591,278.81 373.086,279.573 376.907,291.036C380.728,302.498 392,344.336 392,344.336C392,344.336 388.943,347.584 388.752,347.392C403.271,395.724 398.114,416.548 404.608,430.685C412.822,450.744 414.924,448.07 421.992,464.881C426.96,477.105 432.5,525.249 434.41,527.351C442.242,537.282 446.446,544.925 446.446,550.465C446.446,556.006 439.759,572.626 442.242,582.367C443.77,588.099 444.536,600.709 447.017,603.191C449.502,605.675 449.502,607.966 448.164,610.068C447.649,610.863 447.385,611.795 447.4,612.742C451.792,627.835 465.549,653.817 443.008,667.38L443.58,667.38C468.512,663.507 486.865,641.986 486.755,616.754L486.755,385.278C477.214,408.381 450.831,419.548 427.576,410.224Z" style="fill:rgb(218,26,50);fill-rule:nonzero;"/>
        <path d="M335.25,560.701L335.25,578.589C335.25,583.649 334.127,585.226 329.74,585.226L325.127,585.226L325.127,554.401L329.851,554.401C333.902,554.401 335.25,556.426 335.25,560.701ZM329.74,595.462L325.127,595.462L325.127,624.152L329.851,624.152C334.127,624.152 335.25,621.9 335.25,617.513L335.25,601.763C335.25,597.15 333.789,595.462 329.74,595.462ZM371.365,553.276L370.69,553.276C369.901,564.526 368.328,584.103 367.878,590.4L366.414,606.378L376.091,606.378L374.625,590.4C374.178,583.989 372.377,564.526 371.365,553.276ZM435.747,667.954L284.063,667.954C255.756,667.849 232.865,644.872 232.865,616.563L232.865,102.863C232.865,74.588 255.787,51.665 284.063,51.665L371.176,51.665C354.557,58.16 352.072,65.42 351.5,88.535C348.634,88.727 342.713,86.052 344.814,100.188C344.814,100.188 345.769,109.549 349.59,108.021C345.96,132.857 350.163,134.767 324.373,135.913L323.036,137.824C297.246,140.307 289.222,137.06 267.635,180.998C267.635,180.998 262.095,194.561 260.375,200.293C255.026,211.373 242.036,236.017 238.215,252.064C237.068,257.413 234.585,259.132 238.024,266.965C242.991,278.236 234.585,281.102 263.622,280.338L263.622,287.024C263.622,287.024 255.98,293.711 254.261,297.722C252.542,301.735 248.149,321.793 248.339,331.154C248.911,355.798 268.971,376.622 275.083,401.266L288.456,403.176C296.098,420.369 328.766,466.789 335.452,472.904C336.98,477.105 346.151,483.983 350.162,487.804C354.174,491.625 377.861,517.607 405.562,533.464C405.372,533.464 409.958,542.633 412.248,550.082C402.889,557.342 420.845,571.097 426.194,593.449C426.576,596.316 421.038,599.561 429.253,606.823C428.678,640.826 418.362,658.593 435.747,667.954ZM304.201,542.702L293.402,542.702L293.402,559.913C293.402,578.699 294.976,600.752 296.102,618.977L282.263,542.813L265.165,542.813L265.165,635.852L275.964,635.852L275.964,635.851L275.851,635.851L275.851,606.488C275.851,592.2 275.513,578.478 274.612,561.263L288.451,635.738L304.201,635.738L304.201,542.702ZM347.626,561.489C347.626,548.438 341.214,542.813 330.751,542.813L312.75,542.813L312.75,635.852L330.751,635.852C340.763,635.852 347.626,630.114 347.626,617.402L347.626,603.901C347.626,596.814 345.038,592.651 341.439,590.178C345.038,588.038 347.626,583.764 347.626,575.326L347.626,561.489ZM391.389,635.852L380.589,542.813L362.813,542.813L351.564,635.852L364.051,635.852L365.627,616.951L376.877,616.951L378.338,635.852L391.389,635.852Z" style="fill:rgb(0,67,140);fill-rule:nonzero;"/>
        <rect x="254.384" y="533.657" width="142.395" height="117.831" style="fill:rgb(0,67,140);"/>
    </g>
</svg>
