<?xml version="1.0" encoding="UTF-8" standalone="no"?>
<!DOCTYPE svg PUBLIC "-//W3C//DTD SVG 1.1//EN" "http://www.w3.org/Graphics/SVG/1.1/DTD/svg11.dtd">
<svg width="100%" height="100%" viewBox="0 0 720 720" version="1.1" xmlns="http://www.w3.org/2000/svg" xmlns:xlink="http://www.w3.org/1999/xlink" xml:space="preserve" xmlns:serif="http://www.serif.com/" style="fill-rule:evenodd;clip-rule:evenodd;stroke-linejoin:round;stroke-miterlimit:2;">
    <g>
        <path d="M68.456,48.938L130.331,472.95C147.352,586.77 245.083,671.011 360.169,671.063C475.297,671.017 573.049,586.71 590.006,472.837L651.769,48.938L68.456,48.938Z" style="fill:rgb(158,162,162);fill-rule:nonzero;"/>
        <path d="M90.169,67.725L149.006,470.138C164.586,574.76 254.393,652.222 360.169,652.275C465.988,652.278 555.857,574.802 571.444,470.138L630.056,67.725L90.169,67.725Z" style="fill:rgb(54,59,55);fill-rule:nonzero;"/>
        <path d="M326.081,479.588L326.081,478.688L309.769,478.688L309.769,479.588C309.874,502.098 298.233,523.035 279.056,534.825C268.467,525.861 259.422,515.22 252.281,503.325L233.719,503.325C257.681,550.238 306.731,580.95 359.944,580.95C413.269,580.95 462.206,550.238 486.056,503.325L467.381,503.325C460.352,515.168 451.376,525.741 440.831,534.6C421.795,522.757 410.256,501.894 410.344,479.475L410.344,478.463L394.031,478.463L394.031,479.475C393.917,505.284 406.173,529.586 426.994,544.838C409.355,556.136 389.164,562.828 368.269,564.3L368.269,457.65L351.956,457.65L351.956,564.3C330.993,562.904 310.719,556.249 293.006,544.95C313.896,529.745 326.203,505.425 326.081,479.587L326.081,479.588Z" style="fill:rgb(72,145,206);fill-rule:nonzero;"/>
        <path d="M520.031,503.438L537.469,503.438C518.439,556.298 476.822,597.914 423.962,616.944C326.011,652.207 218.019,601.389 182.756,503.438L200.194,503.438C226.361,568.855 289.712,611.757 360.169,611.775C430.588,611.722 493.888,568.824 520.031,503.438ZM226.969,325.238L173.644,464.513L118.744,93.15L316.181,93.15L309.881,109.463L137.644,109.463L180.731,400.388L202.894,342.563L171.506,128.25L273.994,202.95L267.919,218.7L246.431,203.063L254.081,254.588L229.331,319.163L226.969,325.238ZM214.819,311.4L237.206,252.788L227.869,189.563L193.219,164.363L214.819,311.4ZM601.369,92.7L546.356,464.062L493.144,325.013L489.544,315.675L466.144,254.362L473.906,202.95L452.306,218.7L446.231,202.95L549.056,128.138L517.556,343.125L539.381,400.275L582.469,109.35L410.231,109.35L403.931,93.038L403.931,92.7L601.369,92.7ZM505.519,311.963L527.231,164.25L492.356,189.675L482.906,252.788L505.519,311.963Z" style="fill:rgb(227,23,62);fill-rule:nonzero;"/>
        <path d="M407.081,192.262L415.856,185.85L434.419,172.35L470.419,146.25L389.306,146.25L368.944,93.487L360.056,66.15L359.269,68.513L359.269,68.4L329.569,146.25L249.806,146.25L285.694,172.35L304.256,185.85L312.244,191.7L202.669,479.025L281.756,478.912L296.944,434.587L423.056,434.587L438.469,478.463L517.556,478.35L407.081,192.262ZM319.331,369.225L359.606,251.888L400.444,369.225L319.331,369.225Z" style="fill:white;fill-rule:nonzero;"/>
    </g>
</svg>
