<?xml version="1.0" encoding="UTF-8" standalone="no"?>
<!DOCTYPE svg PUBLIC "-//W3C//DTD SVG 1.1//EN" "http://www.w3.org/Graphics/SVG/1.1/DTD/svg11.dtd">
<svg width="100%" height="100%" viewBox="0 0 720 720" version="1.1" xmlns="http://www.w3.org/2000/svg" xmlns:xlink="http://www.w3.org/1999/xlink" xml:space="preserve" xmlns:serif="http://www.serif.com/" style="fill-rule:evenodd;clip-rule:evenodd;stroke-linejoin:round;stroke-miterlimit:2;">
    <g>
        <path d="M243.628,170.572L356.973,150.502L388.033,639.187L242.822,614.115L243.628,170.572Z"/>
        <path d="M585.353,170.054C579.563,163.151 573.551,156.693 567.093,150.458C513.872,97.905 440.61,65.394 360,65.394C279.167,65.394 206.128,97.905 152.907,150.458C146.449,156.693 140.437,163.373 134.647,170.054C91.225,221.493 65.171,287.629 65.171,360.223C65.171,367.794 65.394,375.142 66.062,382.491C66.73,392.734 68.066,402.755 69.847,412.775C70.738,417.897 71.852,423.241 72.965,428.363C83.876,474.012 105.254,515.654 134.647,550.392C140.437,557.295 146.449,563.753 152.907,569.988C206.128,622.54 279.39,655.052 360,655.052C440.61,655.052 513.872,622.54 567.093,569.988C573.55,563.753 579.563,557.072 585.353,550.392C614.746,515.654 636.124,474.012 647.035,428.363C648.148,423.241 649.262,418.12 650.153,412.775C651.934,402.977 653.27,392.734 653.938,382.491C654.384,375.142 654.829,367.794 654.829,360.223C654.829,287.629 628.553,221.27 585.353,170.054ZM91.893,360C91.893,297.204 113.27,237.748 152.907,189.872C182.078,225.278 201.452,267.142 209.468,312.124C167.827,324.816 128.412,342.854 91.893,365.122C92.115,363.563 91.893,361.781 91.893,360ZM100.577,427.918C97.905,417.229 95.678,406.318 94.12,395.406C118.169,379.596 143.777,366.012 170.499,354.656C184.305,348.866 198.557,343.522 212.808,339.068C213.254,345.971 213.699,352.874 213.699,360C213.699,383.159 210.804,406.095 205.014,427.917C195.216,465.105 177.625,499.843 152.907,530.128C128.19,500.066 110.375,465.328 100.577,427.918ZM332.833,184.751L318.359,189.427L318.359,329.047L286.515,334.392L286.515,617.864C243.315,605.616 203.678,582.68 170.944,550.169C200.338,515.431 221.715,473.79 232.627,428.14C237.748,406.318 240.421,383.604 240.421,360.223C240.421,350.647 239.975,341.072 239.085,331.72C255.786,327.489 272.487,324.371 289.633,321.922L289.633,294.755C271.15,297.204 253.113,300.544 235.299,304.998C225.724,254.227 203.01,207.909 170.944,170.054C215.035,126.186 271.596,99.687 332.833,93.452L332.833,184.751L332.833,184.751ZM360,627.885C358.441,627.885 356.882,627.885 355.324,627.662L355.324,177.402L344.858,180.742L344.858,92.561C349.757,92.338 354.878,92.115 360,92.115C431.258,92.115 498.285,119.728 548.833,170.054C516.767,208.132 494.054,254.227 484.478,304.998C454.639,297.649 423.687,292.751 392.066,290.746L392.066,317.691C422.128,319.695 451.744,324.371 480.693,331.72C479.802,341.072 479.357,350.647 479.357,360.223C479.357,383.604 482.029,406.318 487.15,428.14C497.839,473.79 519.439,515.431 548.833,550.169C498.285,600.272 431.258,627.885 360,627.885ZM619.2,427.918C609.402,465.105 591.81,499.843 567.093,530.128C542.153,500.066 524.561,465.328 514.763,427.918C508.973,406.095 506.078,383.159 506.078,360C506.078,352.874 506.301,345.971 506.969,339.068C521.221,343.522 535.472,348.866 549.278,354.656C576,366.012 601.608,379.596 625.658,395.406C624.322,406.54 622.095,417.229 619.2,427.918ZM627.885,365.122C591.365,342.854 551.951,324.816 510.309,312.124C518.326,267.142 537.699,225.278 566.87,189.872C606.285,237.748 627.885,297.204 627.885,360C628.107,361.781 627.885,363.563 627.885,365.122Z" style="fill:rgb(255,213,32);fill-rule:nonzero;"/>
        <path d="M170.944,170.054C215.035,126.186 271.596,99.687 332.833,93.452L332.833,184.751L318.359,189.427L318.359,212.219L289.633,222.383L289.633,294.755C271.15,297.204 253.113,300.544 235.299,304.998C225.724,254.227 203.01,207.909 170.944,170.054ZM240.421,360.223C240.421,383.604 237.749,406.318 232.627,428.14C221.716,473.79 200.338,515.431 170.944,550.169C196.286,575.338 225.765,594.769 257.831,607.944L257.79,607.843L257.79,365.122L286.515,359.818L286.515,334.392L289.633,333.869L289.633,321.922C272.487,324.371 255.786,327.489 239.085,331.72C239.975,341.072 240.421,350.647 240.421,360.223ZM209.468,312.124C201.452,267.142 182.078,225.278 152.907,189.872C113.27,237.748 91.893,297.204 91.893,360C91.893,361.781 92.115,363.563 91.893,365.122C128.412,342.854 167.827,324.816 209.468,312.124ZM213.699,360C213.699,352.874 213.254,345.971 212.808,339.068C198.557,343.522 184.305,348.866 170.499,354.656C143.777,366.012 118.169,379.596 94.12,395.406C95.678,406.318 97.905,417.229 100.577,427.918C110.375,465.328 128.19,500.066 152.907,530.128C177.625,499.843 195.216,465.105 205.014,427.917C210.804,406.095 213.699,383.159 213.699,360ZM479.357,360.223C479.357,350.647 479.802,341.072 480.693,331.72C451.744,324.371 422.128,319.695 392.066,317.691L392.066,290.746C423.687,292.751 454.639,297.65 484.478,304.998C494.054,254.227 516.767,208.132 548.833,170.054C498.285,119.728 431.258,92.116 360,92.116C354.878,92.116 349.757,92.338 344.858,92.561L344.858,180.742L355.324,177.402L355.324,627.662C356.883,627.885 358.441,627.885 360,627.885C431.258,627.885 498.285,600.272 548.833,550.169C519.439,515.431 497.839,473.79 487.15,428.14C482.029,406.318 479.357,383.604 479.357,360.223ZM627.885,360C627.885,297.204 606.285,237.748 566.87,189.872C537.699,225.278 518.326,267.142 510.309,312.124C551.951,324.816 591.365,342.854 627.885,365.122C627.885,363.563 628.107,361.781 627.885,360ZM506.969,339.068C506.301,345.971 506.078,352.874 506.078,360C506.078,383.159 508.973,406.095 514.763,427.918C524.561,465.328 542.153,500.066 567.093,530.128C591.81,499.843 609.402,465.105 619.2,427.918C622.095,417.229 624.322,406.54 625.658,395.406C601.608,379.596 576,366.012 549.278,354.656C535.472,348.866 521.221,343.522 506.969,339.068Z" style="fill:rgb(77,144,205);fill-rule:nonzero;"/>
        <path d="M355.324,177.402L355.324,627.662C356.882,627.662 358.441,627.885 360,627.885C381.823,627.885 403.2,625.212 423.909,620.313L423.909,334.392L392.066,329.047L392.066,189.427L377.592,184.751L377.592,92.784C373.583,92.561 369.575,92.338 365.567,92.338L365.567,180.742L355.324,177.402Z" style="fill:white;fill-rule:nonzero;"/>
    </g>
</svg>
