<?xml version="1.0" encoding="utf-8"?>
<!-- Generator: Adobe Illustrator 22.0.1, SVG Export Plug-In . SVG Version: 6.00 Build 0)  -->
<svg version="1.1" id="Layer_2_1_" xmlns="http://www.w3.org/2000/svg" xmlns:xlink="http://www.w3.org/1999/xlink" x="0px" y="0px"
	 width="720px" height="720px" viewBox="0 0 720 720" style="enable-background:new 0 0 720 720;" xml:space="preserve">
<style type="text/css">
	.st0{fill:#FFFFFF;}
	.st1{fill:#F05023;}
	.st2{fill:#0A2240;}
</style>
<g>
	<path class="st0" d="M642.7822266,347.9798889h0.0112915c-11.8457642-4.9946594-41.4093018-14.2754822-71.9963989-22.6450195
		c0.3598633-12.3744202,0.6636963-25.9299011,0.3373413-39.6879883
		c20.2489014-25.7385864,29.5072632-45.5600586,27.4824219-58.9581604
		c-0.4416504-4.3816528-2.6721802-8.3868103-6.1646118-11.0694275l-3.7348633-2.5198517l-4.0722046,1.7999878
		c-11.7805786,5.0980225-23.9692993,9.196106-36.4368896,12.2505188
		c-16.7510986-6.6318665-33.8803101-12.2663422-51.2975159-16.874054
		c11.3059387-40.0478668,12.6558228-67.4965973,3.9936218-81.7045288
		c-2.3814697-4.4588776-6.5161743-7.7211151-11.4070435-8.9995422l-4.3870239-0.7986984l-3.048645,3.2512436
		c-21.3587952,22.8701324-46.3221436,42.0839691-73.8973389,56.8769989
		c-1.5526123-9.9107361-5.1072693-25.9411774-12.1720886-52.5460281
		c-7.3908691-27.8197327-18.1674805-64.3916397-24.3661499-78.9820862l-0.6186523-1.4736481l-0.5400391-0.540062
		c-0.5041504-1.392395-1.2091064-2.7036743-2.0924377-3.8922691C366.6304016,38.2614861,363.3465881,36.19133,359.7018127,36
		c-4.0714111,0.2540779-7.6585083,2.7642746-9.2921143,6.5020866l-2.1259155,4.2860527
		c-6.0747986,13.7917442-16.2555542,49.9811325-23.6239319,79.7358704
		c-6.6596069,26.8298416-9.9780273,43.0739975-11.3729858,53.1421432
		c-28.2720947-15.1004791-53.7156982-34.9832306-75.2024231-58.7668304l-3.0709229-3.3748627l-4.4999084,0.8326187
		c-1.5635986,0.2811661-7.0082245,1.7773361-11.3732452,8.9207153c-8.7182617,14.2418442-7.4694519,41.8703842,3.712326,82.1994095
		c-17.1887207,4.471344-34.0932159,9.9710693-50.6222839,16.4692688
		c-11.9720459-3.5224915-23.7319794-7.7291718-35.2218781-12.5993958l-4.0048981-1.7098846l-3.6672821,2.3623047
		c-3.5648499,2.6096802-5.8771515,6.5900421-6.378334,10.9794769c-2.2498169,13.0493469,6.4346542,32.375824,25.6597519,57.4732361
		c-0.6746826,14.9504395-0.3824005,29.7434692,0,43.2877197c-29.5858078,8.1895752-58.6991196,17.4591675-71.1522369,22.6901855
		c-5.422493,1.8110046-11.6995926,5.3770447-11.6995926,12.104248c0,6.918396,6.5696564,9.6294556,9.3708038,10.799408
		c0.3936539,0.1575317,0.7649155,0.3036804,1.0685959,0.4499512l0.4724884,0.2250061
		c13.2856064,5.6246643,49.4299393,15.6029968,78.5209961,23.0500488
		c1.5636139,9.7419434,3.3747253,19.3938904,5.6248169,29.2484741
		c-25.8174286,22.948822-39.0581055,41.7464905-39.3168793,55.9657898c-0.3673706,4.632782,1.2710571,9.200531,4.4996414,12.5430908
		l3.3749924,3.1160889l4.4098206-1.2148743c14.6061249-3.9953613,29.5884705-6.4573059,44.7051697-7.3458252
		c9.6324005,27.0300293,22.0747833,52.9744263,37.1231079,77.4072266l1.7435455,2.8234863l3.2285767,0.7987061
		c33.6440582,8.5097656,67.9770203,14.0172729,102.5944824,16.4578857
		c8.133667,33.6021118,19.1918335,73.8974609,25.8737183,88.7467041l1.9687805,3.9147949
		c1.6470337,3.7183228,5.2225952,6.2145996,9.2808533,6.4796753c3.6648865-0.1824951,6.9712219-2.2575684,8.7295227-5.4785156
		c0.8774109-1.1986694,1.5783691-2.5170898,2.0808716-3.9147949l0.5062866-0.5061646l0.6188965-1.4400024
		c6.3220215-14.6242065,18.0666809-53.7721558,26.4585876-87.8916626
		c33.2501221-2.4268188,66.2350769-7.6652222,98.6011047-15.6591797l3.2173157-0.7874146l1.7660522-2.8011475
		c15.0073242-24.366333,27.5376587-50.173645,37.4044189-77.0359497c15.3459473,1.0986328,30.5484619,3.6907349,45.3913574,7.739624
		l4.3873291,1.1249084l3.3746948-3.1048279c3.2041626-3.3441772,4.8396606-7.8904724,4.4996338-12.5093079
		c-0.190918-14.3205566-13.2966919-33.4107666-38.9564819-56.7759094c2.137207-9.7980957,4.0159302-19.93396,5.6248169-30.2721252
		c31.4755249-7.6720581,66.1914063-17.8753662,79.4655762-23.3088379l1.0576172-0.4499817
		c3.1497192-1.3161011,9.6970215-4.0498047,9.6970215-10.9682007
		C654.2340698,354.9882507,650.5892944,351.1746826,642.7822266,347.9798889z"/>
	<path class="st1" d="M639.6547241,355.5171814v-0.0001221c-12.7794189-5.3997192-46.2236938-15.6817017-77.1934814-24.0061646
		c0.4725342-15.7492981,0.9562378-31.9483948,0.4387207-48.6650391
		c40.2506104-50.1723175,25.0075684-60.4768372,25.0075684-60.4768372
		c-13.008728,5.6166382-26.4896851,10.0700226-40.2843628,13.3081207
		c-19.8225708-8.0002594-40.1998901-14.5495453-60.9717102-19.5964966
		c25.4685364-84.0668335,1.383667-88.4653778,1.383667-88.4653778
		c-39.2828064,41.8140717-79.0721741,60.53302-87.4193115,63.9865875
		c4.3762817-5.8721924-25.6822815-115.4414978-36.5267334-140.9438324c-0.3928223-0.443531-0.7221375-0.9394836-0.9784851-1.4736481
		c-0.2708435-1.104126-0.7776489-2.1365242-1.4850464-3.0261269c-0.4837341-0.9787674-1.4737854-1.9686584-1.9687805-1.9686584
		c-0.4950256,0-1.4737854,0.9898911-1.9572754,1.9686584l-1.9572449,3.9373169
		c-11.2496338,25.5697823-41.1392822,144.0486755-34.2659302,142.5750275h-0.4837341
		c0-0.2733917-0.2214966-0.4950256-0.494751-0.4950256c0,0-44.7504883-17.6503601-88.5444946-65.7640533
		c0,0-24.0736084,4.4434662,1.1251831,88.9604034c-20.5883942,4.9222412-40.7868958,11.3517914-60.4319305,19.236496
		c-13.2136078-3.786087-26.1853333-8.3692474-38.8443909-13.7243042c0,0-15.2317352,9.8431549,23.1626892,58.9581451
		c-0.9674988,17.695282-0.4612274,35.379425,0.0563049,52.0960693
		c-30.9584808,8.3920288-63.8854904,18.7414856-76.6536865,24.1636963c0,0-6.389595,2.0699158-6.389595,4.4322205
		c0,1.8674316,3.9373169,2.9474182,5.9058456,3.9260559c12.7794571,5.3885498,49.6547852,15.6704407,82.6045837,23.9950256
		c1.9685211,13.2742004,4.4996338,26.0424194,7.4021454,38.8217468
		c-53.0297775,45.7625122-38.2480011,59.5093384-38.2480011,59.5093384
		c17.1586914-4.6697998,34.8056946-7.3125916,52.5798187-7.8745117
		c9.7168579,28.5347595,22.6070709,55.8884583,38.4276733,81.5469666
		c35.1138153,8.9194946,70.9958954,14.4793091,107.1622162,16.604187
		c8.3919067,35.3792725,20.2489014,78.6107788,26.6385193,92.8637695l1.9687805,3.9260864
		c0.494751,0.9899902,1.4847717,1.9686279,1.9685364,1.9686279c0.4834595,0,1.4847717-0.9786377,1.9685059-1.9686279
		c0.6896973-0.8700562,1.1914063-1.8735962,1.4737854-2.9473267c0.2474976-0.5391235,0.5776062-1.036377,0.9787598-1.4736328
		c6.3783264-14.7592163,19.1237488-57.529541,27.4258118-92.4363403
		c34.8092041-2.1473999,69.3513184-7.4489746,103.2023926-15.8392334
		c15.7345276-25.604248,28.7207336-52.798645,38.7427673-81.1307068
		c17.9373779,0.7422485,35.7340088,3.5045166,53.0523071,8.2344971c0,0,14.7366943-13.7804565-37.8991699-60.4093933
		c2.9398193-12.7868347,5.3811035-26.0610352,7.3236084-39.822876
		c32.9266968-7.8745117,70.2635498-18.7527466,83.5377197-24.1749878c2.3286743-1.0462036,5.883606-2.182373,5.883606-3.9373169
		C646.078125,358.1607971,639.6547241,355.5171814,639.6547241,355.5171814z"/>
	<path class="st0" d="M542.3137207,343.4125366l0.0337524-0.0447693
		c1.3947144-24.2875977,1.1246338-45.0539246,0.6972046-60.9044189
		c20.001709-15.0178833,17.3804932-17.2678528,17.3804932-17.2678528c-1.5748901-1.338623-8.4594727,0.4163208-17.9205322,3.8135681
		c-0.0898438-1.4511108-0.145874-2.8348083-0.190918-4.1397705c22.2960205-17.9990997,16.1316528-20.3164978,16.1316528-20.3164978
		c-2.7786255-1.7998505-10.3834839,0-20.2489014,3.7461243l-4.3087158-1.2599182
		c-22.282074-6.7328339-44.8971863-12.3087158-67.755249-16.7053833
		c10.6532593-20.766449,20.4851685-42.8940582,15.0965881-44.6826477
		c-3.0821838-1.3611603-20.7774658,15.5354156-35.1653137,41.2516022l-2.2500916-0.3263397
		c10.9233093-21.0250854,21.3738403-43.9851837,15.8278503-45.8188324
		c-3.1835327-1.4062042-21.8350525,16.3117371-36.4368896,43.175354c-13.3079834-1.4399872-26.6610413-2.373703-40.295105-2.8574524
		c0.3148193-45.6838074-5.1635742-73.649826-10.304657-73.649826c0,0-10.8892212-0.7312622-11.9130554,73.2561798h-3.7799072
		c0.3823853-45.4477081-4.8369751-73.2561798-10.3494263-73.2449188c0,0-10.9458313-0.7312622-11.9243164,73.7623138
		c-11.9468384,0.4950104-23.7024841,1.3500366-35.4020996,2.5761719
		c-14.4551392-26.6837006-33.0281067-44.2439575-36.2003784-42.8377533
		c-5.4671326,1.8336487,4.8257141,24.4899139,15.7492981,45.3913879l-2.6440125,0.3712616
		c-14.309021-25.4912109-31.7570648-42.1853333-35.1765747-40.8130493
		c-5.0847473,1.7774658,4.7246246,23.5450745,15.3776245,44.1427307
		c-23.9148712,4.5196228-47.5722961,10.3100128-70.8712158,17.3466797l-4.0046234,1.2711792
		c-9.8434296-3.6898041-17.4142456-5.4672699-20.1590881-3.6674194c0,0-6.603302,2.2499542,16.0193176,20.2490387
		c-0.0675812,1.3198547-0.1238861,2.7148132-0.1689453,4.1846924c-9.3929291-3.3748474-16.233017-5.0847473-17.7963715-3.7572327
		c0,0-2.6324768,2.2498169,17.335144,17.4927979c-0.6972046,16.3004761-1.2710419,36.9993591-0.1686707,60.9268188
		c-45.4476929,4.3985596-43.1302948,9.100769-43.1302948,9.100769c0.708725,3.9485779,19.6863251,4.8034668,43.872818,4.2297363
		c-0.0128632,0.3395081,0.0134125,0.6792603,0.0788422,1.0124207c-39.7555695,4.7360229-35.593277,8.4596252-35.593277,8.4596252
		c0.4499664,3.9823608,16.007782,4.8597717,36.6841278,4.2635193c2.0063324,21.012085,5.3580017,41.8737488,10.0346222,62.4567871
		c-30.7560272,11.7669067-31.880661,18.3027649-31.880661,18.3027649s5.0734863,3.7797852,35.716629-2.8799744
		c0.4724884,1.8223877,0.9562378,3.6336365,1.4625092,5.4560242c-15.4789734,5.4334717-26.9983673,10.4393921-26.3462219,13.1393127
		c0,0,2.1599884,3.4873657,29.2487335-3.1048279c8.4189911,27.9182739,19.5527802,54.9447021,33.2420959,80.6919556
		l2.4632721,4.9159546l5.4111023,0.9787598c44.7277069,8.7971191,89.4666595,14.1517334,122.393692,14.117981
		c32.927002-0.0338135,77.6209106-5.4783936,122.3711548-14.376709l5.3998413-0.9900513l2.4519958-4.9159546
		c12.9411621-26.020813,23.5097046-53.1555481,31.5773926-81.0744934
		c28.2359009,6.929657,30.2719727,3.3748779,30.2719727,3.3748779c0.8661499-2.7673645-11.3166504-7.9646301-27.4370728-13.4993286
		c0.4835205-1.7774658,0.9898071-3.5660706,1.4397583-5.3322754c32.0496216,7.0083618,37.291748,3.1160889,37.291748,3.1160889
		s-1.1812134-6.7495728-33.5233765-18.8315735c4.5720215-20.4669189,7.9526978-41.1818848,10.1247559-62.0404663
		c22.4313965,0.7087402,39.7214966-0.0900879,40.059082-4.1846619c0,0,4.9160767-3.9373474-38.8328247-8.8083801v-0.6974487
		c25.8734741,0.6974487,46.5836182-0.0674438,47.1236572-4.2635498
		C588.5036621,352.6932373,590.9559326,347.7772827,542.3137207,343.4125366z M460.3725281,241.2680359h0.0002747
		c20.4583435,3.7447815,40.7142334,8.5206299,60.6906738,14.3092804
		c-20.6766052,9.4832916-44.4016113,22.3751068-56.9560852,29.3496857
		c-2.4579163-8.9743347-7.9979858-16.7965393-15.6479187-22.093811
		C451.1257629,258.1646118,455.558075,250.2788544,460.3725281,241.2680359z M382.6505127,232.8985138
		c11.8792725,0.4163208,23.4211731,1.2711945,34.873291,2.3848419c-2.4729309,5.4940948-4.6216736,11.1285706-6.4349365,16.8741913
		h-29.214386c0.3823853-6.6821594,0.6524048-13.0980377,0.8098145-19.247757L382.6505127,232.8985138z M334.5705872,233.0785828
		l-0.022522,0.011261c0,5.9546509,0.0675964,12.329361,0.2024536,19.1240082h-23.488739
		c-1.7840576-5.8119812-3.9177551-11.5108185-6.3896179-17.0653839
		C314.6255188,234.2260284,324.4909363,233.5060272,334.5705872,233.0785828z M261.9893799,240.9530945h0.0450439
		c4.7471619,8.8082123,9.1569519,16.6041565,11.9130554,21.4301453
		c-8.3055725,5.4964905-14.6176758,13.5245056-17.9990997,22.8925171
		c-12.5094299-6.929657-36.4594116-19.888916-57.2931824-29.3947449
		C219.4819946,249.7664032,240.6241302,244.7830048,261.9893799,240.9530945z M187.9456329,343.0282593
		c-0.9674988-20.2479553-0.7312622-38.0328064-0.2587738-52.6902771
		c20.2489166,11.1143494,52.1861725,19.7313843,66.0905457,23.1737976v23.4099426
		C236.1998444,338.6761169,212.168869,340.9703064,187.9456329,343.0282593z M189.9028931,370.6924744h0.0450439
		c21.2952576-1.0236816,45.6614227-3.1498718,64.3580017-4.9384766v42.7815857
		c0.1413116,1.6758118,0.3933716,3.3406677,0.7537689,4.9833679c-23.9049377,6.0184937-42.0166473,11.4181824-55.7182922,16.1316833
		C195.006424,410.2067261,191.8545227,390.5179749,189.9028931,370.6924744z M503.2891235,484.3676453v-0.0561829
		c-15.4451904-4.7696838-67.9912109-18.4714355-143.2499695-18.3927612
		c-77.4184875,0.0787048-131.1116791,14.6916809-144.5773468,19.1240234
		c-2.8574524-7.8746338-5.4108276-15.6704407-7.7282257-23.3988037
		c15.3438263-4.2297363,36.4929352-10.9231567,65.6513062-21.3738098
		c10.3180542,7.0255127,22.549408,10.7020569,35.0306702,10.5293579l102.2348938-0.1012268
		c12.881073,0.3526306,25.5613098-3.247345,36.3355103-10.3157959
		c28.0337219,9.9219971,48.6425171,16.4128418,63.7391052,20.5863953
		C508.4752502,468.6859436,506.0339661,476.4704895,503.2891235,484.3676453z M519.0722046,428.8070068l-0.0338135-0.0002747
		c-13.4994507-4.5671997-31.228241-9.7531738-54.2332458-15.5016174c0.6652832-2.7414856,0.9492493-5.561676,0.8435974-8.3807983
		v-39.4290771c17.9089966,1.664978,41.6230164,3.6561584,62.9180298,4.6911011
		C526.5092163,389.8899536,523.3393555,409.4613647,519.0722046,428.8070068z M530.8165894,342.3768005
		c-24.2495422-2.1711121-48.150177-4.3528442-65.2354126-5.9274292v-23.1062622
		c13.9494324-3.4535522,45.9652405-12.1268921,66.0679932-23.2750244
		C531.9302368,304.6246033,531.9527588,322.308197,530.8165894,342.3768005z"/>
	<path class="st2" d="M249.5700531,513.7288818c-6.3617096,2.3683472-12.5619965,5.1491089-18.5616913,8.324585
		c-4.1845551-8.8532715-7.9979858-17.6841431-11.4292908-26.4249268c6.2434387-1.9010925,18.9215393-5.3659058,34.8732758-8.5158081
		c11.3507233-2.238678,25.0298309-4.3648682,40.6777496-6.0409851c10.6983032,2.3511963,16.4802856,9.3820801,17.9202576,17.9990845
		c-21.6725464,2.2956848-42.987915,7.2061462-63.4803009,14.6242371V513.7288818z M353.7509155,496.47229v-0.0001221v-18.6964417
		c-13.6005554,0.1462708-26.4025269,0.7087402-38.3155823,1.5635986c5.0032349,5.0299377,8.1723022,11.5942078,8.9995422,18.6403809
		C333.8919067,497.1472473,343.6640015,496.6447144,353.7509155,496.47229z M465.3226624,486.9664612
		c-11.3059387-2.2498169-24.8163757-4.3085632-40.2843628-5.9396362
		c-10.6757813,2.3848572-16.4126892,9.4831848-17.7963867,18.0552673
		c21.6621094,2.3030701,42.9790955,7.1396484,63.5141296,14.4105225c6.2917175,2.387146,12.4206543,5.1829224,18.3476868,8.3695068
		c3.8024292-8.9995117,7.0873413-16.7166443,10.8557129-26.4698181
		C488.5666199,491.9890137,477.0056458,489.1767273,465.3226624,486.9664612z M311.1604004,511.2651978
		c-19.6418152,2.3048096-38.9736328,6.7446289-57.6530304,13.2405396
		c-5.9903107,2.263916-11.8039093,4.9713135-17.3917236,8.0996094c1.20401,2.3735962,2.384964,4.7697144,3.6447601,7.1547852
		c13.0945435,2.5986938,27.3700256,5.1182861,41.9941406,7.3120728c1.5751343-1.6199341,3.1497498-3.2398682,4.7023621-4.9047241
		c10.6194763-10.6082153,20.4065857-21.5200806,24.7034912-30.8683777V511.2651978z M265.1841736,407.5120239
		c1.9913025,19.1238708,21.6551208,31.9258423,43.2877197,31.9031982l102.2345886-0.1124878
		c21.1265869,0,39.3056335-8.8869324,43.2203979-28.0559692c0.5950623-2.5845032,0.9232788-5.2231445,0.9787903-7.8746643
		v-29.4846802h-1.5411072c-12.2956848,0-23.0950928,2.9698181-31.9485168,9.8544006
		c-4.696991,3.1237488-8.55896,7.3487854-11.2493591,12.3068542l-98.7922974,0.1013489v-89.4554138l98.7922974-0.1012268
		l0.5062866,22.1163635c22.6113586,0,43.7376709-9.8769531,43.7154236-31.9933167v-0.9787598
		c0-22.6112061-21.1716309-32.4207153-43.7827454-32.3983459l-102.2348633,0.1013794
		c-21.6213379,0-41.2741394,12.8242188-43.2203979,32.4883118l0.0675659,55.5494995L265.1841736,407.5120239z
		 M408.8615723,511.1639709c4.1172485,9.3482971,14.0282593,20.2489319,25.0526428,30.8796082h0.011261
		c1.5411072,1.6537476,3.1159668,3.2622681,4.6911011,4.8822021c14.5114746-2.2498169,28.6298523-4.7696533,41.5104065-7.3908691
		c1.2147217-2.4297485,2.3396301-4.8483887,3.4983521-7.2782593c-5.5658264-3.050293-11.3397522-5.7042236-17.2791138-7.9420776
		C447.7319641,517.8120728,428.4519043,513.4013062,408.8615723,511.1639709z M396.1161804,509.7915344
		c-9.6744995-0.866272-19.7313843-1.394928-30.0585632-1.5299377v45.5263672h1.0688782
		c2.9134827-0.0562744,5.8495178-0.1575317,8.7858276-0.2474976c15.4902344-0.7087402,31.9257202-2.3511353,48.2373047-4.4997559
		c-11.8680115-12.2843018-24.3887024-24.602417-28.0447083-39.249176H396.1161804z M296.2440186,549.0745239
		c16.2778015,2.182373,32.6907654,3.7910156,48.1584778,4.432312v-0.0001221
		c2.8011475,0.0786743,5.6248169,0.1686401,8.3809204,0.2249756h1.0238037v-45.5150146
		c-10.315918,0.1686707-20.3615417,0.7311096-30.0472717,1.6311951
		C320.2277832,524.4721069,308.0782471,536.8463745,296.2440186,549.0745239z M404.7893677,479.2606201L404.7893677,479.2606201
		c-12.0256653-0.84375-24.9737854-1.372406-38.7767944-1.4850464v18.7528992
		c10.0346069,0.1236267,19.8327332,0.5960999,29.3163147,1.4060669
		C396.1697998,490.7855225,399.5228271,484.1676025,404.7893677,479.2606201z"/>
</g>
</svg>
