<?xml version="1.0" encoding="utf-8"?>
<!-- Generator: Adobe Illustrator 22.0.1, SVG Export Plug-In . SVG Version: 6.00 Build 0)  -->
<svg version="1.1" id="Layer_2_1_" xmlns="http://www.w3.org/2000/svg" xmlns:xlink="http://www.w3.org/1999/xlink" x="0px" y="0px"
	 width="720px" height="720px" viewBox="0 0 720 720" style="enable-background:new 0 0 720 720;" xml:space="preserve">
<style type="text/css">
	.st0{fill:#00A8E1;}
	.st1{fill:#002B5C;}
	.st2{fill:#C4D600;}
	.st3{fill:#FFFFFF;}
</style>
<g>
	<path class="st0" d="M658.3465576,231.2329102l8.1624146-13.9927979l-14.9922485,6.4966583
		c-4.9974365,2.1655579-10.8277588,3.9979401-16.6581421,5.4971771C665.0097656,207.5784149,684,157.9372864,684,157.9372864
		l-11.8272705,7.3295593l-3.6647949,2.1655579c-0.4996948,0.3331604-57.6370239,34.3156738-133.9310913,60.9686432
		c-18.8236084,6.6632385-35.6483154,11.3274994-50.3074646,15.4920349
		c-46.3095398,12.9933014-74.2951355,20.8226166-72.2961426,63.134201
		c0.6663208,15.8251953-2.1655579,27.6524658-8.495636,34.1491089c-1.9989624,1.9989624-4.1645203,3.331604-6.1634827,4.3311157
		c-0.8329163-0.9995117-1.1660767-2.9984741-1.1660767-7.3295593c0.1665955-5.4971924,7.3295593-23.4879456,7.3295593-23.4879456
		c7.9958801-20.1562805,4.3311157-34.6488342,4.3311157-34.6488342s-2.9984741-4.6642761-7.4961548-9.1619568
		c12.6601563-17.1578369,6.1634827-36.9809723,5.8303528-37.8138733l-1.3326721-3.9979401l-4.3311157,0.4997406
		c-12.4935608,1.3326569-23.487915,5.3305817-30.9840698,11.1609344c-1.8323975-1.9989624-3.4981995-3.1650391-3.6647644-3.3316193
		l-7.1629944-5.1640015l-1.1660767,8.4956207c-3.9979248-1.3326569-8.3290405-1.665802-8.3290405-1.665802
		c-6.829834-4.3311157-16.1583557-8.3290558-28.818512-9.6617126l-4.3311157-0.4997406l-1.3326416,3.9979401
		c-0.3331604,0.832901-6.9963989,20.8226166,5.8303223,37.8138885c-4.4976807,4.4976807-7.4961548,9.1619568-7.4961548,9.1619568
		s-3.6647644,14.4925537,4.3311157,34.6488342c0,0,7.1629944,17.9907532,7.3295593,23.4879456
		c0,4.3311157-0.3331604,6.3300781-1.1660461,7.3295593c-2.1655579-0.8329163-4.3311157-2.3321228-6.3300781-4.3311157
		c-6.3301086-6.4966431-9.3285522-18.3239136-8.4956665-34.1491089c1.9989929-42.311554-25.9866333-50.1408997-72.2961273-63.134201
		c-14.8257141-4.1645355-31.4838104-8.8287964-50.3074646-15.4920349
		c-76.2940903-26.6529694-133.431366-60.6354828-133.9311066-60.9686432l-3.6647797-2.1655579L36,157.9372864
		c0,0,18.9902306,49.8077087,49.1413879,71.2966614c-5.8303375-1.4992371-11.8272476-3.3316193-16.6580963-5.4971771
		l-14.9922905-6.4966583l8.162468,13.9927979c0.6663246,1.1660614,13.3264809,22.6550293,34.8154259,37.3141174
		c-1.9989777,0-3.9979477,0-5.9969177,0c-7.3295593,0-13.1598969-0.3331299-17.8241653-0.9994812l-15.4920273-2.1655579
		l10.8277664,11.1609192c0.9994812,0.9994812,20.1563034,20.6560364,40.8123398,30.484314
		c-5.8303375,1.6658325-12.6601563,3.3316345-19.1568146,3.9979553l-11.1609268,1.3326416l7.9958878,7.6627197
		c0.832901,0.8329163,17.3244171,16.3249512,46.4760818,28.8185425
		c-13.6596375,3.4981995-22.4884262,5.3305664-22.4884262,5.3305664
		c6.4966583,7.6627502,14.8257065,18.3239136,26.3198013,31.4837952h-0.1665802
		c69.1311035,78.2930298,120.1048737,109.6102905,172.9110565,145.4252319
		c14.8257141,9.994812,50.3074646,30.9840698,50.3074646,30.9840698s35.9815063-20.9892578,50.8071899-30.9840698
		c52.8061829-35.6483459,103.7799683-66.9656067,172.9110718-145.4252319h-0.166626
		c11.4940796-13.1598816,19.9897461-23.8210754,26.3198242-31.4837952c0,0-8.6622314-1.8323975-22.4884644-5.3305664
		c28.9851074-12.3269958,45.6431885-27.9856262,46.4760742-28.8185425l7.9959106-7.6627197l-11.1609497-1.3326416
		c-6.663269-0.8329163-13.493103-2.3321228-19.1568604-3.9979553c20.6560669-9.9948425,39.8128662-29.4848328,40.8123779-30.484314
		l10.8277588-11.1609192l-15.4920044,2.1655579c-4.4977417,0.6663208-10.4945679,0.9994812-17.8242188,0.9994812
		c-1.9989624,0-3.9979248,0-5.9968872,0C645.0200806,253.8879395,657.6802368,232.3989868,658.3465576,231.2329102
		L658.3465576,231.2329102z"/>
	<path class="st1" d="M653.682251,228.567627c-16.3249512,7.1629791-42.8113403,10.827774-42.8113403,10.827774
		c36.1480713-19.6565704,55.3049316-56.3043823,60.4688721-67.4653015
		c-0.1665649-0.1665802-0.1665649-0.1665802-0.1665649-0.1665802s-57.1372681,34.1491089-134.930603,61.4683838
		c-77.793335,27.15271-121.4375305,22.9881897-119.1054077,73.4621887
		c1.4992065,32.1501465-11.3275146,41.8118286-20.9892273,44.6437073
		c-3.8313599-2.1655579-5.6637268-3.4981995-5.6637268-13.3264771c0.1665955-5.6637268,3.9979248-15.8251953,7.4961243-24.4873962
		c0.1665955-0.1665955,0.1665955-0.4997559,0.1665955-0.6663208V312.69104
		c7.4961548-18.657074,4.3311157-30.8175049,4.3311157-30.8175049c-0.3331604-0.6662903-0.8328857-1.3326416-1.3326416-1.9989624
		c-3.8313599-5.3305664-8.9953613-8.3290405-8.9953613-8.3290405c15.6585999-15.8251953,8.495636-36.9809723,8.495636-36.9809723
		s0,0-0.1665955,0l0,0c-15.9917908,1.8323822-26.1531982,7.8292999-32.4832764,13.4930725
		c-2.6653137-4.3311157-5.8303528-6.4966583-5.8303528-6.4966583s-0.4997253,3.6647797-2.3321228,5.996933
		c-1.8323975-2.3321228-2.3321228-5.996933-2.3321228-5.996933s-3.1650085,2.1655579-5.8303223,6.4966583
		c-6.3300781-5.4971771-16.4915161-11.660675-32.4833069-13.4930573l0,0c0,0,0,0-0.1665649,0
		c0,0-7.3295593,21.1557922,8.495636,36.9809875c0,0-4.9974365,2.8318787-8.9953613,8.3290405
		c-0.4997559,0.6663208-0.9995117,1.3326416-1.3326721,1.9989624c0,0-3.1650085,11.9938354,4.3311157,30.8174744v0.1665955
		c0,0.1665955,0.1665955,0.4997559,0.1665955,0.6663208c3.49823,8.6622009,7.3295593,18.8236694,7.4961548,24.4873962
		c0,10.9943542-2.9984741,11.3275146-5.6637573,13.3264771c-9.6616821-2.8318787-22.4884338-12.4935608-20.9891968-44.6437073
		c2.3321228-50.4740295-41.3121033-46.3095093-119.1054077-73.462204S48.4935722,171.7635345,48.4935722,171.7635345
		s0,0-0.1665802,0.1665802c5.1640091,11.1609192,24.3208199,47.8087463,60.4688911,67.4652863
		c0,0-26.4863815-3.6647797-42.8113174-10.827774c0,0,18.9902344,32.6498718,49.1413956,44.3105469
		c0,0-27.4858627,2.3321228-43.6442184,0c0,0,29.3182449,30.317749,53.139328,34.1491089
		c0,0-17.9907379,7.3295593-34.9820023,9.3285522c0,0,21.8221054,20.8226013,59.4694061,33.1495972
		c-14.6591339,4.6642761-29.651413,7.9958801-29.651413,7.9958801s61.4683838,76.4606934,140.0946045,131.7655334
		c35.1485901,24.6539917,62.1347046,44.4771729,99.9485779,66.7990112l0,0l0,0
		c37.8138733-22.1552734,64.8000183-41.9784546,99.9486084-66.7990112
		c78.7927856-55.3048706,140.0946045-131.7655334,140.0946045-131.7655334s-14.9922485-3.3316345-29.6513672-7.9959106
		c37.6472778-12.3269653,59.4694214-33.1495972,59.4694214-33.1495972
		c-16.824707-1.9989624-34.9819946-9.3285522-34.9819946-9.3285522
		c23.8210449-3.8313599,53.1392822-34.1491089,53.1392822-34.1491089c-16.1583252,2.3321228-43.6442261,0-43.6442261,0
		C634.6920166,261.2174988,653.682251,228.567627,653.682251,228.567627L653.682251,228.567627z"/>
	<path class="st0" d="M282.8730164,490.4328918c8.8287964,6.6632385,17.9907227,12.9932861,26.9861145,18.8236389
		c2.3321228-4.8308411,5.4971619-9.1619568,8.9953613-12.9932861L282.8730164,490.4328918L282.8730164,490.4328918z
		 M437.1269836,490.4328918l-36.4812012,5.8303528c3.6647644,3.9979248,6.6632385,8.3290405,9.1619568,13.1598816
		C418.8031006,503.5928345,428.1316223,497.2627258,437.1269836,490.4328918L437.1269836,490.4328918L437.1269836,490.4328918z
		 M292.2015381,323.3522034c-2.1655579-15.1588745,1.6658325-26.4863586-2.9984436-34.8154297
		c-8.329071-14.4925232-19.6565552-17.8241577-53.9722443-27.8190002
		c-34.3156891-9.994873-75.2946167-20.156311-139.0951233-50.8072052c0,0,30.9840622,25.9866333,73.6287994,39.6462708
		c42.8113098,13.6596527,49.4745483,16.158371,76.2940979,23.3213348
		c26.8195496,7.1629944,36.8143921,16.1583557,36.6478271,28.4853516
		c-0.1665955,9.8282776-3.3316345,43.9773865,21.3223572,59.6360168
		C298.3650513,350.8380737,293.7007751,337.6781616,292.2015381,323.3522034L292.2015381,323.3522034z M484.7691345,260.7177429
		c-34.3156738,9.9948425-45.643158,13.4930725-53.972229,27.8190002
		c-4.4976807,7.6627502-1.3326416,18.1573181-2.6652832,31.8169861l0,0
		c-0.9995117,15.4920349-5.9969482,29.8179932-12.3269958,40.645752
		c24.6539917-15.6585999,21.3223572-49.8077087,21.3223572-59.6359863
		c-0.1665649-12.3269958,9.8282776-21.3223877,36.6477966-28.4853516
		c26.8195496-7.1629944,33.4827881-9.6617126,76.2940674-23.3213501
		c42.8113403-13.6596375,73.6288452-39.6462708,73.6288452-39.6462708
		C560.0637817,240.5614624,519.0848389,250.7228851,484.7691345,260.7177429L484.7691345,260.7177429z"/>
	<path class="st2" d="M369.1604004,355.677124c0.1191406-0.1154785,0.2368164-0.2355957,0.3588867-0.3413086
		C369.3972168,355.4416504,369.279541,355.5615845,369.1604004,355.677124z M367.7193604,357.3624878
		c-0.0919189,0.1272583-0.1801758,0.2578735-0.2694092,0.3884888
		C367.5390625,357.6206055,367.6275635,357.489563,367.7193604,357.3624878z M368.8903809,355.9383545
		c-0.1097412,0.1148071-0.215332,0.2398071-0.3223877,0.3616943
		C368.6750488,356.1780396,368.7806396,356.0533447,368.8903809,355.9383545z M365.2661133,361.6578369
		c0.0192871-0.0411987,0.0388184-0.0823364,0.0584717-0.1238403
		C365.3049316,361.5753784,365.2852783,361.6168213,365.2661133,361.6578369z M367.1806641,358.1509399
		c-0.083374,0.1287231-0.1635742,0.2584839-0.2443848,0.3890381
		C367.0169678,358.409729,367.0974121,358.2794189,367.1806641,358.1509399z M365.6228027,360.9187622
		c0.0407715-0.0823975,0.0817871-0.1642456,0.1237793-0.2474365
		C365.7047119,360.7542725,365.6633301,360.8366699,365.6228027,360.9187622z M366.1938477,359.8182983
		c-0.0584717,0.1074829-0.1151123,0.213623-0.1716309,0.3206177
		C366.0786133,360.0322266,366.135498,359.9255371,366.1938477,359.8182983z M366.6721191,358.9736328
		c-0.0720215,0.1220093-0.1413574,0.2434692-0.2109375,0.3659058
		C366.5306396,359.2173462,366.6003418,359.0953369,366.6721191,358.9736328z M368.2902832,356.6188354
		c-0.1005859,0.1226807-0.1971436,0.2515869-0.2949219,0.3792725
		C368.0930176,356.8705444,368.1899414,356.741333,368.2902832,356.6188354z M345.7076416,358.2736816
		c-0.0855713,0.1083984-0.1658936,0.218811-0.2442627,0.3299561
		C345.5419922,358.4922485,345.6218262,358.3823853,345.7076416,358.2736816z M345.911499,358.0264893
		c0.0958252-0.112793,0.1920166-0.2237549,0.293335-0.3327026
		C346.1037598,357.8023682,346.0070801,357.9140625,345.911499,358.0264893z M346.9086914,356.9988403
		c0.1369629-0.1251221,0.2724609-0.2470703,0.4100342-0.3638916
		C347.1816406,356.7512207,347.0449219,356.8743896,346.9086914,356.9988403z M346.4034424,357.4876709
		c0.1141357-0.116394,0.2288818-0.2320557,0.3465576-0.3430786
		C346.6318359,357.2561035,346.5179443,357.3707886,346.4034424,357.4876709z M344.8000488,359.8456421
		c0.0412598-0.1153564,0.0875244-0.2293701,0.1398926-0.3433228
		C344.8876953,359.6160889,344.8410645,359.7304688,344.8000488,359.8456421z M344.7685547,361.8103027
		c-0.0488281-0.1331177-0.0810547-0.2663574-0.1071777-0.4000244
		C344.6878662,361.5438232,344.7192383,361.6773071,344.7685547,361.8103027z M344.612915,360.7747192
		c-0.0058594,0.1254883-0.0068359,0.2511597,0.0050049,0.3768311
		C344.6064453,361.0256958,344.6066895,360.9003906,344.612915,360.7747192z M344.6364746,360.4945068
		c0.0177002-0.1199951,0.043457-0.2390137,0.0751953-0.3582153
		C344.6801758,360.2553101,344.6538086,360.3746948,344.6364746,360.4945068z M375.276001,361.7124634
		c0.005249-0.0162964,0.0152588-0.0322876,0.0201416-0.048584
		C375.291626,361.6766968,375.2817383,361.6975708,375.276001,361.7124634z M345.0839844,359.2130737
		c0.0609131-0.1123657,0.1246338-0.2233276,0.1945801-0.3337402
		C345.2087402,358.989502,345.1447754,359.1008911,345.0839844,359.2130737z M383.7131348,293.1541748
		c0.0148926-0.010437,0.0288086-0.0200195,0.0435791-0.0304565
		C383.7419434,293.1341553,383.7279053,293.1437988,383.7131348,293.1541748z M384.7280273,292.4271851
		c-0.1871338,0.1365356-0.3662109,0.2637329-0.5478516,0.3936157
		C384.3614502,292.6913452,384.5412598,292.5632935,384.7280273,292.4271851z M373.8261719,346.3403931
		c1.7438965,3.4877319,3.4862061,5.7054443,3.9029541,6.215332c-3.6685791-16.227417-0.7189941-26.2460938,0.9307861-30.2057495
		c0.1601563,1.3400269,0.8300781,6.3300171,1.8300781,8.3300171c0,0,1.1699219-3,1.3300781-3.6599731
		c3.3299561-9.5,2.6699219-15.8300171,2.6699219-15.8300171c9.4899902-6,9.1600342-20.8200073,8.8300781-24.8200073
		c0-0.6566162,0.15271-1.4620361,0.1588135-1.4940796c-0.0216064,0.0216675-2.3383789,2.336731-4.4937744,4.1605835
		c-1.5426025,1.3396606-2.9047852,2.399353-4.1418457,3.305542c1.2016602-0.8787231,2.5192871-1.8995972,4.0067139-3.1820679
		c-0.039917,0.5500488-0.3099365,2.9300537-2.1999512,6.710022c0,0,2.1700439,2.1600342-0.3299561,5.4899902
		c0,0-1.8300781-2.6599731-2.8300781-3.3299561c0,0,0.8300781,2.8299561-0.5,5.3299561
		c-1.1699219,2.5-2.1699219,3-5.3300781,4.6700439c-3.1699219,1.6599731-4.5,3.4899902-4.5,3.4899902
		s-0.3095703-0.5038452-0.5673828-1.3949585c0.2575684,0.8939209,0.5673828,1.3999023,0.5673828,1.3999023
		s-0.333252,1.9989624-0.9995117,5.1640015C370.8277588,322.1861572,367.3295898,335.3460693,373.8261719,346.3403931z
		 M375.3515625,360.3527832c-0.0080566-0.0410156-0.0250244-0.0813599-0.034668-0.1223145
		C375.326416,360.2714233,375.3435059,360.3117065,375.3515625,360.3527832z M360,384.3208618
		c6.496582,0,9.4951172-2.4987183,9.4951172-2.6652832l0.1665039-0.166626l0.9995117-3.4981689l-1.3325195,0.4996948
		c-2.4987793,0.8329468-6.3300781,1.4992676-9.3286133,1.4992676s-6.829834-0.6663208-9.3286133-1.4992676l-1.3325195-0.4996948
		l0.9995117,3.4981689l0.1665039,0.166626C350.6715088,381.8221436,353.503418,384.3208618,360,384.3208618z M360,365.9970093
		c-1.2347412,0-3.4663086-0.8564453-3.7885742-0.982666c0.0085449,0.0228271,0.020874,0.0550537,0.0285645,0.0756836
		C356.0900879,365.0300293,356,365,356,365c-3.5-1.3400269-5.8300781-3.8300171-5.8300781-3.8300171
		c-2.829834,1.8300171-1,3.9899902-1,3.9899902S347.1999512,365.3099976,345.2800293,363
		c-0.0668945-0.1092529-0.2141113-0.442627-0.3312988-0.7195435c-2.9649658-2.4994507-4.9384766-6.2783813-4.9384766-6.2783813
		l0.6368408-0.9797363L340.0100098,356c-1.3300781,2,6.5,15.9899902,6.5,15.9899902
		C349.8400879,374.1599731,355.5,375.3300171,360,375.3300171s9.9899902-1.1700439,13.4899902-3.3400269
		c0,0,7.8300781-13.9899902,6.5-15.9899902l-0.637085-0.9776611l0.6368408,0.9797363c0,0-1.9990234,3.9979858-4.9975586,6.3300781
		c0.050415-0.0814209,0.0720215-0.1641235,0.1126709-0.2460327c-0.1385498,0.2770386-0.3052979,0.5847168-0.3948975,0.7338867
		c-1.9699707,2.5-4.0500488,2.3399658-4.0500488,2.3399658s1.670166-1.9899902-1.1599121-3.9899902
		c0,0-2.2365723,2.2160645-5.6118164,3.7160034c-0.0272217,0.0620117-0.0466309,0.1013184-0.0568848,0.1115112
		C363.8312988,364.9974976,361.4992676,365.9970093,360,365.9970093z M406.8676758,486.9442139l-11.7191162,2.3226929
		c-3.0407715-1.9882202-6.0336914-3.6549683-8.9725342-5.059082c2.9396973,1.4047241,5.9333496,3.0725098,8.973999,5.0621948
		L406.8676758,486.9442139z M385.572998,483.9130249c-0.0998535-0.0465698-0.1982422-0.0864258-0.2978516-0.1323853
		C385.3747559,483.8265991,385.4731445,483.8664551,385.572998,483.9130249z M338.3400879,326.8499756
		c0.1699219,0.5,1.3398438,3.6700439,1.3398438,3.6700439c1-2.1700439,1.6601563-7,1.8300781-8.3300171
		c1.4897461,3.9793701,4.2989502,14.0671387,0.7114258,30.4328613c0.2321777-0.2394409,2.2280273-2.3538818,3.9523926-6.1159058
		c6.496582-10.9943237,2.9984131-23.9876709,1.6657715-29.6513672c-0.6663818-3.331665-0.9995117-5.1640625-0.9995117-5.1640625
		s0.1176758-0.1948242,0.2678223-0.5496826c-0.1501465,0.3540039-0.2678223,0.5481567-0.2678223,0.5481567s-1.5-2-4.5-3.6599731
		c-3.1601563-1.6700439-4.1601563-2.3400269-5.3300781-4.6700439c-1.1600342-2.5-0.5-5.3299561-0.5-5.3299561
		c-1.1600342,0.8299561-2.8300781,3.3299561-2.8300781,3.3299561c-2.5-3.3299561-0.3299561-5.4899902-0.3299561-5.4899902
		c-1.9798584-3.9395752-2.1300049-6.1395264-2.1500244-6.5098267c-0.0629883-0.0542603-0.121582-0.1018677-0.1850586-0.1570435
		c-2.0673828-1.7492676-4.2626953-3.930542-4.4597168-4.1268921c0.0258789,0.0270386,0.0646973,0.0681152,0.1247559,0.1337891
		c0,0,0,0.3299561,0,1.1599731c-0.3299561,4-0.6599121,18.8200073,9,24.6600342
		C335.6799316,311.0300293,335.0100098,317.3599854,338.3400879,326.8499756z M387.3200684,364.1599731l-4.6601563,13.5
		l-0.0032959,0.0093384c2.1651611,15.8265991,4.9952393,42.6387329,2.8302002,66.4541016l0.0585938-0.0625l-0.0554199,0.059082
		c3.6600342-5.8300171,8.4899902-18.8200073,8.4899902-36.4799805
		C393.9799805,396.6500244,393.1500244,384.1500244,387.3200684,364.1599731z M370.1599121,354.8400269
		c0,0,0.8393555,0.4799194,1.8461914,1.2504883c-1.0046387-0.7696533-1.8447266-1.2544556-1.8447266-1.2544556
		c-0.1585693,0.1081543-0.3120117,0.2369995-0.4660645,0.362854
		C369.8486328,355.0737915,370.0019531,354.9475708,370.1599121,354.8400269z M375.1606445,359.7169189
		c-0.0270996-0.0684204-0.0639648-0.135376-0.0949707-0.2032471
		C375.0966797,359.581604,375.1335449,359.6484375,375.1606445,359.7169189z M373.5031738,357.3908081
		c-0.098877-0.0985718-0.1977539-0.1936646-0.2990723-0.288208
		C373.3049316,357.1967163,373.4046631,357.2927246,373.5031738,357.3908081z M372.0612793,356.1327515
		c0.1352539,0.104248,0.2736816,0.2160034,0.4128418,0.3300781
		C372.3339844,356.3476563,372.1975098,356.237854,372.0612793,356.1327515z M372.9832764,356.8997803
		c-0.1165771-0.1043091-0.2335205-0.206604-0.3502197-0.3048706
		C372.7503662,356.6938477,372.8659668,356.7947388,372.9832764,356.8997803z M374.0056152,357.9261475
		c-0.0819092-0.093689-0.1662598-0.1841431-0.251709-0.2750854
		C373.8392334,357.7416992,373.9238281,357.8328247,374.0056152,357.9261475z M374.7062988,358.8568726
		c0.0510254,0.0795898,0.1047363,0.1583252,0.151123,0.2389526
		C374.8110352,359.0150146,374.7573242,358.9365845,374.7062988,358.8568726z M374.4648438,358.4967651
		c-0.0646973-0.0880737-0.1342773-0.1741333-0.2033691-0.260437
		C374.3305664,358.322876,374.4001465,358.4084473,374.4648438,358.4967651z M388.9724121,246.2463989
		c0.1949463-0.0680542,0.3846436-0.1332397,0.5684814-0.1953735
		C389.3574219,246.1129761,389.1669922,246.1785278,388.9724121,246.2463989z M378.2060547,251.4382324
		c-0.2043457,0.1377563-0.4064941,0.2782593-0.6069336,0.4206543
		C377.7996826,251.7164917,378.001709,251.5759888,378.2060547,251.4382324z M376.8190918,252.4324951
		c0.2126465-0.1623535,0.4278564-0.3221436,0.6459961-0.4789429
		C377.2468262,252.1102905,377.0318604,252.2701416,376.8190918,252.4324951z M382.3759766,249.0192261
		c0.1547852-0.0779419,0.3093262-0.1540527,0.463623-0.2296753
		C382.6850586,248.8651123,382.5307617,248.9412842,382.3759766,249.0192261z M352.5019531,357.6292114
		c-0.7993164-1.1488037-1.6945801-2.1633911-2.6634521-2.7931519c0,0-1.1921387,0.6866455-2.439209,1.7318726
		c1.2476807-1.0449829,2.4407959-1.7279053,2.4407959-1.7279053
		C350.8010254,355.4631958,351.6972656,356.4768677,352.5019531,357.6292114z M333.5136719,444.1234131
		c-2.3322754-23.8210449,0.6662598-50.640625,2.8317871-66.4658203l1.6682129,4.7262573l-1.6636963-4.723877l-4.6700439-13.5
		c-5.8299561,19.9900513-6.6599121,32.4900513-6.6599121,43.4800415c0,17.6587524,4.8291016,30.6480713,8.4892578,36.4786377
		L333.5136719,444.1234131z M382.0627441,249.1789551c-0.1624756,0.083374-0.3249512,0.1676025-0.4873047,0.2536011
		C381.737915,249.3466187,381.9001465,249.2622681,382.0627441,249.1789551z M380.7717285,249.8692017
		c0.1704102-0.0950317,0.3409424-0.1884155,0.5117188-0.2805176
		C381.1125488,249.6807251,380.9421387,249.774231,380.7717285,249.8692017z M380.5056152,250.0188599
		c-0.1782227,0.1011353-0.355835,0.2039795-0.532959,0.3082886
		C380.1499023,250.2228394,380.3273926,250.1199341,380.5056152,250.0188599z M379.1760254,250.8101196
		c0.1831055-0.1142578,0.3669434-0.2269897,0.5517578-0.3377686
		C379.5428467,250.5830688,379.3592529,250.6958618,379.1760254,250.8101196z M378.9609375,250.9449463
		c-0.1940918,0.1231079-0.3864746,0.2485962-0.5778809,0.3757324
		C378.5744629,251.1936035,378.7668457,251.0680542,378.9609375,250.9449463z M384.8205566,492.2652588
		c-1.1660156,0.3331909-2.4987793,0.8329468-3.6647949,1.8323975c-1.8323975,1.4992676-2.8317871,3.8313599-3.331543,6.99646
		c10.3278809,2.8318481,17.6574707,7.8292847,22.9880371,13.3264771c0.8330078-0.6663208,1.6658936-1.1660767,2.4987793-1.8323975
		C399.3131104,504.0925293,392.8164063,497.0961304,384.8205566,492.2652588z M271.3789063,414.9717407
		c2.9985352-17.8242188,0.9995117-43.6442261-0.1665039-55.1383057
		c-15.3254395,32.8164063-49.6411133,55.4714355-49.6411133,55.4714355
		c30.317627-36.4812012,40.9788818-61.1351929,44.6435547-72.4627075
		c-27.8189697,34.4822388-81.1248779,48.6416626-84.4564819,49.4745483
		c63.4673462-34.6488647,79.7922974-61.3018188,80.9584351-63.1342163
		c-3.8314209,1.9990234-29.4848633,15.9917603-50.973877,22.6550293
		c-26.986084,8.4956665-58.3033447,7.1629639-58.3033447,7.1629639
		c72.9625244-16.9912109,104.7794189-40.479187,106.6118164-41.9783936
		c-1.8323975,0.3331909-21.8221436,3.9979248-64.7999878,6.1635132
		c-44.9768677,2.3320923-60.4688721-5.1640015-60.4688721-5.1640015
		c33.815918,0.3331299,124.2694702-11.6607056,124.2694702-11.6607056s-27.3193359-0.9994507-73.6289063-6.9963989
		c-46.4760742-5.9968872-60.635437-16.6580811-60.635437-16.6580811
		c28.3187256,4.9974365,124.93573,12.1604004,124.93573,12.1604004s-35.6484375-12.1604004-72.2962036-22.3218384
		c-36.8143921-10.161438-53.6390381-24.6539917-53.6390381-24.6539917
		c32.1501465,8.8287964,86.1223755,23.9876709,119.9382935,33.649353
		c33.6494141,9.6616821,29.9844971,17.1578369,30.1512451,41.9783936
		c0.1665039,17.1578369,9.994873,33.1496582,15.9916992,41.3121338
		c7.9958496,9.8282471,16.9912109,17.1578369,21.4890137,20.4894409c1.6657715,1.3326416,2.6652832,1.9989624,2.6652832,1.9989624
		c-1.3326416-0.3331299-2.4987793-0.8328857-3.6647949-1.6658325
		c-12.8266602-4.3311157-21.9887695-10.4945679-28.4853516-16.6580811
		C283.5393066,395.8149414,271.3789063,414.9717407,271.3789063,414.9717407z M263.0498047,329.3490601
		c-0.1665039,0-0.1665039,0-0.1665039,0.166626C262.8833008,329.515686,262.8833008,329.3491211,263.0498047,329.3490601z
		 M534.9101563,300.0308838c-46.3095703,5.9969482-73.6289063,6.9963989-73.6289063,6.9963989
		s90.4534912,11.9938354,124.2694092,11.6607056c0,0-15.4920654,7.4960938-60.4688721,5.1640015
		c-43.1445313-2.1655884-63.1341553-5.8303223-64.8000488-6.1635132
		c1.8325195,1.4992676,33.4829102,24.9871826,106.4453125,41.9783936c0,0-31.1506348,1.1660767-58.3033447-7.1629639
		c-21.4888916-6.663208-47.30896-20.6560669-50.9737549-22.6550293c1.1660156,1.9989624,17.4909668,28.4853516,80.958252,63.1342163
		c-3.331543-0.9995117-56.8039551-14.9923096-84.456543-49.4745483
		c3.6647949,11.3275146,14.3260498,35.9815063,44.4771729,72.4627075c0,0-34.3156738-22.6550293-49.6411133-55.4714966
		c-0.9995117,11.3275146-2.9984131,37.3141479-0.166626,55.1383057c0,0-12.1604004-19.1567993-10.4946289-45.9763794
		c-6.663208,6.3300781-15.9916992,12.6601563-29.4848633,16.991272c-0.8327637,0.3331909-1.8322754,0.4997559-2.6652832,0.8328857
		c0.166626-0.1665649,0.9995117-0.6662598,1.9990234-1.4992065c3.9980469-2.9984741,13.659668-10.6611938,22.1552734-20.9891968
		c5.9969482-8.3290405,15.8251953-24.1542358,15.8251953-41.3120728c0.1665039-24.8205566-3.498291-32.3167114,30.317749-41.9783936
		c33.649292-9.6617432,87.788208-24.8205566,119.9383545-33.649353c0,0-16.991333,14.4924927-53.6391602,24.6539917
		c-36.6478271,10.161377-72.2961426,22.3218384-72.2961426,22.3218384s96.7835693-7.1630249,124.935791-12.1604614
		C595.2124023,282.8729858,581.0529785,293.5341797,534.9101563,300.0308838z M457.1166992,329.515686
		c0-0.1665649,0-0.1665649-0.166626-0.166626C456.9500732,329.3490601,457.1166992,329.3490601,457.1166992,329.515686z
		 M362.9985352,504.925415v33.9825439c5.3305664-3.1650391,11.3273926-6.829834,17.6574707-10.8277588
		c-4.6643066-6.3300781-8.6621094-13.659668-8.9953613-22.1552734
		C368.9953613,505.258606,366.1635742,505.092041,362.9985352,504.925415z M421.3000488,469.2800293
		c-1.5-15.1600342-4-22.4900513-6.6600342-27.3200073c-1-1.6700439-2.5-4-3.3299561-4.6700439
		c-3.8300781-3.8299561-7.3300781-13.3200073-7.3300781-13.3200073l-3.3299561,4l-0.0030518,0.0031738
		c2.1658936,14.6507568,6.3295898,14.6521606,10.4934082,20.4813843c3.331543,4.6642456,6.496582,10.9943237,9.994873,21.8220825
		c-2.6628418,7.3226929-7.3200684,14.9765015-7.494873,15.3233032l6.159668-1.329895l18.1599121-3.6700439
		c-0.3299561-5.6599731-4.8299561-17.3199463-13.1599121-29.3099976
		C426.1300049,458.1199951,421.4699707,469.6099854,421.3000488,469.2800293z M359.5002441,477.9393921
		c-10.4946289,0-22.6550293,2.8318481-35.6483154,11.3275146l-18.4904785-3.6647949
		c-0.166626-0.3331909-4.8309326-7.9959106-7.4962158-15.3255005c3.498291-10.8277588,6.6633301-16.991272,9.994873-21.8220825
		c4.1636963-5.9957275,8.3273926-5.9971924,10.4932861-20.480957l-0.003418-0.0036011l-3.3299561-4
		c0,0-3.5,9.4900513-7.3300781,13.3200073c-1,0.8400269-2.3299561,3-3.3299561,4.6700439
		c-2.6600342,4.8299561-5.1600342,11.9899902-6.6600342,27.3200073c-0.3199463-0.460022-4.7800293-11.5600586-3.5-17.9900513
		c-8.1599121,12.1600342-12.6599121,23.8200073-13.1599121,29.3099976l18.3199463,3.8400269l6.1700439,1.3300171
		c-0.0100098-0.0200195-0.0400391-0.0700073-0.0900879-0.1500244l18.4100342,3.6500244
		c13-8.5,25.1600342-11.3300171,35.6500244-11.3300171c6.3989258,0,13.4255371,1.0628052,20.8796387,3.8135986
		C372.9268799,479.0029907,365.9023438,477.9393921,359.5002441,477.9393921z M342.8421631,489.5999756
		c2.8319092,2.4987183,4.4976807,5.8303223,5.3305664,10.328064c2.8319092-0.4997559,5.8303223-0.6663208,8.8287354-0.8329468
		v-13.493042c-5.3305664,0.3331909-10.3278809,1.4992065-15.1588135,3.49823
		C342.1757813,489.1002808,342.5090332,489.2668457,342.8421631,489.5999756z M324.0185547,517.7521973
		c3.4981689,2.3320923,6.9963379,4.6642456,10.3278809,6.9963989c3.9980469-5.3305664,7.1630859-10.9943237,7.8293457-17.4909668
		C334.3465576,509.5896606,328.3496094,513.4210815,324.0185547,517.7521973z M331.7944336,246.3778076
		c-2.7849121-1.0039673-4.7744141-1.487793-4.7744141-1.487793c0.0021973,0.0015869,0.0046387,0.003479,0.0068359,0.0050659
		C327.095459,244.9117432,329.0566406,245.3927002,331.7944336,246.3778076z M392.8164063,245.0591431
		c-5.9968262,4.3311157-17.3244629,13.659668-18.8236084,24.3208008c0,0,6.829834,2.8319092,12.1604004,9.994873
		c0,0,0.7908936,0.4649658,1.8919678,1.1890869c-1.1027832-0.7266235-1.8951416-1.1939087-1.8951416-1.1939087
		c-1.1600342-2.9899902-4.4901123-6.4899902-7.1600342-8.9899902c5.6600342-3.3300171,14.8300781-11.1600342,13.9899902-25.4899902
		c-0.0799561,0.0599976-0.1699219,0.1300049-0.2600098,0.1900024c-0.3215332,0.0859375-1.5053711,0.4058228-3.1674805,0.9671631
		C391.519165,245.3835449,392.8164063,245.0591431,392.8164063,245.0591431z M332.6668701,249.3585205
		c0.2434082,0.2112427,0.487915,0.4263916,0.7332764,0.6454468
		C333.1547852,249.7849121,332.9102783,249.5697632,332.6668701,249.3585205z M331.4486084,248.322937
		c0.2821045,0.234436,0.5662842,0.4734497,0.8533936,0.7192993
		C332.0148926,248.7962646,331.7307129,248.5574341,331.4486084,248.322937z M334.6749268,251.1708374
		c-0.3209229-0.3015747-0.6417236-0.5988159-0.961792-0.8878174
		C334.0330811,250.5720825,334.3540039,250.8692017,334.6749268,251.1708374z M330.4812012,247.5328979
		c0.1691895,0.1360474,0.3388672,0.2731934,0.5107422,0.4138184
		C330.8200684,247.8060303,330.6503906,247.6690063,330.4812012,247.5328979z M335.9888916,252.4404907
		c-0.3306885-0.3297119-0.6629639-0.6514282-0.9957275-0.9683228
		C335.3258057,251.7891235,335.6582031,252.1107178,335.9888916,252.4404907z M363.4981689,295.0334473
		c0,0-0.0021973-0.0036621-0.0023193-0.0037842c-0.0308838-0.0018921-2.6921387-0.1703491-5.5942383-2.6893311
		C360.8203125,294.8758545,363.4981689,295.0334473,363.4981689,295.0334473z M341.0100098,270.3800049
		c-2.4263916,2.2766724-5.390625,5.3809204-6.7832031,8.1876831c5.2624512-6.642334,11.6137695-9.3543091,11.6137695-9.3543091
		c-0.8869629-6.3068848-5.213501-12.1467896-9.8410645-16.762207c-3.1445313-3.1072998-6.4123535-5.6505127-8.8195801-7.3911743
		C326.0200195,259.3900146,335.3499756,267.0499878,341.0100098,270.3800049z M383.6066895,248.4221802
		c-0.1452637,0.0679932-0.2907715,0.1362915-0.4367676,0.2064819
		C383.31604,248.5585327,383.4614258,248.4902344,383.6066895,248.4221802z M329.3962402,246.6746826
		c0.0820313,0.0636597,0.1650391,0.1287842,0.2480469,0.1937256
		C329.5612793,246.8034058,329.4783936,246.7384644,329.3962402,246.6746826z M387.6296387,246.7324219
		c0.1574707-0.0592041,0.3100586-0.1148071,0.4628906-0.1708374
		C387.9396973,246.6174927,387.7871094,246.6732788,387.6296387,246.7324219z M388.3774414,246.4576416
		c0.1870117-0.0674438,0.3710938-0.1331787,0.5496826-0.1956787
		C388.7487793,246.3243408,388.5640869,246.3903198,388.3774414,246.4576416z M364.8308105,281.8735352
		c6.3300781-9.8282471,7.6627197-17.8241577,6.829834-24.1542358l1.8323975-2.1655884
		c0.9324951-1.1137695,2.0423584-2.1346436,3.2515869-3.0650024c-1.2092285,0.9296265-2.3210449,1.9482422-3.2546387,3.0612793
		l-1.8300781,2.1699829c0.8300781,6.3300171-0.5,14.3300171-6.829834,24.1500244
		c-2.5693359,3.8538818-2.8448486,7.2141724-2.5098877,9.578064
		C361.9866943,289.0837402,362.2636719,285.7243042,364.8308105,281.8735352z M386.9454346,246.9942627
		c0.0855713-0.0333862,0.168335-0.0643921,0.2528076-0.0968628
		C387.1137695,246.9298706,387.0310059,246.9608765,386.9454346,246.9942627z M386.2248535,247.2807007
		c0.1054688-0.0427246,0.208252-0.0830078,0.3122559-0.1244507
		C386.4331055,247.1976929,386.3303223,247.2379761,386.2248535,247.2807007z M384.727417,247.9128418
		c0.1314697-0.0577393,0.2611084-0.1133423,0.3913574-0.1693115
		C384.9886475,247.7994995,384.8588867,247.8550415,384.727417,247.9128418z M383.958252,248.2584229
		c0.1376953-0.0631714,0.2741699-0.1242676,0.4108887-0.1855469
		C384.2324219,248.1340942,384.0959473,248.1952515,383.958252,248.2584229z M385.4862061,247.5859985
		c0.1224365-0.0515747,0.2423096-0.100708,0.3631592-0.1506348
		C385.7285156,247.4852905,385.6083984,247.5344238,385.4862061,247.5859985z"/>
	<path class="st3" d="M377.8242188,507.2575684c7.9958496,2.3320923,13.8261719,6.1634521,18.1572266,10.4945679
		c-3.4981689,2.4987183-6.9963379,4.8308716-10.3280029,6.99646
		C381.6555176,519.4180298,378.4904785,513.7542114,377.8242188,507.2575684z M339.510498,527.9135742
		c6.3300781,3.9979248,12.3270264,7.8293457,17.6577148,10.8277588v-33.9824829
		c-3.1651611,0.3331909-5.9970703,0.4997559-8.6623535,0.9995117
		C348.1728516,514.4205933,344.1748047,521.5835571,339.510498,527.9135742z M362.9985352,485.2688599v13.659668
		c3.1650391,0.1665649,6.1633301,0.3331909,8.8287354,0.8328857c0.6663818-4.3311157,2.4986572-7.8293457,5.3305664-10.3280029
		c0.3331299-0.166626,0.4997559-0.4997559,0.8328857-0.6663208
		C373.326416,486.9346924,368.1624756,485.6020508,362.9985352,485.2688599z M338.8442383,494.0976563
		c-1.1660156-0.9994507-2.4987793-1.4992065-3.6647949-1.8323975c-7.9958496,4.8308716-14.4925537,11.9938965-18.4904785,20.322937
		c0.8328857,0.6663208,1.6657715,1.1660767,2.4987793,1.8323975c5.3305664-5.4971924,12.6601563-10.4946289,22.9880371-13.3264771
		C341.6760254,497.9290771,340.6766357,495.5969238,338.8442383,494.0976563z M411.1403809,448.4545288
		c-4.1645508-5.8303223-8.3291016-5.8303223-10.4946289-20.489502l-15.1589355,16.1583862
		c2.1655273-23.821106-0.6662598-50.640625-2.8317871-66.4658203l-3.9980469,11.3275146
		c0,0-4.8308105,5.4971924-18.8234863,4.3311157h-0.333252h-0.3331299
		c-13.8262939,1.1660767-18.8236084-4.3311157-18.8236084-4.3311157l-3.9980469-11.3275146
		c-2.1655273,15.8251953-5.1640625,42.6447754-2.8317871,66.4658203l-15.1589355-16.1583862
		c-2.1655273,14.4925537-6.3300781,14.4925537-10.4946289,20.489502c-3.331543,4.8308105-6.496582,10.9943237-9.994873,21.8220825
		c2.6652832,7.3295898,7.3295898,14.9923096,7.4962158,15.3255005l18.4904785,3.6647949
		c12.9932861-8.4956665,25.1536865-11.3275146,35.6483154-11.3275146s22.6550293,2.8319092,35.6483154,11.3275146
		l18.4906006-3.6647949c0.1665039-0.3331909,4.8308105-7.9958496,7.4960938-15.3255005
		C417.6369629,459.4488525,414.4719238,453.1187744,411.1403809,448.4545288z M333.8466797,279.041687l-0.1665039,0.1665649
		c0,0-4.9974365,2.8318481-7.1629639,5.8303223c0,0,2.3321533,2.3321533,4.4976807,4.1645508
		c6.3300781,5.4971924,9.6616211,6.3300781,13.493042,10.8277588c5.4971924,6.4966431,2.3321533,11.6606445,2.3321533,11.6606445
		s0.3331299,1.8323975,0.9995117,5.1640625c1.3326416,5.6636963,4.8308105,18.6570435-1.6657715,29.6513672
		c-1.8325195,3.9979858-3.9980469,6.1635132-3.9980469,6.1635132l-2.1655273,3.331604c0,0,1.9990234,3.8313599,4.9974365,6.3300781
		c-2.1656494-3.4981689,4.8308105-7.4960938,4.8308105-7.4960938c3.331665,2.1655273,5.8304443,8.8287964,6.3300781,10.161438
		c0,0,2.4986572,0.9995117,3.8314209,0.9995117c1.4992676,0,3.8312988-0.9995117,3.8312988-0.9995117
		c0.166626-0.166626,2.6652832-7.6627197,6.3300781-10.161438c0,0,6.99646,3.9979248,4.8308105,7.4960938
		c2.9985352-2.3320923,4.9975586-6.3300781,4.9975586-6.3300781l-2.1655273-3.331604c0,0-1.9990234-2.3320923-3.9980469-6.3300781
		c-6.496582-10.9943237-2.9984131-24.1542358-1.6657715-29.6514282c0.6662598-3.1650391,0.9995117-5.1640015,0.9995117-5.1640015
		s-3.1650391-5.1640015,2.3320313-11.6607056c3.8314209-4.4976807,7.1630859-5.3305664,13.4931641-10.8277588
		c2.1655273-1.8323975,4.4976807-4.1644897,4.4976807-4.1644897c-2.4986572-2.6653442-7.3295898-5.4971924-7.3295898-5.4971924
		c-5.3305664-7.1629639-12.1604004-9.994873-12.1604004-9.994873c1.4991455-10.6611328,12.8267822-19.9896851,18.8236084-24.3208008
		c0,0-13.326416,3.331604-19.3233643,10.4945679l-1.8323975,2.1655884
		c0.8328857,6.3300781-0.4997559,14.3259888-6.829834,24.1542358c-4.9974365,7.4961548-1.3326416,13.1599121-1.3326416,13.1599121
		s-5.6636963-0.3331909-9.4951172-7.8293457c-4.8308105-9.4951172,3.1650391-17.3244019-3.4981689-26.819519l-2.3321533-2.8318481
		c-3.6647949-4.1645508-7.6627197-6.9963989-11.1610107-8.9954224c-5.1639404-2.4986572-9.994873-3.6647339-9.994873-3.6647339
		c5.9970703,4.3311157,17.3244629,13.6596069,18.8237305,24.3208008
		C345.8405762,269.2133789,339.1773682,272.0452881,333.8466797,279.041687z"/>
</g>
</svg>
