<?xml version="1.0" encoding="UTF-8" standalone="no"?>
<!DOCTYPE svg PUBLIC "-//W3C//DTD SVG 1.1//EN" "http://www.w3.org/Graphics/SVG/1.1/DTD/svg11.dtd">
<svg width="100%" height="100%" viewBox="0 0 720 720" version="1.1" xmlns="http://www.w3.org/2000/svg" xmlns:xlink="http://www.w3.org/1999/xlink" xml:space="preserve" xmlns:serif="http://www.serif.com/" style="fill-rule:evenodd;clip-rule:evenodd;stroke-linejoin:round;stroke-miterlimit:2;">
    <g>
        <path d="M112.776,83.768L361.176,616.211L611.496,81.131L362.656,145.82L112.776,83.768Z"/>
        <path d="M360,138.197L94.984,67.13L360,635.461L625.016,67.13L360,138.197ZM349.965,152.124L355.494,153.558L357.133,153.967L357.338,153.967L356.928,196.157L362.662,196.157L362.253,153.967L363.891,153.558L369.421,152.124L373.517,206.192L345.869,206.192L349.965,152.124ZM345.254,216.842L356.928,216.842L356.518,275.621L363.482,275.621L363.072,216.842L374.746,216.842L379.866,285.247L340.134,285.247L345.254,216.842ZM364.301,378.228L363.687,297.74L380.89,297.74L387.648,387.444L332.351,387.444L339.11,297.74L356.313,297.74L355.699,378.228L364.301,378.228ZM123.861,91.297L313.714,142.089L313.714,142.293L149.257,145.775L123.861,91.297ZM155.196,158.882L326.822,148.028L178.953,209.674L155.196,158.882ZM184.688,221.757L331.123,152.738L211.722,279.922L184.688,221.757ZM217.866,293.234C217.866,293.234 333.99,158.473 333.99,158.473L250.839,363.891L217.866,293.234ZM258.827,380.685L339.52,161.135L303.474,476.533L258.827,380.685ZM359.59,597.982L321.906,517.289L322.316,517.289L331.123,401.78L355.29,401.78L354.061,554.973L359.795,567.262L365.53,554.973L364.301,401.78L388.468,401.78L397.274,517.289L359.59,597.982ZM416.526,476.533L380.48,161.135L380.48,161.135L461.173,380.685L416.526,476.533ZM469.161,363.891L386.01,158.473L386.01,158.473L502.134,293.234L469.161,363.891ZM508.278,279.922L388.877,152.738L535.312,221.757L508.278,279.922ZM541.047,209.674L393.178,148.028L564.804,158.882L541.047,209.674ZM406.286,142.498L406.286,142.293L596.139,91.502L570.743,145.98L406.286,142.498Z" style="fill:rgb(197,151,215);fill-rule:nonzero;"/>
    </g>
</svg>
