<?xml version="1.0" encoding="UTF-8" standalone="no"?>
<!DOCTYPE svg PUBLIC "-//W3C//DTD SVG 1.1//EN" "http://www.w3.org/Graphics/SVG/1.1/DTD/svg11.dtd">
<svg width="100%" height="100%" viewBox="0 0 720 720" version="1.1" xmlns="http://www.w3.org/2000/svg" xmlns:xlink="http://www.w3.org/1999/xlink" xml:space="preserve" xmlns:serif="http://www.serif.com/" style="fill-rule:evenodd;clip-rule:evenodd;stroke-linejoin:round;stroke-miterlimit:2;">
    <g>
        <circle cx="344.081" cy="360.101" r="284.204" style="fill:rgb(255,213,32);"/>
        <circle cx="344.081" cy="360.101" r="270.308" style="fill:rgb(224,58,62);"/>
        <path d="M344.072,99.381C200.102,99.417 83.421,216.157 83.457,360.127C83.493,504.098 200.233,620.779 344.203,620.743C488.122,620.707 604.783,504.046 604.819,360.127C604.696,216.172 488.028,99.504 344.072,99.381Z" style="fill:rgb(0,45,98);fill-rule:nonzero;"/>
        <path d="M171.421,303.888C202.527,208.51 305.063,156.408 400.441,187.514C469.315,209.976 518.257,271.216 524.983,343.347L534.684,343.347C525.321,238.107 432.417,160.382 327.176,169.744C249.781,176.629 184.239,229.642 161.327,303.888L171.421,303.888ZM344.072,541.693C302.404,541.703 262.016,527.299 229.758,500.923L215.076,500.923C292.78,572.293 413.63,567.158 485,489.453C503.668,469.127 517.711,444.998 526.162,418.727L515.937,418.727C490.808,492.227 421.75,541.637 344.072,541.693L344.072,541.693L344.072,541.693Z" style="fill:rgb(224,58,62);fill-rule:nonzero;"/>
        <path d="M511.087,228.509L507.678,234.801L514.495,242.929L534.815,206.485L527.604,197.964L488.145,211.729L494.962,219.988L501.91,217.628L511.087,228.509ZM515.282,221.298L509.776,214.875L522.098,210.024L522.23,210.155L515.282,221.298ZM449.866,137.923L458.518,143.035L462.713,172.925L474.773,152.343L483.557,157.456L464.024,191.278L455.24,186.034L451.177,156.145L439.116,176.726L430.464,171.745L449.866,137.923ZM387.989,151.687L389.3,158.898L399.919,160.733L392.184,119.7L381.303,117.734L359.673,153.654L370.291,155.62L374.093,149.328L387.989,151.687ZM386.809,143.56L378.55,142.118L384.843,130.581L384.974,130.581L386.809,143.56ZM327.423,154.44L317.329,155.62L313.265,116.685L323.359,115.636L327.423,154.44ZM252.306,174.76L265.678,169.516C275.803,165.56 280.804,154.144 276.847,144.019C276.838,143.997 276.83,143.975 276.821,143.953C272.914,134.053 261.72,129.194 251.82,133.102C251.631,133.176 251.444,133.254 251.258,133.334L237.886,138.709L252.306,174.76ZM250.471,142.642L252.7,141.724C257.885,139.197 264.138,141.353 266.665,146.538C266.837,146.891 266.989,147.254 267.12,147.623C269.599,152.806 267.407,159.017 262.225,161.496C261.773,161.712 261.306,161.895 260.828,162.044L258.73,162.83L250.471,142.642ZM166.964,189.443L174.567,182.626L204.457,188.132L188.594,170.172L196.198,163.486L222.155,192.72L214.551,199.537L184.662,193.769L184.662,193.9L200.524,211.729L192.921,218.545L166.964,189.443ZM132.748,235.588L137.992,226.936L171.159,247.517L165.915,256.038L132.748,235.588Z" style="fill:rgb(255,213,32);fill-rule:nonzero;"/>
        <path d="M662.37,306.903C660.841,303.001 656.985,300.517 652.8,300.742L645.983,300.742C643.468,301.133 641.207,302.499 639.69,304.543C635.888,311.754 618.191,333.384 610.719,329.582C602.591,325.257 626.974,288.288 626.974,288.288C632.873,281.078 634.578,274.916 634.578,269.935C634.618,265.998 633.427,262.148 631.169,258.923C625.099,251.541 614.819,249.173 606.13,253.155C602.573,254.122 598.828,254.168 595.249,253.286C594.201,245.42 590.792,235.326 582.271,230.869C578.863,229.033 572.177,226.936 563.131,231.917C557.258,235.306 553.36,241.299 552.643,248.042C552.532,248.999 552.488,249.963 552.512,250.926C552.687,258.481 555.789,265.672 561.165,270.983C561.503,271.255 561.811,271.563 562.082,271.901C559.332,278.469 556.18,284.861 552.643,291.041C552.774,289.599 552.906,288.157 552.906,286.715C553.252,279.993 550.44,273.496 545.302,269.148C535.339,260.758 522.361,262.2 516.068,264.429C500.337,269.541 468.481,287.108 456.42,320.406C458.911,310.836 457.862,304.412 455.896,300.086C454.551,297.077 452.307,294.558 449.472,292.876C444.36,289.599 438.067,289.206 430.726,291.565C413.159,297.333 406.473,318.833 406.473,318.833C397.952,340.726 408.44,354.753 408.44,354.753C408.046,355.801 400.181,367.207 400.181,367.207L395.724,323.946C395.433,318.986 392.869,314.438 388.776,311.623C384.926,309.133 380.159,308.507 375.797,309.918L350.758,318.046C346.705,319.259 343.932,322.992 343.941,327.223L343.941,337.317C343.125,336.303 342.202,335.38 341.188,334.564C331.225,326.305 318.247,327.747 312.085,329.845C299.542,334.121 287.93,340.751 277.87,349.378C277.477,347.582 276.565,345.941 275.248,344.658C272.642,342.047 268.785,341.133 265.285,342.299C265.285,342.299 249.816,347.411 236.444,351.737C241.819,332.991 250.34,315.949 266.727,306.51C269.743,304.67 271.582,301.391 271.577,297.858L271.577,297.333C305.941,289.441 332.384,261.969 338.96,227.329C339.339,224.387 338.431,221.425 336.469,219.201C334.394,217.096 331.559,215.915 328.603,215.924L323.884,216.317C320.709,216.49 317.798,218.139 316.018,220.774C301.598,243.322 268.3,249.615 229.627,256.825C204.195,261.676 177.976,266.526 153.33,276.883C84.768,305.068 87.914,348.329 88.57,353.311C90.143,378.088 113.084,396.834 139.827,395.523C144.608,395.171 149.323,394.201 153.855,392.639C151.636,400.71 152.972,409.344 157.525,416.367C159.902,420.313 164.649,422.147 169.061,420.824L178.762,417.809C165.391,468.674 154.772,479.03 154.379,479.555C149.791,483.881 141.269,486.24 137.205,483.881C135.744,483.085 134.694,481.7 134.322,480.079C134.069,478.021 134.741,475.957 136.157,474.442C138.385,471.886 141.454,470.211 144.809,469.722C148.834,469.028 152.043,465.974 152.937,461.988C153.805,457.97 152.079,453.837 148.611,451.631C139.819,446.019 129.671,442.893 119.246,442.586C104.359,441.903 89.833,447.297 79,457.53C69.867,466.352 64.55,478.398 64.186,491.091C64.186,517.834 87.39,540.644 116.624,541.824C128.574,542.783 140.581,540.85 151.626,536.187C168.537,529.37 191.872,513.246 206.161,475.228C217.566,449.796 222.417,422.528 227.005,396.047L227.792,391.721C232.642,390.279 244.047,386.74 252.831,383.724C249.678,392.196 248.079,401.166 248.111,410.205C248.111,412.565 248.242,415.056 248.505,417.678C248.767,420.037 251.258,440.095 267.382,449.271C269.487,450.498 271.732,451.466 274.068,452.155C204.457,481.258 189.774,515.867 188.857,517.965C188.334,519.118 188.065,520.37 188.07,521.636C188.036,524.25 189.079,526.762 190.954,528.584L201.573,539.202L202.359,539.989C200.725,546.283 199.888,552.757 199.869,559.26C199.906,601.144 233.89,635.067 275.775,635.03C317.606,634.993 351.507,601.091 351.545,559.26C351.572,548.586 349.291,538.032 344.859,528.321C346.544,527.788 348.044,526.788 349.185,525.437L352.331,521.767C354.633,518.715 355.133,514.668 353.642,511.148C353.094,508.523 353.613,505.787 355.084,503.545C360.721,493.712 386.285,468.411 502.959,447.961C553.692,438.259 597.478,421.479 629.465,399.062C658.043,380.447 665.516,356.457 666.826,339.677C667.833,328.556 666.309,317.351 662.37,306.903ZM190.561,365.502C187.153,366.551 183.088,367.731 182.04,368.124C185.221,361.607 186.709,354.393 186.366,347.149C185.846,337.983 182.347,329.237 176.403,322.241C174,319.22 170.051,317.886 166.308,318.833C162.598,319.859 159.799,322.913 159.098,326.698C158.577,329.09 157.172,331.196 155.165,332.597C153.212,334.06 150.772,334.717 148.349,334.433C147.041,334.437 145.857,333.664 145.333,332.466C144.285,330.631 145.071,326.174 148.873,322.634L149.266,322.241C149.528,322.11 167.882,304.543 223.203,301.135C210.881,313.458 198.951,333.253 190.561,365.502ZM325.457,434.589C337.992,423.721 348.936,411.143 357.968,397.227C358.493,402.602 360.066,421.742 360.459,426.33C342.63,430.263 325.457,434.589 325.457,434.589ZM607.572,364.978C581.484,383.724 531.406,407.715 442.262,415.449C424.695,416.891 408.309,418.727 392.971,421.086C411.344,407.251 426.431,389.523 437.15,369.173C443.445,368.119 449.601,366.36 455.503,363.929C458.267,372.122 463.658,379.172 470.841,383.987C477.133,388.05 488.276,391.459 504.401,385.822C513.025,382.42 521.039,377.638 528.129,371.664C541.39,360.217 552.994,346.98 562.607,332.335C562.833,334.955 563.316,337.545 564.049,340.07C566.599,349.353 573.126,357.032 581.877,361.045C590.474,364.921 600.122,365.798 609.276,363.536C608.752,364.066 608.182,364.549 607.572,364.978Z" style="fill:white;fill-rule:nonzero;"/>
        <path d="M425.744,341.905C424.701,340.555 424.147,338.892 424.171,337.186C423.607,333.201 424.246,329.138 426.006,325.518C427.074,322.716 429.061,320.358 431.643,318.833C431.643,318.833 432.954,318.046 433.741,318.439C434.659,318.833 434.659,320.144 434.659,320.144C434.265,324.47 429.939,332.729 425.744,341.905ZM318.64,351.082C342.106,344.003 318.902,392.639 288.357,389.886C292.29,373.63 303.433,355.67 318.64,351.082ZM522.885,285.797C546.482,278.718 523.278,327.354 492.733,324.601C496.666,308.345 507.809,290.516 522.885,285.797ZM653.324,310.574L647.425,310.574C638.772,325.518 618.584,346.1 604.557,337.579C587.383,327.485 618.977,282.52 618.977,282.52C632.48,266.526 619.764,257.874 610.063,261.938C600.362,266.133 586.204,260.627 586.204,260.627C586.204,260.627 585.679,231.131 568.375,240.307C559.067,245.027 561.689,257.612 568.244,263.904C569.953,265.565 572.014,266.819 574.274,267.575C568.112,286.715 555.003,306.51 550.415,313.064C550.415,313.064 520.656,353.048 501.123,351.737C493.52,351.344 490.636,343.478 491.422,333.122C504.532,334.564 518.166,328.927 529.177,317.128C532.803,313.184 535.889,308.776 538.354,304.019C539.272,302.708 548.579,284.355 539.272,276.62C530.751,269.541 519.477,273.736 519.477,273.736C502.696,279.242 476.74,295.891 466.383,321.848C464.358,327.229 463.164,332.887 462.844,338.628C457.076,341.643 443.966,348.591 435.445,348.329C442.917,334.695 448.948,315.555 447.899,307.427C446.981,300.742 441.475,298.513 434.396,300.742C426.924,303.232 421.287,309 417.223,318.177C413.814,326.043 412.11,333.515 413.421,340.725C414.315,345.674 416.747,350.215 420.369,353.704C412.745,367.31 403.501,379.944 392.839,391.328L385.891,324.732C385.105,317.129 378.812,319.095 378.812,319.095L353.773,327.092L353.773,333.253L356.002,332.467C358.268,331.624 360.788,332.779 361.63,335.045C361.792,335.48 361.883,335.937 361.901,336.399L363.081,349.116C358.231,358.03 323.228,421.48 296.747,417.022C289.275,415.842 286.26,408.763 287.046,398.538C300.156,399.849 313.79,394.343 324.801,382.545C328.398,378.577 331.481,374.173 333.978,369.435C334.896,367.993 344.072,349.64 334.765,342.036C326.375,335.088 315.1,339.021 315.1,339.021C292.552,346.494 254.273,371.664 258.337,416.629C258.337,416.629 262.532,456.744 301.467,438.915C301.467,438.915 332.274,427.903 364.916,367.207L370.816,423.839C390.086,414.007 413.159,394.998 431.119,359.865C437.411,359.865 446.326,358.03 462.582,350.164C462.574,350.518 462.618,350.872 462.713,351.213C462.713,351.213 466.777,388.968 501.254,376.645C508.751,373.571 515.736,369.371 521.967,364.191C536.795,351.295 549.416,336.062 559.329,319.095C566.838,306.312 573.665,293.141 579.78,279.635C582.959,280.536 586.202,281.193 589.481,281.602C577.945,300.742 559.46,338.628 586.466,352.131C586.466,352.131 606.261,363.274 634.971,339.939C633.135,359.603 613.471,372.975 613.471,372.975C580.829,396.178 526.687,417.94 443.442,425.019C229.234,443.372 198.164,521.242 198.164,521.242L206.161,529.239C222.763,490.643 267.51,472.814 306.106,489.416C318.914,494.926 329.962,503.849 338.042,515.212C339.504,516.36 340.905,517.586 342.237,518.883L345.383,515.212C345.383,515.212 319.558,469.853 501.91,438.129C556.576,427.641 596.822,410.337 624.745,390.935C673.119,359.079 653.324,310.574 653.324,310.574ZM262.007,370.615L268.169,351.344L222.548,366.42C228.84,336.53 238.279,311.229 261.876,297.596L261.483,292.352C245.752,294.187 214.551,306.248 198.82,373.237L184.662,377.563C184.662,377.563 152.412,387.526 166.177,410.861L170.503,409.55C169.717,407.583 167.751,399.98 178.5,396.572L194.887,391.328C176.796,475.49 160.803,486.371 160.803,486.371C153.592,493.188 140.745,496.597 132.355,492.008C123.441,486.896 121.736,476.015 128.684,467.625C132.438,463.233 137.653,460.346 143.367,459.497C136.035,454.823 127.547,452.281 118.852,452.156C94.469,451.369 74.28,468.674 74.018,490.697C73.756,512.721 93.289,531.074 117.672,531.861C117.672,531.861 171.683,538.547 196.985,471.426C209.439,443.766 213.765,412.565 219.008,383.987L262.007,370.615ZM139.303,385.429C160.934,384.249 177.583,367.469 176.403,347.936C176.007,340.822 173.342,334.022 168.799,328.534C167.857,333.43 165.093,337.787 161.065,340.725C152.937,346.625 142.187,345.576 137.074,338.628C132.355,332.335 135.501,321.586 142.187,315.555C142.843,314.769 166.177,291.303 240.246,291.041C319.951,290.647 329.127,225.625 329.127,225.625L324.277,226.018C297.403,268.23 219.533,259.971 156.87,285.666C92.109,312.409 98.271,351.999 98.271,351.999C99.45,371.533 117.673,386.477 139.303,385.429L139.303,385.429Z" style="fill:rgb(224,58,62);fill-rule:nonzero;"/>
        <path d="M208.259,558.997C208.259,521.711 238.486,491.484 275.772,491.484C313.059,491.484 343.286,521.711 343.286,558.997C343.286,596.284 313.059,626.511 275.772,626.511C238.492,626.518 208.265,596.302 208.259,559.022L208.259,558.997Z" style="fill:rgb(0,45,98);fill-rule:nonzero;"/>
        <path d="M238.41,543.791C239.459,555.327 240.377,565.945 235.657,574.86C238.729,577.706 242.065,580.252 245.621,582.463C253.554,551.191 271.007,523.155 295.567,502.234C277.938,496.25 258.543,498.614 242.868,508.657C240.01,513.06 238.298,518.107 237.886,523.34C237.343,530.156 237.519,537.011 238.41,543.791ZM225.301,580.497C228.375,579.846 231.01,577.882 232.511,575.122C223.728,566.208 220.844,556.638 217.173,544.053C214.132,555.989 214.818,568.569 219.139,580.104C221.128,580.747 223.247,580.883 225.301,580.497ZM323.753,522.815C326.798,530.697 327.79,539.222 326.637,547.592C325.09,556.099 319.923,563.515 312.478,567.912C306.249,571.519 299.658,574.463 292.814,576.695C281.671,580.628 271.184,584.692 267.251,592.558C285.473,598.85 306.71,601.734 319.689,598.719C320.475,598.588 321.262,598.326 321.786,598.195C324.162,595.231 326.351,592.123 328.341,588.887C340.05,567.902 338.25,541.98 323.753,522.815L323.753,522.815ZM264.76,606.847C262.875,602.82 262.594,598.226 263.974,594C258.117,591.878 252.458,589.246 247.063,586.134C245.395,594.325 244.779,602.695 245.227,611.042C245.489,611.173 245.883,611.435 246.145,611.566C255.156,616.751 265.376,619.464 275.772,619.432C271.135,616.193 267.356,611.873 264.76,606.847Z" style="fill:white;fill-rule:nonzero;"/>
        <path d="M233.822,572.893C237.624,564.766 236.837,554.54 235.788,543.791C235.088,536.866 234.913,529.898 235.264,522.947C235.552,519.132 236.529,515.401 238.148,511.935C232.032,516.722 226.948,522.697 223.203,529.501C221.368,532.701 219.874,536.084 218.746,539.596L219.27,542.349C222.941,555.065 225.563,564.372 233.822,572.893ZM247.718,583.774C253.164,586.95 258.865,589.669 264.76,591.902C269.086,582.857 280.229,578.924 291.766,574.467C298.474,572.21 304.967,569.358 311.168,565.945C317.985,561.763 322.739,554.917 324.277,547.068C326.112,536.974 322.704,525.831 318.64,516.785C314.701,512.747 310.197,509.303 305.268,506.56C302.956,505.239 300.546,504.1 298.058,503.151C273.123,523.981 255.487,552.226 247.718,583.774L247.718,583.774ZM266.071,594.917C265.029,598.522 265.308,602.381 266.858,605.798C269.91,611.336 274.392,615.954 279.836,619.17C294.486,618.204 308.26,611.853 318.509,601.341C305.268,604.094 284.293,601.21 266.071,594.917L266.071,594.917ZM244.834,584.823C241.051,582.556 237.533,579.874 234.346,576.826C232.368,579.923 229.267,582.131 225.694,582.988C223.912,583.25 222.101,583.25 220.319,582.988C224.966,593.864 232.776,603.091 242.736,609.469C242.319,601.197 243.025,592.906 244.834,584.823L244.834,584.823Z" style="fill:rgb(224,58,62);fill-rule:nonzero;"/>
    </g>
</svg>
