<?xml version="1.0" encoding="utf-8"?>
<!-- Generator: Adobe Illustrator 22.0.1, SVG Export Plug-In . SVG Version: 6.00 Build 0)  -->
<svg version="1.1" id="Layer_2_1_" xmlns="http://www.w3.org/2000/svg" xmlns:xlink="http://www.w3.org/1999/xlink" x="0px" y="0px"
	 width="720px" height="720px" viewBox="0 0 720 720" style="enable-background:new 0 0 720 720;" xml:space="preserve">
<style type="text/css">
	.st0{fill:#FDB825;}
	.st1{fill:#552C82;}
	.st2{fill:#FFFFFF;}
</style>
<g>
	<path class="st0" d="M361.6931458,36.0045204C182.7554016,35.0694313,36.9396515,179.3690948,36.0045624,358.3068542
		c-0.9350853,178.9377747,143.3645782,324.7535095,322.3023682,325.6886292s324.7534485-143.364563,325.6885681-322.3022766
		C684.9233398,182.7583923,540.6279297,36.9468727,361.6931458,36.0045204"/>
	<path class="st1" d="M297.2820435,561.817688l12.9256287,4.9459839v43.3711548l-77.0261993-29.4782715V569.489502
		l2.4622803,1.2750244c0.0877533,0.0219727,0.9230957,0.4395142,3.6268768,1.494751
		c1.0331116,0.5715942,2.2642517,0.7034302,3.3853607,0.3516846c0.5275574-0.3516846,1.1431274-1.4727783,1.1431274-4.8800049
		v-86.5664978c0-3.4952393-0.6595764-4.4624634-1.0331116-4.7042542c-0.5495453-0.3516541-1.7806854-0.1318665-3.3853607,0.5935669
		c-1.2531433,0.5275574-2.4620056,1.1211243-3.6491394,1.7585754l-2.5280304,1.560791V469.645752l45.6353607-20.509552v10.397583
		l-1.2311401,0.4617004c0,0-0.7910767,0.2417603-3.5828552,1.4947815c-4.1987,1.8904419-5.8033752,4.6382141-5.8033752,10.1778259
		v101.5804443c0.0657349,7.1442261,3.2753601,11.2769165,11.1009216,14.2664795
		c4.9020081,1.9344482,8.7929382,1.9124756,11.5407104,0c5.7596436-3.9567871,6.4189453-15.1898804,6.4189453-23.3231812V561.817688
		z M493.298645,565.8184814l2.1982422-0.8133545v11.1230469l-35.787323,12.9036255v-11.1450195l1.0551147-0.3956909
		c3.9129333-1.4069214,7.7378235-4.2645874,6.9244995-7.2102661c-0.4178162-1.428772-2.0664673-6.7485962-2.8138123-9.100708
		l-2.8355408-10.463501l-28.9728394,10.463501l-1.428894,6.5508423c-1.1651306,5.1657715-2.5937805,12.6398315-2.8358154,14.7281494
		c-0.2194824,1.2310181-0.2854919,3.4072266,0.8356018,4.286438c1.0991211,0.8793945,3.5828857,0.7034912,6.9242249-0.4835205
		l2.2202454-0.8133545v11.1671143l-31.4568481,11.3427734v-11.1450195l1.0553589-0.3956909
		c6.3309326-2.2861328,8.6611938-12.7277222,11.8925476-27.170105l24.9496155-111.5603943
		c1.2311401-5.4517212,4.4624939-9.8700562,8.2653809-11.2330627l3.6274109-1.2969055L485.14328,547.9907227
		c1.692688,6.440918,4.2864685,16.2449341,7.1442871,17.7617188c0.2854919,0.1539307,0.6372986,0.1759033,0.9230652,0.06604
		H493.298645z M458.2369385,536.8017578l-10.5076294-42.2501221l-11.1672058,50.053833h0.0220032L458.2369385,536.8017578z
		 M666.2335205,361.6025085c-0.8790894,169.1100769-138.7084961,305.5104675-307.8187256,304.6312561
		c-169.1319885-0.8793335-305.510498-138.6865845-304.6528931-307.8187256
		c0.8790779-169.1321106,138.7082214-305.510498,307.8184814-304.6531372
		C530.7126465,54.663105,667.112915,192.4703827,666.2335205,361.6025085z M291.7427368,298.161499
		c8.3091125-14.8820801,21.3007507-26.5766907,36.9521484-33.2592773
		c-2.2642212-5.5615845-6.4189148-10.155838-11.7164917-12.969635
		C302.8216553,263.4513245,293.7649231,280.0480957,291.7427368,298.161499z M293.6769104,323.6389771
		c1.824707,6.9684753,4.7262573,13.6070557,8.5951843,19.6741943c1.0550842-13.6949463,8.8149414-26.5106812,15.6734009-37.7436218
		c6.5506897-10.6833801,12.7278748-20.7953491,12.7278748-29.8080444
		C311.7243347,284.5544434,298.3154297,301.7006226,293.6769104,323.6389771z M114.0813217,479.0761108
		c25.0159073-72.2559204,91.1386795-108.9224548,133.7184753-125.5190735l-41.4366608,1.1209717l1.0551147-25.0817871
		l-21.6305389,25.5874634l-19.8501282,0.5275574l1.0553894-25.8952637l-22.378418,26.4668274l-57.7036362,1.5606689v0.7254639
		l-0.1097488,0.0440063C86.537384,400.3353577,95.8798828,441.5522461,114.0813217,479.0761108z M336.6304932,422.8232727
		l-18.5309753-27.4998169l-83.6208954,37.3039856l-8.6391754-23.4991455l-10.1558228,31.8743896l-18.135437,8.1115112
		l-8.9469604-24.3124695l-10.5513611,32.9735107l-60.8472214,27.1921387
		c42.9975815,83.4888611,125.8708878,139.0382996,219.4278564,147.0838928V422.8232727z M355.5132446,269.4525757
		c-4.81427,0.3296509-9.584259,1.1211243-14.2445068,2.3959961c0.1097412,1.2530212,0.2197571,2.5500488,0.2197571,3.9129333
		c0,12.0682678-6.9902344,23.4111023-14.3105164,35.4575195c-10.331604,16.9044189-19.4103088,31.8523865-10.9691772,48.0753479
		c11.1011963,9.2984924,24.8401489,14.9039612,39.3044434,16.0030823V269.4525757z M355.5132446,236.5889587
		c-10.1338196,0.7693329-19.9818726,3.7590332-28.8408203,8.7709351c5.5395813,4.0447998,9.8040466,9.584259,12.2663269,15.9812012
		c5.4075623-1.4727783,10.9691467-2.3741455,16.5744934-2.7257996V236.5889587z M393.125,264.9022217
		c7.8258362,3.3413696,14.9920959,7.9355774,21.2350159,13.5630493c6.2428894,5.6274719,11.5627136,12.2662048,15.7174072,19.696228
		c-2.0224609-18.1134033-11.0791626-34.7101746-25.2356873-46.2289124
		C399.5439453,254.7463837,395.4112549,259.3406372,393.125,264.9022217z M391.1687927,275.7615051
		c0,9.0346985,6.1769104,19.1466675,12.7276001,29.8300476c6.8144836,11.2329407,14.6403198,24.0266724,15.6734009,37.7436218
		c3.868927-6.0671387,6.770752-12.705719,8.5951843-19.6741943l0.0217285,0.0220032
		C423.5707397,301.7885132,410.1393127,284.5764465,391.1687927,275.7615051z M366.3286438,258.6811829
		c5.5836182,0.3297729,11.1452026,1.2310181,16.5527649,2.7039185c2.4617615-6.4189453,6.7484741-11.9804077,12.2880554-16.0252075
		c-8.8369446-5.0119019-18.7070007-8.0016022-28.8408203-8.7709351V258.6811829z M366.3286438,375.319458
		c14.4425659-1.0991211,28.1815186-6.6825867,39.2824402-16.0030823
		c8.4411316-16.2449646-0.6375732-31.1929321-10.9691772-48.0753479
		c-7.3420105-12.0464172-14.2885132-23.3892517-14.2885132-35.4795227c0-1.3408813,0.087738-2.6159058,0.1977539-3.8909302
		c-4.6602478-1.2749939-9.4085083-2.0663452-14.2225037-2.3959961V375.319458z M603.1003418,484.4178162l-59.5720825-26.5985718
		l-10.5513916-33.0175171l-8.9469604,24.2904663l-18.1574097-8.0895081l-10.1778564-31.9402466l-8.6611633,23.5209961
		l-83.8843994-37.4358521l-17.4758606,27.2799988v209.4917908
		C478.5705872,623.1044312,560.5645752,567.4891357,603.1003418,484.4178162z M606.727478,477.1636658
		c17.2120361-36.1829834,26.2030029-75.729187,26.3568115-115.7809448c0-1.209137-0.0877686-2.4181213-0.0877686-3.6271362
		L576.8755493,356.2388l-22.3781128-26.4446716l1.0333252,25.8731079l-19.8500977-0.5275574l-21.652832-25.5874634
		l1.0551147,25.0819092l-41.4363708-1.1210938C515.8525391,369.9777832,581.2059937,406.0947266,606.727478,477.1636658z"/>
	<path class="st2" d="M360.778595,209.9557648c-17.6602173-27.2621765-57.5171509-76.9560242-122.1514435-94.6036148
		c76.6829987-38.0516891,166.7684479-37.958847,243.372818,0.2507629
		C417.8878479,133.4803314,378.3236694,182.7771759,360.778595,209.9557648z M360.7944336,209.9796448
		c-0.0050964-0.007782-0.0107422-0.016098-0.0158386-0.02388c-0.0050964,0.007782-0.0104675,0.016098-0.015564,0.02388H360.7944336z
		 M265.7801208,197.5216064l-0.0418701,0.0417175l-12.5419006-15.4054718l21.1016541-14.976944l-34.5840759-1.5781097
		l-28.2813263-34.7406464c-34.605545,22.478363-63.6988831,52.468338-85.1168976,87.740036
		c67.2760925-26.1287079,131.6884766-4.9958038,165.300354,10.7649536l-12.8448486-15.7921448l20.4536133-14.5274811
		L265.7801208,197.5216064z M238.7629242,254.011673l-29.5983276,15.6771698l-18.6560059-6.8874512l10.6291809-23.6096802
		l-30.6542511,16.2936859l-53.6366959-19.8577576c-16.7572403,32.6584625-26.7126236,68.3776093-29.2642593,104.9953156
		c58.8105316-56.8454895,137.3217316-56.1452637,170.8292389-52.6962891l-29.8913727-11.0471191L238.7629242,254.011673z
		 M603.3831787,236.1083679l-52.3615723,19.3770294l-30.6019287-16.2519531l10.5873413,23.5680695l-18.6455688,6.8874817
		l-29.5983276-15.6771851l10.231781,22.8678589l-29.9329529,11.0574341
		c33.1938171-3.4175415,110.5661621-4.1805725,169.1882935,51.09729
		C629.5440674,303.1516724,619.7316895,268.1649475,603.3831787,236.1083679z M603.3831787,236.1083679L603.3831787,236.1083679
		h0.0002441H603.3831787z M593.1932373,217.8602295c-21.1523438-34.5958862-49.7070923-64.0752106-83.6117554-86.3186493
		l-0.0311279-0.0315247l-27.7489624,34.0927429l-34.6152039,1.5885773l21.1435242,14.976944l-12.5419006,15.4054718
		l-33.4447327,1.5259094l20.4536133,14.4754181l-12.8971558,15.7816925
		C463.197998,213.7527618,526.6489258,192.8707581,593.1932373,217.8602295z"/>
</g>
</svg>
