<?xml version="1.0" encoding="utf-8"?>
<!-- Generator: Adobe Illustrator 22.0.1, SVG Export Plug-In . SVG Version: 6.00 Build 0)  -->
<svg version="1.1" id="Layer_2_1_" xmlns="http://www.w3.org/2000/svg" xmlns:xlink="http://www.w3.org/1999/xlink" x="0px" y="0px"
	 width="720px" height="720px" viewBox="0 0 720 720" style="enable-background:new 0 0 720 720;" xml:space="preserve">
<style type="text/css">
	.st0{fill:#A7A8AA;}
	.st1{fill:#FFFFFF;}
</style>
<g>
	<path class="st0" d="M519.7171631,348.7932739c-0.8301392-0.9962158-82.0168457-96.2951508-143.4465332-267.1360779L359.8340149,36
		l-15.7724915,45.9892578c-0.4981384,1.6602631-58.1091309,166.6901855-143.7786865,266.9700012l-9.6295013,11.1237793
		l9.6295013,11.1237793c0.8301239,0.9961243,82.0169373,96.295166,143.4466248,267.1360168L360.1659851,684l15.7724915-45.9892578
		c0.4981384-1.6602783,58.1091309-166.6902771,143.7786865-266.9700012l9.6295166-11.1237793L519.7171631,348.7932739z"/>
	<path d="M514.2383423,353.6080933c-0.8301392-0.8302307-82.8471069-97.1253967-144.9408264-269.4605103L360,58.0814552
		l-9.1314392,26.2322121c-0.4980469,1.6602631-58.4412231,168.0183716-145.1068878,269.4604187l-5.4788361,6.30896
		l5.4788361,6.3089905c0.8301392,0.9962158,82.8470917,97.1252747,144.774826,269.4605103L360,661.9186401l9.1314392-26.2321167
		c0.4980469-1.6602783,58.4412231-168.0184631,145.1069031-269.4603882l5.4788208-6.309082L514.2383423,353.6080933z"/>
	<path class="st0" d="M482.6933594,368.3843384c0,0-26.5641785,30.8808289-57.1130371,83.1790771
		c-6.4749451,11.1237488-13.1159973,23.0776672-19.7570496,36.0276794
		c-6.4750671-12.7840271-13.1160889-24.9039307-19.5910645-35.8616028
		c-30.7148438-52.464325-57.2790222-83.3451538-57.2790222-83.3451538h43.0007019
		c11.1237793,15.4404297,22.2475586,31.3789063,33.8693848,49.8078613
		c11.4557495-18.0968933,22.4135437-33.7033081,33.8693848-49.8078613H482.6933594z M360.4980469,502.6994324
		c-29.5526123-62.0937195-54.6225281-99.449585-79.8585205-134.315094h-43.0008087
		c0,0,80.6887665,93.6387024,122.527359,231.1083984c10.7917175-35.6956177,22.9115906-64.4180908,36.8577271-93.3067017
		c-6.4749451-13.282074-12.9500122-25.7340393-19.4249573-37.3558655
		C371.6218262,480.2859192,366.973114,488.7532959,360.4980469,502.6994324z M359.6679382,344.9746094
		c2.8224487-22.4135437,10.6257019-32.7070618,22.5795898-37.355896
		c-11.9538879-4.6487122-19.9231262-14.9423523-22.5795898-37.3558655
		c-2.6564026,22.4135132-10.6256104,32.5411682-22.5795288,37.3558655
		C349.0423279,312.2675476,357.0115356,322.5610657,359.6679382,344.9746094z"/>
	<path class="st1" d="M360.4980469,120.009285c-41.838501,137.6356201-122.5272522,231.1083069-122.5272522,231.1083069h43.0007935
		c25.7340698-35.6956177,48.6456604-69.3988953,79.1944885-134.3150787
		c29.5526428,62.0937042,54.6225586,99.4496002,79.858551,134.3150787h43.0007935
		C483.0254211,351.1175842,402.3366699,257.4789124,360.4980469,120.009285z"/>
</g>
</svg>
