<?xml version="1.0" encoding="utf-8"?>
<!-- Generator: Adobe Illustrator 22.0.1, SVG Export Plug-In . SVG Version: 6.00 Build 0)  -->
<svg version="1.1" id="Layer_2_1_" xmlns="http://www.w3.org/2000/svg" xmlns:xlink="http://www.w3.org/1999/xlink" x="0px" y="0px"
	 width="720px" height="720px" viewBox="0 0 720 720" style="enable-background:new 0 0 720 720;" xml:space="preserve">
<style type="text/css">
	.st0{fill:#A0A2A3;}
	.st1{fill:#0C233F;}
	.st2{fill:#266092;}
	.st3{fill:#79BC43;}
	.st4{fill:#FFFFFF;}
</style>
<g>
	<path class="st0" d="M594.2370605,265.6796265c-4.3592529-12.4835358-9.5111694-24.5707703-15.4557495-36.2617798
		C599.1908569,188.2022552,684,81.5965042,684,81.5965042s-48.5472412,37.2525482-76.4866333,51.5195236
		c0.5942993-2.97229,4.9537964-29.524704,4.9537964-29.524704s-40.0268555,36.6581268-77.477356,62.814209
		c-53.302948-58.2566147-129.5914612-93.5277634-211.8245544-93.5277634c-31.9024048,0-63.6067505,5.3501282-94.1221924,15.8521576
		C79.4383011,140.8439941-0.0207226,304.5174866,51.8951263,454.1222534c40.0266037,115.3245239,149.0102081,193,271.0720215,193
		c31.9024048,0,63.6067505-5.3501587,94.1221924-16.050293c148.2177734-51.3214111,227.6764526-212.8152771,178.5349121-361.4292908
		L594.2370605,265.6796265z"/>
	<path class="st1" d="M577.7905884,271.4260864c-4.1611328-11.8890991-9.1149292-23.1838074-14.6633301-34.2802582
		c2.1798706-14.8614044,7.331543-28.137619,16.2484131-42.008255c13.078186-20.4096375,47.1602783-57.4640808,47.1602783-57.4640808
		c-12.6815796,10.1058197-44.5842285,27.1468506-44.5842285,27.1468506
		c2.1798706-3.1703796,10.5021362-21.4003906,10.5021362-21.4003906
		c-6.7371826,7.3315277-46.5656738,36.8562164-46.5656738,36.8562164
		c-4.7557373,1.7834167-10.3040771,3.7649384-16.4467163,6.1426697
		c-50.3304443-59.8418045-125.2319946-96.4999313-206.4743042-96.4999313c-30.1190186,0-59.8418274,4.953804-88.3759918,15.0595093
		C94.1016006,153.9219818,19.5963745,307.8861084,68.341835,448.3757935
		c37.64888,108.3891602,140.0933838,181.309082,254.8234253,181.309082c30.1192627,0,59.842041-4.9537964,88.3757629-15.0595093
		c69.9477539-24.3726807,123.4487915-74.7033081,153.7661133-136.5267639
		c0.3962402,0.3963318,0.7924194,0.5944214,0.7924194,0.5944214c0.3962402-1.5851746,0.7926636-3.1703796,1.1891479-4.7555542
		c28.1374512-60.2382507,34.2800903-130.7803345,11.6907349-198.7464294L577.7905884,271.4260864z"/>
	<path class="st2" d="M384.7904968,178.0965576c-36.2619324-5.9445648-44.9804077-0.3963318-77.4773865-10.3039398
		c0,0,45.5749512-23.7782288,98.2833252-30.5154572C399.4537659,152.336792,392.320343,166.009201,384.7904968,178.0965576z
		 M374.8828735,193.3542786c-31.9024048-3.5668335-57.8602905-3.3686066-81.0439758-13.6725311
		c-0.1983337,0.1981049-10.7005005,12.8798676-13.0782166,17.4373474c0,0,21.004303,22.1930542,25.7597656,27.3449554
		c0,0,10.3038025,5.3501282,26.7505188,16.2484894C345.358429,229.6160736,360.4176941,214.1602325,374.8828735,193.3542786z
		 M427.1950684,135.6919708c-5.9445801,0.1982269-12.0872192,0.5945587-18.0317993,1.1889954
		c0.3962097,11.2945557,1.7831726,30.3172302,9.1149597,48.3490143c5.5480957,1.387085,11.6910095,2.9722748,18.2301331,4.7556915
		c16.6445618,4.5574646,31.1097412,10.3039246,43.5934143,16.4465942
		c8.5204163-3.5667114,18.0315552-7.3316498,27.3448486-11.0964661
		C469.0050964,152.7331238,427.1950684,135.6919708,427.1950684,135.6919708z M447.0102539,220.3029022
		c0.1981201-0.1982269,5.1519165-2.1797485,12.8798828-5.3501282c-10.8983459-4.5574799-21.2023926-8.1241913-31.1100159-10.8983612
		C433.5358276,210.3952942,439.6784973,215.9435272,447.0102539,220.3029022z M246.4802856,227.2382202
		c-2.7739258,1.188858-21.2021637,11.0964661-21.2021637,11.0964661
		c14.8614044,11.6910095,26.1559753,24.9672241,35.0727997,39.4322815
		c24.1747131-10.5020142,46.5657349-16.6448059,46.5657349-16.6448059s5.1521301-3.1703796,13.2763367-9.5112762
		c-14.8614197-9.511261-23.9763489-14.6632843-23.9763489-14.6632843
		C279.5718079,231.7957001,246.4802856,227.2382202,246.4802856,227.2382202z M378.449707,521.4939575
		c-30.3173523-16.2485046-61.2290039-3.3686523-70.3439636,14.4650269
		c17.0410461,53.5010376,46.1695251,68.1642456,46.1695251,68.1642456
		c24.3725586-4.1611328,45.5749512-10.7001343,64.2010498-18.2300415
		C416.2966919,567.0689087,407.9741821,537.3460693,378.449707,521.4939575z M302.9536133,566.4744873
		c-24.1744385,3.1703491-78.6662445,3.3685913-81.8366394-59.4456177c0,0-6.935318-12.8798828-5.9445496-27.3449402
		c0,0-19.8152008-9.1150818-27.9393921-34.6766052c0,0-19.6173401-9.9075928-20.0135345-34.0821838
		c-0.3962097-24.1745605,19.6170959-38.837738,26.9488525-46.3674927
		c7.5296326-7.5298767,11.0964661-11.2946777,9.907608-15.6540527c-1.387207-4.359375-9.1151886-21.994812,7.5296326-40.4229431
		c8.124176-9.1150513,20.805954-17.0411377,34.4785004-23.9764404
		c-17.4374847-28.3357239-35.6673737-36.6581268-35.6673737-36.6581268
		c-2.9722748,1.9815063-10.1059418,8.322403-10.1059418,8.322403
		c-10.8983612,16.6446838-48.9434509,73.1180115-51.7173767,163.079071
		c-2.7744141,89.9610596,28.1374817,138.7064209,28.1374817,138.7064209
		c85.205368,58.454834,155.7474213,48.348999,155.7474213,48.348999
		C319.7965393,594.4138794,310.2853699,581.1376343,302.9536133,566.4744873z M197.1406403,227.0399933
		c2.1796265-3.9630432,9.7092438-17.0410156,9.7092438-17.0410156
		c-27.3448181-22.1930542-66.1825714-16.4465942-66.1825714-16.4465942
		c-25.3635483,23.3819122-48.1510315,79.0625763-48.1510315,79.0625763
		C150.5749207,212.3768158,197.1406403,227.0399933,197.1406403,227.0399933z M236.3748322,177.502121
		c6.3407593-2.7741852,28.7320404-12.4836731,28.7320404-12.4836731
		c-19.0227814-18.0317841-13.0782318-42.0081253-13.0782318-42.0081253
		c-57.6621857,17.0410233-95.1129608,54.0954666-95.1129608,54.0954666
		C185.0531769,175.5205994,236.3748322,177.502121,236.3748322,177.502121z M180.0993652,257.9517822
		c1.1891174-2.3778534,8.71875-16.4465942,8.71875-16.4465942c-56.6714325-5.9445648-107.2001877,68.1642151-107.2001877,68.1642151
		c-28.1376114,140.6879272,70.5420609,227.280365,70.5420609,227.280365
		C96.0831146,372.4836121,180.0993652,257.9517822,180.0993652,257.9517822z M281.9497986,157.885025
		c68.164093-29.3264771,111.7575378-35.2710342,111.7575378-35.2710342
		c-72.1271362-19.8152008-124.4395752-4.1612625-124.4395752-4.1612625
		C261.1438293,147.5811005,281.9497986,157.885025,281.9497986,157.885025z"/>
	<path class="st3" d="M280.3644714,220.8973389c-18.6263428-3.7648163-39.0358429-6.935318-39.0358429-6.935318
		l-32.100769,17.6355743l14.8614044-25.165329c0,0-10.1057129-8.5205231-21.9948273-16.0502625
		c12.8798828,0.3961945,37.450531,2.1796112,37.450531,2.1796112l34.0822906-17.4373474l-16.842926,24.9671021
		C256.7843323,200.0913696,269.6642151,208.8101044,280.3644714,220.8973389z M231.8172302,346.3275146
		c-12.6817627,1.1889954-19.2206421-12.6816406-19.2206421-12.6816406
		C209.2278595,363.3686829,231.8172302,346.129425,231.8172302,346.3275146z M311.4742432,333.645874
		c-7.1334229,6.3408813-23.1836853,10.7001343-23.1836853,10.7001343
		c32.1005249,15.0596313,44.9804077-24.1744385,44.9804077-24.1744385S318.8057556,327.5030823,311.4742432,333.645874z
		 M205.2648163,403.1971741c0,0,1.5850677,3.5667114,2.5758362,4.1612549c0,0,13.870636-1.5852966,22.5893707-1.7834167
		l2.5760803-4.5574646C233.0061035,401.0175476,215.3705292,400.8193359,205.2648163,403.1971741z"/>
	<path class="st0" d="M396.8779602,362.3778992c-79.2608032,0-137.9140015,31.9024353-137.9140015,31.9024353
		s45.178772-42.6026917,134.347168-42.6026917c109.3797913,0,154.162323,56.275238,154.162323,56.275238
		c-12.8798828-45.3768616-38.4417725-60.2382813-57.6624146-85.2053833
		c-21.0040588-27.1468506-21.0040588-56.0770874,1.3869629-83.8183746
		c22.3912964-27.9393921,61.229248-49.1416779,61.229248-49.1416779s-70.9384766,28.3357086-97.6890259,39.4322968
		c-26.7505188,10.8983612-38.4415283,14.0687408-64.3993835,20.4096375
		c-25.7597656,6.3408813-66.3809204,14.4650726-99.4721985,33.4875946
		c-33.0915527,19.0226746-35.0730591,36.0636902-35.0730591,36.0636902
		c-8.322525-13.0779724-4.9537964-24.7689819-4.9537964-24.7689819
		c-8.1241913,4.7556763-33.6858368,15.4558411-32.8931885,28.1376038
		c1.1888733,17.8336792,27.7412872,16.4465942,27.7412872,16.4465942
		c-7.9260864,16.0503845-20.2114105,19.2207642-20.2114105,19.2207642
		c-6.1429138,9.511261-11.4929199,9.7093811-11.4929199,9.7093811c-0.5945435-1.5852051-1.9815216-5.3500061-1.9815216-5.3500061
		c-30.3173523,22.3911438-32.6950684,37.252533-32.6950684,37.252533c5.1519012,2.7740784,8.9168396,6.5390015,8.9168396,6.5390015
		c-2.1798706,0.1982117-9.907608,0.7926636-9.907608,0.7926636c-0.5945435,2.9722595,0,8.9168396,0,8.9168396
		c10.1057129,3.1703796,12.4836731,6.5390015,12.4836731,6.5390015c-2.1798553-0.1982422-11.0966949,0.1980896-11.0966949,0.1980896
		s2.1798553,9.3131714,12.4836731,9.7095032c10.3038025,0.3963318,17.4374695-9.7095032,17.4374695-9.7095032
		c-8.5206299-9.9075928-13.4744415-23.9763489-13.4744415-23.9763489l11.8891296-18.0318909
		c-1.1891174,4.5575867-4.3592529,16.6448059-4.3592529,16.6448059c9.907608-2.97229,27.9391479-3.5667114,27.9391479-3.5667114
		c15.0597382-9.9075928,33.2896118-20.2115173,33.2896118-20.2115173
		c-31.5059662,27.5430603-34.8746948,49.1416626-34.8746948,49.1416626
		c23.778244,17.6355896,49.9344482-1.9815063,59.0491638-6.5390015c0,0,30.515686-12.0873413,44.7825317-16.842926
		c14.2668457-4.7556763,54.6899109-13.6725159,54.6899109-13.6725159
		c-71.5328369-1.7832947-126.2227173,27.5431824-126.2227173,27.5431824s31.1097717-37.0544739,124.8357544-37.0544739
		c102.8409424,0,162.2865601,63.4086609,162.2865601,63.4086609
		C532.2156372,395.072998,469.2034302,362.3778992,396.8779602,362.3778992z M300.3777771,329.286499
		c15.6540527-12.6817627,45.9711609-27.1468506,67.173584-31.7043152c0,0-19.0227966,17.2392578-25.7597656,32.100647
		c-0.7926636,1.5852051-1.7834167,3.3684998-3.1706238,5.3500061c6.3407593-0.9907532,14.0689697-2.97229,14.0689697-2.97229
		c-11.2947998,13.4744568-42.8010254,24.1745911-42.8010254,24.1745911c0.594574-0.1981201,1.3869934-0.5944519,1.9815369-0.9907837
		c-6.9353333,2.3778687-14.46521,2.97229-22.1929321,0.3963318c-4.161377,3.1703796-5.5483398,8.3224182-5.5483398,8.3224182
		c-4.3592529-4.359375-7.9260864-14.2669678-8.9168396-17.2392578c-2.97229-2.7741699-5.7462158-6.1427917-8.5206299-10.3039246
		C266.691925,336.2218323,284.7237244,341.9681702,300.3777771,329.286499z M396.8779602,236.3531647
		c-13.6727905,2.3778534-56.4733276,14.0688629-56.4733276,14.0688629s31.3078613-26.1560822,60.039917-76.684845
		c0,0,4.1611328,34.4785004,29.128479,52.3120575C429.5730286,226.0492401,410.5502319,233.7772064,396.8779602,236.3531647z"/>
	<path class="st4" d="M246.4802856,440.2516174c0,0,6.7372284,1.1888733,14.0690002,0.1981201
		c0,0,0.3962097,11.2946777,3.764679,18.8244324C264.5123291,459.2741699,251.2362366,453.1315002,246.4802856,440.2516174z
		 M211.8036957,442.6294556c0,0-7.7277374,2.97229-12.8798828,1.9815369c0,0,3.7649384,12.2853088,16.8429108,17.4373474
		C215.7667236,462.0483398,211.407486,449.9609985,211.8036957,442.6294556z M232.2134399,483.6468201
		c0,0-3.3684845,8.71875,0.9907684,16.6448364c0,0,7.133667-2.3778687,10.3038025-2.7741699
		C243.5080109,497.5174866,235.7802734,490.9784851,232.2134399,483.6468201z M261.9362488,495.3378601
		c0,0,5.9445496-1.1889954,11.4929199-0.5944519c0,0.1981201-6.9353333-5.1520081-13.0782471-14.8613892
		C260.3509216,479.882019,258.567749,487.0154419,261.9362488,495.3378601z M495.1610413,257.7536926
		c-13.6722717,28.5338135,0,48.7453308,0,48.7453308c12.8798828-6.9353333,19.2209167-27.9393921,19.2209167-27.9393921
		c3.7648926,14.4650879,3.5665894,30.5153503,3.7648926,42.2063599
		c0.1981201,11.6908875,11.4929199,23.5800171,11.4929199,23.5800171
		c25.3633423-36.0635681,14.2668457-83.6200562,19.4187622-111.9558868
		c5.1519165-28.3357086,18.0317993-42.2063446,18.0317993-42.2063446
		C552.8234863,197.1190948,508.8338318,229.4178467,495.1610413,257.7536926z M394.6980896,385.5615845
		c-53.3027039-3.3685913-108.1909485,31.9024353-108.1909485,31.9024353
		c74.5050964-34.6766052,128.4023438-10.8983459,128.4023438-10.8983459
		c-76.4863892-6.1426697-105.0205688,16.0503845-105.0205688,16.0503845
		c26.5526733,49.736084-25.7597351,82.4311829-25.7597351,82.4311829
		c-23.1836853-0.5944519-48.7451172,7.1335449-48.7451172,7.1335449
		c8.7185059,49.736084,53.6989136,39.8284912,53.6989136,39.8284912s-14.2668457-10.8983765,15.0597534-37.6488647
		c29.9206543-27.3449707,62.0214233-24.5708008,62.0214233-24.5708008
		c-6.3410034,4.1611633-13.2763367,11.2947083-13.2763367,11.2947083
		c76.684967,5.5482178,79.8553467,81.8367615,79.8553467,81.8367615
		c89.7629395-88.7722168,7.133667-142.2732544,7.133667-142.2732544
		c63.2102966,3.3686218,67.3716736,58.2567444,67.3716736,58.2567444
		c7.3315125-23.5801392,6.3407898-54.4918213-9.7094727-75.0996704
		C483.2719421,405.3768005,459.2958374,389.5246277,394.6980896,385.5615845z"/>
</g>
</svg>
