<?xml version="1.0" encoding="UTF-8" standalone="no"?>
<!DOCTYPE svg PUBLIC "-//W3C//DTD SVG 1.1//EN" "http://www.w3.org/Graphics/SVG/1.1/DTD/svg11.dtd">
<svg width="100%" height="100%" viewBox="0 0 720 720" version="1.1" xmlns="http://www.w3.org/2000/svg" xmlns:xlink="http://www.w3.org/1999/xlink" xml:space="preserve" xmlns:serif="http://www.serif.com/" style="fill-rule:evenodd;clip-rule:evenodd;stroke-linejoin:round;stroke-miterlimit:2;">
    <g>
        <path d="M613.008,390.594L570.113,390.594C578.64,372.943 586.92,354.505 594.795,335.155C594.795,335.155 556.095,312.441 483.95,297.839L495.56,259.714L487.022,266.554C499.127,206.538 467.74,146.204 411.648,121.667L407.913,119.867C352.024,98.751 348.446,57.633 348.446,57.633C348.446,57.633 334.947,83.114 341.584,105.647C343.4,111.757 345.998,117.607 349.313,123.051C328.544,113.178 306.541,106.147 283.895,102.149C225.7,91.9 227.961,36 227.961,36C227.961,36 174.502,106.469 233.17,164.439C203.718,146.439 187.675,116.785 187.675,116.785C187.675,116.785 177.742,170.221 203.335,201.833C208.206,207.852 212.335,214.377 217.071,220.508C225.126,231.004 232.427,257.171 232.258,266.981L222.921,259.714L234.396,297.344L234.587,297.963C162.881,312.588 124.429,335.144 124.429,335.144C132.304,354.493 140.573,372.932 149.1,390.583L107.059,390.583L107.059,508.334L216.925,508.334C225.437,520.874 233.871,532.671 242.226,543.726C243.97,546.055 245.713,548.339 247.457,550.611C249.909,553.821 252.354,556.963 254.792,560.038C256.292,561.928 257.792,563.803 259.292,565.663C261.894,568.903 264.47,572.068 267.02,575.158C268.382,576.812 269.743,578.454 271.093,580.063C273.298,582.695 275.48,585.264 277.64,587.769C279.327,589.738 281.015,591.684 282.657,593.574C284.3,595.464 286.167,597.556 287.9,599.491L291.039,602.979C293.705,605.938 296.33,608.799 298.913,611.562L301.591,614.42C304.216,617.21 306.777,619.895 309.274,622.475L311.682,624.95C314.157,627.485 316.553,629.9 318.871,632.195L321.121,634.445C323.37,636.695 325.53,638.742 327.623,640.744L329.682,642.724C330.953,643.928 332.179,645.087 333.383,646.201C334.17,646.943 334.924,647.641 335.689,648.338C337.365,649.891 338.985,651.364 340.504,652.748L342.596,654.615C343.98,655.842 345.285,657 346.511,658.069L348.424,659.734L351.326,662.209L353.149,663.75L354.656,664.999L356.602,666.585L357.66,667.451L358.38,668.014L359.595,668.97L361.26,667.665L361.417,667.541L362.463,666.698L364.567,664.988L365.512,664.211L368.685,661.534L369.157,661.14C370.462,660.015 371.924,658.767 373.477,657.405L374.062,656.832C375.704,655.381 377.437,653.794 379.36,652.096L380.103,651.421C382.075,649.643 384.157,647.727 386.347,645.672L386.797,645.256C391.465,640.88 396.629,635.907 402.22,630.316L402.445,630.091C405.19,627.346 408.029,624.451 410.961,621.406L411.647,620.697C414.587,617.66 417.587,614.48 420.647,611.158C420.827,610.966 420.996,610.775 421.176,610.595C427.498,603.778 434.158,596.353 441.077,588.343L441.729,587.578C445.022,583.753 448.371,579.782 451.775,575.664L453.103,574.056C456.455,569.983 459.853,565.783 463.295,561.456C463.723,560.916 464.15,560.331 464.589,559.813C468.133,555.313 471.71,550.712 475.321,545.931C484.164,534.254 493.186,521.733 502.264,508.379L613.008,508.379L613.008,390.594Z" style="fill-rule:nonzero;"/>
        <path d="M221.794,251.795C220.597,251.963 219.429,252.406 218.386,253.123C215.513,255.1 214.252,258.711 215.269,262.047L224.388,291.951C156.601,306.886 120.381,328.243 120.381,328.243C116.953,330.254 115.521,334.478 117.019,338.159C123.269,353.516 129.765,368.303 136.44,382.583C136.44,382.583 107.059,382.583 107.059,382.583C102.641,382.583 99.059,386.164 99.059,390.583L99.059,508.334C99.059,512.753 102.641,516.334 107.059,516.334L212.698,516.334C220.475,527.684 228.186,538.418 235.832,548.535C237.59,550.882 239.348,553.184 241.105,555.475C243.585,558.721 246.058,561.898 248.523,565.008C248.524,565.009 248.525,565.01 248.526,565.012C250.037,566.916 251.548,568.805 253.059,570.679C255.682,573.944 258.278,577.133 260.847,580.246C262.223,581.918 263.6,583.579 264.964,585.205C267.187,587.859 269.392,590.454 271.573,592.984C273.27,594.964 274.967,596.921 276.619,598.822C278.286,600.74 280.181,602.864 281.94,604.828L285.096,608.334C287.795,611.33 290.453,614.227 293.069,617.026L295.764,619.902C298.416,622.72 301.004,625.433 303.526,628.039L305.958,630.538C308.46,633.101 310.883,635.543 313.227,637.864C313.227,637.864 315.464,640.101 315.464,640.101C317.755,642.393 319.954,644.479 322.085,646.518L324.181,648.533C325.466,649.75 326.705,650.921 327.922,652.047C328.732,652.81 329.508,653.529 330.296,654.247C331.961,655.789 333.589,657.27 335.116,658.661L337.29,660.603C338.692,661.845 340.013,663.018 341.255,664.1L343.233,665.821L346.16,668.318L348.045,669.911L349.602,671.2L351.541,672.78C351.541,672.78 352.59,673.64 352.59,673.64L353.443,674.309C353.443,674.309 354.647,675.257 354.647,675.257C357.545,677.537 361.627,677.542 364.53,675.267L366.195,673.962L366.185,673.965L366.35,673.838L366.355,673.836L366.35,673.838L366.44,673.768L367.509,672.905L369.645,671.17L370.672,670.325L373.825,667.664L374.38,667.2C375.701,666.061 377.181,664.798 378.751,663.42C378.863,663.322 378.972,663.221 379.078,663.117L379.516,662.688C381.111,661.275 382.794,659.736 384.656,658.092L385.472,657.351C387.477,655.545 389.591,653.598 391.816,651.51C391.799,651.526 392.229,651.128 392.229,651.128C392.242,651.116 392.255,651.104 392.268,651.092C396.993,646.664 402.218,641.631 407.877,635.973L402.22,638.316C402.22,638.316 408.096,635.754 408.096,635.754C408.096,635.754 402.445,638.091 402.445,638.091L408.102,635.748C410.878,632.971 413.749,630.044 416.715,626.964L417.396,626.261C420.38,623.178 423.426,619.95 426.532,616.577C426.597,616.508 426.71,616.375 426.833,616.252C426.904,616.181 426.973,616.109 427.042,616.035C433.424,609.153 440.147,601.658 447.131,593.572L447.805,592.782C451.127,588.923 454.506,584.917 457.941,580.763L459.279,579.14C462.66,575.034 466.085,570.799 469.556,566.436C469.56,566.431 469.563,566.427 469.567,566.422C469.94,565.951 470.309,565.438 470.691,564.987C470.753,564.913 470.814,564.839 470.874,564.763C474.449,560.223 478.058,555.581 481.702,550.757C489.844,540.004 498.138,528.542 506.488,516.379C506.488,516.379 613.008,516.379 613.008,516.379C617.426,516.379 621.008,512.798 621.008,508.379L621.008,390.594C621.008,386.176 617.426,382.594 613.008,382.594L582.774,382.594C589.452,368.315 595.955,353.527 602.205,338.17C603.703,334.49 602.271,330.267 598.844,328.255C598.844,328.255 562.38,306.742 494.149,291.812C494.149,291.812 503.213,262.044 503.213,262.044C504.235,258.688 502.952,255.058 500.048,253.091C499.153,252.484 498.168,252.079 497.154,251.874C501.847,193.844 469.378,138.253 414.981,114.393C414.991,114.398 411.386,112.661 411.386,112.661C411.175,112.559 410.96,112.466 410.74,112.384C360.342,93.342 356.416,56.94 356.416,56.94C356.109,53.407 353.513,50.498 350.037,49.793C346.562,49.088 343.037,50.755 341.377,53.888C341.377,53.888 326.516,82.441 333.861,107.735C318.15,101.712 301.885,97.202 285.286,94.271C285.285,94.27 285.284,94.27 285.283,94.27C234.16,85.267 235.954,36.323 235.954,36.323C236.096,32.831 233.954,29.652 230.664,28.471C227.375,27.29 223.7,28.381 221.587,31.165C221.587,31.165 189.79,73.308 199.568,120.708C196.361,116.024 194.712,112.978 194.712,112.978C193.099,109.996 189.781,108.355 186.432,108.882C183.083,109.409 180.43,111.99 179.81,115.323C179.81,115.323 169.545,172.811 197.118,206.867C201.946,212.833 206.034,219.304 210.728,225.383C215.134,231.127 219.281,242.126 221.794,251.795ZM361.631,675.537L361.616,675.537L361.26,675.665L361.631,675.537ZM361.26,675.665L361.237,675.538L361.216,675.537L361.26,675.665ZM400.099,632.427C400.799,631.734 401.506,631.03 402.22,630.316L402.445,630.091C405.19,627.346 408.029,624.451 410.961,621.406L411.647,620.697C414.587,617.66 417.587,614.48 420.647,611.158C420.827,610.966 420.996,610.775 421.176,610.595C427.498,603.778 434.158,596.353 441.077,588.343L441.729,587.578C445.022,583.753 448.371,579.782 451.775,575.664L453.103,574.056C456.455,569.983 459.853,565.783 463.295,561.456C463.723,560.916 464.15,560.331 464.589,559.813C468.133,555.313 471.71,550.712 475.321,545.931C484.164,534.254 493.186,521.733 502.264,508.379L613.008,508.379L613.008,390.594L570.113,390.594C578.64,372.943 586.92,354.505 594.795,335.155C594.795,335.155 556.095,312.441 483.95,297.839L495.56,259.714L487.022,266.554C499.127,206.538 467.74,146.204 411.648,121.667L407.913,119.867C352.024,98.751 348.446,57.633 348.446,57.633C348.446,57.633 334.947,83.114 341.584,105.647C343.4,111.757 345.998,117.607 349.313,123.051C328.544,113.178 306.541,106.147 283.895,102.149C225.7,91.9 227.961,36 227.961,36C227.961,36 174.502,106.469 233.17,164.439C203.718,146.439 187.675,116.785 187.675,116.785C187.675,116.785 177.742,170.221 203.335,201.833C208.206,207.852 212.335,214.377 217.071,220.508C225.126,231.004 232.427,257.171 232.258,266.981L222.921,259.714L234.396,297.344L234.587,297.963C162.881,312.588 124.429,335.144 124.429,335.144C132.304,354.493 140.573,372.932 149.1,390.583L107.059,390.583L107.059,508.334L216.925,508.334C225.437,520.874 233.871,532.671 242.226,543.726C243.97,546.055 245.713,548.339 247.457,550.611C249.909,553.821 252.354,556.963 254.792,560.038C256.292,561.928 257.792,563.803 259.292,565.663C261.894,568.903 264.47,572.068 267.02,575.158C268.382,576.812 269.743,578.454 271.093,580.063C273.298,582.695 275.48,585.264 277.64,587.769C279.327,589.738 281.015,591.684 282.657,593.574C284.3,595.464 286.167,597.556 287.9,599.491L291.039,602.979C293.705,605.938 296.33,608.799 298.913,611.562L301.591,614.42C304.216,617.21 306.777,619.895 309.274,622.475L311.682,624.95C314.157,627.485 316.553,629.9 318.871,632.195L321.121,634.445C323.37,636.695 325.53,638.742 327.623,640.744L329.682,642.724C330.953,643.928 332.179,645.087 333.383,646.201C334.17,646.943 334.924,647.641 335.689,648.338C337.365,649.891 338.985,651.364 340.504,652.748L342.596,654.615C343.98,655.842 345.285,657 346.511,658.069L348.424,659.734L351.326,662.209L353.149,663.75L354.656,664.999L356.602,666.585L357.66,667.451L358.38,668.014L358.708,668.272L361.153,675.357L361.211,675.397C361.055,674.532 360.528,671.7 359.828,668.787L361.417,667.541L362.463,666.698L364.567,664.988L365.512,664.211L368.685,661.534L369.157,661.14C370.462,660.015 371.924,658.767 373.477,657.405L374.062,656.832C375.704,655.381 377.437,653.794 379.36,652.096L380.103,651.421C382.075,649.643 384.157,647.727 386.347,645.672L386.797,645.256C390.805,641.498 395.178,637.301 399.873,632.65L402.22,638.316L399.875,632.648L400.096,632.43L402.445,638.091L400.099,632.427Z" style="fill:rgb(134,206,188);"/>
        <path d="M612.986,378.613L588.866,378.613C594.682,366.013 600.408,353.132 605.887,339.666L609.791,330.07L600.87,324.828C598.485,323.433 559.245,300.899 487.472,286.263L483.95,297.839C556.095,312.464 594.795,335.155 594.795,335.155C586.92,354.505 578.64,372.943 570.113,390.594L612.986,390.594L612.986,508.334L502.243,508.334C493.164,521.688 484.142,534.209 475.299,545.886C471.688,550.667 468.111,555.268 464.567,559.768C464.128,560.308 463.701,560.893 463.273,561.411C459.831,565.738 456.433,569.938 453.081,574.011L451.754,575.619C448.356,579.729 445.007,583.7 441.707,587.533L441.055,588.298C434.136,596.308 427.477,603.733 421.154,610.55C420.974,610.73 420.805,610.921 420.625,611.113C417.535,614.443 414.535,617.622 411.626,620.652L410.939,621.361C408.262,624.14 405.674,626.772 403.154,629.304C401.287,601.989 395.887,522.599 396.337,522.295C415.799,509.279 425.474,471.57 425.947,469.939C428.751,462.155 430.484,454.025 431.099,445.774C431.11,445.066 431.057,444.358 430.941,443.659L430.941,443.524L430.84,443.4C430.84,443.4 428.095,440.318 424.822,437.213C421.548,434.108 417.802,431.003 415.169,430.936C414.93,430.938 414.692,430.968 414.46,431.026C407.684,433.002 400.779,434.506 393.795,435.526L393.727,435.526C391,436.286 388.177,436.646 385.346,436.594C383.096,436.594 380.902,436.437 379.046,436.437C377.5,436.328 375.951,436.614 374.546,437.269C373.219,438.098 372.454,439.589 372.555,441.151L372.555,441.308C372.645,446.022 379.091,455.168 387.742,458.711C390.662,459.857 393.775,460.426 396.911,460.388C402.533,460.254 408.065,458.952 413.156,456.563C409.201,463.248 404.645,469.56 399.543,475.417C397.147,478.241 395.043,480.615 393.435,482.291L383.062,554.717C384.36,556.022 385.446,557.521 386.28,559.161C388.47,562.213 389.668,565.866 389.711,569.623C389.711,577.667 384.367,584.36 376.099,588.264L376.02,589.299C375.75,594.474 375.075,605.893 374.288,614.172C380.408,622.264 378.81,633.786 370.718,639.906C367.584,642.277 363.772,643.58 359.843,643.624L359.843,668.655L359.46,668.948L358.245,667.991L357.525,667.429L356.468,666.563L354.522,664.977L353.014,663.728L351.192,662.187L348.289,659.712L346.377,658.047C345.151,656.922 343.846,655.797 342.462,654.593L340.369,652.726C338.851,651.342 337.231,649.868 335.555,648.316C334.79,647.618 334.036,646.921 333.248,646.178C332.045,645.053 330.818,643.928 329.547,642.702L327.488,640.722C325.396,638.719 323.236,636.638 320.986,634.422L318.736,632.172C316.419,629.87 314.022,627.455 311.547,624.927L309.14,622.452C306.643,619.88 304.081,617.195 301.456,614.397L298.779,611.54C296.214,608.784 293.589,605.923 290.904,602.956L287.765,599.469C286.033,597.534 284.285,595.562 282.523,593.552C280.869,591.662 279.148,589.716 277.506,587.747C275.346,585.234 273.163,582.666 270.958,580.041C269.608,578.432 268.247,576.79 266.886,575.136C264.328,572.046 261.752,568.881 259.157,565.641C257.657,563.796 256.157,561.921 254.657,560.016C252.227,556.941 249.782,553.799 247.322,550.589C245.579,548.339 243.835,546.033 242.091,543.704C233.766,532.634 225.333,520.837 216.79,508.312L107.059,508.312L107.059,390.594L149.066,390.594C140.539,372.943 132.259,354.505 124.395,335.155C124.395,335.155 162.847,312.588 234.553,297.974L231.021,286.398C159.641,301.023 120.694,323.433 118.32,324.828L109.399,330.07L113.292,339.666C118.77,353.166 124.541,366.013 130.313,378.613L95.067,378.613L95.067,520.36L210.67,520.36C228.179,545.881 247.011,570.469 267.088,594.024C314.731,649.744 350.741,677.351 352.249,678.499L359.494,684L366.739,678.499C368.246,677.374 404.324,649.756 452.023,594.024C472.119,570.473 490.966,545.885 508.486,520.36L624.933,520.36L624.933,378.613L612.986,378.613ZM412.818,266.97C418.084,265.969 423.296,264.7 428.433,263.167C427.911,272.759 426.552,282.286 424.371,291.641L394.312,329.024L381.071,315.816C399.937,300.213 410.725,283.541 412.818,266.97ZM448.649,255.068C444.717,257.073 440.675,258.857 436.544,260.411C436.153,272.91 434.395,285.329 431.301,297.445L438.276,304.612L464.758,283.946C455.948,276.687 450.197,266.377 448.649,255.068ZM292.017,323.398L292.063,323.454L300.601,378.096L314.012,350.768L322.447,361.266L359.259,324.615L359.325,310.214L323.325,345.145L292.783,307.142L265.31,335.39L251.598,316.794L262.611,352.873L292.017,323.398ZM338.873,438.653C337.467,438.574 336.195,438.496 335.014,438.406C311.39,436.347 285.38,424.816 285.38,424.816C295.456,434.211 308.052,440.466 321.627,442.815C320.502,447.619 319.805,453.874 323.225,455.292C332.427,459.094 354.51,454.628 355.512,446.967C356.771,437.202 347.558,439.137 338.873,438.653ZM348.672,471.322C345.688,471.747 342.684,472.01 339.671,472.11C315.979,469.86 289.891,457.902 289.891,457.902C300.098,467.665 312.998,474.143 326.925,476.497C325.238,481.953 323.809,484.282 330.604,484.935C349.335,486.712 360.36,475.631 360.068,472.11C359.775,468.589 359.797,469.68 348.672,471.322ZM330.874,512.193C347.648,513.003 357.008,502.676 356.603,499.548C356.197,496.421 356.31,497.411 346.455,499.335C344.386,499.737 342.419,500.006 340.539,500.208C316.655,498.126 289.846,485.835 289.846,485.835C300.156,495.718 313.231,502.228 327.331,504.498C326.014,509.662 324.664,511.889 330.874,512.193ZM356.119,524.568C355.714,521.609 355.838,522.498 346.511,524.309C344.599,524.68 342.754,524.928 340.999,525.119C322.178,523.364 301.355,513.869 301.355,513.869C308.954,521.099 318.409,526.08 328.669,528.258C327.387,533.883 325.497,536.223 331.774,536.526C347.636,537.291 356.524,527.526 356.119,524.568ZM344.329,556.146C344.329,556.146 348.064,562.626 359.302,562.648L359.966,533.669C355.377,538.526 349.388,541.833 342.833,543.13L344.329,556.146ZM359.168,573.032C349.617,573.032 345.285,570.782 341.381,564.55C340.131,565.948 339.421,567.747 339.379,569.623C339.379,576.002 348.244,581.188 359.168,581.188C365.535,577.014 359.168,573.032 359.168,573.032ZM359.168,403.767C315.192,403.767 278.259,390.875 267.403,373.393C263.499,372.527 256.344,372.11 254.038,379.468C253.766,380.528 253.604,381.614 253.554,382.708C253.554,405.376 300.804,423.758 359.168,423.758C373.016,412.328 359.19,403.779 359.168,403.767ZM405.292,259.972C405.233,257.831 405.004,255.698 404.605,253.594C399.959,229.204 380.283,223.849 342.99,215.749C339.019,214.883 334.913,213.994 330.672,213.038C328.174,212.476 325.441,211.745 322.606,210.912C263.747,198.076 214.675,170.559 196.259,144.786C196.259,144.786 191.41,179.57 226.802,211.609C290.454,263.201 363.139,266.261 405.292,259.972ZM345.499,131.455C325.737,121.701 304.514,115.241 282.669,112.33C251.439,108.55 226.69,87.164 223.753,65.317C223.753,65.317 222.842,67.106 221.639,70.267C211.342,97.622 217.075,128.432 236.522,150.253C262.217,179.21 305.067,199.1 332.427,205.287C336.645,206.243 340.729,207.136 344.678,207.965C380.599,215.761 406.552,221.397 412.402,252.086C412.8,254.241 413.048,256.422 413.144,258.611C418.385,257.62 423.565,256.328 428.658,254.741C428.69,247.29 428.27,239.844 427.398,232.444C421.109,179.007 375.817,147.069 345.499,131.455ZM376.807,141.186C410.984,165.733 431.211,196.895 435.306,231.544C436.096,238.267 436.535,245.026 436.622,251.794C440.472,250.234 444.228,248.454 447.872,246.461C447.287,231.837 450.629,216.481 453.497,203.318C454.566,198.402 455.578,193.767 456.298,189.582C458.279,178.108 454.048,167.544 448.716,159.276C442.245,152.233 434.965,145.979 427.026,140.646C420.931,136.528 414.468,132.981 407.722,130.048C385.447,119.282 360.641,108.606 349.459,83.114C349.459,83.114 340.864,108.989 376.807,141.186ZM478.438,219.72C476.026,206.088 471.272,192.976 464.387,180.965C464.702,184.303 464.592,187.667 464.061,190.977C463.307,195.331 462.283,200.045 461.192,205.051C458.178,217.046 456.335,229.306 455.691,241.658C464.572,235.824 472.287,228.384 478.438,219.72ZM479.867,231.004C473.006,238.806 464.994,245.513 456.107,250.894C456.969,261.942 462.471,272.108 471.249,278.872L475.119,275.857C478.553,264.512 480.3,252.724 480.305,240.87C480.305,237.54 480.125,234.255 479.867,231.004ZM404.662,268.342C394.163,269.863 383.568,270.615 372.96,270.592C324.341,270.603 276.84,256.011 236.612,228.709L230.92,225.03C230.92,225.03 241.787,241.658 244.037,276.183L280.34,304.522L293.559,290.887L324.214,329.024L359.168,294.082L359.168,293.924L359.246,294.003L359.325,293.924L359.325,294.082L375.412,310.158C389.002,299.032 401.636,284.711 404.662,268.342ZM362.812,620.574L364.938,591.324C363.073,591.569 361.195,591.697 359.314,591.707C357.508,591.693 355.705,591.569 353.914,591.335L356.029,620.585C354.521,621.641 353.613,623.357 353.588,625.197C353.45,628.407 355.94,631.12 359.15,631.257C362.353,631.395 365.064,628.913 365.209,625.709C365.216,625.539 365.216,625.368 365.209,625.197C365.203,623.36 364.311,621.638 362.812,620.574Z" style="fill:rgb(134,206,188);fill-rule:nonzero;"/>
        <path d="M210.558,409.832L244.892,409.832L244.892,421.026L237.197,421.026L237.197,477.16L244.892,477.16L244.892,488.333L217.307,488.333L177.327,452.67L177.776,488.333L143.093,488.333L143.093,477.16L150.788,477.16L150.788,421.026L143.093,421.026L143.093,409.832L170.8,409.832L210.558,443.885L210.558,409.832ZM568.818,409.832L568.818,409.786L542.371,409.786L542.371,437.529L509.477,444.209L509.477,409.786L483.04,409.786L483.04,409.832L474.962,409.832L474.962,421.026L483.04,421.026L483.04,462.501L542.371,449.971L542.371,477.16L483.04,477.16L483.04,488.333L568.818,488.333L568.818,421.026L576.761,421.026L576.761,409.832L568.818,409.832ZM396.034,361.266L424.056,326.391L420.379,374.113L447.703,344.683L455.871,352.873L466.883,316.794L453.329,335.189L436.836,318.596L425.699,307.142L425.586,307.29L425.53,307.234L425.53,307.356L395.156,345.145L359.325,310.214L358.988,384.125L385.728,350.86L396.034,361.266ZM368.944,462.705C380.655,477.813 360.788,490.503 360.788,490.503C375.828,500.043 358.841,513.003 358.841,513.003C372.983,522.993 359.966,533.669 359.966,533.669L359.303,562.606C365.098,563.275 370.811,560.797 374.276,556.101L383.861,473.336C377.066,471.649 368.944,462.705 368.944,462.705ZM359.303,562.648L359.303,562.606C359.288,562.604 359.273,562.605 359.258,562.603L359.303,562.648ZM359.168,573.032C359.168,573.032 365.535,577.014 359.168,581.188C359.634,581.201 360.101,581.175 360.562,581.109C362.807,580.931 365.039,580.616 367.245,580.164C374.141,578.353 378.956,574.314 378.956,569.623C378.917,567.749 378.211,565.95 376.965,564.55C372.723,570.793 368.718,573.032 359.168,573.032ZM411.164,569.848L412.492,586.014C434.574,561.362 455.2,535.444 474.264,508.391L459.887,508.391C442.821,532.015 426.273,552.535 411.164,569.848ZM245.016,508.379C263.87,535.116 284.235,560.755 306.012,585.171L307.103,568.678C292.265,551.59 276.076,531.554 259.404,508.379L245.016,508.379ZM531.391,390.594L544.542,390.594C550.83,377.994 557.029,365.102 562.992,351.579L565.433,346.045L559.841,343.761C533.115,333.212 505.448,325.223 477.212,319.9L473.758,331.217C499.656,336.063 525.083,343.155 549.75,352.412C543.799,365.653 537.634,378.286 531.391,390.594ZM174.66,390.56L187.822,390.56C181.567,378.185 175.391,365.608 169.44,352.367C193.915,343.255 219.113,336.217 244.768,331.33L241.315,320.024C213.319,325.355 185.884,333.299 159.371,343.75L153.746,346L156.187,351.535C162.161,365.034 168.371,377.949 174.66,390.56ZM359.168,423.691C417.487,423.736 464.77,405.354 464.77,382.685C464.714,381.741 464.575,380.804 464.353,379.884C462.216,372.111 454.937,372.482 450.943,373.348C440.099,390.864 403.154,403.722 359.168,403.722C359.168,403.722 373.016,412.283 359.168,423.691Z" style="fill:white;fill-rule:nonzero;"/>
    </g>
</svg>
