<?xml version="1.0" encoding="utf-8"?>
<!-- Generator: Adobe Illustrator 22.0.1, SVG Export Plug-In . SVG Version: 6.00 Build 0)  -->
<svg version="1.1" id="Layer_2_1_" xmlns="http://www.w3.org/2000/svg" xmlns:xlink="http://www.w3.org/1999/xlink" x="0px" y="0px"
	 width="720px" height="720px" viewBox="0 0 720 720" style="enable-background:new 0 0 720 720;" xml:space="preserve">
<style type="text/css">
	.st0{fill:#2C5235;}
	.st1{fill:#FEE11A;}
	.st2{fill:#78BE20;}
	.st3{fill:#FFFFFF;}
</style>
<g>
	<path class="st0" d="M662.4214478,256.5089722L359.8926392,36L57.7932434,256.5089722l-0.4294243,120.8826904
		c0,117.6620178,59.4751396,206.3380127,125.8210754,253.7892456C245.0218658,675.1967773,310.938385,684,359.6779175,684
		s115.3002014-8.8032227,177.137146-52.8190918c66.5606689-47.4512939,125.821106-136.3419495,125.821106-253.7892761
		L662.4214478,256.5089722z"/>
	<path class="st1" d="M642.0239868,266.3857422L359.8927002,59.8330307L77.9760895,266.6004028l-0.4293137,111.0059814
		c-0.2146606,75.3637695,28.986084,146.4332886,82.0200424,199.8966064
		c53.0336914,53.4631348,125.606369,83.3081055,200.325882,83.3081055s147.2922058-29.8449707,200.5408325-83.3081055
		c53.0336914-53.6779785,82.2346802-124.7474976,82.0197754-200.1113892L642.0239868,266.3857422z M549.4830322,566.5527344
		c-29.6300659-29.8449707-53.4630432-68.9225464-66.9899902-109.7177734h-16.103363
		c13.7416077,44.6600037,39.7216492,87.602356,71.9284363,120.2385864
		c-48.7394714,44.0158691-113.3679199,68.2782593-178.6400757,68.493042
		c-65.2723999,0-129.6859283-24.4771729-178.4256592-68.493042c32.2067566-32.4214478,58.187088-75.5785828,71.9284363-120.2385864
		h-16.1033783c-13.312027,41.0100098-37.3596344,80.0874634-66.9899597,109.7177734
		c-46.1630249-46.5924683-73.0019913-107.3558655-76.8669052-172.6282959h533.3439941
		C622.9145508,459.1968689,595.8609619,519.9602661,549.4830322,566.5527344z M92.7912521,377.6063843l0.4293213-103.2763977
		l75.7933426-55.3956146c27.697876,27.2684174,50.6721802,62.9105072,64.6284485,100.6998444
		c5.1528625-1.0735474,10.0913391-1.9324341,15.0298157-3.006012
		c-14.6004944-39.9363098-38.4337158-77.5108795-67.4197998-106.7116241L359.6780396,78.9424286l178.6400757,130.9741516
		c-28.986084,29.2007446-52.8190613,66.989975-67.419281,106.7116241c4.9382019,0.8589172,10.0913391,1.9324646,15.0298157,3.006012
		c14.1706543-37.7893372,36.9302979-73.2167664,64.6279297-100.6998444l75.793335,55.3957367l0.4293213,103.2762756H92.7912521z"/>
	<polygon class="st2" points="391.2405701,490.3300476 371.9165039,490.3300476 386.7316589,455.9761658 354.739563,455.9761658 
		333.0537415,508.5805664 352.3778076,508.5805664 338.6362,569.1291504 	"/>
	<path class="st3" d="M296.5527344,457.0497437c8.158905,35.6420898,25.1214294,115.3001099,30.9185486,186.5844116
		c-5.1531372-0.644104-10.3062744-1.5029907-15.244751-2.3617554
		c-5.1528625-63.3399658-18.6798096-129.4711609-27.4829407-167.9046326l-4.0795593-17.3916016h15.6740417L296.5527344,457.0497437z
		 M373.8489685,256.5089417c0-1.0735779-3.006012-1.5030212-6.2266846-1.5030212l-7.7295837-120.0237885l-7.5148926,120.0237885
		c-3.2207031,0-6.2267151,0.4294434-6.2267151,1.5030212v12.6680298h27.697876V256.5089417z M420.6559753,470.3617554
		c-9.447113,39.507019-23.8329468,108-29.2007446,173.2723999c5.1531372-0.644104,10.3062744-1.2883301,15.4593811-2.1470947
		c5.5824585-63.1253052,19.5387268-129.0418701,28.5565186-167.4751892l4.0795593-17.3917236h-15.6740417L420.6559753,470.3617554z
		 M225.9125366,417.972168l-24.691864,16.9621582h317.5586853l-24.6918335-16.9621582H225.9125366z M409.0617371,314.266449
		c0-7.9443665,16.3180542-16.3181763,16.3180542-16.3181763s-0.2146606-3.8648071-5.1531372-6.2265625
		c-7.5149231-3.4354858-27.26828-6.6561584-60.5486145-6.6561584c-28.5567627,0-52.6043701,3.2206726-60.1192932,6.6561584
		c-4.9384766,2.1471252-5.1531067,6.2265625-5.1531067,6.2265625s16.3180237,8.1590271,16.3180237,16.3181763
		c0,15.8885803-80.3019714,15.459137-119.1650085,36.7156372h336.0238647h0.6442261
		C489.3637085,329.5109253,409.0617371,330.1550293,409.0617371,314.266449z"/>
</g>
</svg>
