<?xml version="1.0" encoding="utf-8"?>
<!-- Generator: Adobe Illustrator 22.0.1, SVG Export Plug-In . SVG Version: 6.00 Build 0)  -->
<svg version="1.1" id="Layer_2_1_" xmlns="http://www.w3.org/2000/svg" xmlns:xlink="http://www.w3.org/1999/xlink" x="0px" y="0px"
	 width="720px" height="720px" viewBox="0 0 720 720" style="enable-background:new 0 0 720 720;" xml:space="preserve">
<style type="text/css">
	.st0{fill:#E03A3E;}
	.st1{fill:#C4CED4;}
	.st2{fill:#002B5C;}
	.st3{fill:#FFFFFF;}
</style>
<g>
	<path class="st0" d="M674.5768433,350.1682434c-4.6278076-12.9193115-17.161499-38.1795349-8.8699951-58.2333984
		c5.9776001-14.6547852,13.3049316-19.6682434,12.7265015-41.4575958
		c-4.0493774-47.2423401-37.6010742-57.2692871-44.9284058-58.2334137
		c-16.0045166-1.9282684-25.0673828,8.2915192-25.2601929,16.1973724
		c-0.1928711,7.7130432,2.3139038,11.3767395,8.0986938,15.6188965c0,0-2.699585-13.4978027,9.8341064-11.9552002
		c8.484375,1.1569519,13.1121826,11.5695648,9.0628662,18.8969574
		c-10.0269775,13.4978027-26.4171753,7.3273926-36.4440918-4.2421722
		c-7.3273926-7.134552-23.3319702-27.3812714-54.184082-27.5741119
		c-48.5921631-0.1928253-62.668457,38.9508362-98.148407,26.4171448
		c-13.4978027-5.2062988-21.0180054-17.739975-12.9193115-33.1660461
		c6.5560608-8.6771698,16.7758484-10.6054382,23.7175903-6.5560913c5.2062988,4.0493469,8.0986633,10.2197876,5.9776001,16.3901978
		c-2.1210938,4.2421722-6.3632507,5.5919647-11.1838989,2.892395c-3.4708862-2.5067444-3.8565369-5.7847748-2.3139038-7.134552
		c2.892395-1.9282532,4.4349976-0.5784912,4.4349976-0.5784912c-2.6995544-3.6636963-5.3991394-5.0134583-10.026947-3.0852051
		c-10.026947,6.7489014-9.0628052,26.0314941,17.9328308,26.995636c30.4664917-2.892395,49.3634033-26.995636,38.7579956-64.7895203
		c-8.0987244-20.63237-37.2154236-73.4666672-140.95578-72.8881912
		c-103.7403564-0.578476-132.8570557,52.2558212-140.9557495,72.8881912
		c-10.7982483,37.601059,8.2915039,61.8971252,38.7579956,64.7895203
		c27.1884766-0.9641418,27.9597778-20.2467346,17.9328308-26.995636c-4.4349976-1.9282532-7.3273926-0.7713013-10.026947,3.0852051
		c0,0,1.7354126-1.349762,4.4349976,0.5784912c1.5426331,1.3497772,1.1569824,4.6278229-2.3139038,7.134552
		c-4.8206482,2.6995697-9.0628052,1.5426178-11.1838989-2.892395c-2.3139038-6.3632507,0.5784912-12.5336761,5.9776001-16.3901978
		c6.9417725-4.0493469,17.161499-2.1210785,23.7176208,6.5560913c8.0986633,15.4260712,0.5784607,27.9597473-12.919342,33.1660461
		c-35.2871552,12.5336914-49.3634491-26.6099854-98.148407-26.4171448
		c-30.8521423,0.1928253-46.8566895,20.2467194-54.1840744,27.5741119
		c-10.026947,11.5695648-26.41716,17.739975-36.4441071,4.2421722c-4.0493393-7.3273926,0.578476-17.7399902,9.0628204-18.8969574
		c12.5336914-1.7354279,9.8341293,11.9552002,9.8341293,11.9552002c5.7847748-4.0493469,8.2915192-7.713028,8.0986786-15.6188965
		c-0.1928177-7.713028-9.2556458-17.9328156-25.2601929-16.1973724
		c-7.3273849,0.7713013-41.0719185,10.9910736-44.9284401,58.2334137
		c-0.578476,21.7893524,6.5560875,26.8028107,12.7265091,41.4575958
		c8.2915154,20.2467041-4.0493393,45.3140869-8.8699875,58.2333984
		c-4.0493431,11.1839294-18.7041187,59.1975708,0.3856506,88.8927612
		c27.5741081,42.614563,72.5025482,22.5606384,72.8881989,46.8566895
		c0.385643,19.4754333-26.8028107,16.9686584-23.7175903,6.7489014c2.5067368-7.9058533,10.7982559-4.2421875,10.7982559-4.2421875
		c-4.4349976-11.9552307-18.5112839-14.6547852-27.1884537-0.5784607
		c-8.2915115,13.4978333-2.8923874,30.8521729,9.2556458,38.7580566
		c29.5023651,19.0897217,59.5832138,7.3273315,82.9151382-6.3632813
		c22.7534637-13.4978027,45.1212769-27.9597473,56.4980011-28.3453979
		c16.968689-0.3856812,22.9462738,13.6906433,19.0897522,24.6817017
		c-4.0493469,11.1838379-13.3049774,32.2019043-0.9641266,48.9777832
		c12.5336761,16.7758789,31.2378082,21.7893066,60.547348,27.5740356
		c26.0314941,5.0134888,48.0136414,28.7310791,54.3768921,43.1929932
		c6.1704102-14.269104,28.3453979-38.1795044,54.3768921-43.1929932
		c29.3095398-5.5919189,48.0136719-10.7982178,60.5473633-27.5740356
		c12.5336914-16.7758789,3.2780762-37.7939453-0.7712708-48.9777832
		c-4.0493774-10.9911194,1.9282532-25.0673828,18.8969116-24.6817017
		c11.1838684,0.3856506,33.5516968,15.0403748,56.4979858,28.3453979
		c23.3319092,13.6906738,53.4127808,25.453064,82.9151001,6.3632813
		c12.1480103-7.9058838,17.5471802-25.0673828,9.4484863-38.7580566c-8.6771851-14.269104-22.753418-11.376709-27.1884766,0.5784607
		c0,0,8.2915039-3.6636658,10.6054077,4.2421875c3.0852661,10.0269775-24.1032104,12.5336914-23.7175293-6.7489014
		c0.3856812-24.4888916,45.506897-4.434967,72.8881836-46.8566895
		C693.4737549,409.3658142,678.8189697,361.3521423,674.5768433,350.1682434"/>
	<path class="st1" d="M665.321167,353.6390991c-0.5784912-1.5426025-1.3497925-3.4708862-2.1210938-5.5919495
		c-5.78479-14.4619446-15.2332764-38.7580261-6.5560913-59.9688721c1.9282837-4.4349976,3.6636963-8.0986633,5.3991089-11.1838989
		c4.0493774-7.7130432,6.7489014-12.919342,6.5560913-25.8386688
		c-3.8565674-43.7714844-35.8656616-48.7849579-36.2512817-48.7849579c-1.7354126-0.1928253-3.2780762-0.1928253-4.6278076,0
		c6.9417725,1.1569519,12.9193726,5.5919495,16.1973877,11.9552002c3.4708252,6.9417419,3.4708252,15.0404205,0,21.5964966
		l-0.3856812,0.578476l-0.3856812,0.5784912c-5.3991089,7.3273926-12.7265015,11.376709-21.2108765,11.7623901
		c-10.4125977,0.3856506-21.7893066-5.2062988-30.4664307-15.0404358c-0.7713013-0.771286-1.5426025-1.5426025-2.5067139-2.5067291
		c-7.9058838-8.0986938-21.0180664-21.7893372-44.5428467-21.9821625
		c-20.6323853-0.1928253-34.3229675,7.9058533-47.4351807,15.6188965
		c-15.4260559,9.0628052-31.237793,18.3184662-53.9912415,10.4125824h-0.1928406h-0.1928406
		c-10.026947-4.0493469-17.3543396-10.9910736-20.6323547-19.6682281
		c-2.3139343-5.9776154-3.6636963-15.6189117,2.5067139-27.3812866l0.3856506-0.7713013l0.5784912-0.5784912
		c9.0628052-12.1480408,24.8745422-16.1973724,36.6369324-9.2556458l0.5784912,0.3856506l0.5784607,0.3856354
		c9.2556458,7.1345673,12.9193726,17.7399902,9.2556458,27.7669373l-0.1928406,0.5784912l-0.3856812,0.578476
		c-0.5784607,0.9641418-1.1569824,1.9282684-1.7354126,2.892395c7.7130127-2.3139038,13.6906433-6.5560913,17.7399902-12.5336914
		c6.3632507-9.2556458,7.5202026-22.1749725,3.2780762-37.4082336
		c-10.0269775-25.0673676-40.4934387-66.5249405-131.5072937-66.1392822
		c-91.0138245-0.578476-121.2875214,40.8790894-131.3144226,66.1392822
		c-4.2421722,15.2332611-3.0852356,28.1525879,3.2780304,37.4082336c4.0493622,5.9776001,10.026947,10.2197876,17.739975,12.5336914
		c-0.578476-0.9641266-1.1569672-1.7354431-1.7354126-2.892395l-0.1928406-0.578476l-0.1928406-0.5784912
		c-3.663681-10.0269318,0-20.6323547,9.2556458-27.7669373l0.5784912-0.3856354l0.5784912-0.3856506
		c11.9552002-6.9417267,27.5740967-2.892395,36.6369019,9.2556458l0.5784912,0.5784912l0.3856506,0.7713013
		c6.1704407,11.7623749,4.8206482,21.4036713,2.5067444,27.3812866
		c-3.2780457,8.6771545-10.6054382,15.8117065-20.6323547,19.6682281h-0.1928406h-0.1928406
		c-22.753479,7.9058838-38.5652008-1.3497772-53.991272-10.4125824
		c-13.1121674-7.7130432-26.6099854-15.6188965-47.4351654-15.6188965
		c-23.524765,0.1928253-36.6369324,13.6906281-44.5427856,21.9821625c-0.7713165,0.9641266-1.7354431,1.7354126-2.5067444,2.5067291
		c-8.6771698,9.834137-20.0539017,15.4260864-30.466507,15.0404358
		c-8.4843445-0.3856506-15.8117294-4.4349976-21.2108536-11.7623901l-0.3856506-0.5784912l-0.3856583-0.578476
		c-3.4708633-6.556076-3.6636887-14.6547852,0-21.5964966c3.2780457-6.5560913,9.2556458-10.9910736,16.1973877-11.9552002
		c-1.3497849-0.1928253-2.892395-0.1928253-4.4349976,0c-0.3856506,0-32.3947563,5.0134583-36.0584488,48.7849579
		c-0.1928253,12.9193268,2.5067329,18.1256256,6.5560837,25.8386688c1.7354355,3.0852356,3.6636963,6.7489014,5.3991241,11.1838989
		c8.6771698,21.2108459-0.7713089,45.5069275-6.5560837,59.9688721c-0.7713089,1.9282532-1.5426064,3.8565369-2.1210823,5.5919495
		c-6.9417305,19.2825928-15.0404205,57.8477783-0.578476,80.0227661
		c12.9193382,20.0538635,29.8880196,23.7175903,44.7356224,26.995636
		c13.1121674,2.8923645,29.5023804,6.3632202,29.6951904,25.2601929
		c0.1928253,10.0269775-4.8206406,18.3184509-13.304985,22.3678284c-8.4843445,3.8565063-19.2825928,2.892395-25.4530258-2.5067139
		c-2.5067368-2.1210938-4.0493393-4.8206482-4.8206482-7.7130432c-1.9282608,7.9058838,1.9282608,16.3902283,8.2915115,20.4395447
		c20.0539017,13.1121826,42.4216995,10.9910889,72.3097305-6.5560608l10.9910736-6.5560608
		c23.7175903-14.269104,38.7579956-22.9462891,50.3275604-23.1390991
		c10.7982635-0.3856812,19.6682281,3.8565063,25.2602081,11.376709c5.3991394,7.5202026,6.7489014,17.7399902,3.470871,26.6099243
		l-0.9641266,2.5067139c-3.8565216,10.2197876-9.6412964,25.8386841-1.3497772,37.022644
		c9.8341217,13.1121216,24.6817169,17.9327393,54.3769073,23.7175293
		c21.9821472,4.2421875,41.0719299,19.861084,52.4486389,34.322998
		c11.376709-14.4619141,30.4664917-30.0808716,52.4486389-34.322998
		c29.6951904-5.78479,44.5428162-10.6054077,54.3769226-23.7175293c8.2914734-11.1838989,2.5067139-26.6099854-1.3497925-37.022644
		l-0.9641113-2.5067139c-3.2780457-8.8699951-1.9282532-19.0897217,3.4708557-26.6099243
		c5.5919495-7.7130432,14.4619446-11.7623901,25.2602234-11.376709
		c11.5695496,0.3856506,26.6099243,9.0628357,50.3275757,23.1390991l10.9910889,6.5560608
		c29.8880005,17.5471497,52.2558594,19.6683044,72.3097534,6.5560608
		c6.1704102-4.0493164,10.2197266-12.5336609,8.0986938-20.4395447c-0.7713013,2.892395-2.3139648,5.5919495-4.8206787,7.7130432
		c-6.1704102,5.3991089-16.9686279,6.5560913-25.4530029,2.5067139
		c-8.484314-4.0493774-13.4978027-12.3408508-13.3049927-22.3678284
		c0.3856812-18.8969116,16.5830688-22.3678284,29.8880005-25.2601929
		c14.8476563-3.2780457,31.8162842-6.9417725,44.7356567-26.995636
		C680.1687622,411.2940674,672.2628784,372.7288818,665.321167,353.6390991"/>
	<path class="st2" d="M655.8726807,356.9171753c-0.5784302-1.5426331-1.3497925-3.2780457-2.1210938-5.2062988
		c-6.3632202-16.0045776-16.7758789-42.614563-6.3632202-67.4890747c2.1210938-4.8206482,4.0493774-8.8700256,5.78479-12.1480408
		c3.8565063-7.134552,5.5919189-10.4125977,5.3991089-20.4395599c-0.5784912-6.363266-1.9282837-11.7624054-3.4708862-16.1973724
		c-0.5784302,1.7354279-1.3497925,3.470871-2.3139038,5.2062988l-0.3856812,0.578476l-0.3856812,0.5784912l-0.3856812,0.578476
		l-0.3856812,0.5784912c-7.1345825,9.834137-17.5471802,15.4260559-28.9238892,15.8117065
		c-13.3049927,0.5784912-27.3812866-6.1704102-37.9866943-17.9328156c-0.7713013-0.771286-1.7354736-1.7354126-2.5067139-2.5067291
		c-7.1345825-7.5202026-18.1256714-18.7041168-37.4082642-18.8969574
		c-17.9327393-0.1928253-29.6951294,6.7489166-42.2288513,14.0763092
		c-15.6188965,9.2556458-35.2871399,20.6323547-62.2827759,11.1838989h-0.1928406c0,0-0.1928406,0-0.3856506-0.1928406h-0.1928406
		c-12.7265015-5.0134735-22.1749573-14.0762939-26.4171448-25.4530029
		c-2.8923645-7.9058685-4.8206482-20.4395447,3.0852356-35.4799805l0.3856506-0.7713013l0.3856506-0.7713165l0.5784912-0.578476
		l0.3856201-0.5784912c11.9552002-16.1973724,33.3589172-21.4036713,49.749115-11.9552002l0.5784607,0.1928253l0.5784302,0.3856506
		l0.5784607,0.3856354l0.5784607,0.3856506c6.1704407,4.6278229,10.4125977,10.605423,12.726532,17.1615143
		c2.8923645-7.7130432,1.542572-16.968689-0.3856812-23.9104156
		c-9.2556152-22.5606384-37.4082336-59.7760391-122.0588379-59.3903961
		c-84.6505737-0.385643-112.6103516,36.6369324-121.8659668,59.3903961
		c-1.9282532,7.134552-3.2780304,16.1973724-0.3856506,23.9104156c2.3139038-6.5560913,6.556076-12.5336914,12.726532-17.1615143
		l0.578476-0.3856506l0.5784912-0.3856354l0.578476-0.3856506l0.5784912-0.1928253
		c16.1973572-9.4484711,37.6010437-4.242157,49.7490845,11.9552002l0.5784912,0.5784912l0.5784912,0.578476l0.3856506,0.7713165
		l0.3856201,0.7713013c7.9058838,15.0404358,5.9776306,27.5741119,2.892395,35.4799805
		c-4.242157,11.376709-13.6906433,20.4395599-26.4171448,25.4530029h-0.1928406c0,0-0.1928406,0-0.3856506,0.1928406h-0.1928101
		c-26.9956512,9.4484558-46.6638794-1.9282532-62.2827911-11.1838989
		c-12.5336914-7.3273926-24.2960663-14.2691345-42.2288818-14.0763092
		c-19.2825928,0.1928253-30.0808411,11.3767242-37.4082336,18.8969574c-0.7713013,0.771286-1.7354431,1.7354126-2.5067444,2.5067291
		c-10.605423,11.7624054-24.6817245,18.5113068-37.986702,18.1256256
		c-11.3767319-0.3856506-21.7893295-5.9776154-28.9238892-15.8117065l-0.3856506-0.5784912l-0.3856583-0.578476
		l-0.3856506-0.5784912l-0.3856506-0.578476c-0.9641342-1.7354279-1.7354431-3.4708862-2.3139191-5.2062988
		c-1.7354317,4.4349976-2.8923874,9.834137-3.4708633,16.1973572c-0.1928215,10.026947,1.5426064,13.3049927,5.3991241,20.4395752
		c1.7354355,3.2780151,3.8565216,7.134552,5.7847824,12.1480408c10.2197723,24.8745117-0.1928253,51.4844971-6.3632584,67.4890747
		c-0.7713089,1.9282532-1.5426025,3.8565063-1.9282608,5.2062988c-5.9776001,16.3901978-13.8834648,52.2558289-1.5426025,71.152771
		c10.605423,16.5830383,24.103241,19.4754333,38.5651779,22.5606384
		c13.1121674,2.8923645,37.215416,8.0986633,37.6010513,34.9014587
		c0.1928253,13.4978333-6.7489014,25.2602234-18.3184586,31.0449829
		c11.3767319,0.1928711,24.2960587-4.2421875,40.1077957-13.4978027c0,0,10.9910736-6.5560608,10.7982483-6.3632507
		c25.8386841-15.4260559,41.2647552-24.296051,55.1482086-24.6816711
		c14.0763092-0.3856812,26.22435,5.2063293,33.7445526,15.6188965c7.3273926,10.0269775,9.0628052,23.9104004,4.6278076,35.8656616
		c0,0-0.9641418,2.5067139-0.9641418,2.6995239c-3.2780151,8.6771851-7.7130432,20.6323853-2.6995544,27.3812866
		c7.134552,9.6412964,17.9328308,14.0762939,48.3993225,19.861084
		c17.7399902,3.4708252,35.8656311,14.0762329,50.5203857,28.9238892
		c14.6547852-15.0404053,32.780426-25.645813,50.5203857-28.9238892c30.2736816-5.78479,41.26474-10.2197876,48.3993225-19.861084
		c5.0134888-6.7489014,0.5784912-18.7041016-2.6995544-27.3812866c-0.3856506-1.1569824-0.7712708-2.1210938-0.9641113-2.6995239
		v0.1928101c-4.4349976-11.9552307-2.5067444-25.8386536,4.6278076-35.8656311
		c7.5202026-10.4125977,19.4754333-16.0045166,33.7445374-15.6188965
		c14.0762634,0.3856506,29.3095703,9.2556152,55.1481934,24.6816711l5.3991089,3.2780762
		c2.3139648,1.3497925,4.0493774,2.5067139,5.59198,3.4708557l-0.1928711-0.1928406
		c15.8117676,9.2556152,28.7310791,13.6906738,40.1077881,13.4978027
		c-11.5695801-5.78479-18.5112915-17.5471802-18.3184814-31.0449829
		c0.3856812-26.8027954,24.6817017-32.2019348,37.6010742-34.9015198
		c14.269104-3.0852051,27.7669067-5.9776001,38.5651855-22.5606079
		C669.7561646,409.1729736,661.6574707,373.307373,655.8726807,356.9171753"/>
	<path class="st0" d="M359.3063965,149.8220978c-28.1525879,0-50.9060059-5.7847748-51.0988464-12.9193268
		s22.7534485-12.9193344,51.0988464-12.9193344c28.538269,0,51.4845276,5.7847824,51.2917175,12.9193344
		C410.4052734,144.037323,387.4590149,149.8220978,359.3063965,149.8220978 M358.9207764,120.5125656
		c-35.672821,0-64.2110596,8.4843369-63.8254089,18.8969498c0.3856506,10.4125977,28.9238892,18.8969421,63.8254089,18.8969421
		s63.4396973-8.4843445,63.8253784-18.8969421C423.1318054,128.9969025,394.5935669,120.5125656,358.9207764,120.5125656"/>
	<path class="st1" d="M335.010376,126.1045151c-0.7713013,12.5336838,23.7175903,16.0045547,28.5382385,9.4484787
		c-7.5202026,0.3856506-10.6054382-3.0852203-9.4484558-8.0986862
		c5.3991089-21.5964966,75.0092773-16.5830231,76.5518799,11.7623825
		c1.1569519,21.0180206-32.780426,9.4484711-59.9688721,67.8747253
		c23.7175598-50.9060516,73.0809937-48.2064819,73.4666443-65.5608215
		C444.9211426,106.436264,336.9386292,96.6021423,335.010376,126.1045151 M426.0242004,372.3432312
		c-2.5067444-6.5560608-2.5067444-16.3901978,7.5202026-16.3901978c-7.134552-9.2556458-22.1749878,1.349762-10.7982788,18.3184509
		c3.4708862,5.3991394,5.9776306,14.269104,6.5560608,28.7310486c1.5426331,30.0808716-33.9373474,29.3095398-24.8745117,74.2380066
		c-1.3497925-1.5426025-2.6995544-3.0852356-4.242157-4.6278076c-6.9417725-6.9417725-14.2691345-12.3408508-16.7758789-19.2825928
		c-7.7130127-22.3678284,20.2467346-23.1391296,7.1345825-60.5473328
		c-14.8475952-42.807373-59.3904114-6.1704407-81.9510193-51.2917175
		c-19.0897827-38.372345,16.1973572-84.4577637,44.7355957-115.309906
		c-5.9776306,6.1704254-10.9910583,11.1838989-10.4125977,10.605423
		c-23.5247498,23.1391144-68.260376,62.0899506-46.8566895,110.2964325
		c14.269104,32.5875549,64.5966797,16.3901978,71.1527405,51.4844971
		c6.5560913,35.672821-25.6458435,24.2960815-40.8790894,60.5473328
		c-2.6995544,6.5560913-9.4484558,15.0404358-14.0762939,21.5964966
		c-5.2062988,7.1345825-10.026947,20.4395752-10.026947,32.3947144c0,0.5784912,0,0.9641724,0,1.5426025
		c-2.5067444-0.1928101-10.2197876-1.7354126-11.9552002-11.9552307c-0.1928406-1.542572-0.3856506-3.0852051-0.3856506-5.0134888
		c0-0.9641113,0.1928406-2.1210938,0.3856506-3.0852051c3.0852356-14.8476257,26.6099854-23.3319702,29.1167297-42.0360718
		s-23.1390991-21.2108459-31.237793-18.7041016c0,0,14.4619446,4.6278076,14.4619446,18.1256104
		c0,11.1839294-15.0404358,16.9686584-18.7041016,38.1795349c-1.7354431,9.6412964-0.5784912,23.1390991,19.0897522,29.1166992
		c2.5067444,16.968689,15.8117065,43.7715454,56.8836365,43.5786743
		c46.6638794-0.1928101,57.4621277-34.5158081,57.4621277-49.9418945c0-5.78479-0.7712708-11.5695496-2.5067444-16.9686584
		c-13.6906433-62.4755859,12.919342-44.157135,22.753479-72.3097229c0.3856506-0.9641418,0.5784912-1.9282532,0.9641418-2.892395
		C444.3426514,398.953186,428.9165955,379.8634338,426.0242004,372.3432312z"/>
	<path class="st2" d="M356.414032,526.796814c-11.7623901,1.1569824-21.5964966,10.2197266-26.995636,20.053894
		c7.3273926,6.5560913,16.5830383,10.6054077,26.995636,11.376709V526.796814z M389.1944275,478.590332
		c-7.3273926-6.1704407-16.5830383-10.2197571-26.8027954-10.7982483v17.3543091
		c8.0986938-0.3856506,13.1121826-2.3139343,17.5471802-4.0493469
		C383.0240173,479.940094,385.9163818,478.9759521,389.1944275,478.590332 M356.414032,502.1150513v-10.4125671
		c-8.4843445-0.3856812-14.0762939-2.3139343-18.511322-3.8565369c-5.0134888-1.7354126-8.6771545-3.0852051-14.6547852-1.542572
		c-5.5919189,7.5202026-8.8699951,16.9686584-8.8699951,26.995636c0,0.5784302,0,0.9641113,0,1.3497925
		C326.3331909,506.7428589,340.6022949,502.5007324,356.414032,502.1150513 M362.3916321,508.2855225v12.3408203
		c12.726532,1.3498535,25.4530334,10.4125977,31.4306335,22.3678589
		c5.3991394-6.1704712,9.0628052-13.6906738,10.6054382-21.9821777
		C393.8222656,512.9133301,379.9387817,508.8639832,362.3916321,508.2855225"/>
	<path class="st3" d="M356.414032,520.6263428v-12.3408203c-15.8117371,0.3856812-29.888031,5.0134888-41.26474,13.3049927
		c1.5426025,7.7130127,5.0134888,14.8475952,9.834137,20.6323853
		C332.310791,529.689209,344.0731812,521.5905151,356.414032,520.6263428 M382.2527161,487.0746765
		c-4.8206482,1.7354126-10.6054382,4.0493469-19.861084,4.434967v10.6054077
		c17.3543396,0.3856812,31.4306335,4.4349976,42.6145325,11.7623901c0-0.1928101,0-0.5784302,0-0.7713013
		c0-10.6054077-3.6636658-20.2467041-9.6412964-27.9597473C390.73703,484.1822815,386.6876831,485.3392334,382.2527161,487.0746765
		 M340.0238037,481.8683472c4.2421875,1.542572,9.0628357,3.0852051,16.3902283,3.4708252v-17.3543091
		c-10.2197876,0.7712708-19.6682434,4.8206482-26.8027954,11.376709
		C333.4677429,479.5544739,336.552948,480.7113647,340.0238037,481.8683472 M362.3916321,526.989624v31.430603
		c10.2197876-0.5784912,19.2825928-4.4349976,26.6099854-10.7982788
		C384.9522705,537.9807129,374.5396729,528.5322266,362.3916321,526.989624"/>
	<path class="st3" d="M139.0992126,282.2935181c0,0-2.3139038,6.3632507-3.0852203,7.9058533
		c-0.578476,1.3497925-0.578476,1.7354431-4.242157,0.5784912c-6.748909-2.5067444-12.9193344-12.919342-12.9193344-12.919342
		l7.9058609-1.1569519c0,0,2.6995697,7.134552,7.9058533,9.6412964l4.6278229-12.5336914
		c0,0,6.7489166,11.1838989,8.8699951,10.2197876c3.0852203-1.3497925,4.6278229-9.2556458,4.4349976-12.1480408
		l3.2780457-0.5784912c0.578476,3.8565369-1.7354431,12.3408508-6.1704254,16.7758484
		c-0.9641266,0.9641418-2.6995697,1.9282532-4.4350128,0.9641418
		C143.5342102,288.0782776,139.0992126,282.2935181,139.0992126,282.2935181 M253.4449921,265.9032898
		c2.5067444,0.3856506,5.3991241,2.3139038,4.4350128,4.6278076c-1.3497925,3.0852356-6.3632813,4.8206482-12.3408661,4.2421875
		c-5.3991241-0.3856506-6.9417419-4.0493774-6.9417419-4.0493774s3.0852203,1.7354431,5.0134888,1.9282837
		c2.8923798,0.1928406,6.1704254,0.5784607,7.713028-0.9641418c0.7713013-0.7713013,0.7713013-1.349762,0-1.9282532
		l-8.0986786-1.3497925c-4.0493469-0.7712708-6.1704254-3.4708557-4.4349976-5.5919189
		c1.9282532-2.3139038,5.3991241-3.4708862,9.0628052-3.2780457c6.556076,0.3856506,8.0986938,2.6995544,8.0986938,2.6995544
		s-9.0628204-1.3497925-10.6054382,0.7713013c-0.578476,0.7712708,0,1.349762,1.1569672,1.7354126L253.4449921,265.9032898z
		 M443.9570007,262.239624c-0.3856506-1.3497925-5.7847595-2.892395-5.7847595-2.892395h11.5695496
		c0,0-1.1569824,1.3497925-0.9641418,2.892395s0.5784912,4.242157,0.5784912,4.242157
		c-2.892395,0.7713013-5.0134888,0.9641418-8.0986938,0.9641418c-6.3632507,0-12.9193115-3.4708862-12.7265015-7.3273926
		c0-4.0493774,5.5919189-7.1345673,11.9552002-7.1345673c6.3632507,0,8.8699951,3.8565216,8.8699951,3.8565216
		s-3.6636658-1.7354126-8.0986938-1.7354126c-4.6278076,0-6.9417419,3.4708557-6.9417419,5.2062988
		c0,1.9282532,1.7354431,5.5919189,7.134552,5.5919189c0.7713013,0,1.3497925-0.1928406,2.1210938-0.3856201
		C443.37854,265.3248596,444.5354614,263.9750366,443.9570007,262.239624 M542.1054077,270.5311279
		c-0.3856812,2.6995544-3.2780762,4.4350281-6.3632202,4.0493774c-3.0852661-0.3856506-5.3991089-2.892395-5.0134888-5.3991394
		c0.3856812-2.6995544,3.2780151-4.4349976,6.3632202-4.0493469S542.2982178,268.0243835,542.1054077,270.5311279
		 M536.8990479,263.0109253c-6.7489014-0.7713013-12.1480103,1.7354126-12.7265015,5.0134583
		c-0.3856812,3.4708862,4.2421875,7.3273926,10.9910889,8.0986938c6.7489014,0.9641418,12.3408813-1.5426025,12.7265625-5.0134888
		C548.4686279,267.6387634,543.6480103,263.7822266,536.8990479,263.0109253 M191.3550262,275.5445862
		c0.7713165-1.7354126,1.5426178-3.4708557,2.5067444-4.6278076c0.9641266-0.9641113,3.0852203,1.1569824,4.8206482,3.6636963
		L191.3550262,275.5445862z M201.1891479,280.3652344l9.0628204-1.1569519c0,0-7.5202179-10.026947-11.1839142-12.3408508
		c-3.0852203-1.9282532-4.8206482-2.6995544-6.5560913-0.1928406c-3.470871,5.2062988-7.134552,15.4260864-7.134552,15.4260864
		l3.8565216-0.3856506c0,0,0.3856506-1.3497925,0.9641266-3.2780457l9.8341217-1.1569519
		C200.6106873,278.4369812,201.1891479,279.5939636,201.1891479,280.3652344 M303.1940918,268.4100342l6.9417419-0.3856506
		c0,0-5.9776306-8.484314-0.3856506-15.0404205c0,0-3.0852356-0.771286-5.2062988,1.3497772
		c-1.349762,1.3497772-1.7354126,3.4708862-1.9282532,5.78479l-7.134552,0.3856506
		c-0.3856506-1.7354431-1.1569824-3.4708862-3.0852356-4.2421875c-2.6995544-1.349762-5.7847595,0.1928406-5.7847595,0.1928406
		s3.8565063,2.3139038,4.8206482,5.9776306c0.7712708,3.6636658-1.1569824,6.9417419-1.1569824,6.9417419
		s4.4349976-1.7354126,5.2062988-6.1704407l7.134552-0.3856201
		C302.6156006,265.9032898,303.1940918,268.4100342,303.1940918,268.4100342 M350.4364319,251.8270264
		c0,0-3.0852356-0.9641266-5.3991394,1.1569672c-3.8565063,3.470871-1.9282532,12.7265167-1.9282532,12.7265167h6.9417419
		C349.8579407,265.5176697,344.4588318,257.997467,350.4364319,251.8270264 M499.1052246,258.7687378
		c-1.3497925-1.1569519-19.4754028-1.9282532-19.4754028-1.9282532l-0.3856812,3.0852356
		c0,0,1.542572-1.5426331,3.6636658-1.3497925c0.7713013,0,2.5067139,0.1928406,4.434967,0.3856506c0,0,0,0-0.1928406,0
		c-4.0493469,3.2780457-2.5066833,12.5336914-2.5066833,12.5336914l6.9417419,0.1928406c0,0-4.4349976-6.7489014,0-12.5336914
		c1.542572,0.1928406,2.8923645,0.3856506,3.4708252,0.5784912c2.1210938,0.5784912,3.6636963,2.5067444,3.6636963,2.5067444
		S500.262146,260.1185303,499.1052246,258.7687378 M403.2707214,250.8628998c0,0-2.5067444-0.9641266-4.242157,1.1569672
		c-1.1569824,1.3497772-1.7354126,3.470871-1.9282532,5.78479c-4.0493774-3.6636963-7.7130432-5.2062988-10.6054382-5.9776306l0,0
		h-0.1928406c-3.0852051-0.771286-5.0134888-0.1928253-5.0134888-0.1928253s3.2780457,3.8565063,4.0493774,7.5201874
		c0.5784607,3.6636963-1.3497925,6.9417419-1.3497925,6.9417419s5.0134888-1.7354126,5.2062988-7.3273926
		c0-0.3856506,0-0.7712708,0-1.1569519c6.3632507,3.4708557,8.2915344,8.2915039,8.2915344,8.2915039h5.5919189
		C402.8850708,265.9032898,398.4500732,257.2261353,403.2707214,250.8628998 M597.4464722,272.4594116
		c0,0-2.3139648-1.3497925-4.4349976,0.3856201c-1.3497925,1.1569824-2.3139038,3.2780457-2.892395,5.5919495
		c-3.4708252-4.242157-6.7489014-6.5560608-9.4484253-7.5202026l0,0h-0.1928711
		c-2.892395-1.1569519-5.0134888-0.9641113-5.0134888-0.9641113s2.699585,4.242157,2.699585,8.0986633
		c0,3.6636963-2.5067139,6.5560913-2.5067139,6.5560913s5.2062988-0.7713013,6.3632202-6.3632813
		c0-0.3856506,0.1928101-0.7712708,0.1928101-1.1569519c5.78479,4.4349976,6.7489624,9.6412964,6.7489624,9.6412964
		l5.3990479,0.9641113C594.5540771,287.3069763,591.6616821,277.8585205,597.4464722,272.4594116"/>
	<path class="st3" d="M375.3109741,224.8314056c4.242157-8.2915192,4.242157-20.8252106,3.4708557-28.5382538l0,0
		c4.0493774-6.7489014,10.6054382-16.5830231,18.7041321-22.9462738
		C391.5083313,189.7370758,392.8581543,215.7685699,375.3109741,224.8314056 M350.8220825,227.3381195
		c6.7489014-11.3767395,4.4349976-24.2960663,2.3139038-31.6234589c3.6636963-6.1704254,9.4484558-17.3543396,10.9910583-26.6099854
		c0,0,9.834137,8.8699951,10.7982788,26.6099854C363.1629333,221.5533447,350.8220825,227.3381195,350.8220825,227.3381195
		 M329.418396,217.1183472c9.4484558-24.8745422-4.8206482-44.3499603-11.7623901-52.0630035
		c12.7265015,4.4350128,26.4171448,16.390213,31.4306335,29.6952057
		C341.5664368,210.1766205,329.418396,217.1183472,329.418396,217.1183472 M407.705719,160.2346954
		c-0.9641113,0.3856506-1.9282532,0.9641418-2.6995544,1.5426178c-0.1928101,0-0.1928101,0-0.3856201,0
		c-16.0045776,8.8699951-26.4171448,28.3454132-26.4171448,28.3454132
		c-1.1569824-11.1839142-10.4125977-24.103241-10.4125977-24.103241l-8.2915344,0.1928101
		c-1.5426025,13.497818-8.484314,23.7176056-8.484314,23.7176056
		c-9.4484558-19.6682434-26.0314941-25.2601929-31.0449829-27.3812866l-15.8117371-5.5919495c0,0,0.1928406,0,0.3856506,0.1928253
		l-1.349762-0.5784912c0,0,42.2288513,31.0449829,17.161499,70.3814697c0,0,21.0180054-7.3273926,29.6951599-25.4530182
		c0,0,5.5919495,17.5471649-10.9910583,38.9508362c0,0,25.8386536-13.8834686,35.6727905-36.0584412
		c0,0,1.349762,15.8117218-8.484314,28.1525879c44.1571045-12.1480408,18.5112915-57.8477783,50.9060059-76.9375458
		L407.705719,160.2346954"/>
	<path class="st1" d="M118.1383286,299.2098694c1.5426636,2.1210938,4.6278687,11.569519,4.2421875,10.9910889
		c0,0-13.4978027,6.3632202-21.9821167,13.3049927c-3.0852661-4.6278687-7.3273926-7.9058838-7.3273926-7.9058838
		C101.7481308,308.8511658,118.1383286,299.2098694,118.1383286,299.2098694z M217.282608,338.9726257
		c-2.9099121-38.8800049-23.6699829-42.6500244-28.6300049-43.4100342
		c-5.1999512-0.9599609-17.7399902,1.1500244-23.5199585,21.0500488c0,0-0.7700195-19.5200195-21.7900391-19.5200195
		c-11.7044678,0-18.1935959,12.7875977-19.7574997,16.0250244c0.0934448,0.2614746,0.1865845,0.5164795,0.2808228,0.7993164
		c1.5426025,4.8206787,3.0852661,11.9552002,3.0852661,11.9552002s6.5560226-16.968689,19.6682053-16.968689
		c20.6323853,0,21.2108765,19.4754639,21.2108765,19.4754639c5.784729-20.2467041,17.9328003-22.3677979,23.1390991-21.4036865
		c4.2421875,0.7713013,21.4036865,3.8565063,26.6099854,33.5516968c0.9641113,5.78479,1.5426025,12.5336914,2.1209717,20.8251953
		c-0.029541,1.0953979-0.0717773,2.1838379-0.1201172,3.2680664c0.0488281-1.0842896,0.0917969-2.1726074,0.1224365-3.2675781
		c-0.5799561-8.2900391-1.1600342-15.0400391-2.1199951-20.8300171
		C217.4825592,339.9926453,217.3827057,339.4826355,217.282608,338.9726257z M606.6539307,319.2366028
		c2.6773682-4.6123657,5.9528809-23.7112427-12.2927246-25.7592163c-9.6412354-0.9641113-22.142334,10.2090454-25.034668,28.5275269
		c0.0039063-0.0100708,0.0090332-0.0187988,0.0129395-0.0288696c0.1665039-0.5825195,0.342041-1.1512451,0.5327148-1.6958618
		c3.8564453-10.7982178,13.1121826-15.0404053,20.6323242-15.8117065
		c8.1032715-1.0128784,13.7089844,2.7518921,15.8394775,7.3017578c1.3804932,2.5223999,0.5509033,6.581665,0.3580322,7.3529663
		C606.6881104,319.1639709,606.668335,319.1964417,606.6539307,319.2366028z M411.9479065,279.7867126
		c0.3856201-5.2062378,1.9282227-11.7623291,1.9282227-11.7623291s-14.4619141,11.376709-28.345459,14.8475952
		c0,0-0.3774414,4.1588745-0.5721436,9.8536987c-0.001709-0.0053711-0.0062256-0.0195923-0.0062256-0.0195923
		c-11.376709-1.5426025-17.5471191-1.3497314-17.5471191-1.3497314
		c-5.0135498,13.1121216-4.0494385,29.5023193-4.0494385,29.5023193s0.0145264-0.0158081,0.0228271-0.0245972
		c0.138916-1.2915039,1.0283203-8.8084717,3.8337402-18.1010742c0,0,6.3632813-1.5425415,17.5471191,0.1928711
		c0.1928711-6.1704712,0.1928711-10.0269775,0.1928711-10.0269775c0.0186768-0.0047607,0.0373535-0.0101929,0.0559082-0.0149536l0,0
		C398.6791077,289.4010315,411.9479065,279.7867126,411.9479065,279.7867126z M408.8627014,306.7823181
		c10.4125977-0.1928101,17.161499-3.8565063,19.861084-5.5919189l1.7353516-11.1838989
		c-2.6994629,1.5426636-10.4125977,5.3991699-20.4394531,5.78479
		C409.6339417,299.0693665,409.4410706,302.9258728,408.8627014,306.7823181z M446.0780334,307.9393616v0.1970215
		c12.7265625-6.9417725,25.9777832-8.9938965,27.1347656-9.1867065c0.5784912-3.6636963,1.2106934-7.4005127,2.1748047-11.4498901
		c0,0-23.5246582,7.3273926-29.1166992,9.8341675C446.2709045,297.3339539,446.4637756,301.3832703,446.0780334,307.9393616z
		 M451.6700745,283.64328c0.9641113-3.2780762,3.8564453-5.78479,7.5202637-5.78479
		c4.2420654,0,7.5201416,3.2780762,7.7128906,7.5202026c2.1210938-2.6995239,2.5068359-6.1704102,2.5068359-8.8699951
		c0-4.2421265-3.6638184-7.5202026-8.0987549-7.7130127c-10.0269775-0.1928711-10.9910889,13.1121826-10.0269775,14.4619141
		C451.4772034,283.45047,451.4772034,283.45047,451.6700745,283.64328z M539.9842529,285.1858826
		c-10.9912109-2.3139038-33.5517273,7.1345215-40.6862488,44.1571045c-0.1928711,1.3497925-0.5784912,2.892395-0.7712402,4.2421875
		c8.0986328-29.6951904,26.6099548-37.022583,35.8655701-38.1795044
		c9.6412354-1.1569824,21.2108154,6.5560303,18.8968506,21.2108154c-0.192749,0.7713013-0.192749,1.5426636-0.3856201,2.3139038
		C555.7960205,313.3384705,562.1591797,290.1993713,539.9842529,285.1858826z M336.3601379,278.4369812
		c-9.4483643,0.3856812-21.9820557,5.78479-21.9820557,27.1884766c0,2.5067749,0.4616699,10.9111328,1.0402832,13.4178467
		c0,0,0.0061035-0.0144653,0.0070801-0.0166626c-0.0493164-0.6732178-0.083252-1.3477173-0.083252-2.0244751
		c0-1.3497925,0-2.699585,0.192749-4.0493774c1.3497314-18.1256104,12.5336914-23.7175903,21.2108154-24.4888916
		c8.2402344-0.7665405,13.6190186,4.3709717,14.6318359,9.7341309
		C352.3291321,289.3818665,347.1847229,278.0572205,336.3601379,278.4369812z M271.5909729,292.2138977
		c0,0,0.7712402,4.2421875,1.7353516,10.9910889c0,0,10.9910889-9.8341675,21.4036865-12.9193726
		c-0.192749,0-0.5784912-3.2780151-1.3497314-11.1838989C282.9676819,282.1869812,271.5909729,292.2138977,271.5909729,292.2138977z
		 M235.5121002,340.3340759l0.1928711-0.1928101c-1.5426025-18.3184814,0-34.5158081,0-34.5158081
		c9.8342285-7.1345825,19.861084-9.2556763,19.861084-9.2556763c0.1928711-3.8565063,0.3857422-7.7130127,0.7712555-11.9552002
		c0,0-12.7264557,2.6995239-22.7534332,9.8341064C233.5838776,294.2486877,231.0771637,317.773468,235.5121002,340.3340759z"/>
	<path class="st0" d="M154.2123108,424.7918701c0,0-1.1569519,2.5067444-1.3497772,10.026947
		c0,0,9.6412964,7.3273926,20.8252106,6.5560913c0,0,1.1569519-3.8565369,1.3497772-10.026947
		C163.8536072,432.3120728,154.2123108,424.7918701,154.2123108,424.7918701z M105.0261841,383.1676331L105.0261841,383.1676331
		c-0.9641266,22.753479,3.8565216,47.6280212,29.6951904,64.7894897c0.3856506-2.6995239,1.2926025-9.6674194,1.2926025-9.6674194
		C113.2605286,423.2492981,106.1831512,403.028717,105.0261841,383.1676331z M190.8022461,436.9607544
		c-0.5784912,3.4708862-0.5784912,6.1704407-1.3497772,9.834137c0,0,24.2960663-22.9462891,28.3454132-65.367981
		C211.2417908,417.485321,190.8022461,436.9607544,190.8022461,436.9607544z M587.9979248,443.8816223
		c-20.0533447,1.7354126-26.416748-15.4251099-25.645752-25.2593384
		c0.7714844,6.3625488,6.5552979,16.7722168,24.2893066,15.2327881c0.0023193-0.0001831,0.0043945-0.0001831,0.0067139-0.0003662
		l0.0001221-0.000061c19.861084-1.5427246,34.322876-23.3319702,33.1658936-44.7355957
		c-0.0013428-0.0250244-0.0040283-0.0493164-0.0053711-0.0743408l0.0012207-0.0016479
		C622.8953857,415.2673645,608.8231201,441.9533386,587.9979248,443.8816223z M421.0337219,394.5086975
		c0.3782959,6.3232422,0.588501,28.3740845-16.7988281,29.3190308
		c-17.7399902,0.9641113-20.2467041-17.3543091-21.2108154-27.1884766c0-1.6686401,0-5.1356201,0-10.0269165
		c0.2283936,2.3302002,0.5118408,4.8652344,1.0424805,7.3699341c1.8220215,9.4025879,6.418335,20.0739746,20.1682129,19.6256714
		c12.2011719-0.3588867,16.5527344-12.0678101,16.7880859-18.3544922c0-0.0005493,0.0001221-0.0010376,0.0001221-0.0015869
		C421.0326233,394.9957581,421.0376282,394.745697,421.0337219,394.5086975z M544.4193115,411.679718
		c-6.3632202,10.6054077-17.161499,11.5695496-25.838623,8.2915039
		c-6.9417725-2.6995239-12.3408813-8.0986633-15.2332458-12.3408203
		c-3.2780762-4.6278381-7.3273621-15.2332458-8.6771851-30.8521729
		c-0.1928406,21.2108765,5.2063293,35.2871704,8.8700256,40.8790894c2.8923645,4.2421875,8.2914734,9.6412964,15.2332153,12.3408508
		c8.6771851,3.2780457,19.6682739,2.5067444,25.8386841-8.2915039c3.4708252-6.1704407,3.4708252-16.1973877,2.1210938-20.4395752
		C547.3117065,404.3523254,546.7332153,407.8231812,544.4193115,411.679718z M465.9391174,429.0340271
		c-17.0756836,0.5567627-20.7521973-18.7168579-21.8635254-28.9313965
		c-0.4962158-6.3284912,0.0551758-10.5509644,0.2353516-11.6946411c0.0118408,0.0429688,0.0180664,0.0915527,0.0317383,0.1326294
		c0.0922852,0.9418335,0.206543,1.9857788,0.3519287,3.100769c0.2403564,2.1504517,0.5899658,4.4044189,1.1707764,6.6014404
		c2.2585449,9.7954712,7.4954834,20.8013916,20.4594727,20.3786621c11.340332-0.000061,15.7873535-10.8668213,16.4858398-17.3278198
		c0.0727539-0.4873657,0.121582-0.9775391,0.1186523-1.4713135
		C483.1317444,406.5554504,483.243927,428.4757996,465.9391174,429.0340271z M329.2255859,414.572113
		c-16.5830383,0.7712708-21.2108459-10.4125977-21.4036865-16.5830383
		c-1.1569824,10.7982483,3.4708557,27.3812561,21.4036865,26.6099854
		c18.1256104-0.7713013,31.8162842-23.7176208,31.237793-46.6638794
		C358.5351257,396.6392822,345.6157837,413.8008118,329.2255859,414.572113z M231.6761627,407.0350647
		c0.0061035-0.02948,0.0090332-0.0562134,0.0151367-0.0857544c-0.0008545,0.0115967-0.0012207,0.0239258-0.0021973,0.0355225
		C231.6851959,407.0019226,231.680069,407.0179138,231.6761627,407.0350647z M297.8536682,345.5665588
		c-0.3977051,46.2402954-14.4671631,73.7945557-28.5371094,83.2387695
		c-11.9675293,8.1682739-43.0193024,8.3900757-37.8564606-20.5485229c-0.1867676,2.4958496,0.0109863,5.3728638,1.352417,8.8220215
		c4.2421875,11.5695801,25.0673981,11.376709,36.8297272,2.892395
		c12.7265625-9.2556763,26.0314941-32.9732666,28.1525879-73.4666748
		C297.8170471,346.1946716,297.8331604,345.8781433,297.8536682,345.5665588z"/>
	<path class="st3" d="M466.9032898,285.1858826c-0.1928406-4.0493469-3.4708862-7.5202026-7.7130432-7.5202026
		c-3.6636658,0-6.7489014,2.5067444-7.5202026,5.78479c-0.1928406,0.5784912-0.1928406,1.3497925-0.1928406,1.9282532
		c0,4.2421875,3.4708862,7.9058838,7.7130432,7.9058838s7.7130432-3.4708862,7.7130432-7.7130432
		C466.9032898,285.5715637,466.9032898,285.3787231,466.9032898,285.1858826z M217.579361,340.526947
		c-5.2062988-29.6951599-22.3678131-32.7803955-26.6099854-33.5516968
		c-5.2062988-0.9641113-17.3543396,1.1569824-23.1391144,21.4036865c0,0-0.5784912-19.4754333-21.2108612-19.4754333
		c-13.1121674,0-19.6682358,16.968689-19.6682358,16.968689s-1.5426102-7.134552-3.0852051-11.9552002
		c-0.5784836-1.7354126-1.1569595-3.0852051-1.5426178-3.8565063c0,0-13.4978104,6.3632507-21.9821548,13.3049622
		c0,0,8.8699875,8.8700256,6.5560837,26.8027954c-1.3497772,10.4125977-2.6995697,21.9821472-1.9282608,33.3589172
		c1.3497772,19.8610535,8.4843445,39.7221375,31.0449677,54.7625427
		c-22.5606232-43.0001831-3.6636963-108.5610046,5.2062988-109.9107971
		c7.3273926-1.1569519,16.1973724,6.3632813,12.9193268,96.6057739c0,0,9.6412964,7.3273926,20.8252106,6.5560913
		c0,0,1.7354279-50.5203857,0.7713013-71.3456116c-0.578476-12.7265015-3.0852051-33.1660461,10.7982483-33.5516968
		c11.7623901-0.3856506,18.1256409,46.0853882,4.2421722,110.4892578c0,0,20.63237-19.4754333,26.9956207-55.5338745
		c1.1569519-6.1704102,1.7354431-13.1121521,1.9282684-20.2467041
		C219.1219635,353.0606384,218.5434875,346.3117371,217.579361,340.526947z M619.814209,389.1190796L619.814209,389.1190796
		c-1.3497925-25.0673523-17.161499-41.8432007-28.1525879-56.4979858
		c-7.9058838-10.6054382-3.6636963-17.3543396-0.9641113-18.8969421c3.2780762-1.9282837,8.484314-1.3497925,9.4484253,2.6995239
		c0.5784912,2.3139038,0,7.3273926-3.8565063,8.0986938c0,0,8.0986938,1.3497925,10.4125977-5.3991394
		c0.1928101-0.7712708,1.0224609-4.8305969-0.3580322-7.3529663c-2.1304932-4.5498657-7.7362061-8.3146667-15.8394165-7.3017883
		c-7.5202026,0.7713013-16.7758789,5.0134888-20.6323853,15.8117371c-1.3497925,3.8565063-2.1210938,8.6771545-1.9282227,14.269104
		c0.5784302,15.6188965,15.4260254,29.888031,21.9821167,38.372345c6.3632202,7.9058838,13.3049927,25.0673828,7.1345825,38.5651855
		c-5.0134888,10.9910583-11.5695801,11.9552002-15.6188965,12.1480408
		c-4.0493774,0.1928406-10.4125977-3.8565063-9.0628662-8.8699951c1.3497925-5.0134888,7.9058838-6.3632813,9.0628662-5.2062988
		c0,0-4.2421875-3.8565369-8.2915039-3.8565369c-5.9776001,0-10.2197266,4.6278381-10.7982788,10.6054382
		c0,0.7713013,0,1.5426025,0,2.3139038c0.7713013,6.3632507,6.5560913,16.7758484,24.2960815,15.2332458
		C606.5092163,432.3120728,620.9711914,410.5227356,619.814209,389.1190796z M410.0196228,295.7913208
		c0.5784912-7.134552,1.1569824-12.919342,1.9282837-16.0045471c0,0-13.3049927,9.6412964-26.995636,13.1121521
		c0,0,0,3.8565369-0.1928406,10.026947c-11.1838989-1.7354126-17.5471802-0.1928406-17.5471802-0.1928406
		c-3.0852051,10.2197876-3.8565063,18.3184814-3.8565063,18.3184814s7.9058838-4.8206482,21.2108459-4.8206482
		c-0.3856506,26.0314941-1.9282532,61.7042847-1.5426025,69.6101379c0,0.1928406,0,0.3856506,0,0.5784607
		c0.9641113,9.834137,3.4708557,27.7669373,21.2108459,27.1884766c13.1121521-0.3856506,17.161499-13.8834534,16.7758484-19.6682434
		c0,0-1.3497925,6.9417419-6.9417419,6.3632813c-5.5919495-0.5784912-7.5202026-2.3139038-8.4843445-15.0404358
		c-0.5784607-8.0986938,1.3497925-40.4934387,2.892395-69.4173279
		c15.4260864-3.6636963,20.2467346-14.6547852,20.2467346-14.6547852c-2.6995544,1.7354126-9.4484558,5.3991394-19.861084,5.5919189
		C409.4411621,302.9259033,409.6340027,299.069397,410.0196228,295.7913208z M482.9078064,399.1460266
		c0,0-1.542572,6.9417419-6.9417419,6.3632507c-5.5919495-0.5784607-8.0987244-5.5919189-9.834137-15.8117065
		c-2.1210938-12.726532-3.4708557-38.5651855,7.1345825-91.0138245l0,0
		c-1.1569519,0.1928406-14.4619446,2.6995544-27.188446,9.2556458c0,0,0,0.3856506,0,0.9641113
		c-0.3856506,8.0986938-2.6995544,61.5114746-1.9282837,77.5160217c0,0.7713013,0,1.5426331,0.1928406,2.1210938
		c0.9641418,9.834137,4.242157,30.6593323,21.9821472,30.0808716
		C479.0513,418.62146,483.100647,404.9308167,482.9078064,399.1460266z M534.392334,295.4056702
		c-9.0628052,0.9641418-27.5740662,8.2915344-35.67276,37.9866943c-0.5784607,2.3139038-1.1569824,4.6278076-1.7354431,7.134552
		c-2.6995544,14.0763245-3.0852051,26.2243652-2.3139343,36.2512817c1.1569824,15.618927,5.3991089,26.2243347,8.6771851,30.8521729
		c2.892395,4.242157,8.2914734,9.6412964,15.2332458,12.3408203c8.677124,3.2780457,19.4754028,2.3139343,25.838623-8.2915039
		c2.3139648-3.8565063,2.892395-7.5202026,2.5067139-10.4125977c-1.1569214-7.9058533-8.8699951-12.3408508-8.8699951-12.3408508
		c5.78479,8.4843445,2.1210938,17.161499-8.0986938,18.3184814c-11.9552612,1.349762-16.1973877-27.5741272-15.0404053-58.6190796
		s12.1480103-40.4934387,16.5830688-41.4575806c4.4349365-0.9641113,10.0269165,1.5426331,10.2197266,6.3632813
		c0,4.0493469-0.7713013,6.9417419-3.2780762,8.484314c-2.5067139,1.5426025-7.5202026,0-7.5202026,0
		c0,4.8206482,3.8565063,8.2915344,7.1345825,9.2556458c3.0852661,0.9641418,12.1480103,0,14.8476563-12.3408508
		c0.1928101-0.7712708,0.3856812-1.5426025,0.3856812-2.3139038
		C555.6032104,301.9617615,544.0336304,294.4415588,534.392334,295.4056702z M294.7097168,290.1993713
		c-10.2197571,3.0852356-21.4036865,12.919342-21.4036865,12.919342s7.134552,37.7938843-0.1928406,66.3321228
		c0,0-24.1032257,17.5471802-17.5471649-72.5025635c0-0.1928101,0-0.3856201,0-0.5784607
		c0,0-10.2197723,2.1210938-19.8610687,9.2556458c0,0-1.5426178,16.1973572-0.1928406,34.5158386
		c1.9282532,24.4888611,9.0628052,52.4486389,32.2019348,49.7490845c0,0-5.0134888,25.2601929-18.511322,26.0314941
		c-6.5560608,0.3856506-7.9058685-6.9417419-7.3273773-10.2197876c0.578476-3.2780151,3.2780304-5.7847595,4.8206482-6.1704102
		c0,0-2.6995544-1.5426025-5.78479-0.9641418c-4.6278076,0.7713013-8.6771545,3.8565369-9.4484558,9.6412964
		c-0.1928406,2.5067444,0,5.3991394,1.3497772,8.8700256c4.2421722,11.5695496,25.0673828,11.376709,36.8297729,2.8923645
		c12.7265015-9.2556458,26.0314941-32.9732361,28.1525879-73.4666443
		C298.9519043,330.3071899,297.9877625,311.7958679,294.7097168,290.1993713z M336.9386292,316.2308655
		c-6.9417419-10.6054077-2.892395-17.1614685-0.3856506-18.5112915c2.892395-1.7354126,7.7130432-0.9641113,8.484314,2.892395
		c0.3856506,2.3139038-0.1928406,7.134552-3.6636658,7.7130432c0,0,9.2556458,1.9282532,10.2197876-7.5202026
		c0-0.7713013,0-1.7354126-0.1928406-2.5067444c-0.9641418-5.3991394-6.3632813-10.6054382-14.6547852-9.834137
		c-8.6771851,0.7713013-19.861084,6.3632507-21.2108459,24.4888916c-0.1928406,1.349762-0.1928406,2.6995544-0.1928406,4.0493469
		c0,15.2332458,12.9193115,29.6951904,18.7041016,38.1795349c5.3991394,8.0986938,11.1838989,24.8745422,5.2062988,37.9867249
		c-4.8206482,10.6054077-10.7982788,11.1838989-14.4619446,11.1838989
		c-3.6636963,0.1928406-9.4484558-4.0493469-7.9058838-8.8699951c1.3497925-4.8206482,7.3273926-5.78479,8.2915344-4.6278076
		c0,0-3.6636963-4.0493774-7.3273926-4.0493774c-5.3991394-0.1928406-9.4484558,4.242157-10.026947,9.834137
		c0,0.3856506,0,0.9641418,0,1.5426025c0.1928406,6.1704407,4.8206482,17.3543396,21.4036865,16.5830688
		c16.5830383-0.7713013,29.3095398-17.9328308,31.237793-36.6369324c0.1928406-1.9282532,0.1928406-3.6636963,0.1928406-5.5919495
		C360.2705383,347.8543091,346.387085,330.8856506,336.9386292,316.2308655z"/>
</g>
</svg>
