<?xml version="1.0" encoding="UTF-8" standalone="no"?>
<!DOCTYPE svg PUBLIC "-//W3C//DTD SVG 1.1//EN" "http://www.w3.org/Graphics/SVG/1.1/DTD/svg11.dtd">
<svg width="100%" height="100%" viewBox="0 0 960 640" version="1.1" xmlns="http://www.w3.org/2000/svg" xmlns:xlink="http://www.w3.org/1999/xlink" xml:space="preserve" xmlns:serif="http://www.serif.com/" style="fill-rule:evenodd;clip-rule:evenodd;stroke-linejoin:round;stroke-miterlimit:2;">
    <path d="M463.23,83.508C302.796,78.16 55.335,185.855 55.335,185.855L163.665,441.017L234.209,416.65L234.209,556.685L687.122,556.685L687.122,414.938L772.275,438.204L904.665,206.854C649.665,99.854 623.665,88.854 463.23,83.508Z" style="fill:rgb(116,79,40);fill-rule:nonzero;"/>
    <path d="M598.781,426.09L598.781,414.207C592.444,423.558 584.014,425.465 578.213,425.465C566.744,425.465 559.334,415.785 559.334,400.804L559.338,400.64L560.352,382.573C560.312,380.812 559.179,378.237 555.995,372.243L544.961,389.575C538.872,399.137 537.914,400.643 537.721,400.937C529.713,413.379 520.605,425.527 505.203,425.527C495.026,425.527 478.882,419.71 478.882,404.102C478.882,393.77 486.112,388.115 491.632,385.304C489.898,382.295 488.805,378.96 488.422,375.509C476.132,380.488 466.049,380.916 449.172,380.403L444.245,396.07L440.889,406.743C436.416,419.982 425.685,427.545 411.431,427.545C392.666,427.545 384.267,416.408 384.267,405.371C384.267,393.121 391.641,387.183 395.184,384.328C395.854,383.789 396.449,383.312 396.718,383.056L396.718,382.901C396.718,381.986 394.983,378.176 387.062,371.627C382.697,368.017 377.452,364.431 373.232,362.141C370.612,366.214 366.682,372.053 359.86,379.073C348.424,390.843 334.709,390.226 333.183,390.12C332.382,390.064 331.589,389.932 330.814,389.724L330.814,426.09L253.21,426.09L253.21,537.685L668.123,537.685L668.123,426.09L598.781,426.09Z" style="fill:rgb(255,199,44);fill-rule:nonzero;"/>
    <path d="M602.985,387.159L604.492,371.533C605.417,361.866 605.801,357.865 606.426,354.619C606.504,354.219 606.471,353.76 606.543,353.357C607.243,353.467 607.861,353.728 608.617,353.728C614.701,353.728 621.813,349.457 621.813,337.413C621.813,330.479 618.461,310.167 610.153,301.059C600.74,290.743 549.437,239.285 463.575,239.285C394.514,239.285 366.265,263.461 347.574,279.461C337.567,288.025 332.02,292.491 325.031,292.491L319.943,292.228C313.583,292.228 306.493,297.244 306.493,304.438C306.493,308.11 308.131,311.137 309.449,313.565C309.449,313.565 310.172,315.01 310.38,315.43C310.298,322.126 309.124,324.142 307.968,325.987C306.646,328.083 304.648,331.257 304.648,336.498C304.648,342.842 307.291,346.482 309.846,350.004C312.554,353.728 316.262,358.839 320.79,371.758C321.05,372.387 323.629,378.513 327.41,383.051C328.919,384.862 331.108,385.976 333.46,386.13C334.807,386.221 346.883,386.69 356.991,376.286C364.152,368.916 368.042,362.836 370.617,358.812C370.617,358.812 371.232,357.907 371.851,357.006C380.724,360.821 400.717,375.329 400.717,382.901C400.717,384.951 400.463,385.218 397.703,387.435C394.175,390.277 388.267,395.026 388.267,405.371C388.267,414.418 395.428,423.545 411.431,423.545C423.868,423.545 433.204,416.992 437.065,405.57C437.101,405.45 443.08,386.446 446.268,376.306C468.328,377.067 477.788,376.488 492.407,369.339C492.322,370.283 492.234,371.228 492.234,372.155C492.234,379.203 495.014,383.845 497.771,387.077C491.173,389.235 482.881,394.265 482.881,404.102C482.881,416.8 496.576,421.527 505.203,421.527C518.588,421.527 526.97,410.251 534.408,398.698C534.424,398.675 547.464,378.191 556.283,364.343C562.474,375.756 564.353,379.363 564.353,382.667L563.333,400.805C563.333,413.356 569.173,421.465 578.213,421.465C586.195,421.465 600.033,417.008 602.985,387.159Z" style="fill:rgb(255,199,44);fill-rule:nonzero;"/>
    <path d="M608.617,345.118C610.433,345.118 613.203,344.194 613.203,337.413C613.203,330.636 609.733,313.376 603.793,306.863C597.849,300.349 547.709,247.896 463.575,247.896C361.975,247.896 354.891,301.108 325.031,301.108C322.375,301.108 320.819,300.838 319.943,300.838C317.704,300.838 315.103,302.745 315.103,304.438C315.103,307.462 319.023,311.583 319.023,314.789C319.023,331 313.257,329.535 313.257,336.499C313.257,344.562 320.087,343.705 328.915,368.91C328.915,368.91 330.975,373.878 334.025,377.54C334.025,377.54 338.575,377.836 343.935,375.26C345.217,364.418 342.801,352.348 342.801,352.348L348.387,351.248C348.387,351.248 350.396,361.293 349.777,371.293C350.126,370.971 350.477,370.639 350.819,370.287C364.539,356.163 364.898,347.572 370.516,347.572C375.64,347.572 409.324,366.784 409.324,382.901C409.324,395.368 396.877,392.927 396.877,405.371C396.877,409.535 399.95,414.939 411.431,414.939C417.411,414.939 425.483,412.953 428.905,402.816L440.021,367.465C473.849,368.741 477.214,369.295 506.284,351.703C506.284,351.703 500.844,363.236 500.844,372.156C500.844,383.155 510.711,384.616 510.711,389.866C510.711,393.568 505.974,394.323 504.487,394.323C502.999,394.323 491.492,396.677 491.492,404.102C491.492,411.521 502.54,412.921 505.202,412.921C512.989,412.921 519.037,406.664 527.169,394.037L556.921,347.315C569.034,370.316 572.962,375.336 572.962,382.667C572.962,389.994 571.944,398.057 571.944,400.805C571.944,403.549 572.534,412.855 578.213,412.855C583.89,412.855 592.208,408.655 594.414,386.306C596.628,363.959 596.98,358.122 597.969,352.996C598.923,348.054 599.739,339.962 597.184,327.256C598.197,331.772 601.767,345.118 608.617,345.118ZM329.013,344.213C328.531,348.288 324.065,345.974 321.591,344.809C319.127,343.634 320.621,342.465 321.591,339.562C322.58,336.645 329.52,336.065 329.52,336.065C332.473,337.823 329.52,340.141 329.013,344.213Z" style="fill:rgb(116,79,40);fill-rule:nonzero;"/>
    <g>
        <path d="M283.085,441.019C281.779,441.019 280.704,442.093 280.702,443.399L280.702,520.377C280.704,521.683 281.779,522.757 283.085,522.757L322.779,522.757L336.447,509.26L336.447,487.773L329.009,481.888L336.447,475.999L336.447,454.518L322.779,441.018L283.085,441.018L283.085,441.019ZM325.493,503.968L318.387,510.986L294.035,510.986C292.73,510.985 291.656,509.911 291.656,508.606C291.656,508.605 291.656,508.604 291.656,508.603L291.656,490.156C291.656,490.155 291.656,490.154 291.656,490.153C291.656,488.847 292.73,487.773 294.036,487.773L318.387,487.773L325.493,494.791L325.493,503.968ZM325.493,468.984L318.387,475.999L294.035,475.999C294.035,475.999 294.034,475.999 294.034,475.999C292.729,475.999 291.656,474.926 291.656,473.621C291.656,473.62 291.656,473.62 291.656,473.619L291.656,455.172C291.656,455.171 291.656,455.171 291.656,455.17C291.656,453.864 292.73,452.79 294.036,452.789L318.387,452.789L325.493,459.808L325.493,468.984ZM354.413,441.019C353.107,441.02 352.032,442.093 352.03,443.399L352.037,517.282C352.037,517.283 352.037,517.283 352.037,517.284C352.037,520.286 354.507,522.756 357.509,522.756C357.51,522.756 357.511,522.756 357.512,522.756C360.514,522.756 362.984,520.286 362.984,517.284C362.984,517.283 362.984,517.283 362.984,517.282L362.984,490.156C362.984,490.155 362.984,490.155 362.984,490.154C362.984,488.848 364.059,487.773 365.365,487.773C365.366,487.773 365.366,487.773 365.367,487.773L389.715,487.773L396.822,494.791L396.828,517.281C396.828,517.282 396.828,517.283 396.828,517.284C396.828,520.286 399.298,522.756 402.3,522.756L402.304,522.756C405.305,522.756 407.775,520.286 407.775,517.285C407.775,517.284 407.775,517.283 407.775,517.282L407.775,487.773L400.34,481.888L407.775,475.999L407.775,454.518L394.11,441.018L354.413,441.018L354.413,441.019ZM396.822,468.984L389.715,475.999L365.366,475.999C365.365,475.999 365.364,475.999 365.363,475.999C364.058,475.999 362.984,474.925 362.984,473.62C362.984,473.62 362.984,473.619 362.984,473.619L362.984,455.172C362.984,455.172 362.984,455.171 362.984,455.171C362.984,453.864 364.059,452.789 365.366,452.789L389.715,452.789L396.822,459.808L396.822,468.984ZM499.095,441.019L499.09,441.019C496.088,441.019 493.617,443.49 493.617,446.492C493.617,446.493 493.617,446.493 493.617,446.494L493.617,517.282C493.617,520.309 496.069,522.756 499.093,522.756C502.117,522.756 504.565,520.309 504.565,517.282L504.565,446.494C504.565,446.492 504.565,446.491 504.565,446.489C504.565,443.488 502.096,441.019 499.095,441.019ZM473.632,441.019L473.628,441.019C470.627,441.019 468.158,443.488 468.158,446.489C468.158,446.491 468.158,446.492 468.158,446.494L468.152,503.968L461.043,510.986L441.421,510.986L434.311,503.968L434.308,446.494C434.308,446.493 434.308,446.493 434.308,446.492C434.308,443.49 431.837,441.019 428.835,441.019L428.831,441.019C425.83,441.019 423.361,443.488 423.361,446.489C423.361,446.491 423.361,446.492 423.361,446.494L423.361,509.26L437.026,522.756L465.437,522.756L479.102,509.26L479.102,446.494C479.102,446.492 479.102,446.491 479.102,446.489C479.102,443.488 476.633,441.019 473.632,441.019ZM602.943,452.79L622.572,452.79L630.872,460.99C633.11,463.198 636.768,463.175 638.978,460.94C641.186,458.702 641.163,455.044 638.926,452.835L626.962,441.019L598.552,441.019L584.886,454.518L584.886,474.278L598.551,487.773L622.571,487.773L629.678,494.791L629.678,503.968L622.572,510.986L602.942,510.986L594.642,502.786C592.405,500.578 588.748,500.6 586.537,502.835C584.33,505.073 584.354,508.73 586.589,510.94L598.551,522.756L626.962,522.756L640.632,509.26L640.632,489.502L626.962,475.999L602.942,475.999L595.84,468.984L595.84,459.808L602.943,452.789L602.943,452.79ZM569.35,441.019C566.346,441.018 563.873,443.49 563.871,446.494L563.871,498.385L529.184,443.565C527.882,441.513 525.365,440.56 523.031,441.234C520.697,441.912 519.079,444.064 519.076,446.494L519.076,517.282C519.076,520.306 521.531,522.756 524.555,522.756C527.579,522.756 530.033,520.306 530.033,517.282L530.033,465.394L564.72,520.208C566.018,522.263 568.536,523.218 570.87,522.542C573.204,521.865 574.823,519.712 574.824,517.282L574.824,446.494C574.822,443.492 572.352,441.022 569.35,441.019Z" style="fill:rgb(116,79,40);fill-rule:nonzero;"/>
    </g>
    <g>
        <path d="M751.165,151.355L629.165,368.355L664.165,382.855L727.92,269.649C730.898,264.362 738.987,267.095 738.147,273.105L719.665,405.355L760.165,421.355L883.165,205.355L847.165,189.855L783.947,303.675C781.384,308.29 774.336,306 774.974,300.761L791.165,167.855L751.165,151.355ZM667.998,131.521L629.332,118.188L612.665,124.521L586.998,205.521L595.998,219.521L635.998,232.855L652.998,227.521L678.998,146.188L667.998,131.521ZM657.506,149L636.182,212.973C635.824,214.048 634.811,214.778 633.678,214.778C633.378,214.778 633.081,214.727 632.798,214.627L610.385,206.7C609.059,206.231 608.329,204.78 608.743,203.436L628.529,139.131C628.869,138.027 629.896,137.268 631.051,137.268C631.344,137.268 631.635,137.316 631.912,137.412L655.862,145.672C657.221,146.14 657.96,147.637 657.506,149ZM502.165,98.355L501.165,114.355L522.665,116.355L516.665,201.855L538.165,204.355L544.665,119.355L567.165,122.355L567.665,106.855L502.165,98.355ZM428.165,99.355L387.165,102.355L376.665,113.855L384.165,154.291L399.665,162.855L434.665,160.355L439.165,186.355L413.165,189.355L411.165,180.355L390.165,181.855L393.165,198.355L407.915,206.855L449.165,203.355L460.665,192.355L453.165,153.105L437.165,142.855L403.165,144.855L398.665,118.355L423.665,116.355L426.165,124.355L446.165,123.355L443.665,108.855L428.165,99.355ZM320.247,126.855L304.187,119.355L262.165,129.855L253.209,143.355L286.665,225.355L304.647,232.855L346.165,222.355L355.165,209.855L320.247,126.855ZM329.577,207.292L307.212,214.082C305.777,214.518 304.229,213.777 303.667,212.387L277.414,147.445C277.274,147.098 277.202,146.728 277.202,146.354C277.202,145.027 278.109,143.86 279.395,143.533L301.235,137.973C302.626,137.619 304.081,138.344 304.637,139.667L331.414,203.379C331.564,203.736 331.641,204.119 331.641,204.507C331.641,205.785 330.799,206.921 329.576,207.292L329.577,207.292ZM261.915,284.605L236.402,270.155C234.817,269.257 234.08,267.348 234.65,265.618L243.665,238.285L212.665,168.855L176.415,156.105L71.665,189.355L170.165,420.605L273.665,386.355L291.656,353.855L261.916,284.605L261.915,284.605ZM148.647,268.72L127.343,218.946C126.973,218.082 126.782,217.151 126.782,216.211C126.782,213.263 128.658,210.621 131.441,209.648L174.729,194.516C178.183,193.308 182.03,195.024 183.439,198.401L204.533,248.948C204.887,249.796 205.069,250.706 205.069,251.625C205.069,254.609 203.147,257.276 200.316,258.22L157.236,272.58C153.823,273.718 150.062,272.028 148.646,268.72L148.647,268.72ZM240.89,356.6L198.99,370.934C195.041,372.285 190.667,370.293 189.094,366.427L169.324,317.868C167.609,313.654 169.79,308.864 174.094,307.391L215.418,293.249C219.335,291.908 223.676,293.855 225.281,297.671L245.626,346.037C247.404,350.265 245.23,355.115 240.89,356.6Z" style="fill:rgb(255,199,44);fill-rule:nonzero;"/>
    </g>
</svg>
