<?xml version="1.0" encoding="UTF-8" standalone="no"?>
<!DOCTYPE svg PUBLIC "-//W3C//DTD SVG 1.1//EN" "http://www.w3.org/Graphics/SVG/1.1/DTD/svg11.dtd">
<svg width="100%" height="100%" viewBox="0 0 960 640" version="1.1" xmlns="http://www.w3.org/2000/svg" xmlns:xlink="http://www.w3.org/1999/xlink" xml:space="preserve" xmlns:serif="http://www.serif.com/" style="fill-rule:evenodd;clip-rule:evenodd;stroke-linejoin:round;stroke-miterlimit:2;">
    <path d="M224.645,13.316L224.645,439.026L480.354,623.574L735.354,439.026L735.354,13.316L224.645,13.316Z" style="fill:rgb(162,170,173);fill-rule:nonzero;"/>
    <path d="M480.358,608.191L722.888,432.652L722.888,25.783L237.112,25.783L237.112,432.654L450.694,586.785L480.358,608.191ZM252.626,40.04L708.129,40.04L708.129,308.85L252.626,308.85L252.626,40.04ZM252.626,322.905L708.129,322.905L708.129,423.2L480.377,587.816L480.375,587.818L388.415,521.348L252.625,423.199L252.625,322.903L252.626,322.905Z" style="fill:white;fill-rule:nonzero;"/>
    <path d="M266.969,54.434L266.971,54.434L266.971,54.43L693.768,54.43L693.768,287.688L693.765,287.688L693.765,287.691L266.97,287.691L266.97,54.434L266.969,54.434Z" style="fill:rgb(162,170,173);fill-rule:nonzero;"/>
    <path d="M266.977,347.878L266.973,347.878L266.973,415.838L480.37,570.063L480.372,570.061L693.78,415.84L693.78,347.88L266.977,347.878ZM693.768,287.688L693.768,54.43L266.97,54.43L266.97,287.688L693.768,287.688Z" style="fill-rule:nonzero;"/>
    <path d="M480.358,608.191L722.888,432.652L722.888,25.783L237.112,25.783L237.112,432.654L450.694,586.785L480.358,608.191ZM252.626,40.04L708.129,40.04L708.129,308.85L252.626,308.85L252.626,40.04ZM252.626,322.905L708.129,322.905L708.129,423.2L480.377,587.816L480.375,587.818L388.415,521.348L252.625,423.199L252.625,322.903L252.626,322.905Z" style="fill:white;fill-rule:nonzero;"/>
    <path d="M693.768,287.688L693.768,54.43L266.97,54.43L266.97,287.688L693.768,287.688ZM266.977,347.878L266.973,347.878L266.973,415.838L480.37,570.063L480.372,570.061L693.78,415.84L693.78,347.88L266.977,347.878Z" style="fill-rule:nonzero;"/>
    <path d="M708.119,40.039L708.129,40.039L708.129,308.849L708.119,308.849L708.119,40.039ZM480.375,587.818L480.377,587.816L388.416,521.347L480.375,587.818ZM693.78,415.839L480.373,570.06L480.375,570.062L693.784,415.84L693.784,347.88L693.78,347.88L693.78,415.839Z" style="fill:none;fill-rule:nonzero;"/>
    <path d="M252.634,423.201L252.634,322.905L708.116,322.905L708.116,423.2L480.377,587.816L708.13,423.2L708.13,322.904L252.626,322.904L252.626,423.2L388.416,521.348L252.634,423.201ZM224.645,13.316L735.355,13.316L224.645,13.316ZM324.548,101.536C322.75,106.896 320.791,114.211 319.157,123.76C320.791,114.212 322.75,106.897 324.548,101.536ZM463.708,208.98C461.759,210.305 459.748,211.536 457.682,212.67C459.748,211.537 461.759,210.306 463.708,208.983L463.708,208.979L463.708,208.98ZM326.993,95.03L285.697,95.03L285.699,95.035L326.992,95.035L326.993,95.03ZM285.697,247.079L285.699,247.079L285.697,247.079ZM467.862,201.074L467.853,201.082C467.853,230.953 453.515,250.605 453.397,250.766C453.539,250.572 467.862,230.932 467.862,201.074ZM496.774,171.055C496.774,112.435 483.135,91.403 483.083,91.323L483.081,91.323C483.081,91.323 496.764,112.326 496.764,171.058C496.764,215.108 489.067,237.928 485.219,246.586C489.069,237.931 496.774,215.109 496.774,171.056L496.774,171.055ZM453.385,250.784L453.387,250.781L279.79,250.781C279.79,250.781 293.442,229.787 293.442,171.055C293.442,112.435 279.845,91.403 279.792,91.323L279.777,91.323C279.777,91.323 293.44,112.326 293.44,171.058C293.44,229.791 279.777,250.784 279.777,250.784L453.386,250.784L453.385,250.784Z" style="fill:none;fill-rule:nonzero;"/>
    <path d="M297.122,171.057C297.122,190.6 295.626,206.001 293.608,217.949C295.626,206.002 297.122,190.602 297.122,171.059L297.122,171.057ZM401.553,225.408C415.962,225.408 427.85,223.5 437.457,220.812C427.85,223.498 415.962,225.405 401.553,225.405L315.569,225.405L315.569,225.408L401.553,225.408ZM288.146,101.536C289.946,106.897 291.905,114.212 293.538,123.76C291.905,114.21 289.946,106.896 288.146,101.536ZM641.5,250.78L680.97,250.78L680.97,250.783L641.5,250.783L641.5,250.78ZM522.572,191.388L522.572,250.781L483.082,250.781L483.081,250.784L522.582,250.784L522.582,191.392L641.5,191.392L641.5,191.388L522.572,191.388Z" style="fill:none;fill-rule:nonzero;"/>
    <path d="M518.879,187.673L518.881,187.673L518.881,247.078L518.879,247.078L518.879,187.673ZM664.581,196.964C663.973,189.257 663.597,180.68 663.597,171.055C663.597,162.969 663.852,155.585 664.295,148.861C663.851,155.587 663.595,162.973 663.595,171.062C663.595,180.685 663.972,189.259 664.581,196.964ZM667.4,179.228C667.334,176.504 667.301,173.78 667.3,171.055C667.299,173.875 667.34,176.581 667.4,179.228ZM494.85,228.512C497.85,215.601 500.474,196.96 500.474,171.062C500.474,145.389 497.896,126.851 494.929,113.951C497.891,126.85 500.465,145.387 500.465,171.055C500.465,196.955 497.845,215.6 494.849,228.512L494.85,228.512ZM675.043,247.079C674.168,245.04 673.156,242.378 672.107,239.11C673.153,242.376 674.159,245.038 675.027,247.079L675.043,247.079ZM675.043,95.03L675.029,95.03C674.176,97.037 673.189,99.641 672.161,102.832C673.191,99.642 674.183,97.037 675.043,95.031L675.043,95.03Z" style="fill:none;fill-rule:nonzero;"/>
    <path d="M645.2,116.712L518.88,116.712L518.88,166L645.2,166L645.2,116.712ZM641.499,162.308L522.58,162.308L522.58,120.393L641.497,120.393L641.497,162.308L641.499,162.308Z" style="fill:rgb(162,170,173);fill-rule:nonzero;"/>
    <g>
        <path d="M401.582,221.727L319.268,221.727L319.268,171.058C319.268,117.813 330.48,95.577 332.575,91.887C332.788,91.511 332.905,91.33 332.91,91.323L279.79,91.323C279.843,91.403 293.44,112.435 293.44,171.055C293.44,229.787 279.788,250.781 279.788,250.781L453.386,250.781L453.396,250.766C453.514,250.606 467.852,230.953 467.852,201.082C467.677,201.264 447.857,221.727 401.581,221.727L401.582,221.727ZM667.299,171.055C667.299,164.46 667.479,158.366 667.785,152.698C670.205,107.898 680.972,91.323 680.972,91.323L483.082,91.323C483.134,91.403 496.772,112.435 496.772,171.055C496.772,215.109 489.069,237.931 485.218,246.585C483.943,249.453 483.092,250.765 483.082,250.78L522.572,250.78L522.572,191.388L641.5,191.388L641.5,250.78L680.97,250.78C680.93,250.718 668.587,231.645 667.4,179.228C667.34,176.581 667.299,173.875 667.299,171.055ZM641.499,162.308L522.58,162.308L522.58,120.393L641.497,120.393L641.497,162.308L641.499,162.308Z" style="fill:rgb(162,170,173);fill-rule:nonzero;"/>
    </g>
    <g>
        <path d="M437.457,220.812C427.85,223.5 415.962,225.408 401.553,225.408L315.569,225.408L315.569,171.055C315.569,151.287 317.102,135.764 319.157,123.76C320.791,114.211 322.75,106.896 324.548,101.536C325.278,99.338 326.093,97.169 326.992,95.035L285.699,95.035C286.599,97.169 287.416,99.338 288.146,101.536C289.946,106.896 291.905,114.211 293.538,123.76C295.591,135.764 297.122,151.286 297.122,171.055L297.122,171.058C297.122,190.602 295.626,206.002 293.608,217.949C291.841,228.415 289.679,236.199 287.75,241.723C287.126,243.53 286.442,245.317 285.699,247.079L451.397,247.079C452.626,245.145 454.897,241.196 457.18,235.63C459.387,230.237 461.08,224.648 462.237,218.937C462.908,215.648 463.399,212.325 463.707,208.983C461.758,210.306 459.747,211.537 457.682,212.67C452.596,215.476 445.92,218.446 437.457,220.812ZM664.581,196.964C663.972,189.259 663.595,180.685 663.595,171.062C663.595,162.972 663.851,155.587 664.295,148.862C665.726,127.088 669.118,112.263 672.161,102.832C673.188,99.642 674.176,97.037 675.029,95.031L489.03,95.031C490.72,98.984 492.914,105.176 494.93,113.951C497.896,126.851 500.474,145.389 500.474,171.062C500.474,196.96 497.85,215.601 494.849,228.512C492.856,237.103 490.699,243.182 489.03,247.079L518.879,247.079L518.879,187.673L518.881,187.673L518.881,187.666L645.202,187.666L645.202,247.079L675.027,247.079C674.159,245.039 673.153,242.376 672.107,239.11C669.257,230.23 666.129,216.576 664.581,196.964ZM645.201,166L518.878,166L518.878,116.712L645.2,116.712L645.2,166L645.201,166Z" style="fill:white;fill-rule:nonzero;"/>
    </g>
    <path d="M557.084,403.942C557.062,403.972 544.154,421.202 541.753,424.417L541.75,424.414L541.744,424.422C539.592,421.784 536.607,418.892 532.947,416.078C526.834,411.402 519.983,407.78 512.676,405.362L512.677,405.357C513.427,403.541 516.041,397.171 517.574,393.434L518.716,390.644L515.606,391.906C513.013,392.963 510.421,394.022 507.83,395.083L507.835,395.072C507.83,395.074 507.825,395.076 507.82,395.078C508.146,394.395 508.49,393.758 508.498,393.743L502.33,394.06C499.205,394.225 495.881,394.403 494.973,394.46C494.842,394.222 494.593,393.779 494.276,393.214C493.245,391.382 491.403,388.122 489.789,385.261C488.375,382.759 487.139,380.573 486.796,379.961C487.075,379.469 487.584,378.578 488.128,377.632C489.045,376.023 490.06,374.249 490.228,373.996C490.412,373.813 491.17,373.159 491.924,372.516C492.772,371.783 493.611,371.063 493.611,371.063L489.734,363.701L485.866,363.967L481.486,364.273L481.449,365.29C481.409,366.482 481.344,368.356 481.33,368.84L480.749,369.784L480.382,370.403L480.375,370.391L480.371,370.397L479.853,369.547L479.413,368.835C479.393,368.115 479.249,364.297 479.248,364.272L475.657,364.021L470.995,363.701L469.269,366.974L467.122,371.062C467.122,371.062 470.102,373.61 470.525,373.991C470.783,374.404 473.195,378.631 473.969,379.961C473.102,381.487 466.719,392.778 465.792,394.459C464.784,394.398 460.956,394.195 457.621,394.019C454.749,393.87 452.242,393.742 452.242,393.742C452.242,393.742 452.439,394.112 452.682,394.597C452.763,394.756 452.842,394.916 452.921,395.077C452.921,395.078 452.921,395.08 452.923,395.082C452.148,394.764 451.123,394.344 450.015,393.892C446.502,392.462 442.15,390.694 442.039,390.648C442.062,390.708 443.337,393.831 444.731,397.239C446.081,400.53 447.538,404.076 448.067,405.357L448.065,405.358L448.066,405.362C436.146,409.302 426.977,415.906 421.297,421.829C421.267,421.859 421.23,421.892 421.201,421.923C421.128,421.999 421.073,422.071 421.001,422.148C420.305,422.882 419.634,423.641 418.99,424.422L418.436,423.68C415.056,419.166 403.666,403.94 403.666,403.94L400.388,405.362L416.205,496.131C416.205,496.131 438.745,501.894 480.371,501.894C521.987,501.894 544.527,496.131 544.527,496.131L560.354,405.362L558.379,404.502L557.084,403.942Z" style="fill:white;fill-rule:nonzero;"/>
    <g>
        <path d="M452.887,436.757C450.123,436.757 447.855,439.005 447.855,441.769L447.855,441.771C447.856,444.533 450.124,446.811 452.887,446.811C455.681,446.811 457.917,444.533 457.918,441.771L457.918,441.769C457.917,439.019 455.654,436.757 452.904,436.757L452.887,436.757ZM506.821,436.757C504.058,436.757 501.789,439.005 501.789,441.769L501.789,441.771C501.791,444.533 504.059,446.811 506.821,446.811C509.604,446.811 511.862,444.533 511.863,441.771L511.863,441.769C511.863,439.005 509.605,436.757 506.821,436.757Z" style="fill-rule:nonzero;"/>
        <path d="M541.658,430.326L541.658,430.327L541.628,430.284C540.84,429.006 539.976,427.778 539.04,426.604C538.086,425.408 537.067,424.265 535.989,423.179L535.906,423.096C534.798,421.987 533.637,420.932 532.427,419.936L532.257,419.796C531.023,418.79 529.745,417.838 528.428,416.943C528.328,416.874 528.227,416.807 528.125,416.738C526.647,415.747 525.126,414.82 523.568,413.96C521.956,413.069 520.31,412.244 518.632,411.485C516.898,410.699 515.135,409.979 513.347,409.326C511.671,408.713 509.976,408.153 508.264,407.649C508.179,407.624 508.097,407.596 508.012,407.571L508.014,407.567L510.678,401.077L512.268,397.204L512.27,397.198L490.441,406.993L490.441,401.621L480.378,384.268L480.374,384.275L470.284,401.621L470.284,406.993L470.277,406.99L448.465,397.198L450.485,402.105L452.734,407.571C441.158,410.942 431.496,416.372 424.774,423.139C422.533,425.395 420.618,427.799 419.069,430.326L404.977,411.444L404.973,411.437L409.823,439.646L418.893,492.39C418.893,492.39 436.879,496.88 467.208,497.73L467.252,497.731C467.252,497.731 446.636,495.805 434.385,491.127L434.37,491.121C435.776,491.319 437.184,491.51 438.592,491.693C442.664,492.224 447.45,492.77 452.522,493.198C457.772,493.641 463.294,493.955 468.612,493.956L468.654,493.957C468.654,493.957 460.131,493.063 451.211,491.021C447.635,490.202 443.996,489.204 440.814,487.997L440.851,488.002C443.671,488.382 446.908,488.778 450.355,489.138C457.16,489.85 464.836,490.418 472.11,490.42L472.14,490.42C472.14,490.42 455.83,488.73 444.705,484.658L444.702,484.657C447.799,484.002 450.914,483.431 454.042,482.944C461.945,481.704 470.824,480.852 480.378,480.852C488.115,480.852 495.418,481.419 502.124,482.292C507.117,482.941 511.789,483.755 516.014,484.657L516.005,484.66C504.91,488.73 488.617,490.42 488.617,490.42L488.644,490.42C496.002,490.419 503.774,489.835 510.64,489.111C513.742,488.785 516.84,488.414 519.931,487.998C516.671,489.232 512.934,490.248 509.277,491.078C500.443,493.08 492.081,493.958 492.081,493.958L492.109,493.957C497.458,493.956 503.015,493.637 508.298,493.19C513.567,492.744 518.548,492.17 522.715,491.62C524.011,491.45 525.242,491.281 526.365,491.122L526.352,491.127C514.111,495.805 493.483,497.732 493.483,497.732L493.54,497.73C523.871,496.88 541.832,492.39 541.832,492.39L555.771,411.449L555.773,411.438L541.658,430.326ZM490.452,445.526L490.452,408.963L496.766,406.128L508.868,400.694L508.865,400.701L496.585,430.594L490.452,445.526ZM506.536,411.143L506.538,411.139C516.84,414.152 525.618,418.891 531.918,424.685C534.928,427.455 537.38,430.462 539.148,433.642L539.15,433.646L535.617,438.367L535.305,438.782C532.994,434.236 529.776,430.212 525.85,426.957C525.309,426.507 524.755,426.072 524.19,425.653C523.806,425.369 523.423,425.109 523.04,424.846C522.868,424.728 522.695,424.598 522.524,424.484C522.157,424.241 521.794,424.021 521.429,423.796C521.242,423.681 521.053,423.554 520.866,423.444C520.508,423.231 520.156,423.039 519.802,422.844C519.615,422.74 519.425,422.627 519.239,422.528C518.885,422.339 518.539,422.17 518.191,421.998C518.013,421.909 517.831,421.812 517.654,421.728C517.307,421.562 516.97,421.414 516.632,421.264C516.464,421.19 516.292,421.108 516.128,421.037C515.77,420.884 515.425,420.747 515.081,420.611C514.949,420.559 514.811,420.5 514.681,420.45C514.311,420.308 513.956,420.18 513.605,420.058C513.512,420.025 513.413,419.987 513.321,419.955C512.933,419.822 512.562,419.702 512.202,419.591C512.16,419.577 512.113,419.561 512.071,419.549C509.257,418.685 507.379,418.456 507.271,418.443L507.239,418.439C511.803,420.126 515.586,422.103 518.746,424.269C524.451,428.179 528.062,432.724 530.218,437.409C531.046,439.204 531.693,441.076 532.15,442.999L528.562,447.826C528.562,447.831 529.025,460.716 526.448,466.148C525.902,465.945 525.354,465.747 524.804,465.556C524.431,465.426 524.057,465.295 523.644,465.159L523.644,465.156C526.514,453.321 525.195,444.813 522.228,438.741C521.885,438.039 521.511,437.352 521.107,436.682C520.827,436.219 520.528,435.792 520.231,435.361C520.109,435.184 519.996,434.991 519.872,434.82C519.562,434.393 519.238,434 518.914,433.606C518.791,433.456 518.674,433.29 518.548,433.144C518.221,432.763 517.884,432.414 517.548,432.064C517.418,431.928 517.293,431.779 517.162,431.648C516.812,431.298 516.457,430.979 516.102,430.661C515.982,430.551 515.862,430.429 515.74,430.323C515.369,430.005 514.989,429.697 514.602,429.399C514.504,429.323 514.406,429.236 514.308,429.162C513.919,428.87 513.522,428.587 513.119,428.315C513.043,428.263 512.966,428.203 512.89,428.152C512.482,427.879 512.08,427.632 511.684,427.394C511.627,427.36 511.568,427.319 511.511,427.286C511.078,427.03 510.656,426.796 510.246,426.581L510.203,426.557C507.228,424.997 504.982,424.46 504.91,424.442L504.898,424.44C524.042,434.306 522.263,451.922 518.367,463.532L518.365,463.539C517.449,463.296 516.465,463.039 515.441,462.779C514.665,462.58 513.886,462.39 513.106,462.209L511.075,452.171L510.445,449.063C513.149,448.322 515.036,445.845 515.034,443.041C515.034,440.814 513.848,438.876 512.095,437.751C511.83,437.422 511.535,437.118 511.214,436.844C510.756,436.433 510.242,436.088 509.688,435.819C508.797,435.384 507.818,435.156 506.826,435.153C503.166,435.153 500.186,438.123 500.186,441.773C500.186,443.744 501.079,445.486 502.456,446.689C502.773,446.965 503.089,447.243 503.455,447.454L496.773,459.632C495.719,459.522 494.632,459.44 493.551,459.352C492.379,459.254 491.201,459.172 490.011,459.102C488.977,459.042 487.947,458.972 486.905,458.931L506.535,411.143L506.536,411.143ZM506.826,447.454C503.712,447.454 501.155,444.897 501.155,441.774C501.155,438.659 503.712,436.112 506.826,436.112C509.096,436.112 511.058,437.482 511.953,439.432C512.282,440.149 512.477,440.937 512.477,441.773C512.477,442.581 512.3,443.348 511.994,444.045C511.116,446.045 509.127,447.455 506.826,447.455L506.826,447.454ZM480.366,397.451L480.378,397.435L488.617,408.19L480.378,417.954L480.366,417.94L472.14,408.19L480.366,397.45L480.366,397.451ZM451.87,400.699L451.868,400.694L468.442,408.136L470.284,408.963L470.284,445.526L468.944,442.263L451.87,400.7L451.87,400.699ZM421.585,433.647C423.513,430.175 426.259,426.911 429.657,423.937C435.886,418.485 444.337,414.021 454.198,411.139L454.201,411.147L473.831,458.931C472.543,458.982 471.269,459.062 469.998,459.143C467.952,459.273 465.924,459.428 463.953,459.632L463.837,459.42L457.861,448.53L457.859,448.527C459.855,447.428 461.095,445.319 461.086,443.041C461.086,441.927 460.796,440.885 460.286,439.981C460.276,439.963 460.259,439.949 460.249,439.931C459.738,439.046 459.02,438.298 458.158,437.751C456.905,436.111 454.953,435.148 452.888,435.153C451.188,435.153 449.65,435.816 448.476,436.875C447.131,438.087 446.269,439.825 446.269,441.773C446.269,442.827 446.518,443.825 446.959,444.711C447.698,446.196 448.963,447.354 450.507,447.96L447.609,462.21C447.483,462.24 447.372,462.27 447.248,462.299C445.488,462.715 443.863,463.145 442.361,463.539L442.36,463.536C442.169,462.96 441.987,462.38 441.815,461.798C439.707,454.788 438.602,446.012 442.117,438.086C444.404,432.931 448.643,428.14 455.827,424.44L455.813,424.444C455.744,424.46 454.434,424.776 452.51,425.611L452.486,425.622C452.112,425.785 451.716,425.967 451.299,426.17C451.241,426.199 451.177,426.235 451.117,426.264C450.744,426.45 450.362,426.646 449.964,426.866C449.873,426.916 449.776,426.978 449.684,427.03C449.308,427.244 448.928,427.463 448.537,427.71C448.425,427.78 448.31,427.864 448.197,427.936C447.817,428.183 447.436,428.433 447.047,428.711C446.929,428.796 446.809,428.897 446.69,428.985C446.305,429.271 445.918,429.56 445.53,429.88C445.408,429.981 445.287,430.098 445.166,430.203C444.781,430.532 444.396,430.863 444.016,431.227C443.896,431.342 443.779,431.475 443.66,431.593C443.281,431.97 442.902,432.348 442.533,432.763C442.417,432.893 442.307,433.043 442.193,433.176C441.828,433.603 441.463,434.03 441.113,434.496C441.006,434.64 440.909,434.804 440.803,434.951C440.457,435.432 440.113,435.916 439.789,436.439C439.679,436.616 439.584,436.816 439.478,436.997C439.173,437.518 438.866,438.039 438.587,438.602C438.2,439.382 437.851,440.179 437.54,440.992C435.292,446.868 434.55,454.712 437.081,465.158C436.144,465.472 435.212,465.802 434.287,466.148C433.457,464.391 432.946,461.852 432.63,459.222C431.97,453.724 432.174,447.826 432.174,447.826L430,444.903L428.585,443C428.595,442.962 428.607,442.924 428.615,442.886C430.512,434.977 435.77,426.902 447.485,421.036C449.436,420.061 451.44,419.194 453.487,418.44L453.467,418.442C453.39,418.451 450.841,418.749 447.181,420.022C447.131,420.039 447.074,420.064 447.023,420.082C445.722,420.538 444.445,421.06 443.198,421.647C443.117,421.685 443.042,421.714 442.96,421.753C442.934,421.765 442.906,421.782 442.879,421.795C437.049,424.602 430.079,429.679 425.43,438.783L421.967,434.16L421.584,433.648L421.585,433.647ZM456.554,446.072C455.564,446.921 454.294,447.454 452.889,447.454C449.785,447.454 447.249,444.897 447.249,441.774C447.249,438.659 449.785,436.112 452.889,436.112C453.702,436.115 454.506,436.294 455.243,436.638C457.197,437.535 458.56,439.496 458.56,441.773C458.56,443.496 457.772,445.028 456.554,446.072ZM414.924,458.642L414.099,453.816C414.167,453.787 414.252,453.798 414.326,453.784C414.46,453.759 414.589,453.725 414.74,453.724L414.748,453.724C415.436,453.724 416.032,454.051 416.453,454.551C416.82,454.987 417.058,455.553 417.058,456.187C417.058,457.494 416.133,458.523 414.93,458.64L414.923,458.642L414.924,458.642ZM415.717,463.209L415.563,462.302C417.027,462.067 418.302,461.229 419.189,460.039C420.018,458.926 420.464,457.574 420.46,456.187C420.46,454.69 419.95,453.337 419.136,452.268C418.088,450.894 416.523,450.001 414.748,450.001L414.743,450.001C414.291,450.002 413.88,450.053 413.47,450.166L413.294,449.259C413.769,449.15 414.255,449.091 414.742,449.084L414.748,449.084C418.408,449.084 421.378,452.249 421.378,456.187C421.378,459.745 418.914,462.704 415.718,463.21L415.717,463.209ZM546.037,457.263L545.802,458.642L545.799,458.642C544.605,458.526 543.668,457.496 543.668,456.187C543.668,455.257 544.174,454.475 544.888,454.057C545.218,453.863 545.577,453.724 545.978,453.724L545.988,453.725C546.221,453.725 546.434,453.735 546.628,453.816L546.038,457.263L546.037,457.263ZM547.42,449.263L547.267,450.161L547.267,450.166C546.846,450.053 546.412,449.997 545.977,450.001C545.192,450.001 544.444,450.173 543.763,450.483C541.708,451.418 540.265,453.616 540.265,456.187C540.265,459.301 542.41,461.859 545.163,462.302L545.103,462.74L545.039,463.21L545.019,463.205C544.232,463.079 543.475,462.806 542.789,462.4C540.738,461.188 539.358,458.856 539.358,456.188L539.358,456.186C539.358,452.249 542.318,449.084 545.978,449.084C546.175,449.084 546.345,449.132 546.531,449.151C546.829,449.181 547.135,449.196 547.421,449.259L547.42,449.263ZM552.687,418.581L547.587,448.356L547.586,448.362C547.425,448.326 547.259,448.3 547.094,448.271C546.733,448.2 546.366,448.162 545.998,448.155C541.832,448.155 538.44,451.754 538.44,456.188C538.438,458.196 539.175,460.137 540.511,461.637C541.347,462.577 542.379,463.322 543.551,463.756C543.971,463.912 544.408,464.029 544.857,464.105L544.864,464.107L541.862,481.515L540.421,489.868L540.42,489.874C538.582,489.169 535.577,488.086 531.65,486.874C525.773,485.072 519.807,483.574 513.775,482.387C504.215,480.495 492.82,479.027 480.378,479.027C458.097,479.027 439.143,483.707 428.198,487.147C425.537,487.977 422.902,488.887 420.296,489.875L417.028,470.883L415.862,464.107C418.186,463.716 420.162,462.203 421.288,460.116C421.942,458.91 422.284,457.56 422.285,456.188C422.285,453.988 421.448,451.998 420.101,450.548C418.732,449.073 416.837,448.156 414.748,448.156C414.365,448.156 413.982,448.21 413.611,448.279C413.463,448.306 413.311,448.329 413.171,448.362L413.169,448.356L408.016,418.566L408.015,418.563L430.349,448.383C430.181,453.326 430.495,457.232 430.971,460.254C431.871,465.956 433.359,468.458 433.359,468.458C433.359,468.458 436.628,467.142 441.234,465.758C443.607,465.045 446.329,464.315 449.156,463.736L451.241,453.485L452.208,448.733C452.454,448.839 452.718,448.905 452.975,448.983C453.571,449.167 454.189,449.3 454.858,449.3C455.288,449.303 455.717,449.258 456.137,449.166L456.14,449.172L458.362,453.216L462.938,461.543L462.942,461.55C462.942,461.55 465.518,461.303 468.626,461.07C471.413,460.861 474.626,460.663 476.81,460.663L472.665,447.826L475.48,440.589L480.366,428.029L480.378,427.998L487.431,446.228L488.049,447.826L483.904,460.663L483.91,460.663C486.31,460.663 489.924,460.899 492.867,461.127C495.631,461.342 497.804,461.55 497.804,461.55L497.807,461.545L505.125,448.155C505.13,448.155 505.128,448.162 505.133,448.164C505.173,448.176 505.197,448.228 505.197,448.228C505.704,448.556 506.252,448.815 506.827,449C507.414,449.188 508.025,449.289 508.641,449.3L511.579,463.736C514.037,464.248 516.472,464.862 518.879,465.576L518.909,465.584L518.947,465.596C523.834,467.037 527.355,468.458 527.355,468.458L527.358,468.453C527.388,468.403 530.072,463.889 530.403,453.13C530.448,451.662 530.453,450.087 530.397,448.383L541.06,434.12L552.69,418.563L552.687,418.581Z" style="fill-rule:nonzero;"/>
        <path d="M469.507,400.991L469.941,400.244L480.354,382.277L480.364,382.294L484.338,389.117L491.253,400.991L499.873,400.991L500.936,398.95L492.346,398.95L481.52,380.256L486.86,371.172L488.119,369.873L488.115,369.868L488.021,369.728L487.232,368.563L487.223,368.563L485.97,368.656L485.263,368.708L485.262,368.712L485.186,369.093L484.943,370.306L480.362,378.253L480.354,378.266L478.123,374.368L475.797,370.306L475.467,368.708L474.677,368.649L473.51,368.563L473.508,368.563L473.263,368.921L472.613,369.871L472.611,369.873L473.91,371.172L476.17,375.046L479.21,380.256L468.377,398.944L468.373,398.95L459.805,398.95L460.835,400.991L469.507,400.991ZM467.525,467.92C467.445,467.87 467.376,467.802 467.291,467.76L467.293,467.763C467.389,467.89 467.443,468.038 467.521,468.174C467.808,468.665 468.013,469.197 468.013,469.801L468.013,469.809C468.013,471.631 466.513,473.131 464.691,473.131L464.631,473.131L464.639,473.134C464.756,473.192 464.881,473.231 465.003,473.278C465.175,473.343 465.354,473.388 465.539,473.421C465.685,473.447 465.827,473.482 465.982,473.482C467.632,473.482 468.962,472.121 468.962,470.44C468.962,469.385 468.378,468.454 467.525,467.92ZM441.61,472.332L441.6,472.325C441.821,472.592 441.995,472.903 442.118,473.242C442.139,473.299 442.139,473.364 442.158,473.422C442.249,473.728 442.321,474.046 442.321,474.387C442.321,475.127 442.065,475.809 441.649,476.367C441.044,477.177 440.089,477.717 439.001,477.717L438.949,477.717C439.173,477.832 439.413,477.913 439.661,477.969C439.86,478.015 440.062,478.048 440.269,478.048L440.27,478.048C441.927,478.048 443.29,476.685 443.29,475.028L443.29,475.026C443.29,473.855 442.603,472.849 441.61,472.332ZM496.778,467.76C496.903,467.924 496.98,468.113 497.077,468.292C497.325,468.752 497.507,469.241 497.509,469.794L497.51,469.801C497.514,470.911 496.959,471.952 496.035,472.568C495.483,472.937 494.834,473.133 494.17,473.131L494.118,473.131L494.126,473.134C494.25,473.197 494.386,473.241 494.518,473.29C494.678,473.35 494.843,473.39 495.013,473.42C495.157,473.447 495.299,473.482 495.448,473.482C495.831,473.482 496.192,473.394 496.529,473.263C497.698,472.818 498.476,471.691 498.479,470.44C498.479,469.285 497.769,468.255 496.779,467.76L496.778,467.76ZM522.536,472.341C522.527,472.337 522.521,472.329 522.512,472.325C522.651,472.488 522.733,472.694 522.835,472.885C523.074,473.335 523.245,473.83 523.245,474.387C523.245,476.202 521.76,477.717 519.925,477.717L519.873,477.717C520.043,477.809 520.235,477.879 520.433,477.934C520.676,478.004 520.931,478.047 521.193,478.047C522.269,478.047 523.175,477.444 523.711,476.589C524.001,476.126 524.214,475.609 524.214,475.026C524.214,474.436 524.04,473.89 523.74,473.426C523.439,472.966 523.024,472.592 522.536,472.341ZM482.806,444.765L482.81,444.771C482.852,444.822 482.872,444.892 482.911,444.947C483.28,445.458 483.528,446.077 483.528,446.756C483.528,448.62 482.067,450.106 480.261,450.141C480.635,450.321 481.044,450.426 481.466,450.426C481.875,450.426 482.279,450.344 482.655,450.184C482.72,450.156 482.765,450.1 482.828,450.068C483.811,449.57 484.508,448.586 484.508,447.426C484.505,446.286 483.84,445.246 482.806,444.766L482.806,444.765ZM480.198,450.148C480.219,450.148 480.24,450.142 480.261,450.141C480.224,450.123 480.183,450.116 480.146,450.097L480.198,450.147L480.198,450.148Z" style="fill-rule:nonzero;"/>
        <path d="M467.363,469.796C467.363,468.343 466.157,467.126 464.683,467.126C463.217,467.129 462.011,468.33 462.002,469.796L462.002,469.822C462.002,471.284 463.205,472.487 464.667,472.487L464.693,472.487C466.158,472.487 467.363,471.282 467.363,469.817L467.363,469.796ZM439.003,477.091C439.447,477.091 439.849,476.953 440.218,476.756C441.082,476.298 441.692,475.406 441.692,474.38C441.692,472.988 440.646,471.93 439.318,471.772C439.213,471.759 439.121,471.712 439.012,471.712L439.001,471.71C437.526,471.71 436.31,472.874 436.31,474.38C436.31,475.844 437.526,477.092 439.001,477.092L439.003,477.092L439.003,477.091ZM495.216,472.278C496.215,471.862 496.867,470.878 496.861,469.796C496.861,468.843 496.311,468.03 495.535,467.556C495.127,467.308 494.677,467.126 494.17,467.126C493.426,467.126 492.759,467.431 492.276,467.918C491.779,468.417 491.5,469.092 491.499,469.796C491.499,470.175 491.573,470.532 491.707,470.855C492.118,471.848 493.096,472.495 494.17,472.487C494.54,472.487 494.893,472.413 495.216,472.277L495.216,472.278ZM519.926,477.091C521.379,477.091 522.595,475.844 522.595,474.381L522.595,474.374C522.595,472.914 521.395,471.713 519.935,471.711L519.925,471.709C518.44,471.709 517.223,472.874 517.223,474.38C517.223,475.844 518.439,477.092 519.924,477.092L519.926,477.092L519.926,477.091ZM481.243,449.269C482.241,448.838 482.89,447.849 482.889,446.762C482.889,445.308 481.672,444.112 480.198,444.112C478.723,444.112 477.517,445.308 477.517,446.762C477.517,447.889 478.194,448.854 479.154,449.268C479.82,449.557 480.577,449.557 481.243,449.268L481.243,449.269ZM415.34,443.152L415.334,443.134L414.524,444.947L413.542,447.141L413.54,447.145L415.031,447.202L416.771,447.269L416.777,447.269L416.421,446.248L415.34,443.152ZM418.305,447.824L418.313,447.829L419.463,448.571L421.017,449.576L421.018,449.571L421.925,445.287L421.819,445.361L418.305,447.824ZM423.506,453.738L426.494,450.481L426.496,450.479L422.093,450.831L423.505,453.738L423.506,453.738ZM423.791,455.342L423.601,457.495L423.502,458.601L427.74,457.311L427.731,457.307L423.791,455.342ZM423.097,459.706L423.095,459.71L421.334,462.45L425.644,463.295L424.402,461.545L423.097,459.706ZM419.753,463.743L418.253,464.394L416.789,465.03L417.3,465.54L419.907,468.138L419.933,468.164L419.758,463.741L419.753,463.743ZM547.19,447.14L545.686,443.78L545.396,443.13L545.396,443.132L545.216,443.648L543.952,447.275L547.19,447.141L547.19,447.14ZM538.817,445.293L538.813,445.291L539.71,449.581L539.723,449.572L540.812,448.865L542.412,447.827L540.409,446.415L538.817,445.293ZM537.233,453.738L537.241,453.721L538.449,451.251L538.656,450.829L534.232,450.479L537.233,453.738ZM536.96,455.341L532.995,457.308L532.991,457.311L537.228,458.6L536.96,455.341ZM535.073,463.297L539.403,462.452L537.64,459.709L535.073,463.297ZM543.935,465.029L543.266,464.737L540.976,463.739L540.976,463.743L540.821,468.159L540.821,468.163L542.05,466.926L543.935,465.029ZM483.81,407.88L483.81,407.872C483.81,405.977 482.252,404.417 480.357,404.415L480.355,404.415C478.469,404.416 476.912,405.963 476.912,407.88C476.912,409.736 478.469,411.272 480.355,411.273L480.357,411.273C482.264,411.273 483.811,409.737 483.811,407.88L483.81,407.88ZM480.357,410.83C479.567,410.83 478.847,410.497 478.317,409.976C477.748,409.427 477.424,408.671 477.418,407.88C477.418,406.24 478.748,404.9 480.357,404.9C482.007,404.9 483.327,406.24 483.327,407.88C483.327,408.745 482.921,409.514 482.305,410.059C481.783,410.521 481.114,410.829 480.357,410.829L480.357,410.83ZM497.307,417.435C497.707,417.43 498.103,417.351 498.474,417.201C498.525,417.181 498.571,417.158 498.621,417.135C499.326,416.811 499.894,416.247 500.221,415.543C500.41,415.138 500.513,414.698 500.523,414.251C500.523,414.227 500.535,414.208 500.535,414.185C500.533,413.065 499.952,412.021 499,411.43C498.695,411.045 498.314,410.728 497.88,410.498C497.388,410.231 496.838,410.091 496.278,410.09C495.8,410.09 495.347,410.185 494.935,410.357C493.663,410.886 492.831,412.136 492.834,413.513C492.834,414.72 493.449,415.793 494.392,416.403C494.706,416.605 495.057,416.756 495.432,416.843C495.553,416.933 495.695,416.978 495.826,417.048C496.266,417.284 496.743,417.442 497.268,417.442C497.282,417.442 497.294,417.434 497.308,417.434L497.307,417.435ZM493.328,413.516L493.328,413.514C493.328,411.895 494.638,410.565 496.278,410.565C497.885,410.565 499.195,411.895 499.195,413.515L499.195,413.516C499.194,415.134 497.885,416.463 496.277,416.463L496.276,416.463C494.659,416.463 493.329,415.133 493.328,413.516ZM465.693,411.431C465.644,411.368 465.58,411.32 465.528,411.261C464.882,410.519 463.945,410.092 462.961,410.091C462.403,410.091 461.883,410.235 461.415,410.47C460.29,411.033 459.506,412.174 459.506,413.514C459.506,414.801 460.24,415.909 461.294,416.491C461.557,416.637 461.827,416.775 462.126,416.845L462.133,416.849C462.667,417.237 463.293,417.443 463.961,417.443C463.975,417.443 463.987,417.435 464.002,417.435C464.417,417.43 464.812,417.345 465.177,417.2C465.22,417.182 465.259,417.163 465.302,417.144C466.437,416.629 467.181,415.507 467.214,414.261C467.214,414.234 467.23,414.212 467.23,414.185C467.227,413.064 466.645,412.022 465.693,411.431ZM465.909,413.516C465.901,415.13 464.575,416.456 462.961,416.463C461.346,416.457 460.019,415.131 460.011,413.516L460.011,413.514C460.011,411.895 461.341,410.565 462.961,410.565C464.577,410.572 465.904,411.899 465.91,413.515L465.91,413.516L465.909,413.516Z" style="fill-rule:nonzero;"/>
        <path d="M480.351,405.251C478.918,405.251 477.753,406.426 477.753,407.88C477.756,409.295 478.921,410.458 480.336,410.458L480.351,410.458C481.805,410.458 482.971,409.314 482.971,407.88L482.971,407.869C482.971,406.433 481.789,405.251 480.353,405.251L480.351,405.251ZM496.277,410.92C494.833,410.92 493.637,412.064 493.637,413.518C493.637,414.972 494.833,416.137 496.277,416.137C497.709,416.134 498.886,414.955 498.886,413.523L498.886,413.515C498.886,412.091 497.714,410.919 496.29,410.919L496.277,410.919L496.277,410.92ZM462.961,410.92L462.942,410.92C461.521,410.92 460.352,412.089 460.352,413.51L460.352,413.53C460.352,414.96 461.529,416.137 462.959,416.137L462.964,416.137C464.399,416.137 465.58,414.956 465.58,413.521L465.58,413.517C465.579,412.092 464.406,410.919 462.981,410.919L462.961,410.919L462.961,410.92Z" style="fill-rule:nonzero;"/>
    </g>
    <g>
        <path d="M470.284,445.524L470.284,408.964L468.442,408.136L451.87,400.699L468.943,442.263L470.283,445.524L470.284,445.524ZM467.214,414.261C467.194,415.128 466.826,415.952 466.194,416.546C465.932,416.791 465.632,416.994 465.302,417.144C464.893,417.33 464.451,417.428 464.002,417.434C463.987,417.434 463.975,417.443 463.961,417.443C463.304,417.445 462.663,417.237 462.133,416.849C461.832,416.778 461.559,416.639 461.293,416.491C460.24,415.91 459.506,414.801 459.506,413.515C459.506,412.175 460.29,411.033 461.415,410.47C461.883,410.233 462.405,410.087 462.964,410.087C463.948,410.086 464.885,410.515 465.527,411.26C465.58,411.32 465.644,411.368 465.693,411.431C466.645,412.022 467.226,413.065 467.229,414.185C467.229,414.212 467.215,414.235 467.214,414.261ZM508.865,400.701L496.766,406.128L490.452,408.963L490.452,445.509L496.586,430.594L508.865,400.701ZM495.435,416.851C495.063,416.764 494.71,416.612 494.391,416.403C493.416,415.768 492.828,414.678 492.833,413.514C492.833,412.09 493.693,410.875 494.933,410.358C495.346,410.184 495.801,410.088 496.281,410.088C496.84,410.089 497.39,410.23 497.88,410.498C498.31,410.728 498.692,411.042 499,411.431C499.951,412.022 500.533,413.065 500.535,414.185C500.535,414.208 500.522,414.228 500.522,414.251C500.505,415.045 500.195,415.805 499.652,416.385C499.361,416.7 499.01,416.955 498.62,417.135C498.57,417.158 498.525,417.181 498.474,417.201C498.103,417.351 497.707,417.43 497.307,417.435C497.293,417.435 497.281,417.443 497.267,417.443C496.742,417.443 496.264,417.285 495.825,417.049C495.695,416.981 495.552,416.937 495.435,416.851ZM488.603,408.19L480.366,397.45L472.14,408.19L480.366,417.94L488.603,408.19ZM480.357,411.273L480.354,411.273C478.457,411.273 476.911,409.737 476.911,407.88C476.906,405.985 478.459,404.422 480.354,404.415L480.356,404.415C482.252,404.416 483.811,405.976 483.811,407.872L483.811,407.88C483.811,409.737 482.264,411.273 480.357,411.273Z" style="fill:rgb(162,170,173);fill-rule:nonzero;"/>
        <path d="M541.06,434.12L530.397,448.382C530.453,450.087 530.448,451.662 530.403,453.129C530.083,463.952 527.36,468.453 527.36,468.453L527.359,468.453L527.356,468.458C527.356,468.458 523.834,467.037 518.947,465.595L518.909,465.584L518.879,465.575C516.464,464.862 514.02,464.25 511.553,463.741L508.635,449.305C508.021,449.294 507.412,449.192 506.828,449C506.253,448.815 505.705,448.556 505.198,448.228C504.691,447.9 505.173,448.176 505.133,448.163L505.13,448.161L497.808,461.545L497.807,461.545L497.804,461.549C497.804,461.549 495.631,461.342 492.867,461.127C489.92,460.901 486.303,460.668 483.909,460.668L483.911,460.663L483.905,460.663L488.05,447.825L487.431,446.227L480.366,428.029L475.48,440.589L472.68,447.831L476.815,460.668C474.634,460.668 471.419,460.864 468.627,461.07C465.519,461.303 462.942,461.55 462.942,461.55L462.938,461.543L462.916,461.545L458.363,453.216L456.141,449.172C455.717,449.262 455.285,449.307 454.852,449.305C454.185,449.305 453.57,449.168 452.975,448.983C452.718,448.904 452.455,448.839 452.208,448.733L451.242,453.485L449.171,463.741C446.338,464.317 443.611,465.046 441.234,465.758C436.628,467.142 433.36,468.458 433.36,468.458C433.36,468.458 431.87,465.956 430.972,460.254C430.49,457.232 430.168,453.325 430.322,448.378L408.016,418.567L413.17,448.356C413.315,448.326 413.463,448.304 413.61,448.279C413.985,448.203 414.366,448.162 414.748,448.155C416.838,448.155 418.732,449.073 420.101,450.547C421.517,452.08 422.3,454.096 422.29,456.183C422.289,457.557 421.944,458.909 421.288,460.116C420.163,462.203 418.187,463.716 415.862,464.106L417.028,470.882L420.31,489.869C422.911,488.883 425.542,487.974 428.198,487.146C439.133,483.708 458.084,479.022 480.352,479.022C492.807,479.022 504.21,480.493 513.775,482.387C519.807,483.575 525.773,485.073 531.651,486.875C535.576,488.085 538.581,489.165 540.421,489.868L541.861,481.515L544.857,464.105C544.412,464.029 543.975,463.912 543.552,463.755C542.376,463.324 541.344,462.58 540.512,461.637C539.176,460.137 538.438,458.196 538.44,456.187C538.44,451.754 541.832,448.155 545.998,448.155C546.367,448.155 546.732,448.206 547.094,448.27C547.259,448.298 547.425,448.324 547.587,448.356L552.687,418.581L541.06,434.119L541.06,434.12ZM419.908,468.164L417.3,465.54L416.789,465.03L418.252,464.395L419.753,463.741L419.753,463.743L419.758,463.741L419.933,468.164L419.907,468.138L419.907,468.164L419.908,468.164ZM416.773,447.274L415.031,447.202L413.54,447.145L413.542,447.141L413.525,447.14L414.523,444.947L415.333,443.134L415.34,443.152L415.35,443.129L416.42,446.248L416.777,447.268L416.771,447.268L416.773,447.274ZM421.021,449.574L421.018,449.571L421.018,449.576L419.462,448.571L418.309,447.831L418.313,447.829L418.305,447.824L421.819,445.361L421.929,445.284L421.021,449.574ZM422.093,450.831L426.496,450.479L426.494,450.481L426.496,450.481L423.506,453.74L423.506,453.738L422.093,450.831ZM421.33,462.452L423.094,459.709L423.094,459.71L423.097,459.706L424.402,461.544L425.651,463.297L421.331,462.452L421.33,462.452ZM423.502,458.601L423.601,457.495L423.785,455.337L427.734,457.307L427.731,457.307L427.741,457.312L423.502,458.6L423.502,458.601ZM436.31,474.381C436.31,472.874 437.526,471.71 439.001,471.71L439.012,471.712L439.014,471.712C439.122,471.712 439.214,471.76 439.318,471.772C440.646,471.93 441.692,472.988 441.692,474.38C441.692,475.405 441.082,476.298 440.218,476.756C439.851,476.954 439.453,477.094 439.014,477.094C439.01,477.094 439.007,477.091 439.003,477.091L439,477.091C437.525,477.091 436.309,475.844 436.309,474.381L436.31,474.381ZM440.282,478.053C440.07,478.053 439.863,478.018 439.661,477.969C439.414,477.915 439.175,477.83 438.949,477.717L438.955,477.717L438.942,477.712L439.014,477.712C440.089,477.712 441.043,477.177 441.649,476.367C442.065,475.809 442.321,475.127 442.321,474.387C442.321,474.047 442.249,473.728 442.157,473.422C442.139,473.364 442.139,473.299 442.118,473.242C441.999,472.909 441.823,472.599 441.599,472.325L441.609,472.332L441.602,472.319C442.602,472.835 443.293,473.846 443.293,475.031C443.293,476.681 441.953,478.053 440.283,478.053L440.282,478.053ZM462.002,469.796C462.011,468.331 463.217,467.129 464.682,467.126C466.157,467.126 467.363,468.343 467.363,469.796L467.363,469.817C467.363,471.282 466.158,472.487 464.693,472.487L464.667,472.487C463.205,472.487 462.002,471.284 462.002,469.822L462.002,469.796ZM465.988,473.485C465.829,473.485 465.687,473.448 465.539,473.421C465.356,473.39 465.177,473.342 465.003,473.277C464.88,473.231 464.753,473.191 464.637,473.134L464.639,473.134L464.631,473.131L464.691,473.131C466.513,473.131 468.013,471.631 468.013,469.809L468.013,469.801C468.013,469.197 467.808,468.665 467.521,468.174C467.437,468.034 467.38,467.882 467.277,467.752C467.283,467.754 467.287,467.759 467.293,467.762C467.293,467.762 467.293,467.76 467.291,467.759C467.376,467.802 467.444,467.869 467.525,467.919C468.395,468.461 468.968,469.382 468.968,470.443C468.968,472.113 467.628,473.485 465.988,473.485ZM477.506,446.759C477.506,445.304 478.712,444.109 480.196,444.109C481.692,444.109 482.898,445.304 482.898,446.759C482.902,448.246 481.685,449.474 480.198,449.484C479.839,449.484 479.484,449.411 479.154,449.268C478.153,448.838 477.502,447.847 477.506,446.758L477.506,446.759ZM482.828,450.069C482.765,450.1 482.72,450.156 482.655,450.184C482.279,450.344 481.875,450.426 481.466,450.426C481.044,450.426 480.636,450.321 480.261,450.141C480.24,450.141 480.219,450.148 480.198,450.148L480.146,450.097C480.182,450.117 480.224,450.123 480.261,450.141C482.067,450.106 483.528,448.62 483.528,446.756C483.528,446.078 483.28,445.458 482.911,444.946C482.87,444.891 482.851,444.82 482.805,444.768C482.807,444.768 482.808,444.77 482.81,444.771L482.806,444.765C483.84,445.245 484.505,446.285 484.508,447.425C484.508,448.585 483.811,449.57 482.828,450.068L482.828,450.069ZM491.708,470.855C491.568,470.518 491.497,470.157 491.498,469.793C491.498,469.066 491.794,468.401 492.277,467.918C492.776,467.411 493.459,467.126 494.17,467.126C494.677,467.126 495.127,467.308 495.535,467.556C496.317,468.026 496.87,468.837 496.87,469.793C496.876,470.878 496.22,471.864 495.216,472.278C494.893,472.413 494.54,472.488 494.17,472.488C493.095,472.496 492.118,471.848 491.707,470.855L491.708,470.855ZM496.529,473.263C496.186,473.405 495.818,473.48 495.447,473.485C495.301,473.485 495.157,473.448 495.013,473.421C494.844,473.392 494.679,473.348 494.518,473.29C494.382,473.24 494.242,473.195 494.117,473.134L494.126,473.134C494.123,473.134 494.12,473.132 494.118,473.131L494.189,473.131C496.01,473.131 497.509,471.632 497.509,469.811L497.509,469.794C497.507,469.241 497.324,468.751 497.076,468.292C496.976,468.11 496.898,467.919 496.766,467.752C496.771,467.754 496.774,467.758 496.778,467.76C497.768,468.254 498.479,469.285 498.479,470.44C498.477,471.691 497.698,472.818 496.529,473.263ZM517.223,474.38C517.223,472.874 518.44,471.71 519.925,471.71L519.935,471.712L519.947,471.712C521.4,471.712 522.596,472.908 522.596,474.361L522.596,474.382C522.596,475.835 521.4,477.094 519.936,477.094C519.932,477.094 519.929,477.091 519.926,477.091L519.925,477.091C518.439,477.091 517.223,475.844 517.223,474.381L517.223,474.38ZM523.711,476.59C523.184,477.445 522.287,478.053 521.204,478.053C520.931,478.053 520.675,478.006 520.433,477.934C520.239,477.882 520.051,477.81 519.873,477.717L519.887,477.717L519.874,477.712L519.936,477.712C521.761,477.712 523.236,476.207 523.236,474.382C523.236,473.826 523.066,473.335 522.835,472.885C522.733,472.694 522.651,472.488 522.512,472.325C522.521,472.329 522.527,472.337 522.536,472.341C522.531,472.335 522.529,472.326 522.524,472.319C523.024,472.578 523.444,472.959 523.74,473.426C524.04,473.89 524.214,474.437 524.214,475.026C524.214,475.61 524.001,476.126 523.711,476.59ZM540.971,463.74L540.976,463.743L540.976,463.739L543.266,464.737L543.94,465.03L542.05,466.926L540.82,468.163L540.821,468.159L540.816,468.164L540.97,463.741L540.971,463.74ZM532.989,457.307L536.959,455.337L536.959,455.342L536.96,455.342L537.228,458.6L532.991,457.311L532.996,457.308L532.989,457.307ZM539.403,462.452L535.073,463.297L537.64,459.709L539.403,462.452ZM538.449,451.252L537.259,453.739L537.241,453.721L537.233,453.737L534.233,450.479L538.656,450.829L538.449,451.252ZM540.812,448.865L539.722,449.573L539.71,449.58L538.813,445.29L538.817,445.293L538.815,445.284L540.409,446.415L542.412,447.827L540.812,448.865ZM547.19,447.141L543.952,447.275L545.215,443.648L545.394,443.128L545.395,443.132L545.396,443.13L545.686,443.78L547.198,447.14L547.19,447.14L547.19,447.141Z" style="fill:rgb(162,170,173);fill-rule:nonzero;"/>
    </g>
</svg>
