<?xml version="1.0" encoding="UTF-8" standalone="no"?>
<!DOCTYPE svg PUBLIC "-//W3C//DTD SVG 1.1//EN" "http://www.w3.org/Graphics/SVG/1.1/DTD/svg11.dtd">
<svg width="100%" height="100%" viewBox="0 0 960 640" version="1.1" xmlns="http://www.w3.org/2000/svg" xmlns:xlink="http://www.w3.org/1999/xlink" xml:space="preserve" xmlns:serif="http://www.serif.com/" style="fill-rule:evenodd;clip-rule:evenodd;stroke-linejoin:round;stroke-miterlimit:2;">
    <g>
        <path d="M537.076,509.24L557.166,531.136L642.598,511.34L598.363,455.545L537.076,509.24ZM505.869,417.446L505.869,481.044L562.256,433.984L505.869,417.446ZM214.306,485.07L233.266,511.865L312.244,506.269L349.69,483.322L309.842,416.36L214.306,485.07ZM675.764,437.83L684.382,416.766L673.358,414.968L675.764,437.83ZM719.667,413.663L708.668,417.881L723.204,444.408L719.667,413.663ZM367.843,132.386L371.995,125.416L350.78,111.944L367.843,132.386ZM395.785,98.049L407.505,96.076L393.085,69.639L395.785,98.049Z" style="fill:rgb(21,71,52);fill-rule:nonzero;"/>
    </g>
    <g>
        <path d="M656.831,548.325L646.025,518.287L562.475,537.284L597.513,575.224L597.513,606.133L722.71,606.133L722.71,583.363L656.831,548.325ZM632.244,429.142L663.5,401.226L661.592,381.716L633.219,357.11L630.272,317.31L590.438,358.873L595.452,408.97L632.244,429.142ZM539.09,387.136L535.692,361.253L521.811,393.467L505.869,364.42L505.869,409.487L540.872,420.018L576.466,370.996L539.09,387.136ZM470.242,510.703L411.202,457.557L361.132,486.534L424.128,526.634L415.42,541.918L441.48,581.813L450.492,573.773L435.375,539.743L470.242,510.703Z" style="fill:rgb(169,67,30);fill-rule:nonzero;"/>
        <path d="M486.03,525.171L450.238,553.838L457.536,570.65L475.522,572.517L502.129,550.641L498.631,534.705L486.03,525.171ZM238.125,519.038L259.708,549.148L204.101,582.309L204.107,606.453L270.328,606.393L283.032,568.906L342.889,568.906L313.677,513.569L238.125,519.038ZM459.934,219.846L509.705,224.653L478.071,200.99L488.114,190.751L484.06,122.566L438.017,177.235L416.993,176.495L394.382,198.145L399.292,215.334L359.175,307.729L363.437,332.401L382.927,310.861L400.981,290.907L400.983,290.904L414.793,275.641L426.422,262.788L464.699,271.498L444.061,242.288L491.607,245.926L459.934,219.846ZM423.607,243.239C414.288,243.239 406.727,235.685 406.727,226.36C406.727,217.036 414.288,209.48 423.607,209.48C432.933,209.48 440.49,217.036 440.49,226.36C440.49,235.685 432.933,243.239 423.607,243.239Z" style="fill:rgb(169,67,30);fill-rule:nonzero;"/>
    </g>
    <g>
        <path d="M261.29,517.361L252.61,517.989L252.611,517.989L271.285,544.671L280.16,543.806L261.305,517.385L261.29,517.361ZM278.86,516.09L270.125,516.722L270.137,516.738L288.777,543.371L297.649,542.518L278.864,516.098L278.86,516.09ZM296.615,514.806L296.585,514.808L287.883,515.436L287.883,515.438L306.524,542.071L315.396,541.217L296.615,514.806ZM478.14,148.933L453.548,177.71L479.74,178.166L478.14,148.933ZM589.285,531.19L580.857,533.104L580.812,533.116L603.056,557.021L611.724,554.951L589.301,531.209L589.285,531.19ZM606.15,527.355L597.675,529.283L597.685,529.295L619.903,553.17L628.573,551.101L606.175,527.384L606.15,527.355ZM623.166,523.486L623.16,523.488L614.688,525.414L614.689,525.416L636.914,549.301L645.584,547.231L623.166,523.486Z" style="fill:rgb(95,37,159);fill-rule:nonzero;"/>
    </g>
    <g>
        <path d="M497.712,416.315L405.52,416.315L418.264,453.819L476.148,505.935L497.712,488.022L497.712,416.315ZM334.088,600.046L334.092,600.032L317.962,584.865L341.939,576.343L288.407,576.349L272.674,623.665L326.264,623.665L310.303,608.54L334.088,600.046ZM420.512,563.534L405.454,576.335L378.873,576.338L363.577,623.665L392.887,623.665L435.981,586.882L420.512,563.534Z" style="fill:rgb(221,203,164);fill-rule:nonzero;"/>
    </g>
    <g>
        <path d="M717.625,395.891L694.863,372.201L671.005,392.616L673.358,414.968L684.382,416.766L690.012,403.001L690.335,380.626L702.545,406.708L708.668,417.881L719.667,413.663L717.625,395.891ZM423.582,235.593C428.65,235.593 432.759,231.488 432.759,226.422C432.759,221.355 428.649,217.248 423.582,217.248C418.55,217.249 414.409,221.39 414.409,226.422C414.409,231.488 418.517,235.593 423.582,235.593ZM414.64,107.925L407.505,96.076L395.785,98.049L412.062,159.292L414.639,107.925L414.64,107.925ZM461.5,459.351L461.5,466.301L497.72,466.301L497.724,459.351L461.5,459.351ZM461.5,473.093L461.5,480.04L497.713,480.04L497.716,473.093L461.5,473.093ZM403.224,408.897L497.714,408.9L497.714,253.81L459.224,250.988L482.127,283.378L429.117,271.148L364.435,342.242L321.48,321.397L322.462,311.89L275.03,343.799L282.656,356.165L287.279,364.183L310.885,403.777L314.805,410.355L356.598,480.455L409.285,449.996L395.443,410.355L393.146,403.777L382.318,372.769L379.633,365.081L388.187,365.866L403.224,408.897ZM437.947,311.264C460.819,311.264 479.36,329.805 479.36,352.676C479.36,375.547 460.82,394.09 437.947,394.09C415.076,394.09 396.535,375.547 396.535,352.676C396.535,329.805 415.075,311.264 437.947,311.264ZM585.454,293.145L578.066,289.969L544.798,275.66L537.404,272.481L505.869,258.916L505.869,343.442L522.414,346.305L529.619,347.551L557.693,352.408L564.91,353.656L582.42,356.687L626.142,310.647L585.454,293.145ZM334.103,600.001L334.088,600.046L326.264,623.665L356.882,623.665L372.167,576.34L341.94,576.343L334.103,600.001Z" style="fill:rgb(111,38,61);fill-rule:nonzero;"/>
    </g>
    <g>
        <path d="M420.884,437.185L436.249,416.315L405.521,416.315L420.884,437.185Z" style="fill:rgb(95,37,159);fill-rule:nonzero;"/>
        <path d="M451.614,437.185L466.979,416.315L436.249,416.315L451.614,437.185ZM482.347,437.185L497.713,416.315L466.983,416.315L482.347,437.185ZM393.146,403.777L382.319,372.769L379.633,365.08L282.656,356.165L287.279,364.182L310.885,403.777L314.805,410.355L395.443,410.355L393.146,403.777ZM578.066,289.969L544.798,275.66L537.404,272.481L522.414,346.305L529.619,347.551L557.693,352.408L564.91,353.656L585.454,293.146L578.066,289.969ZM363.437,332.4L382.927,310.86L359.174,307.729L363.437,332.4Z" style="fill:rgb(95,37,159);fill-rule:nonzero;"/>
        <path d="M382.927,310.86L400.981,290.907L379.144,289.024L382.927,310.86ZM426.422,262.788L410.346,260.446L414.792,275.641L426.422,262.788ZM396.648,273.18L400.982,290.904L414.792,275.641L396.648,273.18ZM472.716,347.755C470.929,331.371 457.824,318.337 441.399,316.677C426.069,317.037 417.625,325.869 417.625,341.678C417.625,358.908 431.645,372.926 448.877,372.926C465.301,372.926 472.656,365.155 472.716,347.755ZM334.092,600.032L334.102,600.001L341.94,576.343L317.963,584.865L334.092,600.032ZM326.264,623.665L334.088,600.045L310.303,608.54L326.264,623.665ZM356.882,623.665L363.577,623.665L378.873,576.338L372.167,576.34L356.882,623.665Z" style="fill:rgb(95,37,159);fill-rule:nonzero;"/>
    </g>
    <g>
        <path d="M393.146,403.777L382.319,372.769L287.279,364.182L310.885,403.777L393.146,403.777ZM578.066,289.969L544.798,275.66L529.619,347.551L557.693,352.408L578.066,289.969ZM689.908,366.268L674.139,348.936L654.045,365.252L672.855,381.062L689.908,366.268ZM726.207,613.649L598.039,613.673L602.574,624.417L731.344,624.417L726.207,613.649ZM594.04,416.729L482.455,510.499L444.637,541.723L446.951,546.888L485.929,515.584L503.199,528.912L617.01,429.37L594.04,416.729ZM198.455,623.665L264.859,623.665L267.737,614.051L201.927,614.051L198.455,623.665ZM408.504,174.298L390.937,108.351L345.153,185.201L329.544,316.618L351.081,304.766L390.507,214.862L384.82,195.922L408.504,174.298ZM338.745,304.052L338.74,304.052C336.908,304.052 335.4,302.544 335.4,300.712L335.4,300.708C335.431,298.895 336.932,297.42 338.746,297.42C340.559,297.42 342.06,298.895 342.091,300.708C342.091,302.556 340.591,304.052 338.745,304.052ZM340.32,293.016C338.484,293.016 336.973,291.505 336.973,289.669C336.973,287.833 338.484,286.322 340.32,286.322C342.156,286.322 343.667,287.833 343.667,289.669C343.667,291.505 342.156,293.016 340.32,293.016ZM341.898,281.972C341.879,281.972 341.859,281.973 341.84,281.973C340.005,281.973 338.495,280.463 338.495,278.628C338.495,276.792 340.005,275.283 341.84,275.283L341.898,275.283C343.733,275.283 345.243,276.793 345.243,278.628C345.243,280.463 343.733,281.973 341.898,281.973L341.898,281.972ZM348.128,299.19L348.127,299.19C346.29,299.19 344.779,297.679 344.779,295.842C344.779,293.996 346.279,292.499 348.128,292.499C348.155,292.498 348.183,292.498 348.21,292.498C350.045,292.498 351.556,294.008 351.556,295.844C351.556,297.68 350.045,299.19 348.21,299.19C348.183,299.19 348.155,299.19 348.128,299.189L348.128,299.19ZM349.704,288.151C347.868,288.149 346.358,286.639 346.357,284.803L346.357,284.745C346.357,282.91 347.867,281.399 349.703,281.399C351.538,281.399 353.049,282.91 353.049,284.745C353.049,284.764 353.048,284.784 353.048,284.803L353.048,284.805C353.048,286.64 351.539,288.15 349.704,288.151ZM351.281,277.111C349.445,277.111 347.934,275.6 347.934,273.764C347.934,271.928 349.445,270.417 351.281,270.417C353.117,270.417 354.628,271.928 354.628,273.764C354.628,275.6 353.117,277.111 351.281,277.111ZM375.859,215.724L352.783,208.203L356.082,199.488L379.502,207.321L375.859,215.724ZM373.98,174.004L360.364,174L384.371,133.493L373.981,174.005L373.98,174.004ZM411.025,341.678C411.025,335.52 412.16,330.136 414.31,325.636C407.235,332.059 402.759,341.296 402.759,351.582C402.759,370.928 418.498,386.668 437.844,386.668C446.792,386.668 454.942,383.274 461.147,377.742C457.56,378.909 453.481,379.527 448.877,379.527C428.006,379.527 411.025,362.549 411.025,341.678Z" style="fill:rgb(221,203,164);fill-rule:nonzero;"/>
    </g>
</svg>
