<?xml version="1.0" encoding="UTF-8" standalone="no"?>
<!DOCTYPE svg PUBLIC "-//W3C//DTD SVG 1.1//EN" "http://www.w3.org/Graphics/SVG/1.1/DTD/svg11.dtd">
<svg width="100%" height="100%" viewBox="0 0 960 640" version="1.1" xmlns="http://www.w3.org/2000/svg" xmlns:xlink="http://www.w3.org/1999/xlink" xml:space="preserve" xmlns:serif="http://www.serif.com/" style="fill-rule:evenodd;clip-rule:evenodd;stroke-linejoin:round;stroke-miterlimit:2;">
    <g transform="matrix(1.01592,0,0,1.01592,-7.64025,-5.09308)">
        <path d="M751.996,319.984C751.996,169.75 630.22,47.974 479.986,47.974C329.751,47.974 208.006,169.779 208.006,319.984C208.006,470.189 329.781,591.994 480.015,591.994C630.25,591.994 752.025,470.219 752.025,319.984" style="fill:white;fill-rule:nonzero;"/>
    </g>
    <g transform="matrix(1.00208,0,0,1.00208,-0.998006,-0.665449)">
        <path d="M750.989,343.203C751.653,335.491 751.989,327.755 751.996,320.015C751.996,312.227 751.64,304.468 750.989,296.827L632.501,296.827L632.501,200.313L687.999,144.815C678.014,132.965 667.037,121.988 655.186,112.003L599.688,167.5L568.001,135.813L503.174,135.813L503.174,49.043C495.462,48.378 487.726,48.042 479.986,48.035C472.168,48.035 464.439,48.391 456.798,49.042L456.798,135.872L328.685,135.931L304.787,112.032C292.936,122.017 281.959,132.994 271.974,144.845L350.126,222.998L350.126,296.857L208.983,296.857C208.319,304.569 207.983,312.305 207.977,320.045C207.977,327.863 208.332,335.592 208.983,343.233L350.097,343.233L350.097,417.092L334.283,432.906L271.944,495.244C281.929,507.095 292.906,518.072 304.757,528.057L328.656,504.158L456.768,504.158L456.768,591.047C464.48,591.711 472.217,592.047 479.957,592.054C487.745,592.054 495.504,591.699 503.145,591.047L503.145,504.158L568.089,504.158L599.688,472.56L655.186,528.057C667.037,518.072 678.014,507.095 687.999,495.244L632.501,439.747L632.501,343.233L750.989,343.233L750.989,343.203ZM348.734,484.08L348.734,446.825L370.175,425.384L370.175,214.647L348.734,193.206L348.734,155.921L559.709,155.832L612.452,208.576L612.452,288.476L580.942,319.986L612.452,351.495L612.452,431.395L559.797,484.05L348.734,484.05L348.734,484.08Z" style="fill-rule:nonzero;"/>
    </g>
    <g transform="matrix(1.00208,0,0,1.00208,-0.998006,-0.665449)">
        <path d="M612.511,351.525L580.971,319.985L612.481,288.476L612.481,208.576L559.738,155.832L348.764,155.921L348.764,193.206L370.205,214.647L370.205,425.384L348.764,446.825L348.764,484.08L559.856,484.08L612.511,431.425L612.511,351.525ZM550.261,408L530.449,427.812L429.078,427.812L429.078,348.149L530.479,348.09L550.231,367.843L550.231,408L550.261,408ZM550.261,272.01L530.449,291.822L429.078,291.822L429.078,212.159L530.479,212.1L550.231,231.853L550.231,272.01L550.261,272.01Z" style="fill:rgb(253,183,23);fill-rule:nonzero;"/>
    </g>
    <g transform="matrix(1.00208,0,0,1.00208,-0.998006,-0.665449)">
        <path d="M429.078,212.159L429.078,291.822L530.449,291.822L550.261,272.01L550.261,231.853L530.508,212.1L429.108,212.159L429.078,212.159ZM449.127,271.773L449.127,232.208L522.186,232.149L530.182,240.145L530.182,263.688L522.127,271.743L449.127,271.743L449.127,271.773ZM429.078,348.178L429.078,427.842L530.449,427.842L550.261,408.029L550.261,367.872L530.508,348.119L429.108,348.208L429.078,348.178ZM449.127,407.792L449.127,368.227L522.186,368.168L530.182,376.194L530.182,399.737L522.127,407.792L449.127,407.792Z" style="fill-rule:nonzero;"/>
    </g>
    <path d="M479.985,0C303.275,0 160,143.275 160,319.985C160,496.695 303.275,639.97 479.985,639.97C656.695,639.97 799.97,496.695 799.97,319.985C799.97,143.275 656.725,0 479.985,0ZM479.985,591.995C329.751,591.995 207.976,470.22 207.976,319.985C207.976,169.751 329.78,48.005 479.985,48.005C630.19,48.005 751.995,169.78 751.995,320.015C751.995,470.249 630.22,592.024 479.985,592.024" style="fill:rgb(253,183,23);fill-rule:nonzero;"/>
</svg>
