<?xml version="1.0" encoding="UTF-8" standalone="no"?>
<!DOCTYPE svg PUBLIC "-//W3C//DTD SVG 1.1//EN" "http://www.w3.org/Graphics/SVG/1.1/DTD/svg11.dtd">
<svg width="100%" height="100%" viewBox="0 0 960 640" version="1.1" xmlns="http://www.w3.org/2000/svg" xmlns:xlink="http://www.w3.org/1999/xlink" xml:space="preserve" xmlns:serif="http://www.serif.com/" style="fill-rule:evenodd;clip-rule:evenodd;stroke-linejoin:round;stroke-miterlimit:2;">
    <path d="M797.708,170.909C797.708,170.909 685.413,236.297 560.356,279.485L555.958,267.361L770.43,118.608L532.034,179.66L665.442,125.918C665.442,125.918 608.951,94.39 514.01,94.39C506.077,94.39 498.16,94.582 490.268,94.953L476.455,54.38L402.229,208.274L288.989,240.436L394.089,197.318L428.557,127.058L435.779,112.344L442.055,99.56C283.837,122.22 149.233,216.538 149.233,323.806C149.233,383.926 182.299,439.005 272.885,467.327L226.088,569.302L335.117,481.062C363.351,485.151 395.364,487.363 431.517,487.363C476.815,487.363 516.682,483.506 550.511,478.025L671.411,585.47L626.231,461.025C661.397,450.679 680.239,441.225 680.239,441.225L797.709,170.908L797.708,170.909Z" style="fill:rgb(4,30,66);fill-rule:nonzero;"/>
    <g>
        <path d="M342.907,314.784L352.255,294.406L297.512,279.346C297.512,279.346 281.938,307.176 342.907,314.784Z" style="fill-rule:nonzero;"/>
        <path d="M677.431,162.833L503.022,205.087L472.302,109.055L423.641,225.203L291.321,258.317L383.946,280.987L366.176,316.502C367.777,316.541 369.414,316.584 371.079,316.617C373.305,316.652 375.578,316.682 377.937,316.682C384.331,316.682 390.819,316.477 397.415,316.076C413.563,315.104 430.295,312.978 447.34,309.941C460.297,307.629 473.439,304.788 486.639,301.521C504.064,297.221 521.609,292.154 539.021,286.584L528.986,259.879L677.431,162.833ZM608.759,471.992C604.077,473.732 600.244,475.344 597.146,477.892C594.224,480.303 591.962,483.557 590.312,488.557C589.683,490.509 589.176,492.498 588.794,494.513L629.228,526.413L608.759,471.993L608.759,471.992ZM295.212,474.26C293.945,473.828 292.644,473.506 291.322,473.297C290.178,473.127 289.025,473.025 287.869,472.993L265.874,516.939L307.193,486.153C304.571,481.353 301.522,476.508 295.212,474.26Z" style="fill:rgb(162,170,173);fill-rule:nonzero;"/>
    </g>
    <g>
        <path d="M497.951,411.862C446.766,402.184 416.144,392.282 416.144,392.282C416.144,392.282 439.773,383.129 474.696,367.105C505.869,352.797 546.05,333.019 586.416,309.389C618.883,290.401 651.476,268.938 679.617,245.823C679.617,245.823 515.81,335.194 379.755,335.194C288.361,335.194 246.063,292.804 246.063,264.37C246.063,179.654 395.181,135.818 428.557,127.058L435.779,112.344C292.503,140.547 239.223,196.834 239.223,196.834C239.223,196.834 191.331,225.801 173.198,279.558C168.958,292.111 166.348,306.008 166.348,321.208C166.348,385.981 208.798,470.688 426.446,470.688C580.806,470.688 662.976,429.742 662.976,429.742C637.841,429.003 612.74,427.362 587.722,424.824C553.585,421.372 523.249,416.644 497.952,411.862L497.951,411.862ZM626.351,124.791C626.351,124.791 581.475,102.946 493.968,105.828L497.998,117.66C507.673,116.543 560.366,111.533 626.351,124.791Z" style="fill:rgb(200,16,46);fill-rule:nonzero;"/>
    </g>
    <g>
        <path d="M352.244,382.93C406.168,382.93 451.279,373.293 474.696,367.106C505.869,352.797 546.05,333.019 586.416,309.389C552.497,322.251 445.149,360.516 369.108,360.516C253.756,360.516 217.714,293.697 217.714,255.989C217.714,222.275 239.224,196.835 239.224,196.835C239.224,196.835 199.477,224.6 199.477,270.85C199.477,346.936 275.49,382.93 352.244,382.93Z" style="fill:white;fill-rule:nonzero;"/>
        <path d="M396.612,418.544C182.259,418.544 172.732,304.36 173.198,279.558C168.958,292.111 166.347,306.008 166.347,321.208C166.347,321.208 168.576,447.547 413.47,447.547C493.2,447.547 564.973,430.735 587.722,424.825C553.585,421.372 523.249,416.645 497.952,411.862C480.952,414.537 447.132,418.544 396.612,418.544ZM666.346,326.951C659.371,312.323 639.04,309.787 620.902,321.24C602.774,332.74 593.682,353.869 600.642,368.497C607.571,383.137 627.883,385.668 646.035,374.198C664.193,362.688 673.225,341.572 666.346,326.951Z" style="fill:white;fill-rule:nonzero;"/>
        <path d="M484.894,381.46L484.754,376.324L480.235,381.974L473.165,382.895L477.565,385.269L473.165,390.997L480.687,387.06L485.895,390.787L484.959,384.66L491.954,380.677L484.894,381.46ZM539.297,355.685L539.134,350.438L534.444,356.274L527.073,357.207L531.597,359.714L527.057,365.637L534.924,361.543L540.278,365.444L539.383,359.05L546.61,354.904L539.297,355.685ZM578.856,359.917L578.707,355.095L574.447,360.395L567.776,361.261L571.908,363.555L567.776,368.935L574.856,365.213L579.765,368.729L578.945,362.959L585.477,359.183L578.856,359.917ZM524.264,389.577L524.264,384.807L519.903,390.034L513.223,390.694L517.3,393.082L513.005,398.422L520.2,394.854L525.03,398.492L524.324,392.649L530.969,389.009L524.264,389.577ZM563.426,395.094L563.383,390.271L559.001,395.534L552.303,396.205L556.383,398.582L552.162,403.897L559.307,400.294L564.132,403.951L563.437,398.149L570.084,394.466L563.426,395.094ZM595.753,321.648L595.545,315.543L590.175,322.305L581.657,323.368L586.903,326.283L581.657,333.085L590.677,328.365L596.914,332.875L595.813,325.497L604.2,320.691L595.753,321.648ZM649.109,289.977L644.246,298.849L654.409,292.122L663.535,296.812L660.227,288.054L669.569,281.262L659.082,283.375L657.228,276.032L652.168,284.842L641.67,287.092L649.109,289.977ZM734.109,246.188L721.542,247.614L720.47,238.321L713.22,248.613L700.61,250.277L708.922,254.665L701.934,265.127L714.859,257.907L724.815,264.737L722.231,253.553L734.109,246.188ZM667.58,399.742L667.534,392.353L660.784,400.393L650.467,401.48L656.785,405.095L650.18,413.297L661.194,407.797L668.668,413.363L667.591,404.427L677.853,398.815L667.58,399.742ZM687.266,351.093L687.091,344.334L681.024,351.841L671.563,353.086L677.475,356.274L671.541,363.881L681.625,358.659L688.592,363.656L687.388,355.443L696.658,350.071L687.266,351.093ZM704.229,303.245L704.016,295.856L697.45,304.035L687.172,305.356L693.554,308.829L687.172,317.136L698.092,311.427L705.628,316.879L704.368,307.957L714.445,302.117L704.229,303.245ZM612.914,394.362L607.866,400.432L600.146,401.197L604.822,403.935L599.917,410.065L608.199,405.935L613.813,410.117L612.974,403.442L620.615,399.25L612.947,399.9L612.914,394.362ZM472.302,125.4L447.34,238.802L496.282,207.046L472.302,125.4ZM649.065,177.584L447.34,238.802C447.34,238.802 521.459,254.979 523.713,255.292C525.996,255.623 649.065,177.584 649.065,177.584Z" style="fill:white;fill-rule:nonzero;"/>
        <path d="M486.639,301.522L447.34,238.802L447.34,309.942C460.297,307.629 473.439,304.788 486.639,301.522ZM371.079,316.617C373.305,316.652 375.578,316.682 377.936,316.682C384.331,316.682 390.819,316.477 397.416,316.076L447.34,238.802L388.735,281.941L371.079,316.617Z" style="fill:white;fill-rule:nonzero;"/>
        <path d="M426.17,227.195L317.44,256.552L447.34,238.802L426.17,227.195ZM590.312,488.557L617.122,509.776L597.147,477.892C594.224,480.303 591.962,483.557 590.312,488.557ZM274.576,506.212L295.212,474.26C293.945,473.828 292.644,473.506 291.322,473.297L274.576,506.211L274.576,506.212Z" style="fill:white;fill-rule:nonzero;"/>
    </g>
    <path d="M623.624,325.456C608.857,334.765 601.107,352.205 606.308,364.386C611.467,376.55 627.644,378.844 642.395,369.516C657.145,360.184 664.855,342.755 659.703,330.626C654.452,318.425 638.363,316.152 623.624,325.456Z" style="fill:rgb(200,16,46);fill-rule:nonzero;"/>
</svg>
