<?xml version="1.0" encoding="UTF-8" standalone="no"?>
<!DOCTYPE svg PUBLIC "-//W3C//DTD SVG 1.1//EN" "http://www.w3.org/Graphics/SVG/1.1/DTD/svg11.dtd">
<svg width="100%" height="100%" viewBox="0 0 960 640" version="1.1" xmlns="http://www.w3.org/2000/svg" xmlns:xlink="http://www.w3.org/1999/xlink" xml:space="preserve" xmlns:serif="http://www.serif.com/" style="fill-rule:evenodd;clip-rule:evenodd;stroke-linejoin:round;stroke-miterlimit:2;">
    <path d="M803.11,267.206C832.469,141.136 746.048,42.37 618.889,42.37C537.749,42.37 472.744,100.618 433.473,102.368C417.079,103.098 397.366,75.403 397.366,75.403C375.159,92.058 391.411,122.598 391.411,122.598C358.504,98.403 321.547,102.179 321.547,102.179C266.427,107.529 252.944,147.209 252.944,147.209C220.803,159.106 209.699,176.163 209.699,176.163C189.847,190.439 178.354,189.073 178.354,189.073C185.906,230.533 229.14,228.545 229.14,228.545C212.079,261.477 156.534,266.639 156.534,266.639C176.364,298.375 223.579,295.605 223.579,295.605C239.726,297.33 261.691,288.605 272.511,283.695C265.272,287.485 261.895,290.475 261.895,290.475C241.058,305.128 241.523,331.873 230.776,350.907C226.641,359.461 214.643,363.559 208.022,368.796C215.188,372.384 223.38,375.392 231.112,376.776C230.917,390.046 237.347,422.229 241.637,435.076C226.159,423.569 202.165,428.756 202.165,428.756C228.755,461.851 216.252,482.283 229.593,513.075C234.09,528.307 247.988,541.4 261.961,550.69C298.173,566.993 323.177,545.566 323.177,545.566C319.02,565.614 281.326,580.683 281.326,580.683C290.157,590.345 311.819,597.627 324.776,598.489C375.931,601.85 378.57,546.177 435.286,551.974C468.177,555.341 498.315,582.98 553.201,582.98C690.513,582.98 779.691,443.982 790.498,369.205L634.85,369.205C634.85,369.205 615.766,431.614 569.509,431.614C521.609,431.614 506.446,390.536 506.446,353.5C506.446,297.198 553.2,190.829 629.487,190.829C665.454,190.829 670.98,230.282 658.266,267.205L803.11,267.205L803.11,267.206ZM284.343,395.444C271.775,392.885 265.483,385.208 257.578,375.211L256.59,373.518C265.895,370.485 271.31,359.855 279.442,354.725C292.242,350.769 296.22,368.892 320.627,376.608C327.601,380.09 331.752,380.684 338.959,384.184C322.106,394.794 306.431,401.726 284.343,395.444Z" style="fill:rgb(241,190,72);fill-rule:nonzero;"/>
    <path d="M332.866,187.256C324.279,185.86 314.304,181.715 304.332,184.204C286.617,186.701 275.255,204.141 258.102,207.459C238.971,214.656 210.74,215.762 195.783,198.599C195.783,197.771 194.419,197.215 194.678,196.387C219.044,193.613 231.783,166.201 255.599,161.765C284.121,151.25 313.199,163.977 331.467,185.31C331.467,186.137 332.582,186.416 332.867,187.256L332.866,187.256ZM279.88,497.662C309.224,514.559 331.098,481.883 361,492.955L361,494.06C337.768,502.648 327.515,528.126 306.188,539.21C295.108,544.46 279.604,544.46 268.798,538.635C242.777,524.525 235.029,493.239 233.629,464.43C232.533,457.51 229.491,451.432 227.26,444.784C253.576,453.353 253.854,489.08 279.88,497.662Z" style="fill:rgb(200,16,46);fill-rule:nonzero;"/>
    <path d="M792.226,251.206C812.724,159.736 745.263,56.616 620.471,56.008C544.301,55.64 481.589,116.573 432.027,116.573C419.441,116.573 408.829,108.886 401.402,99.45C403.631,126.648 428.873,149.39 453.016,158.565C440.81,159.382 430.26,154.665 419.441,152.169C386.972,143.29 363.919,112.209 326.746,115.256C300.665,114.426 277.63,130.252 264.863,151.896C271.253,146.058 278.747,142.467 286.793,140.789C305.933,137.458 322.579,146.058 335.073,159.104C350.617,183.801 367.823,207.669 393.35,224.881C375.032,224.881 358.941,217.941 342.853,212.399C309.813,202.951 270.686,207.111 245.707,230.701C232.947,251.523 211.573,268.449 188,273.434L188,274.282L194.925,277.322C222.133,288.986 252.096,277.6 274.846,263.441C290.669,258.451 309.546,261.237 320.641,273.725C328.405,287.035 342.853,300.366 355.603,310.062C352.27,311.455 348.939,308.674 345.063,308.674C323.146,297.864 290.111,283.154 267.919,303.412C247.109,319.232 257.647,349.762 235.442,364.738C250.991,366.124 259.869,354.745 268.748,343.65C290.954,327.274 305.101,356.695 322.861,363.63C341.741,372.78 366.711,369.728 380.311,389.164C365.866,391.93 351.161,394.438 338.677,401.93C319.53,413.854 291.501,415.81 270.686,405.812C259.869,399.967 252.375,391.93 245.172,381.937C245.172,382.228 245.172,382.779 244.88,383.052C246.277,424.138 261.522,468.809 303.996,483.235C332.856,496.545 363.919,474.901 392.245,488.788C377.255,492.126 363.383,500.162 354.492,513.201C339.792,532.351 340.066,558.721 321.752,575.097C318.425,578.143 313.432,579.808 310.11,582.303C313.717,583.969 317.313,584.811 321.473,585.355C341.741,588.687 358.941,575.635 370.312,560.373C386.703,544.56 411.559,534.909 431.377,536.239C471.375,538.931 501.182,567.979 553.991,568.169C659.151,568.568 751.969,468.359 771.689,386.206L647.639,386.206C647.639,386.206 625.056,449.058 570.43,449.058C502.253,449.058 490.341,385.382 490.341,353.769C490.341,279.539 548.557,173.415 630.806,173.415C669.834,173.415 692.802,213.267 680.1,251.205L792.226,251.205L792.226,251.206Z" style="fill:rgb(200,16,46);fill-rule:nonzero;"/>
</svg>
