<?xml version="1.0" encoding="UTF-8" standalone="no"?>
<!DOCTYPE svg PUBLIC "-//W3C//DTD SVG 1.1//EN" "http://www.w3.org/Graphics/SVG/1.1/DTD/svg11.dtd">
<svg width="100%" height="100%" viewBox="0 0 960 640" version="1.1" xmlns="http://www.w3.org/2000/svg" xmlns:xlink="http://www.w3.org/1999/xlink" xml:space="preserve" xmlns:serif="http://www.serif.com/" style="fill-rule:evenodd;clip-rule:evenodd;stroke-linejoin:round;stroke-miterlimit:2;">
    <path d="M767.042,370.323C790.916,337.599 804.716,303.093 804.716,269.033C804.716,191.358 727.371,132.338 592.812,132.338C587.931,132.338 583.038,132.45 578.137,132.602C565.657,108.182 537.53,96.707 518.792,93.359L483.799,38.023L404.503,167.566C262.823,219.65 148.166,321.675 148.166,419.972C148.166,455.363 164.269,486.862 194.476,510.687L135.902,606.389C135.902,606.389 256.932,588.837 396.245,581.335L406.434,554.373C461.889,549.023 517.487,534.506 568.818,513.488C568.508,515.597 567.552,524.032 571.097,531.128L580.307,549.56C594.887,578.702 621.303,605.983 666.748,605.983C793.734,605.983 831.225,500.277 831.225,500.277C831.225,441.236 804.125,398.397 767.042,370.323Z" style="fill:rgb(35,97,146);fill-rule:nonzero;"/>
    <path d="M792.384,466.666C784.283,479.008 771.016,493.436 767.114,497.605L767.042,534.53L764.652,534.768L759.614,535.248L746.878,515.547C654.511,580.407 585.198,540.514 585.198,540.514L606.011,572.54C643.082,620.064 764.193,602.927 815.827,514.983L808.823,514.711C807.606,494.73 792.383,466.666 792.383,466.666L792.384,466.666Z" style="fill:rgb(1,1,1);fill-rule:nonzero;"/>
    <g>
        <path d="M656.452,329.392L544.106,151.762C540.24,150.932 536.096,150.541 531.718,150.541L644.515,328.885C648.433,328.935 652.421,329.089 656.453,329.392L656.452,329.392ZM314.397,352.398L484.065,75.204L495.021,92.537C499.491,92.988 503.741,93.577 507.751,94.29L483.93,56.622L312.858,336.115C312.878,339.483 313.13,345.437 314.397,352.398Z" style="fill:rgb(162,170,173);fill-rule:nonzero;"/>
        <path d="M502.812,464.097C438.369,464.097 395.246,496.359 336.547,496.359C254.833,496.359 229.782,438.697 229.782,398.796C229.782,275.842 374.733,201.718 374.733,201.718L377.586,197.057C377.101,197.271 375.852,197.866 373.991,198.776C349.914,210.65 219.824,280.251 219.824,398.796C219.824,417.776 224.189,434.899 231.861,449.601C233.583,452.888 235.48,456.08 237.544,459.164L155.166,593.722C155.166,593.722 256.804,579.229 389.307,571.875L420.027,490.589C446.902,482.678 473.127,474.743 506.974,474.743C578.653,474.743 624.724,513.123 624.724,513.123C624.724,513.123 598.484,464.097 502.812,464.097Z" style="fill:rgb(162,170,173);fill-rule:nonzero;"/>
    </g>
    <g>
        <path d="M531.718,150.54C502.28,150.625 461.976,169.064 419.325,199.184L438.731,167.554L452.018,156.807L462.139,120.115L478.579,115.057L483.424,91.65C487.471,91.838 491.302,92.154 495.021,92.536L484.065,75.204L314.397,352.398C318.009,372.254 329.938,400.321 368.547,400.321C445.861,400.321 557.639,328.854 642.67,328.854C643.273,328.854 643.896,328.884 644.514,328.884L531.718,150.542L531.718,150.54ZM243.88,467.617L174.315,581.254C174.315,581.254 260.975,569.665 382.379,562.449L408.237,493.998C385.173,500.549 360.784,506.241 330.057,506.241C295.456,506.241 264.195,491.986 243.881,467.617L243.88,467.617Z" style="fill:rgb(111,38,61);fill-rule:nonzero;"/>
    </g>
    <g>
        <path d="M701.195,563.497L706.874,554.117C629.961,579.595 598.18,553.231 598.18,553.231C624.193,582.47 680.127,569.682 701.195,563.497Z" style="fill:rgb(162,170,173);fill-rule:nonzero;"/>
        <path d="M609.782,568.853C631.932,595.989 699.355,593.179 752.156,561.589L756.115,551.146C723.021,573.856 649.427,594.888 609.782,568.853ZM485.083,275.088L450.218,367.771C450.218,367.771 401.68,386.113 369.653,391.348C433.876,396.211 545.423,323.527 618.321,323.527C585.508,313.273 506.671,344.342 506.671,344.342L485.083,275.088Z" style="fill:rgb(162,170,173);fill-rule:nonzero;"/>
    </g>
    <path d="M484.213,305.304C477.601,322.875 470.063,342.931 462.889,361.999L497.447,347.75C493.341,334.597 488.695,319.71 484.213,305.304Z" style="fill:rgb(35,97,146);fill-rule:nonzero;"/>
    <g>
        <path d="M373.991,198.776C265.261,241.052 180.94,316.725 180.94,392.819C180.94,425.694 195.64,451.293 218.914,470.753L231.862,449.601C224.19,434.899 219.825,417.776 219.825,398.796C219.825,280.251 349.915,210.65 373.992,198.776L373.991,198.776ZM752.562,360.41C765.529,339.002 772.796,316.742 772.796,294.436C772.796,209.592 674.85,173.151 584.215,165.954C583.621,172.982 582.027,180.602 579.19,188.854L668.91,330.694C696.917,334.476 726.461,344.224 752.562,360.41ZM544.106,151.763C556.866,154.488 566.726,161.853 572.625,174.735C579.981,146.674 570.798,105.44 507.752,94.289C503.532,93.546 499.286,92.961 495.022,92.536C491.165,92.131 487.298,91.836 483.424,91.65L478.578,115.057L462.138,120.114L452.018,156.806L438.731,167.554L419.325,199.184C461.975,169.064 502.28,150.624 531.718,150.54C536.096,150.54 540.24,150.932 544.106,151.763Z" style="fill:white;fill-rule:nonzero;"/>
        <path d="M642.74,336.625C549.578,336.625 447.232,409.213 366.882,409.213C343.03,409.213 335.837,400.361 335.837,400.361L332.357,405.765C332.357,405.765 233.864,358.486 368.357,212.118C368.357,212.118 252.553,272.501 243.33,394.669L250.335,388.826C250.335,388.826 246.69,471.042 339.787,471.042C414.662,471.042 441.215,443.247 510.682,443.247C658.882,443.247 682.629,527.73 682.629,527.73C682.629,527.73 585.508,556.36 579.102,502.729C579.102,502.729 564.288,565.562 688.767,533.939C688.767,533.939 696.629,521.632 695.691,505.587C695.691,505.587 707.178,517.128 709.169,525.94C709.169,525.94 718.595,515.164 703.477,486.127C703.477,486.127 716.381,497.923 724.781,515.124L729.989,510.741C729.989,510.741 730.38,498.172 705.366,464.431L688.359,475.112C688.359,475.112 648.742,400.274 501.459,409.882C501.459,409.882 624.113,366.374 695.469,454.957L710.842,444.436C710.842,444.436 753.652,486.039 764.652,534.768L767.042,534.53L767.114,497.605L767.205,453.496L779.613,468.023C779.613,468.023 785.619,457.103 778.419,434.285C778.419,434.285 807.235,462.445 815.827,514.983L818.047,485.743C818.047,460.551 776.217,336.625 642.74,336.625ZM749.976,420.604L745.722,452.307L725.839,431.34L716.109,436.424C702.732,419.476 651.172,376.559 590.8,376.559C504.192,376.559 430.096,439.097 355.92,439.097C274.955,439.097 271.694,390.757 271.694,371.627C271.694,336.115 292.484,297.392 292.484,297.392C285.364,319.119 255.016,426.101 361.551,426.101C445.386,426.101 490.308,368.218 588.026,368.218C682.046,368.218 720.001,421.809 720.001,421.809L727.311,417.202L741.188,432.152L742.249,416.685L750.791,401.741C731.047,362.788 686.918,349.094 686.918,349.094C744.713,359.947 762.028,402.131 762.028,402.131L749.976,420.604Z" style="fill:white;fill-rule:nonzero;"/>
        <path d="M426.723,500.654L418.503,522.427C467.307,520.735 516.673,510.775 562.436,494.857C512.25,471.566 434.67,497.853 426.723,500.654Z" style="fill:white;fill-rule:nonzero;"/>
    </g>
    <path d="M558.912,143.247C532.336,117.959 469.512,138.609 469.512,138.609L467.831,145.361C531.075,121.747 558.911,143.247 558.911,143.247L558.912,143.247Z" style="fill:rgb(35,97,146);fill-rule:nonzero;"/>
    <path d="M440.835,177.264C519.473,133.3 551.657,145.111 563.75,155.7C526.314,116.415 447.381,167.236 447.381,167.236L440.836,177.266L440.835,177.264Z" style="fill:rgb(162,170,173);fill-rule:nonzero;"/>
</svg>
