<?xml version="1.0" encoding="UTF-8" standalone="no"?>
<!DOCTYPE svg PUBLIC "-//W3C//DTD SVG 1.1//EN" "http://www.w3.org/Graphics/SVG/1.1/DTD/svg11.dtd">
<svg width="100%" height="100%" viewBox="0 0 960 640" version="1.1" xmlns="http://www.w3.org/2000/svg" xmlns:xlink="http://www.w3.org/1999/xlink" xml:space="preserve" xmlns:serif="http://www.serif.com/" style="fill-rule:evenodd;clip-rule:evenodd;stroke-linejoin:round;stroke-miterlimit:2;">
    <path d="M840.592,195.27C876.932,164.217 912.15,114.143 912.15,56.802C912.15,48.502 902.025,46.167 897.92,51.81C860.476,102.907 825.166,122.32 803.837,129.71C839.305,102.858 874.09,59.014 882.987,9.292C883.965,0.22 874.097,-2.429 869.537,2.32C826.11,45.74 766.323,92.076 605.65,92.076C566.826,92.076 522.444,90.95 493.745,90.95C363.295,90.95 315.321,171.633 304.506,194.032C293.766,192.48 282.892,191.523 272.082,191.523C148.442,191.523 47.851,292.114 47.851,415.765C47.85,539.405 148.44,640 272.081,640C363.079,640 443.523,586.264 478.667,502.767C481.14,503.02 483.764,503.442 485.977,503.442C514.391,503.442 520.35,495.132 520.35,488.139C520.35,484.389 516.635,479.861 514.796,477.223C556.479,476.998 568.704,475.045 586.744,468.812C589.678,467.897 591.401,465.171 591.401,462.272C591.401,456.122 578.79,445.942 569.657,438.03C627.957,437.052 670.885,426.639 670.885,413.004C670.885,410.341 670.632,406.984 655.16,394.798C688.052,385.852 745.841,363.672 745.841,349.231C745.841,343.634 741.011,340.204 735.368,336.271C786.568,316.979 829.62,282.985 829.62,270.796C829.62,260.97 815.144,260.136 807.967,259.581C833.479,243.24 869.003,215.389 869.003,203.361C869.003,190.904 849.482,195.811 840.593,195.27L840.592,195.27Z" style="fill:rgb(200,16,46);fill-rule:nonzero;"/>
    <path d="M825.63,198.457C866.431,167.883 905.216,115.079 905.216,56.802C905.216,55.577 904.006,55.387 903.499,55.898C840.43,142.005 783.078,141.158 783.078,141.158C780.57,141.158 779.978,137.64 781.97,136.253C822.69,112.303 866.364,62.898 876.172,8.068C876.306,7.333 875.208,6.443 874.435,7.21C828.117,53.533 764.461,99.002 605.649,99.002C554.79,99.002 528.248,97.877 493.744,97.877C356.032,97.877 313.684,189.409 308.671,201.525C296.582,199.476 284.342,198.445 272.081,198.443C152.064,198.443 54.77,295.734 54.77,415.765C54.77,535.778 152.064,633.077 272.08,633.077C363.98,633.077 442.552,576.031 474.325,495.428C478.389,496.121 482.311,496.515 485.97,496.515C508.111,496.515 513.427,491.573 513.427,488.139C513.427,485.81 499.267,470.335 506.297,470.335C555.403,470.335 566.456,468.502 584.485,462.272C575.835,448.735 544.505,431.212 560.637,431.212C638.464,431.212 663.969,416.187 663.969,413.004C663.969,409.285 639.153,391.414 639.153,391.414C675.001,385.504 738.921,356.914 738.921,349.231C738.921,344.784 720.688,337.32 723.611,333.105C780.45,314.2 822.693,277.469 822.693,270.796C822.693,265.442 789.375,266.068 789.375,266.068L789.375,262.528C818.187,247.549 862.076,211.329 862.076,203.361C862.076,198.285 820.892,206.791 825.631,198.457L825.63,198.457Z" style="fill:white;fill-rule:nonzero;"/>
    <g>
        <path d="M325.434,374.708C318.401,365.568 309.079,358.286 298.314,353.73L296.566,355.444L300.176,380.27C301.303,381.161 302.385,382.107 303.419,383.105L321.606,383.256C322.923,380.425 324.2,377.576 325.434,374.708ZM246.742,355.813L266.854,370.799C268.281,370.637 269.716,370.54 271.152,370.511L289.042,352.907L288.679,350.497C283.254,349.118 277.678,348.421 272.081,348.422C263.401,348.419 254.802,350.1 246.763,353.372L246.742,355.812L246.742,355.813ZM290.307,361.604L280.461,371.267C284.571,372.036 288.553,373.376 292.291,375.249L290.307,361.604ZM297.61,453.15C294.159,455.504 290.401,457.372 286.441,458.701L297.501,466.937L297.611,453.15L297.61,453.15ZM207.798,515.227L239.822,483.721C227.302,477.779 216.695,468.456 209.152,456.949L182.297,492.976C189.692,501.572 198.28,509.065 207.798,515.227ZM309.47,390.229C311.234,392.804 312.724,395.555 313.916,398.439C315.383,395.752 316.803,393.039 318.176,390.303L309.47,390.229ZM249.278,487.457C248.495,487.206 247.716,486.941 246.942,486.662L214.053,519.009C226.996,526.299 241.204,531.073 255.923,533.077L249.278,487.457ZM309.227,443.61L307.577,443.856C306.687,444.981 305.743,446.062 304.748,447.096L304.53,472.186L306.49,473.638C312.544,470.029 317.996,465.496 322.65,460.203C315.974,454.139 311.193,448.39 309.227,443.609L309.227,443.61ZM246.555,378.377C250,376.013 253.76,374.145 257.725,372.826L246.668,364.576L246.555,378.376L246.555,378.377ZM205.262,450.318C204.885,449.589 204.516,448.855 204.157,448.116L158.031,447.726C162.087,462.233 168.838,475.605 177.696,487.281L205.262,450.318ZM297.424,475.717L277.323,460.724C275.896,460.885 274.463,460.979 273.027,461.005L255.132,478.602L255.477,481.022C260.904,482.402 266.482,483.098 272.081,483.094C280.761,483.099 289.359,481.421 297.4,478.152L297.424,475.717ZM253.869,469.913L263.702,460.243C259.596,459.474 255.616,458.138 251.878,456.273L253.869,469.913ZM304.439,483.689L304.055,529.809C318.552,525.756 331.921,519.009 343.603,510.143L306.631,482.581C305.902,482.957 305.181,483.331 304.439,483.689ZM234.69,441.291C232.335,437.841 230.472,434.079 229.156,430.115L220.903,441.172L234.69,441.292L234.69,441.291ZM240.744,448.418L215.664,448.208L214.208,450.163C221.511,462.423 232.592,472.185 245.858,477.789L247.6,476.069L243.994,451.254C242.869,450.358 241.784,449.412 240.744,448.418ZM239.428,384.424L239.632,359.341L237.683,357.878C225.416,365.185 215.664,376.266 210.046,389.539L211.77,391.291L236.593,387.668C237.487,386.543 238.433,385.46 239.428,384.424ZM217.926,397.539L227.594,407.379C228.364,403.27 229.704,399.289 231.576,395.551L217.926,397.539ZM206.814,399.16C205.446,404.589 204.753,410.166 204.752,415.765C204.746,424.444 206.426,433.042 209.698,441.08L212.132,441.101L227.126,420.993C226.953,419.567 226.859,418.133 226.844,416.697L209.237,398.816L206.814,399.161L206.814,399.16ZM256.711,489.406L263.184,533.851C274.493,534.703 285.866,533.93 296.956,531.557L297.333,486.634C289.227,489.519 280.685,490.992 272.081,490.989C266.815,490.989 261.671,490.447 256.711,489.406ZM337.887,326.428C337.887,323.364 337.82,320.293 337.718,317.201C337.268,316.894 336.821,316.589 336.371,316.296L304.344,347.796C313.688,352.243 322.016,358.569 328.807,366.377C333.754,353.439 337.887,338.888 337.887,326.427L337.887,326.428ZM237.539,348.932C238.264,348.559 238.989,348.182 239.727,347.834L240.114,301.711C225.617,305.761 212.245,312.508 200.559,321.376L237.539,348.932ZM287.458,342.118L280.978,297.665C278.04,297.458 275.078,297.328 272.081,297.328C263.551,297.328 255.223,298.246 247.202,299.973L246.83,344.886C254.936,342.001 263.477,340.529 272.081,340.535C277.354,340.535 282.494,341.084 287.458,342.118ZM365.267,488.818C351.597,481.747 338.714,473.428 328.66,465.325C324.151,470.453 318.976,474.954 313.272,478.708L349.289,505.549C355.142,500.515 360.486,494.893 365.267,488.818ZM330.127,312.518C317.182,305.226 302.974,300.45 288.253,298.44L294.895,344.067C295.686,344.32 296.464,344.584 297.235,344.855L330.127,312.518ZM153.658,415.765C153.658,424.3 154.566,432.619 156.289,440.637L201.203,441.01C198.322,432.905 196.852,424.366 196.858,415.765C196.858,410.489 197.399,405.355 198.43,400.378L153.992,406.865C153.767,409.826 153.656,412.795 153.658,415.765ZM154.763,399.59L200.386,392.945C200.636,392.153 200.91,391.393 201.185,390.609L168.841,357.723C161.542,370.662 156.765,384.87 154.763,399.59ZM172.623,351.479L204.119,383.499C210.063,371.016 219.328,360.405 230.897,352.833L194.877,325.974C186.277,333.367 178.782,341.956 172.623,351.479Z" style="fill:rgb(200,16,46);fill-rule:nonzero;"/>
        <circle cx="272.079" cy="415.763" r="24.418" style="fill:rgb(200,16,46);"/>
        <path d="M272.081,269.255C191.169,269.255 125.581,334.85 125.581,415.765C125.581,496.677 191.169,562.265 272.081,562.265C321.476,562.265 365.154,537.822 391.701,500.371C386.135,498.408 380.481,496.093 374.878,493.514C351.34,524.578 314.061,544.651 272.081,544.651C200.896,544.651 143.185,486.943 143.185,415.765C143.185,344.573 200.896,286.865 272.081,286.865C295.862,286.865 318.145,293.321 337.268,304.557C337.092,298.172 337.06,291.597 337.564,284.681C317.86,274.813 295.619,269.255 272.081,269.255Z" style="fill:rgb(200,16,46);fill-rule:nonzero;"/>
        <path d="M434.91,506.049C425.448,508.314 413.24,506.883 400.13,503.09C372.225,543.933 325.282,570.75 272.078,570.75C186.494,570.75 117.096,501.363 117.096,415.765C117.096,413.018 117.174,410.298 117.304,407.593C112.512,414.865 113.894,426.864 105.396,426.864C98.656,426.864 102.392,417.682 97.459,417.682C94.389,417.682 93.959,421.894 90.142,421.894C89.695,421.894 89.298,421.735 89.009,421.735C88.189,421.735 87.824,423.515 86.269,423.515C84.285,423.515 82.892,421.172 81.316,421.172C79.539,421.172 78.973,424.564 76.616,424.564C74.199,424.564 71.859,420.518 70.916,418.668C72.472,528.458 161.939,616.965 272.081,616.965C356.374,616.965 428.547,565.132 458.498,491.601C435.931,484.776 414.366,473.262 414.366,473.262C415.742,486.707 434.911,506.049 434.911,506.049L434.91,506.049ZM90.853,338.836C95.5,342.677 91.796,349.396 95.131,354.019C120.653,280.871 190.237,228.384 272.081,228.384C298.828,228.384 324.262,234.002 347.28,244.098C349.052,239.837 351.008,235.655 353.144,231.564C328.339,220.631 300.921,214.548 272.081,214.548C187.539,214.548 115.197,266.701 85.411,340.574C87.068,341.66 88.893,337.217 90.853,338.836ZM517.772,132.05L628.476,132.05C769.896,132.05 831.815,81.49 856.205,36.672C857.612,33.977 855.881,33.412 853.193,35.8C822.405,63.422 776.468,111.635 588.9,111.635L509.747,111.635C385.238,111.635 338.351,167.777 326.123,205.222C332.318,206.813 338.441,208.675 344.473,210.802C366.607,170.951 408.793,132.05 517.772,132.05Z" style="fill:rgb(200,16,46);fill-rule:nonzero;"/>
        <path d="M515.176,160.597C404.393,160.597 340.582,236.683 347.885,309.38C353.327,363.545 323.017,407.55 323.017,407.55C323.017,407.55 365.295,388.406 365.295,311.277C365.295,238.171 438.021,184.963 499.313,184.963C558.583,184.963 627.354,185.335 661.453,185.335C842.285,185.335 886.04,101.792 892.27,85.49C893.368,83.045 891.785,83.541 891.19,84.677C853.436,135.592 800.57,164.667 657.12,164.667C564.971,164.667 535.832,160.597 515.176,160.597Z" style="fill:rgb(200,16,46);fill-rule:nonzero;"/>
        <path d="M556.48,223.902C526.566,223.902 523.562,232.229 523.562,232.229C522.616,233.39 523.098,236.116 521.002,236.911C514.169,239.55 506.606,233.889 500.724,241.502C497.171,246.1 488.552,240.429 482.962,243.676C481.706,244.411 482.982,247.596 483.954,248.017C486.571,249.167 490.892,248.827 492.517,250.177C494.233,251.584 494.082,253.597 495.676,254.775C497.649,256.221 501.354,256.865 503.004,259.145C504.294,260.9 504.706,264.39 506.578,264.492C551.484,267.042 597.582,267.035 640.195,250.526C645.021,242.926 598.388,223.902 556.479,223.902L556.48,223.902ZM379.975,322.928C380.566,327.272 379.433,333.942 380.334,334.03C411.591,337.442 443.319,331.884 472.243,318.608C480.292,315.192 440.832,294.647 408.003,294.647C397.336,294.647 390.072,299.185 390.072,299.185C388.242,300.237 386.775,304.525 384.647,307.72C383.061,310.094 386.097,313.813 384.823,315.343C382.466,318.183 379.557,319.923 379.975,322.927L379.975,322.928ZM422.721,246.842C421.209,247.096 420.072,249.552 418.951,251.145C416.115,255.138 407.13,254.255 407.204,258.8C407.306,267.088 398.074,268.604 396.608,274.574C395.461,279.253 392.946,282.788 392.601,287.822C425.765,288.002 459.881,285.863 489.281,268.98C496.967,265.48 448.789,243.075 422.721,246.842ZM528.308,218.41C525.895,208.79 514.222,206.988 506.265,202.334C503.109,200.484 499.405,201.328 495.76,202.893C487.862,206.285 477.706,200.526 469.555,206.383C467.234,208.068 465.992,211.203 462.991,211.98C459.266,212.948 455.508,213.102 451.705,213.584C450.309,213.778 447.692,214.72 447.864,216.304C448.624,223.068 442.33,224.479 437.338,226.224C432.456,227.941 434.19,234.379 434.038,239.121C466.347,239.532 499.96,234.981 528.308,218.411L528.308,218.41ZM363.592,377.944C371.898,382.264 412.069,376.46 433.012,363.444C411.499,345.196 377.07,338.575 377.07,338.575C372.296,351.602 367.357,364.565 363.592,377.945L363.592,377.944Z" style="fill:rgb(200,16,46);fill-rule:nonzero;"/>
        <path d="M357.57,385.55C353.647,387.636 349.148,393.557 352.708,395.963C359.082,400.283 369.658,409.964 418.44,409.964C465.942,409.964 484.014,395.284 493.002,386.169C493.002,380.287 451.212,368.249 445.602,371.517C443.878,372.372 443.674,374.099 443.442,374.859C441.567,375.594 435.762,375.685 434.383,376.692C431.143,379.07 431.787,382.95 430.922,383.179C423.509,385.022 414.321,380.354 407.302,383.551C405.42,384.421 405.582,389.658 403.088,389.849C398.005,390.232 392.411,387.21 387.57,388.755C386.709,389.04 384.091,389.419 382.371,390.503C379.711,389.138 378.297,388.807 374.821,387.966C372.251,387.336 369.766,389.103 366.618,388.568C363.67,388.055 360.359,384.065 357.57,385.55ZM550.19,351.254C558.963,346.687 569.52,346.254 575.965,337.541C536.589,316.975 490.607,319.104 484.992,322.354C483.606,323.164 481.992,326.031 480.232,327.153C477.53,328.926 475.022,328.074 473.232,329.865C472.159,330.938 473.337,333.773 472.58,334.822C471.592,336.212 469.411,336.458 468.05,337.192C466.667,337.949 463.747,336.714 461.573,337.632C459.406,338.551 459.318,340.58 457.901,341.298C452.62,343.989 444.958,340.869 441.321,340.925C439.445,340.957 439.931,343.915 440.536,344.51C442.89,346.842 449.7,347.553 449.44,351.008C449.38,351.715 447.748,354.125 446.717,354.258C450.327,361.966 483.912,372.186 528.09,357.533C535.467,355.313 543.094,354.941 550.19,351.253L550.19,351.254ZM600.446,294.496C604.059,292.076 608.664,292.048 610.816,288.628C615.583,282.44 569.58,272.214 550.914,272.214C532.364,272.214 498.11,276.868 492.232,278.933C489.797,279.946 489.667,284.913 486.81,285.265C481.309,285.941 475.86,286.609 470.326,287.073C468.507,287.221 468.964,290.137 469.531,290.584C473.129,293.49 474.241,295.291 475.757,299.741C475.909,300.16 479.645,299.791 480.461,300.487C484.056,303.59 486.624,308.005 491.127,309.099C512.913,314.326 533.971,315.769 556.272,310.587C558.66,310.038 560.409,308.096 562.54,307.836C570.364,306.823 578.505,306.351 584.57,300.575C588.85,296.491 595.68,297.708 600.446,294.496ZM653.359,200.31C654.639,199.516 653.598,195.375 652.525,195.217C647.53,194.457 642.119,192.438 636.715,197.289C634.886,198.939 631.481,195.389 628.952,196.917C626.904,198.134 624.885,201.409 622.982,202.257C617.8,204.561 612.772,199.178 607.052,199.847C605.374,200.033 605.782,203.766 604.115,204.157C599.194,205.321 594.895,199.963 592.119,201.764C587.869,204.504 584.299,207.994 579.155,205.679C574.216,203.435 567.695,198.767 564.317,201.708C558.452,206.83 551.318,199.408 546.161,201.408C541.791,203.101 530.041,205.901 538.056,210.548C562.956,225.622 614.95,222.628 653.359,200.311L653.359,200.31ZM406.542,482.974C405.241,480.614 401.874,481.88 399.556,480.516C397.874,479.496 397.069,475.992 395.422,474.637C394.149,473.589 391.077,475.967 389.498,475.045C387.258,473.729 385.548,470.891 383.799,468.935C381.854,466.778 380.067,464.432 378.153,462.272C376.359,460.242 374.442,458.385 372.151,457.03C370.92,456.302 368.528,457.875 367.04,457.488C364.405,456.784 362.871,452.204 360.715,450.29C359.477,449.192 357.5,449.041 356.405,448C355.283,446.92 355.044,444.936 353.865,443.63C352.307,441.92 350.027,441.312 348.342,439.933C346.059,438.065 344.35,433.333 342.591,430.727C340.835,428.12 338.235,427.831 336.547,425.548C334.432,422.685 333.194,417.876 330.608,414.978C328.019,412.05 321.536,416.722 319.555,420.666C316.305,427.117 316.495,435.311 321.451,440.841C345.831,468.076 377.488,490.665 413.719,496.628C411.017,492.73 408.168,485.933 406.542,482.974ZM486.708,473.856C483.018,472.829 479.782,470.789 476.401,469.392C474.315,468.534 472.306,471.77 470.058,470.433C465.51,467.718 461.598,463.827 457.978,460.935C455.108,458.638 449.352,452.875 446.878,454.036C445.904,454.469 444.504,459.823 442.154,458.061C436.487,453.815 432.807,449.248 427.52,444.616C425.096,442.508 422.788,449.477 419.714,448C412.643,444.563 409.796,436.9 404.358,431.47C398.011,425.151 391.943,417.83 383.212,415.515C381.762,415.135 382.561,417.25 381.202,418.312C374.533,423.519 367.191,414.625 360.714,411.656C354.773,408.912 349.545,404.557 342.861,404.103C341.443,403.998 341.507,406.137 342.045,406.773C380.123,451.817 432.958,485.61 490.99,484.248C492.337,484.217 495.084,484.368 492.826,481.571C491.021,479.355 488.996,474.493 486.708,473.856ZM540.606,441.045C538.911,440.795 536.279,443.085 534.809,442.807C530.309,441.963 526.749,437.921 521.289,435.037C519.038,433.851 517.866,439.173 516.101,439.061C507.049,438.544 493.969,428.947 485.889,424.106C484.457,423.241 475.821,424.964 474.389,425.253C469.193,426.298 462.583,417.201 458.499,415.283C455.403,413.841 451.093,412.314 448.156,414.513C444.17,417.478 439.435,415.888 435.069,415.829C433.377,415.793 431.882,419.396 429.782,420.057C423.829,421.967 417.24,417.827 411.397,420.743C411.228,420.823 410.43,422.045 410.475,422.467C410.876,426.129 414.968,426.745 417.666,428.391C459.511,454.934 524.132,463.528 560.138,455.475C560.954,455.222 559.681,452.144 557.253,450.29C554.742,448.362 551.04,447.637 549.478,446.543C545.844,443.996 543.906,441.541 540.606,441.045ZM624.842,402.418C620.413,403.73 616.987,400.483 613.307,401.888C612.463,402.218 611.886,403.611 611.182,403.618C604.245,403.755 599.622,396.29 592.559,396.853C590.811,396.99 590.845,400.083 589.357,400.434C585.006,401.454 581.147,396.188 577.224,398.077C574.427,399.445 572.457,399.343 569.777,398.556C566.301,397.536 563.719,394.446 560.363,393.916C557.397,393.451 554.481,396.392 551.135,395.418C542.812,392.994 536.357,385.082 527.421,386.978C523.01,387.91 519.217,384.892 516.171,386.718C512.829,388.698 511.879,391.108 508.491,393.121C506.198,394.514 500.826,394.338 498.423,395.794C496.604,396.909 496.14,399.716 494.058,400.578C490.149,402.193 485.523,401.046 481.861,403.118C481.431,403.358 481.189,405.402 482.758,405.841C516.878,417.405 572.102,430.129 638.066,413.011C640.1,412.391 640.522,411.174 638.868,409.264C635.245,405.074 630.268,400.804 624.842,402.418ZM703.784,344.605C697.955,347.317 691.204,344.305 684.742,345.84C683.053,346.24 684.348,348.647 682.659,348.883C676.324,349.78 669.752,348.161 663.814,350.48C659.17,352.284 653.598,350.234 648.486,350.364C646.541,350.416 646.496,353.024 646.196,355.137C645.922,356.928 643.216,358.001 642.418,357.765C636.086,355.883 630.018,355.201 623.598,354.258C607.475,351.877 591.514,346.751 576.355,351.278C571.409,352.763 564.852,354.001 561.063,357.85C559.607,359.341 558.055,362.282 556.117,362.99C546.84,366.363 536.737,366.99 527.492,370.282C524.698,371.267 519.376,375.186 521.367,375.7C521.367,375.7 549.89,383.98 581.01,383.98C640.902,383.98 686.56,369.244 719.96,351.022C718.042,348.602 708.2,342.551 703.784,344.605ZM769.506,279.01C765.833,280.22 760.82,276.752 757.679,279.07C752.989,282.528 747.48,281.902 742.664,281.406C740.367,281.163 736.764,280.354 734.731,281.944C733.416,282.978 735.305,284.635 736.536,285.747C724.414,289.919 711.042,285.989 699.546,290.657C698.684,291.007 698.166,295.227 696.042,295.65C685.488,297.782 675.613,293.638 665.147,295.555C662.487,296.047 663.667,301.679 660.884,301.813C651.487,302.273 642.334,301.483 632.948,301.092C621.782,300.627 611.496,304.677 600.96,307.906C597.825,308.849 596.886,313.83 593.512,314.34C584.404,315.73 575.135,314.136 566.829,318.238C566.269,318.512 566.231,321.306 566.843,321.636C577.023,327.388 588.689,331.36 595.647,340.661C666.487,339.916 742.713,330.656 801.695,282.296C802.859,281.353 795.873,279.896 792.112,279.024C788.446,278.173 785.428,278.173 780.982,276.72C777.027,275.415 773.375,277.744 769.506,279.01ZM843.058,212.385C842.338,211.952 831.618,210.021 825.69,211.414C824.42,211.713 823.671,213.781 822.482,213.974C814.827,215.202 809.434,218.858 801.659,219.097C800.034,219.135 796.537,220.293 794.444,221.288C791.623,222.65 787.757,219.34 785.554,221.809C784.134,223.403 786.61,227.23 784.031,228.447C777.259,231.635 769.344,225.915 762.713,230.238C760.782,231.487 764.753,235.715 762.263,236.503C752.729,239.483 736.244,224.683 730.003,240.049C729.033,242.463 726.046,241.372 724.181,240.887C722.376,240.419 719.826,239.585 718.753,240.478C712.913,245.231 709.48,247.128 701.266,244.823C699.19,244.225 699.152,250.403 695.116,249.421C690.501,248.31 686.065,244.981 681.846,246.867C679.884,247.743 681.33,252.875 678.473,253.154C666.991,254.248 655.157,252.594 644.578,257.294C641.968,258.459 641.725,263.151 638.07,263.754C630.02,265.086 621.99,264.147 614.468,266.588C613.248,266.979 613.533,270.564 615.394,270.835C620.217,271.552 625.697,270.803 629.398,273.009C633.94,275.721 636.818,283.365 641.285,283.545C732.258,285.304 797.977,252.703 843.058,215.104C844.842,213.556 843.917,212.912 843.058,212.384L843.058,212.385ZM820.758,159.021C819.393,159.641 819.826,164.144 817.226,165.351C812.748,167.411 807.654,167.351 802.869,168.805C801.058,169.367 801.159,171.774 799.647,172.717C797.104,174.338 793.66,172.991 791.802,174.363C780.31,182.785 766.649,179.007 753.886,181.117C754.087,190.735 738.904,184.861 732.681,189.047C725.884,193.602 726.788,192.357 716.674,192.452C713.532,192.487 715.228,197.124 712.699,197.177C704.636,197.321 694.216,194.763 688.204,196.512C687.124,196.825 686.772,201.908 684.633,202.482C680.246,203.657 675.641,204.132 671.437,205.462C668.183,206.492 672.437,212.642 668.077,214.024C660.672,216.367 652.517,214.657 645.049,218.889C642.119,220.564 637.82,218.984 634.014,219.684C630.777,220.264 629.539,223.664 632.184,225.158C634.577,226.506 638.573,226.154 640.93,227.318C646.4,230.016 650.938,233.921 656.817,234.291C752.922,240.204 877.231,171.891 896.812,89.146C897.494,85.817 895.967,86.43 895.288,88.287C874.438,137.935 820.758,159.021 820.758,159.021Z" style="fill:rgb(200,16,46);fill-rule:nonzero;"/>
    </g>
</svg>
