<?xml version="1.0" encoding="UTF-8" standalone="no"?>
<!DOCTYPE svg PUBLIC "-//W3C//DTD SVG 1.1//EN" "http://www.w3.org/Graphics/SVG/1.1/DTD/svg11.dtd">
<svg width="100%" height="100%" viewBox="0 0 960 640" version="1.1" xmlns="http://www.w3.org/2000/svg" xmlns:xlink="http://www.w3.org/1999/xlink" xml:space="preserve" xmlns:serif="http://www.serif.com/" style="fill-rule:evenodd;clip-rule:evenodd;stroke-linejoin:round;stroke-miterlimit:2;">
    <path d="M480,640C656.734,640 800,496.737 800,320C800,143.283 656.734,0 480,0C303.267,0 160,143.282 160,320C160,496.737 303.268,640 480,640" style="fill:white;fill-rule:nonzero;"/>
    <g>
        <path d="M497.813,15.348C534.35,72.605 550.817,93.711 550.817,125.763C550.817,164.24 518.482,195.435 480.001,195.435C441.511,195.435 409.184,164.24 409.184,125.763C409.184,93.711 425.65,72.605 462.185,15.348C301.927,24.568 174.811,157.43 174.811,320C174.811,488.56 311.447,625.208 480.001,625.208C648.556,625.208 785.191,488.56 785.191,320C785.191,157.43 658.075,24.567 497.813,15.347M480.001,597.412C326.791,597.412 202.598,473.202 202.598,320C202.598,191.475 290.023,83.369 408.645,51.874C402.343,59.715 381.397,88.568 381.397,125.762C381.397,179.502 425.63,223.222 480.001,223.222C534.376,223.222 578.604,179.502 578.604,125.762C578.604,88.568 557.649,59.715 551.356,51.874C669.984,83.37 757.406,191.475 757.406,320C757.406,473.202 633.203,597.412 480.001,597.412" style="fill:rgb(4,30,66);fill-rule:nonzero;"/>
        <path d="M537.744,353.266L517.832,353.266L517.832,385.055C517.832,391.426 512.666,396.599 506.29,396.599C499.932,396.599 494.758,391.426 494.758,385.055L494.758,344.54L517.832,344.54L517.832,314.515L494.758,314.515L494.758,291.13C494.758,284.759 499.932,279.593 506.29,279.593C512.666,279.593 517.832,284.759 517.832,291.13L517.832,305.696L537.744,305.696L537.744,238.379L453.602,238.379L453.602,279.593C461.744,279.593 468.35,286.183 468.35,294.343L468.35,388.157C468.349,392.788 464.539,396.599 459.908,396.6L459.908,566.6C459.908,578.745 453.558,584.282 450.523,586.244C460.303,587.444 470.147,588.043 480,588.038C492.192,588.038 504.167,587.118 515.851,585.368C515.851,585.368 537.743,581.024 537.743,561.72L537.743,353.266L537.744,353.266Z" style="fill:rgb(4,30,66);fill-rule:nonzero;"/>
        <path d="M453.604,353.266L433.697,353.266L433.697,388.186C433.697,392.832 429.932,396.599 425.288,396.599C420.644,396.599 416.874,392.832 416.874,388.187L416.874,288.04C416.874,288.038 416.874,288.036 416.874,288.034C416.874,283.403 420.685,279.592 425.316,279.592C425.317,279.592 425.318,279.592 425.319,279.592L425.319,238.378L382.027,238.378L382.027,279.592C386.684,279.592 390.463,283.369 390.463,288.04L390.463,388.156C390.463,392.815 386.683,396.599 382.027,396.599L382.027,544.672C382.027,557.038 375.258,561.095 372.044,562.328C391.142,572.058 411.844,579.288 433.664,583.561C433.664,583.561 453.604,586.598 453.604,566.598L453.604,353.266Z" style="fill:rgb(4,30,66);fill-rule:nonzero;"/>
        <path d="M375.72,544.672L375.72,396.6C371.059,396.6 367.28,392.816 367.28,388.154L367.28,288.04C367.28,288.038 367.28,288.036 367.28,288.034C367.28,283.404 371.09,279.594 375.72,279.594L375.72,279.594L375.72,238.376L332.43,238.376L332.43,279.594C337.086,279.594 340.868,283.369 340.868,288.04L340.868,388.153C340.868,392.815 337.086,396.599 332.43,396.599L332.43,497.466C332.43,518.524 321.623,521.858 315.983,522.152C329.451,535.276 344.479,546.698 360.729,556.162C376.979,565.626 375.721,561.832 375.721,544.672M709.87,305.696L709.87,260.344C709.87,248.266 699.992,238.381 687.912,238.381L661.997,238.381C649.919,238.381 640.037,248.266 640.037,260.344L640.037,320.916C640.037,324.143 641.997,328.543 644.406,330.678L679.098,361.704C681.502,363.859 683.468,368.264 683.468,371.474L683.468,384.845C683.468,391.339 678.194,396.599 671.703,396.599C665.21,396.599 659.95,391.339 659.95,384.845L659.95,353.27L640.036,353.27L640.036,525.947C683.092,485.981 709.87,430.056 709.87,368.127L709.87,359.204C709.87,355.984 707.912,351.6 705.517,349.446L670.817,318.423C668.404,316.26 666.441,311.877 666.441,308.649L666.441,288.093C666.441,283.406 670.261,279.595 674.961,279.595C679.654,279.595 683.468,283.405 683.468,288.093L683.468,305.696L709.87,305.696Z" style="fill:rgb(4,30,66);fill-rule:nonzero;"/>
        <path d="M326.12,497.466L326.12,260.347C326.12,248.261 316.243,238.377 304.164,238.377L272.089,238.377C260.009,238.377 250.123,248.261 250.123,260.347L250.123,368.126C250.123,422.116 270.471,471.538 304.204,509.791C310.8,518.392 326.12,520.851 326.12,497.466M299.716,385.011C299.716,391.406 294.528,396.595 288.13,396.595C281.724,396.595 276.539,391.406 276.539,385.011L276.539,291.181C276.539,284.768 281.724,279.595 288.129,279.595C288.132,279.595 288.136,279.595 288.139,279.595C294.49,279.595 299.716,284.821 299.716,291.172C299.716,291.175 299.716,291.179 299.716,291.182L299.716,385.011ZM625.296,388.153L625.296,339.038C625.296,330.626 615.86,326.773 615.86,326.773C615.86,326.773 625.296,322.918 625.296,314.516L625.296,260.344C625.296,248.263 615.409,238.381 603.336,238.381L544.046,238.381L544.038,279.594C544.041,279.594 544.043,279.594 544.046,279.594C548.675,279.594 552.484,283.403 552.484,288.032C552.484,288.035 552.484,288.037 552.484,288.04L552.484,388.153C552.484,388.154 552.484,388.155 552.484,388.156C552.484,392.788 548.673,396.599 544.041,396.599C544.04,396.599 544.039,396.599 544.038,396.599L544.038,561.719C544.038,570.277 540.592,576.737 535.938,581.446C551.502,577.713 566.441,572.541 580.583,565.956C580.583,565.956 590.739,561.024 590.739,542.541L590.739,396.599C584.193,396.599 578.899,391.291 578.899,384.757L578.899,348.114C578.899,343.092 582.953,339.038 587.962,339.038C587.967,339.038 587.971,339.038 587.976,339.038C592.949,339.038 597.041,343.13 597.041,348.103C597.041,348.107 597.041,348.11 597.041,348.114L597.041,544.446C597.041,550 596.278,554.649 595.105,558.561C606.792,552.059 617.895,544.559 628.291,536.146C638.687,527.733 633.741,531.632 633.741,510.166L633.741,396.599C633.741,396.599 633.74,396.599 633.74,396.599C629.108,396.599 625.296,392.787 625.296,388.155C625.296,388.154 625.296,388.154 625.296,388.153M598.881,304.516C598.881,310.036 594.411,314.516 588.889,314.516C583.369,314.516 578.899,310.036 578.899,304.516L578.899,289.586C578.899,289.584 578.899,289.582 578.899,289.58C578.899,284.102 583.407,279.594 588.885,279.594L588.894,279.594C594.373,279.594 598.881,284.102 598.881,289.581C598.881,289.582 598.881,289.584 598.881,289.585L598.881,304.516Z" style="fill:rgb(4,30,66);fill-rule:nonzero;"/>
    </g>
    <path d="M531.599,126.773C531.599,90.627 500.244,71.319 480.001,20.845C459.756,71.319 428.4,90.626 428.4,126.772C428.4,151.475 448.802,175.531 480,175.531C511.209,175.531 531.599,151.475 531.599,126.772" style="fill:rgb(252,76,2);fill-rule:nonzero;"/>
</svg>
