<?xml version="1.0" encoding="UTF-8" standalone="no"?>
<!DOCTYPE svg PUBLIC "-//W3C//DTD SVG 1.1//EN" "http://www.w3.org/Graphics/SVG/1.1/DTD/svg11.dtd">
<svg width="100%" height="100%" viewBox="0 0 960 640" version="1.1" xmlns="http://www.w3.org/2000/svg" xmlns:xlink="http://www.w3.org/1999/xlink" xml:space="preserve" xmlns:serif="http://www.serif.com/" style="fill-rule:evenodd;clip-rule:evenodd;stroke-linejoin:round;stroke-miterlimit:2;">
    <path d="M479.999,602.536L664.397,511.789C675.318,506.405 677.736,501.617 677.736,490.355L677.736,420.517L830.605,420.517L930.952,122.217L677.735,122.217L677.735,34.674L282.262,34.674L282.262,122.216L129.393,122.216L29.046,420.516L282.262,420.516L282.262,490.354C282.262,501.616 284.672,506.404 295.602,511.788L479.999,602.535L479.999,602.536Z" style="fill:white;fill-rule:nonzero;"/>
    <path d="M479.998,586.895L652.278,502.111C661.476,497.584 663.693,493.568 663.693,483.766L663.693,406.49L820.664,406.49L911.573,136.258L663.7,136.258L663.7,48.725L296.31,48.725L296.31,136.258L139.34,136.258L48.431,406.49L296.303,406.49L296.303,483.766C296.303,493.568 298.521,497.592 307.719,502.111L479.998,586.895Z" style="fill:rgb(162,170,173);fill-rule:nonzero;"/>
    <path d="M485.808,405.796C487.207,405.796 487.678,406.591 487.678,407.557L487.678,409.905L489.075,409.905C490.867,409.905 491.494,411.141 491.494,412.709L491.494,423.468C495.108,421.328 498.769,422.904 500.074,424.062C503.256,422.07 507.86,422.827 510.346,425.538C513.839,424.094 518.565,424.966 521.26,428.596C524.899,427.576 529.672,428.991 532.167,433.286C537.434,432.458 541.899,435.818 543.281,440.02C549.337,439.634 554.086,444.23 554.751,449.39C560.788,450.131 565.276,455.489 564.946,461.562C569.588,463.732 572.454,468.003 572.454,473.163C572.454,478.948 569.241,483.853 562.699,485.428C561.231,485.776 560.289,485.83 559.709,486.633C561.942,487.297 563.217,489.846 562.56,492.033C562.25,493.028 558.126,504.66 558.126,504.66C557.145,507.588 555.268,509.048 552.271,508.229C549.445,507.457 548.495,507.843 546.486,510.909C544.949,513.265 543.799,515.173 542.617,517.011C539.087,522.471 535.944,527.793 534.167,530.504C532.352,533.014 530.985,533.871 529.177,534.884C519.267,540.414 498.955,544.376 479.993,544.376C461.031,544.376 440.717,540.414 430.8,534.884C428.984,533.871 427.625,533.006 425.81,530.504C424.033,527.793 420.89,522.471 417.368,517.011C416.178,515.173 415.028,513.265 413.49,510.909C411.49,507.843 410.54,507.457 407.705,508.229C404.708,509.048 402.832,507.588 401.851,504.66C401.851,504.66 397.719,493.035 397.425,492.032C396.761,489.846 398.043,487.297 400.268,486.633C399.696,485.83 398.754,485.776 397.278,485.428C390.736,483.852 387.523,478.948 387.523,473.163C387.523,468.003 390.389,463.74 395.031,461.562C394.704,455.489 399.191,450.132 405.227,449.389C405.89,444.229 410.649,439.634 416.697,440.02C418.079,435.826 422.543,432.458 427.819,433.285C430.297,428.991 435.079,427.577 438.725,428.596C441.428,424.966 446.139,424.101 449.638,425.538C452.117,422.828 456.728,422.07 459.903,424.062C461.209,422.904 464.869,421.329 468.484,423.468L468.484,412.709C468.484,411.141 469.109,409.905 470.901,409.905L472.3,409.905L472.3,407.557C472.3,406.584 472.77,405.795 474.168,405.795L485.808,405.795L485.808,405.796Z" style="fill:white;fill-rule:nonzero;"/>
    <path d="M561.61,463.446C561.905,462.561 562.056,461.635 562.058,460.703C562.058,455.884 558.149,451.976 553.322,451.976C552.982,451.976 552.642,451.999 552.302,452.037C552.364,451.621 552.396,451.203 552.396,450.764C552.396,450.762 552.396,450.761 552.396,450.759C552.396,446.244 548.681,442.529 544.166,442.529C543.41,442.529 542.657,442.633 541.929,442.839L541.929,442.706C541.929,438.533 538.495,435.099 534.322,435.099C533.224,435.097 532.138,435.331 531.139,435.787C530.544,432.28 527.474,429.689 523.917,429.692C522.63,429.693 521.365,430.032 520.249,430.674C519.214,428.117 516.712,426.302 513.784,426.302C512.154,426.302 510.664,426.858 509.482,427.786C508.392,425.757 506.267,424.487 503.964,424.487C502.261,424.487 500.629,425.183 499.448,426.411C498.393,424.908 496.666,424.013 494.83,424.016C492.327,424.018 490.109,425.683 489.408,428.086C486.805,427.554 486.033,426.449 486.033,424.703C486.033,424.016 486.164,423.947 486.836,423.947L487.346,423.947C488.651,423.947 489.423,422.965 489.423,422.07L489.423,413.666C489.423,412.206 488.845,411.071 487.191,411.071L485.901,411.071L485.901,409.287C485.901,408.383 485.468,407.649 484.179,407.649L475.829,407.649C474.532,407.649 474.099,408.383 474.099,409.287L474.099,411.071L472.817,411.071C471.164,411.071 470.586,412.214 470.586,413.666L470.586,422.07C470.586,422.974 471.357,423.947 472.655,423.947L473.172,423.947C473.845,423.947 473.968,424.023 473.968,424.703C473.968,426.457 473.195,427.553 470.593,428.086C469.905,425.739 467.743,424.016 465.17,424.016C463.336,424.011 461.611,424.907 460.56,426.41C459.379,425.181 457.746,424.486 456.041,424.487C453.737,424.489 451.612,425.758 450.518,427.786C449.294,426.823 447.781,426.3 446.224,426.302C443.289,426.302 440.787,428.117 439.752,430.674C438.637,430.028 437.371,429.689 436.082,429.692C432.46,429.692 429.456,432.326 428.862,435.787C427.864,435.329 426.777,435.094 425.679,435.099C421.477,435.099 418.063,438.506 418.063,442.708L418.063,442.838C417.336,442.633 416.584,442.529 415.828,442.529C411.313,442.529 407.598,446.244 407.598,450.759C407.598,451.186 407.632,451.614 407.698,452.036C407.357,451.996 407.014,451.975 406.671,451.975C401.882,451.975 397.942,455.916 397.942,460.704C397.942,461.636 398.091,462.561 398.383,463.445C393.579,463.885 389.803,467.925 389.803,472.845C389.803,477.48 393.154,481.342 397.557,482.138C400.037,482.585 402.337,482.763 403.272,485.25C403.52,485.922 403.844,486.725 404.207,487.744L402.43,488.487C399.881,489.552 399.148,491.722 399.959,493.785L402.601,501.13C403.589,504.112 405.134,505.88 408.161,505.046C411.035,504.258 412.038,504.004 413.019,505.849C415.939,511.642 418.186,514.631 422.319,514.585C419.446,516.446 419.554,516.995 422.002,520.718L426.922,528.086C428.592,530.666 429.371,531.361 431.162,532.466C440.763,538.011 460.761,542.082 479.992,542.082C499.223,542.082 519.229,538.011 528.83,532.466C530.622,531.361 531.395,530.659 533.07,528.086L537.982,520.718C540.447,517.003 540.54,516.446 537.666,514.585C541.798,514.631 544.046,511.642 546.966,505.849C547.954,504.011 548.959,504.266 551.823,505.046C554.859,505.88 556.403,504.112 557.393,501.13L560.027,493.785C560.829,491.731 560.111,489.552 557.555,488.487L555.787,487.744C556.15,486.724 556.467,485.922 556.72,485.25C557.655,482.771 559.95,482.585 562.436,482.138C566.846,481.342 570.19,477.48 570.19,472.845C570.19,467.925 566.422,463.885 561.61,463.446Z" style="fill:rgb(162,170,173);"/>
    <path d="M476.13,420.787L476.13,422.819C476.13,423.537 476.71,424.116 477.428,424.116L482.572,424.116C483.283,424.114 483.867,423.53 483.869,422.819L483.869,420.787L485.901,420.787C486.619,420.787 487.199,420.208 487.199,419.489L487.199,414.346C487.199,413.635 486.619,413.056 485.901,413.056L483.869,413.056L483.869,411.016C483.869,410.298 483.468,409.719 482.572,409.719L477.428,409.719C476.478,409.719 476.131,410.298 476.131,411.017L476.131,413.056L474.099,413.056C473.381,413.056 472.801,413.635 472.801,414.346L472.801,419.489C472.801,420.209 473.381,420.787 474.099,420.787L476.131,420.787L476.13,420.787ZM432.56,526.804C446.385,519.095 468.491,516.934 480.007,516.925C491.516,516.925 513.629,519.088 527.447,526.805C529.864,528.148 529.972,528.141 531.702,525.769L535.58,519.976C536.816,518.051 536.687,516.652 535.193,515.782C530.018,512.77 522.464,509.812 514.949,507.818C504.089,504.946 492.373,503.493 480.007,503.493C467.641,503.493 455.917,504.953 445.057,507.818C437.534,509.812 429.987,512.77 424.813,515.782C423.319,516.652 423.191,518.051 424.427,519.976L428.296,525.769C430.034,528.133 430.142,528.148 432.552,526.804" style="fill:rgb(1,1,1);fill-rule:nonzero;"/>
    <path d="M477.728,465.956C475.847,465.957 474.3,467.504 474.299,469.385L474.299,472.567L472.012,472.567C470.131,472.569 468.585,474.116 468.584,475.997L468.584,480.608C468.584,482.392 469.935,484.022 471.681,484.022C476.061,484.022 476.408,486.115 476.408,488.447C476.408,490.779 474.191,492.865 471.681,492.865C470.616,492.869 469.577,492.533 468.715,491.908C468.506,491.761 468.335,491.799 468.182,491.985C466.475,493.963 463.484,494.274 461.408,492.688C461.254,492.572 461.06,492.595 460.906,492.78C460.209,493.567 459.282,494.116 458.256,494.348C455.801,494.897 453.175,493.314 452.672,491.066C452.162,488.796 452.44,486.586 456.326,485.714C458.016,485.334 458.975,483.443 458.589,481.712L457.577,477.209C457.227,475.653 455.833,474.538 454.238,474.538C453.984,474.538 453.731,474.566 453.483,474.622L451.205,475.123L450.509,472.019C450.16,470.462 448.767,469.346 447.172,469.346C446.917,469.346 446.664,469.375 446.416,469.431L441.913,470.435C440.079,470.851 438.911,472.702 439.325,474.537L440.021,477.641L437.788,478.143C436.229,478.488 435.109,479.883 435.109,481.48C435.109,481.735 435.137,481.989 435.194,482.238L436.205,486.733C436.591,488.479 438.267,489.768 439.975,489.383C444.245,488.424 445.057,490.393 445.559,492.656C446.06,494.866 444.361,497.461 441.906,498.009C440.368,498.36 438.751,497.932 437.588,496.866C437.379,496.673 437.124,496.696 437.001,496.921C436.398,498.017 435.401,498.905 434.12,499.268C433.048,499.58 431.898,499.495 430.883,499.029C430.551,498.882 430.319,498.998 430.243,499.346C429.871,500.929 428.674,502.204 427.184,502.798C425.052,503.648 422.781,502.297 421.832,500.226C420.734,497.831 420.356,496.21 424.28,494.549C425.786,493.916 426.389,491.969 425.855,490.301L424.202,486.014C423.631,484.23 421.862,483.304 420.255,483.944L417.305,485.026L416.44,482.5C415.822,480.46 414.354,479.727 412.123,480.623L407.357,482.4C405.975,482.948 405.272,484.346 405.967,486.053C406.476,487.297 406.855,488.223 407.125,488.888L404.283,490.054C402.513,490.741 401.796,492.432 402.483,494.194L404.399,499.014C405.086,500.782 406.855,501.501 408.856,500.836C411.961,499.809 412.686,500.535 414.787,504.328C417.035,508.661 420.773,510.854 425.407,510.854C430.041,510.854 433.896,508.306 435.904,504.559C438.297,505.644 440.979,505.918 443.542,505.339C446.597,504.661 449.269,502.817 450.988,500.203C453.66,501.826 456.86,502.35 459.91,501.663C462.016,501.197 463.956,500.169 465.524,498.689C467.388,499.799 469.519,500.384 471.689,500.381C474.916,500.381 477.852,499.106 480.022,497.051C482.268,499.19 485.254,500.383 488.356,500.381C490.604,500.381 492.713,499.763 494.512,498.69C496.083,500.167 498.023,501.194 500.127,501.662C503.31,502.382 506.476,501.763 509.055,500.203C510.772,502.815 513.442,504.659 516.493,505.339C519.167,505.942 521.823,505.609 524.133,504.559C526.141,508.306 530.103,510.854 534.637,510.854C539.171,510.854 543.287,508.204 545.257,504.328C547.358,500.535 548.115,499.724 551.181,500.836C553.112,501.531 554.951,500.782 555.638,499.013L557.553,494.194C558.241,492.432 557.523,490.741 555.761,490.054L552.92,488.888C553.19,488.215 553.568,487.297 554.078,486.053C554.773,484.353 554.078,482.947 552.696,482.4L547.93,480.623C545.697,479.72 544.222,480.461 543.604,482.5L542.739,485.026L539.789,483.945C538.189,483.303 536.421,484.23 535.842,486.014L534.197,490.301C533.657,491.969 534.267,493.908 535.773,494.549C539.696,496.217 539.317,497.839 538.213,500.226C537.263,502.296 534.993,503.648 532.861,502.798C531.371,502.204 530.172,500.929 529.802,499.346C529.724,498.998 529.492,498.89 529.169,499.029C528.154,499.495 527.005,499.58 525.932,499.269C524.65,498.905 523.654,498.025 523.051,496.921C522.936,496.696 522.681,496.673 522.472,496.866C521.36,497.871 519.792,498.38 518.147,498.009C515.691,497.461 514.007,494.866 514.494,492.656C515.003,490.394 515.806,488.424 520.077,489.382C521.784,489.768 523.453,488.471 523.854,486.733L524.866,482.238C525.276,480.391 524.116,478.553 522.271,478.144L520.039,477.641L520.734,474.536C521.14,472.701 519.972,470.855 518.139,470.436L513.635,469.431C513.388,469.375 513.136,469.347 512.882,469.347C511.287,469.347 509.893,470.462 509.542,472.019L508.847,475.123L506.577,474.623C506.328,474.566 506.073,474.538 505.817,474.538C504.221,474.538 502.826,475.652 502.474,477.209L501.464,481.712C501.077,483.442 502.034,485.334 503.726,485.714C507.619,486.586 507.889,488.795 507.379,491.066C506.877,493.314 504.243,494.896 501.788,494.348C500.76,494.121 499.831,493.572 499.138,492.78C498.983,492.595 498.791,492.572 498.637,492.688C497.773,493.352 496.713,493.71 495.623,493.707C494.177,493.707 492.801,493.078 491.855,491.985C491.7,491.799 491.53,491.761 491.33,491.908C490.467,492.531 489.429,492.866 488.364,492.865C485.846,492.865 483.629,490.703 483.629,488.447C483.629,486.191 483.976,484.022 488.364,484.022C490.109,484.022 491.453,482.392 491.453,480.608L491.453,475.997C491.453,475.995 491.453,475.993 491.453,475.991C491.453,474.113 489.909,472.568 488.031,472.567L485.737,472.567L485.737,469.385C485.737,469.384 485.737,469.383 485.737,469.382C485.737,467.503 484.19,465.956 482.311,465.956C482.31,465.956 482.308,465.956 482.307,465.956L477.727,465.956L477.728,465.956ZM480,537.68C499.648,537.68 516.556,534.065 526.343,529.801C521.809,527.345 517.274,525.568 510.678,524.124C502.506,525.344 490.705,526.952 479.992,526.952C469.279,526.952 457.485,525.344 449.305,524.124C442.71,525.576 438.175,527.353 433.641,529.801C443.427,534.057 460.335,537.68 479.984,537.68M505.635,443.356C505.626,441.637 504.209,440.228 502.49,440.228C502.48,440.228 502.471,440.228 502.461,440.228C500.744,440.232 499.333,441.646 499.333,443.363C499.333,443.376 499.333,443.39 499.333,443.403C499.333,445.14 500.762,446.539 502.507,446.531C504.235,446.517 505.647,445.084 505.635,443.356ZM490.711,434.837C490.71,433.371 489.503,432.165 488.037,432.165C488.035,432.165 488.033,432.165 488.031,432.165C486.548,432.165 485.359,433.362 485.359,434.837C485.359,436.312 486.557,437.517 488.032,437.517C489.507,437.517 490.712,436.312 490.712,434.837L490.711,434.837ZM497.701,438.792C497.701,437.324 496.493,436.116 495.025,436.116C493.557,436.116 492.349,437.324 492.349,438.792C492.349,440.267 493.546,441.464 495.021,441.464C496.496,441.464 497.701,440.267 497.701,438.792ZM514.95,450.246C514.95,448.052 513.165,446.268 510.972,446.268C508.779,446.268 506.995,448.052 506.995,450.246C506.995,452.44 508.778,454.224 510.972,454.224C513.166,454.224 514.95,452.44 514.95,450.246ZM524.349,460.07C524.349,457.444 522.224,455.32 519.599,455.32C516.974,455.32 514.849,457.444 514.849,460.07C514.849,462.696 516.973,464.82 519.599,464.82C522.225,464.82 524.349,462.696 524.349,460.07Z" style="fill:rgb(1,1,1);fill-rule:nonzero;"/>
    <path d="M534.003,471.95C534.003,468.976 531.594,466.574 528.628,466.574C525.662,466.574 523.245,468.984 523.245,471.95C523.245,474.916 525.655,477.326 528.628,477.326C531.601,477.326 534.003,474.916 534.003,471.95ZM516.973,432.233C516.91,430.134 515.132,428.458 513.033,428.519C510.934,428.582 509.257,430.36 509.318,432.459C509.381,434.558 511.158,436.234 513.257,436.173C515.357,436.111 517.034,434.333 516.973,432.233ZM527.672,436.228C527.608,433.902 525.677,432.024 523.35,432.024C523.302,432.024 523.255,432.024 523.207,432.026C520.882,432.093 519.005,434.024 519.005,436.35C519.005,436.394 519.006,436.439 519.007,436.483C519.072,438.813 521.007,440.694 523.337,440.694C523.379,440.694 523.421,440.693 523.463,440.692C525.794,440.624 527.674,438.688 527.674,436.356C527.674,436.313 527.673,436.271 527.672,436.228ZM538.367,442.074C538.292,439.484 536.1,437.413 533.509,437.486C530.918,437.561 528.848,439.754 528.921,442.345C528.993,444.885 531.101,446.935 533.642,446.935C533.688,446.935 533.733,446.934 533.779,446.933C536.318,446.863 538.369,444.754 538.369,442.214C538.369,442.168 538.368,442.121 538.367,442.075L538.367,442.074ZM497.347,429.415C497.347,427.801 496.027,426.511 494.412,426.518C492.806,426.518 491.508,427.847 491.516,429.453C491.529,431.051 492.853,432.357 494.451,432.349C496.049,432.336 497.355,431.013 497.347,429.415ZM506.815,429.947C506.804,428.118 505.296,426.619 503.467,426.619C503.46,426.619 503.454,426.619 503.447,426.619C501.615,426.623 500.11,428.132 500.11,429.964C500.11,429.971 500.11,429.979 500.11,429.986C500.121,431.816 501.63,433.316 503.46,433.316C503.469,433.316 503.478,433.316 503.487,433.316C505.315,433.31 506.815,431.805 506.815,429.977L506.815,429.947ZM548.788,449.875C548.765,447.049 546.463,444.77 543.644,444.793C540.851,444.808 538.561,447.11 538.561,449.903C538.561,449.915 538.561,449.926 538.561,449.938C538.576,452.731 540.878,455.02 543.671,455.02C543.683,455.02 543.694,455.02 543.706,455.02C546.499,455.005 548.789,452.703 548.789,449.91C548.789,449.898 548.789,449.887 548.789,449.875L548.788,449.875ZM558.45,459.647C558.429,456.628 555.932,454.158 552.913,454.17C549.903,454.186 547.436,456.667 547.436,459.677C547.436,459.69 547.436,459.703 547.436,459.716C547.451,462.725 549.931,465.192 552.94,465.192C552.951,465.192 552.963,465.192 552.974,465.192C556.018,465.169 558.474,462.69 558.451,459.647L558.45,459.647ZM566.543,471.618C566.52,468.359 563.863,465.732 560.612,465.755C557.352,465.779 554.726,468.435 554.749,471.688C554.772,474.947 557.429,477.573 560.681,477.551C563.941,477.527 566.566,474.871 566.543,471.618ZM507.054,472.166C507.54,468.211 509.039,466.526 512.168,467.09C512.461,467.145 512.668,466.851 512.584,466.573C510.314,458.927 499.176,444.283 485.467,438.033C484.585,437.633 484.061,437.347 483.914,437.516C483.767,437.694 484.176,438.111 484.84,438.698C497.778,450.068 500.419,467.77 500.705,473.355C500.728,473.734 501.215,473.857 501.431,473.54C501.431,473.54 502.93,470.807 507.046,472.166" style="fill:rgb(1,1,1);fill-rule:nonzero;"/>
    <path d="M497.022,435.185C516.787,441.487 536.784,461.121 540.568,481.041C540.631,481.389 541.14,481.458 541.264,481.133C541.674,480.014 541.843,479.295 542.314,478.469C543.033,477.218 544.785,476.762 546.361,477.287C548.725,478.09 552.154,479.419 553.907,480.129C554.247,480.276 554.595,480.021 554.464,479.673C545.072,455.213 518.208,437.333 497.138,434.373C496.033,434.219 495.384,434.213 495.361,434.428C495.322,434.668 495.677,434.783 497.014,435.192M452.95,472.166C457.074,470.806 458.565,473.54 458.565,473.54C458.773,473.857 459.267,473.734 459.291,473.355C459.577,467.77 462.218,450.068 475.156,438.698C475.827,438.111 476.236,437.694 476.082,437.516C475.936,437.347 475.411,437.632 474.53,438.034C460.82,444.283 449.683,458.927 447.412,466.574C447.327,466.851 447.536,467.145 447.829,467.09C450.957,466.527 452.456,468.203 452.942,472.166M462.976,435.185C464.312,434.775 464.667,434.66 464.629,434.42C464.598,434.204 463.957,434.211 462.852,434.366C441.782,437.324 414.926,455.205 405.526,479.666C405.386,480.013 405.735,480.268 406.083,480.122C407.836,479.412 411.265,478.075 413.628,477.279C415.205,476.754 416.958,477.209 417.676,478.461C418.147,479.287 418.318,480.006 418.726,481.125C418.85,481.45 419.36,481.389 419.422,481.033C423.206,461.113 443.202,441.479 462.968,435.177M486.07,457.716C486.07,454.363 483.359,451.644 479.999,451.644C476.639,451.644 473.935,454.363 473.935,457.716C473.935,461.069 476.647,463.786 479.999,463.786C483.351,463.786 486.069,461.067 486.069,457.716L486.07,457.716ZM482.843,438.953C482.802,437.392 481.507,436.131 479.946,436.131C478.385,436.131 477.09,437.392 477.049,438.953C477.099,440.507 478.391,441.758 479.946,441.758C481.5,441.758 482.792,440.507 482.842,438.953L482.843,438.953ZM483.52,446.747C483.52,444.777 481.922,443.18 479.945,443.18C477.968,443.18 476.375,444.778 476.375,446.747C476.375,448.716 477.975,450.324 479.945,450.324C481.915,450.324 483.52,448.724 483.52,446.747ZM484.07,430.604C484.07,428.342 482.208,426.48 479.946,426.48C477.684,426.48 475.822,428.342 475.822,430.604C475.822,432.866 477.684,434.728 479.946,434.728C482.208,434.728 484.07,432.866 484.07,430.604ZM499.841,486.887C499.841,484.764 498.119,483.041 495.994,483.041C493.869,483.041 492.156,484.764 492.156,486.887C492.156,489.01 493.871,490.734 495.994,490.734C498.117,490.734 499.841,489.012 499.841,486.887ZM531.85,492.812C531.85,490.688 530.127,488.966 528.004,488.966C525.881,488.966 524.164,490.688 524.164,492.812C524.164,494.936 525.887,496.659 528.004,496.659C530.121,496.659 531.85,494.936 531.85,492.812ZM460.157,486.887C460.157,489.012 461.879,490.734 464.004,490.734C466.129,490.734 467.842,489.012 467.842,486.887C467.842,484.762 466.119,483.041 464.004,483.041C461.889,483.041 460.157,484.764 460.157,486.887ZM428.149,492.812C428.149,494.936 429.871,496.659 431.995,496.659C434.119,496.659 435.833,494.936 435.833,492.812C435.833,490.688 434.111,488.966 431.995,488.966C429.879,488.966 428.149,490.688 428.149,492.812ZM446.741,436.173C446.744,436.173 446.748,436.173 446.751,436.173C448.852,436.173 450.581,434.444 450.581,432.343C450.581,430.323 448.982,428.632 446.965,428.519C446.962,428.519 446.958,428.519 446.955,428.519C444.854,428.519 443.125,430.248 443.125,432.349C443.125,434.369 444.724,436.06 446.741,436.173ZM436.537,440.692C438.916,440.759 440.93,438.86 441.002,436.482C441.003,436.44 441.004,436.399 441.004,436.357C441.004,434.026 439.122,432.091 436.792,432.026C436.75,432.025 436.707,432.024 436.664,432.024C434.286,432.024 432.33,433.981 432.33,436.359C432.33,438.689 434.208,440.623 436.537,440.692Z" style="fill:rgb(1,1,1);fill-rule:nonzero;"/>
    <path d="M426.22,446.933C426.267,446.934 426.314,446.935 426.362,446.935C428.902,446.935 431.009,444.884 431.078,442.345C431.08,442.296 431.08,442.247 431.08,442.197C431.08,439.658 429.028,437.552 426.49,437.486C426.444,437.485 426.398,437.484 426.352,437.484C423.811,437.484 421.703,439.534 421.631,442.074C421.63,442.12 421.629,442.166 421.629,442.212C421.629,444.753 423.679,446.861 426.219,446.933L426.22,446.933ZM465.547,432.35C467.144,432.356 468.466,431.051 468.482,429.454C468.487,427.857 467.183,426.535 465.586,426.519C463.99,426.516 462.67,427.819 462.651,429.415C462.641,431.014 463.948,432.339 465.547,432.35ZM456.51,433.315C456.519,433.315 456.528,433.315 456.537,433.315C458.366,433.315 459.872,431.814 459.877,429.985C459.877,429.977 459.877,429.968 459.877,429.96C459.877,428.131 458.378,426.622 456.549,426.611C454.71,426.604 453.191,428.109 453.181,429.948C453.181,429.956 453.181,429.965 453.181,429.973C453.181,431.802 454.682,433.308 456.511,433.315L456.51,433.315ZM416.299,455.02C419.126,455.035 421.436,452.756 421.443,449.938C421.459,447.11 419.18,444.801 416.36,444.793C413.534,444.77 411.233,447.057 411.217,449.875C411.217,449.89 411.217,449.905 411.217,449.92C411.217,452.711 413.508,455.01 416.299,455.02ZM407.025,465.185C407.038,465.185 407.05,465.185 407.063,465.185C410.072,465.185 412.55,462.717 412.563,459.708C412.563,459.693 412.563,459.679 412.563,459.664C412.563,456.659 410.099,454.184 407.094,454.17C407.08,454.17 407.067,454.17 407.053,454.17C404.047,454.17 401.568,456.632 401.548,459.638C401.525,462.682 403.981,465.162 407.025,465.185ZM399.324,477.55C399.338,477.55 399.352,477.55 399.366,477.55C402.587,477.55 405.241,474.909 405.256,471.688C405.256,471.675 405.256,471.663 405.256,471.65C405.256,468.428 402.615,465.772 399.393,465.755C396.183,465.792 393.562,468.443 393.562,471.654C393.562,474.838 396.14,477.477 399.323,477.551L399.324,477.55ZM457.499,446.523C457.507,446.523 457.516,446.523 457.524,446.523C459.244,446.523 460.662,445.115 460.673,443.395C460.673,443.387 460.673,443.379 460.673,443.371C460.673,441.651 459.265,440.233 457.545,440.221C457.537,440.221 457.529,440.221 457.521,440.221C455.801,440.221 454.383,441.629 454.371,443.349C454.371,443.359 454.371,443.369 454.371,443.379C454.371,445.098 455.78,446.515 457.499,446.524L457.499,446.523ZM471.968,437.51C473.436,437.51 474.644,436.302 474.644,434.834C474.644,433.366 473.436,432.158 471.968,432.158C470.493,432.157 469.288,433.354 469.288,434.829C469.288,436.304 470.493,437.509 471.968,437.509L471.968,437.51ZM464.97,441.472C466.437,441.472 467.646,440.267 467.65,438.8C467.65,437.325 466.445,436.12 464.97,436.12C463.495,436.12 462.29,437.317 462.29,438.8C462.291,440.266 463.498,441.472 464.964,441.472C464.966,441.472 464.968,441.472 464.97,441.472ZM449.026,454.224C451.221,454.224 453.004,452.448 453.004,450.246C453.003,448.065 451.208,446.27 449.027,446.27C446.845,446.27 445.05,448.065 445.05,450.247C445.05,452.428 446.845,454.223 449.026,454.224ZM440.398,464.82C443.024,464.82 445.148,462.696 445.148,460.07C445.148,457.444 443.024,455.32 440.398,455.32C437.772,455.32 435.648,457.444 435.648,460.07C435.648,462.696 437.773,464.82 440.398,464.82ZM431.377,477.326C434.351,477.326 436.753,474.916 436.753,471.95C436.753,468.984 434.343,466.566 431.377,466.566C428.411,466.566 426.002,468.976 426.002,471.95C426.002,474.924 428.412,477.326 431.377,477.326Z" style="fill:rgb(1,1,1);fill-rule:nonzero;"/>
    <path d="M482.903,416.918C482.903,418.524 481.605,419.822 479.999,419.822C478.393,419.822 477.095,418.524 477.095,416.918C477.095,415.312 478.393,414.014 479.999,414.014C481.605,414.014 482.903,415.312 482.903,416.918ZM479.953,506.66C482.025,506.66 483.73,508.365 483.73,510.438C483.73,512.51 482.025,514.215 479.953,514.215C479.952,514.215 479.952,514.215 479.952,514.215C477.88,514.215 476.175,512.51 476.175,510.438C476.175,508.366 477.88,506.661 479.952,506.661L479.953,506.66ZM454.72,512.415C454.698,512.25 454.687,512.084 454.687,511.917C454.687,509.844 456.393,508.139 458.466,508.139C460.351,508.139 461.962,509.55 462.211,511.419C462.478,513.47 461.017,515.38 458.968,515.659C458.801,515.682 458.632,515.693 458.464,515.693C456.58,515.693 454.969,514.283 454.72,512.415ZM434.808,518.308C434.135,516.446 435.078,514.446 436.917,513.836C438.756,513.226 440.786,514.238 441.458,516.099C442.138,517.961 441.188,519.961 439.35,520.572C437.511,521.182 435.48,520.169 434.808,518.308ZM497.787,511.418C498.029,509.551 499.637,508.139 501.52,508.139C501.692,508.139 501.864,508.15 502.035,508.174C503.902,508.421 505.312,510.03 505.312,511.913C505.312,512.081 505.301,512.248 505.279,512.414C505.037,514.281 503.429,515.694 501.546,515.694C501.374,515.694 501.202,515.683 501.031,515.659C499.164,515.412 497.754,513.803 497.754,511.92C497.754,511.752 497.765,511.585 497.787,511.419L497.787,511.418ZM518.54,516.1C519.211,514.238 521.243,513.225 523.082,513.836C524.92,514.454 525.87,516.446 525.197,518.308C524.526,520.169 522.495,521.182 520.648,520.572C518.81,519.961 517.868,517.961 518.54,516.099L518.54,516.1ZM479.948,474.731C481.948,474.731 483.578,476.361 483.578,478.361C483.578,480.361 481.948,481.991 479.948,481.991C477.947,481.991 476.318,480.361 476.318,478.361C476.318,476.361 477.947,474.731 479.948,474.731ZM513.157,478.407C515.157,478.407 516.787,480.037 516.787,482.037C516.787,484.037 515.157,485.667 513.157,485.667C511.157,485.667 509.527,484.037 509.527,482.037C509.527,480.037 511.157,478.407 513.157,478.407ZM545.977,488.571C547.977,488.571 549.607,490.201 549.607,492.201C549.607,494.201 547.977,495.831 545.977,495.831C543.977,495.831 542.347,494.202 542.347,492.201C542.347,490.2 543.977,488.571 545.977,488.571ZM450.47,482.037C450.47,484.037 448.84,485.667 446.84,485.667C444.84,485.667 443.21,484.037 443.21,482.037C443.21,480.037 444.84,478.407 446.84,478.407C448.84,478.407 450.47,480.037 450.47,482.037ZM417.654,492.202C417.654,494.202 416.024,495.832 414.024,495.832C412.024,495.832 410.394,494.202 410.394,492.202C410.394,490.202 412.024,488.572 414.024,488.572C416.024,488.572 417.654,490.201 417.654,492.202Z" style="fill:white;fill-rule:nonzero;"/>
    <path d="M374.137,86.795C369.518,86.795 367.062,87.753 365.186,89.22C361.872,91.847 360.18,96.442 360.18,103.68C360.18,110.918 361.872,115.512 365.185,118.139C367.062,119.598 369.519,120.556 374.137,120.556C378.755,120.556 381.212,119.598 383.088,118.139C386.395,115.512 388.094,110.916 388.094,103.679C388.094,96.442 386.402,91.847 383.089,89.22C381.212,87.753 378.749,86.795 374.137,86.795ZM374.137,92.387C375.667,92.387 376.593,92.959 377.18,93.839C377.968,95.052 378.254,96.72 378.254,103.679C378.254,110.638 377.968,112.314 377.18,113.519C376.593,114.393 375.667,114.971 374.137,114.971C372.607,114.971 371.674,114.401 371.087,113.519C370.298,112.307 370.013,110.639 370.013,103.679C370.013,96.719 370.298,95.044 371.087,93.839C371.673,92.967 372.6,92.387 374.137,92.387ZM356.82,104.467L356.82,118.277C356.82,119.49 356.372,119.984 355.12,119.984L328.605,119.984L328.605,114.878C331.765,114.878 332.39,113.921 332.39,111.133L332.39,89.576C332.39,86.216 331.788,85.382 328.605,85.382L328.605,80.276L347.151,80.276L347.151,85.382C343.111,85.382 342.369,86.742 342.369,89.692L342.369,113.38C342.369,114.122 342.617,114.43 343.435,114.43C348.556,114.43 350.41,112.616 352.457,104.475L356.82,104.475L356.82,104.467ZM464.621,112.447L456.658,82.687C456.178,80.91 455.508,80.277 453.522,80.277L436.267,80.277L436.267,85.065C439.148,85.243 439.866,86.448 439.055,89.522L433.247,111.48C432.606,113.913 431.787,114.71 429.587,114.825L429.587,119.992L445.15,119.992L445.15,114.825C441.341,114.825 440.423,113.72 441.002,111.403L441.295,110.213C441.45,109.603 441.689,109.333 442.454,109.333L452.534,109.333C453.298,109.333 453.538,109.603 453.692,110.213L454.017,111.48C454.565,113.713 453.692,114.832 450.433,114.832L450.433,120L467.765,120L467.765,114.832C465.873,114.747 465.062,114.099 464.636,112.462M451.012,104.104L443.968,104.104C443.095,104.104 442.871,103.818 443.095,102.945L446.702,88.34C446.849,87.76 447.103,87.506 447.49,87.506C447.877,87.506 448.139,87.761 448.285,88.34L451.892,102.945C452.109,103.827 451.892,104.104 451.02,104.104M546.293,93.237C545.466,94.226 545.103,96.048 545.103,99.817C545.103,100.543 545.373,100.807 546.076,100.807L552.278,100.807C552.989,100.807 553.22,100.537 553.251,99.817C553.382,96.627 552.958,94.226 552.147,93.237C551.583,92.55 550.803,92.102 549.281,92.102C547.759,92.102 546.871,92.549 546.3,93.237M550.61,115.165C553.87,115.165 556.048,113.426 557.492,109.635L561.609,109.635L561.609,115.172C561.609,117.736 560.937,118.555 558.759,119.274C556.333,120.077 553.306,120.556 549.653,120.556C544.748,120.556 541.589,119.536 539.356,117.436C536.591,114.826 535.348,110.6 535.348,103.85C535.348,97.1 536.715,93.06 539.527,90.178C541.55,88.085 544.47,86.795 549.746,86.795C554.341,86.795 557.454,88.031 559.4,90.116C561.701,92.596 562.505,96.21 562.505,101.98C562.505,105.279 561.995,105.919 559.523,105.919L546.069,105.919C545.366,105.919 545.096,106.189 545.096,106.908C545.096,113.172 546.964,115.165 550.603,115.165M592.651,93.237C591.825,94.226 591.461,96.048 591.461,99.817C591.461,100.543 591.731,100.807 592.435,100.807L598.636,100.807C599.347,100.807 599.579,100.537 599.609,99.817C599.742,96.627 599.316,94.226 598.505,93.237C597.942,92.55 597.161,92.102 595.639,92.102C594.117,92.102 593.23,92.549 592.659,93.237M596.969,115.165C600.227,115.165 602.406,113.426 603.849,109.635L607.967,109.635L607.967,115.172C607.967,117.736 607.295,118.555 605.117,119.274C602.691,120.077 599.664,120.556 596.01,120.556C591.106,120.556 587.946,119.536 585.715,117.436C582.95,114.826 581.706,110.6 581.706,103.85C581.706,97.1 583.073,93.06 585.884,90.178C587.908,88.085 590.827,86.795 596.104,86.795C600.698,86.795 603.811,88.031 605.758,90.116C608.06,92.596 608.862,96.21 608.862,101.98C608.862,105.279 608.353,105.919 605.882,105.919L592.427,105.919C591.724,105.919 591.454,106.189 591.454,106.908C591.454,113.172 593.33,115.165 596.96,115.165M576.694,111.898C576.694,113.952 577.604,114.878 579.651,114.878L579.651,119.984L571.449,119.984C568.529,119.984 567.27,118.624 567.27,115.79L567.27,88.386C567.27,86.34 566.359,85.405 564.312,85.405L564.312,80.3L576.694,80.3L576.694,111.898ZM414.787,97.323L411.219,97.323C409.651,93.7 406.739,91.963 403.418,91.963C400.9,91.963 399.895,93.129 399.895,94.681C399.895,96.435 400.908,97.477 403.31,98.319L407.681,99.84C414.177,102.111 416.618,104.954 416.618,110.283C416.618,117.258 411.968,120.548 403.534,120.548C400.53,120.548 397.324,120.154 395.184,119.644C392.334,118.957 391.856,118.224 391.856,116.208L391.856,109.635L395.686,109.635C397.502,113.257 400.174,115.335 404.067,115.335C406.894,115.335 408.237,114.029 408.237,112.13C408.237,110.229 407.017,109.171 404.344,108.236L400.089,106.761C394.173,104.707 391.771,101.795 391.771,96.442C391.771,90.433 395.547,86.787 404.021,86.787C406.624,86.787 409.157,87.12 411.451,87.652C414.277,88.302 414.779,89.128 414.779,91.492L414.779,97.315L414.787,97.323ZM635.973,97.323L632.405,97.323C630.837,93.7 627.925,91.963 624.611,91.963C622.093,91.963 621.082,93.129 621.082,94.681C621.082,96.435 622.102,97.477 624.495,98.319L628.868,99.84C635.363,102.111 637.811,104.954 637.811,110.283C637.811,117.258 633.154,120.548 624.719,120.548C621.715,120.548 618.518,120.154 616.369,119.644C613.529,118.957 613.049,118.224 613.049,116.208L613.049,109.635L616.88,109.635C618.695,113.257 621.375,115.335 625.26,115.335C628.095,115.335 629.432,114.029 629.432,112.13C629.432,110.229 628.21,109.171 625.538,108.236L621.283,106.761C615.366,104.707 612.964,101.795 612.964,96.442C612.964,90.433 616.741,86.787 625.221,86.787C627.824,86.787 630.351,87.12 632.644,87.652C635.471,88.302 635.973,89.128 635.973,91.492L635.973,97.323ZM501.664,114.879L501.664,119.984L493.238,119.984C490.318,119.984 489.059,118.624 489.059,115.79C489.059,110.19 489.222,103.943 489.222,97.624C489.222,94.735 488.302,93.584 486.457,93.584C484.054,93.584 482.51,95.4 482.51,99.2L482.51,111.905C482.51,113.96 483.42,114.887 485.468,114.887L485.468,119.992L470.128,119.992L470.128,114.887C472.175,114.887 473.086,113.96 473.086,111.905L473.086,95.46C473.086,93.406 472.175,92.479 470.128,92.479L470.128,87.374L476.925,87.374C479.883,87.374 481.011,88.316 481.66,90.957C481.784,91.475 482.124,91.521 482.417,91.057C484.217,88.269 486.711,86.802 490.712,86.802C496.335,86.802 498.868,89.83 498.868,96.132C498.868,102.434 498.707,106.312 498.707,111.912C498.707,113.967 499.617,114.894 501.664,114.894M517.692,106.853C518.912,106.853 519.615,106.49 520.186,105.903C521.198,104.86 521.584,103.277 521.584,99.623C521.584,95.969 521.198,94.379 520.187,93.336C519.615,92.749 518.912,92.386 517.692,92.386C516.47,92.386 515.768,92.749 515.197,93.336C514.184,94.379 513.798,95.97 513.798,99.623C513.798,103.276 514.184,104.86 515.197,105.903C515.767,106.49 516.47,106.853 517.692,106.853ZM517.869,128.294C522.534,128.294 523.87,127.97 524.651,127.336C525.214,126.873 525.476,126.247 525.476,125.521C525.476,124.123 524.558,123.56 522.534,123.56C518.974,123.56 515.49,123.653 512.161,123.653C510.138,123.653 509.211,124.417 509.211,125.722C509.211,126.409 509.481,126.996 510.068,127.414C510.871,128.001 511.93,128.279 516.966,128.279L517.876,128.279L517.869,128.294ZM528.443,92.873C530.258,94.649 531.208,97.16 531.208,100.403C531.208,107.503 526.535,112.445 517.398,112.445C515.468,112.445 515.204,112.352 513.698,112.352C512.339,112.352 511.768,112.939 511.768,113.697C511.768,114.677 512.408,115.403 514.556,115.403C517.884,115.403 520.348,115.24 523.916,115.24C530.93,115.24 533.602,118.153 533.602,123.041C533.602,125.854 532.66,128.047 530.845,129.607C528.589,131.538 525.655,132.457 517.536,132.457L515.59,132.457C508.693,132.457 506.36,131.8 504.847,130.634C503.65,129.714 503.093,128.44 503.093,126.865C503.093,124.695 504.368,122.965 506.963,122.262C507.372,122.146 507.31,121.822 506.963,121.605C505.079,120.447 504.159,118.817 504.159,116.576C504.159,113.851 505.727,111.673 508.886,110.892C509.326,110.776 509.334,110.444 508.994,110.189C505.812,107.834 504.329,104.543 504.329,99.631C504.329,91.444 508.893,86.801 517.992,86.801C521.275,86.801 523.345,87.373 527.632,87.373L534.081,87.373L534.081,92.154L528.713,92.154C528.18,92.154 528.041,92.502 528.435,92.888" style="fill:rgb(1,1,1);fill-rule:nonzero;"/>
    <path d="M718.38,233.47C718.38,234.505 718.96,235.516 723.285,236.158C725.386,236.466 727.873,236.806 730.492,237.139C730.726,241.612 731.514,246.038 732.839,250.316L739.181,250.176C737.413,245.009 736.469,239.595 736.385,234.134L718.38,233.462L718.38,233.471L718.38,233.47ZM665.593,181.767C674.978,182.672 680.763,188.611 682.531,204.12L688.271,203.541C686.262,187.028 679.566,181.629 668.691,181.629C667.632,181.629 666.597,181.675 665.585,181.775M710.19,306.9L704.39,306.9L693.452,339.402L699.384,339.032L710.189,306.901L710.19,306.9ZM753.792,299.246C757.671,299.778 764.429,300.435 771.449,301.022C775.559,305.989 778.277,310.669 779.752,315.38L786.116,315.242C784.603,309.533 781.366,303.879 776.053,297.863L748.703,296.658C748.703,297.84 749.444,298.651 753.785,299.246M761.307,177.302C773.657,166.767 790.264,161.152 811.134,160.773C809.929,160.743 808.739,160.735 807.572,160.735C785.429,160.735 767.972,166.512 755.151,177.635L761.307,177.31L761.307,177.302ZM808.336,181.583C807.363,181.583 806.412,181.629 805.486,181.698C813.28,182.293 818.4,185.406 821.258,192.442L826.804,191.816C823.529,184.386 817.566,181.575 808.344,181.575M694.226,253.892C694.226,254.982 695.03,255.908 699.386,256.449C707.295,257.429 722.202,258.728 736.722,259.809C740.345,266.869 745.496,273.773 752.17,280.841L759.391,280.632C751.29,272.182 745.241,264.072 741.379,255.684L694.219,253.893L694.226,253.893L694.226,253.892ZM727.477,284.232C727.477,285.429 728.335,286.286 732.676,286.85C739.65,287.738 750.764,288.665 760.396,289.298L764.065,293.068L771.04,292.573L764.474,285.845L727.485,284.232L727.477,284.232ZM392.89,322.672L403.347,291.606L365.508,290.046C365.508,291.298 366.319,292.217 370.668,292.726C376.885,293.461 386.587,294.402 396.318,295.229L386.965,323.003L392.881,322.68L392.889,322.672L392.89,322.672ZM302.005,327.46L310.532,302.097L262.367,300.52C262.367,301.772 263.657,302.977 267.812,303.355C276.076,304.105 290.064,305.039 303.488,305.788L296.135,327.646L301.998,327.461L302.005,327.461L302.005,327.46ZM511.504,250.834C512.787,251.104 514.193,251.398 515.683,251.698L496.853,307.603L496.706,318.3C496.645,322.093 497.756,322.17 499.023,318.416L522.325,249.219L506.577,247.976C506.577,249.15 507.234,249.922 511.512,250.841M513.49,215.404C516.331,215.906 521.862,216.686 527.253,217.319L518.031,244.699L523.994,244.244L533.656,215.544C533.842,215.003 534.011,214.477 534.182,213.952L508.352,212.646C508.352,213.798 509.172,214.64 513.482,215.411M596.39,199C599.943,193.856 603.604,189.407 607.474,185.545C623.462,169.58 643.706,161.308 674.269,160.837C673.249,160.814 672.207,160.791 671.225,160.791C639.087,160.791 618.141,169.101 601.657,185.553C597.711,189.499 593.972,194.041 590.357,199.339L596.391,199.008L596.391,198.999L596.39,199ZM529.965,208.932L535.827,208.608C541.002,190.302 537.224,184.981 523.407,181.984L529.377,164.235L523.577,164.235L516.834,184.263C532.22,187.607 535.124,191.546 529.964,208.924M738.515,184.115C740.98,184.532 744.138,185.011 747.568,185.459C742.416,191.846 738.268,199.399 735.241,208.174C732.584,215.875 731.054,222.95 730.575,229.624L736.523,228.913C736.97,222.486 738.462,215.635 741.041,208.173C744.524,198.095 749.444,189.598 755.731,182.671L733.403,181.335C733.403,182.671 734.205,183.389 738.515,184.115ZM568.39,260.179C570.661,253.583 572.878,247.496 575.08,241.835L559.787,240.623C559.787,241.603 560.45,242.415 562.506,243.002C564.081,243.458 566.058,243.92 568.298,244.353C566.313,249.599 564.408,254.875 562.582,260.179C561.448,263.452 560.344,266.734 559.269,270.027L565.216,269.564C566.251,266.428 567.309,263.299 568.391,260.179L568.39,260.179ZM582.695,223.662L569.41,222.611C569.41,223.754 570.22,224.419 572.63,225.083C573.71,225.376 574.797,225.644 575.89,225.886C574.189,229.687 572.564,233.521 571.016,237.387L577.018,236.923C578.918,232.197 580.803,227.771 582.695,223.67M592.996,204.197L569.416,203.007C569.416,204.104 570.528,205.117 572.606,205.48C575.966,206.058 580.6,206.7 585.389,207.21C583.195,210.955 581.033,215.05 578.878,219.498L584.895,219.034C587.575,213.536 590.263,208.631 593.005,204.204M134.345,326.04L141.745,304.05L120.172,302.729C120.172,303.849 120.712,304.923 125.03,305.633C127.841,306.089 131.24,306.606 134.916,307.085L128.483,326.202L134.345,326.032L134.345,326.04ZM563.532,274.746L546.432,273.395C546.432,274.575 547.088,275.542 551.39,276.476C552.865,276.8 554.75,277.163 556.843,277.549C551.645,294.149 548.285,307.857 546.679,319.398L552.526,319.058C554.233,306.954 557.878,292.449 563.54,274.746M798.968,213.481C804.784,214.161 814.292,214.995 824.07,215.613C823.978,219.356 823.79,223.095 823.506,226.828L829.315,226.828C829.708,221.459 829.917,216.671 829.91,212.408L794.295,210.848C794.295,212.338 795.4,213.056 798.968,213.473M631.989,266.328L625.254,286.364C640.161,288.766 643.66,290.982 639.395,306.476L645.189,306.322C649.422,290.186 645.815,286.162 631.819,284.077L637.789,266.327L631.989,266.327L631.989,266.328ZM828.442,196.868L810.26,196.064C810.26,197.184 811.01,197.987 815.335,198.683C817.258,198.991 820.062,199.409 823.228,199.841C823.591,202.088 823.846,204.568 823.97,207.318L829.77,207.155C829.562,203.201 829.13,199.787 828.434,196.86M551.892,324.294L529.655,322.881C529.655,324.041 530.42,324.967 534.722,325.762C537.31,326.242 541.365,326.875 545.814,327.492C545.327,334.374 545.605,340.398 546.594,345.744L552.364,345.558C551.244,339.441 551.081,332.451 551.892,324.294ZM688.913,217.514C688.952,214.277 688.883,211.303 688.727,208.577L670.692,207.758C670.692,208.955 671.736,209.774 674.817,210.253C677.01,210.593 679.984,210.971 683.051,211.296C683.121,213.288 683.121,215.443 683.081,217.683L688.913,217.521L688.913,217.514ZM787.043,320.694L740.979,318.942C740.979,320.061 741.798,320.965 746.161,321.505C754.797,322.571 769.209,323.946 781.104,324.842C781.011,328.774 780.154,332.875 778.632,337.285L784.548,336.961C786.533,331.191 787.438,325.861 787.043,320.694ZM642.052,316.593C642.619,314.919 643.164,313.238 643.689,311.55L608.94,310.035C608.94,311.217 609.875,311.905 612.609,312.268C618.942,313.095 628.219,314.045 636.878,314.725C636.668,315.343 636.468,315.96 636.251,316.601L632.389,328.071L638.306,327.747L642.06,316.601L642.052,316.593ZM750.178,360.295C751.158,360.357 752.156,360.388 753.191,360.388C766.483,360.388 776.471,354.641 782.355,342.368L758.188,340.917C758.188,342.074 759.045,343.203 763.385,343.789C766.869,344.252 770.846,344.739 775.057,345.21C769.503,354.726 761.046,359.592 750.178,360.288M636.474,333.177L611.835,331.694C611.835,332.821 612.732,333.555 615.712,334.049C619.822,334.737 624.541,335.409 629.716,336.042L626.658,345.126L632.62,344.662L636.482,333.177L636.474,333.177ZM687.948,234.939C688.335,230.551 688.605,226.512 688.76,222.765L653.315,221.22C653.315,222.372 654.119,223.206 658.475,223.778C665.001,224.642 673.018,225.523 682.773,226.334C682.619,229.053 682.403,231.91 682.14,234.939L687.948,234.939ZM619.436,359.546C621.344,359.461 623.183,359.329 624.928,359.075C626.937,358.788 628.203,357.769 628.96,355.537L630.96,349.567L615.629,348.347C615.629,349.327 616.587,350.107 618.649,350.647C620.093,351.019 622.179,351.435 624.419,351.752L623.144,355.529C622.448,357.599 621.646,358.827 619.428,359.545M455.776,212.253C455.839,208.538 454.696,208.553 453.49,212.13L449.814,223.059L448.972,281.744L454.78,281.141L455.77,212.253L455.776,212.253ZM170.569,198.775L176.277,198.435C178.077,187.945 174.98,184.695 167.665,181.991L173.627,164.241L167.827,164.241L161.092,184.27C169.264,186.742 172.299,189.243 170.577,198.775M127.191,219.505C136.197,220.432 149.505,221.328 163.515,222.093L153.275,252.525L159.183,252.232L170.568,218.378L122.255,216.802C122.255,218.092 123.677,219.15 127.191,219.505ZM428.204,196.072L434.259,195.602C435.079,187.375 431.703,184.425 423.362,181.984L429.332,164.235L423.524,164.235L416.788,184.263C425.007,186.093 428.698,188.457 428.197,196.064M120.751,283.697C125.834,284.292 133.921,285.118 142.054,285.876L137.559,299.246L143.475,298.921L148.99,282.507L115.762,280.971C115.732,282.253 117.245,283.288 120.752,283.697L120.751,283.697ZM252.295,204.382L247.7,208.592L256.18,208.306L256.49,208.019C271.613,194.163 270.214,184.323 258.01,181.991L263.982,164.241L258.173,164.241L251.438,184.277C264.908,185.79 265.333,192.434 252.288,204.39M335.95,164.235L329.214,184.263C337.764,186.85 340.699,189.476 338.421,200.158L344.128,199.873C346.461,188.24 343.433,184.811 335.778,181.983L341.749,164.235L335.949,164.235L335.95,164.235ZM155.677,204.853C159.075,205.433 163.44,206.081 168.56,206.738C167.912,208.897 167.227,211.045 166.506,213.18L172.345,213.064C173.48,209.589 174.392,206.552 175.086,203.865L152.086,202.367C152.086,203.671 152.996,204.397 155.686,204.853M559.638,363.222C556.997,359.507 554.988,355.405 553.605,350.772L521.212,349.235C521.212,350.339 522.039,351.219 526.372,351.791C531.261,352.439 540.946,353.498 548.994,354.255C550.233,357.432 551.86,360.444 553.837,363.222C561.847,374.514 579.07,381.242 603.161,381.242C604.49,381.242 605.803,381.226 607.116,381.211C583.998,380.879 567.438,374.229 559.638,363.231M132.121,332.675L132.538,331.447L97.07,329.809C97.07,331.076 97.952,331.987 102.585,332.566C108.355,333.286 116.118,334.166 125.479,335.077C119.231,352.779 114.489,355.837 102.709,357.823L95.966,377.851L101.766,377.851L107.737,360.101C120.86,356.958 125.432,352.541 132.121,332.667M453.607,363.345L453.893,343.573L425.153,342.229C425.153,343.472 425.995,344.252 430.321,344.917C435.264,345.667 441.465,346.392 448.038,346.925L447.808,363.353C447.598,374.275 450.657,377.859 459.863,377.859L465.672,377.859C456.457,377.859 453.399,374.275 453.607,363.353M689.885,367.277L697.747,343.913L680.292,342.986C680.292,344.392 681.026,345.249 685.312,346.067C687.019,346.392 688.919,346.709 690.896,347.002L684.988,364.566C682.864,370.854 684.416,373.488 693.167,375.58C688.834,374.546 688.093,372.545 689.877,367.277M390.828,328.806L391.098,327.987L368.135,326.581C368.135,327.801 368.745,328.574 373.04,329.408C376.577,330.095 380.285,330.69 384.186,331.238C377.204,351.128 372.206,354.41 358.411,357.831L351.668,377.867L357.476,377.867L363.447,360.117C377.605,356.533 383.39,350.88 390.828,328.813M209.814,346.145L209.604,340.615L178.718,339.094C178.718,340.299 179.636,341.264 182.371,341.658C188.427,342.546 195.856,343.411 203.928,344.138L204.012,346.145C205.264,372.885 210.508,378.539 233.271,378.539C234.46,378.539 235.634,378.524 236.801,378.508C215.961,378.121 211.034,371.966 209.821,346.138M275.867,360.11C288.981,356.966 293.563,352.548 300.243,332.69L268.166,331.2C268.166,332.443 269.194,333.37 271.526,333.764C277.436,334.76 285.259,335.734 293.13,336.436C287.105,352.958 282.316,355.885 270.831,357.816L264.096,377.851L269.896,377.851L275.867,360.102L275.867,360.11ZM454.719,286.107L438.213,285.235C438.213,286.425 439.047,287.545 443.373,288.201C444.893,288.433 446.793,288.695 448.872,288.958L448.655,303.996L454.464,303.68L454.719,286.107ZM250.634,213.396L222.804,212.106C222.804,213.343 223.507,214.13 225.995,214.525C230.464,215.21 234.954,215.756 239.457,216.161L225.307,229.137L234.305,228.365L250.635,213.396L250.634,213.396ZM392.675,243.519C398.059,244.199 405.28,244.963 413.035,245.627L407.728,261.384L413.661,261.005L419.932,242.375L387.532,240.87C387.532,242.09 388.242,242.947 392.675,243.511M407.481,219.097C412.037,219.938 416.605,220.716 421.183,221.429L415.839,237.325L421.701,237.139L428.266,217.637L402.422,216.332C402.422,217.582 403.164,218.309 407.482,219.097L407.481,219.097ZM430.06,212.276C431.573,207.626 432.716,203.749 433.442,200.497L417.74,199.254C417.74,200.52 418.42,201.324 422.706,202.189C424.042,202.459 425.479,202.738 427.008,203.023C426.328,205.75 425.37,208.939 424.15,212.608L430.066,212.284L430.059,212.276L430.06,212.276ZM207.428,284.347C207.328,281.737 206.208,281.388 204.369,283.072L201.666,285.544L202.74,313.21L208.533,312.77L207.436,284.339L207.428,284.347ZM208.74,318.247L184.727,317.065C184.727,318.348 185.661,319.305 189.491,319.908C192.674,320.41 197.316,321.035 203.071,321.622L203.603,335.448L209.404,335.208L208.748,318.247L208.74,318.247ZM210.57,232.883C210.57,234.034 211.289,235.077 215.607,235.795C216.225,235.895 216.936,236.003 217.7,236.119L200.214,252.162L196.598,262.905L228.467,233.701L210.571,232.875L210.571,232.884L210.57,232.883ZM328.126,249.813L257.586,248.145C257.586,249.482 258.975,250.555 263.022,250.856C281.575,252.2 299.595,253.18 320.927,253.953L317.143,265.223L322.997,265.075L328.133,249.813L328.126,249.813ZM320.255,206.468C325.151,207.24 330.805,207.966 336.143,208.561C335.628,210.192 335.1,211.82 334.56,213.443L332.844,218.532L338.684,218.432L339.773,215.195C341.024,211.489 342.028,208.236 342.823,205.364L316.223,203.834C316.223,205.124 317.481,206.027 320.271,206.468M453.97,338.212L454.387,309.054L429.438,307.556C429.438,308.769 430.288,309.657 434.621,310.376C438.213,310.97 442.971,311.65 448.539,312.245L448.161,338.505L453.969,338.212L453.97,338.212ZM405.134,286.324L411.962,266.05L393.154,264.775C393.154,265.987 393.834,266.683 398.113,267.61C400.121,268.05 402.523,268.528 405.157,269.007L399.279,286.463L405.134,286.316L405.134,286.324ZM336.908,223.707L285.221,222.124C285.221,223.614 287.152,224.557 290.666,224.828C301.108,225.638 314.656,226.488 329.888,227.306L324.103,244.492L329.934,244.415L336.901,223.699L336.908,223.707ZM150.81,277.11L157.33,257.723L130.968,256.202C130.968,257.275 131.95,257.962 134.544,258.395C138.406,259.036 144.415,259.901 150.54,260.651L144.933,277.311L150.803,277.11L150.811,277.11L150.81,277.11ZM312.324,296.79L321.152,270.56L280.362,268.868C280.332,270.043 281.498,271.078 284.464,271.418C292.636,272.344 304.229,273.464 314.092,274.298L306.484,296.905L312.332,296.789L312.324,296.789L312.324,296.79Z" style="fill:white;fill-rule:nonzero;"/>
    <path d="M863.417,174.005L845.629,226.835L829.309,226.835C829.71,221.46 829.919,216.671 829.911,212.415L794.297,210.855C794.297,209.526 795.579,208.121 800.947,207.973L829.773,207.171C829.571,203.216 829.132,199.802 828.436,196.875L810.254,196.071C810.254,194.689 811.428,193.561 816.812,192.951L826.792,191.823C823.516,184.393 817.553,181.582 808.332,181.582C794.522,181.582 784.843,188.982 779.985,202.66C774.176,219.034 776.764,229.384 790.628,243.488L803.141,256.255C830.931,284.594 835.311,305.656 824.451,335.369C813.561,365.16 790.327,381.195 747.043,381.195C728.653,381.195 708.023,379.117 693.169,375.58C688.837,374.537 688.103,372.537 689.879,367.277L697.742,343.904L680.286,342.978C680.286,341.68 681.144,340.298 685.129,339.919L699.379,339.023L710.185,306.893L727.51,306.893C723.848,348.06 731.843,360.387 753.184,360.387C766.476,360.387 776.47,354.633 782.356,342.36L758.188,340.907C758.188,339.626 759.486,338.313 764.847,338.027L784.542,336.969C786.527,331.191 787.431,325.869 787.036,320.694L740.972,318.949C740.972,317.651 742.301,316.192 747.63,316.061L786.11,315.242C784.596,309.542 781.36,303.879 776.038,297.863L748.688,296.658C748.688,295.299 749.948,294.04 755.3,293.661L771.025,292.564L764.46,285.829L727.47,284.215C727.47,282.91 728.753,281.481 734.129,281.334L759.393,280.624C751.291,272.174 745.243,264.064 741.381,255.676L694.22,253.884C694.22,252.432 695.54,251.126 700.878,251.004L739.18,250.184C737.414,245.016 736.47,239.603 736.384,234.142L718.38,233.47C718.38,232.087 719.539,230.945 724.906,230.303L736.531,228.913C736.979,222.479 738.462,215.628 741.05,208.167C744.526,198.087 749.446,189.591 755.732,182.671L733.403,181.327C733.403,179.921 734.701,178.732 740.061,178.446L761.309,177.302C774.108,166.389 791.447,160.735 813.375,160.735C828.529,160.735 846.804,162.589 859.949,165.663C864.63,166.759 865.341,168.281 863.417,174.005ZM706.757,284.077L712.726,266.327L637.798,266.327L631.828,284.077C645.83,286.162 649.43,290.185 645.197,306.313L615.584,307.147C610.209,307.294 608.926,308.677 608.926,310.027L643.683,311.542C643.157,313.229 642.611,314.91 642.046,316.585L638.292,327.731L618.472,328.797C613.12,329.082 611.823,330.403 611.823,331.677L636.461,333.161L632.591,344.646L622.273,345.449C616.874,345.867 615.615,347.041 615.615,348.339L630.947,349.551L628.938,355.529C628.189,357.761 626.923,358.773 624.907,359.067C621.771,359.514 618.318,359.63 614.681,359.63C606.631,359.63 599.372,357.36 596.105,352.339C590.644,343.919 591.323,328.835 612.147,268.249C630.676,214.237 638.369,199.439 648.047,189.869C653.392,184.579 660.267,181.619 668.677,181.619C679.545,181.619 686.241,187.019 688.265,203.525L677.235,204.629C671.852,205.178 670.678,206.344 670.678,207.742L688.713,208.568C688.867,211.295 688.937,214.253 688.898,217.505L659.958,218.308C654.582,218.454 653.299,219.891 653.299,221.196L688.751,222.741C688.577,226.805 688.304,230.864 687.933,234.914L705.281,234.914L725.926,173.58C727.981,167.447 727.232,166.119 722.134,165.168C707.227,162.411 690.049,160.773 677.027,160.773C644.888,160.773 623.934,169.085 607.459,185.537C603.589,189.397 599.936,193.84 596.376,198.991L576.062,200.111C570.694,200.412 569.404,201.687 569.404,203L592.984,204.189C590.242,208.615 587.554,213.527 584.874,219.019L576.054,219.706C570.662,220.123 569.396,221.189 569.396,222.586L582.68,223.638C580.685,228.011 578.792,232.43 577.004,236.892L566.422,237.711C561.032,238.127 559.765,239.324 559.765,240.599L575.065,241.812C572.719,247.884 570.489,254 568.376,260.156C567.264,263.376 566.206,266.496 565.202,269.54L553.068,270.474C547.669,270.892 546.41,272.051 546.41,273.364L563.51,274.714C557.849,292.41 554.21,306.916 552.496,319.034L536.291,319.968C530.924,320.262 529.634,321.559 529.634,322.849L551.871,324.263C551.059,332.412 551.221,339.409 552.342,345.519L527.849,346.315C522.459,346.484 521.192,347.875 521.192,349.203L553.585,350.74C554.968,355.367 556.975,359.468 559.618,363.191C567.635,374.483 584.852,381.21 608.949,381.21C628.096,381.21 646.503,379.101 660.621,375.032C663.325,374.259 664.421,373.116 665.511,369.902L687.539,304.405C692.273,290.333 695.439,286.834 706.733,284.045M585.183,181.983L591.154,164.234L529.379,164.234L523.409,181.983C537.219,184.988 541.004,190.301 535.829,208.599L515.02,209.758C509.653,210.051 508.363,211.287 508.363,212.639L534.191,213.944C534.021,214.469 533.851,214.986 533.666,215.535L524.003,244.229L513.236,245.063C507.837,245.488 506.578,246.631 506.578,247.952L522.328,249.203L499.018,318.4C497.758,322.146 496.645,322.07 496.707,318.277L498.7,178.909C498.847,167.949 496.059,164.218 485.693,164.218L429.35,164.218L423.379,181.968C431.72,184.416 435.095,187.358 434.277,195.592L424.407,196.357C419.014,196.774 417.748,197.84 417.748,199.238L433.458,200.482C432.733,203.741 431.589,207.618 430.075,212.268L409.098,213.426C403.738,213.728 402.439,214.94 402.439,216.316L428.284,217.612L421.718,237.122L394.206,237.988C388.816,238.15 387.549,239.417 387.549,240.868L419.949,242.375L413.678,261.005L399.844,261.878C394.476,262.218 393.186,263.391 393.186,264.767L411.986,266.041L405.158,286.316L372.193,287.15C366.863,287.28 365.535,288.617 365.535,290.03L403.375,291.599L392.916,322.663L374.565,323.683C369.197,323.977 368.169,325.236 368.169,326.572L391.133,327.978L390.861,328.796C383.423,350.871 377.631,356.525 363.481,360.093L357.511,377.834L419.293,377.834L425.263,360.093C409.839,356.741 406.912,350.516 415.006,326.533L453.548,212.128C454.745,208.545 455.888,208.529 455.827,212.244L454.846,281.133L444.913,282.168C439.521,282.732 438.263,283.914 438.263,285.227L454.768,286.099L454.513,303.671L436.146,304.651C430.786,304.938 429.489,306.041 429.489,307.532L454.436,309.039L454.019,338.189L431.859,339.316C426.499,339.609 425.202,340.776 425.202,342.196L453.942,343.541L453.664,363.314C453.455,374.235 456.514,377.819 465.728,377.819L502.432,377.819L557.858,213.257C565.288,191.182 571.081,185.527 585.238,181.959M343.206,326.89L382.72,209.42C389.41,189.546 393.982,185.135 407.104,181.984L413.075,164.235L341.76,164.235L335.79,181.984C343.428,184.811 346.465,188.24 344.14,199.864L322.876,200.946C317.508,201.247 316.218,202.467 316.218,203.835L342.818,205.363C342.031,208.237 341.019,211.488 339.776,215.196L338.686,218.432L291.88,219.236C286.528,219.336 285.23,220.804 285.23,222.116L336.91,223.708L329.943,244.423L264.236,245.265C258.9,245.334 257.579,246.786 257.579,248.145L328.12,249.815L322.984,265.076L287.007,265.98C281.677,266.119 280.357,267.425 280.357,268.869L321.146,270.553L312.318,296.783L269.025,297.624C263.665,297.733 262.368,299.107 262.368,300.514L310.534,302.088L301.999,327.453L274.819,328.303C269.428,328.473 268.161,329.717 268.161,331.193L300.237,332.675C293.557,352.54 288.977,356.951 275.861,360.102L269.891,377.844L341.204,377.844L347.174,360.102C336.887,356.286 334.948,351.412 343.197,326.882M253.4,343.263L247.6,247.659C247.4,244.423 248.033,243.094 250.28,241.031L295.95,199.207C309.83,186.493 314.781,183.783 323.51,181.998L329.487,164.234L263.99,164.234L258.02,181.983C270.224,184.315 271.614,194.156 256.499,208.013L256.189,208.298L229.465,209.218C224.075,209.378 222.808,210.816 222.808,212.106L250.636,213.396L234.3,228.365L217.162,229.839C211.786,230.381 210.572,231.523 210.572,232.875L228.469,233.701L196.601,262.912L214.597,209.418C221.277,189.545 225.086,187.413 238.209,184.269L244.952,164.234L173.638,164.234L167.668,181.983C174.99,184.686 178.079,187.946 176.279,198.427L158.747,199.469C153.379,199.763 152.088,200.929 152.088,202.359L175.09,203.849C174.395,206.537 173.483,209.581 172.348,213.049L128.925,213.898C123.565,213.998 122.267,215.404 122.267,216.778L170.572,218.362L159.187,252.207L137.63,253.305C132.27,253.598 130.971,254.641 130.971,256.194L157.333,257.707L150.815,277.093L122.429,278.075C117.039,278.237 115.771,279.611 115.771,280.955L149,282.492L143.477,298.906L126.832,299.825C121.472,300.118 120.182,301.37 120.182,302.705L141.754,304.027L134.354,326.017L103.723,326.897C98.393,327.028 97.073,328.411 97.073,329.778L132.533,331.416L132.115,332.644C125.435,352.516 120.861,356.927 107.739,360.078L101.769,377.82L178.017,377.82L183.987,360.078C169.089,357.066 166.602,352.053 175.083,326.866L183.331,302.328L204.378,283.049C206.217,281.365 207.328,281.713 207.438,284.331L208.534,312.762L191.349,314.06C185.989,314.438 184.729,315.698 184.729,317.05L208.743,318.231L209.399,335.192L185.37,336.182C180.01,336.482 178.72,337.687 178.72,339.069L209.608,340.583L209.817,346.114C211.075,372.862 216.32,378.508 239.082,378.508C247.307,378.508 255.224,378.183 260.762,377.634L266.64,359.978C256.97,358.634 254.143,355.483 253.401,343.24" style="fill:rgb(1,1,1);fill-rule:nonzero;"/>
</svg>
