<?xml version="1.0" encoding="UTF-8" standalone="no"?>
<!DOCTYPE svg PUBLIC "-//W3C//DTD SVG 1.1//EN" "http://www.w3.org/Graphics/SVG/1.1/DTD/svg11.dtd">
<svg width="100%" height="100%" viewBox="0 0 960 640" version="1.1" xmlns="http://www.w3.org/2000/svg" xmlns:xlink="http://www.w3.org/1999/xlink" xml:space="preserve" xmlns:serif="http://www.serif.com/" style="fill-rule:evenodd;clip-rule:evenodd;stroke-linejoin:round;stroke-miterlimit:2;">
    <path d="M753.305,314.974L809.401,256.042L782.347,131.28L662.783,95.787L650.527,107.147C610.167,93.83 523.889,77.913 466.16,78.014C269.95,78.354 120.853,185.981 120.28,318.746C119.686,457.92 254.671,561.981 467.862,561.981C617.047,561.981 769.896,482.353 834.488,437.085L753.304,314.973L753.305,314.974Z" style="fill:rgb(0,30,98);fill-rule:nonzero;"/>
    <g>
        <path d="M489.923,362.192L457.325,362.192L457.325,389.831L489.923,389.793L489.923,362.192ZM688.205,325.462C662.872,303.154 625.983,279.787 579.278,268.428L579.278,371.881C614.528,362.135 653.205,345.591 688.205,325.461L688.205,325.462ZM366.316,375.937L366.316,263.812C333.937,273.174 297.65,291.499 297.65,320.519C297.65,340.383 328.317,364.361 366.316,375.937ZM458.057,277.338L489.738,277.338L489.738,251.079L458.057,249.791L458.057,277.338Z" style="fill:white;fill-rule:nonzero;"/>
        <path d="M732.318,327.962C732.318,327.962 647.645,385.737 554.298,403.175L554.298,239.135C655.66,251.887 715.7,318.158 715.7,318.158L783.24,248.347L761.55,150.429L669.258,123.439L657.553,136.201C620.103,121.565 542.84,102.601 457.183,102.601C285.694,102.601 145.648,199.765 145.397,319.676C145.149,436.456 264.017,537.552 455.886,537.552C633.142,537.552 761.082,453.115 801.152,430.482L732.317,327.962L732.318,327.962ZM439.776,297.063L439.776,229.87C463.226,228.693 489.248,229.914 507.656,232.11L507.656,297.063L439.776,297.063ZM507.656,341.497L507.656,409.155C488.565,411.429 459.456,411.992 439.776,410.538L439.776,341.497L507.656,341.497ZM391.06,233.775L391.06,405.91C362.804,405.91 272.619,372.75 272.619,320.512C272.619,255.937 364.776,238.105 391.06,233.775Z" style="fill:white;fill-rule:nonzero;"/>
    </g>
    <path d="M727.375,352.23C616.577,417.292 542.841,429.923 452.881,429.08C326.44,427.887 254.434,377.301 254.434,317.052C254.434,262.734 320.488,210.965 455.432,210.965C546.222,210.965 655.706,235.295 714.174,292.927L762.858,243.312L746.234,164.568L674.451,143.593L661.419,158.321C622.077,142.55 555.58,120.745 453.289,120.745C298.947,120.745 163.593,209.893 163.593,317.815C163.593,430.555 281.449,518.957 448.723,518.957C618.365,518.957 717.94,455.004 775.454,424.833L727.374,352.229L727.375,352.23Z" style="fill:rgb(166,25,46);fill-rule:nonzero;"/>
</svg>
