<?xml version="1.0" encoding="UTF-8" standalone="no"?>
<!DOCTYPE svg PUBLIC "-//W3C//DTD SVG 1.1//EN" "http://www.w3.org/Graphics/SVG/1.1/DTD/svg11.dtd">
<svg width="100%" height="100%" viewBox="0 0 960 640" version="1.1" xmlns="http://www.w3.org/2000/svg" xmlns:xlink="http://www.w3.org/1999/xlink" xml:space="preserve" xmlns:serif="http://www.serif.com/" style="fill-rule:evenodd;clip-rule:evenodd;stroke-linejoin:round;stroke-miterlimit:2;">
    <path d="M480.001,23.577C309.843,23.577 171.912,156.293 171.912,320.007C171.912,483.71 309.843,616.427 480.002,616.427C650.147,616.427 788.087,483.71 788.087,320.007C788.087,156.293 650.147,23.577 480.001,23.577Z" style="fill:rgb(252,76,2);fill-rule:nonzero;"/>
    <g>
        <path d="M255.054,390.43L255.054,371.08L235.934,354.288L235.934,391.638C241.767,390.08 248.953,392.071 255.054,390.43Z" style="fill:rgb(0,48,135);fill-rule:nonzero;"/>
        <path d="M768.492,302.401C741.36,311.918 707.578,323.019 681.395,332.013C672.579,330.578 666.548,335.515 660.292,339.655C650.963,343.686 639.208,342.069 630.005,345.985C621.425,353.077 608.72,356.073 598.188,351.579C595.358,348.355 591.634,344.449 587.18,345.472C580.18,346.166 578.718,358.854 570.054,352.241C564.707,355.058 560.031,358.973 554.122,360.399L545.224,362.601L541.877,369.737L538.825,376.221L536.782,380.576L533.736,387.061L531.693,391.422L528.634,397.907L526.584,402.265L523.544,408.753L499.042,460.92C497.508,464.184 494.565,466.575 491.056,467.408L451.557,476.822C451.742,477.01 451.944,477.179 452.063,477.418L478.199,531.688L478.199,482.131C478.199,480.78 479.311,479.668 480.662,479.668C480.761,479.668 480.859,479.674 480.957,479.686L495.14,481.359C496.378,481.499 497.323,482.56 497.319,483.806L497.319,573.422C497.319,574.722 496.304,575.806 494.994,575.879L479.182,576.821C478.208,576.878 477.287,576.351 476.844,575.482L445.919,515.184L445.919,572.622C445.918,573.336 445.608,574.016 445.069,574.484C444.535,574.953 443.823,575.168 443.119,575.072L428.936,573.128C427.716,572.96 426.799,571.905 426.803,570.674L426.803,482.718L410.243,486.666L423.363,569.785C423.468,570.459 423.215,571.141 422.696,571.583C422.175,572.034 421.453,572.178 420.798,571.963L404.902,566.789C404.195,566.562 403.677,565.952 403.566,565.218L400.567,546.383L379.767,539.604L375.846,555.116C375.707,555.642 375.361,556.091 374.887,556.359C374.407,556.617 373.843,556.671 373.323,556.509L358.115,551.571C357.129,551.255 356.553,550.21 356.812,549.207L370.41,496.16L357.236,499.305C356.028,499.587 354.756,499.354 353.727,498.663C352.692,497.97 351.996,496.872 351.809,495.641L343.714,442.521C343.681,442.3 343.664,442.077 343.664,441.854C343.664,439.645 345.311,437.754 347.5,437.452L480.283,419.172C484.181,418.64 487.567,416.197 489.3,412.665L497.716,395.579L500.883,389.151L503.007,384.835L506.167,378.403L508.297,374.095L511.455,367.666L512.305,365.946C506.128,365.556 497.061,370.222 492.445,371.258C485.431,373.384 474.817,369.796 472.26,379.048C468.157,382.09 461.388,382.963 456.563,380.622C450.849,371.853 440.873,379.161 434.266,379.273C423.747,380.873 415.388,372.101 405.576,377.111C392.889,384.756 377.744,370.458 367.066,382.527C360.261,383.043 353.876,379.819 346.561,380.328C335.841,380.295 326.588,383.668 316.599,385.457C305.313,392.884 289.801,389.299 276.799,388.34C270.255,390.982 262.153,390.248 255.054,390.43L255.054,461.74C255.054,465.953 252.878,467.133 249.485,462.246L235.934,442.776L235.934,391.637C231.506,389.339 227.783,395.003 223.683,396.757C219.582,398.7 215.981,395.331 214.248,391.967C214.248,390.169 212.995,388.559 211.203,387.649C209.077,387.312 205.373,388.532 202.136,389.782C200.779,384.803 199.572,379.784 198.515,374.733C201.24,373.02 204.566,370.713 203.61,367.64C201.802,363.91 196.871,364.267 195.605,359.773C196.141,355.309 197.45,349.453 202.761,348.395C206.699,344.668 206.193,337.168 204.976,332.013C201.418,327.367 196.606,323.591 198.555,317.017C198.555,315.252 196.753,313.095 198.571,311.482C202.873,309.729 207.142,313.79 210.181,316.68C213.031,317.265 213.769,314.005 214.969,312.401C216.041,310.129 214.262,307.424 211.96,306.875C210.002,307.388 208.18,305.966 208.101,304.177C208.819,301.171 209.818,298.314 213.253,297.475C216.957,296.188 220.568,297.616 223.57,299.597C227.118,302.815 226.748,307.98 230.336,310.675C234.949,306.403 231.436,297.653 236.81,293.566C244.475,290.193 251.925,284.489 261.227,285.944C263.737,290.782 262.054,299.714 270.07,300.074C272.265,298.132 272.44,293.116 276.548,295.097C280.145,296.562 279.914,302.778 284.189,301.899C288.508,293.887 280.314,287.266 281.365,279.621C287.115,275.855 294.738,279.102 298.822,283.569C300.651,287.303 293.475,289.426 298.435,292.504C305.588,289.826 308.795,298.054 315.101,296.449C319.158,288.986 327.881,288.096 335.176,290.081C345.903,289.938 352.123,306.006 363.333,299.637C369.447,295.53 381.322,301.241 383.18,291.466C382.45,287.197 385.488,283.239 389.116,282.075C395.144,280.236 400.818,292.745 405.851,283.318C415.236,287.088 426.3,286.933 436.624,288.586C452.506,297.002 473.394,295.818 491.32,296.373C506.905,304.653 529.06,292.848 546.897,295.683L555.24,278.725L485.352,128.195L485.352,268.154C485.35,270.59 483.347,272.595 480.911,272.598L412.951,272.598C411.392,272.599 409.943,271.779 409.141,270.442L364.523,196.027L364.523,268.154C364.522,270.59 362.519,272.595 360.083,272.598L299.498,272.598C297.061,272.598 295.055,270.592 295.055,268.155L295.055,106.77C231.397,157.664 190.867,234.281 190.867,320.006C190.867,473.224 320.305,597.431 480.001,597.431C639.684,597.431 769.13,473.223 769.13,320.006C769.13,314.086 768.875,308.226 768.492,302.4L768.492,302.401ZM311.024,451.251C311.024,454.591 308.94,457.362 304.681,453.523L294.619,444.476C292.489,442.544 291.907,440.842 291.907,438.596L291.907,434.727C291.907,432.419 290.988,430.481 289.606,429.182L284.246,424.364C280.952,421.394 280.215,425.508 280.215,425.508L280.215,428.348C280.215,431.56 282.097,434.06 282.097,434.06L303.137,461.433C307.397,466.988 311.024,475.212 311.024,483.357L311.024,499.777C311.024,514.076 305.022,520.104 298.078,513.911L269.488,488.161C263.652,482.901 261.098,475.076 261.098,471.194L261.098,456.294C261.098,451.43 262.051,449.915 263.942,451.734L276.429,463.146C278.33,464.683 280.215,467.835 280.215,469.624L280.215,472.917C280.215,475.562 280.02,478.621 281.951,480.103L287.354,484.719C289.344,486.511 291.908,486.776 291.908,483.869L291.908,480.252C291.908,478.029 291.378,476.204 289.967,474.379L264.977,441.744C262.755,438.841 261.099,435.938 261.099,431.007L261.099,405.321C261.099,399.143 268.545,390.701 279.233,400.328L306.841,425.178C308.567,426.735 311.024,430.141 311.024,435.815L311.024,451.251ZM354.699,546.145C354.697,547.029 354.22,547.847 353.452,548.285C352.679,548.724 351.733,548.715 350.969,548.268L320.441,530.163C319.693,529.715 319.233,528.905 319.234,528.033L319.234,438.735C319.234,437.845 319.707,437.035 320.478,436.595C321.247,436.152 322.199,436.16 322.961,436.615L337.137,445.021C337.887,445.463 338.348,446.271 338.347,447.141L338.347,522.631L353.492,531.601C354.24,532.05 354.7,532.862 354.699,533.735L354.699,546.145ZM568.907,550.113C568.907,552.563 568.907,564.071 549.787,567.48L511.045,574.404C510.325,574.527 509.586,574.329 509.025,573.862C508.469,573.392 508.145,572.702 508.139,571.974L508.139,482.817C508.139,481.627 508.972,480.622 510.129,480.39L549.787,472.49C568.907,468.688 568.907,480.139 568.907,480.139L568.907,550.113ZM536.5,420.684L536.5,398.142C536.5,390.559 554.697,384.409 577.144,384.409C599.59,384.409 617.79,390.559 617.79,398.141L617.79,420.684C617.79,428.269 599.59,434.41 577.144,434.41C554.697,434.41 536.5,428.27 536.5,420.684ZM618.99,460.643C618.99,461.393 618.56,462.084 617.88,462.415L599.504,471.409C598.827,471.738 598.399,472.43 598.406,473.182L598.406,491.339C598.406,492.017 598.753,492.649 599.332,493.012C599.908,493.372 600.631,493.409 601.24,493.108L616.14,485.82C616.749,485.517 617.474,485.551 618.051,485.912C618.637,486.279 618.991,486.908 618.991,487.595L618.991,500.35C618.991,501.133 618.531,501.838 617.82,502.149L599.567,510.372C598.858,510.688 598.401,511.398 598.406,512.174L598.406,529.164C598.406,529.826 598.746,530.451 599.306,530.818C599.868,531.188 600.569,531.238 601.187,530.957L616.203,524.195C616.815,523.923 617.526,523.982 618.084,524.353C618.647,524.713 618.99,525.332 618.99,526.007L618.99,538.688C618.99,539.468 618.53,540.173 617.82,540.487L582.074,556.581C581.463,556.856 580.753,556.803 580.189,556.441C579.627,556.081 579.289,555.453 579.289,554.775L579.289,464.977C579.289,464.227 579.709,463.546 580.391,463.208L616.14,445.709C616.41,445.578 616.706,445.51 617.006,445.51C618.091,445.51 618.985,446.4 618.99,447.485L618.99,460.643ZM677.331,499.559L666.221,507.099C665.351,507.684 664.181,507.502 663.545,506.662L646.906,484.897L643.771,487.073L643.771,521.304C643.771,521.956 643.441,522.571 642.901,522.941L627.731,533.232C627.127,533.647 626.34,533.692 625.693,533.347C625.051,533.002 624.648,532.331 624.645,531.602L624.645,442.812C624.645,442.158 624.962,441.552 625.501,441.182L655.308,420.614C664.418,414.334 672.391,415.495 672.391,427.965L672.391,451.5C672.391,466.691 661.208,475.031 661.208,475.031L677.781,496.73C678.049,497.074 678.194,497.498 678.194,497.934C678.194,498.585 677.87,499.195 677.331,499.56L677.331,499.559ZM718.305,387.233C718.305,389.299 718.097,392.328 716.202,394.276L705.062,405.796C703.779,407.123 702.982,406.273 702.982,404.844L702.982,397.847C702.982,394.395 701.636,394.388 699.758,396.3L697.975,398.135C695.373,400.83 695.373,404.702 695.373,406.161L695.373,411.028C695.373,414.07 696.233,416.272 699.417,416.831L708.299,418.379C712.505,419.113 718.305,421.911 718.305,428.716C718.305,434.406 718.305,444.291 710.829,454.171L692.625,478.211C685.075,488.148 677.672,485.357 677.672,471.029L677.672,463.046C677.672,460.506 678.327,458.959 679.775,457.64L691.917,445.144C693.997,443.044 695.373,443.041 695.373,446.337L695.373,450.286C695.373,454.918 698.983,451.218 700.548,449.664C702.118,448.1 702.982,447.181 702.982,443.457L702.982,441.146C702.982,438.699 701.08,437.756 697.682,436.996L687.156,434.632C678.955,432.912 677.672,427.238 677.672,420.902L677.672,411.865C677.672,405.073 678.786,399.186 683.72,393.635L702.982,372.389C710.009,364.615 718.305,363.461 718.305,375.559L718.305,387.233Z" style="fill:rgb(0,48,135);fill-rule:nonzero;"/>
        <path d="M397.528,527.286L391.883,491.749L383.993,522.879L397.528,527.286ZM650.841,442.839L644.618,447.131C644.085,447.5 643.768,448.11 643.771,448.758L643.771,464.538C643.771,465.265 644.171,465.947 644.816,466.284C645.468,466.624 646.255,466.574 646.856,466.164L651.149,463.192C653.443,461.615 655.309,457.862 655.309,454.647L655.309,445.447C655.309,442.799 653.328,441.119 650.841,442.839ZM541.474,492.34L527.265,495.171L527.265,555.146L542.35,552.451C549.787,551.115 549.787,542.706 549.787,542.706L549.787,498.416C549.787,498.416 549.787,490.681 541.474,492.341L541.474,492.34ZM418.665,66.73C418.665,64.289 420.674,62.28 423.115,62.28L529.818,62.28C531.546,62.28 533.123,63.289 533.848,64.858L595.328,197.297L646.548,93.29C599.458,61.373 542.033,42.564 480.001,42.564C441.7,42.564 405.161,49.78 371.702,62.759L418.665,153.466L418.665,66.73ZM621.656,261.252C633.897,257.526 645.144,250.935 655.371,241.719C664.501,238.717 675.129,236.961 684.944,238.389L685.859,239.669C685.171,243.403 680.486,246.259 677.265,248.201C670.331,248.339 661.935,247.133 656.565,252.44C649.068,260.264 639.621,265.571 632.611,273.22C633.16,275.703 635.997,277.683 634.393,280.494C629.043,284.27 620.488,281.417 617.645,289.052C615.277,303.695 596.935,292.352 589.755,301.822C586.254,306.419 575.861,312.001 568.007,314.082L560.484,330.089C569.227,333.184 581.304,337.833 589.329,336.577C608.059,330.578 615.277,302.074 637.171,303.764C649.495,305.926 660.364,302.194 668.945,294.003C677.335,290.818 677.989,304.346 685.717,302.924C686.388,297.981 686.821,291.88 692.489,289.786C695.174,288.731 699.486,289.092 699.837,292.643C693.914,301.019 706.761,303.731 704.939,311.598C705.974,314.964 709.889,314.964 712.601,314.121C717.078,305.563 726.354,304.826 734.861,304.346C741.528,294.581 757.321,303.695 760.981,289.971L767.145,287.891C758.432,215.428 720.675,151.481 665.268,107.046L583.512,281.076C595.936,276.811 613.3,271.851 621.656,261.252Z" style="fill:rgb(0,48,135);fill-rule:nonzero;"/>
    </g>
    <g>
        <path d="M489.3,412.665C487.567,416.197 484.181,418.64 480.283,419.172L347.5,437.452C345.311,437.755 343.664,439.646 343.664,441.855C343.664,442.078 343.681,442.301 343.714,442.522L351.809,495.641C351.996,496.872 352.692,497.97 353.727,498.663C354.756,499.354 356.028,499.587 357.236,499.305L370.41,496.16L378.26,465.51C378.525,464.467 379.6,463.825 380.644,464.088L406.456,470.401C407.226,470.585 407.811,471.219 407.931,472.001L410.243,486.666L426.803,482.718L426.803,476.054C426.803,474.706 427.913,473.596 429.261,473.596C429.362,473.596 429.463,473.603 429.564,473.615L450.129,476.049C450.704,476.101 451.17,476.422 451.557,476.822L491.057,467.408C494.565,466.575 497.508,464.184 499.042,460.92L523.545,408.753L497.715,395.579L489.3,412.665ZM500.884,389.15L526.584,402.265L528.634,397.907L503.007,384.835L500.884,389.15ZM538.825,376.221L513.585,363.341L512.305,365.947L511.455,367.667L536.782,380.576L538.825,376.221ZM506.168,378.404L531.693,391.422L533.736,387.061L508.297,374.095L506.168,378.404ZM595.327,197.297L533.848,64.859C533.124,63.29 531.546,62.28 529.818,62.279L423.115,62.279C420.674,62.279 418.665,64.288 418.665,66.729L418.665,153.466L371.702,62.76C343.714,73.622 317.895,88.513 295.055,106.772L295.055,268.156C295.055,270.593 297.061,272.599 299.498,272.599L360.083,272.599C362.533,272.599 364.523,270.609 364.523,268.155L364.523,196.028L409.141,270.443C409.943,271.78 411.392,272.6 412.951,272.599L480.911,272.599C483.358,272.599 485.351,270.609 485.351,268.155L485.351,128.196L555.24,278.726L546.897,295.682L516.746,356.913L541.877,369.737L545.224,362.601L560.484,330.089L568.007,314.081L583.513,281.076L665.268,107.046C659.234,102.208 652.981,97.648 646.548,93.29L595.328,197.297L595.327,197.297Z" style="fill:white;fill-rule:nonzero;"/>
        <ellipse cx="577.144" cy="398.14" rx="40.645" ry="13.73" style="fill:white;"/>
    </g>
</svg>
