<?xml version="1.0" encoding="UTF-8" standalone="no"?>
<!DOCTYPE svg PUBLIC "-//W3C//DTD SVG 1.1//EN" "http://www.w3.org/Graphics/SVG/1.1/DTD/svg11.dtd">
<svg width="100%" height="100%" viewBox="0 0 960 640" version="1.1" xmlns="http://www.w3.org/2000/svg" xmlns:xlink="http://www.w3.org/1999/xlink" xml:space="preserve" xmlns:serif="http://www.serif.com/" style="fill-rule:evenodd;clip-rule:evenodd;stroke-linejoin:round;stroke-miterlimit:2;">
    <g transform="matrix(0.95851,0,0,0.95851,19.9152,13.2768)">
        <path d="M741.544,106.267L787.886,24L632.88,24L610.657,45.61L588.434,24L371.572,24L349.347,45.61L327.125,24L172.114,24L218.468,106.267L218.468,505.85C218.468,513.892 218.468,576.635 294.289,576.635L414.226,576.635C457.284,576.635 478.27,615.999 478.27,615.999L481.73,615.999C481.73,615.999 502.722,576.635 545.78,576.635L665.714,576.635C741.534,576.635 741.544,513.892 741.544,505.85L741.544,106.267Z" style="fill:rgb(0,51,160);fill-rule:nonzero;"/>
    </g>
    <path d="M438.824,222.718L706.707,416.728L706.707,222.718L438.824,222.718Z" style="fill:rgb(200,16,46);fill-rule:nonzero;"/>
    <g>
        <path d="M253.302,195.399L706.708,195.399L706.708,206.332L253.302,206.332L253.302,195.399ZM253.302,505.851C253.302,537.715 275.202,541.806 294.289,541.806L414.226,541.806C441.52,541.806 463.606,556.129 479.997,569.286C496.392,556.129 518.48,541.806 545.78,541.806L589.217,541.806L253.302,298.524L253.302,505.851ZM253.302,276L620.316,541.806L635.922,541.806L253.302,264.692L253.302,276ZM392.113,222.718L706.707,450.568L706.707,439.266L407.725,222.718L392.113,222.718ZM521.85,438.666L548.388,457.888L556.119,447.223L540.431,435.863L552.939,418.583L568.627,429.948L576.349,419.271L560.671,407.921L573.188,390.648L588.864,402.002L596.592,391.328L570.047,372.106L521.85,438.666ZM388.972,240.956L364.422,223.187L316.219,289.739L327.073,297.613L348.655,267.806L354.718,272.196L344.528,310.252L355.394,318.114L365.699,279.598C372.501,282.403 380.58,280.301 385.091,274.09L392.613,263.696C397.88,256.419 396.253,246.238 388.973,240.956L388.972,240.956ZM380.278,257.869L375.694,264.184C374.638,265.645 372.941,266.513 371.138,266.513C369.953,266.513 368.799,266.139 367.84,265.444L356.387,257.138L367.56,241.718L379.02,250.016C381.516,251.827 382.083,255.369 380.278,257.869ZM603.708,497.946L614.013,459.429C620.809,462.244 628.891,460.149 633.399,453.925L640.929,443.534C646.199,436.26 644.57,426.076 637.296,420.8L612.734,403.019L564.521,469.573L575.393,477.448L596.973,447.649L603.025,452.036L592.848,490.09L603.708,497.946ZM615.871,421.556L627.331,429.856C629.83,431.665 630.399,435.209 628.592,437.71L624.014,444.022C622.198,446.538 618.68,447.098 616.161,445.28L604.695,436.976L615.871,421.556ZM465.548,296.425L417.339,362.983L428.205,370.851L457.145,330.891L445.654,383.486L456.514,391.352L504.717,324.789L493.86,316.929L464.921,356.878L476.409,304.281L465.548,296.425ZM362.71,323.415L373.574,331.286L387.284,320.268L405.349,333.355L399.165,349.814L410.025,357.682L439.997,277.925L429.146,270.054L362.711,323.414L362.71,323.415ZM409.443,322.465L396.344,312.985L420.212,293.815L409.443,322.465ZM541.94,351.745L532.84,345.155C525.55,339.883 515.379,341.506 510.103,348.781L480.996,388.981C475.72,396.257 477.346,406.434 484.636,411.711L493.732,418.301C495.968,419.918 498.578,420.942 501.317,421.275L501.126,423.657L506.91,427.858L532.688,392.266L511.541,376.943L504.967,386.027L515.254,393.475L507.074,404.761C506.02,406.222 504.324,407.09 502.522,407.09C501.339,407.09 500.186,406.716 499.228,406.022L494.585,402.656C492.075,400.838 491.505,397.316 493.33,394.809L519.48,358.693C521.291,356.195 524.837,355.629 527.336,357.438L531.976,360.795C534.471,362.604 535.042,366.143 533.242,368.645L526.86,377.455L537.717,385.324L545.571,374.476C550.841,367.198 549.22,357.024 541.939,351.745L541.94,351.745ZM677.756,450.11C667.819,442.906 653.925,445.127 646.733,455.067C633.68,473.088 658.866,494.967 652.015,504.431C648.805,508.864 642.605,509.86 638.164,506.64C633.734,503.441 632.741,497.242 635.952,492.8L639.087,488.472L628.23,480.607L625.226,484.743C617.678,495.177 620.011,509.765 630.444,517.314C640.874,524.863 655.454,522.538 663.006,512.099C675.934,494.259 650.754,472.361 657.726,462.74C659.381,460.456 662.036,459.102 664.857,459.102C666.714,459.102 668.524,459.689 670.027,460.779C673.969,463.627 674.853,469.132 671.998,473.083L669.391,476.671L680.248,484.539L682.708,481.13C689.91,471.197 687.696,457.3 677.756,450.11ZM356.35,168.556L336.982,168.556L336.982,147.223L356.35,147.223L356.35,134.051L336.982,134.051L336.982,112.725L356.35,112.725L356.35,99.537L323.573,99.537L323.573,181.728L356.35,181.728L356.35,168.556ZM600.56,144.936L608.036,144.936L622.116,181.728L635.526,181.728L621.272,144.485C628.434,142.767 633.744,136.342 633.744,128.654L633.744,115.826C633.744,106.836 626.464,99.538 617.474,99.538L587.15,99.538L587.15,181.728L600.56,181.728L600.56,144.936ZM600.561,112.725L614.711,112.725C617.824,112.725 620.343,115.238 620.343,118.339L620.343,126.137C620.343,129.227 617.801,131.769 614.711,131.77L600.561,131.77L600.561,112.725ZM270.982,132.385L292.532,181.728L305.947,181.728L305.947,99.538L292.531,99.538L292.531,148.89L270.982,99.538L257.58,99.538L257.58,181.728L270.983,181.728L270.982,132.385ZM548.095,181.728L559.318,181.728C568.32,181.728 575.609,174.433 575.609,165.446L575.609,115.826C575.609,106.836 568.319,99.537 559.318,99.537L548.095,99.537C539.1,99.537 531.805,106.837 531.805,115.826L531.805,165.446C531.805,174.433 539.1,181.728 548.095,181.728ZM545.22,118.338C545.22,115.238 547.736,112.725 550.84,112.725L556.579,112.725C559.659,112.725 562.195,115.259 562.197,118.339L562.197,162.936C562.195,166.02 559.657,168.557 556.573,168.556L550.84,168.556C547.757,168.555 545.221,166.019 545.22,162.936L545.22,118.338ZM663.694,147.702L669.704,138.048L689.021,181.728L702.431,181.728L677.558,125.464L693.733,99.537L680.318,99.537L663.694,126.201L663.694,99.538L650.284,99.538L650.284,181.728L663.694,181.728L663.694,147.702ZM493.36,181.728L506.773,181.728L506.773,147.702L524.473,99.537L511.063,99.537L500.059,129.464L489.059,99.537L475.649,99.537L493.361,147.702L493.36,181.728ZM398.528,181.728L405.556,138.648L412.584,181.728L428.625,181.728L442.041,99.538L428.625,99.538L420.614,148.704L412.584,99.537L398.528,99.537L390.504,148.704L382.493,99.537L369.077,99.537L382.493,181.728L398.528,181.728Z" style="fill:white;fill-rule:nonzero;"/>
        <path d="M634.453,27.863L610.656,51.008L586.862,27.863L373.141,27.863L349.347,51.008L325.553,27.863L178.736,27.863L222.34,105.246L222.34,505.851C222.34,525.974 229.346,572.768 294.289,572.768L414.225,572.768C452.739,572.768 474.13,602.368 479.997,611.732C485.876,602.368 507.267,572.768 545.78,572.768L665.714,572.768C730.66,572.768 737.675,525.974 737.675,505.851L737.675,105.246L781.27,27.863L634.453,27.863ZM719.995,100.619L719.995,505.851C719.995,528.314 710.579,555.087 665.714,555.087L545.78,555.087C515.3,555.087 493.598,572.219 479.997,585.842C466.417,572.219 444.703,555.087 414.225,555.087L294.29,555.087C249.431,555.087 240.01,528.314 240.01,505.851L240.01,100.62L208.977,45.54L318.377,45.54L349.347,75.656L380.322,45.541L579.686,45.541L610.657,75.656L641.625,45.541L751.028,45.541L719.996,100.62L719.995,100.619Z" style="fill:white;fill-rule:nonzero;"/>
    </g>
</svg>
