<?xml version="1.0" encoding="UTF-8" standalone="no"?>
<!DOCTYPE svg PUBLIC "-//W3C//DTD SVG 1.1//EN" "http://www.w3.org/Graphics/SVG/1.1/DTD/svg11.dtd">
<svg width="100%" height="100%" viewBox="0 0 960 640" version="1.1" xmlns="http://www.w3.org/2000/svg" xmlns:xlink="http://www.w3.org/1999/xlink" xml:space="preserve" xmlns:serif="http://www.serif.com/" style="fill-rule:evenodd;clip-rule:evenodd;stroke-linejoin:round;stroke-miterlimit:2;">
    <path d="M801.224,174.98C754.514,128.27 692.419,102.552 626.36,102.552C623.457,102.552 620.464,102.615 617.455,102.722C623.09,71.862 633.38,42.138 642.765,19.194L642.955,18.73C643.3,17.878 643.478,16.967 643.478,16.047C643.478,12.202 640.371,9.012 636.527,8.91L636.037,8.899C633.108,8.813 630.099,8.771 627.1,8.771C602.34,8.771 552.952,11.727 500.41,31.497C445.2,52.268 401.075,85.727 369.252,130.939C356.134,149.569 338.467,179.885 328.774,218.472C326.839,226.185 325.152,233.958 323.714,241.779L322.846,241.816C318.857,241.992 314.74,242.083 310.612,242.083C287.642,242.083 260.084,239.558 228.703,234.578C200.566,230.104 153.926,214.51 143.913,210.723C135.649,207.587 127.469,204.233 119.381,200.667L115.584,198.984L97.369,190.894L107.914,212.678C116.937,232.469 126.774,250.168 133.294,260.351C157.857,298.698 188.294,326.292 226.365,344.704C248.846,355.58 274.907,360.368 288.44,362.254C298.58,363.665 315.842,364.996 323.975,364.996L323.98,364.996L325.546,364.981C326.275,367.776 327.046,370.559 327.858,373.331C327.373,373.331 326.888,373.337 326.415,373.337C310.905,373.337 296.935,372.224 279.705,369.619C265.448,367.462 252.127,364.443 238.983,360.4C233.321,358.653 227.409,356.747 222.557,354.622L202.627,345.887L212.96,365.034C225.53,388.324 238.205,406.891 251.701,421.788C259.115,429.974 267.376,437.201 273,441.824C280.797,448.237 289.542,454.084 298.99,459.208C324.502,473.018 348.523,479.181 376.89,479.181C377.251,479.181 377.619,479.176 377.986,479.171L382.769,479.127C384.894,481.861 387.057,484.565 389.256,487.239C386.641,487.409 384.165,487.484 381.496,487.484C377.806,487.484 373.593,487.335 368.24,487.021C353.865,486.174 330.207,480.987 323.698,477.881L304.972,468.918L313.675,487.777C314.735,490.067 326.292,510.221 342.941,526.716C353.396,537.069 372.746,549.532 383.004,553.724L384.394,554.31C392.329,557.67 413.404,566.597 447.06,566.597L447.065,566.597C453.334,566.597 459.933,566.257 466.675,565.585L472.06,565.047C473.301,566.261 474.393,567.439 475.288,568.573C489.62,586.692 486.802,593.195 482.478,602.968C480.821,606.436 477.7,609.508 474.089,613.072L473.983,613.178C472.22,614.92 470.398,616.715 468.625,618.701L468.06,619.335C466.133,621.49 465.696,624.611 466.958,627.212C468.151,629.664 470.648,631.227 473.375,631.228C473.53,631.228 473.674,631.228 473.828,631.218L474.675,631.158C486.052,630.45 509.55,624.001 525.464,604.363C531.919,596.401 536.174,588.652 539.184,581.376C566.751,591.831 596.076,597.136 626.36,597.136C692.419,597.136 754.515,571.411 801.224,524.702C847.934,477.993 873.652,415.892 873.652,349.844C873.652,283.791 847.932,221.689 801.224,174.98Z" style="fill:rgb(1,1,1);fill-rule:nonzero;"/>
    <path d="M866.517,349.841C866.517,413.988 841.538,474.294 796.177,519.656C750.82,565.012 690.507,589.996 626.362,589.996C596.829,589.996 568.313,584.82 541.518,574.631C542.674,571.201 543.606,567.894 544.405,564.762C545.725,559.607 546.466,553.992 547.063,548.081C549.545,547.341 552.905,546.094 559.583,543.091C567.503,539.522 572.702,537.056 573.538,536.662C590.645,541.488 608.413,543.937 626.362,543.937C678.211,543.937 726.949,523.747 763.608,487.087C800.272,450.428 820.463,401.685 820.463,349.841C820.463,294.935 797.056,242.373 756.237,205.597C756.21,204.947 756.167,202.023 757.419,197.895C757.717,196.91 758.016,195.85 758.319,194.801C758.617,193.741 758.905,192.74 759.187,191.813C773.844,206.47 782.372,203.759 782.68,203.621C783.234,203.292 783.868,203.121 784.513,203.125C787.517,203.125 790.627,206.507 790.973,206.891L791.016,206.944L791.069,206.885L791.01,206.933L791.26,206.678L791.51,206.417L791.51,206.412C791.085,205.927 787.607,201.767 789.226,198.502C789.386,198.14 792.842,189.416 777.349,172.964L776.966,172.554L776.753,173.076C776.693,173.226 775.368,176.676 776.678,182.828L776.731,183.233C776.731,183.27 777.151,186.753 775.218,188.943C774.175,190.13 772.614,190.732 770.58,190.732L768.913,190.614C766.308,189.784 763.81,189.364 761.488,189.364L760.002,189.427C760.279,188.724 760.593,187.999 760.95,187.222C761.621,185.789 762.25,184.34 762.564,182.956L763.533,182.801C766.367,182.801 769.488,185.368 769.855,185.677L769.909,185.725L769.951,185.661L769.903,185.72L770.111,185.427L770.324,185.134C769.861,184.729 765.807,181.076 766.974,177.619C767.08,177.235 769.296,168.117 751.678,153.961L751.241,153.604L751.108,154.152C751.07,154.307 750.234,157.912 752.375,163.825L752.482,164.213C752.492,164.251 753.456,167.904 751.587,170.349C750.447,171.846 748.466,172.607 745.765,172.612C744.244,172.342 742.703,172.203 741.159,172.197C737.026,172.197 734.847,173.267 734.757,173.315L734.257,173.565L734.693,173.917C738.325,176.799 741.532,178.865 744.403,180.41L743.465,180.761C742.635,181.076 741.782,181.406 740.877,181.731C738.881,182.459 736.91,183.251 734.965,184.106C733.546,184.738 732.16,185.444 730.815,186.221C699.653,166.285 663.538,155.745 626.362,155.745C622.085,155.745 617.772,155.889 613.483,156.171C612.679,141.013 613.813,125.366 616.21,109.904C619.592,109.76 622.99,109.686 626.362,109.686C690.508,109.686 750.82,134.67 796.177,180.026C841.538,225.388 866.517,285.695 866.517,349.841" style="fill:rgb(185,151,91);fill-rule:nonzero;"/>
    <path d="M772.227,401.341L769.617,412.584L776.887,443.214C776.887,443.214 755.609,446.548 746.135,447.975C743.221,457.749 728.639,496.101 728.639,496.101L725.715,494.658C723.595,473.705 712.687,462.99 700.23,454.968C693.242,450.473 685.247,447.39 677.625,444.966C667.331,441.696 656.647,439.715 645.845,438.133C647.709,433.744 647.188,428.456 645.84,425.148C643.624,419.716 640.28,416.019 637.26,412.163C650.558,409.9 652.098,400.494 651.56,394.758C649.888,397.688 642.777,409.718 632.28,407.348C610.704,381.928 607.024,380.548 604.936,372.346C603.45,366.488 606.199,358.956 612.361,354.797C623.621,347.799 630.645,354.903 642.038,369.225C648.093,376.836 669.968,405.857 684.348,422.171C695.345,434.655 706.343,442.687 719.978,449.829C727.478,453.759 736.127,456.721 736.127,456.721L737.917,453.861C737.917,453.861 727.248,443.231 720.452,429.723C717.112,423.093 714.589,416.057 712.996,409.197C709.017,392.058 712.841,374.391 712.841,374.391C712.841,374.391 702.738,376.058 693.332,362.2C690.862,358.568 688.555,350.1 687.819,344.704C687.303,340.859 686.946,337.876 686.882,334.664C704.176,318.894 727.712,290.682 736.712,288.589C739.434,294.24 778.783,377.672 778.783,377.672L769.957,381.906L770,391.504L746.97,408.393L772.227,401.341Z" style="fill:white;fill-rule:nonzero;"/>
    <path d="M505.419,596.537C505.525,595.77 505.584,595.227 505.6,595.061C506.75,583.877 503.55,576.127 500.455,569.747C497.542,563.728 493.701,559.111 490.016,554.897C483.438,547.361 474.821,540.784 470.267,537.535C469.49,536.975 391.73,480.722 358.213,399.17C332.493,336.627 335.609,280.88 342.752,245.126C345.111,233.307 348.035,222.234 351.955,210.262L352.083,209.868C366.063,167.084 387.069,137.631 402.227,120.454C451.344,64.781 530.222,31.286 619.087,28.245C612.658,44.292 606.725,64.009 601.447,86.938C600.457,91.23 592.009,129.061 594.145,159.861C566.844,167.968 542.355,181.245 521.333,199.349C506.692,211.955 493.723,228.343 484.813,245.493C473.479,267.319 471.29,285.044 469.692,297.986C469.5,299.546 469.314,301.049 469.127,302.482C466.624,321.08 472.717,368.301 498.639,398.366C505.749,406.616 515.613,418.85 528.097,434.333L528.257,434.535C536.566,444.83 545.928,456.446 556.469,469.351C552.671,473.165 544.245,482.15 536.826,499.731C533.119,508.519 530.771,517.014 529.844,524.971C529.482,528.102 529.221,531.389 528.944,534.856C528.204,544.32 527.362,554.983 524.044,565.544C521.818,572.612 519.266,578.348 516.007,583.594C512.977,588.473 509.195,593.058 505.419,596.537" style="fill:rgb(200,16,46);fill-rule:nonzero;"/>
    <path d="M763.59,374.357L745.956,385.037L746.393,386.101L775.793,379.017L763.59,374.357ZM744.107,334.412C744.107,334.412 743.825,329.901 742.643,328.127C741.461,326.353 747.936,323.59 747.936,323.59L744.592,321.758L743.777,323.212L728.657,328.506L716.055,338.838L726.862,335.36L749.072,338.194L744.107,334.412Z" style="fill:rgb(1,1,1);fill-rule:nonzero;"/>
    <g>
        <path d="M683.259,143.658C684.015,142.21 685.601,141.48 687.972,141.48C689.9,141.48 691.69,141.98 692.03,142.082L692.094,142.098L692.195,141.757L692.238,141.395C691.647,141.208 686.47,139.504 686.135,135.866C686.075,135.472 684.43,126.236 662.598,120.389L662.05,120.245L662.151,120.799C662.178,120.959 662.871,124.607 667.243,129.161L667.472,129.448C667.499,129.48 669.852,132.442 669.128,135.429C668.686,137.262 667.174,138.753 664.713,139.845C657.747,141.586 655.036,144.793 654.923,144.931L654.567,145.368L655.11,145.506C660.655,146.96 665.667,147.696 670.002,147.696C679.956,147.696 683.093,143.876 683.259,143.658" style="fill:rgb(1,1,1);fill-rule:nonzero;"/>
        <path d="M714.682,151.712C717.03,151.712 719.442,152.751 719.906,152.958L719.97,152.99L720.12,152.66L720.21,152.309C719.65,152.042 714.761,149.64 714.926,145.992C714.921,145.598 714.569,136.219 693.75,127.42L693.233,127.202L693.255,127.761C693.26,127.921 693.441,131.627 697.132,136.735L697.329,137.065C697.349,137.097 699.273,140.357 698.144,143.217C697.452,144.964 695.753,146.237 693.159,146.977C686.022,147.739 682.89,150.546 682.763,150.668L682.347,151.046L682.863,151.265C690.117,154.279 696.483,155.813 701.781,155.813C708.322,155.813 710.851,153.464 711.001,153.315C711.763,152.25 712.998,151.712 714.681,151.712" style="fill:rgb(1,1,1);fill-rule:nonzero;"/>
        <path d="M742.047,159.998C742.095,159.608 743.037,150.272 723.635,138.683L723.15,138.39L723.097,138.955C723.076,139.115 722.746,142.8 725.691,148.36L725.845,148.728C725.862,148.765 727.321,152.254 725.803,154.933C724.876,156.568 723.023,157.591 720.349,157.969L719.39,157.953C712.86,157.953 709.676,160.099 709.542,160.189L709.079,160.504L709.564,160.791C719.864,166.868 726.847,168.147 730.884,168.147C735.118,168.141 737.02,166.81 737.147,166.709C737.872,165.947 738.851,165.559 740.077,165.559C742.724,165.559 745.663,167.369 746.01,167.588L746.074,167.625L746.265,167.321L746.404,166.986C745.887,166.65 741.376,163.593 742.047,159.998M801.198,226.428L802.556,226.151C805.741,226.151 808.638,230.337 808.958,230.816L808.995,230.87L809.294,230.667L809.554,230.417C809.219,229.9 806.321,225.283 808.388,222.268C808.59,221.928 813.218,213.768 800.148,195.329L799.824,194.871L799.541,195.361C799.467,195.494 797.661,198.749 798.119,205.049L798.114,205.411C798.109,205.683 797.97,212.085 792.224,212.085C791.339,212.085 790.359,211.93 789.353,211.653C784.953,209.539 781.587,209.225 779.979,209.225C779.084,209.225 778.594,209.315 778.573,209.321L778.019,209.427L778.349,209.885C789.113,224.894 797.235,226.518 800.229,226.518L801.198,226.428Z" style="fill:rgb(1,1,1);fill-rule:nonzero;"/>
        <path d="M816.385,251.573L817.285,251.456C820.684,251.456 823.187,256.425 823.469,256.99L823.495,257.048L823.815,256.893L824.113,256.675C823.847,256.121 821.621,251.141 824.081,248.446C824.331,248.137 830.041,240.692 819.639,220.629L819.379,220.128L819.038,220.575C818.936,220.703 816.715,223.659 816.295,229.933L816.236,230.338C816.199,230.578 815.283,236.202 810.441,236.202C809.307,236.202 808.029,235.888 806.697,235.307C801.249,231.691 797.222,231.504 796.477,231.504L795.779,231.536L796.039,232.032C806.026,251.04 815.171,251.583 816.183,251.583L816.385,251.573Z" style="fill:rgb(1,1,1);fill-rule:nonzero;"/>
        <path d="M827.958,278.577L828.389,278.551C832.049,278.551 833.998,284.234 834.221,284.91L834.242,284.984L834.583,284.867L834.908,284.702C834.727,284.112 833.204,278.876 836.011,276.542C836.304,276.272 842.982,269.683 835.457,248.379L835.265,247.846L834.86,248.24C834.748,248.352 832.133,250.978 830.85,257.15L830.738,257.524C830.728,257.572 829.193,262.584 824.997,262.584C823.654,262.584 822.168,262.083 820.607,261.124C815.234,256.368 811.053,255.947 810.877,255.936L810.313,255.883L810.504,256.416C818.153,277.683 827.494,278.551 827.958,278.577" style="fill:rgb(1,1,1);fill-rule:nonzero;"/>
        <path d="M830.824,288.618C826.158,283.169 822.068,282.174 821.897,282.131L821.354,282.008L821.466,282.557C826.11,304.676 835.239,306.827 835.692,306.918C839.649,306.993 840.89,313.309 841.023,314.055L841.033,314.129L841.385,314.066L841.726,313.938C841.63,313.331 840.842,307.935 843.952,306.013C844.272,305.789 851.803,300.186 847.286,278.04L847.169,277.492L846.717,277.827C846.594,277.923 843.633,280.165 841.513,286.099L841.359,286.445C841.337,286.493 839.372,290.722 835.67,290.722C834.136,290.722 832.49,289.997 830.824,288.618M657.416,134.452C658.21,122.629 621.945,132.061 621.945,132.061C621.945,132.061 656.644,145.881 657.416,134.452M636.182,565.233L636.251,565.579L636.251,565.537L636.262,565.579L636.241,564.859L635.927,564.865C634.76,564.865 628.917,564.679 628.092,560.988C627.938,560.626 624.023,552.098 601.425,551.918L600.865,551.918L601.095,552.429C601.169,552.589 602.948,556.392 609.163,559.859C611.31,561.589 612.375,563.422 612.327,565.307C612.247,568.381 609.201,570.623 609.169,570.649L608.972,570.804C603.481,574.079 601.845,577.461 601.776,577.605L601.536,578.116L602.309,578.122C624.726,578.122 628.699,569.685 628.869,569.307C630.132,565.898 635.575,565.6 636.193,565.579L636.183,565.233L636.182,565.233Z" style="fill:rgb(1,1,1);fill-rule:nonzero;"/>
        <path d="M666.042,562.339L665.983,561.998L666.101,562.328L666.095,562.291L666.111,562.328L665.989,561.62L665.925,561.63L665.983,561.86L665.978,561.971L665.925,561.631C665.653,561.673 664.689,561.817 663.475,561.817C661.195,561.817 658.293,561.327 657.387,558.909C657.243,558.664 653.622,552.959 638.949,552.959C636.109,552.959 633.005,553.178 629.724,553.609L629.164,553.684L629.463,554.158C629.559,554.308 631.849,557.828 638.48,560.4C640.85,561.822 642.155,563.49 642.368,565.358C642.714,568.421 640.003,571.058 639.976,571.084L639.673,571.372C634.8,575.329 633.665,578.855 633.617,579.004L633.447,579.542L634.006,579.467C656.396,576.4 659.188,567.441 659.299,567.037C660.082,563.5 665.409,562.451 666.037,562.339L666.042,562.339Z" style="fill:rgb(1,1,1);fill-rule:nonzero;"/>
        <path d="M695.01,554.303L694.936,554.324C694.568,554.436 692.72,554.979 690.755,554.979C688.459,554.979 686.909,554.266 686.115,552.801C685.988,552.646 682.91,548.987 673.339,548.987C668.886,548.987 663.719,549.792 657.979,551.373L657.44,551.523L657.803,551.954C657.914,552.087 660.673,555.261 667.597,556.891C670.137,557.972 671.661,559.442 672.129,561.269C672.896,564.246 670.574,567.239 670.553,567.272L670.329,567.554C666.015,572.166 665.371,575.83 665.344,575.984L665.254,576.544L665.797,576.39C687.548,570.265 689.077,561.003 689.135,560.593C689.418,556.971 694.568,555.198 695.159,555.006L695.053,554.676L695.218,554.99L695.208,554.952L695.228,554.984L695.01,554.303Z" style="fill:rgb(1,1,1);fill-rule:nonzero;"/>
        <path d="M722.74,543.045L722.676,543.077L722.799,543.279L722.825,543.386L722.676,543.076C722.207,543.295 719.747,544.392 717.366,544.392C715.736,544.392 714.527,543.87 713.723,542.789C713.622,542.693 711.151,540.462 704.866,540.462C699.497,540.462 693.036,542.075 685.666,545.26L685.144,545.484L685.564,545.857C685.698,545.974 688.861,548.738 695.95,549.398C698.613,550.118 700.323,551.364 701.037,553.106C702.208,555.95 700.328,559.236 700.307,559.262L700.184,559.497C696.488,564.705 696.354,568.46 696.35,568.62L696.334,569.185L696.856,568.955C717.552,559.885 717.786,550.501 717.786,550.085C717.568,546.464 722.431,543.993 722.985,543.721L722.836,543.407L723.038,543.694L723.022,543.662L723.049,543.694L722.74,543.044L722.74,543.045Z" style="fill:rgb(1,1,1);fill-rule:nonzero;"/>
        <path d="M748.653,528.07L748.594,528.108L748.744,528.294L748.786,528.401L748.594,528.108C748.264,528.326 745.287,530.217 742.602,530.217C741.42,530.217 740.451,529.844 739.684,529.067C739.609,529.013 737.766,527.751 733.714,527.751C729.644,527.751 722.608,529.071 712.234,535.383L711.754,535.676L712.217,535.986C712.351,536.07 715.434,538.094 721.714,538.094L722.992,538.062C725.73,538.403 727.599,539.405 728.547,541.029C730.102,543.687 728.685,547.196 728.675,547.234L728.59,547.468C725.639,553.14 726.028,556.884 726.05,557.044L726.113,557.604L726.593,557.311C745.84,545.466 744.775,536.145 744.722,535.729C744.003,532.172 748.482,529.051 748.994,528.709L748.802,528.417L749.042,528.677L749.02,528.641L749.047,528.673L748.653,528.071L748.653,528.07Z" style="fill:rgb(1,1,1);fill-rule:nonzero;"/>
        <path d="M772.245,509.664L772.192,509.706L772.192,509.712C771.835,510.02 768.704,512.673 765.849,512.673C764.975,512.673 764.203,512.423 763.505,511.88C763.452,511.858 762.211,511.235 759.751,511.235C755.431,511.235 748.018,513.094 737.19,521.93L736.753,522.287L737.259,522.532C737.344,522.574 739.432,523.565 743.373,523.565C744.998,523.562 746.619,523.404 748.215,523.096L748.417,523.096C751.085,523.096 753.013,523.842 754.147,525.301C756.023,527.719 755.117,531.362 755.107,531.399L755.053,531.644C752.923,537.668 753.823,541.322 753.86,541.482L753.999,542.025L754.435,541.668C771.862,527.282 769.524,518.191 769.412,517.792C768.208,514.362 772.208,510.66 772.672,510.245L772.438,509.989L772.714,510.207L772.688,510.175L772.72,510.202L772.245,509.664Z" style="fill:rgb(1,1,1);fill-rule:nonzero;"/>
        <path d="M793.076,488.175L793.028,488.228C792.677,488.633 789.588,492.078 786.573,492.078C785.933,492.078 785.333,491.919 784.725,491.578C784.698,491.568 783.99,491.328 782.675,491.328C779.015,491.328 771.213,493.128 760.045,505.16L759.666,505.575L760.199,505.751C760.247,505.761 761.419,506.134 763.543,506.134C765.924,506.134 768.497,505.681 771.128,504.803C774.02,504.361 776.198,504.898 777.54,506.4C779.474,508.568 779.106,512.03 779.1,512.068L779.053,512.478C777.823,518.64 779.197,522.075 779.255,522.224L779.474,522.746L779.852,522.331C795.132,505.676 791.558,496.995 791.393,496.611C789.732,493.384 793.177,489.165 793.577,488.697L793.311,488.467L793.619,488.649L793.582,488.622L793.619,488.644L793.076,488.174L793.076,488.175Z" style="fill:rgb(1,1,1);fill-rule:nonzero;"/>
        <path d="M810.742,464.013L810.699,464.072C810.375,464.572 807.514,468.817 804.319,468.817L802.939,468.54L802.129,468.481C799.797,468.481 791.323,469.701 780.373,485.402L780.048,485.866L780.602,485.961C780.622,485.967 781.055,486.041 781.848,486.041C783.473,486.041 786.882,485.706 791.302,483.511C792.394,483.181 793.412,483.016 794.322,483.016C799.962,483.016 800.192,489.338 800.196,489.61L800.207,489.93C799.824,496.267 801.677,499.51 801.757,499.644L802.045,500.134L802.359,499.665C815.189,481.061 810.454,472.96 810.236,472.609C808.148,469.647 810.966,465.009 811.306,464.46L811.013,464.274L811.343,464.407L811.306,464.385L811.344,464.402L810.742,464.012L810.742,464.013Z" style="fill:rgb(1,1,1);fill-rule:nonzero;"/>
        <path d="M825.524,438.012L825.21,437.868L825.55,437.958L825.513,437.938L825.55,437.948L824.9,437.65L824.874,437.714C824.597,438.294 822.137,443.322 818.723,443.322L817.796,443.205L817.706,443.205C816.699,443.205 807.576,443.759 797.776,463.018L797.578,463.545L798.158,463.545C798.91,463.545 802.904,463.353 808.332,459.646C809.748,458.996 811.048,458.666 812.203,458.666C816.976,458.666 817.95,464.216 817.988,464.45L818.057,464.86C818.557,471.124 820.821,474.053 820.922,474.18L821.268,474.623L821.524,474.117C831.659,453.915 825.854,446.549 825.588,446.225C823.101,443.578 825.268,438.571 825.524,438.012" style="fill:rgb(1,1,1);fill-rule:nonzero;"/>
        <path d="M835.7,411.085L835.7,411.08L835.37,410.974L835.716,411.022L835.684,411.011L835.721,411.011L835.039,410.803L835.018,410.867C834.805,411.538 832.878,417.274 829.202,417.274L828.728,417.248C828.339,417.28 819.003,418.212 811.498,439.532L811.312,440.065L811.872,440.011C812.047,439.995 816.228,439.542 821.522,434.791C823.13,433.774 824.632,433.263 825.98,433.263C830.145,433.263 831.71,438.238 831.727,438.286L831.812,438.515C833.122,444.778 835.796,447.425 835.912,447.537L836.318,447.931L836.498,447.398C843.886,426.036 837.159,419.501 836.85,419.213C834.049,416.923 835.513,411.714 835.7,411.085" style="fill:rgb(1,1,1);fill-rule:nonzero;"/>
        <path d="M844.448,390.954C841.359,389.048 842.137,383.647 842.238,383.04L841.897,382.981L842.174,382.971L842.248,382.981L842.211,382.971L842.248,382.971L841.54,382.853L841.535,382.923L841.53,382.923C841.402,383.653 840.171,389.985 836.14,390.076C835.756,390.156 826.622,392.318 822.004,414.442L821.887,414.991L822.436,414.863C822.601,414.82 826.691,413.83 831.309,408.413C833.019,406.986 834.669,406.267 836.203,406.267C839.894,406.267 841.87,410.49 841.892,410.533L842.004,410.757C844.129,416.786 847.127,419.06 847.254,419.15L847.713,419.486L847.825,418.932C852.325,396.786 844.789,391.194 844.448,390.954M565.899,556.248C565.899,556.248 598.451,574.82 600.763,563.193C603.005,551.96 565.898,556.248 565.898,556.248M844.34,337.257C838.257,337.257 833.336,342.184 833.336,348.261C833.336,354.337 838.256,359.264 844.339,359.264C850.411,359.264 855.337,354.337 855.337,348.261C855.337,342.183 850.411,337.257 844.339,337.257" style="fill:rgb(1,1,1);fill-rule:nonzero;"/>
    </g>
    <g>
        <path d="M636.341,16.044L635.835,16.034C632.985,15.949 630.045,15.911 627.1,15.911C602.824,15.911 554.41,18.803 502.924,38.18C449.078,58.434 406.07,91.03 375.089,135.05C362.317,153.19 345.119,182.69 335.698,220.212C320.114,282.266 325.333,329.327 329.839,351.85C334.201,373.724 343.869,400.882 355.063,422.724C357.316,427.117 368.793,447.319 376.415,458.376C384.224,469.694 392.675,480.555 401.725,490.907C413.831,504.755 421.511,512.036 427.678,517.894C429.793,519.897 431.619,521.628 433.361,523.374C442.165,532.216 451.805,539.624 460.311,546.159C469.003,552.839 476.507,558.606 480.891,564.145C497.928,585.695 493.774,595.079 488.965,605.944C486.775,610.588 483.047,614.264 479.106,618.151C477.386,619.851 475.607,621.603 473.946,623.456L473.381,624.095L474.228,624.036C484.438,623.397 505.56,617.586 519.919,599.872C530.572,586.732 534.779,574.105 537.49,563.49C539.183,556.865 539.881,549.094 540.622,540.876C541.052,536.046 541.506,531.06 542.172,526.16C543.252,518.267 545.66,509.921 548.776,503.258C553.814,492.462 559.209,484.324 565.238,478.418C563.385,476.522 561.585,474.562 559.795,472.591C553.34,479.329 545.687,490.875 541.942,499.658C535.221,515.423 534.422,524.573 533.836,531.258C533.682,533.052 533.543,534.602 533.314,536.088C533.069,537.686 532.92,539.752 532.744,542.144C532.079,551.384 530.96,566.846 521.916,583.229C515.557,594.754 507.02,603.387 495.851,609.587C498.551,605.715 501.518,597.848 500.639,588.139C498.951,569.419 484.437,554.921 472.56,546.058C436.45,519.092 406.336,488.255 383.062,454.398C360.208,421.152 345.039,386.624 337.972,351.77C329.37,309.333 330.829,264.908 342.19,223.28C353.167,183.037 373.145,146.026 399.95,116.238C452.747,57.545 530.816,25.578 625.72,23.768L624.624,26.868C619.516,41.317 614.232,56.262 609.881,72.724C606.499,85.491 603.745,98.38 601.461,112.137C598.766,128.376 597.796,145.222 598.921,158.889L606.323,157.195C603.538,107.605 621.033,53.46 636.149,16.513L636.341,16.044ZM753.019,196.63C754.292,191.874 756.124,188.039 757.339,185.498C758.259,183.565 758.819,182.398 758.749,181.733L758.734,181.563L758.595,181.472L757.647,181.302C752.023,181.302 728.163,187.948 705.064,208.299C689.922,221.641 684.249,235.968 680.489,245.449L679.877,246.998C670.387,270.731 661.742,302.543 659.59,315.294C658.168,309.898 656.16,303.587 653.998,300.983C651.862,298.415 648.347,295.001 642.424,295.001C641.508,295.001 640.539,295.081 639.554,295.247C633.882,296.189 628.747,300.801 626.473,306.98L626.409,307.16C624.875,311.32 623.432,315.24 623.639,322.11C623.751,325.924 624.811,329.977 626.409,332.678C632.086,342.291 640.869,347.164 652.506,347.164C654.003,347.164 655.569,347.084 657.161,346.924C661.689,346.472 666.503,344.614 671.089,341.551C681.667,334.483 690.22,325.408 699.279,315.799C704.414,310.362 709.724,304.732 715.444,299.507C718.964,296.296 727.214,288.775 735.635,283.865C741.909,280.211 748.199,277.633 754.345,276.201L755.315,275.668L755.112,274.428L754.889,273.863C752.801,268.419 751.081,261.437 749.616,252.505C748.412,245.134 747.699,237.842 748.13,226.195C748.359,219.793 750.25,206.978 753.019,196.63M577.874,517.697C584.718,514.581 591.796,511.359 599.231,508.195C615.465,501.303 627.587,497.075 642.468,493.112C657.397,489.133 672.416,485.554 691.904,485.432L692.234,485.432C697.827,485.432 704.931,486.274 709.804,487.488C703.03,467.388 679.383,460.458 670.424,457.838C661.914,455.345 642.218,452.08 635.763,451.468L634.841,451.383L635.587,450.84C637.712,449.295 638.894,447.814 640.391,445.94L641.579,444.47L641.701,444.326L641.893,444.352C653.312,445.689 665.61,448.246 675.628,451.367C686.248,454.674 695.328,459.132 702.615,464.623C706.641,467.653 710.077,471.451 713.421,476.57C717.634,483.009 719.088,493.064 719.056,499.716L719.051,500.361L718.519,500.004C713.475,496.686 708.309,494.641 703.147,493.922C699.457,493.41 695.489,493.155 691.345,493.155C681.039,493.155 669.53,494.705 656.167,497.895C643.736,500.856 631.491,504.563 618.736,509.229C604.451,514.443 593.208,519.391 577.688,526.346C575.324,527.409 572.964,528.484 570.61,529.569C563.036,533.036 555.835,536.333 547.905,539.07C548.165,536.189 548.443,533.27 548.778,530.373C559.132,526.224 568.649,521.899 577.874,517.697" style="fill:rgb(185,151,91);fill-rule:nonzero;"/>
        <path d="M447.067,559.46L447.062,559.46C414.845,559.46 394.739,550.938 387.17,547.732L385.76,547.141C376.263,543.258 357.68,531.275 347.966,521.64C332.296,506.12 321.096,486.818 320.153,484.778L319.748,483.9L320.622,484.32C328.642,488.15 353.34,493.295 367.822,494.147C373.323,494.472 377.669,494.621 381.493,494.621C386.84,494.621 391.229,494.323 396.028,493.827C396.353,494.2 396.672,494.578 396.998,494.957C399.016,497.257 400.896,499.367 402.685,501.337C397.695,501.817 391.9,502.115 384.321,502.296L383.021,502.312C373.578,502.312 346.805,500.325 338.901,498.344C354.032,517.949 367.619,531.285 391.415,541.181C400.138,544.806 409.238,547.45 418.545,549.064C427.744,550.656 438.423,551.428 451.205,551.428C453.021,551.428 454.912,551.407 456.893,551.38C460.143,553.878 463.21,556.238 465.969,558.48C459.578,559.12 453.234,559.46 447.067,559.46M333.621,388.39C331.917,388.454 330.063,388.491 328.029,388.491C312.089,388.491 291.099,386.579 271.877,383.373C254.535,380.481 242.051,377.413 235.58,374.473C236,375.144 236.506,375.959 237.087,376.896C242.977,386.462 256.777,408.847 274.641,423.611C290.299,436.558 309.751,450.779 335.288,458.086C347.416,461.553 357.578,463.29 373.071,464.466C374.855,467.002 376.671,469.521 378.531,472.024C377.981,472.03 377.428,472.046 376.89,472.046C349.775,472.046 326.799,466.15 302.39,452.93C293.351,448.03 284.99,442.438 277.533,436.313C272.095,431.84 264.111,424.857 256.99,416.996C243.883,402.531 231.537,384.422 219.24,361.643L218.76,360.748L219.692,361.158C224.885,363.438 231.021,365.418 236.885,367.219C250.37,371.373 264.026,374.463 278.641,376.673C296.238,379.336 310.533,380.476 326.41,380.476C327.89,380.476 329.408,380.46 330.931,380.438C331.792,383.101 332.689,385.752 333.621,388.39M264.445,254.8L263.886,254.741C231.317,251.349 194.563,242.571 172.982,236.079C157.355,231.387 142.522,226.236 128.903,220.788L128.381,220.559C133.101,230.769 138.645,240.92 144.861,250.715C161.611,277.127 181.455,298.505 203.851,314.26C233.032,334.786 266.006,343.409 275.262,345.214L275.273,345.081L275.593,345.081L275.753,345.103L276.945,345.348C280.972,346.141 301.85,350.078 318.882,350.078C320.332,350.078 321.716,350.045 323.037,349.987C323.217,350.945 323.393,351.887 323.575,352.772C323.905,354.434 324.272,356.138 324.666,357.853C324.443,357.858 324.219,357.858 323.979,357.858C316.097,357.858 299.299,356.559 289.424,355.185C276.311,353.353 251.082,348.73 229.474,338.28C192.629,320.46 163.134,293.706 139.3,256.499C132.754,246.273 123.077,229.501 114.15,207.67L113.772,206.754L113.719,206.733L113.682,206.573L113.255,205.758L114.07,206.12L114.23,206.12L114.283,206.216C123.561,210.349 132.679,214.109 141.387,217.401C151.544,221.241 198.908,237.064 227.584,241.623C259.338,246.667 287.272,249.223 310.611,249.223C314.957,249.223 319.159,249.128 323.164,248.947C322.765,251.439 322.387,253.9 322.051,256.329C315.953,257.032 309.615,257.378 302.734,257.378C289.164,257.378 276.029,256.008 264.445,254.8M573.628,418.076C584.914,430.091 594.862,440.696 598.687,449.137C598.889,449.585 599.075,450.027 599.246,450.458C599.567,451.308 599.834,452.179 600.045,453.063C600.359,454.479 600.604,455.848 600.795,457.163C600.988,458.473 601.121,459.741 601.205,460.951C601.368,463.235 601.363,465.528 601.19,467.811C601.133,468.641 601.051,469.468 600.945,470.293C600.918,470.543 600.881,470.783 600.849,471.027C600.482,473.69 599.949,476.034 599.469,478.1C603.235,475.017 608.502,470.308 612.619,466.559L613.711,465.563C615.128,464.269 616.353,463.14 617.274,462.293C617.77,461.829 618.276,461.366 618.792,460.903C619.314,460.439 619.842,459.965 620.379,459.491C621.455,458.538 622.574,457.569 623.719,456.573C628.001,452.839 632.374,449.036 635.761,445.377C637.791,443.188 639.463,441.047 640.549,439.013L640.869,438.416C642.089,436.153 642.914,434.619 642.866,431.924C642.845,431.229 642.783,430.535 642.68,429.847C642.492,428.509 642.134,427.2 641.615,425.953C640.762,423.923 639.479,422.012 637.737,419.727C635.967,417.41 634.15,415.128 632.289,412.883C630.989,411.315 629.67,409.763 628.331,408.228C627.523,407.308 626.71,406.392 625.892,405.48C624.979,404.467 624.061,403.459 623.138,402.455C622.574,401.842 622.02,401.24 621.466,400.649L620.135,399.222L618.553,397.544C618.463,397.443 618.372,397.347 618.281,397.251L617.253,396.159L616.146,394.988C608.838,387.228 603.72,381.518 601.542,375.191C601.156,374.13 600.868,373.035 600.684,371.921C600.642,371.697 600.62,371.468 600.588,371.239C600.578,371.164 600.567,371.095 600.562,371.026C600.335,369.322 600.295,367.598 600.445,365.886C602.767,349.802 622.883,339.027 637.098,356.912L642.653,363.82C642.653,363.82 668.825,396.852 682.811,413.8L690.018,422.294C690.273,422.571 690.498,422.816 690.688,423.008C702.486,436.866 724.003,447.838 729.164,450.208C728.738,449.703 728.316,449.195 727.896,448.685C725.324,445.542 721.532,440.557 718.426,435.035C717.574,433.533 716.789,431.994 716.073,430.422C715.933,430.118 715.796,429.809 715.657,429.5C715.177,428.435 714.698,427.36 714.224,426.24C713.911,425.513 713.608,424.781 713.314,424.046C711.801,420.318 710.384,416.223 709.25,411.482C708.67,409.043 708.198,406.58 707.833,404.1C707.812,403.957 707.79,403.818 707.775,403.674C707.656,402.839 707.547,402.003 707.45,401.166C707.292,399.776 707.168,398.382 707.077,396.986C707.072,396.926 707.066,396.873 707.066,396.814C707.013,395.998 706.972,395.181 706.943,394.364C706.897,393.147 706.879,391.929 706.89,390.711C706.89,389.55 706.922,388.447 706.97,387.414C707.087,384.762 707.306,382.557 707.524,380.905C707.534,380.836 707.54,380.778 707.551,380.714C707.711,379.504 707.865,378.61 707.966,378.072C706.935,377.83 705.919,377.524 704.926,377.156C702.241,376.171 698.465,374.339 695.035,371.063C693.175,369.289 691.59,367.248 690.332,365.007C686.896,358.887 683.642,351.511 683.003,339.133C682.209,339.714 681.427,340.311 680.633,340.913C677.043,343.634 673.331,346.457 668.724,348.635C666.21,349.823 661.598,351.671 656.107,352.299C654.859,352.445 653.604,352.52 652.347,352.523C651.277,352.523 650.217,352.465 649.188,352.353C648.172,352.24 647.164,352.068 646.168,351.836C633.088,348.8 625.008,342.729 620.753,332.737C619.782,330.472 619.1,328.094 618.723,325.659C618.539,324.449 618.431,323.229 618.398,322.005C618.361,320.763 618.404,319.519 618.526,318.282C618.787,315.555 619.262,312.599 620.082,309.654C620.265,308.994 620.464,308.339 620.678,307.689C620.896,307.039 621.131,306.389 621.392,305.745C622.159,303.817 623.102,301.937 624.262,300.179C624.652,299.593 625.062,299.018 625.492,298.464C626.6,297.045 627.865,295.757 629.264,294.624C630.138,293.919 631.064,293.279 632.033,292.712C632.363,292.515 632.704,292.328 633.05,292.147C633.758,291.781 634.483,291.449 635.223,291.152C635.756,290.941 636.298,290.755 636.848,290.592C638.551,290.11 640.313,289.868 642.083,289.873C648.703,289.873 654.999,293.043 657.907,297.713C658.008,297.436 658.115,297.133 658.221,296.813C658.983,294.549 659.931,291.163 661.044,287.163C663.59,278.039 667.068,265.544 671.851,253.667C672.559,251.92 673.256,250.141 673.965,248.341C674.503,246.961 675.051,245.577 675.6,244.192C679.467,234.493 683.69,224.795 690.017,217.062C681.219,210.761 672.969,206.819 665.747,204.359C665.15,204.151 664.554,203.959 663.967,203.773C652.815,200.258 644.357,200.258 640.523,200.258L639.149,200.263C624.726,200.455 612.167,202.452 600.21,206.543C595.848,208.043 591.582,209.805 587.433,211.821C586.33,212.353 585.233,212.901 584.136,213.471C583.614,213.748 583.086,214.009 582.565,214.291C572.973,219.458 564.137,226.126 556.329,233.95C556.312,233.972 556.293,233.992 556.271,234.009C545.656,244.661 536.953,257.438 530.887,271.408C528.446,277.014 526.446,282.801 524.905,288.718C523.255,295.066 521.726,301.835 521.002,309.238C520.698,312.298 520.55,315.372 520.559,318.448C520.57,322.421 520.847,326.569 521.475,330.932C521.731,332.673 522.035,334.447 522.408,336.257C523.057,339.391 523.853,342.492 524.794,345.551C527.057,352.965 530.359,360.933 535.024,369.545C537.155,373.475 539.6,377.358 542.242,381.177C551.381,394.365 563.045,406.807 573.628,418.077" style="fill:rgb(185,151,91);fill-rule:nonzero;"/>
    </g>
</svg>
