<?xml version="1.0" encoding="UTF-8" standalone="no"?>
<!DOCTYPE svg PUBLIC "-//W3C//DTD SVG 1.1//EN" "http://www.w3.org/Graphics/SVG/1.1/DTD/svg11.dtd">
<svg width="100%" height="100%" viewBox="0 0 960 640" version="1.1" xmlns="http://www.w3.org/2000/svg" xmlns:xlink="http://www.w3.org/1999/xlink" xml:space="preserve" xmlns:serif="http://www.serif.com/" style="fill-rule:evenodd;clip-rule:evenodd;stroke-linejoin:round;stroke-miterlimit:2;">
    <path d="M604.22,87.506L145.163,87.506L145.163,102.023C145.163,142.349 164.473,177.923 193.724,198.838L145.163,198.838L145.163,213.364C145.163,253.677 164.473,289.245 193.724,310.166L145.163,310.166L145.163,324.693C145.163,365.005 164.473,400.573 193.724,421.493L145.163,421.493L145.163,436.027C145.163,500.244 194.13,552.494 254.319,552.494L358.239,552.494L434.904,422.886C474.581,476.636 537.254,508.741 604.22,508.741C720.354,508.741 814.837,414.259 814.837,298.129C814.837,181.991 720.354,87.506 604.22,87.506Z" style="fill:white;fill-rule:nonzero;"/>
    <path d="M604.22,102.023L163.88,102.023C163.88,158.336 206.249,203.981 258.515,203.981L424.39,203.981C426.973,203.981 429.073,206.081 429.073,208.67C429.073,211.259 426.973,213.364 424.39,213.364L163.88,213.364C163.88,269.668 206.249,315.313 258.515,315.313L358.536,315.313C361.12,315.313 363.226,317.413 363.226,320.011C363.226,322.587 361.12,324.693 358.536,324.693L163.881,324.693C163.881,380.995 206.249,426.641 258.515,426.641L292.683,426.641C295.255,426.642 297.371,428.759 297.371,431.331C297.371,433.904 295.256,436.023 292.683,436.027L163.881,436.027C163.881,492.322 206.249,537.971 258.515,537.971L349.964,537.971L520.909,248.95C537.749,220.484 568.749,201.393 604.219,201.393C657.644,201.393 700.953,244.702 700.953,298.13C700.953,351.543 657.644,394.863 604.22,394.863C551.466,394.863 508.58,352.625 507.51,300.123L442.823,409.5C478.203,460.672 537.288,494.221 604.22,494.221C712.519,494.221 800.314,406.421 800.314,298.129C800.314,189.821 712.518,102.023 604.22,102.023Z" style="fill:rgb(1,1,1);fill-rule:nonzero;"/>
    <path d="M604.22,242.475C573.483,242.475 548.575,267.39 548.575,298.129C548.575,328.854 573.483,353.772 604.22,353.772C634.96,353.772 659.872,328.854 659.872,298.129C659.872,267.39 634.96,242.475 604.22,242.475Z" style="fill:rgb(250,70,22);fill-rule:nonzero;"/>
</svg>
