<?xml version="1.0" encoding="UTF-8" standalone="no"?>
<!DOCTYPE svg PUBLIC "-//W3C//DTD SVG 1.1//EN" "http://www.w3.org/Graphics/SVG/1.1/DTD/svg11.dtd">
<svg width="100%" height="100%" viewBox="0 0 960 640" version="1.1" xmlns="http://www.w3.org/2000/svg" xmlns:xlink="http://www.w3.org/1999/xlink" xml:space="preserve" xmlns:serif="http://www.serif.com/" style="fill-rule:evenodd;clip-rule:evenodd;stroke-linejoin:round;stroke-miterlimit:2;">
    <path d="M225.143,521.143C349.845,532.046 428.94,567.213 467.429,640C599.232,618.638 721.143,534.106 721.143,425.143C721.143,279.972 545.261,257.152 540.571,214.857C614.553,241.67 695.994,213.447 734.857,121.143C619.927,112.654 535.8,70.723 499.43,0C358.465,25.097 245.714,116.317 245.714,214.857C245.714,358.787 430.704,396.892 451.429,427.429C350.465,389.145 263.387,432.775 225.143,521.143Z" style="fill:rgb(4,28,44);fill-rule:nonzero;"/>
    <path d="M443.889,207.418C428.109,191.386 421.536,178.833 421.536,162.263C421.536,143.315 430.676,134.044 430.676,123.415C430.676,114.294 424.946,107.139 413.966,104.96C420.483,97.946 429.313,93.709 437.532,93.709C484.576,93.709 498.467,197.676 596.62,193.943C631.605,190.589 664.657,173.577 685.433,143.763C599.717,132.636 521.467,96.209 483.235,34.295C443.57,41.515 277.248,98.909 281.455,218.871C285.84,343.97 470.832,378.733 522.58,432.454C563.382,474.813 534.646,517.498 508.343,533.019C467.712,427.349 334.191,419.832 281.036,496.109C366.751,507.237 445.001,543.663 483.234,605.577C577.786,585.74 623.398,502.83 606.036,443.028C577.305,344.059 390.746,326.649 341.262,233.948C314.818,181.791 336.562,126.099 384.907,93.695C365.936,118.152 356.855,146.342 357.264,172.723C361.551,177.401 363.384,188.361 363.421,188.583C364.045,192.413 365.17,200.493 363.169,205.444C365.281,210.991 367.993,216.287 371.232,221.364C377.705,222.984 384.98,231.424 385.132,231.597C392.252,239.783 393.361,244.947 393.54,246.912C397.938,250.834 402.659,254.627 407.65,258.315C411.814,257.818 418.152,259.839 424.617,263.948C432.05,268.815 435.754,273.628 436.803,277.246C442.058,280.299 447.362,283.265 452.714,286.144C456.873,285.012 463.708,286.332 470.587,289.847C477.472,293.37 482.552,298.212 484.037,302.273C489.488,304.993 494.979,307.708 500.481,310.432C504.638,309.229 511.541,310.422 518.479,313.955C525.266,317.412 530.228,322.175 531.812,326.199C537.432,329.11 542.998,332.059 548.478,335.063C553.585,334.024 561.728,337.131 566.161,339.764C572.709,343.681 577.213,348.758 578.536,352.872C584.083,356.474 589.45,360.176 594.584,364.003C598.924,363.801 605.307,366.285 611.267,371.361C617.691,376.954 620.993,383.107 621.136,387.39C625.586,392.143 629.662,397.09 633.306,402.254C638.564,403.57 643.871,409.654 646.821,415.759C650.911,424.665 650.373,430.943 649.173,434.183C656.27,456.325 658.183,484.205 646.772,516.28C646.654,516.615 646.504,517.007 646.338,517.422C670.214,491.429 686.361,459.425 685.014,421.002C680.627,295.904 495.637,261.14 443.888,207.418L443.889,207.418Z" style="fill:rgb(156,219,217);fill-rule:nonzero;"/>
    <path d="M514.882,220.542C493.742,196.226 480.24,153.13 456.932,136.288C446.48,173.397 468.255,213.994 514.882,220.542Z" style="fill:rgb(200,16,46);fill-rule:nonzero;"/>
    <path d="M498.142,569.365C490.519,591.71 483.235,605.577 483.235,605.577C445.002,543.663 366.752,507.237 281.036,496.109C369.602,451.706 461.297,498.421 498.142,569.365ZM685.432,143.764C596.866,188.166 505.172,141.451 468.327,70.508C475.95,48.163 483.235,34.295 483.235,34.295C445.78,41.116 277.213,97.901 281.455,218.871C285.84,343.97 470.832,378.733 522.58,432.454C563.382,474.813 534.646,517.498 508.343,533.019C505.342,546.626 501.705,558.919 498.141,569.365C517.411,566.008 575.829,535.084 576.213,475.573C576.743,393.553 470.733,371.821 390.382,322.046C324.243,281.075 311.405,240.418 308.052,214.686C300.166,154.15 342.885,98.866 404.986,72.786C396.078,80.381 389.169,87.787 384.906,93.695C365.936,118.152 356.855,146.342 357.264,172.723C361.551,177.401 363.384,188.362 363.421,188.583C364.045,192.413 365.17,200.493 363.169,205.444C365.281,210.991 367.993,216.287 371.232,221.364C377.705,222.984 384.98,231.424 385.132,231.597C392.252,239.783 393.361,244.948 393.54,246.912C397.938,250.834 402.659,254.627 407.65,258.315C411.814,257.818 418.152,259.839 424.617,263.948C432.05,268.814 435.754,273.628 436.803,277.246C442.057,280.299 447.362,283.266 452.714,286.144C456.873,285.012 463.708,286.332 470.587,289.847C477.472,293.37 482.552,298.212 484.037,302.273C489.488,304.993 494.979,307.707 500.481,310.432C504.638,309.229 511.541,310.423 518.479,313.955C525.266,317.412 530.228,322.175 531.812,326.2C537.432,329.11 542.998,332.06 548.478,335.063C553.585,334.024 561.728,337.131 566.161,339.764C572.709,343.681 577.213,348.758 578.536,352.872C584.083,356.474 589.45,360.176 594.584,364.003C598.924,363.801 605.307,366.285 611.267,371.361C617.691,376.954 620.993,383.107 621.136,387.391C625.586,392.143 629.662,397.089 633.306,402.255C638.564,403.57 643.871,409.654 646.821,415.759C650.911,424.665 650.373,430.943 649.173,434.183C656.27,456.325 658.183,484.205 646.772,516.28C677.292,464.563 674.352,413.218 640.236,369.808C568.95,279.103 389.584,268.266 390.255,164.3C390.415,139.567 400.735,119.892 413.967,104.961C420.483,97.947 429.313,93.709 437.532,93.709C484.576,93.709 498.467,197.677 596.62,193.944C631.605,190.59 664.657,173.578 685.432,143.764Z" style="fill:rgb(107,164,184);fill-rule:nonzero;"/>
</svg>
