<?xml version="1.0" encoding="UTF-8" standalone="no"?>
<!DOCTYPE svg PUBLIC "-//W3C//DTD SVG 1.1//EN" "http://www.w3.org/Graphics/SVG/1.1/DTD/svg11.dtd">
<svg width="100%" height="100%" viewBox="0 0 960 640" version="1.1" xmlns="http://www.w3.org/2000/svg" xmlns:xlink="http://www.w3.org/1999/xlink" xml:space="preserve" xmlns:serif="http://www.serif.com/" style="fill-rule:evenodd;clip-rule:evenodd;stroke-linejoin:round;stroke-miterlimit:2;">
    <path d="M397.804,354.952L466.304,465.184C475.22,479.524 480.643,492.586 482.232,505.33C491.791,569.367 422.013,622.89 337.262,635.952C256.336,648.696 172.544,621.295 163.944,561.402C155.98,503.734 220.652,454.354 298.712,440.967C314.004,438.1 330.576,436.822 347.139,437.147L75.373,0.982L177.006,0.982L232.126,89.237C244.226,87.323 252.834,78.088 252.834,62.478C252.834,49.734 247.419,37.943 224.798,0.99L884.628,0.99C867.738,34.442 829.825,68.854 782.351,88.926L816.446,95.937C788.41,124.927 748.265,149.779 703.665,163.484L738.07,175.91C709.398,200.12 673.714,220.835 625.923,232.301L657.143,248.864C622.731,270.207 585.461,285.182 535.756,292.836L560.926,319.595C525.878,328.512 493.062,330.425 458.332,328.512L481.27,365.147C458.332,367.695 428.064,363.877 397.797,354.952L397.804,354.952Z" style="fill:rgb(0,106,198);fill-rule:nonzero;"/>
    <path d="M856.424,15.957L251.714,15.957C265.412,38.261 268.921,50.687 268.921,62.47C268.921,83.814 257.448,101.655 225.274,105.164L169.518,15.64L102.925,15.64L375.969,454.044C351.759,450.542 325.629,451.177 302.054,455.314C229.736,467.74 173.02,512.023 179.714,559.497C186.724,608.559 260.322,633.411 335.831,621.627C414.526,609.201 476.331,561.092 468.051,507.25C466.773,496.738 462.318,485.908 454.346,472.838L364.504,328.828C395.088,340.937 430.772,348.901 454.028,349.219L430.128,311.305C465.811,314.806 497.993,315.125 530.492,310.027L501.819,280.402C550.882,277.218 590.391,267.022 624.804,249.182L579.244,224.647C635.634,217.954 672.594,202.986 705.729,180.357L648.06,159.332C710.184,151.05 752.242,130.017 783.462,105.172L720.379,91.792C781.875,80.645 828.07,52.608 856.424,15.965L856.424,15.957ZM652.174,82.543L312.544,82.543L316.047,87.958C320.509,95.288 323.375,96.875 331.974,96.875L673.836,96.875L747.114,112.485C709.836,134.147 660.774,147.851 583.994,147.851L353.324,147.851L356.827,153.266C361.607,160.594 364.473,162.183 373.073,162.183L612.983,161.865L671.605,183.526C632.095,203.281 592.267,211.245 527.277,211.563L393.78,212.198L397.29,217.62C402.07,224.95 404.936,226.537 413.543,226.537L552.138,226.22L592.282,248.206C562.657,259.679 519.963,266.683 476.944,266.683L468.981,266.683L499.883,298.546C463.248,300.142 431.066,297.593 401.435,292.806L424.373,330.084C400.473,326.9 360.972,314.156 328.472,298.221L441.897,480.462C448.907,491.935 452.409,500.852 453.687,509.459C460.381,552.789 406.532,595.799 333.895,607.265C264.118,618.095 200.399,595.792 194.984,557.243C189.568,520.282 238.63,481.097 304.899,469.623C339.945,463.883 380.091,465.479 409.081,478.231L129.986,30.289L161.524,30.289L217.279,119.814C262.522,120.767 284.825,94.326 284.825,63.106C284.825,52.593 282.277,42.398 276.862,30.289L822.625,30.289C783.123,65.972 723.858,82.543 652.175,82.543" style="fill:rgb(255,184,28);fill-rule:nonzero;"/>
</svg>
