<?xml version="1.0" encoding="UTF-8" standalone="no"?>
<!DOCTYPE svg PUBLIC "-//W3C//DTD SVG 1.1//EN" "http://www.w3.org/Graphics/SVG/1.1/DTD/svg11.dtd">
<svg width="100%" height="100%" viewBox="0 0 960 640" version="1.1" xmlns="http://www.w3.org/2000/svg" xmlns:xlink="http://www.w3.org/1999/xlink" xml:space="preserve" xmlns:serif="http://www.serif.com/" style="fill-rule:evenodd;clip-rule:evenodd;stroke-linejoin:round;stroke-miterlimit:2;">
    <path d="M551.704,338.016L441.976,359.47L685.366,159.476L572.059,174.667L792.294,0L535.906,67.459C532.526,67.388 529.136,67.336 525.707,67.336C315.593,67.336 137.017,210.133 137.017,360.79C137.017,434.708 176.831,493.51 238.542,531.61L143.796,640L551.704,338.016ZM166.307,338.511C166.307,203.415 335.357,89.533 507.425,89.533C508.613,89.533 509.786,89.555 510.975,89.568L344.62,275.673L440.278,260.543L251.808,442.815L328.246,429.009L274.854,490.081C209.981,459.36 166.306,406.381 166.306,338.511" style="fill:rgb(0,32,91);fill-rule:nonzero;"/>
    <path d="M822.984,289.44C822.984,219.872 779.736,151.296 702.981,109.157L673.57,132.494C726.024,165.501 756.894,214.825 756.894,270.799C756.894,401.449 595.449,519.784 415.781,519.784C397.339,519.784 379.254,518.436 361.785,515.842L301.156,560.709C339.439,573.661 382.161,580.536 426.807,580.536C640.091,580.536 822.984,436.54 822.984,289.44" style="fill:rgb(0,32,91);fill-rule:nonzero;"/>
</svg>
