<?xml version="1.0" encoding="UTF-8" standalone="no"?>
<!DOCTYPE svg PUBLIC "-//W3C//DTD SVG 1.1//EN" "http://www.w3.org/Graphics/SVG/1.1/DTD/svg11.dtd">
<svg width="100%" height="100%" viewBox="0 0 960 640" version="1.1" xmlns="http://www.w3.org/2000/svg" xmlns:xlink="http://www.w3.org/1999/xlink" xml:space="preserve" xmlns:serif="http://www.serif.com/" style="fill-rule:evenodd;clip-rule:evenodd;stroke-linejoin:round;stroke-miterlimit:2;">
    <path d="M763.095,251.614C763.182,251.46 763.228,251.287 763.228,251.11C763.228,250.689 762.967,250.309 762.574,250.158C754.045,246.958 746.002,244.744 737.861,243.586C737.386,243.523 737.027,243.114 737.027,242.634C737.027,242.483 737.063,242.335 737.131,242.2C743.803,228.822 748.12,213.452 751.339,196.798C751.477,196.081 750.824,195.448 750.118,195.632C735.118,199.528 717.948,206.581 703.664,213.405C703.537,213.467 703.397,213.499 703.255,213.499C702.818,213.499 702.436,213.192 702.342,212.765C700.242,203.515 697.748,193.079 692.625,184.037C692.444,183.727 692.111,183.536 691.753,183.536C691.541,183.536 691.334,183.603 691.162,183.727C676.048,194.663 662.542,206.687 650.779,219.891C650.595,220.099 650.331,220.217 650.054,220.217C649.71,220.217 649.392,220.035 649.218,219.739C646.186,214.735 642.236,210.261 637.026,206.512C636.614,206.216 636.036,206.294 635.716,206.687C616.31,230.687 591.887,257.949 560.369,280.523C559.715,280.991 558.819,280.353 559.053,279.583C566.208,256.179 576.982,233.876 587.483,213.396C587.554,213.259 587.592,213.107 587.592,212.953C587.592,212.509 587.283,212.12 586.851,212.019C582.431,211.018 576.537,210.456 570.951,210.14C570.452,210.115 570.055,209.698 570.055,209.198C570.055,209.007 570.113,208.821 570.221,208.664C583.506,188.966 593.662,165.008 600.101,143.466C600.127,143.379 600.14,143.288 600.14,143.197C600.14,142.684 599.718,142.262 599.205,142.262C599.193,142.262 599.18,142.262 599.167,142.263C588.063,142.759 574.654,145.257 563.552,149.108C563.452,149.144 563.347,149.162 563.241,149.162C562.737,149.162 562.322,148.747 562.322,148.243C562.322,148.186 562.327,148.128 562.338,148.071C565.583,129.458 564.079,108.584 560.531,89.241C560.45,88.782 560.047,88.445 559.582,88.445C559.467,88.445 559.354,88.465 559.247,88.505C551.411,91.457 542.434,95.977 534.266,100.911C534.116,101.004 533.944,101.053 533.768,101.053C533.249,101.053 532.823,100.626 532.823,100.108C532.823,100.082 532.824,100.057 532.826,100.031C534.055,82.531 532.117,63.19 528.366,47.609C528.268,47.196 527.896,46.901 527.472,46.901C527.37,46.901 527.269,46.918 527.173,46.951C521.47,48.934 514.764,52.446 508.365,56.265C508.215,56.356 508.043,56.404 507.867,56.404C507.455,56.404 507.086,56.138 506.955,55.747C500.932,38.117 491.267,20.97 480.851,3.937C480.669,3.642 480.346,3.462 480,3.462C479.654,3.462 479.331,3.642 479.149,3.937C468.732,20.97 459.068,38.117 453.045,55.747C452.914,56.138 452.545,56.404 452.133,56.404C451.957,56.404 451.785,56.356 451.635,56.265C445.235,52.445 438.529,48.935 432.827,46.951C432.731,46.918 432.63,46.901 432.529,46.901C432.104,46.901 431.732,47.196 431.634,47.609C427.882,63.189 425.945,82.531 427.174,100.03C427.176,100.056 427.177,100.081 427.177,100.107C427.177,100.625 426.751,101.052 426.232,101.052C426.056,101.052 425.884,101.003 425.734,100.91C417.566,95.977 408.589,91.457 400.752,88.505C400.645,88.466 400.532,88.445 400.418,88.445C399.953,88.445 399.55,88.783 399.469,89.241C395.921,108.584 394.416,129.458 397.662,148.071C397.673,148.127 397.678,148.184 397.678,148.242C397.678,148.746 397.263,149.162 396.758,149.162C396.652,149.162 396.547,149.144 396.448,149.108C385.346,145.258 371.937,142.758 360.833,142.263C360.82,142.262 360.807,142.262 360.795,142.262C360.282,142.262 359.86,142.684 359.86,143.197C359.86,143.288 359.873,143.379 359.899,143.466C366.338,165.008 376.494,188.966 389.779,208.664C389.887,208.821 389.945,209.007 389.945,209.198C389.945,209.698 389.548,210.115 389.049,210.14C383.463,210.456 377.569,211.018 373.149,212.02C372.717,212.122 372.408,212.51 372.408,212.955C372.408,213.108 372.445,213.26 372.516,213.396C383.036,233.91 393.826,256.251 400.981,279.698C401.208,280.441 400.356,281.067 399.719,280.623C371.797,261.101 345.003,232.461 324.284,206.691C323.965,206.296 323.386,206.217 322.973,206.513C317.763,210.262 313.814,214.736 310.782,219.739C310.608,220.035 310.29,220.217 309.947,220.217C309.67,220.217 309.406,220.099 309.222,219.891C297.458,206.687 283.952,194.663 268.837,183.727C268.665,183.603 268.459,183.537 268.247,183.537C267.889,183.537 267.557,183.728 267.376,184.037C262.252,193.079 259.758,203.516 257.657,212.766C257.563,213.193 257.181,213.499 256.744,213.499C256.603,213.499 256.463,213.467 256.336,213.405C242.052,206.581 224.882,199.528 209.882,195.632C209.175,195.449 208.522,196.082 208.661,196.798C211.881,213.452 216.197,228.822 222.87,242.2C222.939,242.335 222.974,242.484 222.974,242.635C222.974,243.115 222.614,243.525 222.138,243.587C213.998,244.744 205.954,246.957 197.426,250.157C197.033,250.308 196.771,250.688 196.771,251.109C196.771,251.286 196.817,251.46 196.905,251.614C206.933,268.86 218.505,283.087 231.821,294.191C232.041,294.373 232.169,294.644 232.169,294.93C232.169,295.271 231.987,295.587 231.692,295.758C226.359,298.946 221.418,302.749 216.97,307.088C216.779,307.276 216.672,307.533 216.672,307.802C216.672,308.07 216.78,308.328 216.971,308.516C233.863,325.134 252.374,340.022 272.228,352.956C272.511,353.14 272.682,353.456 272.682,353.794C272.682,354.105 272.536,354.399 272.289,354.588C264.923,360.287 258.435,366.202 252.869,372.856C252.527,373.27 252.574,373.889 252.976,374.246C267.459,387.063 284.041,397.447 303.291,405.305C303.664,405.456 303.908,405.82 303.908,406.222C303.908,406.536 303.759,406.833 303.506,407.019C296.659,412.166 291.094,417.859 285.973,424.021C285.824,424.2 285.743,424.426 285.743,424.659C285.743,425.029 285.949,425.371 286.277,425.543C300.034,432.613 316.731,437.183 334.05,440.317C334.837,440.46 334.9,441.547 334.135,441.785C312.019,448.629 291.705,457.472 272.257,468.301C271.943,468.478 271.748,468.812 271.748,469.173C271.748,469.487 271.896,469.784 272.148,469.973C286.403,480.561 300.94,489.79 317.856,496.385C318.236,496.53 318.489,496.896 318.489,497.303C318.489,497.6 318.355,497.881 318.124,498.067C295.006,516.91 276.102,538.601 259.591,562.197C259.097,562.903 259.688,563.869 260.544,563.76C284.104,560.763 306.029,557.082 324.921,551.904C325.006,551.88 325.093,551.868 325.181,551.868C325.699,551.868 326.125,552.294 326.125,552.812C326.125,552.963 326.089,553.112 326.019,553.246C321.972,561.322 318.323,569.918 314.993,578.936C314.736,579.632 315.313,580.364 316.05,580.284C337.294,577.982 356.602,575.285 372.007,571.79C372.869,571.594 373.513,572.541 373.028,573.28C366.511,583.207 361.893,593.951 358.183,605.753C357.957,606.471 358.593,607.18 359.331,607.039C396.573,599.926 430.464,589.27 460.529,574.841C461.341,574.451 462.27,575.01 462.331,575.909C464.142,602.613 474.264,621.183 488.121,636.104C488.635,636.657 489.504,636.684 490.058,636.173L509.514,618.213C510.104,617.668 510.159,616.76 509.631,616.156C505.783,611.756 488.075,591.66 491.208,576.381C491.581,574.561 493.601,573.588 495.294,574.354C517.726,584.502 564.217,600 600.722,607.047C601.442,607.187 602.049,606.492 601.829,605.791C598.117,593.974 593.496,583.218 586.972,573.281C586.487,572.541 587.131,571.594 587.993,571.791C603.398,575.285 622.706,577.982 643.95,580.284C644.688,580.364 645.264,579.632 645.007,578.935C641.677,569.918 638.028,561.322 633.982,553.246C633.913,553.112 633.876,552.963 633.876,552.812C633.876,552.294 634.302,551.868 634.82,551.868C634.908,551.868 634.995,551.88 635.079,551.904C653.971,557.082 675.895,560.764 699.456,563.76C700.311,563.869 700.903,562.903 700.408,562.196C683.898,538.602 664.994,516.91 641.876,498.066C641.646,497.88 641.512,497.599 641.512,497.303C641.512,496.896 641.764,496.53 642.144,496.385C659.06,489.79 673.596,480.561 687.852,469.973C688.104,469.784 688.253,469.487 688.253,469.173C688.253,468.812 688.057,468.478 687.743,468.301C668.296,457.472 647.981,448.629 625.865,441.785C625.1,441.548 625.163,440.46 625.951,440.317C643.269,437.183 659.966,432.612 673.723,425.543C674.051,425.371 674.258,425.03 674.258,424.659C674.258,424.426 674.176,424.2 674.027,424.021C668.906,417.858 663.341,412.166 656.493,407.019C656.24,406.833 656.091,406.537 656.091,406.222C656.091,405.82 656.336,405.456 656.709,405.305C675.959,397.447 692.541,387.063 707.024,374.245C707.427,373.89 707.475,373.268 707.13,372.856C701.565,366.202 695.077,360.286 687.71,354.588C687.463,354.399 687.317,354.105 687.317,353.794C687.317,353.456 687.488,353.14 687.771,352.956C707.626,340.022 726.137,325.134 743.029,308.516C743.425,308.126 743.429,307.476 743.029,307.089C738.582,302.75 733.641,298.947 728.308,295.759C728.012,295.588 727.83,295.271 727.83,294.93C727.83,294.644 727.958,294.373 728.178,294.191C741.496,283.087 753.068,268.86 763.095,251.614Z" style="fill:rgb(0,32,91);fill-rule:nonzero;"/>
    <g>
        <path d="M476.286,252.452C476.456,252.559 476.558,252.742 476.562,252.945C476.695,260.352 476.878,267.178 477.119,273.815C477.129,274.065 477.332,274.263 477.584,274.265L482.864,274.288L482.868,274.288C483.129,274.287 483.343,274.072 483.343,273.811C483.343,273.804 483.343,273.797 483.343,273.79C483.15,269.13 482.969,264.417 482.808,259.783C482.8,259.531 482.916,259.291 483.117,259.139C508.15,240.18 527.925,218.049 537.371,198.415L537.096,198.267C525.486,217.69 507.282,236.334 482.989,253.682C482.845,253.778 482.604,253.7 482.598,253.487C481.662,223.755 481.668,199.244 482.618,178.548C482.699,175.758 482.771,172.834 482.841,169.606C482.848,169.268 483.034,168.958 483.329,168.792C494.023,162.786 503.796,154.964 513.207,144.879L512.989,144.655C502.629,153.723 492.931,160.423 483.337,165.138C483.228,165.19 483.097,165.167 483.012,165.082C482.959,165.028 482.93,164.955 482.932,164.88C483.575,128.196 482.717,85.384 480.937,65.295L480.625,65.31C480.805,86.972 480.557,108.636 479.883,130.288C479.879,130.392 479.791,130.474 479.687,130.472C479.583,130.47 479.597,130.462 479.551,130.412C470.731,121.096 462.623,110.709 455.453,99.541L455.183,99.697C461.118,111.109 468.981,122.648 479.222,134.975C479.542,135.36 479.71,135.848 479.692,136.349C479.215,150.221 478.556,164.086 477.715,177.941C477.487,182.563 477.285,187.451 477.078,193.327C477.071,193.527 476.847,193.604 476.715,193.513C465.435,185.503 455.057,174.499 446.702,161.69L446.432,161.849C453.842,175.766 463.87,187.609 476.242,197.048C476.677,197.38 476.926,197.901 476.91,198.443C476.414,214.603 476.268,230.772 476.47,246.939C476.471,246.977 476.456,247.013 476.43,247.04C476.383,247.085 476.311,247.095 476.254,247.064C454.057,233.515 435.674,215.954 421.616,194.867L421.351,195.03C433.986,217.388 454.01,238.317 476.286,252.452ZM316.221,311.101C316.293,311.101 316.364,311.086 316.429,311.055L320.037,309.35C320.158,309.293 320.244,309.181 320.267,309.05C320.292,308.919 320.252,308.784 320.16,308.688C318.84,307.311 317.512,305.941 316.176,304.579C315.894,304.29 315.733,303.903 315.728,303.499C315.483,289.493 310.809,277.072 301.836,266.579L301.586,266.768C308.363,276.972 311.65,287.82 311.633,299.93C311.633,299.956 311.607,299.964 311.581,299.953C302.994,291.396 293.633,282.64 283.758,273.924C283.451,273.651 283.29,273.248 283.325,272.839C284.194,262.512 282.441,252.76 278.115,243.851L277.827,243.971C280.846,252.626 281.586,261.32 280.091,270.545L279.939,270.6C269.016,260.548 256.955,248.609 243.072,234.104L242.839,234.313C254.512,248.227 268.298,262.907 284.987,279.192C287.678,281.707 290.324,284.271 292.923,286.882C291.294,287.004 289.637,287.063 287.997,287.063C276.532,287.064 264.932,284.197 252.537,278.297L252.388,278.571C265.492,286.581 279.293,290.475 294.581,290.475C295.095,290.475 295.611,290.47 296.145,290.461C296.382,290.461 296.604,290.553 296.766,290.717C302.306,296.352 308.551,302.969 315.857,310.941C315.951,311.044 316.083,311.101 316.221,311.101ZM677.791,274.514C690.461,261.704 702.467,248.686 713.475,235.826L713.245,235.614C700.203,248.721 686.916,261.68 672.627,275.231C672.603,275.254 672.57,275.267 672.537,275.266C672.483,275.266 672.417,275.232 672.407,275.158C671.054,266.056 671.354,256.123 673.276,246.429L672.976,246.345C669.569,255.752 668.338,265.96 669.213,277.555C669.246,277.991 669.07,278.425 668.745,278.717C657.908,288.388 647.685,298.175 638.36,307.807C638.287,307.882 638.246,307.983 638.246,308.088C638.246,308.24 638.332,308.379 638.467,308.448L642.141,310.341C642.368,310.457 642.647,310.407 642.819,310.219C646.654,306.018 650.543,301.867 654.485,297.766C654.82,297.421 655.28,297.224 655.761,297.218C671.134,297.036 684.333,293.446 696.11,286.244L695.965,285.967C684.503,291.027 674.25,293.384 663.699,293.384C662.18,293.383 660.661,293.335 659.145,293.239C659.093,293.235 659.047,293.201 659.029,293.152C659.009,293.106 659.019,293.053 659.054,293.017C665.184,286.733 671.43,280.564 677.791,274.514ZM493.529,532.513C482.662,532.513 472.345,535.493 467.346,542.838C467.288,542.924 467.183,542.954 467.096,542.897C463.821,540.761 453.041,534.236 440.482,534.236C433.724,534.236 426.356,537.516 418.916,541.726C418.827,541.777 418.723,541.796 418.621,541.782C398.839,538.867 379.875,542.699 361.32,549.91C380.706,545.003 398.979,541.873 413.51,544.713C413.598,544.731 413.617,544.848 413.54,544.894C404.922,550.132 396.383,555.863 388.76,558.449C404.488,556.626 425.004,538.749 440.915,538.749C451.522,538.749 462.205,545.364 465.023,547.242C465.113,547.302 465.143,547.406 465.111,547.51C464.336,550.007 464.031,552.852 464.304,556.084C469.487,541.74 480,538.432 494.404,538.432C505.481,538.432 516.577,542.376 529.53,545.324C529.652,545.351 529.766,545.408 529.86,545.49C537.774,552.376 552.312,559.261 559.25,560.424L562.228,560.924L559.416,559.824C553.476,557.504 542.95,552.266 537.666,547.124C537.601,547.062 537.66,546.956 537.749,546.971C543.142,547.882 548.877,548.486 555.066,548.486C578.12,548.486 588.498,544.37 595.02,541.69C588.088,543.16 581.49,545.262 558.339,545.262C537.239,545.262 510.721,532.513 493.529,532.513ZM332.755,341.016C336.65,339.046 340.566,337.117 344.501,335.227L339.927,326.397C328.445,331.91 317.13,337.768 306,343.961L310.572,352.792C314.386,350.67 318.222,348.587 322.078,346.543L322.777,346.173L345.646,390.346C348.724,388.72 351.816,387.12 354.92,385.545L332.051,341.372L332.756,341.015L332.755,341.016ZM379.052,374.173C380.338,374.173 381.618,373.953 382.856,373.517C387.455,371.896 392.072,370.33 396.708,368.818C399.618,367.869 401.96,365.868 403.305,363.184C404.625,360.546 404.825,357.538 403.866,354.711L391.97,319.636C390.396,314.992 385.881,311.75 380.99,311.75C379.812,311.75 378.646,311.936 377.523,312.302C372.899,313.81 368.293,315.372 363.705,316.988C357.812,319.062 354.668,325.616 356.698,331.597L368.594,366.672C370.107,371.145 374.33,374.174 379.052,374.173ZM370.594,325.118C372.726,324.382 374.86,323.658 377,322.945C379.352,322.17 381.927,323.453 382.724,325.798L392.608,354.947C392.994,356.073 392.912,357.308 392.38,358.373C391.849,359.445 390.91,360.26 389.774,360.635C387.637,361.345 385.508,362.068 383.382,362.803C382.909,362.966 382.412,363.05 381.912,363.05L381.91,363.05C379.997,363.05 378.285,361.824 377.671,360.012L367.787,330.863C366.986,328.505 368.245,325.928 370.594,325.118ZM488.585,356.077C494.985,356.077 499.893,351.217 499.893,345.016L499.893,307.978C499.894,301.663 494.813,296.466 488.566,296.393C483.703,296.335 478.839,296.335 473.976,296.393C467.728,296.463 462.647,301.661 462.647,307.978L462.647,345.016C462.647,351.219 467.554,356.078 473.817,356.078C475.019,356.071 480.584,355.984 488.585,356.077ZM473.385,310.844C473.383,308.354 475.405,306.317 477.888,306.304C480.144,306.292 482.4,306.292 484.654,306.304C487.136,306.319 489.156,308.356 489.156,310.844L489.156,341.624C489.148,344.081 487.124,346.099 484.667,346.1C482.41,346.088 480.154,346.088 477.897,346.1C475.399,346.1 473.385,344.092 473.385,341.624L473.385,310.844ZM470.797,497.46L486.794,497.46L489.281,507.216L499.847,507.216L485.795,455.303L471.796,455.303L457.744,507.216L468.311,507.216L470.797,497.459L470.797,497.46ZM478.796,466.073L484.308,487.703L473.283,487.703L478.796,466.073ZM506.088,413.715L506.088,397.481C506.088,391.815 501.493,387.235 495.827,387.235L473.409,387.235L473.409,439.147L483.585,439.147L483.585,423.976L495.827,423.976C501.493,423.976 506.087,419.382 506.087,413.716L506.088,413.715ZM495.923,411.065C495.923,412.795 494.5,414.218 492.77,414.219L483.585,414.219L483.585,396.991L492.77,396.991C494.5,396.992 495.923,398.415 495.923,400.145L495.923,411.065ZM368.92,455.304L368.92,507.216L399.307,507.216L399.307,497.459L379.198,497.459L379.198,455.304L368.92,455.304ZM407.635,387.235L399.547,387.235L388.277,413.255L377.009,387.235L368.919,387.235L368.919,439.147L379.096,439.147L379.096,415.195L388.277,435.976L397.459,415.196L397.459,439.146L407.635,439.146L407.635,387.235ZM428.56,360.915L425.707,343.243L426.471,343.11C427.916,342.86 429.363,342.615 430.813,342.376L431.295,342.296L431.578,342.694C435.336,347.976 439.097,353.279 442.863,358.602C446.245,358.097 449.651,357.619 453.012,357.176C449.306,351.892 445.601,346.626 441.901,341.383L441.341,340.59L442.233,340.211C446.904,338.239 449.645,333.291 448.839,328.286L445.786,309.376C444.888,303.827 440.006,299.641 434.428,299.641C433.871,299.641 433.308,299.684 432.754,299.768C424.733,300.974 416.738,302.343 408.773,303.876L418.288,362.798C421.707,362.141 425.131,361.514 428.56,360.915ZM421.394,311.678C424.521,311.137 427.652,310.621 430.787,310.13C433.245,309.744 435.564,311.487 435.953,313.889L438.007,326.61C438.201,327.784 437.915,328.989 437.213,329.95C436.513,330.919 435.452,331.566 434.27,331.746C431.143,332.235 428.02,332.75 424.901,333.289L424.121,333.423L420.631,311.81L421.394,311.678ZM449.775,439.147L460.236,439.147L447.452,387.235L433.592,387.235L420.808,439.147L431.269,439.147L433.464,429.391L447.58,429.391L449.775,439.147ZM435.657,419.635L440.522,398.005L445.387,419.635L435.657,419.635ZM544.775,465.06L544.775,455.303L512.218,455.303L512.218,507.216L522.497,507.216L522.497,486.137L538.377,486.137L538.377,476.382L522.497,476.382L522.497,465.06L544.775,465.06ZM520.364,298.35L510.404,357.198C513.824,357.671 517.292,358.18 520.734,358.715L526.453,324.91L527.452,327.825C531.334,339.151 535.181,350.489 538.994,361.839C541.707,362.345 544.419,362.869 547.128,363.412L557.086,304.565C553.674,303.881 550.257,303.226 546.834,302.6L541.111,336.42L540.117,333.467C536.305,322.147 532.458,310.839 528.576,299.543C525.841,299.127 523.104,298.73 520.364,298.35ZM568.648,507.216L583.259,507.216C588.982,507.216 593.622,502.623 593.622,496.956L593.622,489.524C593.622,485.673 592.129,482.146 588.666,480.391C588.666,480.391 570.479,472.299 570.232,472.165C569.365,471.698 568.525,470.541 568.525,469.367L568.525,468.221C568.525,466.475 569.955,465.06 571.718,465.06L580.154,465.06C581.915,465.06 583.343,466.473 583.343,468.216L583.343,470.384L593.622,470.384L593.622,465.563C593.622,459.897 588.982,455.303 583.259,455.303L568.648,455.303C562.924,455.303 558.285,459.897 558.285,465.563L558.285,470.912C558.285,474.762 559.778,478.29 563.241,480.044C563.241,480.044 581.428,488.137 581.675,488.271C582.541,488.738 583.382,489.895 583.382,491.069L583.382,494.299C583.382,496.044 581.952,497.459 580.189,497.459L571.752,497.459C569.992,497.459 568.564,496.046 568.564,494.303L568.564,492.103L558.284,492.103L558.284,496.957C558.284,502.623 562.924,507.216 568.648,507.216ZM593.621,429.39L573.821,429.39L573.821,418.07L587.287,418.07L587.287,408.314L573.82,408.314L573.82,396.992L593.62,396.992L593.62,387.236L563.644,387.236L563.644,439.148L593.62,439.148L593.621,429.39ZM550.472,429.39L531.692,429.39L531.692,387.235L521.515,387.235L521.515,439.147L550.472,439.147L550.472,429.39ZM576.986,372.558L592.833,325.408L593.581,325.668C597.705,327.098 601.814,328.569 605.908,330.083L609.076,320.657C597.128,316.238 585.051,312.179 572.859,308.485L569.692,317.912C573.869,319.177 578.032,320.486 582.182,321.837L582.935,322.081L567.088,369.231C570.396,370.313 573.696,371.422 576.986,372.558ZM445.374,465.06L445.374,455.303L412.816,455.303L412.816,507.216L445.374,507.216L445.374,497.459L423.095,497.459L423.095,486.137L438.975,486.137L438.975,476.382L423.095,476.382L423.095,465.06L445.374,465.06ZM645.92,338.188C641.625,335.904 637.302,333.672 632.954,331.491C631.393,330.704 629.668,330.296 627.92,330.3C623.607,330.3 619.546,332.766 617.574,336.583L600.573,369.488C599.203,372.141 598.95,375.146 599.861,377.952C600.79,380.807 602.807,383.135 605.542,384.508C609.9,386.694 614.232,388.932 618.536,391.222C620.178,392.097 622.009,392.558 623.869,392.564C628.005,392.564 631.756,390.273 633.662,386.585L650.664,353.681C653.564,348.071 651.435,341.121 645.919,338.188L645.92,338.188ZM639.808,351.298L625.679,378.644C624.914,380.131 623.376,381.067 621.704,381.064C620.984,381.064 620.263,380.887 619.618,380.55C617.625,379.506 615.626,378.473 613.621,377.451C612.119,376.69 611.169,375.143 611.169,373.459C611.169,372.744 611.341,372.039 611.669,371.404L625.797,344.059C626.93,341.854 629.673,340.968 631.882,342.092C633.891,343.116 635.894,344.152 637.892,345.198C640.092,346.351 640.951,349.088 639.808,351.298Z" style="fill:white;fill-rule:nonzero;"/>
    </g>
</svg>
