<?xml version="1.0" encoding="UTF-8" standalone="no"?>
<!DOCTYPE svg PUBLIC "-//W3C//DTD SVG 1.1//EN" "http://www.w3.org/Graphics/SVG/1.1/DTD/svg11.dtd">
<svg width="100%" height="100%" viewBox="0 0 960 640" version="1.1" xmlns="http://www.w3.org/2000/svg" xmlns:xlink="http://www.w3.org/1999/xlink" xml:space="preserve" xmlns:serif="http://www.serif.com/" style="fill-rule:evenodd;clip-rule:evenodd;stroke-linejoin:round;stroke-miterlimit:2;">
    <g transform="matrix(20.4648,0,0,41.1649,-5044.78,-1739.54)">
        <rect x="259.175" y="43.31" width="21.541" height="10.109" style="fill:rgb(235,235,235);"/>
    </g>
    <rect x="430.982" y="441.318" width="145.213" height="121.827" style="fill:rgb(235,235,235);"/>
    <path d="M514.049,43.263C513.704,42.923 479.999,11.291 479.999,11.291C479.999,11.291 446.297,42.923 445.951,43.263L251.808,43.263L251.808,469.16C321.456,546.387 383.548,586.5 480,630.935C576.246,586.595 638.326,546.629 708.192,469.16L708.192,43.263L514.049,43.263ZM325.903,225.935L325.903,451.21C323.126,448.468 320.382,445.694 317.671,442.887L317.671,225.937C317.671,134.084 370.506,70.77 445.934,43.28C446.847,43.918 448.471,47.914 448.87,48.953C450.04,52.005 450.994,55.461 451.74,58.673C451.74,58.673 447.62,55.227 443.51,53.255C362.965,86.907 325.903,148.91 325.903,225.936L325.903,225.935ZM474.594,413.595L438.184,295.833L450.421,283.596L447.515,298.144L480,403.212L474.594,413.595ZM517.8,528.981L503.315,545.626L611.108,234.805L621.565,229.78L517.8,528.981Z" style="fill:rgb(185,151,91);fill-rule:nonzero;"/>
    <path d="M691.726,59.728L691.726,462.832C628.12,533.364 561.471,575.268 480,612.806C398.529,575.268 331.88,533.364 268.274,462.832L268.274,59.728L410.682,59.728C354.557,92.379 317.671,149.194 317.671,225.936L317.671,442.886C355.942,482.55 407.671,522.466 456.686,545.626L348.888,234.805L450.421,283.595L438.184,295.833L474.594,413.595L485.407,413.595L521.817,295.833L509.579,283.596L611.109,234.805L503.315,545.625C551.996,522.622 603.753,482.866 642.33,442.886L642.33,225.936C642.33,149.194 605.443,92.379 549.318,59.728L691.726,59.728Z" style="fill:rgb(1,1,1);fill-rule:nonzero;"/>
    <g>
        <path d="M508.26,58.671C511.15,46.23 514.065,43.279 514.065,43.279C502.713,32.613 491.358,21.95 480,11.29L480,322.206L502.594,249.493L622.977,191.561C612.226,129.314 571.67,81.781 508.26,58.671ZM634.097,257.019L544.524,516.246L560.048,496.196C560.048,496.196 600.868,464.948 625.864,436.172L625.864,303.717L634.097,257.019ZM325.903,257.019L400.448,472.753L359.008,375.099L334.136,303.717L325.903,257.019ZM449.235,235.811L353.365,199.426L457.406,249.494L457.406,97.144L449.235,235.811Z" style="fill:rgb(51,63,72);fill-rule:nonzero;"/>
    </g>
</svg>
