<?xml version="1.0" encoding="utf-8"?>
<!-- Generator: Adobe Illustrator 22.0.1, SVG Export Plug-In . SVG Version: 6.00 Build 0)  -->
<svg version="1.1" id="Layer_1" xmlns="http://www.w3.org/2000/svg" xmlns:xlink="http://www.w3.org/1999/xlink" x="0px" y="0px"
	 width="720px" height="720px" viewBox="0 0 720 720" style="enable-background:new 0 0 720 720;" xml:space="preserve">
<style type="text/css">
	.st0{fill:#FFFFFF;}
	.st1{fill:#C8102E;}
</style>
<g>
	<path class="st0" d="M360.0000916,36.0000153c-178.9403687,0-324.0001831,145.0596008-324.0001831,324
		c0,178.9401855,145.0598145,324,324.0001831,324s324.0000305-145.0598145,324.0000305-324c0-0.0648499,0-0.1296997,0-0.1945801
		C683.9462891,180.9188843,538.8866577,35.9461784,360.0000916,36.0000153z"/>
	<path class="st1" d="M637.7703857,241.9724884C589.9537964,131.1291962,480.7171021,59.414463,360.0000916,59.6141243
		c-95.411499-0.2481995-185.2602386,44.8695793-242.0450745,121.5434265
		c7.9870911,2.4309082,23.2669296,6.5981598,42.0192032,12.1543427
		c29.5177002,8.6816711,127.7942047,37.504776,146.1995087,43.4083557
		c53.4789734,17.3633575,67.717041,23.9615173,82.6494751,39.9356995
		c14.9324341,16.3215942,37.8519592,34.7266846,60.4243164,50.3536987s33.3377686,32.6429749,33.3377686,59.72995
		c0,27.086792-20.8360291,50.0063171-33.6849365,57.6462402c0,0,4.5144348-12.848938-1.7363281-18.7522888
		c-6.2507629-5.903595-26.0450439-16.6689758-76.3987427-13.1963196
		c-50.3536987,3.8200684-118.0707397,28.1287537-163.9100189,52.7846069c0,0,21.8779755-34.379303,54.5209503-50.0062866
		c0,0-27.0867767,0-178.1478882,65.9807129c66.0597687,153.1325378,243.7502441,223.7188416,396.8828125,157.6590271
		C633.2438965,572.7955322,703.8302002,395.1050415,637.7703857,241.9724884z M473.0627747,568.5621338
		c-34.686615,18.8824463-73.5697327,28.725647-113.0626831,28.6211548
		c-63.3047791,0.107666-123.9488831-25.453064-168.0772552-70.8423462
		c121.8908234-62.8554382,197.9421539-46.533844,197.9421539-34.3795166c0,12.5017395-18.7522888,41.6720581-18.7522888,41.6720581
		c99.3182373-13.890686,171.8971252-73.9678345,171.8971252-154.533783c0-80.9131775-75.7043762-119.8070984-94.8040466-131.6142578
		c-20.4886169-12.8487091-10.7651978-30.2120514-78.4822388-55.5627136
		c-41.3248596-15.6270142-98.9710693-30.9066315-121.5434265-36.463028
		c114.0749817-62.0996017,256.8927307-19.9650879,318.9923706,94.1098938
		C629.2720947,363.6447754,587.1377563,506.4625549,473.0627747,568.5621338z M272.4888,271.7941284
		c1.7363281-5.2090149-18.0579224-2.7781067-18.0579224-2.7781067c23.2669373-21.5305786,50.3536987-1.7363281,68.0642395,6.945343
		c10.9264832,5.2408142,22.9642334,7.7435608,35.0740662,7.2927246
		c-3.1254883,38.1993713-34.3794861,46.8810425-61.813446,35.4210815
		C269.0161438,307.2153931,270.7524719,277.0031433,272.4888,271.7941284z"/>
</g>
</svg>
