<?xml version="1.0" encoding="UTF-8" standalone="no"?>
<!DOCTYPE svg PUBLIC "-//W3C//DTD SVG 1.1//EN" "http://www.w3.org/Graphics/SVG/1.1/DTD/svg11.dtd">
<svg width="100%" height="100%" viewBox="0 0 720 720" version="1.1" xmlns="http://www.w3.org/2000/svg" xmlns:xlink="http://www.w3.org/1999/xlink" xml:space="preserve" xmlns:serif="http://www.serif.com/" style="fill-rule:evenodd;clip-rule:evenodd;stroke-linejoin:round;stroke-miterlimit:2;">
    <g>
        <path d="M374.33,575.976C383.539,575.976 411.779,575.901 435.315,555.838C456.179,536.922 458.317,514.647 458.929,489.579L458.776,418.962C458.776,396.877 458.776,369.809 435.695,350.715C430.479,346.398 424.61,342.937 418.308,340.463C428.826,333.469 436.612,323.064 440.357,311.001C443.041,301.175 444.175,290.989 443.719,280.813L443.529,217.955C442.956,200.568 441.044,180.738 426.983,164.686C414.568,151.02 395.881,143.925 372.198,143.925L371.739,143.925L286.488,144.154C283.912,144.187 281.448,145.213 279.61,147.019C277.784,148.774 276.773,151.211 276.821,153.743L277.547,566.471C277.525,569.845 279.301,572.975 282.209,574.685C283.828,575.688 285.694,576.217 287.598,576.214L374.339,575.985L374.33,575.976ZM407.232,393.36C409.544,401.454 410.561,409.863 410.247,418.274L410.401,476.775C410.401,503.447 408.758,515.977 398.556,523.853C392.48,528.21 385.029,530.771 365.989,531.419C365.989,531.419 333.316,531.494 330.795,531.494C327.852,531.494 326.706,529.685 326.706,526.908C326.706,502.835 326.362,370.198 326.362,369.092C326.151,367.704 327.106,366.408 328.494,366.197C328.725,366.162 328.959,366.159 329.191,366.188C340.679,365.939 352.172,366.322 363.619,367.334C373.591,368.404 384.214,370.198 392.812,375.662C399.505,379.7 404.586,385.941 407.18,393.315L407.232,393.36ZM328.401,187.933L351.9,187.933C382.508,187.933 395.691,192.456 395.691,223.739L395.691,276.697C395.308,289.422 395.088,310.974 369.897,318.54C362.865,320.527 359.502,321.139 344.181,321.673L329.01,321.673C328.91,321.694 328.81,321.707 328.708,321.712C326.338,321.712 325.693,320.452 325.693,318.54C325.693,317.316 325.539,191.446 325.539,191.446C325.539,189.383 326.266,188.198 328.404,187.969L328.401,187.933ZM360.003,36C181.063,35.998 36.002,181.057 36,359.997C35.998,538.937 181.057,683.998 359.997,684C538.937,684.002 683.998,538.943 684,360.003L684,360C683.789,181.147 538.853,36.211 360,36L360.003,36ZM653.32,280.901C658.966,301.812 662.348,323.27 663.407,344.904C654.466,362.636 636.889,377.231 624.088,384.407C622.981,376.039 621.528,366.562 619.565,357.85C617.579,348.908 615.414,340.132 613.069,331.522C623.211,325.314 632.091,317.251 639.244,307.754C645.328,299.603 650.075,290.536 653.305,280.891L653.32,280.901ZM360.003,56.213C472.605,56.281 575.943,118.592 628.557,218.145C641.352,241.896 639.925,270.782 624.851,293.155C624.278,293.997 623.705,294.799 623.042,295.64C618.536,301.628 613.135,306.886 607.029,311.23C590.598,259.261 567.288,213.905 537.371,176.073C506.869,137.281 468.319,105.562 424.378,83.102C402.089,71.724 378.663,62.728 354.488,56.264C356.321,56.264 358.106,56.189 359.952,56.189L360.003,56.213ZM162.597,590.688C97.057,534.742 58.404,453.561 56.291,367.415C74.727,386.613 95.514,403.407 118.157,417.397C160.656,443.412 207.894,460.733 257.135,468.359L257.135,447.853C212.055,440.496 168.813,424.524 129.773,400.812C87.894,374.878 64.391,346.895 57.018,337.266C60.53,289.59 75.331,243.433 100.2,202.606C113.076,197.754 172.65,179.411 247.929,220.566C250.794,222.135 253.737,223.775 256.719,225.458L256.719,202.299C197.616,170.316 147.317,171.462 117.627,177.002C147.588,137.411 186.729,105.701 231.676,84.607C265.4,68.829 303.459,64.884 339.703,73.41C365.878,79.554 391.217,88.83 415.172,101.038C456.529,122.182 492.813,152.04 521.522,188.554C550.64,225.391 573.223,269.909 588.967,321.151C578.259,325.498 567.034,328.437 555.57,329.896C526.796,333.871 494.202,326.763 460.582,313.884C459.043,320.473 456.422,326.761 452.826,332.493C482.477,343.879 511.788,351.216 539.187,351.216C545.59,351.222 551.986,350.801 558.332,349.955C570.745,348.344 582.919,345.252 594.597,340.746C596.468,347.782 598.213,354.928 599.831,362.183C602.177,372.777 603.938,383.492 605.106,394.28C575.49,409.566 533.153,425.002 479.082,436.618L479.082,457.123C528.298,446.807 572.282,432.698 606.595,416.161C607.092,433.845 605.838,451.534 602.85,468.971C584.656,480.455 567.52,493.537 551.647,508.061C503.498,550.579 456.803,588.002 372.623,614.939C330.282,628.509 287.64,630.032 255.962,628.237C221.553,626.288 188.742,613.065 162.597,590.61L162.597,590.688ZM581.401,538.451C577.999,545.99 574.447,552.925 570.931,559.315C553.197,591.244 526.078,616.95 493.246,632.951C422.699,667.431 341.537,673.238 266.8,649.153C270.117,649.228 273.525,649.307 277.053,649.307C311.53,649.555 345.84,644.49 378.775,634.29C466.547,606.164 516.951,565.738 565.021,523.319C577.248,512.545 587.565,504.252 596.315,497.869C592.364,511.76 587.383,525.337 581.413,538.487L581.401,538.451ZM600.353,545.519C609.408,525.294 616.224,504.139 620.681,482.432C632.869,476.356 638.333,476.814 640.17,477.306C629.91,501.669 616.53,524.596 600.365,545.513L600.353,545.519ZM648.348,455.606C645.996,454.943 643.534,454.762 641.111,455.073C635.47,455.551 629.912,456.732 624.565,458.589C626.693,441.096 627.243,423.448 626.208,405.857C632.493,402.25 638.589,398.325 644.473,394.096C651.118,389.332 657.371,384.042 663.169,378.277C661.603,404.595 656.606,430.595 648.306,455.618L648.348,455.606Z" style="fill:none;fill-rule:nonzero;stroke:white;stroke-width:37px;"/>
        <path d="M374.33,575.976C383.539,575.976 411.779,575.901 435.315,555.838C456.179,536.922 458.317,514.647 458.929,489.579L458.776,418.962C458.776,396.877 458.776,369.809 435.695,350.715C430.479,346.398 424.61,342.937 418.308,340.463C428.826,333.469 436.612,323.064 440.357,311.001C443.041,301.175 444.175,290.989 443.719,280.813L443.529,217.955C442.956,200.568 441.044,180.738 426.983,164.686C414.568,151.02 395.881,143.925 372.198,143.925L371.739,143.925L286.488,144.154C283.912,144.187 281.448,145.213 279.61,147.019C277.784,148.774 276.773,151.211 276.821,153.743L277.547,566.471C277.525,569.845 279.301,572.975 282.209,574.685C283.828,575.688 285.694,576.217 287.598,576.214L374.339,575.985L374.33,575.976ZM407.232,393.36C409.544,401.454 410.561,409.863 410.247,418.274L410.401,476.775C410.401,503.447 408.758,515.977 398.556,523.853C392.48,528.21 385.029,530.771 365.989,531.419C365.989,531.419 333.316,531.494 330.795,531.494C327.852,531.494 326.706,529.685 326.706,526.908C326.706,502.835 326.362,370.198 326.362,369.092C326.151,367.704 327.106,366.408 328.494,366.197C328.725,366.162 328.959,366.159 329.191,366.188C340.679,365.939 352.172,366.322 363.619,367.334C373.591,368.404 384.214,370.198 392.812,375.662C399.505,379.7 404.586,385.941 407.18,393.315L407.232,393.36ZM328.401,187.933L351.9,187.933C382.508,187.933 395.691,192.456 395.691,223.739L395.691,276.697C395.308,289.422 395.088,310.974 369.897,318.54C362.865,320.527 359.502,321.139 344.181,321.673L329.01,321.673C328.91,321.694 328.81,321.707 328.708,321.712C326.338,321.712 325.693,320.452 325.693,318.54C325.693,317.316 325.539,191.446 325.539,191.446C325.539,189.383 326.266,188.198 328.404,187.969L328.401,187.933ZM360.003,36C181.063,35.998 36.002,181.057 36,359.997C35.998,538.937 181.057,683.998 359.997,684C538.937,684.002 683.998,538.943 684,360.003L684,360C683.789,181.147 538.853,36.211 360,36L360.003,36ZM653.32,280.901C658.966,301.812 662.348,323.27 663.407,344.904C654.466,362.636 636.889,377.231 624.088,384.407C622.981,376.039 621.528,366.562 619.565,357.85C617.579,348.908 615.414,340.132 613.069,331.522C623.211,325.314 632.091,317.251 639.244,307.754C645.328,299.603 650.075,290.536 653.305,280.891L653.32,280.901ZM360.003,56.213C472.605,56.281 575.943,118.592 628.557,218.145C641.352,241.896 639.925,270.782 624.851,293.155C624.278,293.997 623.705,294.799 623.042,295.64C618.536,301.628 613.135,306.886 607.029,311.23C590.598,259.261 567.288,213.905 537.371,176.073C506.869,137.281 468.319,105.562 424.378,83.102C402.089,71.724 378.663,62.728 354.488,56.264C356.321,56.264 358.106,56.189 359.952,56.189L360.003,56.213ZM162.597,590.688C97.057,534.742 58.404,453.561 56.291,367.415C74.727,386.613 95.514,403.407 118.157,417.397C160.656,443.412 207.894,460.733 257.135,468.359L257.135,447.853C212.055,440.496 168.813,424.524 129.773,400.812C87.894,374.878 64.391,346.895 57.018,337.266C60.53,289.59 75.331,243.433 100.2,202.606C113.076,197.754 172.65,179.411 247.929,220.566C250.794,222.135 253.737,223.775 256.719,225.458L256.719,202.299C197.616,170.316 147.317,171.462 117.627,177.002C147.588,137.411 186.729,105.701 231.676,84.607C265.4,68.829 303.459,64.884 339.703,73.41C365.878,79.554 391.217,88.83 415.172,101.038C456.529,122.182 492.813,152.04 521.522,188.554C550.64,225.391 573.223,269.909 588.967,321.151C578.259,325.498 567.034,328.437 555.57,329.896C526.796,333.871 494.202,326.763 460.582,313.884C459.043,320.473 456.422,326.761 452.826,332.493C482.477,343.879 511.788,351.216 539.187,351.216C545.59,351.222 551.986,350.801 558.332,349.955C570.745,348.344 582.919,345.252 594.597,340.746C596.468,347.782 598.213,354.928 599.831,362.183C602.177,372.777 603.938,383.492 605.106,394.28C575.49,409.566 533.153,425.002 479.082,436.618L479.082,457.123C528.298,446.807 572.282,432.698 606.595,416.161C607.092,433.845 605.838,451.534 602.85,468.971C584.656,480.455 567.52,493.537 551.647,508.061C503.498,550.579 456.803,588.002 372.623,614.939C330.282,628.509 287.64,630.032 255.962,628.237C221.553,626.288 188.742,613.065 162.597,590.61L162.597,590.688ZM581.401,538.451C577.999,545.99 574.447,552.925 570.931,559.315C553.197,591.244 526.078,616.95 493.246,632.951C422.699,667.431 341.537,673.238 266.8,649.153C270.117,649.228 273.525,649.307 277.053,649.307C311.53,649.555 345.84,644.49 378.775,634.29C466.547,606.164 516.951,565.738 565.021,523.319C577.248,512.545 587.565,504.252 596.315,497.869C592.364,511.76 587.383,525.337 581.413,538.487L581.401,538.451ZM600.353,545.519C609.408,525.294 616.224,504.139 620.681,482.432C632.869,476.356 638.333,476.814 640.17,477.306C629.91,501.669 616.53,524.596 600.365,545.513L600.353,545.519ZM648.348,455.606C645.996,454.943 643.534,454.762 641.111,455.073C635.47,455.551 629.912,456.732 624.565,458.589C626.693,441.096 627.243,423.448 626.208,405.857C632.493,402.25 638.589,398.325 644.473,394.096C651.118,389.332 657.371,384.042 663.169,378.277C661.603,404.595 656.606,430.595 648.306,455.618L648.348,455.606Z" style="fill-rule:nonzero;"/>
        <path d="M640.17,477.306C629.91,501.669 616.53,524.596 600.365,545.513L600.353,545.519C609.408,525.294 616.224,504.139 620.681,482.432C632.869,476.356 638.333,476.814 640.17,477.306ZM255.962,628.237C221.553,626.288 188.742,613.065 162.597,590.61L162.597,590.688C97.057,534.742 58.404,453.561 56.291,367.415C74.727,386.613 95.513,403.407 118.157,417.397C160.656,443.412 207.894,460.733 257.135,468.359L257.135,447.853C212.055,440.496 168.813,424.524 129.773,400.812C87.894,374.878 64.391,346.895 57.018,337.266C60.529,289.59 75.331,243.433 100.2,202.606C113.076,197.754 172.65,179.411 247.929,220.567C250.794,222.134 253.737,223.775 256.719,225.458L256.719,202.299C197.616,170.316 147.317,171.462 117.626,177.001C147.588,137.411 186.729,105.701 231.676,84.607C265.4,68.829 303.46,64.884 339.703,73.41C365.878,79.554 391.217,88.83 415.171,101.038C456.53,122.182 492.813,152.039 521.522,188.554C550.64,225.391 573.223,269.909 588.967,321.151C578.259,325.498 567.034,328.437 555.57,329.896C526.796,333.871 494.202,326.763 460.582,313.884C459.043,320.473 456.422,326.761 452.826,332.493C482.477,343.879 511.788,351.216 539.187,351.216C545.589,351.222 551.986,350.801 558.332,349.955C570.744,348.344 582.919,345.252 594.597,340.746C596.468,347.782 598.213,354.928 599.831,362.183C602.177,372.777 603.938,383.492 605.106,394.28C575.49,409.566 533.153,425.002 479.082,436.618L479.082,457.123C528.298,446.807 572.282,432.698 606.595,416.161C607.092,433.845 605.838,451.534 602.85,468.971C584.656,480.455 567.52,493.537 551.647,508.061C503.498,550.579 456.803,588.002 372.623,614.939C330.282,628.509 287.64,630.032 255.962,628.237ZM282.209,574.685C283.828,575.687 285.694,576.217 287.598,576.214L374.339,575.985L374.33,575.976C383.539,575.976 411.779,575.9 435.315,555.838C456.179,536.922 458.317,514.647 458.929,489.579L458.776,418.962C458.776,396.877 458.776,369.809 435.695,350.715C430.479,346.398 424.61,342.937 418.308,340.463C428.826,333.469 436.612,323.064 440.357,311.001C443.041,301.175 444.175,290.989 443.719,280.813L443.529,217.955C442.956,200.568 441.044,180.738 426.983,164.686C414.568,151.02 395.881,143.925 372.198,143.925L371.739,143.925L286.488,144.154C283.912,144.187 281.448,145.213 279.61,147.018C277.784,148.774 276.773,151.211 276.82,153.743L277.547,566.471C277.525,569.845 279.301,572.975 282.209,574.685ZM378.775,634.289C345.84,644.49 311.53,649.555 277.053,649.307C273.525,649.307 270.117,649.228 266.8,649.153C341.537,673.238 422.699,667.431 493.246,632.951C526.078,616.95 553.197,591.244 570.931,559.315C574.447,552.925 577.999,545.99 581.401,538.451L581.413,538.487C587.383,525.337 592.364,511.759 596.316,497.868C587.565,504.252 577.248,512.545 565.021,523.319C516.951,565.738 466.547,606.164 378.775,634.289ZM328.708,321.712C328.809,321.707 328.91,321.693 329.01,321.673L344.181,321.673C359.503,321.139 362.865,320.527 369.897,318.54C395.088,310.974 395.308,289.422 395.691,276.697L395.691,223.739C395.691,192.456 382.508,187.933 351.9,187.933L328.401,187.933L328.404,187.969C326.266,188.198 325.539,189.383 325.539,191.446C325.539,191.446 325.693,317.316 325.693,318.54C325.693,320.452 326.338,321.712 328.708,321.712ZM363.619,367.334C352.172,366.322 340.679,365.939 329.191,366.188C328.959,366.159 328.725,366.162 328.494,366.197C327.106,366.408 326.151,367.704 326.362,369.092C326.362,370.199 326.706,502.835 326.706,526.908C326.706,529.685 327.852,531.494 330.795,531.494C333.316,531.494 365.989,531.419 365.989,531.419C385.029,530.771 392.48,528.21 398.556,523.853C408.757,515.977 410.401,503.447 410.401,476.775L410.247,418.275C410.561,409.863 409.544,401.454 407.232,393.361L407.18,393.315C404.586,385.941 399.506,379.7 392.812,375.663C384.215,370.199 373.591,368.404 363.619,367.334ZM613.069,331.522C615.414,340.132 617.579,348.908 619.565,357.85C621.528,366.562 622.981,376.04 624.088,384.407C636.889,377.231 654.466,362.635 663.407,344.904C662.347,323.27 658.966,301.812 653.32,280.901L653.305,280.892C650.075,290.536 645.328,299.603 639.244,307.754C632.09,317.251 623.211,325.314 613.069,331.522ZM626.208,405.857C627.243,423.448 626.693,441.096 624.565,458.589C629.912,456.732 635.47,455.551 641.111,455.073C643.522,454.763 645.97,454.945 648.312,455.6C656.608,430.582 661.603,404.588 663.169,378.277C657.37,384.042 651.119,389.332 644.473,394.096C638.589,398.325 632.493,402.25 626.208,405.857ZM360.003,56.213L359.952,56.189C358.106,56.189 356.321,56.264 354.488,56.264C378.663,62.728 402.089,71.724 424.378,83.102C468.319,105.562 506.869,137.281 537.371,176.073C567.288,213.905 590.598,259.261 607.029,311.23C613.135,306.886 618.536,301.628 623.042,295.64C623.705,294.799 624.278,293.997 624.851,293.156C639.925,270.782 641.352,241.896 628.557,218.145C575.943,118.592 472.605,56.281 360.003,56.213Z" style="fill:white;fill-rule:nonzero;"/>
    </g>
</svg>
