<?xml version="1.0" encoding="utf-8"?>
<!-- Generator: Adobe Illustrator 22.0.1, SVG Export Plug-In . SVG Version: 6.00 Build 0)  -->
<svg version="1.1" id="Layer_1" xmlns="http://www.w3.org/2000/svg" xmlns:xlink="http://www.w3.org/1999/xlink" x="0px" y="0px"
	 width="720px" height="720px" viewBox="0 0 720 720" style="enable-background:new 0 0 720 720;" xml:space="preserve">
<style type="text/css">
	.st0{fill:#A1A1A4;}
	.st1{fill:#1D1160;}
	.st2{fill:#00788C;}
	.st3{fill:#FFFFFF;}
</style>
<g>
	<path class="st0" d="M684,103.6802902c0,0-21.6580811,10.4799881-27.421936,13.1000977
		c11.5280762-37.3772278,18.8639526-70.5649643,18.8639526-70.5649643s-142.5296021,93.4466705-246.8043213,176.5874786
		l-1.572052-1.2226257v-5.4147797c0-1.2224731,0-3.143631-0.6986694-5.7637329
		c-1.0482178-3.4933319-3.4933167-7.3360748-9.6067505-11.1786499c7.6853333-5.7638855,21.1345215-15.0211029,22.3572998-16.2437286
		c10.1305847-8.3839874,11.5279236-17.6413574,10.8292542-22.7065735l-1.5720215-10.8292389l-55.0202026,40.8705444
		c-15.8952026-4.5413971-37.0291443-8.558548-67.0716248,0l-55.0203552-40.8705444l-1.5718994,10.8292389
		c-0.6986694,4.5412598,1.2225037,14.1480255,10.8292542,22.7065735
		c1.2227783,1.5717316,15.0212402,10.4798431,22.3571777,16.2437286c-5.7640381,3.8425751-8.3840027,7.685318-9.606781,11.1786499
		c-0.6986694,2.619812-0.6986694,4.5411072-0.6986694,5.7637329v5.4147797l-1.5718689,1.2226257
		C189.3551788,141.584137,44.5581055,46.0414581,44.5581055,46.0414581s8.9079514,40.1718903,18.8638306,70.5648117
		C57.1345329,113.4620514,36,103.5063248,36,103.5063248s8.0347328,25.3263779,14.6719856,41.9196548
		c9.7811737,27.421936,28.1217766,68.1207428,42.444355,95.5426788
		c8.0334091,13.1005402,20.4352798,25.8510742,35.8057785,35.4577026
		c9.6072083,6.1132813,20.7858582,11.1786499,31.9643707,15.0212402c0,0,9.6064758,23.2303772,19.0385437,34.933136h-38.6006012
		v52.7502441l-37.0289917,17.6410522l37.0289917,18.3397217v44.366394l35.8059235,22.0077515
		c0,0,28.6455994-3.4931946,42.4443665-5.0650635l113.1953888,65.4904175
		c22.7056885,103.9266968,28.1204529,132.0473022,28.1204529,132.0473022s5.7634277-29.5179443,28.1206055-132.0473022
		l113.1832886-65.5001526c13.9733276,1.5718689,42.4443359,5.0652161,42.4443359,5.0652161l35.8057861-22.0079041v-44.3662415
		l37.0291748-18.5145874l-37.0291748-17.6410522V326.546875h-38.6004639
		c9.6068115-12.2277527,18.8638306-34.5848999,18.8638306-34.5848999
		c18.8615112-6.4621277,51.1760254-23.0559692,67.4197388-50.8283539
		c9.6071777-16.5938721,28.8192749-56.9422302,43.491272-95.5426788l-0.0203857,0.0091553
		C671.5985718,145.6000977,680.1572876,123.941452,684,103.6802902z"/>
	<path class="st1" d="M647.8672485,130.3917542c11.8773193-37.0291443,19.5625-68.6429291,19.5625-68.6429291
		s-132.5718384,87.8573456-236.1478882,170.2994843l-8.9081116-5.4146271c0-0.6986694,0.3493958-8.034729,0.3493958-8.9080963
		c0,0,1.2226257-8.558548-14.3225708-13.7987671c-1.2226257-0.3492584-1.9212952-0.6986694-2.6201172-0.6986694
		c7.3359375-5.7638855,19.2132568-14.3225708,27.421936-20.0866089
		c13.4490662-9.2572021,11.8771973-19.5626373,11.8771973-19.5626373l-49.2543945,36.6786957
		c-37.7278137-12.4014282-69.3417664,0-69.3417664,0l-49.2543945-36.6786957c0,0-1.5720215,9.9558716,11.8771973,19.5626373
		c8.5585327,5.7638855,20.4358521,14.3225861,27.772522,20.0866089c-0.6986694,0.349411-1.9212952,0.6986694-2.6201172,0.6986694
		c-15.3706665,5.4147644-14.3225708,13.7987671-14.3225708,13.7987671c0,0.6986542,0.3492432,8.0345764,0.3492432,8.9080963
		l-8.9080811,4.5412598C187.755249,148.9286041,55.3599052,61.2477341,55.3599052,61.2477341
		s7.3360672,31.6137848,19.5626488,68.6429214c-16.2438736-7.685318-27.4219398-13.4492035-27.4219398-13.4492035
		s21.4837914,64.8015289,50.1296883,117.0272064c10.4798355,21.1343842,35.457695,42.4443665,68.9935074,52.3996582
		c0,0,5.7637329,13.1000671,10.4798431,22.3571472c6.0527954,11.7595825,17.0539398,24.1847534,17.2718811,24.4304504h-46.2288055
		v50.1296692l-27.7723846,13.4492188l27.7723846,14.671814v44.3662415l30.7411499,18.8639832
		c11.1786499-1.5720215,25.4998932-3.4933167,42.4443512-5.0652161l118.2479095,68.1207581L361.2388,636.2283936
		c0-0.3493042,22.0077515-99.0360107,22.0077515-99.0360107l118.2480469-68.1207581
		c16.5932922,1.9212952,31.2657166,3.4933472,42.4443665,5.0652161l30.3929443-18.8639832v-44.3662415l27.772522-14.3225708
		l-27.772522-13.7986145v-50.1296692h-46.2857666c0,0,7.3360596-6.9866638,16.2438354-22.3571777
		c3.8425903-6.4625549,7.3359375-14.6719666,11.5278931-23.9290466
		c33.5357056-9.9561768,58.1629639-31.6139221,68.9935303-52.3997955
		c28.8191528-52.3996429,50.4777832-117.0270462,50.4777832-117.0270462S662.8877563,123.0561295,647.8672485,130.3917542z"/>
	<path class="st2" d="M221.3369598,335.4602966c0,0-22.7077484-16.2457886-35.8082886-46.2955017l8.9085388,2.6109619
		c29.6944122,7.6876831,86.6389923,15.7380676,86.6389923,15.7380676
		c-27.426651,0.7010193-50.8307037,2.6109619-63.9312439,4.182251c-2.6205444-3.4812317-6.1138763-7.6876831-7.3370972-10.8304443
		c0,0,1.2232208,10.4919434,3.4933319,16.9468384C216.7945251,327.4099426,221.3369598,335.4602966,221.3369598,335.4602966z
		 M232.513092,442.8705444c-4.1919861,0.3627014-8.0308838,0.7010498-11.8748016,1.2329712l80.5274811,46.6338501
		c-4.3757019-4.7142029-7.8569336-9.2591248-10.8304443-14.3358765L232.513092,442.8705444z M334.7015686,475.70047
		c-2.1032104-5.7536926-8.2196045-12.0391846-14.6743469-18.8565979l-5.7536926-5.7536926
		c-8.0502319,3.1427307-12.7644043,6.1162415-15.3753662,8.0261536
		C304.6518555,464.5315552,315.4822998,471.518219,334.7015686,475.70047z M305.6962585,257.5510254
		c-43.8512878-35.8059387-129.0905914-101.3084869-225.329422-159.4715729
		c7.685173,23.0558243,8.035759,21.658493,8.035759,21.658493
		c90.8261185,58.5136719,172.2190247,111.7884674,218.8651123,142.1815491
		C306.3972778,260.696106,306.034729,259.1223145,305.6962585,257.5510254z M338.0014648,233.9704895
		c2.4417114,5.763443,3.8439331,27.7748718,16.2457886,33.190094c-10.298645,9.6048584-23.0632019,6.9841614-32.660675-1.5737915
		c11.8699341,25.8504639,31.9595032,35.8106384,39.6473389,38.9533691
		c6.8174133-5.2459717,10.2984924-21.1362915,6.9865112-37.3795776c12.401886-5.4152222,13.9733276-27.4268036,16.2457886-33.190094
		c5.0767212-12.0512848,12.401886-17.466507,18.5181274-20.087204c-2.6108398-0.6986694-5.4152222-1.921875-8.0261841-2.6205444
		c-5.777771,2.9711304-15.3753662,10.3058777-18.5181274,24.6296234c0,0-1.0636902-16.245636,6.9866638-27.7723694
		c-6.3822632-1.7479248-13.5381775-2.705246-21.0808105-2.7487793c-7.5184631-0.0433807-15.4237671,0.826889-23.3047485,2.7487793
		c8.2194519,11.5267334,7.0107117,27.7723694,7.0107117,27.7723694
		c-3.1669617-14.6718292-12.7644348-21.484375-18.5181274-24.6296234c-2.2724609,0.6986694-4.9076233,1.3998413-8.050354,2.6205444
		C325.5996094,216.3298798,332.9489441,222.4437561,338.0014648,233.9704895z M335.4026184,484.4518738
		c-25.5047913-5.7778931-36.1659546-18.1797791-36.1659546-18.1797791
		c5.4151917,10.4920959,13.1028748,20.0895691,22.7005005,26.2059631
		C322.2997131,492.6472778,333.130127,489.1660461,335.4026184,484.4518738z M387.4518127,476.0631714
		c19.5576172-4.206604,30.0497131-11.1931152,35.8034058-16.6083374c-2.2724609-2.2482605-7.3491821-5.4153748-15.3753662-8.0261841
		l-5.7536926,5.7537231C395.8405151,463.6612854,389.7242737,469.9467773,387.4518127,476.0631714z M501.0630188,334.9283752
		c-0.1208496,0.0968018-0.4351501,0.3384705-0.4351501,0.3384705
		C500.70047,335.2910461,500.8697205,335.1701965,501.0630188,334.9283752z M440.8909912,307.3203735
		c27.2454529,0.3626709,50.8162231,2.6351624,63.9191284,4.2064514c2.8044128-3.5052795,6.116394-7.3491821,7.3493652-10.8304138
		c0,0-1.2329712,10.298645-3.5054321,16.9468079c-2.5867615,8.509552-6.2372437,15.6896667-7.5910339,17.2851563
		c2.3208618-1.7163391,23.3049011-17.8895264,35.3682556-45.9328308l-8.9206543,2.6109619
		C497.4851379,299.6326904,440.8909912,307.3203735,440.8909912,307.3203735z M416.5951233,257.5510254
		c-0.338501,1.5712891-1.2087708,3.1450806-1.5714722,4.1919861
		c46.6580505-30.3907166,127.5240173-83.1433105,218.3501282-142.1790314c0,0,0,1.9218903,8.0261841-21.658638
		C546.0289307,156.2425385,460.9806824,221.7450867,416.5951233,257.5510254z M389.1925049,497.8932495
		c-2.2724609-1.2329407-5.0526733-3.1427307-7.3251343-5.4151917c-2.6350098-2.6109619-4.5449524-5.7537231-4.5449524-9.9601746
		c0-12.4018555,8.5579529-16.9468079,18.1555786-26.2059326c1.9339905-1.90979,3.84375-4.182251,6.1162415-6.1162415
		c-8.8964539-2.248291-20.7905884-4.1824036-37.0362244-4.520752l-4.1824036,53.6205139h-0.3625488l-3.8197327-53.6205139
		c-16.2457886,0.3383484-28.4783936,2.2724609-37.036377,4.520752c1.90979,2.2724609,4.1822815,4.2064514,6.1162415,6.1162415
		c9.5976257,9.2591248,18.1555786,13.4655762,18.1555786,26.2059326c0,3.8437805-1.90979,7.3492126-4.5449219,9.9601746
		c-1.5713196,2.2724609-4.7140503,3.84375-7.3250122,5.4151917c-0.7010193,0.5317993-1.9339905,0.8702698-2.6109619,1.2087708
		c10.806366,6.6481628,18.4940796,9.2591248,21.6368103,10.4919434c0,0-6.0921936,1.0395203-13.4413757,0.3384705
		c2.4417114,3.8439331,4.7141724,7.3491821,6.9866333,11.5316162c1.9339905-0.7010498,8.0261841-4.182251,16.584137-4.182251
		c8.9206543,0,14.6743469,3.4812012,15.9073181,4.182251c1.9097595-4.182251,4.7141724-7.6876831,6.9866333-11.5316162
		c-6.9866333,1.2329712-13.4413757-0.3384705-13.4413757-0.3384705c3.1427307-1.2328186,11.1689148-3.5052795,21.6366577-10.4919434
		C391.1264954,498.5942993,389.8935242,498.2317505,389.1925049,497.8932495z M431.9824219,476.4014893
		c-2.6108093,5.0768738-6.1162415,9.6216736-10.8304138,14.3358765l80.5274658-46.6338501
		c-3.84375-0.5319214-7.6876831-0.8704224-11.8699341-1.2329712L431.9824219,476.4014893z M423.2552185,466.4413452
		c0,0-10.4919128,12.7645569-36.1660767,18.1797791c2.2724609,4.5449219,13.4655762,8.0261536,13.4655762,8.0261536
		c9.5976257-6.9866333,17.6479797-15.7138367,22.7005005-26.20578V466.4413452z"/>
	<path class="st3" d="M313.7296448,345.0577698v-0.3383484h0.1692505L313.7296448,345.0577698z M265.8773193,277.6380615
		l6.9842834,1.2208557L129.9862823,175.6334381l182.8803253,99.7321625
		c-2.2724609-4.191864-4.2064514-8.3815002-6.1162415-13.446106
		c-46.4622498-30.3930817-127.5071869-83.3197937-218.3331604-142.1815491c0,0,8.0334015,17.9911957,19.2119064,43.4912567
		l-33.0087509-16.591507c0,0,22.7053909,59.734375,35.9798889,80.5202484
		c28.6451569,38.075882,79.8192291,43.1406708,79.8192291,43.1406708L265.8773193,277.6380615z M313.7296448,324.9682007v19.7512207
		h-5.2459717v-7.3493347h-6.6239624v7.3493347h-5.7778931v-22.36203h15.0370178L313.7296448,324.9682007z M308.4836731,327.2406921
		h-6.6239624v5.4152222h6.6239624V327.2406921z M383.5959473,322.3573914h15.0128174l2.6350098,2.6108093v20.0895691h-15.0368652
		l-2.6109619-2.6108093V322.3573914z M389.0111694,339.9810486h6.4548645V327.603363h-6.4548645V339.9810486z
		 M390.0506897,248.8164368c-1.5713196,13.448761-10.8304443,19.5650024-10.8304443,19.5650024
		C401.9449768,269.6046448,390.0506897,248.8164368,390.0506897,248.8164368z M332.5863953,345.2270203h-5.7536926v-22.36203
		h15.1819153l2.6351624,2.6351624v11.8699341h-2.2724609l3.6746826,7.6876831h-5.7779236l-3.4812317-7.6876831h-4.2064514
		V345.2270203z M332.5863953,331.9548645h6.6481628v-4.5449219h-6.6481628V331.9548645z M253.6423187,329.3439026v-6.9865112
		h-16.5938721v20.0895691l2.7971802,2.6108093h13.7966919v-7.3249817h-5.4128571v2.2482605h-5.2410889v-12.2084351h5.2410889
		v1.5712891H253.6423187z M372.4270325,339.9810486H364.20755v-17.6236572h-5.7536926v22.7003784h13.973175V339.9810486z
		 M343.7795105,268.3814392c0,0-9.2591248-6.1162415-10.8305664-19.5650024
		C333.1181946,248.8164368,320.7163086,269.6046448,343.7795105,268.3814392z M336.7904968,358.6925964l6.092041,7.3251648
		v58.8664551h15.7380676c-0.1692505-0.5317688-0.1692505-52.0490417-0.1692505-52.0490417h17.6237793v51.6865234
		c5.4152222,0,10.8304443,0,16.2456665,0.3625183v-58.8664551l-7.3250122-7.3251648H336.7904968z M459.4068909,372.835022
		h13.4413757v55.8929749c5.7536926,0.3384705,11.1689148,0.7011719,16.9468079,1.5714417V372.835022h13.4414063v-14.3358765
		h-43.8295898V372.835022z M424.8145752,345.0577698v-17.2851563l4.5449524-0.3626709v-5.0525513h-15.7138672v5.4152222h5.0526733
		v17.2851563H424.8145752z M440.8911133,327.7726135h5.0525513v17.2851563h6.1163635v-17.2851563l4.2064819-0.3626709v-5.0525513
		h-15.3753967V327.7726135z M485.9536743,327.7726135v-5.4152222h-16.6083374v22.7003784h16.6083374v-5.0767212h-11.1931152
		v-3.4812317h11.1931152v-5.2459717h-11.1931152v-3.4812317H485.9536743z M526.8096313,376.3162537v-17.6236572h16.6083374
		v6.4547424h15.7138062v-20.4279175h-53.0885315l6.1162415,6.9865112v36.6738586l31.9596558,13.8039246v20.4280396
		c0,0-7.3492432-0.7010193-16.6083374-2.2724609v-6.4547424l-15.3513184-1.9339905v20.7905884
		c16.9226074,1.90979,32.6606445,4.182251,47.310791,6.9866638c-0.338501-11.5316162-0.338501-28.4784241-0.338501-36.8671265
		c5.0769043-2.248291,9.5976563-4.520752,14.3358765-6.9624634
		C558.0922852,388.5490112,542.7169189,382.4326477,526.8096313,376.3162537z M615.0249023,163.2292023
		c10.8304443-25.500061,19.2191772-43.8393326,19.2191772-43.8393326
		c-90.8261108,58.8617477-171.8854065,111.7884598-218.3259583,142.1790466
		c-1.93396,5.0646057-3.84375,9.2566223-6.1162415,13.4486084l183.3928223-99.7321625L450.3194885,278.5108337l6.9865112-1.2232056
		l75.4507751-7.3372498c0,0,51.178772-5.0646362,79.826416-43.1430206
		c13.4414063-20.7857208,36.1419067-80.517746,36.1419067-80.517746L615.0249023,163.2292023z M278.2647095,345.0577698h5.4152222
		v-22.7003784h-5.4152222v10.2985229h-6.4547119v-10.2985229h-5.4152222v22.7003784h5.4152222v-7.3249817h6.4547119V345.0577698z
		 M195.1360168,376.6789246l-17.638092,7.3251648v-38.9463196h-15.3706512v45.4252319c0,0-12.7524719,6.092041-12.7524719,6.4547424
		l12.7524719,6.6239624v37.036377c5.0647736-0.7010193,9.9552765-1.90979,15.3706512-2.6109619v-35.4649353l17.638092-7.3249817
		v39.6471863c5.0671387-0.7010498,9.9554443-1.5713196,15.3706512-1.9339905v-87.8526306h-15.3706512V376.6789246z
		 M450.4862366,412.1196594c-9.9601746-0.3383484-20.0895691-1.2087402-30.0497131-1.5712891V399.717926
		c9.960144,0.3625488,20.0895386,0.7010498,30.0497131,1.2328186v-15.3753662
		c-9.9601746-0.338501-20.0895691-0.338501-30.0497131-0.7010193v-11.5074158h30.0497131v-14.3358459h-52.0490723
		l5.7537231,7.3249817v59.398407c15.7380371,0.338501,31.6211548,1.2329712,46.6338196,2.2724915v-15.7138672h-0.3384705
		V412.1196594z M263.7814636,358.4991455l7.3372498,7.3493652v61.308197
		c-14.6719971,0.8702698-29.3438263,1.9097595-42.7925873,3.4812317l-6.1138916-7.3251648v-57.8269653l-5.7657928-6.9866638
		H263.7814636z M255.2114105,372.8351746h-17.640625v41.2186279c6.1138916-0.5319519,11.5267334-0.8702698,17.640625-1.2329712
		V372.8351746z M360.8930664,532.9956665c-7.3491821,0-9.2589722,1.93396-11.5314636,3.505249l11.8699646,47.6735229
		l11.1931152-47.335022C370.853363,534.9296265,368.2182007,532.9956665,360.8930664,532.9956665z M324.9059448,401.2892456
		c2.8042603,7.3493347,5.4152222,15.7380371,8.5579529,23.0632019c-5.4152222,0-9.960144,0.3625183-15.3753662,0.3625183
		c-2.7802124-7.3491821-5.3910217-15.7380371-8.5337524-23.0630493c-4.206604,0-7.6878357,0.338501-11.5316162,0.338501h0.1692505
		v23.5948181c-5.4152222,0.338501-9.960144,0.338501-15.3753662,0.7012024v-60.8006287l-6.116394-7.3249817h47.335022
		l6.9865112,6.9866638v36.1417542H324.9059448z M315.6372375,372.8351746h-17.6238098v14.142395
		c6.0921936-0.3384705,11.5316162-0.3384705,17.6238098-0.3384705V372.8351746z"/>
</g>
</svg>
