<?xml version="1.0" encoding="utf-8"?>
<!-- Generator: Adobe Illustrator 22.0.1, SVG Export Plug-In . SVG Version: 6.00 Build 0)  -->
<svg version="1.1" id="Layer_1" xmlns="http://www.w3.org/2000/svg" xmlns:xlink="http://www.w3.org/1999/xlink" x="0px" y="0px"
	 width="720px" height="720px" viewBox="0 0 720 720" style="enable-background:new 0 0 720 720;" xml:space="preserve">
<style type="text/css">
	.st0{fill:#CE1141;}
	.st1{fill:#FFFFFF;}
</style>
<g>
	<path d="M683.7675781,191.3156433c-2.6123657-45.1565857-22.7648926-85.8347931-34.7071533-110.0924606l-1.4927368-2.6123657
		l-5.2247314-10.4494553l1.1196289,11.5690384c1.1195679,16.0473785,4.8515015,71.2802048-11.5690918,103.0017624
		c-20.5256958,42.1710052-80.6100464,38.0658569-100.3893433,36.9462738h-1.1196289
		c-32.467926-2.2391663-138.0820618-5.9711151-170.5499878-5.9711151
		c-42.54422,0.3731995-89.5667725,3.7319489-127.6326294,6.717514c-18.659729,1.4927979-34.7071075,2.6123657-45.5297546,2.9855652
		c-1.1195831,0-2.2391815,0.3731995-4.1051483,0.3731995c-52.9936523,4.8517151-86.581192-10.8226624-99.6430054-46.6491547
		c-7.8370972-22.0184937-7.8370972-65.682457-7.8370972-86.581192V75.6254578l-4.1051407,7.4639053
		c-19.054882,33.9037704-30.8726807,71.390358-34.7071152,110.0924606
		c-3.731945,67.1750488,31.3483658,91.4327393,57.845192,103.3749695
		c27.9896088,13.0618286,56.3524246,14.9278259,65.6822891,15.6741638h0.3731842
		c2.099762,0.3101196,4.222702,0.434967,6.3443146,0.3731995c3.1282654-0.1084595,6.2586365,0.1420288,9.3298798,0.7463989
		c-5.2247314,1.1195679-11.9422302,2.2391663-17.5401611,2.9855652c-6.3443146,1.4927673-12.3154144,2.2391663-15.3009949,2.9855957
		c-6.3443146,1.4927673-33.2143326,7.4638672-47.3957291,12.6886292
		c-11.9422379,4.1051636-25.3772507,10.4494629-25.7504425,10.4494629l-2.2391663,1.1195679l1.8659744,2.2391663
		c0,0,4.4783401,5.9711304,8.9566803,10.8226318c18.2996674,16.4583435,42.6834717,24.4508362,67.1750641,22.0185242
		c25.0040588-2.9855957,38.8122559-9.329895,44.0369873-11.9422302c2.6931,9.5088196,5.9328308,18.8542175,9.703064,27.9895935
		c11.1958313,27.989624,37.3194733,82.1028442,47.0225525,100.7626343
		c7.8370819,15.3009949,15.6741943,28.7361755,20.8988953,37.6928406l1.8659973,3.3587646
		c-1.5848083,4.8606567-4.7342224,9.0598755-8.9566956,11.9421997c-0.7463684,0.74646-1.1195679,1.4927979-1.8659668,1.8660278
		l-0.3731995,0.746521v1.1196289c-0.3731995,4.8515015-1.4927673,52.2472534,30.2287903,86.5811768l0.3731995,0.3731689h0.3731995
		c16.0473938,6.3442993,36.5730896,12.6885986,70.160614,12.6885986c33.9607239,0,62.6967468-8.2102661,72.7729797-13.0617676
		l0.3731689-0.3734131l0.3731689-0.3729858c22.0185242-26.1235962,32.4679565-66.055603,32.4679565-80.2368774v-0.7463989
		l-0.7463989-0.7463989l-1.4927673-1.4927979c-5.22052-4.6193848-8.8727722-10.749939-10.4494629-17.5401611
		c2.9855957-4.4785156,8.2102966-15.6741333,12.6886292-24.6307983c1.5714417-3.9920654,3.442749-7.8594666,5.5979309-11.5690613
		c9.329895-18.659729,36.5730896-77.6244812,47.7689514-105.2409363
		c6.7175293-17.9133301,10.4494629-26.4968262,12.3154297-30.2287598
		c4.8515625,2.6123352,17.9133301,8.5834656,42.5441895,11.1958618
		c31.7215576,2.9855652,61.9503174-17.913208,70.5338135-29.8556213c1.4927368-1.8659668,3.7319336-4.4783325,4.1051636-4.8515015
		l1.8659668-2.2391968l-2.6123657-1.1195679c-0.3731689,0-1.1195679-0.3731995-6.3442383-2.2391663l-17.5401611-5.5979309
		l-17.5401611-5.9711304c-4.8515625-1.4927673-26.4968262-6.3442993-41.7978516-9.7030334l-11.9421997-2.6123657
		l3.7319336-0.7463989C592.3348389,304.0204468,689.3654785,287.226593,683.7675781,191.3156433z"/>
	<path class="st0" d="M279.5976257,538.7599487c45.1566162-23.8844604,109.7193604-24.6309814,155.622345-1.4927368
		c3.7319946,1.4925537,6.7174377,4.1049805,10.0762329,4.8513184
		c-6.6060181-19.8607178-10.0073242-40.6465759-10.0762329-61.5769043
		c-0.3813477-24.1347961,3.5361023-48.1448975,11.5689392-70.9069519
		c-7.8525085,3.7995605-16.1175232,6.6798401-24.6307983,8.583313c-23.138092,5.9712524-48.1422424,0-61.5770874-20.8988037
		c-1.9234314,1.8237305-3.6725769,3.8226929-5.2249146,5.9710388
		c-19.7792664,22.3917236-55.232666,20.1524658-79.4904785,10.0762329
		c11.9423218,31.7215881,16.7938538,67.9215393,10.076416,102.6286011
		C284.0759583,523.4589844,281.8368835,531.6693115,279.5976257,538.7599487z M294.5253906,426.4283142
		c2.6124268,27.989624,17.1669922,58.5914917,45.1566162,67.1749878
		c25.3849487,8.0626526,53.1239929-0.0523987,70.160614-20.5256348
		c10.8218384-14.3535461,18.340271-30.9197998,22.0185547-48.5154419c1.4025574-0.0734558,2.7669373,0.4722595,3.7319641,1.4929199
		c-5.9712524,29.4823303-24.6309814,63.4429932-55.9792175,72.0264893
		c-24.6309814,6.3444519-52.247406,1.119751-69.0410767-19.4060974
		c-11.5856323-14.8079529-18.4742737-32.7445068-19.7792664-51.5008545
		C291.9396973,426.5720215,293.2355652,426.3127136,294.5253906,426.4283142z M76.2065735,170.4166718
		c-5.0699997-5.3852997-10.4270096-10.4930725-16.0474815-15.3009338
		c-5.2247047,5.5978851-9.7030487,11.5689392-14.9277534,16.7936554
		c5.371624-26.8803253,14.1502647-52.9656982,26.1237106-77.6244049
		C70.235321,119.2889709,70.6084976,146.5322266,76.2065735,170.4166718z M221.7525024,430.5334778
		c-2.5991516-2.8396606-4.4014587-6.3157654-5.2247009-10.0762329c13.0616608,8.5833435,30.2286835,1.8660889,41.4246521-6.3442383
		l0.3731689,0.3731689c-1.1197205,9.703064-4.4783478,20.8988342-14.927948,24.6308289
		C234.8143616,441.3562622,227.3503876,436.5047302,221.7525024,430.5334778z M274.7460938,534.2816162
		c-19.7792816-29.8557129-34.7070313-61.5771179-48.8884277-93.2987366
		c6.3442535,3.3588257,17.1668396,5.5979004,23.8844452,1.1195374c6.0261078-4.7142639,10.3499603-11.2654114,12.3153229-18.659729
		c16.0474548,32.0947876,19.7794495,73.8926086,12.6886597,110.4656982V534.2816162z M262.803772,554.434021
		c1.119751,29.8555298,8.5835266,57.8451538,28.7361755,79.4904785
		c40.6781006,17.1670532,95.5377808,15.6741333,136.2160645-0.3731689
		c17.5739746-21.067749,28.3709412-46.9543457,30.9752197-74.2657471
		c-10.8227844-8.9567261-23.138092-14.9277954-35.4535828-20.8990479
		C373.6426697,515.9950562,306.0945129,523.0856323,262.803772,554.434021z M290.0470276,563.763916
		c7.8371582-10.4494019,22.0185547-12.6886597,33.587677-8.9564819c6.7684937,2.241333,12.4787598,6.8889771,16.0473022,13.0616455
		c5.2247009,8.5834961,2.6124573,19.7792969-2.2390747,27.989624c-0.7465515,1.1195068-1.8660889,2.2390747-3.3587952,1.1195068
		c-2.2392883-2.6122437,0.7463379-4.8513184,1.1195374-7.4637451c0.6806641-2.1734009,0.8088074-4.4821777,0.3731689-6.7176514
		c-6.447113,9.4598999-17.8304443,14.2759399-29.1091614,12.3154907
		c-8.4430237-2.0287476-15.3901367-8.0032349-18.659729-16.0474854
		C286.2436829,573.8853149,287.0642395,568.2781372,290.0470276,563.763916z M426.2632751,627.9534912
		c-4.1051636-1.119751-8.5834961-2.6124878-13.0618591-4.1051636c-37.319458-14.5546265-84.7151794-10.449646-119.7955933,4.1051636
		c-1.1499023-0.7905884-1.9516907-1.9932861-2.2390747-3.3588257
		c40.6781006-18.2865601,96.6573181-20.5256348,137.7088013-0.3731689
		C428.1291809,626.0874023,427.756012,626.0874023,426.2632751,627.9534912z M429.6218872,563.7640991
		c3.3588257,6.3440552,0.7465515,13.4348755-2.9854126,19.0328979c-6.7796936,8.4419556-17.8955383,12.0983887-28.3630066,9.329895
		c-6.447113-2.0509644-11.9853821-6.2705688-15.6741028-11.9423218c-1.4927063,5.2247314,2.2392578,8.9567261,1.8659058,13.8082275
		c-0.5968018,0.9120483-1.8199768,1.1673584-2.7320251,0.5703735c-0.0895996-0.0586548-0.1744385-0.1246948-0.253418-0.1972046
		c-5.9710693-7.8369751-8.2103271-19.7792969-2.9856262-28.362793c6.3444214-11.9421387,18.659729-16.7936401,31.7215881-15.6741333
		C418.4616394,551.444458,425.6755981,556.4387207,429.6218872,563.7640991z M675.557312,167.4310455l-13.0618286-9.3298798
		c-5.9710693,2.6124573-11.5689697,6.3444366-17.1668701,8.9566956c4.069519-24.5321045,5.3217163-49.4489517,3.7318115-74.2655869
		c11.5691528,21.2719955,17.9133911,44.4100723,25.0041504,67.9213486L675.557312,167.4310455z M504.2608643,415.6057434
		c-2.9854431,8.956665-10.8226013,17.9133606-19.7792969,19.7792664c-6.8677368,1.0639343-13.6842651-2.196167-17.1670227-8.2103271
		c-2.3474426-3.2961731-3.7653809-7.1632996-4.1051636-11.1957703
		C474.7785339,425.3087769,493.065094,423.069519,504.2608643,415.6057434z M626.2957153,334.622345
		c3.3586426,1.1195374,15.3009033,5.9710693,15.3009033,5.9710693s-4.4783325,5.2247009-6.3442383,7.0905762
		c-12.3154907,11.5691528-33.2142944,22.7649231-51.5008545,23.138092
		c-14.6470337,0.2217102-29.2053833-2.3100586-42.9175415-7.4637756c-6.7174072-2.6124573-8.210144-3.7319946-11.9421387-5.2247009
		c-1.1195068,2.9854431-4.8515015,10.0762329-6.3442383,13.808197c-4.1051636,10.4492188-9.703064,26.4967041-15.6743164,34.3338623
		c-5.6722717,5.6916504-12.9769897,9.4747009-20.8988037,10.8226013c-6.078125,0.6651001-12.188324-0.9289856-17.1670227-4.478363
		c-0.7463684-0.7463379-3.3587952-3.7319641-3.3587952-3.7319641s19.0328979-1.1195374,31.3484192-10.4494324
		c11.5691223-8.5834961,16.0474548-25.0039673,18.2865295-39.5585327c2.9856567-1.4929199,5.9710693-0.7463684,8.9567261-2.6124573
		c4.1051636-2.6122742,3.3587646-7.4637756,2.6124268-10.4494019c-1.119751-2.6124573-1.4929199-11.5691528-19.0329285-11.9423218
		c-17.9133606-0.3731995-31.3484192,11.9423218-36.9462891,16.7938232
		c-6.7176208,6.3442688-25.7505188,26.8700867-37.6926575,33.9606934
		c-15.3011169,8.9566956-37.3194885,10.0762329-50.0081482-1.1195374
		c-13.4350586-11.5691528-13.8082275-25.0039978-16.7938538-34.3338623
		c27.6164246-0.7465515,70.5339966-6.3444214,76.8782349-7.0907898c6.3442383-1.1193542,5.2247009-7.4637756-0.7463684-6.3442383
		c-25.6043701,3.6837769-51.3955078,5.9264526-77.2514038,6.7174072
		c-0.3731689-4.1049805-0.3731689-11.1957703-0.3731689-16.7936401c24.8969116-0.7843323,49.7106934-3.2781372,74.2657776-7.4639587
		c7.0906067-1.119751,6.3442383-7.8369751-2.2392883-5.9710693c-22.7648926,5.2247009-49.6347656,5.9710693-72.3996887,6.7175903
		v-20.1526489c24.9358521-0.989502,49.7615967-3.8587646,74.2657776-8.5834961
		c3.3586426-0.3731689,4.1049805-6.7174377-3.3587952-5.2247009c-23.449585,3.8946533-47.1434326,6.1392517-70.9069824,6.7176208
		v-16.7938538c0-6.3442383-5.598053-5.9710693-5.598053,0.3731689v16.7938538
		c-25.2209473-0.5643311-50.3898926-2.5577698-75.3853149-5.9710693c-4.851532-0.7465515-6.3442688,4.851532,0,5.9710693
		c24.9282227,4.0971985,50.1256409,6.3425293,75.3853149,6.7174072c0,7.0908203-0.3731995,14.927948-0.3731995,20.1526489
		c-25.5111694-0.8488464-50.9412842-3.3421021-76.1316528-7.4639587c-5.2247314-1.4927063-6.3442688,4.851532-0.7463684,6.3444214
		c25.3739319,4.6723633,51.0832825,7.2931519,76.8780212,7.8369751c-0.3731689,7.0907898-0.3731689,13.0618591-0.3731689,16.7938538
		c-30.6018677-0.3731995-73.5192261-5.9710693-73.5192261-5.9710693c-5.224884-1.4929199-8.2103271,4.8515015-1.4929199,5.9710693
		c24.4861755,3.5541077,49.1591187,5.6724548,73.8926086,6.3442383
		c-2.1246338,13.5572815-8.6875305,26.0265198-18.659729,35.4535828
		c-15.6741333,15.6741028-39.9317627,8.583313-52.6204224,1.1195374
		c-11.9423218-6.7176208-31.7216034-27.2432556-38.4390259-33.5874939
		c-7.1181183-6.4000549-15.3366089-11.4577332-24.2578125-14.927948c-15.6741028-4.851532-22.0183563,0-25.7503357,5.2247009
		c-3.0998993,3.736908-4.3354187,8.6791687-3.3588104,13.4350281c0.7463684,4.478363,2.9856262,5.2247009,10.8225861,6.3444519
		c2.2392731,26.4966736,16.0474854,44.0368958,48.8886261,45.9028015
		c-5.1309357,6.6411133-12.8931122,10.726532-21.2721863,11.1959534
		c-12.6884918-0.3731995-20.52565-7.8371582-25.3771667-17.9133911c-3.3588104-6.3440552-8.2103271-21.6451721-11.9423218-32.094574
		c-1.0263367-2.7103882-2.2745667-5.3317566-3.7319794-7.8371582c0,0-7.4637909,3.3587952-11.1957703,4.851532
		c-13.4350281,5.9712524-34.7070313,8.2103271-45.9029846,7.8371277
		c-23.0697556-0.5352783-44.6946182-11.3475952-58.9646606-29.4823303c0,0.3731995,2.2390747-1.4927063,7.4637833-3.3587952
		c39.2474442-13.8873596,80.1531296-22.5452881,121.6614914-25.7503357
		c2.9994812-30.9720154,9.8959045-61.4415741,20.5258179-90.6864471
		c18.6597443-1.1197205,101.882019-6.3442383,134.3499756-6.3442383c32.8411255,0,117.1833191,3.3586121,136.2162476,4.4781494
		c8.210144,23.5112762,13.061676,49.2616119,16.4204712,90.686264
		C550.8012695,314.3222046,589.4744873,321.502594,626.2957153,334.622345z M493.4382629,439.1167908
		c-13.0618591,32.4681702-28.7359619,63.8163757-44.7834473,95.1648254
		c-5.5978699-15.6741333-4.1051636-32.4679871-3.3586121-50.0081787c2.491333-20.4212341,6.9915161-40.5467529,13.4350281-60.084198
		c4.478363,7.4637756,11.5689392,15.3007507,20.1524658,16.7936401
		C483.8138123,441.4707336,488.7906189,440.83255,493.4382629,439.1167908z"/>
	<path class="st1" d="M218.7668762,226.7690582c-9.2655182,25.9906616-15.7701569,52.8844452-19.4060974,80.2368622
		c-47.7688904,1.8660889-96.6575012-2.2391052-131.7377167-33.9606934
		c-24.2576218-24.2576141-30.2288742-57.8452911-25.0041695-91.0596161
		c5.5980721-6.7174225,11.942318-12.3153076,17.5401993-19.0329132
		c7.8371544,8.5835114,20.5258293,15.3011169,22.3917274,26.4968872
		c16.0472946,30.9750519,48.5152512,41.0514679,81.729744,39.185379c18.286377,0,36.1997528-1.8659058,54.4863129-2.9854431
		V226.7690582z M678.9161377,190.1959534c-0.7463989-5.2247162-0.7463989-9.703064-1.8660889-14.5545807
		c-5.5979004-2.9854431-9.329895-7.463974-14.9277954-10.0762329c-6.7174072,3.3586121-13.0616455,7.8369598-19.7792358,10.8225861
		c-3.3588257,6.3442535-7.4639893,11.1957703-11.1958008,17.1670227
		c-29.8556519,41.4246521-84.7151489,29.4823303-129.8717957,30.2286835
		c6.7451477,23.4604034,11.6118469,47.420578,14.5545959,71.6535187c0.7463379,4.1049805,1.1195068,9.3298645,1.8658447,13.061676
		c42.1710205-1.4927063,81.7297974-8.210144,116.0636597-29.1091614
		C665.1079102,260.7297363,681.1552124,226.7690582,678.9161377,190.1959534z M500.1557007,364.1046753
		c0.0428772,7.4134827-1.7521973,14.7219849-5.2247009,21.2721863
		c-5.5979004,8.2103271-15.6741333,11.9421082-25.7503662,11.9421082c-0.1865845,1.3621216-0.1865845,2.743042,0,4.1049805
		c6.7183838,0.3771667,13.4160767-1.0396118,19.4060974-4.1049805
		c12.6886902-6.7174072,17.5402222-21.2719727,17.1670227-35.4533691
		C503.7344971,362.149353,501.8137512,362.9177551,500.1557007,364.1046753z M250.4884796,394.7067261
		c-26.8700714,0-32.0947876-17.1670227-32.0947876-30.2288818c-2.0486908-0.7478638-4.2955475-0.7478638-6.3442383,0
		c-0.0677643,0.8676453-0.1009827,1.7373962-0.0998383,2.6075134c0.0261841,18.1665955,14.7743835,32.8722534,32.940979,32.8460693
		c2.0739288,0.5878601,4.2702942,0.5878601,6.3442383,0C250.4884796,398.0655212,252.3543701,397.6923523,250.4884796,394.7067261z"
		/>
</g>
</svg>
