<?xml version="1.0" encoding="utf-8"?>
<!-- Generator: Adobe Illustrator 22.0.1, SVG Export Plug-In . SVG Version: 6.00 Build 0)  -->
<svg version="1.1" id="Layer_1" xmlns="http://www.w3.org/2000/svg" xmlns:xlink="http://www.w3.org/1999/xlink" x="0px" y="0px"
	 width="720px" height="720px" viewBox="0 0 720 720" style="enable-background:new 0 0 720 720;" xml:space="preserve">
<style type="text/css">
	.st0{fill:#B4975A;}
	.st1{fill:#72253D;}
</style>
<g>
	<path class="st0" d="M450.6522827,322.2243347c-0.5784912,1.2099304-0.0665894,2.65979,1.1434021,3.2382202
		c0.6981812,0.3338013,1.5136108,0.3148499,2.1955261-0.0510559L684,192.2325439V144.652359l-11.6104736-11.7622375
		C522.9710693-9.243329,202.9621887,177.358963,94.3701324,267.2832336l-53.6510086,83.473999l66.7032928-16.5430603
		C4.901216,462.5364685,41.5538483,546.8452148,45.8793297,555.5720215
		c10.7757378,30.354126,35.4385185,54.6375122,75.3542633,70.5734863
		c30.3541794,12.1416016,64.7302628,13.5834351,94.2497177,12.2175293
		c127.4116211-5.9190674,278.0442505-85.3710938,375.3293762-170.1351624l2.2766113-1.9729919l19.6542969-97.4369507
		l-37.942749,21.0202942c-77.2836609,34.0727234-156.3439941,63.9642334-236.8384705,89.5447998
		c-69.1315918,21.5514832-100.8517456,25.0422363-123.4655914,19.8061218l-2.9595184-0.6070862
		c-4.2155609-1.3807068-7.2012482-5.1426086-7.588562-9.561554
		c-1.0624084-43.2546997,73.3053284-136.593811,110.7927246-176.4336853
		c34.9073181-37.4873657,89.7724915-78.6172943,136.214386-98.1957397
		c31.1130371-13.0522919,51.146759-18.2883606,60.708374-17.3018646
		c-3.4573059,10.4559174-7.7721252,20.6085052-12.9005432,30.354187
		C498.7636414,227.4434052,462.6422119,298.6998291,450.6522827,322.2243347z"/>
	<path class="st1" d="M281.5794983,269.7115784c15.4047546-16.1636353,64.5026245-61.69487,107.3778992-84.460495
		l-0.3035278-0.0000305c75.2783508-44.3170929,188.0441284-73.1535492,125.4385986,49.5532074l146.1553955-89.3930511
		C523.7299194,15.4953213,218.1392822,187.4517517,106.511795,279.7284546
		c31.340683-8.6509705,63.2884674-15.5565186,95.0085754-22.7656555
		c-348.162384,332.6817932,5.6155243,465.2536316,380.4136963,148.6595764
		c-77.9824829,34.459198-157.7798767,64.6555786-239.0391541,90.4554749
		C68.4932098,581.5248413,156.2926483,403.1940613,281.5794983,269.7115784z"/>
</g>
</svg>
