<?xml version="1.0" encoding="utf-8"?>
<!-- Generator: Adobe Illustrator 22.0.1, SVG Export Plug-In . SVG Version: 6.00 Build 0)  -->
<svg version="1.1" id="Layer_1" xmlns="http://www.w3.org/2000/svg" xmlns:xlink="http://www.w3.org/1999/xlink" x="0px" y="0px"
	 width="720px" height="720px" viewBox="0 0 720 720" style="enable-background:new 0 0 720 720;" xml:space="preserve">
<style type="text/css">
	.st0{fill:#FFFFFF;}
	.st1{fill:#007DC5;}
	.st2{fill:#C4CED4;}
</style>
<g>
	<path class="st0" d="M632.414856,194.7183228l-0.5393066-0.7722931l-0.7539673-0.5657349
		c-1.9771729-1.4820404-5.446167-3.6864624-6.4984741-4.348587c-0.5003052-2.3702393-1.2221069-4.6940002-2.1550903-6.9282532
		l-0.3029175-0.7263947l-0.4831543-0.6213837c-28.182312-36.1869659-64.6027832-66.4755936-105.3231201-87.5908279
		l-0.3729248-0.1767197c-4.8265381-2.0873642-9.9181519-3.4690018-15.1360168-4.107605
		c-3.8993225-3.7719498-8.4435425-6.671196-13.5213928-8.6243057
		c-39.5739136-16.103363-81.3224182-24.1871796-124.0486145-24.1487389
		c-8.5514526,0.0481949-17.1556702,0.4521294-25.7117004,1.2031898l15.545105-20.889164L341.87146,36.064621
		c-64.3624268-2.0185165-111.1623688,43.8691406-118.1445465,51.1238632
		c-15.5278778,7.1720963-30.6552734,15.5290298-44.9937286,24.8567734
		c-20.693512,7.1221771-37.729248,22.4383392-47.0145416,42.2373505
		c-8.7694626,7.3511047-22.3425217,25.0042267-25.7065201,29.4474792
		c-3.9945679,2.7058868-7.8353729,5.7026825-11.4283066,8.9174957l-0.3901596,0.3838501
		c-15.8182068,17.0627136-26.7984009,38.051712-31.79879,60.7625885c-0.5037689,0.947876-0.8055725,1.9898376-0.8853264,3.0662079
		c-0.2518806,1.0242004-0.3855705,2.0305786-0.5072098,2.9457397c-0.1090164,0.8199158-0.2117195,1.5950623-0.3781128,2.2617798
		l-0.1302452,0.6954041c-0.2369652,1.8963318-0.6007347,3.7151489-0.985733,5.6407166
		c-0.410244,2.0494995-0.834259,4.1690063-1.1245842,6.4927673l-0.1245079,0.9983521
		c-2.2359734,6.3866272-4.1133423,12.9625549-5.5971069,19.620575c-0.4377823,1.8721924-5.3394814,16.3965454-9.8257751,29.3568115
		l-0.098114,0.3121338c-22.8589096,80.2569275,3.9842453,131.0009766,13.5277252,145.6022034
		c21.4090042,61.6100769,61.4815216,114.5183411,115.925209,153.0445251
		c55.6164551,39.3570557,121.5228729,60.1607056,190.5529022,60.1607056C363.4898682,683.996582,364.2288818,684,364.9747925,684
		c50.3607483-0.0011597,100.7169189-11.8781128,145.7611389-34.4008179
		c45.7120667-22.8554688,85.9308777-56.6596069,116.3096008-97.7585449l0.3660889-0.4946289l0.2547607-0.5588379
		c1.2427368-2.7230835,2.0712891-5.5930786,2.4671631-8.5078125c3.8580322-2.0862427,6.0842285-4.0095215,7.0241089-6.133606
		c32.3857422-49.7020569,49.3508911-107.3129272,49.0651855-166.5510254
		C686.9985352,306.7395935,668.392395,246.2684937,632.414856,194.7183228z"/>
	<path d="M627.5965576,198.0811615c-2.1100464-1.5825348-6.3301392-4.2200928-6.3301392-4.2200928
		c-0.8617554-0.5247498-1.5853271-1.248291-2.1100464-2.1100464c-0.413269-2.5355835-1.12146-5.0141754-2.1100464-7.3853912
		c-27.8641968-35.778244-63.1339111-65.1096725-103.392334-85.9844513
		c-4.3683777-1.8898239-8.9886169-3.1337204-13.7153015-3.6925888c-0.9779968-0.0204391-1.9153137-0.3953476-2.6376038-1.0550308
		c-3.4361267-3.4695892-7.5722656-6.1670609-12.1327515-7.912674
		c-38.6906433-15.7535019-80.0804138-23.8164444-121.8552551-23.7380409
		c-12.8786926,0.0727463-25.7400818,0.9536705-38.5083923,2.6375618l16.8803711-22.6830139
		c-66.4665222-2.1100464-114.470108,50.1136246-114.470108,50.1136246
		c-15.9073944,7.2849579-31.2479858,15.7488022-45.8935547,25.3208084
		c-19.9756927,6.6614609-36.2413635,21.3962555-44.8385162,40.6184235
		c-8.9677048,6.857666-26.3755951,30.0681915-26.3755951,30.0681915c-4.0789948,2.7062988-7.9574966,5.7033234-11.6052628,8.9677124
		c-15.3552628,16.5635071-25.9293671,36.9824677-30.5956879,59.0813293c-0.4054794,0.42099-0.5992966,1.0024719-0.5275116,1.58255
		c-0.527504,1.5825195-0.527504,3.6925659-1.0550308,5.8023987c-0.527504,4.2200928-1.5825348,7.9126892-2.1100464,12.132782
		l0.5275116-0.5275269c0.0273819,0.5747986-0.1607208,1.1391296-0.5275116,1.5825195
		c-2.3489685,6.5548096-4.2869492,13.2496948-5.8026428,20.0456848
		c-0.5275078,2.6375732-10.0227242,30.0681763-10.0227242,30.0681763l0,0
		c-23.7380466,83.3469238,7.9126778,133.4605408,13.1878014,141.37323
		c42.2009506,122.3827515,161.4186707,209.9497681,301.2093506,209.9497681
		c102.2801514,0.7116089,198.7369995-47.5169067,259.5358887-129.7680054
		c1.1409302-2.5009155,1.854187-5.1756592,2.1099854-7.9126587c0.1115723-1.0699463,0.690979-2.0356445,1.5825806-2.6375732
		c4.2200928-2.1100464,5.8026123-3.692627,5.8026123-4.2201538c31.9335327-48.7344055,48.8123779-105.7919617,48.531189-164.0561218
		C681.1030884,308.26828,662.6561279,248.3154602,627.5965576,198.0811615z"/>
	<path class="st0" d="M452.4627991,603.2104492c-154.5611877,7.3851318-192.5421143-66.4664917-192.5421143-66.4664917
		c-0.4775696-0.9082031-1.0058594-1.7888184-1.5824585-2.6377563c2.6374512,1.0549927,49.0585022,16.8805542,93.3695679-23.737854
		l-10.022583-84.9294739l-11.0778198,28.4855652c-0.5114136-0.994873-0.8671875-2.0621948-1.0549927-3.164917
		c-0.5274963-1.0552673-34.2882385-168.8039551-35.3432007-174.6066284
		c5.2749023,4.7476807,25.320343,23.2106628,42.2008362,31.6507874c0,0,4.7476807,3.1649475,2.1099548,0.5274658
		c0,0-69.1039124-59.0813446-60.6638184-131.8779907c17.9354858,35.870697,41.145874,44.3110962,41.145874,44.3110962
		l-29.0130615-103.9199371c0,0-3.164917-27.4305801,26.9031067-61.1913147c0,0,3.692688-2.6377182-2.1099548-0.5274887
		c0,0-47.4763184,10.5500793-76.4893494,50.6409683c-2.4373016,9.2994995-3.6782227,18.872139-3.6924438,28.4858246h-0.5277557
		l-1.5824738,1.5824738c-0.5274811,0.5274963-1.5824738,1.0549774-2.1099548,2.1099701
		c-16.6148834,17.4286499-30.6486511,37.146759-41.6736298,58.5538635
		c-23.73172,45.8814697-36.3893433,109.1613007,22.1108704,167.7017365
		c-4.5046082-0.3911743-36.7271423-4.0557251-55.3441162-30.0213318
		c1.0552521,5.2751465,10.5503387,42.7283325,25.3206177,66.4664612
		c-17.4077301-4.7479248-32.1782684-25.8480835-34.2882233-30.0682983c0-1.0552368-0.5274963,0-0.5274963,0
		c6.3301544,22.1557007,11.6053314,30.0682983,11.6053314,30.0682983
		c2.6374512,5.275177,21.1004181,40.0909119,64.3562622,87.566925h-0.5274963
		c-56.443634-5.2749023-75.9615936-25.3206177-75.9615936-25.3206177c-0.5274811-1.054718-0.5274811,0-0.5274811,0.527771
		c4.2335968,9.4331055,9.355835,18.4414978,15.29776,26.9033508
		c4.2201843,6.8576355,100.754715,165.1112366,286.9666748,115.5249939c2.5094604-0.2723389,4.984314-0.8027954,7.3851318-1.5824585
		c0.2736816-0.3013306,0.6498413-0.4893799,1.0549927-0.5275269
		C456.1552124,603.2104492,452.4627991,603.2104492,452.4627991,603.2104492z M308.9794617,462.8920593
		c3.6924438,0,6.8576355,3.1652222,8.9676208,7.9129028c2.7391357,5.7374573,4.8611755,11.7496643,6.3301392,17.9352112
		c1.0549927,5.275177,2.1099548,10.550354,2.6374512,14.7705383c0.5274963,2.6374512,0.9692993,5.3996887,0.5166626,11.0886536
		c-20.5731812-63.8290405-25.3095093-11.0889282-25.3095093-11.0889282l-9.4953613-19.5176697
		C295.4224854,471.0876465,304.231781,462.8920593,308.9794617,462.8920593z M296.8466492,68.8407974l-0.5274963,0.5274963
		c-15.825531,20.0454407-18.9904785,36.3981857-19.5179443,40.090889v1.0549774
		c-8.9676208-4.220192-18.4629822,10.5503464-21.1004333,14.7702713c-0.5274963,1.0552521-0.5274963,0-0.5274963,0
		C264.1408997,78.8633881,295.2641602,69.3682938,296.8466492,68.8407974z M259.393219,199.1360626v0.5277557
		c1.8400269,18.6730652,7.4004211,36.7885742,16.3529968,53.2786865c0.4716797,1.3493195,1.1869812,2.6009674,2.1099548,3.6924438
		c-8.1417542-0.1777039-15.9071655-3.4290924-21.7432556-9.0882111c-0.8939819-0.8417816-1.6869965-1.6484375-2.3905945-2.4214935
		C246.9837646,237.7213287,237.1092987,211.9098206,259.393219,199.1360626z M230.3801575,189.1134644
		c0.5274811-0.5274811,0.5274811-1.5824585,0.5274811-0.5274811c0.0091248,1.0775146-0.1692963,2.1485901-0.5274811,3.1649475
		v1.5827332c-2.6377258,15.8252563-6.3301544,63.8287811,31.6507568,83.8742218
		c0.7217407,0.6603088,1.6592102,1.0354004,2.6374512,1.0552368c0.5274963,0.5272217,1.0549927,1.0549927,1.582489,1.0549927
		c2.1976929,0.6517029,4.3197327,1.5360413,6.3301392,2.6374512l2.6377258,11.0778198l4.747406,20.572937
		C278.383667,313.0788574,191.8717346,276.6803894,230.3801575,189.1134644z M210.8621979,363.7195435
		c0.0072479,0,0.0144958,0,0.0220032,0c0.285202,0.0061646,0.5116577,0.2422791,0.5054932,0.5274963
		c0,0-0.2039185-0.0144958-0.5274963-0.0423889V363.7195435z M193.9816895,379.0178528
		c0,0,16.3530121,11.0775452,29.5408173,6.3301392c0,0,42.7283478,93.3695984,49.5859833,106.557373
		c0,0,0,1.0549927,0.5274963,1.0549927c0,0,0,0.5274963-1.0549927-1.0549927
		C264.6683655,482.9375,215.0821228,434.4064941,193.9816895,379.0178528z"/>
	<path class="st1" d="M502.0485535,506.1481628c0.1359558,19.6424255-1.6305237,39.2518616-5.2749634,58.5538635
		c-1.2481384,3.3189697-3.9830017,5.8584595-7.3851013,6.857605c-19.6062012,4.1085815-39.5770569,6.2295532-59.6088867,6.3301392
		c-16.7173767,0.3630981-33.4043884-1.5896606-49.5862427-5.8026123c-0.0072327,0-0.0144653,0-0.0220032,0
		c-0.2851563-0.0061646-0.5113831-0.2423096-0.5054932-0.5275269c0-0.5274658,0-0.5274658,0.5274963-0.5274658l46.9485779-37.980896
		l-23.737854-88.6221619l6.3300781-59.6088867h1.0550232c11.0778198,3.1651917,15.8252258,17.4077454,18.4629822,31.1233215
		c1.6463013,7.6303101,2.5298157,15.405304,2.6373901,23.2106018
		c10.2589722-20.3121643,15.8462524-42.6612854,16.3530273-65.4114685c0-24.265625-7.9125977-37.9809875-12.1328125-43.7836304
		c-0.6237488-0.9398499-1.3299866-1.8225708-2.1099548-2.6373901c-0.5274963,0-0.5274963-0.5275269,0-0.5275269
		c0-0.5274963,0.5274963-0.5274963,1.0550232,0C491.4984436,379.5453491,502.5762634,453.9244385,502.0485535,506.1481628z
		 M399.1838684,118.9542618v0.5277939l0.5274353-0.5277939c2.8894348-1.3192368,5.8904419-2.3785553,8.967926-3.164978
		c7.9219971-2.0771866,16.075531-3.1405182,24.2653503-3.1651917c15.855011,0.0101852,31.4538269,4.0004578,45.3660278,11.6053162
		c-7.3851013,3.6926956-42.2008362,21.1004562-50.1134644,41.6734085l0.5275269,0.5275116
		c0,0,35.3431702,31.6507416,108.1398315,31.6507416c12.7099609,0.1185608,25.4094238-0.7633209,37.980896-2.6374664
		c2.1494141-0.0488434,4.2811279-0.404068,6.3302002-1.0550079c3.164978-1.0552368,6.857666-2.1101837,6.857666-5.8026581
		c-0.619812-0.6291351-1.1521606-1.3388214-1.5824585-2.1101685c0,0-74.9066162-100.2272797-215.7525024-100.2272797h-3.164978
		c-0.8266602,0.015564-1.6017456,0.4032822-2.1102295,1.0550156c0,1.0552292,1.0549927,1.5827332,2.1102295,2.1102448
		C378.8945007,98.3542023,389.4821777,108.2359848,399.1838684,118.9542618z M613.3538208,485.047699
		c-5.2751465-145.5932922-155.0886536-217.8624573-158.7810669-219.4451904
		c-1.5827332-1.054657-2.1102295-1.5824585-2.6376648-1.5824585h-1.0550232v1.0550232
		c0,1.0552368,0.5274963,1.0552368,1.0550232,2.1101685l1.5824585,1.5825195
		c8.3601379,10.2941284,14.6315002,22.1202698,18.4629822,34.8156738c1.5824585,7.3851624,2.6376648,13.1878357,3.1651917,15.825531
		c-7.4846802-7.7022705-16.7120056-13.4918213-26.9031372-16.8804932c-0.8373413-0.3431702-1.7326965-0.5223999-2.6376648-0.5274963
		h-1.0550232c-0.2868042,0.2844543-0.4721985,0.6549683-0.5274963,1.0550232l1.5825195,1.5824585
		c0.3999939,0.0555115,0.7708435,0.2409058,1.0549316,0.5274963c59.6088867,57.4988403,72.269165,131.8779602,72.269165,185.1566772
		c0.1355591,16.4273376-1.0994873,32.8369751-3.6924438,49.0587158c-0.7925415,6.5813599-2.0262451,13.1019897-3.692688,19.5180054
		v2.6373901c0,1.5827637,0,2.6377563,1.0552368,3.1652832c0.5275269,1.0549316,2.1099854,1.0549316,2.6374512,1.0549316
		c1.1271973-0.0786133,2.2161865-0.4415894,3.164978-1.0549316c52.7511597-16.3527222,88.0946655-60.6641235,89.677124-62.246582
		c3.6553955-4.0243225,5.5541992-9.3408508,5.2751465-14.7702942V485.047699z M649.7520142,341.0369263
		c-4.2199097-59.6088867-27.9580688-109.1951294-47.4760132-130.8230286c0-0.5275116-2.6374512-5.2752228-11.0778809-5.2752228
		h-2.1099243c0,0-9.4950562,2.1102448-23.737854,3.6927032c-17.8168335,2.643631-35.7952881,4.0536041-53.8064575,4.219986
		c-20.572937,0-41.145874-2.1100311-57.4986267-8.4401245l-1.5827332-0.5275116l1.0552979,1.5824585
		c1.5800171,4.953476,2.4675598,10.1014709,2.6373901,15.2980194c-9.0609436-10.3397369-22.1228943-16.29422-35.8706665-16.3529663
		h-3.6927185l2.6374817,1.0549469c10.927063,4.8904419,21.5023193,10.5305023,31.6507568,16.8805389
		c56.971405,33.7607269,170.9138794,115.5249176,174.0791016,235.7979279c0,3.6924133,0.5274658,5.8026733,2.1099854,6.3301086
		c2.1099854,0,4.2199707-2.6376953,6.857605-7.9128418c6.8577271-14.2425842,16.3527832-49.0585327,16.3527832-93.8971252
		C650.279541,355.8071289,650.279541,348.4220276,649.7520142,341.0369263z"/>
	<path class="st2" d="M362.2581787,297.2533264c-3.1651917-21.6279602-14.7702942-86.5119934-53.8061523-170.9139557
		c8.7145386,4.6685333,16.857666,10.3333435,24.2653503,16.8805389
		c18.4718018,15.7903748,34.0083618,34.7199097,45.8935547,55.9161072c0.52771,0.5278015,0.52771,0.5278015,1.0552063,0.5278015
		l0.5275269-0.5278015c0,0,12.6600342-14.7702179,16.880249-47.4759827
		c0.9003906,3.6524658,1.6049805,7.3502502,2.1099548,11.0778046c2.1416016,12.5460052,3.2006226,25.2533112,3.1651917,37.9809265
		c0.1502686,34.867218-7.0390625,69.3757782-21.1004639,101.2822113
		c4.7474365-16.8804626,15.8253174-64.3565216,15.8253174-107.612381v-5.8026581
		c0.0002136-0.0074615,0.0002136-0.0147095,0-0.0219421c-0.0061646-0.2852325-0.2422791-0.5116577-0.5275269-0.5054932
		l-1.582428,0.5277252c0,0-3.1652832,9.4951324-6.3301697,19.5179291
		c-2.8894348,8.188736-6.7879028,15.9857483-11.6053162,23.2104187
		c-1.5825195-7.3854065-14.2427979-45.8938293-31.6508179-59.6091003h-1.0549622v1.0549469
		c0,0,4.7476501,16.3530273,8.9675598,39.0359344c5.2470398,25.7147675,8.2477722,51.8370667,8.967926,78.0718079V297.2533264z
		 M423.9769592,267.7124634c-0.1569214-10.7552795-1.9352417-21.4255676-5.2751465-31.6507568
		c-0.5275269,14.2430725-4.7474365,66.4667664-22.6829224,81.7644958c0.7933655-0.1314392,1.5288086-0.4992981,2.1099548-1.0552063
		c4.0310974-2.1021423,7.6142578-4.9690552,10.5503845-8.4401245
		C419.1447449,297.4698486,424.6777954,282.7792664,423.9769592,267.7124634z M458.7926941,123.701973
		c-7.1460876-2.3831482-14.622406-3.6291504-22.155426-3.6926956c-7.7229004-0.1631699-15.4104614,1.0882187-22.6828918,3.6926956
		c-4.2202148,1.5824509-6.857605,2.6373978-7.9129028,3.1649017c3.0193176,5.983757,5.6620789,12.150032,7.9129028,18.4629898
		C427.1422119,125.2844238,449.2976074,123.701973,458.7926941,123.701973z M327.4313965,514.5993042
		c0.5274353-4.2201843,8.4400635-56.4436035-17.9355469-63.82901c0,0-18.4629211-4.747406-16.8804626,33.2332764
		c0.2742615-1.07724,1.7936096-4.8988037,2.1627502-5.7088318c4.9034119-10.7603149,9.7749939-14.9010315,14.1902771-15.3916016
		c3.6924133,0,6.857605,3.692688,8.9675598,8.4401245c2.328125,5.6639404,4.2669067,11.480011,5.8026428,17.407959
		c1.5071716,4.9953613,2.5661316,10.1148987,3.1652832,15.2977905c0.4839783,3.3175964,0.660553,6.6727905,0.5274963,10.0228882
		V514.5993042z M414.4818726,527.2485352l-24.7931519-84.4019775l11.0778809-101.282135l-18.9904785,96.53479l23.737915,85.4569397
		l-38.5084229,40.0908813L414.4818726,527.2485352z M547.414856,594.2427979
		c-61.7187805,35.8707275-118.1626892,46.9483032-164.5837402,46.9483032
		c-72.7966309,0-119.2176819-26.9031372-119.2176819-26.9031372
		c-154.0337219-80.1817627-156.1436768-219.4448853-156.1436768-219.4448853
		c-0.0061646-0.2852478,0.2203293-0.5213318,0.5054932-0.5275269c0.0072403-0.0002136,0.0147705-0.0002136,0.0220184,0h1.0550156
		c19.5179291,38.5084534,43.7835693,51.1687622,54.3339539,55.3887024c1.1716309,0.6557312,2.409317,1.1861877,3.6923981,1.5827332
		c-44.8385849-55.9164124-57.4989166-103.3924561-57.4989166-138.7356262c0-47.4762878,22.683197-73.8518982,22.683197-73.8518982
		l0.5274963-0.5275116c0.2851715-0.0058746,0.5215607,0.2205505,0.5275116,0.5059967
		c0.0002136,0.0072479,0.0002136,0.0144958,0,0.0217285c-2.7550201,14.4330597-4.1676331,29.0901184-4.2201996,43.7836609
		c-0.2122192,15.8756409,1.9207611,31.6958008,6.3301697,46.9482727c1.3573151,4.1289063,2.9424896,8.1792603,4.7476349,12.1328125
		c-1.4571533-10.8401184-2.1620331-21.7682495-2.1099548-32.70578
		c-0.0759583-68.1817627,26.8572083-133.6179657,74.906601-181.9917603
		c-10.0225677,4.2202072-21.6278839,14.7705765-31.1232452,24.7931595
		c-10.5500793,10.550293-18.9904938,21.1003876-18.9904938,21.1003876h-0.5275116c-0.5274353,0-0.5274353,0-0.5274353-0.5277252
		c0.8534851-8.3996124,3.5555725-16.5062256,7.9126282-23.737854c-8.1463623,8.2603149-14.7555237,17.9065094-19.5180054,28.4854889
		c-3.2091675,6.4418335-5.8565979,13.1483917-7.9126282,20.045517v0.5274353
		c-13.4494019,15.5867615-24.63694,32.9899292-33.2332001,51.6964874
		c-3.8230896,7.9971771-6.9982529,16.2881317-9.4951477,24.7931366c-0.5274353,2.1099854-1.0549393,3.164978-1.0549393,3.6924133
		c0,0,0,0.5275269-1.0550156,0.5275269c-1.0552292,0-0.5277252-0.5275269-0.5277252-1.0549622v-0.5274963
		c0.0271149-1.074585,0.2046967-2.1400146,0.5277252-3.164978c0-20.0454407,8.4401245-41.6736145,11.6051025-50.113739
		c-23.2104187,24.7931519-29.0130768,59.0813599-29.0130768,85.9844971
		c-0.0502014,15.2778625,1.7206573,30.5072327,5.2751465,45.3660278c0.6292114,17.1791077,2.569046,34.2850037,5.8026581,51.1687622
		c3.6924896,15.8252258,6.3301697,27.430542,6.3301697,27.430542c0.7405167,1.6871033,1.2720413,3.4587402,1.5825195,5.2751465
		v0.5274963h-0.527504c-1.0550156,0-1.0550156-0.5274963-1.5825272-1.0549316c-0.5277176,0-0.5277176-0.5278015-1.0552292-1.5827942
		l-1.0549393-2.1099854c-16.8802567-25.3205872-24.7931595-66.4664612-26.3756104-76.4892578
		c-0.4365616,1.9017334-0.6141434,3.8536377-0.527504,5.8028564c0,40.0908813,6.8576736,81.7645874,41.6733322,135.5707397
		c33.2332764,69.1039429,93.3698883,106.0298462,121.8554535,120.272644
		c9.4950714,4.2202148,15.2977295,6.857666,15.2977295,6.857666c38.8599396,18.644104,81.3921356,28.3760986,124.4929047,28.4855957
		c58.457489-0.4958496,115.4903564-18.1008301,164.0562439-50.6412964
		c8.4401245-5.8026123,13.1878052-9.4950562,13.1878052-9.4950562l2.8547974-2.8547974
		c-0.2675171,0.1247559-0.5430908,0.2173462-0.744812,0.2173462L547.414856,594.2427979z M318.4746094,448.649231
		l-37.4534912-122.9101257l6.3301697,110.2498779C306.3417664,419.6362305,318.4746094,448.649231,318.4746094,448.649231z
		 M551.324646,591.9155273c0.4321899-0.2017212,0.8379517-0.512207,0.8379517-0.8378906L551.324646,591.9155273z
		 M318.4746094,220.7642059l-28.4855652-103.9199066v2.1099625l7.9125977,65.9389725
		c0.3606262,0.8320465,0.5403442,1.7311401,0.5275269,2.6377563c0,3.6924133-2.1099854,8.4401245-20.0454407-10.0228577
		c-0.5275269-1.0550232-1.0550232-1.0550232-1.0550232-1.0550232
		C295.2641907,212.8513641,318.4746094,220.7642059,318.4746094,220.7642059z M250.4255829,239.7546997
		c-2.4034424-4.7428436-3.6680145-9.9809875-3.692688-15.2980194c0.2012482-9.6464691,4.6393433-18.7152252,12.1328278-24.7931519
		l0.5274963-0.5275116c-0.6849976-8.7784271-0.6849976-17.5968781,0-26.3755951
		c-9.3910065,13.5650787-29.0733948,46.217926-6.0279999,71.9394379
		C253.194519,244.4580841,251.2321625,241.2053986,250.4255829,239.7546997z"/>
</g>
</svg>
