<?xml version="1.0" encoding="utf-8"?>
<!-- Generator: Adobe Illustrator 22.0.1, SVG Export Plug-In . SVG Version: 6.00 Build 0)  -->
<svg version="1.1" id="Layer_1" xmlns="http://www.w3.org/2000/svg" xmlns:xlink="http://www.w3.org/1999/xlink" x="0px" y="0px"
	 width="720px" height="720px" viewBox="0 0 720 720" style="enable-background:new 0 0 720 720;" xml:space="preserve">
<style type="text/css">
	.st0{fill:#FFC627;}
	.st1{fill:#8B2332;}
	.st2{fill:#0D2240;}
	.st3{fill:#FFFFFF;}
</style>
<g>
	<path class="st0" d="M360.1620178,36.0014534c-86.0252991-0.2583351-168.5748444,33.9282112-229.2295227,94.9319153
		c-60.8340607,60.8080597-94.9877319,143.3132477-94.9317627,229.3273163
		c0.1165619,178.9127808,145.2484741,323.855835,324.1612854,323.7392578
		c178.5235291,0,323.8373108-145.3137207,323.8373108-323.999176
		C683.7813721,181.2144165,538.9482422,36.3087654,360.1620178,36.0014534z"/>
	<path class="st1" d="M360.1621399,61.9214821C195.5704651,61.75951,61.9207573,195.5711975,61.9207573,359.8387756
		c0,164.5915222,133.649704,298.4032288,298.241272,298.4032288c164.2676086,0,297.9172668-133.6495972,297.9172668-298.2412415
		C658.0792847,195.7331696,524.4297485,61.9214821,360.1621399,61.9214821z"/>
	<path class="st2" d="M360.0000305,83.9533844c-152.117691,0-276.0473633,123.7677002-276.0473633,275.885376
		c0,152.2796936,123.9296722,276.2093811,276.0473633,276.0472717
		c152.3681335-0.0310669,275.8791809-123.5419922,275.9102478-275.9100952
		C635.9412842,207.563858,512.4119873,83.9844131,360.0000305,83.9533844z"/>
	<path class="st0" d="M369.3959961,570.1142578c14.4630432,1.7053833,28.0157776,7.9431152,38.7179565,17.8199463
		c-11.4891968,7.956604-24.8123779,12.8622437-38.7179565,14.2559204V570.1142578z M301.1941223,577.0802612h0.0001221
		c14.0482788-13.5374146,32.2596436-21.9295044,51.6778259-23.8140259v-27.0539551h-74.6818237
		C279.6596069,545.340332,287.8015137,563.3442993,301.1941223,577.0802612z M352.7101135,602.1901245v-32.0758667
		c-14.4914246,1.7750854-28.0754395,8.0010376-38.8799133,17.8199463
		C325.404541,595.8423462,338.7670288,600.7418823,352.7101135,602.1901245z M470.3227234,245.6283722l-82.2965088-101.086853
		l-11.8262024,15.5526276l-16.3615417-39.20504v180.9546814l55.079895-70.6325073L470.3227234,245.6283722z
		 M577.4035645,244.3329926l6.1558838-3.4020844l-19.763916-30.7798462l-5.5079346,4.0499573
		c-33.6959229-42.6059265-93.6358643-90.0718079-150.6596985-97.1997757
		c42.9298706,19.6019363,91.2057495,69.6599045,120.6896667,108.2157364l-30.941925,22.5179443l3.7260132,5.6700897
		l-139.9676819,90.8818207L221.1662903,253.405014l3.7260132-5.6699524l-31.1039276-22.5179596
		c29.6459198-38.555954,77.7598419-88.6138,120.8516693-108.2157211
		c-56.8618469,7.1279602-116.8016968,54.5938492-150.3357391,97.0376663l-5.8319244-4.2119293l-19.7639008,30.6180115
		l6.1560059,3.5639191l-0.161972,0.3239441c-24.6239929,48.437973-42.7679062,123.1197968-25.1100388,177.8756256
		c-0.4859161-47.3039246,24.9479294-112.265686,47.7899551-155.5196533l33.371933,18.7919312l3.4020844-5.3460083
		l129.9236908,81.6478271L162.6844482,473.2385559l-0.3240662-0.3240967l-23.0038757,6.1560059l0.3239441,0.6478882
		c-1.1339417,4.2120667,0.9719696,12.1500244,5.8320465,19.7640381c4.8599548,7.7759705,11.0159607,12.7978821,15.7139435,13.769989
		l0.3239441,0.6478882l15.2280121-18.4678345l-0.161972-0.3240967L517.949646,280.4588318l3.4020996,5.3460083
		l33.5339966-18.7919312c22.8419189,43.2539673,48.2757568,108.3777161,47.9518433,155.5196533
		C620.3336182,367.6147766,602.0275879,292.7709656,577.4035645,244.3329926z M369.3959961,553.2662354
		c19.3986511,1.781189,37.5912781,10.19104,51.5158691,23.8140259
		c13.5010986-13.6784058,21.7102051-31.7039185,23.1659546-50.8678589h-74.6818237V553.2662354z M559.7456055,472.9144592
		l-0.3240967,0.3240967L401.7958374,370.8547363l-27.5398865,16.361969L545.489563,494.9465027l-0.1619873,0.3240967
		l15.2280273,18.467865l0.4859009-0.6478882c4.5360107-0.8101196,10.6920166-5.9940491,15.7139282-13.7700195
		c4.697998-7.6140137,6.9660034-15.3900146,5.8320313-19.7640381l0.3239746-0.6478882L559.7456055,472.9144592z"/>
	<path class="st3" d="M301.032135,461.2504883c14.100708,13.434845,32.2937317,21.7614441,51.6779785,23.6519165v24.6239624
		h-74.5198669C280.3713989,491.3841858,288.3877563,474.441803,301.032135,461.2504883z M369.3959961,436.1404724v31.9139099
		c14.47229-1.6723938,28.03479-7.9145813,38.7179565-17.8198242
		C396.5648193,442.4212036,383.2652893,437.5799866,369.3959961,436.1404724z M388.0262146,144.5415192l-11.8262024,15.5526276
		l11.8262024,26.8900146V144.5415192z M420.9118652,461.2504883c-14.0002441,13.4871216-32.1619873,21.82547-51.5158691,23.6520386
		v24.6238403h74.5198669C441.6759644,491.3684692,433.6036377,474.4279175,420.9118652,461.2504883z M303.9475098,231.535614
		l55.8909607,70.3081665V120.8891068l-99.9537048,121.9860001L303.9475098,231.535614z M352.7101135,468.0543823v-31.9139099
		c-13.9057312,1.3938599-27.2287598,6.2993469-38.7179565,14.2559204
		C324.7483215,460.1647339,338.2820435,466.3369751,352.7101135,468.0543823z"/>
</g>
</svg>
