<?xml version="1.0" encoding="utf-8"?>
<!-- Generator: Adobe Illustrator 22.0.1, SVG Export Plug-In . SVG Version: 6.00 Build 0)  -->
<svg version="1.1" id="Layer_1" xmlns="http://www.w3.org/2000/svg" xmlns:xlink="http://www.w3.org/1999/xlink" x="0px" y="0px"
	 width="720px" height="720px" viewBox="0 0 720 720" style="enable-background:new 0 0 720 720;" xml:space="preserve">
<style type="text/css">
	.st0{fill:#B5B3B3;}
	.st1{fill:#1D428A;}
	.st2{fill:#C8102E;}
	.st3{fill:#FFFFFF;}
</style>
<g>
	<path class="st0" d="M360.0001526,36.0000076c-178.9403992,0-324.0001526,145.0594788-324.0001526,323.9998779
		S181.0597534,684,360.0001526,684C538.9402466,684,684,538.9402466,684,359.9998779c0-0.0401611,0-0.0805664,0-0.1210022
		C683.9667969,180.9719543,538.9067993,35.9665565,360.0001526,36.0000076z"/>
	<path class="st1" d="M360.0001526,45.3373604c0,0,0,0-0.0003052,0c-173.7831879,0-314.6624756,140.8795929-314.6623535,314.6625061
		c0,173.7834473,140.8791656,314.6624756,314.6626587,314.6624756c173.7831726,0,314.6625061-140.8790283,314.6625061-314.6624756
		c0-0.0245361,0-0.0496216,0-0.0744324C674.6420288,186.1628723,533.7626953,45.3167343,360.0001526,45.3373604z"/>
	<path class="st2" d="M359.8875122,91.6874084C211.671463,91.7186279,91.5438461,211.896698,91.5749283,360.1124878
		c0.0310822,148.2160645,120.2091446,268.343689,268.4252319,268.3127441
		c148.2157593-0.03125,268.3434143-120.2093201,268.3124695-268.425354c0-0.0184021,0-0.0368042,0-0.0552063
		C628.2660522,211.7439423,508.0882568,91.6411362,359.8875122,91.6874084z"/>
	<path class="st3" d="M360.0001526,91.6874084c-148.1851349,0-268.3126221,120.1276093-268.3126221,268.3124695
		c0,148.1851196,120.1274719,268.3127441,268.3126221,268.3127441c148.1848145,0,268.3124695-120.1276245,268.3124695-268.3127441
		C628.1378174,211.8874969,508.1122131,91.8621826,360.0001526,91.6874084z M360.0001526,107.099884L360.0001526,107.099884
		c104.2816772,0.1287842,197.8260803,64.1589508,235.6872864,161.3249207
		c-44.9997559-61.5372772-133.7624817-103.4997711-235.6872864-103.4997711
		c-101.9251099,0-190.8001862,41.9624939-235.6876221,103.4997711
		C162.1472626,171.2379303,255.7084198,107.1968918,360.0001526,107.099884z M360.0001526,613.0124512
		c-104.2819672-0.1287842-197.8264008-64.1589355-235.6876221-161.3249207
		c45.0000534,61.537262,133.7625122,103.5000305,235.6876221,103.5000305
		c101.9248047,0,190.7998962-41.9627686,235.6875916-103.5000305
		C557.8000488,548.8325806,464.2717896,612.8513184,360.0001526,613.0124512z M611.5498657,385.6500549
		c-17.5496826,88.0873108-123.6373901,156.150177-251.6623535,156.150177
		c-128.0252075,0-234.1126404-67.9502563-251.6625977-156.150177c-0.5623779-5.849884-0.8999481-11.6997681-1.0124283-17.7749023
		h49.3873291v-15.7500305h-49.3873291c0.2249527-5.9624939,0.4500504-11.9250183,1.1250458-17.775177
		c17.4373322-88.0875854,123.6373749-156.1499023,251.6626129-156.1499023
		c128.0246582,0,234.1123352,67.949707,251.662323,156.1499023c0.5625,5.8501587,0.8997803,11.8126831,1.125,17.775177h-49.3875732
		v15.7500305h49.2749634C612.4501953,373.837677,612.2249756,379.8001709,611.5498657,385.6500549z M246.5990906,367.0874023
		h18.9007874v85.1623535h-18.9007874V367.0874023z M319.5002747,367.5375977c0.1131592,1.1972351,0.1131592,2.4025574,0,3.6000671
		c-0.2324829,1.5866699-0.7671509,3.1142273-1.5752258,4.4999084c-1.3511353,2.6629028-4.1018372,4.322052-7.0872803,4.2749329
		h-14.8502502v4.8374634c0,5.7375488,4.9501038,8.2128601,9.4502563,10.3500671
		c1.1247559,0.4501953,2.3621521,1.1250305,3.4871826,1.687561c1.0553589,0.6087952,2.0697327,1.2853394,3.0375671,2.0251465
		c1.9175415,1.3037109,3.1225891,3.4225159,3.2625122,5.7372742c0.3375854,5.9624939,0.3375854,34.5373535-0.2249451,38.7002563
		c-1.9125061,5.3999634-6.7499695,8.5498657-13.9498596,8.887146h-20.5875244l-0.1126099-11.3624878h15.6374207
		l-0.1126099-30.7123108c-0.2753906-0.4766846-0.715271-0.8368225-1.2373657-1.0124512l-1.0127258-0.3375549
		c-0.2246704,0-0.3372803-0.1123352-0.5625-0.1123352c-5.5123291-1.687561-11.3624878-4.3875732-13.9498596-11.7003479
		c-1.5749512-4.4998779-0.2249756-20.474884-0.2249756-20.6998291c0.0064087-0.4892273,0.044342-0.9778748,0.1123352-1.462616
		c0.9003906-4.9500732,4.5001831-7.6500854,10.2377319-7.6500854h1.0124207c3.7127075-0.1123352,23.1751709,0,28.4625244,0
		h0.5625305L319.5002747,367.5375977z M406.0123291,366.9747925h0.0002747
		c-4.1193848-0.1652832-8.2424011,0.2129822-12.2628479,1.125061c-9.3373413,2.250061-13.8372498,8.4378052-13.8372498,19.0125427
		v50.7376099c0,12.937439,9.3373718,15.6374207,23.2875061,15.6374207c16.8750916,0,26.5500183-5.9624939,26.5500183-16.4248962
		V384.187439C429.7500305,366.9747925,418.8374329,366.9747925,406.0123291,366.9747925z M410.3999023,429.5250854
		c0.0167236,1.0511475-0.0209045,2.1026001-0.1126099,3.1498718c0.0052795,0.9851074-0.1078796,1.9671631-0.3375854,2.9252319
		l-0.3372803,0.3372803c-1.125061,0.1126404-2.2500916,0.2252502-3.3751221,0.2252502
		c-1.8291931,0.1608276-3.6477661-0.4050293-5.0627136-1.5752258c-1.4623413-1.5749512-1.5749512-4.1625977-1.4623413-7.1998901v-36
		c0,0.2249756,0-3.8247375,0.1126404-5.1750183l0,0c0.0261841-1.7762146,0.2143555-3.5457153,0.5625-5.2876587l0.3373108-0.3375549
		c0.8942261-0.1354675,1.7962646-0.2107239,2.6999817-0.2249451h0.3378601
		c6.412384,0.1123352,6.6373596,2.025116,6.6373596,13.6125793V429.5250854z M473.8497009,367.0874023h19.462738v85.2752686
		h-19.5747986l-13.3876038-34.3127136v34.3127136h-19.2375183v-85.1626282l0.4498901-0.1126404
		c0.8540955-0.1516418,1.7201843-0.2268982,2.587677-0.2249451c5.9622192,0,20.474884,3.6000977,29.5875549,36.4498901h0.1120605
		V367.0874023z M223.4250336,366.9747925l-47.9252625,0.1126099h-0.5622406v0.5625305
		c-0.0462799,6.283905,4.5751495,11.6272888,10.7999573,12.4875183v72.2252197h19.6874237v-36.2252197h16.5375214
		c8.775116,0,13.7249146-5.7375488,13.7249146-15.7497559v-3.0378418
		C235.6873474,373.0499268,234.6749115,368.2124634,223.4250336,366.9747925z M215.7749634,404.8872986L215.7749634,404.8872986
		H205.087616v-24.7498474c0,0,5.8498993-0.1126099,6.6373749,0c2.1371765,0.2252502,4.0499725,1.125061,4.0499725,3.6000977
		C215.8875885,384.5250244,215.7749634,404.8872986,215.7749634,404.8872986z M223.4250336,366.9747925L223.4250336,366.9747925
		L223.4250336,366.9747925L223.4250336,366.9747925z M329.6250916,367.0874023h44.4375305v0.5628052
		c0.1594543,3.4852295-1.0062866,6.9016113-3.2625122,9.5625916c-2.1463928,2.1987915-5.1463318,3.3494873-8.2125854,3.1499023
		h-0.6751404v71.9999695h-19.5750732v-71.8876343h-12.7122192V367.0874023z M545.1751099,367.5375977
		c0.1137085,1.1972351,0.1137085,2.4025574,0,3.6000671c-0.2324829,1.5866699-0.7671509,3.1142273-1.5749512,4.4999084
		c-1.3508301,2.6629028-4.1021118,4.322052-7.0875854,4.2749329h-14.8499146v4.8374634
		c0,5.7375488,4.9497681,8.2128601,9.4499512,10.3500671c1.125061,0.4501953,2.3627319,1.1250305,3.4874878,1.687561
		c1.0550537,0.6087952,2.0697021,1.2853394,3.0375366,2.0251465c1.9178467,1.3037109,3.1225586,3.4225159,3.2625122,5.7372742
		c0.3372803,5.9624939,0.3372803,34.5373535-0.2249756,38.7002563c-1.9124756,5.3999634-6.749939,8.5498657-13.9501343,8.887146
		h-20.5874939l-0.1126099-11.3624878h15.6374207l-0.1123047-30.7123108
		c-0.2756958-0.4766846-0.7155762-0.8368225-1.2374268-1.0124512l-1.0123901-0.3375549
		c-0.2252197,0-0.3375854-0.1123352-0.562561-0.1123352c-5.5125732-1.687561-11.3624573-4.3875732-13.9501343-11.7003479
		c-1.5749207-4.4998779-0.2249451-20.474884-0.2249451-20.6998291c0.0066833-0.4892273,0.0440369-0.9778748,0.1126099-1.462616
		c0.8998108-4.9500732,4.4999084-7.6500854,10.2374573-7.6500854h1.0124512c3.7124023-0.1123352,23.1748657,0,28.4625244,0
		h0.5621948L545.1751099,367.5375977z M370.6875,314.4372864h3.2625122
		c3.1499023,0.1126099,8.4372559,1.0127258,8.4372559,6.7502747c0,2.6999817,0.2252197,11.2498474,0.3378601,14.3997498v1.2376709
		c0.0518494,1.8068542,0.2018127,3.6095581,0.4498901,5.3999939c1.3500061,4.9500732,5.1750488,7.9873352,11.2498779,8.5498657
		H399.9375v-30.3750305c-0.2564697-3.2424622-1.4704285-6.3357544-3.4877625-8.8871765l-0.4498901-0.5625305
		c3.019989-3.2993164,4.5637207-7.6868591,4.2749329-12.150238v-2.9249573c0-23.5124512-0.8998108-28.2372742-11.9250183-29.4749451
		h-36.6748352v83.2498474H370.6875V314.4372864z M370.8001099,279.6749573h3.8247681
		c4.9500732,0.1123352,6.8625793,0.1123352,6.6373596,8.8874512c0,6.9749451,0,7.4251404-0.1123352,10.9125977v0.6751404
		c-0.0256653,1.0218811-0.3807983,2.0083923-1.0124512,2.8123169c-0.4136658,0.4267578-0.9809265,0.6698303-1.5752258,0.6748657
		h-7.7621155V279.6749573z M488.4758301,349.7624207h-18.5626526v-83.250946h18.5626526V349.7624207z M310.8374939,279.6752319
		h-12.374939v-13.0500488h43.3122253v0.5625305c0.1650085,3.3982544-0.960022,6.7335205-3.1499023,9.3370667
		c-2.1569824,2.0998535-5.0939026,3.2012024-8.0999756,3.0378418h-0.6748657v70.3124084h-19.0125427V279.6752319z
		 M510.525116,279.5626221h-12.374939v-13.0500488h43.3124695v0.5625305
		c0.1647949,3.3982544-0.9602661,6.7335205-3.1501465,9.3373413c-2.1132202,2.1784668-5.0702515,3.3283081-8.0999756,3.150177
		h-0.6748657v70.3124084H510.525116V279.5626221z M288.4495239,349.7624207h-38.4753113l0.1140137-83.250946h38.3612976v12.8264771
		h-19.912384v18.7867737h13.7263184v18.0012512h-13.7263184v20.2479858h19.912384V349.7624207z M225.8997955,266.5125732
		h-47.4748077l-0.1126099,0.5625305c-0.2729034,3.0941467,0.6087952,6.1793823,2.4750366,8.6625061
		c2.2754517,2.4925842,5.5131531,3.8857727,8.8874512,3.8247375v70.0874634h35.325119
		c8.0999756,0,13.4999695-6.8623352,13.4999695-16.9874268v-38.5873718
		C238.4999542,272.7000427,238.4999542,266.9624939,225.8997955,266.5125732z M219.2624359,336.375061h-10.5750122v-56.812439
		c2.6648712-0.274292,5.3553772-0.160553,7.9873657,0.3373108c2.4753113,1.0124207,2.3627014,5.5125732,2.3627014,5.6252136
		C219.8249512,292.1625061,219.3747711,331.1997681,219.2624359,336.375061z M459.7872314,335.1374207v-51.7497559
		c0-16.8750916-10.912323-16.8750916-23.5121765-16.8750916l0,0c-4.1191101-0.1600037-8.2415771,0.2179871-12.2625732,1.125061
		c-9.2250366,2.1371765-13.7249146,8.324646-13.7249146,18.5623474v49.6125793
		c0,12.7121887,9.2250061,15.3001404,23.0622559,15.3001404
		C450.1123047,351.1127014,459.7872314,345.2625122,459.7872314,335.1374207z M440.4373779,327.9375305
		c0.0186768,1.0138245-0.0189514,2.0279236-0.1126099,3.0375671c0.0055542,0.9477539-0.107605,1.8927307-0.3373108,2.8125916
		L439.6499023,334.125c-1.125061,0.1126099-2.2500916,0.2252197-3.3751221,0.2252197
		c-1.8004761,0.2182617-3.606781-0.3565369-4.9497986-1.5752258c-1.462616-1.5749512-1.5749512-4.0499878-1.462616-6.9749451
		v-35.2127686c0.1123352,0,0.1123352-3.8247681,0.1123352-5.1747742h0.0002747
		c0.0248108-1.7388306,0.2132568-3.4715576,0.5622559-5.1750183l0.3378296-0.3375549
		c0.8931274-0.1402283,1.7957153-0.2154846,2.6999817-0.2249756h0.3373108
		c6.4124146,0.1123352,6.5250244,2.0251465,6.5250244,13.3876343V327.9375305z"/>
</g>
</svg>
