<?xml version="1.0" encoding="utf-8"?>
<!-- Generator: Adobe Illustrator 22.0.1, SVG Export Plug-In . SVG Version: 6.00 Build 0)  -->
<svg version="1.1" id="Layer_1" xmlns="http://www.w3.org/2000/svg" xmlns:xlink="http://www.w3.org/1999/xlink" x="0px" y="0px"
	 width="720px" height="720px" viewBox="0 0 720 720" style="enable-background:new 0 0 720 720;" xml:space="preserve">
<style type="text/css">
	.st0{fill:#1D428A;}
	.st1{fill:#FDB927;}
</style>
<g>
	<path class="st0" d="M359.9996033,684.0001831C538.9408569,684.0001831,684,538.9401855,684,359.9997864
		c-0.0123291-178.9350586-145.0649414-323.9872437-324.0003967-324C181.0599976,35.999794,36,181.0593719,36,359.9997864
		S181.0599976,684.0001831,359.9996033,684.0001831z"/>
	<path class="st1" d="M571.9699097,148.1357574c-0.0412598-0.0412445-0.0823364-0.082489-0.1235962-0.1235657
		c-116.965271-117.0336151-306.6590271-117.089035-423.692627-0.1237488
		c-117.0336227,116.9654694-117.089035,306.6590576-0.1235657,423.692688
		c0.0410614,0.0412598,0.0823212,0.0823364,0.1235657,0.1235352
		c116.9652863,117.0336304,306.6590576,117.0890503,423.692627,0.1235962
		C688.8799438,454.8629456,688.9351807,265.1693726,571.9699097,148.1357574z M81.4561386,412.6784363
		c15.666687-12.8749695,29.9944458-27.2975769,42.7657394-43.0489197l-28.0385971,94.4527588
		C89.6306686,447.4617004,84.6987305,430.2471619,81.4561386,412.6784363z M101.422966,476.2605286h-0.0001831
		l36.9598923-124.4737854c18.0014801-24.1738892,34.2793427-49.5844727,48.7132721-76.0436707L120.8232651,512.229187
		C113.4749374,500.7366028,106.990303,488.7138367,101.422966,476.2605286z M184.1221924,582.3253784
		c-8.6135559-6.854248-16.8395538-14.1820068-24.6398163-21.9494019
		c-5.947525-5.9475708-11.6120605-12.1782227-16.9930573-18.5505981l44.6066284,1.5576782
		C186.2462463,557.1190186,185.2550507,570.1469727,184.1221924,582.3253784z M188.9368439,510.3881531l-24.3566437,0.8497009
		l28.4634552-108.4721069C192.0522766,438.7342834,190.7779083,475.8358459,188.9368439,510.3881531z M193.8931732,366.372406
		l-38.0925751,145.1487732l-26.3392181,0.8497314L194.8843689,279
		C194.8843689,304.0646667,194.4597015,334.2273254,193.8931732,366.372406z M216.4089203,455.8690186h12.1784058v52.9613953
		l-12.1784058,0.4248657V455.8690186z M216.4089203,439.725647v-33.7027588h12.1784058v33.7027588H216.4089203z
		 M216.4089203,389.8795166v-32.7115784h12.1784058v32.7115784H216.4089203z M216.4089203,341.0245667v-17.4179077h12.1784058
		v17.4179077H216.4089203z M216.4089203,307.4632874v-17.7012634h12.1784058v0.2833557v17.4179077H216.4089203z
		 M228.4458313,273.6186523h-12.036911v-10.9038696h12.036911V273.6186523z M560.5176392,560.3759766
		C507.4270935,613.682251,435.2337952,643.5588379,360,643.3585205
		c-34.7535095,0.0835571-69.2234802-6.253479-101.6748657-18.6922607
		c-1.2745361-19.4005127-2.5490875-42.6242676-3.8234558-67.9721069l-25.9143524-8.7797852v63.2991333
		c-4.1066284-2.1240845-8.2132721-4.3898315-12.1784058-6.7972412v-60.0419922l12.1784058,0.4248657v0.4248657h13.1696014
		l23.9317932,0.8494873l298.3690186,10.6206665C562.9250488,557.9685669,561.6505127,559.1015625,560.5176392,560.3759766z
		 M531.9126587,498.9179382l-29.1712952,0.9913635l-23.7902832-61.5997009l4.6731567,2.2657471l13.0279236,6.5140686
		c4.3898315,2.124054,8.7798157,4.1066284,13.1696167,6.2306824c1.2745361,0.5665283,2.5488892,1.1328735,3.6817627,1.6994019
		L531.9126587,498.9179382z M524.8322754,460.2588196c11.75354,5.3811951,23.6486206,10.4790039,35.5438232,15.4353638
		l9.770813,21.8077087l-29.3129272,0.9913635L524.8322754,460.2588196z M493.6784058,500.1924744l-29.879303,0.991394
		l-31.0123596-88.0805969c1.9825439,1.1328735,3.9649353,2.2657471,5.9475098,3.3986206l6.3723755,3.5401001
		c4.2483215,2.4074097,8.4966125,4.6731567,12.744751,7.0804138l9.7709961,5.2396851L493.6784058,500.1924744z
		 M455.1607971,501.467041l-26.6223755,0.8495178L389.7378235,386.480896
		c5.9475098,3.8234558,11.89505,7.6469116,17.9842529,11.3287048l12.4615784,7.646759l1.6992188,0.9913635L455.1607971,501.467041z
		 M419.6171265,502.741394l-27.8969116,0.9913635l-46.0227051-147.6976929
		c10.6205139,7.9300842,21.5243835,15.5770264,32.4282532,23.0820923L419.6171265,502.741394z M382.9405823,504.0159302
		l-26.9057312,0.8495483l-54.8024597-184.5157776c3.8234558,3.3986206,7.7886047,6.6555481,11.75354,9.9125061
		c6.9387207,5.8060303,13.8776245,11.3287048,21.0995178,16.8513794L382.9405823,504.0159302z M347.3967285,505.1488037
		l-29.737793,0.9912109l-65.423172-233.5123901C257.900116,279,263.8478088,285.0892334,269.9368591,291.1784363
		c6.3723755,6.3723755,12.8864136,12.4613953,19.4002991,18.5505981L347.3967285,505.1488037z M309.020813,506.4231873
		l-25.7726746,0.8497009l-35.9685364-137.0770264c-1.1328735-35.4021912-2.124054-67.9720764-2.832077-94.3112793
		L309.020813,506.4231873z M274.6100159,507.5560608l-22.2325745,0.7081909
		c-1.4160461-32.5700684-2.6904144-66.839386-3.823288-100.1173096L274.6100159,507.5560608z M583.0333862,535.0281372
		l-329.5230713-6.5140381l-0.1414948-3.1154785l335.6120911,1.8410645
		C586.998291,529.7886353,585.1574097,532.479187,583.0333862,535.0281372z M608.5228882,496.2275391l-29.3129883,1.1326904
		l-7.505249-16.9928894c12.4615479,5.0978088,25.0646362,9.9124756,37.6679077,14.4439697
		C609.0892334,495.236145,608.8060303,495.8026733,608.5228882,496.2275391z M517.1853638,436.7518921
		c-4.3898315-1.9825745-8.7798157-3.8234558-13.0279541-5.8060303l-12.8864136-6.0892029l-6.5140686-3.1152649l-6.3723755-3.115448
		l-12.744751-6.3723755c-4.248291-2.1242371-8.4966125-4.389801-12.603241-6.6557312l-6.3723755-3.3985901
		c-2.1240845-1.1326904-4.1066589-2.2657471-6.2307129-3.3986206l-12.4615784-6.9387207l-12.3200684-7.2220764
		c-32.9714661-19.2116394-64.5352783-40.7431946-94.4527893-64.4317932
		c-14.8688354-11.8952332-29.4546509-24.2151489-43.1905823-37.3847351
		c-6.9389038-6.5140686-13.5944519-13.3110962-20.1085205-20.25c-1.5575256-1.6992188-3.2569275-3.3986206-4.8146515-5.239502
		c-1.557724-1.699234-3.1152649-3.5402985-4.6729889-5.3811951c-1.5577087-1.8408966-3.1154327-3.5401001-4.5314789-5.3809967
		c0-0.1416779-0.1416779-0.1416779-0.1416779-0.2831726c-0.5663452-20.8165283-0.8497009-33.2781067-0.8497009-33.2781067
		l-14.160614-3.3986206v18.9756317h-12.0367279v-19.9668274l-15.1519928,3.6817932l0.1416779,7.2220764l-7.0803986,3.8234558
		c0.1414948,5.947525,0.2831726,13.7359467,0.4248505,22.9405975
		c-5.8060303,10.0541534-68.5386047,118.5262299-115.5526581,151.9460297
		c-1.7512283-12.8127441-2.6500626-25.7275085-2.6904144-38.6591187
		c-0.3253174-75.1059265,29.5211792-147.1968231,82.8408966-200.0929413h-0.0001831
		c110.8526001-110.5816269,290.3603821-110.3621216,400.9419861,0.4904785
		c82.9777222,83.1809235,106.0510254,208.9242096,58.0111694,316.1461182
		C584.1661987,464.506958,550.3217773,451.4792175,517.1853638,436.7518921z"/>
</g>
</svg>
