<?xml version="1.0" encoding="UTF-8" standalone="no"?>
<!DOCTYPE svg PUBLIC "-//W3C//DTD SVG 1.1//EN" "http://www.w3.org/Graphics/SVG/1.1/DTD/svg11.dtd">
<svg width="100%" height="100%" viewBox="0 0 720 720" version="1.1" xmlns="http://www.w3.org/2000/svg" xmlns:xlink="http://www.w3.org/1999/xlink" xml:space="preserve" xmlns:serif="http://www.serif.com/" style="fill-rule:evenodd;clip-rule:evenodd;stroke-linejoin:round;stroke-miterlimit:2;">
    <g>
        <path d="M443.833,337.193L444.529,279.218C444.355,243.353 395.259,246.835 378.72,249.098C398.045,245.616 462.636,229.425 458.632,170.231C456.02,130.884 406.75,111.385 325.271,119.22C323.945,119.422 322.607,119.538 321.267,119.568C317.837,91.262 311.537,63.378 302.464,36.348C291.147,71.516 284.531,99.198 280.875,124.965C251.71,129.663 222.912,136.411 194.696,145.161C194.696,145.161 234.042,141.679 278.786,142.201C273.737,193.909 278.96,243.005 278.786,337.193C193.129,334.233 118.788,350.772 119.659,376.191C120.355,398.302 186.339,418.671 278.786,426.506L282.791,552.206L289.232,466.897C289.406,456.277 297.415,457.322 297.415,466.375L300.375,578.67L307.339,487.267C307.164,474.906 315.869,475.602 315.521,486.57L318.655,603.565L324.226,429.118C336.065,429.466 348.252,429.814 360.613,429.814C372.278,429.814 383.768,429.64 395.085,429.292L400.656,606.874L405.357,513.905C405.357,502.065 413.365,502.588 413.365,513.208L418.24,643.609L423.115,530.966C423.463,519.824 432.342,520.346 432.516,530.966L436.521,680.17L442.44,426.68L442.44,426.506C536.454,418.671 604.353,398.302 604.353,376.191L604.353,376.191C603.309,351.817 530.012,333.015 443.833,337.193ZM278.09,396.387L278.264,404.57C212.454,398.476 167.885,385.419 167.885,368.879C167.885,353.906 223.423,345.898 278.96,337.541C278.96,355.473 278.612,374.973 278.09,396.387ZM407.272,181.722C413.888,230.818 363.747,247.009 327.708,252.406C328.366,216.39 327.204,180.363 324.226,144.464C366.707,148.643 404.138,158.74 407.272,181.722ZM395.259,407.529C384.117,407.877 372.626,408.052 360.787,408.052C348.6,407.877 336.761,407.703 325.097,407.355L325.097,407.355L325.619,392.905C324.575,355.125 327.012,307.596 327.534,256.933C357.828,260.066 397,268.249 396.304,290.186L395.259,407.529ZM443.137,404.57L443.136,404.57L444.007,337.715C505.116,345.55 555.431,354.429 555.431,368.879C555.431,385.419 509.469,398.65 443.137,404.57Z" style="fill:rgb(206,17,65);fill-rule:nonzero;"/>
    </g>
</svg>
