<?xml version="1.0" encoding="utf-8"?>
<!-- Generator: Adobe Illustrator 22.0.1, SVG Export Plug-In . SVG Version: 6.00 Build 0)  -->
<svg version="1.1" id="Layer_1" xmlns="http://www.w3.org/2000/svg" xmlns:xlink="http://www.w3.org/1999/xlink" x="0px" y="0px"
	 width="720px" height="720px" viewBox="0 0 720 720" style="enable-background:new 0 0 720 720;" xml:space="preserve">
<style type="text/css">
	.st0{fill:#BEC0C2;}
	.st1{fill:#002D62;}
	.st2{fill:#FDBB30;}
</style>
<g>
	<path class="st0" d="M164.4685211,72.0770798L36,654.2286987h254.2420654c0,0,28.2990417-115.8912354,30.5449829-126.2224121
		h110.0518494c82.6511536,0.4492188,150.0297546-27.4006653,195.3980408-80.8543091
		c83.1005249-90.2874146,68.7261353-221.9002686,6.2886963-297.3644409
		c-44.510376-53.9645996-111.0767822-84.8528442-181.0241089-83.9989853H165.8161011L164.4685211,72.0770798z"/>
	<path class="st1" d="M302.3703613,505.0973206l-30.5449829,126.2223816h-207.07724L184.2329254,89.59552h266.819397
		c63.2267151-0.9541397,123.4323425,26.9985275,163.5055237,75.9134827
		c59.2930908,71.421402,65.1326904,190.4566956-5.8394775,267.2686157
		c-43.5715942,50.7585144-107.8058167,73.6672974-177.8795776,72.7689209L302.3703613,505.0973206z"/>
	<path class="st2" d="M273.1721497,213.572052H156.382843l1.7967682-13.0261078h191.355545
		c39.5286865,0,85.3468018,11.6781616,116.3405151,31.8928375c31.4432678,19.7643433,43.5710144,33.2392883,73.2182617,33.2392883
		c4.4919434,0,4.9414673,1.3479309,5.8391113,6.2893982c0.9925537,5.0272522,1.444458,10.1479492,1.3479614,15.271698
		c0,2.2463379-2.2456055,3.5935059-6.7382202,3.5935059H301.0226746c-5.3902588,0-15.2724304-5.8390808-14.374054-14.374054
		c1.6213684-11.7961121,4.4819336-23.3900452,8.5349731-34.5872345
		C301.0226746,224.3526154,286.6486206,213.572052,273.1721497,213.572052z M290.6909485,338.4475403
		c2.6989441,9.9794312,6.1530762,19.7406006,10.3317261,29.1969604
		c23.8066711,45.8180847,104.2120056,20.6634827,126.2226868,14.374054
		c19.7643433-5.8390808,56.1490784-28.2993164,72.7687073-41.3254395
		c10.9000244-6.7841797,23.5508728-10.2207031,36.3847351-9.8821716c3.5927734,0,7.6365967,1.347168,8.0854492-4.0430908
		c0.4487915-4.9407043,1.7967529-13.026123,1.7967529-17.5180054c0.4487915-4.4919128,0.8983765-6.2886658-2.6951294-6.2886658
		l-406.5178223-0.448822l-3.5942688,13.9244995h125.325058
		C277.2160034,316.4368591,287.9965515,326.3190308,290.6909485,338.4475403z M539.5427856,349.2280884
		c2.2463379-7.6365967-2.2456055-7.1870117-7.6358643-6.7382202c-17.9675903,1.3479614-36.8343201,17.5187683-61.5393677,33.6896057
		c-25.155365,15.271698-75.0150452,30.5448914-123.0779419,30.5448914h-232.681015l-3.1447144,12.1285095h212.0182953
		c8.5127563-0.3109436,16.8884583,2.2164612,23.8074341,7.1870422c19.7076416,15.0572205,42.1234741,26.1885376,66.03125,32.7904663
		c10.7805481,3.5935059,30.0953064-0.898407,47.1645203-10.3317566
		C502.7092285,424.2431641,530.1101685,378.8738403,539.5427856,349.2280884z M336.5090332,187.0694885
		c5.8390808,0,55.2507324,1.7967529,82.6509094,10.3317413c24.6131287,7.5010529,47.9396057,18.710495,69.1759644,33.240799
		c22.4587097,14.3740692,30.5448914,23.8066711,48.9612732,21.5610962c4.0423584-0.4495697,3.1447144-5.390274,0-14.374054
		c-16.1707764-44.4701691-53.9027405-86.2451782-94.7793884-102.4160156
		c-6.2771606-1.8197327-12.8959045-2.1276245-19.3155212-0.8983765
		c-34.1261597,5.9830627-65.5334473,22.4725037-89.8379211,47.1645355
		C330.6691895,184.3751068,330.219635,187.0694885,336.5090332,187.0694885z M562.0029907,260.2885437
		c-5.3902588,2.2463379-3.5935059,6.7374573-3.5935059,10.3309937c-0.0628052,4.8258057,0.3890991,9.6439819,1.347168,14.374054
		c0,3.5935059,0,6.2886658,5.8399048,6.2886658h46.7156982c2.1690063-0.1447754,3.8967896-1.8725891,4.0422974-4.0430908
		c-0.8983765-21.5610962-4.4918823-43.1222076-16.1707764-60.6402283c-3.1439819-4.9407043-6.2886963,0.8983765-7.6358643,4.4918976
		C585.4282837,243.5915527,574.8116455,253.7394867,562.0029907,260.2885437z M613.2098389,302.5123596h-48.5124512
		c-2.6951294,0-4.4918823,2.694397-4.4918823,6.2886658c-0.449585,4.0430908-1.7967529,14.8236389-2.2463379,17.9675903
		c0,3.5935059,0,5.8398438,3.1447144,7.6365967c15.3781128,7.6358643,27.4959106,20.5509033,34.1384277,36.3839722
		c0.4495239,3.1447144,4.0430908,1.7967834,4.4926147,0c10.5293579-20.3065796,16.3623047-42.7185669,17.0684814-65.581665
		C616.8034058,304.3091431,614.5578003,302.5123596,613.2098389,302.5123596z M557.510376,348.3297119
		c-4.4919434-1.347168-4.4919434-0.8983765-8.0854492,9.8821716c-8.0853882,27.849762-39.978241,75.4638672-75.0150452,96.1265869
		c-11.6789246,6.7374573-4.0430908,8.0854187-0.449585,7.1870422
		c43.6139221-6.0121765,83.0445862-29.1211243,109.6030579-64.2337341
		c4.0430908-4.4926758,0.8983765-22.4602661-5.3902588-31.4440613
		C573.0684814,358.1835632,565.9067383,352.1123962,557.510376,348.3297119z M472.6138916,136.3114319
		c18.4163818,12.1285095,63.7849121,52.1060028,79.057373,105.5599518
		c1.7967529,5.8390808,3.5935059,7.1870422,11.6789551,2.6951447c8.0853882-4.4918976,31.4432373-29.6465149,18.4171143-48.5124817
		c-21.5610962-32.7912292-65.1328735-56.5979004-109.1534424-62.8873138
		C469.9179993,132.717926,469.4691772,134.514679,472.6138916,136.3114319z"/>
</g>
</svg>
