<?xml version="1.0" encoding="UTF-8" standalone="no"?>
<!DOCTYPE svg PUBLIC "-//W3C//DTD SVG 1.1//EN" "http://www.w3.org/Graphics/SVG/1.1/DTD/svg11.dtd">
<svg width="100%" height="100%" viewBox="0 0 720 720" version="1.1" xmlns="http://www.w3.org/2000/svg" xmlns:xlink="http://www.w3.org/1999/xlink" xml:space="preserve" xmlns:serif="http://www.serif.com/" style="fill-rule:evenodd;clip-rule:evenodd;stroke-linejoin:round;stroke-miterlimit:2;">
    <g transform="matrix(1.36822,0,0,1.61728,-39.8131,-93.0575)">
        <ellipse cx="292.215" cy="280.136" rx="251.808" ry="214.173" style="fill:white;"/>
    </g>
    <path d="M489.343,250.952C489.629,258.67 493.345,283.252 526.788,316.409L527.931,320.411C505.922,310.978 483.34,301.831 460.187,293.542C443.037,287.539 427.315,282.68 411.88,278.678C403.305,276.392 395.016,274.677 387.012,272.962C378.437,271.247 370.147,269.817 361.858,268.674L359.857,268.388L357.856,268.674C348.138,270.103 338.419,271.818 328.415,273.819C318.982,275.82 309.263,278.107 299.545,280.679C281.823,285.253 263.529,291.255 244.092,298.401C228.371,304.404 211.506,311.264 192.641,319.268L193.498,316.409C227.227,282.966 230.657,258.67 230.943,250.952L231.801,248.379L488.485,248.379L489.343,250.952ZM432.175,174.918C413.881,164.628 413.309,150.05 413.595,144.619L413.023,142.618L379.294,142.618L371.005,174.347L432.746,176.348L432.175,174.918ZM579.097,225.226L569.092,255.24L571.093,259.813L660.847,259.813L664.563,248.665C620.544,128.326 507.351,41.431 373.292,36.286L383.868,104.316C466.761,111.462 537.936,158.054 579.097,225.226ZM331.559,104.316L341.563,142.333L307.834,142.333L307.263,144.333C307.548,149.764 306.977,164.342 288.683,174.633L288.111,176.348L349.853,174.347L354.14,191.211L269.246,191.211L268.674,193.212C269.532,199.501 269.246,217.794 238.089,231.229L237.232,233.801L360.429,230.657L483.626,233.801L482.768,231.229C451.898,217.794 451.326,199.501 452.184,193.212L451.612,191.211L366.717,191.211L361.858,209.505L360.143,208.933L360.143,35.714C185.495,35.714 43.146,174.061 36.286,346.994L104.316,336.418C115.464,214.936 210.934,118.036 331.559,104.316ZM417.597,511.638C417.883,511.924 418.169,512.21 418.454,512.782C419.026,513.639 420.169,514.497 421.313,515.354C422.456,516.212 423.885,517.069 425.6,517.641C428.459,519.07 432.461,520.214 437.32,521.357C446.181,523.643 456.185,524.787 465.046,525.644C467.619,525.93 469.906,526.216 472.478,526.216C476.48,514.783 481.339,503.349 487.056,491.915C476.766,496.489 465.618,500.491 453.899,503.921C439.035,508.208 426.458,510.495 417.597,511.638ZM571.379,460.187L571.379,459.901L569.378,464.475L579.382,494.488C538.221,561.374 467.047,607.966 384.725,615.684L374.149,683.714C508.208,678.283 621.115,591.388 665.135,471.335L661.419,460.187L571.379,460.187ZM283.252,521.357C288.111,520.214 291.827,519.07 294.971,517.641C296.686,517.069 298.116,515.926 299.259,515.354C300.402,514.497 301.546,513.639 302.117,512.782C302.403,512.496 302.689,511.924 302.975,511.638C294.4,510.495 281.537,508.208 266.673,504.206C254.954,500.776 243.806,496.775 233.516,492.201C239.233,503.635 244.092,514.782 248.094,526.502C250.666,526.216 252.953,526.216 255.526,525.93C264.101,524.787 274.391,523.643 283.252,521.357ZM613.112,360.143L684,360.143L684,372.72L615.97,383.296L544.796,394.444C529.646,419.026 513.353,443.608 499.061,468.476C497.346,469.62 495.631,470.477 493.916,471.621C471.335,484.483 446.181,492.201 418.454,494.488C421.027,488.485 424.743,482.768 428.459,477.052C430.46,473.907 432.746,470.763 435.605,466.761C437.892,463.617 440.464,460.187 443.323,456.471C450.469,447.324 457.9,437.891 465.046,429.03C468.477,424.743 472.192,420.169 475.908,415.596L484.198,405.306C484.484,404.734 484.769,404.448 485.341,403.876C487.628,400.732 489.914,397.588 492.201,394.729C494.774,391.299 497.346,387.583 499.919,383.868C500.776,382.724 501.348,381.581 502.206,380.438C502.491,379.866 503.063,379.008 503.635,378.437L489.914,374.435C489.914,374.435 489.914,374.721 489.629,374.721C489.057,375.864 488.199,377.007 487.628,378.151C485.627,381.295 483.34,384.439 480.196,388.441C476.194,393.872 470.763,400.732 464.76,407.307C464.475,407.592 464.189,408.164 463.903,408.45C456.757,416.739 448.753,425.314 441.322,433.318C437.034,437.891 432.461,442.751 428.173,447.61C422.742,453.613 416.453,460.759 410.737,468.19C407.878,471.906 405.306,475.622 402.733,479.338C400.732,482.482 398.16,487.056 396.159,491.915C394.73,495.345 393.015,500.776 393.3,507.065C393.3,513.067 395.873,519.356 400.161,523.929C402.447,526.502 405.02,528.503 407.592,530.218C410.451,531.933 413.309,533.362 415.882,534.505C420.741,536.506 426.172,537.936 432.461,539.079C437.891,540.222 443.322,540.794 448.468,541.08C453.898,541.651 459.615,541.651 464.189,541.651L467.905,541.651C467.047,544.796 466.476,547.94 465.618,551.084L418.168,568.235L388.727,579.096L368.146,367.575L366.146,348.423L362.43,309.549L360.143,310.407L360.143,684.286C181.207,684.286 36,539.365 36,360.429L36,360.143L245.807,360.143L246.378,358.142L215.222,349.567L186.066,341.563L187.21,338.419C240.662,314.694 298.687,292.113 360.143,283.538C420.455,291.541 478.481,315.552 533.362,339.277L534.22,341.563L505.064,349.567L474.193,358.142L474.765,360.143L613.112,360.143L613.112,360.143ZM336.704,615.684L330.987,578.525L302.975,567.949L255.525,550.798L255.24,550.798C254.668,547.654 253.81,544.51 252.953,541.366L256.669,541.366C261.528,541.366 266.959,541.366 272.39,540.794C277.535,540.508 282.966,539.936 288.397,538.793C294.686,537.65 299.831,536.22 304.976,534.22C307.548,533.076 310.407,531.933 313.265,529.932C315.552,528.217 318.41,526.216 320.697,523.643C324.985,519.07 327.271,512.781 327.557,506.779C327.557,503.92 327.557,499.061 324.699,491.629C322.698,486.77 320.125,482.197 318.124,479.052C315.838,475.336 312.979,471.335 310.121,467.905C304.404,460.473 298.116,453.327 292.685,447.324C288.397,442.465 283.824,437.606 279.536,433.032C271.818,425.029 264.101,416.453 256.955,408.164C256.669,407.878 256.383,407.592 256.097,407.021C250.094,400.161 244.663,393.3 240.662,387.869C237.803,383.868 235.517,380.723 233.23,377.579C232.372,376.436 231.801,375.292 231.229,374.149C231.229,374.149 231.229,373.863 230.943,373.863L217.223,377.865C217.794,378.437 218.08,379.294 218.652,379.866C219.509,381.009 220.081,382.153 220.939,383.296C223.511,387.012 226.084,390.728 228.656,394.158C230.943,397.302 233.23,400.446 235.517,403.591C235.802,403.876 236.088,404.448 236.374,404.734L244.663,415.024C248.379,419.598 251.809,424.171 255.525,428.459C262.671,437.606 270.389,446.752 277.249,455.899C280.108,459.615 282.68,462.759 284.967,466.19C287.825,470.191 290.112,473.336 292.113,476.48C295.829,482.197 299.545,487.914 302.117,493.916C274.677,491.344 249.237,483.626 226.941,471.049C225.226,470.191 223.511,469.048 221.796,467.905C207.79,443.037 191.497,418.454 176.062,393.872L104.888,382.724C115.75,506.493 213.507,604.536 336.704,615.684Z" style="fill:rgb(10,34,64);fill-rule:nonzero;"/>
</svg>
