<?xml version="1.0" encoding="utf-8"?>
<!-- Generator: Adobe Illustrator 22.0.1, SVG Export Plug-In . SVG Version: 6.00 Build 0)  -->
<svg version="1.1" id="Layer_1" xmlns="http://www.w3.org/2000/svg" xmlns:xlink="http://www.w3.org/1999/xlink" x="0px" y="0px"
	 width="720px" height="720px" viewBox="0 0 720 720" style="enable-background:new 0 0 720 720;" xml:space="preserve">
<style type="text/css">
	.st0{fill:#FFFFFF;}
	.st1{fill:#FDB927;}
	.st2{fill:#31006F;}
</style>
<g>
	<path class="st0" d="M683.9983521,360.1336975h-44.6802979c20.8686523-45.4828796,17.3905029-58.860199,17.3905029-58.860199
		H646.274292c6.9561768-1.6053467,11.2368774-16.5879211,11.2368774-16.5879211l6.1536255-37.4565125H510.6279907
		c0,0-52.706604-87.7554474-165.6113892-87.7554474s-168.0193329,90.1634064-168.0193329,90.1634064l-25.4170074-0.0001373
		l-25.4169922,47.3558807h16.5879059l-7.7588196,19.2632751h-19.2633972l-34.2459488,63.1412048h13.9124069l-5.0833206,12.3071899
		H60.6143913l-17.6580505,32.3731995h14.9825554L36,463.4069214h137.519165c0,0,53.2418213,97.1194458,171.4974365,97.1194458
		s169.0896606-94.4439697,169.0896606-94.4439697c25.4168091,27.0222168,75.180542,11.236908,75.180542,11.236908
		C685.6036987,439.8626709,683.9983521,360.1336975,683.9983521,360.1336975z"/>
	<path class="st1" d="M346.6218262,184.355545c-96.5843964,0-174.9755554,79.4614105-174.9755554,177.3834991
		c0,98.1896362,78.3911591,177.6510315,174.9755554,177.6510315s174.975708-79.4613953,174.975708-177.6510315
		C521.5975342,263.8169556,443.2062378,184.355545,346.6218262,184.355545z"/>
	<path class="st2" d="M426.3507996,379.9321594c-16.3203735,20.0660095-25.4168701,26.7546997-42.0047913,26.7546997
		c-5.6184998,0-8.561554-1.337677-7.223877-4.0131836l19.7984924-39.5968018h7.491394
		c8.2938843,0,7.2237549,6.9562073,5.083313,16.5877686c-0.5350647,1.3377991,0.5350952,1.3377991,1.6053772,0.2675171
		l18.7281799-32.9082642c0.8026123-2.1402893-1.6052246-2.4078064-2.6755066-0.8026123
		c-9.3640137,12.5747375-19.2632446,11.7721252-23.5440979,11.7721252h-3.2105713l20.8687439-40.132019h8.5614319
		c10.7018433,0.5350647,15.5177612,9.6317139,12.5747375,31.5704651h4.2807007l15.5177612-30.5003052
		c1.337677-2.6755066-1.3377991-5.083313-4.2807007-5.083313l-104.878418,0.2675171
		c-6.1534729,0-6.4211426,4.5482483-0.5350952,4.5482483c4.815918,0,4.5482483,6.6886597,0.2675476,9.899231l-44.6802673,35.5837708
		l9.0966492,41.7372437c0.4672852,2.9407043,3.2051086,4.964386,6.1534424,4.5483704h86.6851807
		c2.5124512,0.2366638,4.9602966-0.8853455,6.4211121-2.9430237l15.5177612-27.0222168
		C434.1095886,376.4541931,429.2938232,376.7217407,426.3507996,379.9321594z M358.3939514,362.8092041h7.7588196
		c2.6754761,0,5.0834351,0.2675171,4.2807007,1.3377991l-20.0660095,38.5266724
		c-0.8872375,2.3388367-3.5024719,3.5153809-5.8412781,2.6281433c-1.3041992-0.4947815-2.3076782-1.5630493-2.7201538-2.8956909
		l-9.899231-51.368927l34.7810364-27.0222168c3.4780884-3.2105713,10.1667786-8.0264893,13.6448669-8.0264893h7.7589417
		c4.5482483,0,6.1534729,2.1404419,5.0833435,5.0834656l-1.337677,2.4078369
		c-0.8027649,1.6053467-3.7456665,1.8728638-5.8860779,1.8728638h-4.5482483
		c-0.38797-0.0553589-0.7472229,0.2140808-0.8027344,0.6018982c-0.0095215,0.0665588-0.0095215,0.1341858,0,0.2007141
		c0,0.5350647,0.2675171,1.070282,0.8027344,1.070282h4.5482483c1.8727417,0,4.0131836,0,3.2105713,1.337677l-16.0528259,31.0354004
		c-0.8026123,1.070282-4.2807312,1.3377991-7.2237549,1.3377991h-7.491272
		c-0.5741272,0.0389404-1.0312195,0.4960327-1.0701599,1.0701599
		C357.3237915,362.5416565,357.8588867,362.8092041,358.3939514,362.8092041z M293.9152222,405.8842468
		c-1.9160461-0.1828918-3.5687561-1.4223328-4.2808533-3.2105713c-0.8666992-2.6224365-0.7718506-5.4676208,0.2676697-8.0263367
		l40.3995667-71.7026367c0.5350647-1.337677,2.4078064-4.2807007,4.2807007-4.2807007
		c3.4780884,0,5.083313-4.5482483-0.8026123-4.5482483h-32.6407471c-5.8860474,0-5.8860474,4.5482483-0.2675171,4.5482483
		c1.4883118-0.1032715,2.7785034,1.0196533,2.8816528,2.5079956c0.0293884,0.4230652-0.0413818,0.8469543-0.2062988,1.2376404
		l-8.828949,16.3203735c-1.3378296,1.6052246-3.7456665,1.8727417-6.4211426,1.8727417h-7.491272
		c-0.5350952,0-1.070282,0.2676697-1.070282,0.8027649c0.0390625,0.5741272,0.4961548,1.0310669,1.070282,1.0701294h7.491272
		c2.1404114,0,3.745636,0.5352173,2.6754761,2.9430237l-29.9652405,54.5794983
		c-2.1404114,2.9431763-6.4211273,3.478241-6.1535797-2.1402893l10.4343109-79.7289429
		c0.5350647-2.407959,0-4.2808533-2.6755066-4.2808533h-16.0528259c-1.675705,0.0142822-3.2119293,0.9360962-4.0131836,2.407959
		l-5.8860626,6.9562073c-0.5350647,0.8027344-2.4078217,0.8027344-4.0131683,0.8027344H219.269577
		c-0.5741272,0.0389404-1.0312347,0.4960327-1.0701447,1.0701599c0,0.5350647,0.5350647,0.8026123,1.0701447,0.8026123h10.9693756
		c1.872879,0,4.0133057,0.5350647,3.2105713,1.6053467l-15.2500916,19.2632446
		c-0.883316,0.5452881-1.9052734,0.8239746-2.9430389,0.8027649h-4.2807007c-0.53508,0-1.070282,0.2675171-1.070282,0.8026123
		c0.0390472,0.5741272,0.4961548,1.0310669,1.070282,1.0701294h3.4780884c1.0701447,0,1.0701447,0.5350647,0.8026123,1.070282
		l-14.4474792,18.1931152c-1.1620026,0.5760498-2.4497375,0.8518677-3.745636,0.8026123h-12.8422699
		c-0.53508,0-0.8026123,0.5352173-0.8026123,1.070282c-0.0555115,0.3878174,0.2140656,0.7472229,0.6018982,0.8026123
		c0.0665436,0.0095215,0.1341705,0.0095215,0.2007141,0h10.9693756c1.8728943,0,2.9430389,0.2675171,2.1404266,1.6053467
		l-20.6010742,25.6843872c-3.7457733,5.0834656-22.4739685,7.491272-26.2196045,7.491272l69.8297119-130.2952576
		c1.1385956-2.2226257,3.3903351-3.655426,5.8859253-3.7456665h14.7151642c6.9562073,0,6.9562073-4.8157654,0.802597-4.8157654
		h-74.3779602c-6.153595,0-6.4211426,4.8157654,0.802597,4.8157654h13.6448822c4.0131683,0,5.0834503,2.1404419,4.0131683,4.2807312
		l-1.8727417,3.4780884c-0.53508,1.070282-1.6053619,1.6053467-5.3509979,1.6053467h-24.3467102
		c-0.53508,0-0.8026123,0.5350952-0.8026123,1.0701599c-0.0553894,0.38797,0.2140503,0.7472229,0.6020203,0.8026123
		c0.0665436,0.0095215,0.1340485,0.0095215,0.200592,0h24.3467102c1.337677,0,3.2105713,0.5351868,2.1404266,2.9430237
		l-3.4781036,6.1534729c-0.535202,1.0702515-2.1404266,1.3377991-3.745636,1.3377991h-11.2370605
		c-0.5350647,0-0.802597,0.5350647-0.802597,1.0701599c0,0.5350647,0.2675323,1.0701294,0.802597,1.0701294h10.9693909
		c1.6053467,0,1.872879,1.070282,0.8027344,2.407959l-7.7589417,14.4474792
		c-0.8026123,1.3378296-1.872757,1.6053467-4.5482483,1.6053467h-4.2807159c-0.5350647,0-1.0702667,0.2675476-1.0702667,0.8026123
		c0.0391846,0.5741272,0.4961395,1.0310974,1.0702667,1.070282h4.2807159c1.6053467,0,2.1404266,0.8026123,1.337677,2.4078369
		l-6.42099,12.0396423c-1.070282,1.6052246-2.407959,2.407959-6.6886749,2.407959h-24.3468552
		c-0.3878326-0.0553894-0.7472229,0.2140503-0.8026047,0.6020203c-0.0095291,0.0665588-0.0095291,0.1340637,0,0.200592
		c0,0.5350647,0.2675323,1.0701294,0.8026047,1.0701294h24.3468552c2.675354,0,3.745636,1.3378296,2.675354,3.2105713
		l-12.574585,23.5442505c-0.8027496,1.0701599-2.6755066,1.337677-6.153595,1.337677h-24.3468628
		c-0.5350723,0-1.0701447,0.2675476-1.0701447,0.8027649c0.0390549,0.5739746,0.4961548,1.0310669,1.0701447,1.0701294h24.0793152
		c2.9430389,0,4.8157806,0,4.0131836,1.6052246l-7.2237396,13.6448669
		c-1.3378143,2.1404114-5.0834579,2.1404114-6.6886749,2.1404114h-7.7589493
		c-0.3878326-0.0553589-0.7472229,0.2142029-0.8026047,0.6020508c-0.0095291,0.0665283-0.0095291,0.1340332,0,0.2005615
		c0,0.5350952,0.2675323,1.070282,0.8026047,1.070282h7.7589493c2.6754913,0,4.013176,0.5350647,3.4781036,1.8727722
		l-9.6316986,18.1932373c-1.0701447,1.6052246-4.815918,1.6052246-7.7588196,1.6052246H72.3863754
		c-0.5741272,0.0390625-1.0310822,0.4961548-1.070137,1.070282c0,0.5351868,0.5350647,0.8026123,1.070137,0.8026123h37.4566574
		c2.6753616,0,5.6183929,0.5350647,4.5482483,2.407959l-6.153595,11.5044556
		c-0.5350723,1.0701294-2.675499,1.0701294-5.8860626,1.0701294h-7.4912796
		c-0.5741272,0.0390625-1.0310898,0.4961548-1.0701447,1.070282c0,0.5350647,0.5350723,0.8026123,1.0701447,0.8026123h7.4912796
		c1.8728867,0,4.2808456,0.2675171,3.4781036,1.8727417l-4.013176,7.2237549
		c-0.9082108,2.14151-3.0250854,3.5175476-5.350853,3.478241H77.4698334c-6.9562073,0-6.6886673,4.815918-0.5350723,4.815918
		h110.7643509c3.2105713,0,3.4781036-0.5350952,4.8157806-2.9430542l16.5879059-28.6275635h84.0096588
		C298.9985352,410.4326172,297.6608582,405.8842468,293.9152222,405.8842468z M228.0986633,397.3226929
		c-0.8026123,4.5483704-5.6185303,7.7589417-11.5045929,9.3641663l-6.1534576,1.6053467l5.083313-9.0966187
		c1.3376923-2.6755066-1.6052094-4.0131836-4.8157806-0.2675476
		c-21.4038239,24.8817749-28.3600311,36.9214478-61.5358429,36.9214478h-8.828949
		c-2.6754913,0-5.6185303-1.070282-3.745636-3.4780884l11.7719879-21.9389038h44.4127197
		c5.8860626,0,4.5483856-4.5482483,0.8027496-4.5482483c-2.725174-0.4417114-5.1461945-1.9911499-6.6886749-4.2807007
		c-1.1311035-2.0191956-1.0275421-4.5032043,0.2675323-6.4211426l16.8554535-22.7415161h28.3598938L228.0986633,397.3226929z
		 M234.5197906,368.6952515h-27.5572815l34.7810211-46.0180664L234.5197906,368.6952515z M654.5681763,382.8753357
		c-0.5350952-2.1402893-1.3377075-0.8026123-2.6755371,1.8728943c-0.5350342,1.0701294-1.8727417,1.0701294-3.4780884,1.0701294
		h-4.2807007c-0.4871826,0.0239563-0.9109497,0.3417053-1.0702515,0.8026123
		c-0.0523071,0.5387573,0.3421021,1.0178833,0.8807983,1.070282c0.0630493,0.006134,0.1264648,0.006134,0.1894531,0h4.2807007
		c1.6053467,0,1.6053467,1.0701599,0.8026123,2.6755066c-2.6817627,5.9098816-6.1954956,11.4056396-10.4343262,16.3202209
		c-0.920166,0.9141846-2.182312,1.3995972-3.4780884,1.337677l-4.5482178,0.2675476
		c-0.5350952,0-1.0703125,0.2675171-1.0703125,0.8026123c0.0390625,0.5741272,0.4961548,1.0312195,1.0703125,1.070282h4.2807007
		c2.407959,0,0,1.337677-0.2675171,1.8727417c-5.348999,7.3120422-11.6469727,13.8800354-18.7282104,19.5309448
		c-2.0267944,0.3924561-4.1005249,0.482666-6.1536255,0.2675171h-4.5482178c-0.5352173,0-0.8027344,0.5350952-0.8027344,1.070282
		c-0.0554199,0.3878479,0.2140503,0.7472229,0.6019897,0.8026123c0.0665283,0.0095215,0.1340332,0.0095215,0.2007446,0
		l4.5482178,0.2675476c3.2105713,0,0.8026123,1.8728638,0.2675781,2.1404114
		c-12.0396729,10.1667786-30.2327881,13.3773499-38.2592773,12.3070679
		c-26.7546997-3.2105713-32.3731079-23.5441284-34.2459717-31.8380127c-0.9084473-2.3457642-1.6242676-4.7617493-2.1404419-7.223877
		c-0.8026123-4.2807007,11.2370605-5.3509827,14.4476318-3.2105713c5.083313,3.478241,16.8554688,6.9562073,26.2194824,6.9562073
		c8.5615234,0,25.9520874-6.153595,31.0355225-20.8685913c5.3508301-15.2502441-7.7587891-31.8381348-13.6448975-37.7240601
		c-7.2236938-7.223877-14.1799316-18.9958801-11.2368774-27.5574341c2.1402588-6.42099,5.8859253-9.3640137,13.6448364-9.3640137
		c10.4343262,0,17.6580811,6.42099,17.6580811,15.7851563c0,0.8027344-0.2675781,1.8728943-1.0703125,1.8728943h-3.4780884
		c-0.5740967,0.0389099-1.031189,0.4960022-1.0701294,1.0701294c0,0.5350647,0.5350342,0.8026123,1.0701294,0.8026123h3.2105713
		c0.7451782-0.0500793,1.3899536,0.5133057,1.4401245,1.2584839c0.0141602,0.2099609-0.0209351,0.4203491-0.1022949,0.6144104
		c-0.5350952,3.2105713-0.8026123,5.3509827-1.6053467,8.5614014c-0.2675781,1.8728943,2.407959,2.9430542,3.2105713,1.6053467
		l16.0527954-28.6275635c1.3378296-2.1402893-1.3376465-2.675354-3.2105713-2.1402893
		c-4.5482178,1.6052246-11.5044556,2.6755066-14.1799316,0.8026123c-5.5994873-4.5331421-12.5940552-6.9906311-19.7984619-6.9562073
		c-14.1799316,0-24.3467407,3.4781189-30.7678833,15.2500916c-0.5350342,0.8027649-1.8727417,0.8027649-2.9429932,0.8027649
		h-2.9430542c-0.5350342,0-0.8026123,0.5350647-0.8026123,1.0701294s0.2675781,1.0701599,0.8026123,1.0701599l2.407959-0.2675476
		c1.0701294,0,1.6052246,0.5350647,1.0701294,1.6053467c-0.2675171,1.0701599-0.8025513,2.1402893-1.0701294,3.2105713
		c-1.5219116,6.229126-1.0541992,12.7785645,1.3377075,18.7281799c0.2675171,0.2678223-0.2675781,0.5352173-1.3377075,0.5352173
		h-4.2807007c-0.5740967,0.0390625-1.03125,0.4961548-1.0702515,1.070282c0,0.5350647,0.5351563,0.8026123,1.0702515,0.8026123
		h4.2807007c2.1404419,0,2.407959,0.2675171,3.2105713,1.337677c2.407959,3.2105713,4.8157959,5.6185303,7.491272,9.3641663
		c1.0701294,1.070282-2.9429932,1.3377991-5.083313,1.3377991h-17.1229858
		c-0.5911255-0.0007935-1.0709229,0.4776611-1.0715942,1.0686646c-0.0008545,0.5910034,0.4776001,1.0708313,1.0686035,1.0716248
		c0.0009766,0,0.0018921,0,0.0029907,0h17.3905029c2.9430542,0,7.7588501-0.2675171,8.2938843,0.5350952
		c4.2808838,4.815918,9.3641968,12.3071899,10.1668091,18.728302c0.2675171,1.8727722-0.5350952,2.6755066-2.675354,2.6755066
		h-2.407959c-0.3878174-0.0553894-0.7472534,0.2140503-0.8026123,0.6018982c-0.0095215,0.0665283-0.0095215,0.1341553,0,0.2007141
		c0,0.5350647,0.2675171,1.0701294,0.8026123,1.0701294h2.1403809c1.8728027,0,2.675415,0.2675476,2.4078369,1.6053772
		c-2.4078369,7.223877-5.6183472,12.574707-19.5307617,12.3070374c-14.71521,0-17.6582031-14.1799316-13.3773804-29.1625061
		c0.8026123-2.9430237,0-4.2808228-1.3378296-1.8728638l-10.166748,16.0528259
		c-0.7005615,0.7187805-1.6724243,1.1075745-2.6754761,1.0701294h-1.3377075
		c-0.5910034-0.0007935-1.0708008,0.4776611-1.0716553,1.0687866c-0.0007935,0.5910034,0.4776611,1.0708313,1.0686646,1.0716553
		c0.0009766,0,0.0020752,0,0.0029907,0c1.0701294,0,1.6052246,0.5350647,1.0701294,1.337677l-3.7456055,5.6185303
		c-5.7567749-13.2786865-13.0286865-25.8475647-21.6713562-37.456665v-0.2675476
		c13.6448669-0.8026123,33.4433289-13.3773193,36.6539001-24.6142578
		c5.6185303-19.7984619-13.3773193-27.0221863-23.8116455-27.0221863h-45.4828796
		c-6.153595,0-6.4211121,4.8157654-0.8025818,4.8157654c3.2105408,0,5.8859253,2.6755066,4.5482483,5.3509827
		l-10.1667786,18.1931458c-0.8026123,1.6053467-3.745636,1.6053467-8.0264893,1.6053467h-4.2807007
		c-0.5350952,0-1.0701599,0.2675171-1.0701599,0.8026123c0.0390625,0.5741272,0.4960327,1.0312195,1.0701599,1.0701294h4.2807007
		c2.9430237,0,6.153595,0,5.0834656,2.1404114l-12.0396729,21.6712341c-0.5350647,1.070282-2.1402893,1.070282-6.1534729,1.070282
		h-4.2808228c-0.5741272,0.0390625-1.0310974,0.4960022-1.0701599,1.0701294c0,0.5350952,0.5350647,0.8026123,1.0701599,0.8026123
		h4.2807007c3.2105713,0,4.2808533,0.5352173,3.4780884,2.1404419l-16.0526733,28.8950806
		c-1.8728943,2.1402893-4.0133362,2.4078369-8.0264893,2.4078369c-5.8860779,0-5.6185303,4.5483704,0.2675171,4.5483704h39.0618896
		c6.153595,0,4.5482483-4.5483704,1.0701294-4.5483704c-2.1404114,0-4.2807007-4.0131836-2.9430237-6.1534729l19.7984619-37.9917297
		h2.1404419c8.829071,0,10.9693604,14.7151489,12.5747375,30.5003357c0.2675171,1.070282-1.8728943,1.3377991-6.4211426,1.3377991
		h-10.9695129c-0.5350952,0-1.0701599,0.2675476-1.0701599,0.8026123c0.0390625,0.5741272,0.4960327,1.0312195,1.0701599,1.0701294
		h10.9695129c2.9430237,0,6.9562073,0,6.9562073,1.070282c0.5135498,6.2024536,1.407074,12.3676147,2.675354,18.4606628
		c0.5352173,1.8728943-2.675354,1.6053467-5.8859253,1.6053467h-14.1800842
		c-0.5741272,0.0389404-1.0310974,0.4960327-1.0701599,1.0701599c0,0.5350647,0.5350952,0.8026123,1.0701599,0.8026123h14.1800842
		c4.2807007,0,6.6886597,0,6.9562073,1.070282c5.8859253,22.2062683,32.1055298,39.8644714,57.2550049,38.7941895
		c21.9387207-0.8026123,40.132019-12.5747375,49.4961548-20.3335571
		c12.5747681-9.899231,31.0354004-31.0353699,38.5266724-46.285614
		C652.9629517,389.0288086,655.1032104,385.2831726,654.5681763,382.8753357z M508.4877014,353.1774902
		c-2.9430237,2.6755066-7.7589417,5.3509827-8.829071,4.5484009c-2.3003235-1.9677429-4.8129272-3.6728516-7.4913025-5.0834656
		l18.1931458-33.1758118c0.7674866-1.1438904,2.1096802-1.7633362,3.4780884-1.6052246
		c7.2237549,0,9.3641357,7.491272,6.1536255,17.1229858C517.5842285,341.6730347,513.838562,348.8967896,508.4877014,353.1774902z
		 M258.8665161,290.8391724c1.0238647-0.1091309,1.9738464-0.584198,2.6755066-1.3377991l8.5614014-16.8554382
		c0.5352173-1.337677,0.5352173-2.6755066-0.8026123-2.6755066c-1.337677,0-0.8025818-2.4078064,0.5350952-2.4078064h14.982666
		c1.6052246,0,1.8727722,2.4078064,0.5350952,2.4078064c-1.1253967-0.0205383-2.1641235,0.6025696-2.6755066,1.6053467
		l-9.6317139,18.9958801h1.6053772c5.3105469,0.3674011,10.4781189-1.8188782,13.912384-5.8860779
		c0.8026123-1.0701294,2.1404419-0.8026123,1.6052246,0l-5.083313,7.491272
		c-0.2675476,0.8024902-0.8026123,1.337677-2.6755066,1.337677h-24.0791626
		C256.7262268,293.5145264,257.5288391,291.3742676,258.8665161,290.8391724z M329.2313232,290.3041077l3.4780884-6.6886597
		c0.5350647-0.8027649,1.8728943-1.070282,2.1404419,0.2675171c0.5350647,3.745636,4.5482178,5.6182556,7.2237244,5.8859253
		c2.1402893,0,4.2807007-0.2675171,5.083313-2.1402893c1.070282-2.6754761-1.6051941-4.0131531-4.0131531-5.0834351
		c-4.8157959-2.1402893-6.9562073-6.153595-5.0833435-10.7018433c2.6753845-5.3509827,6.6886902-6.4211426,12.3070679-6.4211426
		c2.7923889,0.1136169,5.4900818,1.0438843,7.7589417,2.6755066c0.9649658,0.6711426,2.245636,0.6711426,3.2105713,0
		c0.5350647-0.2675476,1.8727417,0.5350647,1.337677,1.337677l-1.6053467,4.2807007
		c-0.1354065,0.2128296-0.3435974,0.3690491-0.5858154,0.4395447c-0.5505981,0.1601563-1.12677-0.1563416-1.2869263-0.7069397
		c-0.9162292-2.4179077-3.0627747-4.1555176-5.6185303-4.5482483c-1.337677-0.2675476-3.745636-0.5350647-4.5482483,1.0701599
		c-1.337677,2.4078064,1.0701294,4.8157654,4.0131836,6.1534424c5.0834351,2.407959,6.9562073,6.9562073,4.0131531,11.5045776
		c-2.6244507,4.362793-7.5016174,6.8533325-12.574585,6.4211426c-3.1713867-0.288208-6.2134705-1.3944092-8.8291016-3.2105713
		c-1.6064148-0.8249207-3.5638123-0.4987183-4.815918,0.8026123
		C330.033905,292.1768494,328.696228,291.3742676,329.2313232,290.3041077z M488.4216919,291.3742676
		c1.6052246,0,2.4078369-0.5350952,3.745636-2.1404419l8.5614319-15.5176086
		c1.070282-1.8728943,0.5350647-4.0133362-1.337677-4.0133362c-0.8026123,0-1.337677-2.1402588,0.5350647-2.1402588h28.3600464
		c2.4078369,0,4.0131836,1.8727417,2.9429932,3.4780884l-2.1403809,4.0131836
		c-0.2675781,0.8026123-2.1404419,0.2675171-2.407959-0.267395c-1.0897827-3.0523071-3.9828491-5.0882263-7.2237549-5.0834656
		h-5.3510132l-4.8157654,9.6315613h0.8026123c1.337677,0,7.2237244,0.5350647,8.561554-1.8727417
		c0.5350952-0.5350952,1.8727417-0.5350952,1.3377075,0.5350647l-3.2105713,6.6886597
		c-0.0568848,0.0691223-0.1203003,0.1325378-0.1894531,0.1894226c-0.5911255,0.4865112-1.4644775,0.4015808-1.9509888-0.1894226
		c-0.5350952-1.8728943-3.4781189-1.8728943-6.1534729-1.8728943h-0.8027344l-3.745636,8.8291016h3.2105713
		c5.1935425,0.4592896,10.3403931-1.2886963,14.1800537-4.815918c0.5350952-0.5350647,2.675354-0.5350647,1.6052246,0.5352173
		l-4.0131836,5.083313c-0.2675171,0.8024597-0.8026123,1.0701294-1.8728638,1.0701294h-28.6274414
		C486.2812805,293.5145264,486.8164978,291.3742676,488.4216919,291.3742676z M370.4335938,293.5145264h12.3070679
		c2.407959,0,1.8728943-2.9428711,0.8027649-2.9428711c-1.2780762,0.0189209-2.3293152-1.0019836-2.3480835-2.2799072
		c-0.0098267-0.6570129,0.2603149-1.2872009,0.7427063-1.7332764l3.745636-3.4779663h7.4913025
		c4.2808228,0,7.491394,5.0834656,4.815918,6.6886597l-2.1404419,1.0701599c-0.8026123,0.5351868-1.337677,2.6754761,0,2.6754761
		h24.0791931c1.8728943,0,1.6053467-2.4078064,0.8027344-2.4078064c-2.6754761,0-1.3377991-3.478241-0.8027344-4.2808533
		l6.153595-12.0395203l8.8291016,17.1229858c0.8026123,1.0701294,1.337677,1.6051941,2.1404114,1.6051941h3.4781189
		c0.8669739,0.0709229,1.6586914-0.4945068,1.8727417-1.337677l10.1667786-18.4607849
		c1.6053467-3.2104187,2.9430237-4.013031,5.0834351-4.013031c0.8026123-0.0002747,1.337677-2.140686-0.8027344-2.140686h-9.899231
		c-2.1404419,0-1.6052246,2.1402588-0.5350647,2.1402588c1.7606201,0.0366211,3.1581726,1.4934998,3.1217041,3.2539978
		c-0.0114441,0.5504456-0.1652222,1.088501-0.446228,1.5619202l-4.0133057,7.4913025l-9.0964966-13.3773499
		c-0.9484863-0.8698425-2.1913147-1.3479004-3.4780884-1.337677h-9.899231c-1.8728943,0-1.6053772,2.1402893-0.5350952,2.1402893
		c1.8727722,0,1.337677,1.6053467,0.8026123,2.6754761l-7.7588196,15.2502441
		c-0.4184265,0.8578491-1.453064,1.2139893-2.3109131,0.7956543c-0.43573-0.2125549-0.762207-0.5983276-0.8996582-1.0632019
		l-6.153595-19.7984619c-0.2675171-0.8027344-3.745636-0.8027344-4.815918,0l-15.2500916,12.574585h-7.7587891
		c-1.6053467,0-2.407959,0.8027649-2.407959,1.6053467c0,0.8026123,0.8026123,1.6052246,2.407959,1.6052246h4.0131531
		l-4.0131531,3.4781189c-2.407959,1.6053467-4.815918,4.0133057-6.153595,4.0133057h-1.0701599
		c-1.6053467,0-2.407959,0.2675171-2.407959,1.337677C368.2931824,293.2470093,369.0957947,293.5145264,370.4335938,293.5145264z
		 M399.0610352,272.3783875v7.491272h-9.3641663L399.0610352,272.3783875z M305.3780212,294.8187561
		c1.0670166,0.236908,2.1597595,0.3381653,3.2521973,0.3011475c9.0966492,0,17.3905334-5.8860779,18.9957275-14.4474792
		c1.6053772-8.5615845-4.5482178-14.4476318-13.3771973-14.4476318c-8.2940063,0-17.1231079,4.2808533-18.7283325,13.1098022
		C293.9666443,286.3325806,298.3800354,293.2649536,305.3780212,294.8187561z M306.4898071,277.4619751
		c2.6755066-5.3509827,6.9562073-8.561554,9.899231-7.223877c2.9430237,1.6052246,2.9430237,6.9562073,0.2675476,12.3070679
		c-2.675354,5.3509827-7.2237549,8.561554-9.899231,7.223877
		C303.8143005,288.431366,303.5467834,282.8128357,306.4898071,277.4619751z M456.31604,276.6590881
		c3.7814331-7.1842651,11.4282532-11.4790039,19.5309143-10.9693604c3.7010193,0.1273499,7.3018799,1.2353516,10.4343262,3.2105713
		c1.0701294,0.8025818,2.407959-0.2675476,3.2105713,0c0.8026123,0,1.0701294,0.5349121,0.8026123,1.0701294l-2.407959,4.5483704
		c-0.5350952,0.8026123-1.6052246,0.8026123-1.8727722,0c-0.2675171-3.2105408-3.2105713-4.0131531-6.6886597-4.0131531
		c-5.1800842,0.0263977-9.8754272,3.0523071-12.0396729,7.7588196c-2.9430237,6.153595-1.337677,10.9693604,2.6755066,10.9693604
		s5.8860474-1.6052246,5.8860474-5.8860474c0.0148621-0.1287537,0.0148621-0.2588501,0-0.3875732
		c-0.1070862-0.9273987-0.9454651-1.5922852-1.8728638-1.485199c-0.8026123,0-1.337677-2.1404114,0.8027344-2.1404114h10.7018433
		c2.4078369,0,2.6755066,0.8027344,2.1404114,1.8728943l-4.2808228,10.1667786
		c-0.2675476,0.8025818-0.5350952,2.1402588-1.6052246,2.1402588h-1.0701599
		c-0.8221741-0.0765991-1.5858765-0.4584351-2.1404114-1.0701294l-2.6755066-1.8727417
		c-2.407959,1.0701294-6.9561768,3.745636-10.7018433,3.745636
		C458.4564514,294.3172913,451.2327271,285.2206421,456.31604,276.6590881z M608.0150146,283.8829651
		c0.5350342,3.745636,4.5482178,5.6182556,7.2237549,5.8859253c2.1403809,0,4.2808228-0.2675171,5.0834351-2.1402893
		c1.0701294-2.6754761-1.6053467-4.0131531-3.7456665-5.0834351c-5.0834351-2.1402893-7.2236938-6.153595-5.3509521-10.7018433
		c2.6754761-5.3509827,6.6886597-6.4211426,12.3071899-6.4211426c2.7922363,0.1136169,5.4899292,1.0438843,7.7587891,2.6755066
		c0.9649658,0.6711426,2.2456055,0.6711426,3.2105713,0c0.5350952-0.2675476,1.8729248,0.5350647,1.3378296,1.337677
		l-1.6053467,4.2807007c-0.135437,0.2128296-0.3436279,0.368927-0.5856934,0.4394226
		c-0.5505981,0.1602783-1.1268921-0.1562195-1.2870483-0.7068176c-0.9162598-2.4179077-3.0628052-4.1556396-5.6185303-4.5482483
		c-1.3377075-0.2675476-3.7456665-0.5350647-4.5482788,1.0701599c-1.0702515,2.4078064,1.0701904,4.8157654,4.0131836,6.1534424
		c5.3508911,2.407959,6.9562378,6.9562073,4.0131836,11.5045776c-2.9430542,4.8157959-6.9563599,6.4211426-12.574707,6.4211426
		c-3.1712646-0.288208-6.213501-1.3944092-8.8291016-3.2105713c-1.6064453-0.8249207-3.5637207-0.4985962-4.8157959,0.8026123
		c-0.8026123,0.5350647-2.1404419-0.2675171-1.6052246-1.337677l3.4780884-6.6886597
		C606.40979,282.8126831,607.7474976,282.545166,608.0150146,283.8829651z M540.5932617,272.6459351
		c0.5350342-1.337677,0.2675171-2.6755066-1.0701904-2.6755066c-1.0701294,0-0.8026123-2.4078064,0.5350952-2.4078064h15.2502441
		c1.6052246,0,1.6052246,2.4078064,0.5350342,2.4078064c-1.1595459-0.1662903-2.2766113,0.5039063-2.6754761,1.6053467
		l-9.6317139,18.9958801h1.3378296c5.6184082,0,10.4343262-1.3378296,14.1799316-5.8860779
		c0.5350952-1.0701294,2.1403198-0.8026123,1.3377075,0l-4.8157959,7.491272
		c-0.5352173,0.8024902-1.0702515,1.337677-2.9430542,1.337677h-24.0792847c-1.3377075,0-0.5350952-2.1402588,0.8027344-2.675354
		c0.9480591-0.1092529,1.814209-0.5904541,2.4078369-1.3377991L540.5932617,272.6459351z M564.1373291,291.3742676
		c1.6294556,0.0782471,3.1704712-0.7436829,4.0131836-2.1404419l8.2940063-15.5177612
		c1.3377075-1.8726196,0.8026123-4.013031-1.0701294-4.013031c-0.8027344,0-1.6053467-2.1402893,0.5350952-2.1402893h28.3598633
		c2.407959,0,3.7456665,1.8727417,2.9430542,3.4780884l-2.1403198,4.0131836
		c-0.5351563,0.8026123-2.1403809,0.2675476-2.407959-0.2675171c-1.2203369-2.9504089-4.034668-4.9307861-7.2236938-5.0834656
		l-5.3510132-0.0001526l-5.0834351,9.6315918h0.8026123c1.6053467,0,7.491394,0.5350647,8.8291016-1.8727722
		c0.2675171-0.5351868,1.8728638-0.5351868,1.3377686,0.5350647l-3.4780884,6.6886902
		c-0.0843506,0.1288757-0.194458,0.2389526-0.3234863,0.3233337c-0.5170898,0.338562-1.2108154,0.1937561-1.5493774-0.3233337
		c-0.8026123-1.8728943-3.7456665-1.8728943-6.1536255-1.8728943h-0.8026123l-4.0131836,8.8291016h3.4781494
		c5.1165161,0.4890747,10.1931763-1.26828,13.9124146-4.815918c0.8025513-0.5349426,2.6754761-0.5349426,1.8728638,0.5351868
		l-4.0133057,5.0834656c-0.2675171,0.8026123-0.8026123,1.0701294-2.1403198,1.0701294h-28.6275635
		C562.2645874,293.5145264,562.7996826,291.3742676,564.1373291,291.3742676z"/>
	<path d="M206.1597748,255.5229492c1.3378143,0.8026123,3.745636-1.872757,5.8860474-4.8157806
		c10.7018433-14.1800842,24.8817902-28.0924988,39.5969543-36.3863831
		c4.548233,0.8026123,10.9693756,7.2237396,13.3773346,10.4343109
		c-10.7211609,6.669754-21.0807648,13.9037018-31.0353851,21.6712189c-5.0834503,4.0133209-6.6886749,6.153595-5.3509979,7.7589569
		c1.0701447,1.337677,5.0834656-1.070282,8.2940216-3.745636c9.7511902-7.7532349,20.0322723-14.8158569,30.767868-21.1362915
		c5.8860474,6.6886597,4.0131531,18.9958649,1.8727417,21.4038239c-1.0701294,1.6052094-1.0701294,2.9430237,0,3.745636
		c1.3378296,0.8026123,2.407959-1.070282,4.0133057-3.4781036c4.0131836-5.6185303,2.4078369-18.9958649-0.8027344-23.8116455
		c10.1667786-6.4211273,24.6143799-10.7019806,33.4433289-12.5747375
		c0.8027649,1.3376923,11.5046082,32.6407471,13.6448975,38.25914c1.070282,3.210556,2.1404114,6.956192,4.5483704,6.1535797
		c1.337677-0.2675171,0.5350647-3.7456207-0.8027344-7.2237244c-1.6052246-4.2807159-9.6315613-30.5003204-12.3070679-38.2592621
		c2.9430237-1.6052246,20.6010742-5.0833282,25.1493225-5.0833282
		c-2.1402893,11.5044556,5.8860779,16.3203735,14.9826965,22.2064362
		c4.8157959,3.2105713,35.8513184,20.8686218,42.2723083,24.8817902c3.745636,2.407959,6.6886597,3.745636,7.491394,2.6755066
		c0.8026123-1.0701599-1.6053467-3.7456512-5.0834351-5.6185455c-2.6755066-1.6052094-31.5704651-18.4606476-43.6101379-25.9520569
		c-8.5614014-5.6183929-13.1098022-11.2369232-11.236908-18.9957428c2.9430237-0.8027344,11.5044556-0.8027344,20.6010742-0.8027344
		c61.5358582,0.535202,110.7643738,35.5837708,116.1153564,41.4698334c2.9430237,2.6754913,6.6886597,5.083313,8.2938843,4.0131683
		c0.8026123-0.802597-0.8026123-4.0131683-2.1404419-5.3508453c-2.1402588-2.6755066-5.083313-8.0264893-26.4871216-26.7546844
		c-31.8380127-27.5574188-73.8428955-40.132019-113.1721802-40.132019c-28.8951111,0-54.3121033,6.4210052-82.6719971,21.9387665
		c-35.8513031,19.7984619-50.5663147,42.539978-54.3119507,47.0882111
		C204.8220825,252.5799103,204.5545502,254.4528046,206.1597748,255.5229492z M355.9859924,185.693222
		c8.6298523,0.4251251,17.2155151,1.4982605,25.6845398,3.2105713
		c23.8116455,4.5483856,60.7330933,19.2633972,76.7859192,40.3995514
		c-21.4038086-14.1799469-56.4523926-25.1493225-81.3343201-27.0222168
		c-13.3773193-0.8026123-24.3467102-1.337677-33.7108765-0.2675323
		C346.0418396,195.5319061,350.3892517,189.8895569,355.9859924,185.693222z M348.4947205,185.6933594
		c-3.745636,2.9428864-9.899231,13.9124146-11.2370605,17.1229706c-9.3789978,1.0649719-18.6751099,2.7634125-27.8248291,5.0834656
		c-1.337677-3.4781036-4.8157654-14.1800842-6.153595-17.6581879
		C317.9802551,186.1522217,333.2737427,184.6138306,348.4947205,185.6933594z M297.9283752,191.5792847
		c1.3377075,2.6754913,5.3508606,13.3773346,6.6886902,17.6580505c-7.7589417,1.6053467-28.0924988,9.0966339-34.5136414,13.3773346
		c-1.6051941-2.6754913-9.3640137-9.899231-13.6448669-11.236908
		C266.3577881,203.8864746,289.0993042,193.452179,297.9283752,191.5792847z M497.5181885,456.9857788
		c-16.0527039,29.6975708-48.6934204,59.6628418-86.1499634,74.1104126
		c-43.0750427,16.5879517-90.9658813,17.6580811-134.8436584-1.8727417
		c-37.9915924-16.8554077-67.4217682-47.623291-79.4612885-69.2946472c-1.3378143-2.675354-2.6754913-5.083313-1.6053619-5.8860474
		c2.1404266-1.337677,3.7456512,1.8728638,5.0834656,4.2808228c8.2938843,13.3773499,24.8817902,31.5704651,44.1451874,46.0179443
		c19.4038239,14.4242249,41.658432,24.5481262,65.2813568,29.6976013
		c-6.1536255-7.491272-27.2897644-35.048584-39.3292847-58.3251648
		c-8.0686646-15.5618286-14.6095581-31.8692932-19.5309448-48.693573c-1.3378143-4.2807007-2.6754913-7.491272-0.5350647-7.7587891
		c2.1402893-0.5350952,3.2105713,2.407959,4.0131683,6.4211121c1.872757,8.2938843,9.0965118,27.8248291,19.7984772,49.2286377
		c9.0964966,17.9255981,33.1758118,51.9040222,43.6101074,60.4657288
		c9.0964966,2.1403809,27.0222168,2.6754761,42.2723083,2.1403809c16.8554382-0.5351563,41.4698486-7.491394,47.3557739-10.4344482
		c-1.0701599-3.2105103-31.3029175-97.9220581-31.8380127-100.8650818
		c-0.8026123-2.9430237-1.6053467-4.8157959-0.2675171-5.3509827c1.0701294-0.2675476,2.1404114,0.5350647,2.9430237,4.0133057
		c0.8026123,2.4078064,26.2196045,82.1367798,32.9082642,100.8651123
		c18.3915405-7.1640015,35.3400574-17.5868835,50.03125-30.7678528
		c17.6580505-16.0528259,25.4168701-26.4871521,32.640625-38.794342c2.1404114-3.745636,4.0133057-7.7588196,5.6185303-6.6886597
		C501.5314941,450.5646362,499.9261475,452.9725952,497.5181885,456.9857788z"/>
</g>
</svg>
