<?xml version="1.0" encoding="utf-8"?>
<!-- Generator: Adobe Illustrator 22.0.1, SVG Export Plug-In . SVG Version: 6.00 Build 0)  -->
<svg version="1.1" id="Layer_1" xmlns="http://www.w3.org/2000/svg" xmlns:xlink="http://www.w3.org/1999/xlink" x="0px" y="0px"
	 width="720px" height="720px" viewBox="0 0 720 720" style="enable-background:new 0 0 720 720;" xml:space="preserve">
<style type="text/css">
	.st0{fill:#707271;}
	.st1{fill:#12173F;}
	.st2{fill:#5D76A9;}
	.st3{fill:#FFBB22;}
</style>
<g>
	<path class="st0" d="M636.2894287,195.0392761c7.4238281-13.4532623,11.3961792-28.5373993,11.5611572-43.902298
		c-0.6871948-31.7866745-16.9312744-61.2121124-43.4633789-78.7313919
		c-35.4145508-23.9996414-88.3897095-27.3654938-125.9992676,17.5609131
		c-40.0300903-5.1359406-80.7091064-0.0512619-118.2431946,14.7804947
		c-37.5307007-14.8450241-78.2133484-19.9304886-118.243454-14.7804947
		c-37.6095428-44.9264069-90.7312317-41.5605545-125.9992828-17.5606537
		c-26.5804901,17.4742661-42.83992,46.9272842-43.4633408,78.7311325
		c0.2359924,15.3552704,4.2036667,30.4225006,11.5608749,43.902298C55.6094093,235.8681641,36,284.4533997,36,333.7702942
		c0,59.4141846,25.4632225,90.1457825,34.9753418,103.3164673l7.6095886-7.6098633
		c26.9268112,68.4876404,72.877594,105.365509,128.4872437,138.877533c0,0,1.1708679-6.7316895,2.3414764-12.8779907
		c59.8533783,51.8046265,88.3897552,39.072876,150.58461,109.4627686
		c62.0483704-70.097168,91.3166504-58.0971069,150.5845947-109.4627686
		c1.1706238,6.000061,2.3414612,12.8779907,2.3414612,12.8779907
		c24.7315674-14.9267578,94.5363159-52.3900146,128.4872437-138.8772583l7.6096191,7.6095886
		c5.8535156-8.0485229,34.9755859-40.536438,34.9755859-103.3164673
		C684.2892456,284.4533997,664.6795654,236.0146484,636.2894287,195.0392761z"/>
	<path class="st1" d="M619.1677246,195.9174194c57.072998-87.6583481-72.4386597-178.8285065-135.0724487-90.5849915
		c-41.92276-6.8591919-84.9325867-1.578064-123.950531,15.2194443
		c-39.0179443-16.7977676-82.0280457-22.0786362-123.9507904-15.2194443
		c-62.7802887-88.243515-192.1454163,2.9266434-135.0724487,90.5849915
		c-64.9752808,89.2676392-58.536293,177.3649292-28.3901215,218.7792664l12.4390182-12.4390259
		c0,0,17.7071457,86.0482788,111.3652725,142.6822815l3.3658447-18.5852661
		c57.6581421,61.609436,110.3409119,60.145813,160.0967407,116.4871216
		c49.7558289-56.1948242,102.4385681-54.8776855,160.0967102-116.4871216l3.3658447,18.5852661
		c93.6581421-56.4875183,111.3652954-142.6822815,111.3652954-142.6822815l12.4390259,12.4390259
		C677.8502197,373.1358643,684.2892456,285.331543,619.1677246,195.9174194z"/>
	<path class="st2" d="M360.7299194,541.5740967c-59.4141846,0.1462402-51.6583557-13.1706543-51.6583557-13.1706543
		c6.7316895-4.0975342,51.6583557-4.8292236,51.6583557-4.8292236c16.385376-0.2562866,32.7296143,1.7128906,48.5852356,5.8535767
		C408.8761902,531.0375977,417.2174683,541.2813721,360.7299194,541.5740967z M303.949646,518.8915405
		c13.1217957-3.2141113,26.4100647-5.7057495,39.8047791-7.4633484l16.3903198-0.8781433V486.403656
		c0-1.9025269-13.4634094-20.0488586-23.8536682-28.9755554c-7.4633789-6.4389954-14.487793,13.9023438-14.487793,13.9023438
		c-43.9022827-55.609375,38.3414612-49.1704102,38.4871826-49.3166199V320.5993347c0,0-22.8293152,4.8294373-51.072937-18.8777466
		c-2.6339417-2.1952515-5.4146118-4.5367126-8.4877625-6.8781738c-10.7404785-8.5907898-22.3096924-16.0913696-34.536377-22.3901062
		c-5.4104614-3.1363525-11.6053772-4.6595154-17.8533783-4.3902283c0,0,6.7317047,49.7558594,48.146286,40.8291626
		C285.3643799,336.9896545,262.0961304,415.2821045,303.949646,518.8915405z M360.4371948,422.1600342
		c8.7804565,0.4389343,74.9263611,0.8781433,38.4877014,49.1704102
		C451.3149109,418.2087402,365.8518066,421.2818909,360.4371948,422.1600342z M421.9003906,295.2826233
		c-0.7316589,0.7319031-1.3170776,1.1708679-1.9022522,1.7562866c-6.4876404,5.538208-13.3853455,10.5768127-20.6340637,15.0729675
		c6.0968323,0.3241882,12.2090149,0.2263489,18.2923279-0.2927246
		c16.2438354,29.999939,39.9509888,110.6338501,2.9269104,207.8040771
		c0.4389343-0.439209,60.1461182-82.0972595,13.0242004-208.9747009h0.0002441
		c37.1703491-0.5854187,41.5608215-42.4389648,41.5608215-42.4389648
		c-6.1636963,0.7665405-12.209259,2.2902222-18.0001221,4.5367432
		C444.1851196,278.1382751,432.2482605,285.7660828,421.9003906,295.2826233z M452.924469,195.0392761
		c-16.2438354,17.8536224-21.2192383,51.219162-21.2192383,51.219162s35.7070007-15.5119019,59.9996338-10.682724
		c16.7850037,3.1654968,32.821991,9.4710083,47.268158,18.5852814c0,0-45.3656311-14.1950531-87.8045959,2.1949921
		c-42.4387207,16.5365295-53.853363,58.2435913-82.5359497,39.8047791l-8.6342163-117.8042603l-7.9025574,117.8042603
		c-28.6825867,18.4388123-40.0972595-23.4144592-82.5359497-39.8047791
		c-42.4389648-16.3900452-87.6580811-2.1949921-87.6580811-2.1949921c15.634964-1.1060791,31.3042755,1.6059113,45.6583252,7.902298
		c5.1218872,46.09729,32.4876404,50.1947937,32.4876404,50.1947937
		c-28.0976715,106.097168,28.6825867,207.3648987,37.6095276,222.8770447
		c13.1706848,22.8290405,62.4873047,18.7315063,62.4873047,18.7315063v51.0731812
		c-1.1705933-9.2196655-38.9266052-27.9511719-45.6583252-31.1707764
		c-71.1215363-31.024353-131.7065887-104.0484009-131.7065887-104.0484009l-3.5123444,26.3413696
		c-57.9508591-33.8047485-80.4874344-141.2187195-80.4874344-141.2187195l-15.8046188,19.6096497
		c-29.414505-98.4872742,48.8776855-178.2430573,48.8776855-178.2430573
		c-8.195015-14.487793-32.9265823-69.8044586,14.3412933-93.8043594
		c47.2681427-23.9999008,80.7801666,34.2436752,80.7801666,34.2436752
		c57.5119019-15.0729523,133.170166,11.561142,133.170166,11.561142c80.4871826-34.8291168,134.48703-9.5123901,134.48703-9.5123901
		c37.6095276-64.2433548,91.7555847-28.682579,91.7555847-28.682579
		c-58.9752197-11.5611343-78.1459656,36.4386673-78.1459656,36.4386673
		C498.5827942,176.3074951,466.9732971,179.6733398,452.924469,195.0392761z M210.5842438,143.2346802
		c0,0-35.5605011-44.6339493-64.9752808-15.3656769c0,0,23.7071838-0.8781509,34.9756012,12.8779755
		c0,0-29.7072144-12.7317505-42.8778992,13.1704254c0,0,14.6340027-7.4633636,22.9755249,1.1708679
		c0,0-20.3413391,15.8046112-18.5852966,31.9022064C142.0968933,186.9904785,178.974762,150.4053192,210.5842438,143.2346802z"/>
	<path class="st3" d="M266.1939087,272.5997925c12.2267151,6.2987671,23.7958984,13.7990723,34.536377,22.3901062
		c-4.5367126-1.4633179-12.000061,3.2196045-16.2438049,11.4146423
		C270.4376526,302.3070374,265.6084595,287.0875854,266.1939087,272.5997925z M457.168457,272.7463074
		c-12.9836121,5.3916931-24.9204712,13.0195007-35.2680664,22.5363159
		c4.5364685-2.1950073,12.5852661,2.4877014,16.9754944,11.1219177
		C452.924469,302.4532471,457.7539063,287.2338257,457.168457,272.7463074z"/>
</g>
</svg>
