<?xml version="1.0" encoding="utf-8"?>
<!-- Generator: Adobe Illustrator 22.0.1, SVG Export Plug-In . SVG Version: 6.00 Build 0)  -->
<svg version="1.1" id="Layer_1" xmlns="http://www.w3.org/2000/svg" xmlns:xlink="http://www.w3.org/1999/xlink" x="0px" y="0px"
	 width="720px" height="720px" viewBox="0 0 720 720" style="enable-background:new 0 0 720 720;" xml:space="preserve">
<style type="text/css">
	.st0{fill:#98002E;}
	.st1{fill:#F9A01B;}
	.st2{fill:#FFFFFF;}
</style>
<g>
	<path d="M116.7354736,284.2035522c1.9001541-21.6617126,79.4263153-50.1639862,205.5963135-54.72435
		c-15.8359985,11.844223-26.3530579,29.4636993-29.2622986,49.02388l-1.1401062,9.1207275
		c-0.7196045,5.9327393-1.9919128,11.7853088-3.800293,17.4813538c-4.9403687,12.5410156-18.62146,23.1818542-33.0626373,30.7824707
		c-50.5440063-6.0804749-93.1073914-17.1013794-117.8093567-30.4024353
		C123.5760117,298.6446533,115.9754105,290.6639709,116.7354736,284.2035522z M599.3737793,277.743042
		c4.9403687,5.3205872,4.5603638,8.7406921,4.5603638,9.8809814c-0.3800049,6.0804749-7.9806519,13.6809082-20.9016724,20.1416016
		c-26.9821777,14.0611267-73.3458557,24.7019653-128.0701904,30.4024048
		c2.5758667-1.5488586,5.2406921-2.9447021,7.9806519-4.1803284l0.7600708-0.3800354
		c15.9612427-6.4605408,33.8226624-13.6810913,34.5827332-39.9031677c0.3800049-4.1803284,0.3800049-16.721344,2.6601868-21.2817078
		c3.0402832-6.0804749,10.6408691-14.821167,17.1013794-17.481369l-11.0209045-1.9001465h-1.5200806
		c3.3687134-2.496994,6.1026001-5.7516174,7.9806213-9.5007629c44.8435669,9.5004425,74.8660278,22.0415192,85.8868408,34.2024078
		V277.743042z M654.0980835,245.0605774c-23.1818237-26.2220764-75.6259766-47.1237488-142.5112915-59.6647339
		c0-7.6006165,4.9403687-11.020874,13.3010254-17.1013641c4.90802-3.3826141,9.6038818-7.0631409,14.0611572-11.020874
		c21.6616821-20.9016571-3.800293-52.0641403-4.5603638-53.584259l-14.0611572-17.1013565l3.4202881,22.041748
		c2.2801514,14.8211746-3.0402832,20.1415939-19.7615967,31.5425034c-1.8527222,1.4251251-3.6286926,2.9473877-5.3204041,4.5603485
		c1.2085266-11.6996155,0.4376831-23.5192184-2.2801819-34.9627686
		c-3.0402527-13.6810913-9.8807678-19.3815384-9.8807678-19.3815384l-1.900177,20.1416016
		c0,0.3800354-1.5200806,15.9612732-22.4217834,34.9627762c1.7655029-2.0600891,3.4148254-4.2169495,4.9403992-6.4605103
		c10.2608337-15.20121,7.2205505-31.9225388,3.800293-51.6841049l-0.7600708-4.180336
		c-3.4202881-20.1415977,1.9001465-33.0624352,5.3203735-35.342804c3.4202881-4.1803322,10.2608337-11.020874,10.2608337-11.020874
		s-3.4202576-1.5201225-13.6810913-0.3800316c-12.921051,1.9001503-34.9627991,9.8807869-34.5827332,27.7420464
		c0.7358704,7.4365692,2.5273438,14.7304077,5.3203735,21.6617203c2.2801819,7.2205734,4.5603943,14.0611115,2.2801819,17.1013565
		c-1.5200806,2.6602097-6.0804749,4.9403915-13.6810608,6.4605103
		c-31.1625061,5.7004547-54.7243652,19.7615662-66.5052795,40.2832031
		c-4.0543518,6.8018341-6.8840942,14.2621307-8.3606873,22.041748
		c-76.3860779,0.3800201-148.971817,9.8807831-204.8362579,26.9821472
		c-63.0850067,19.3815308-97.6677551,45.9836426-100.3279648,76.766098
		c-1.5201225,16.3413086,6.0804825,39.5231018,46.363678,61.9448853h-0.3800354l11.4009094,5.70047l6.0804825,2.6602173
		c20.9205933,9.1838074,42.6847534,16.3112793,64.9851532,21.2816772
		c-8.5736694,4.8209229-16.6009521,10.554657-23.9418945,17.1013794
		c-72.1477814,59.3957214-82.4853363,166.0328674-23.0895844,238.1806335s166.0328369,82.4852905,238.1806335,23.0895386
		c29.8062744-24.5380249,50.3250427-58.5311279,58.1506348-96.3370972
		c13.6810913-40.663208,12.1609497-84.3666992,11.4008789-101.0880127
		c-1.5201111-37.6228333,17.1013794-58.5246582,28.8823242-67.6453857
		c53.2042236-6.8405457,100.7080078-18.62146,135.6707764-34.2027283l5.7004395-2.6601868l12.1609497-5.70047l-0.3800049-0.3800354
		c28.5022583-15.9612732,44.463501-34.2027283,45.9836426-53.9642944
		c1.5202637-13.6810303-3.420105-26.6021118-14.440979-38.3829651L654.0980835,245.0605774z"/>
	<path class="st0" d="M100.7742538,526.6627808c0-3.800354-0.3800201-7.600708-0.3800201-11.7808838
		c-0.0608826-19.1851196,3.2844391-38.2287598,9.8807678-56.2442932c-3.6681213,21.379425-1.299118,43.3580322,6.8404617,63.4648132
		c7.9806976,19.7615356,20.521759,38.3829956,32.6826172,56.2444458
		c6.4606323,9.5007935,12.9210815,19.0015259,18.2414856,28.1222534
		c-8.785965-3.1574097-17.0973816-7.5050049-24.7019348-12.9210815
		C121.1554871,577.4815063,105.9338303,553.5618286,100.7742538,526.6627808z M186.2810364,574.9265747
		c-23.5618744-58.5245972-20.5215607-130.7304993,8.7407227-172.5336609
		c14.6112366-20.4583435,33.8934174-37.1347351,56.2445068-48.6440125
		c19.7615356-10.6407776,32.3023987-14.0611267,45.2234802-21.6615906
		c13.6811218-7.9807129,20.9017944-21.6618042,11.7810364-52.4441833
		c-2.0856323-7.0188599-2.8586121-14.3622742-2.2802734-21.6618042c-3.6277161,6.5880432-5.9503479,13.8139038-6.8404541,21.2817993
		c-1.0938416,9.5197144-3.0010681,18.9280701-5.7006226,28.1222534
		c-12.1608582,31.9225769-71.0656433,49.4038391-78.6661224,52.0641479
		c-20.0841522,5.8270264-38.7255554,15.7949524-54.7244415,29.2622986
		c-36.4129868,32.2784424-49.1141052,83.6880798-31.9223938,129.2102356
		c7.6004791,18.62146,19.7615356,36.4829102,31.5423737,53.5841675
		c8.9156647,12.8669434,17.1605835,26.1856689,24.7021179,39.9033203c7.5353546,1.5387573,15.1464691,2.6803589,22.801651,3.420105
		C198.6413727,602.4144287,191.6238556,589.0172729,186.2810364,574.9265747z M294.2096558,343.1081238
		c-35.3428955,15.2011414-58.1447601,24.3218994-88.1670837,62.3249207
		c-14.4411316,17.8614502-22.4218292,48.2637939-23.5618744,78.2863159
		c-0.839859,29.6127319,4.3313141,59.0884399,15.2011719,86.6468506
		c6.2944031,15.9370117,14.5953827,31.0063477,24.7019196,44.8434448
		c9.5858002-0.5180054,19.1157532-1.7885132,28.5022736-3.8001099
		c-10.6025391-12.3532104-16.8749084-27.8342896-17.8612823-44.0836792
		c-3.4203186-56.2442932,26.6019897-79.8061829,72.9657288-116.6691589l20.9015808-17.4814453
		c82.8466797-70.305603,58.5247803-141.7512817,67.6455078-202.9359741
		c-6.6943054-0.6326447-13.4187927-0.8864441-20.1415405-0.7602234c0.3800049,1.9002686,0.7600403,3.800354,1.1400452,5.7004242
		c1.52005,11.4010162-1.9002686,20.521759-15.2011719,22.4218292c-14.0611267,2.2802734-19.0014954-9.8807678-20.1417542-19.7615356
		c0-3.8003387,0.3800354-6.4604492,0.3800354-8.3607178h-6.8404541c-5.9536438,3.4754181-11.4441528,7.689209-16.3414307,12.5410767
		c-2.6600952,6.0804291-6.0804138,14.4411316-0.7600098,33.8226624
		C325.7520447,310.4255066,321.5716858,331.3272705,294.2096558,343.1081238z M333.7327576,441.9161987l-20.141571,16.341217
		c-45.2236938,36.1029358-71.0656433,58.9047546-69.1655731,107.9286194
		c0.3748016,15.7522583,7.0886383,30.6870728,18.6215057,41.4233398
		c12.9465942-3.8164063,25.4356384-9.0413208,37.242981-15.5809937
		c58.5245667-33.4428711,95.3875427-83.2267151,109.4486694-147.0718689
		c8.7407227-40.2833252,8.7407227-72.9659424,8.3607178-99.5677185c0-13.3011169,1.9000854-39.14328,1.9000854-39.14328
		c1.9000549-16.341217,4.1803589-39.9030762,23.5618591-69.9253998c0.7600403-1.1402435,1.1400452-1.9002686,1.9000854-3.0403137
		c-11.7808533-1.1404266-24.7019348-1.9004669-38.0028381-2.6604919
		c-2.3129272,12.5600128-3.8360901,25.2524261-4.5603638,38.003006
		C399.4779968,321.8265076,401.3780823,382.2511597,333.7327576,441.9161987z M427.2202148,401.6329041
		c-1.900238,9.8807678-2.2802734,20.5215454-3.4203186,31.1625366c-0.7600098,3.8001709-1.52005,7.9804993-1.9000549,11.7808533
		c-0.0707703,1.1730957-0.3272705,2.3276367-0.7602234,3.4203186
		c-14.4411621,67.2652893-52.8241882,119.3294373-114.769104,154.2921448
		c-10.1844177,5.8692017-20.8665771,10.8286743-31.9225769,14.8209839
		c18.2414856,11.7810059,39.1432495,15.5813599,53.5843811,13.3012695
		c55.4842834-7.9804688,82.4664917-44.0834351,95.3875732-82.8464966
		c13.3010864-39.5230713,11.7808533-81.7064209,11.020813-99.1878662
		c-1.9000854-58.5245972,42.9433899-80.1864014,42.9433899-80.1864014
		C442.8014221,366.289978,431.0203857,381.4911499,427.2202148,401.6329041z M332.5927124,641.8118286
		c-25.1024475,3.4678955-50.526123-3.5408936-70.3056335-19.3814697c-0.7600403-0.3800659-0.7600403-0.7600708-1.52005-1.1400757
		c-9.4781494,2.5058594-19.1335449,4.2845459-28.8822937,5.3204346
		c22.041626,23.9418335,51.6839294,37.6229858,90.8272095,39.9032593h0.3800049
		c26.6748657-10.2938232,50.1464844-27.4712524,68.0253296-49.7840576c-0.3800049,0-0.3800049,0.3800049-0.7600098,0.3800049
		C373.8476868,630.6768188,353.8070374,639.2468262,332.5927124,641.8118286z M136.1169739,603.428833
		c-7.0840149-5.0961914-13.5838852-10.9588013-19.3815231-17.4812622
		c14.5899734,30.2565918,38.2307205,55.2252808,67.6455154,71.4456787
		c0.0046387-12.6802368-2.9904327-25.1817017-8.7407227-36.4829712
		C161.7310486,616.9104614,148.4336243,611.0289307,136.1169739,603.428833z M297.2497864,674.1144409
		c-20.723175-4.0924072-40.3057251-12.6516113-57.3845367-25.0819092
		c-8.5331421-6.4501953-16.309906-13.8444214-23.1818695-22.0418091c-8.9373016,0.0753784-17.8566284-0.8164673-26.602005-2.6600952
		c5.1153259,12.3734741,7.0741577,25.8245239,5.7004242,39.1430054
		c21.2255402,9.6890259,44.3136597,14.618042,67.6453247,14.4411621c11.3612061,0.010437,22.6937866-1.1356201,33.8226624-3.4203491
		C297.6297913,674.1144409,297.2497864,674.1144409,297.2497864,674.1144409z M486.8848572,273.5627136
		c-3.8003235,12.5410767-16.341217,11.020813-20.1415405,4.1801758
		c-5.7004395-10.6408081-3.4203491-19.0015259,2.6600952-24.7019348c5.700592-5.7004242,15.5813599-8.7407227,25.0821228-13.3011017
		h0.3800354c-11.0210266-1.9000702-22.8018799-3.4203186-34.9629211-4.9403839
		c-0.3800049,0.3800201-0.3800049,0.3800201-0.7600098,0.3800201c-0.9191284,1.339325-1.9352722,2.6096497-3.0403137,3.8003387
		c-14.0622864,20.2248535-22.4597168,43.8425903-24.3219299,68.405365l-0.3800049,5.3203735
		c-1.217926,10.9761658-1.5991211,22.0288696-1.1400452,33.0626526v5.3204041
		c-0.3800049,4.5603638-0.3800049,9.1207275-0.3800049,13.3010864c0.3800049-1.9000854,0.3800049-2.2800903,0.3800049-1.52005
		c5.3204041-17.8614807,15.5811768-28.5022583,30.0223389-34.5827026
		c15.9611816-6.0806274,31.1625366-11.7810364,31.9225769-34.5828857
		c0.3800049-9.5007629,1.1400452-19.0014954,3.0403137-23.5618896c2.2047119-4.9873352,6.1109619-9.0283203,11.020813-11.4008179
		C498.6658936,258.3613586,490.3051758,261.4016724,486.8848572,273.5627136z"/>
	<path class="st1" d="M535.1486816,153.0932159c-14.0611572,12.9208832-28.5022888,15.5811768-29.642334,30.7823486
		c-3.1416016-0.566925-6.3141174-0.9477081-9.5007629-1.1400452c1.3043518-7.4085388,2.0663147-14.9023285,2.280304-22.4218292
		c0.841217-6.094162,4.3143005-11.5121613,9.5007324-14.8211517c15.9611816-11.4008331,24.7019653-18.6214981,21.6616211-37.6230087
		C529.4482422,107.8695297,553.0101318,135.9917755,535.1486816,153.0932159z M456.4825134,157.6533966
		c-4.0962524,3.0863037-8.0286255,6.3842773-11.7810364,9.8807678c-2.6600952,2.6602936-5.3204041,4.9403839-7.6004639,7.6006775
		c15.5811768,1.1400452,30.7823486,3.0401154,45.6034851,4.9403839c9.1207581-17.1014404,13.6811218-36.102951,7.9807129-69.1655807
		C490.6852112,110.9096451,489.545166,133.3314819,456.4825134,157.6533966z M462.1829224,135.6117706
		c9.5007629-13.6811142,5.7004395-30.7825546,1.9002686-51.3041153
		c-6.0805969-35.3429184,9.1207581-41.8033638,9.1207581-41.8033638s-30.022522,4.1803551-29.2624817,21.2815971
		c0.7602234,23.1818695,24.7021179,44.8436737-11.4008484,51.6841278
		c-39.5230713,7.220665-64.2249756,28.5022583-69.5455933,56.6245117c2.0118103-0.304245,4.0464172-0.431427,6.0804443-0.3800049
		c17.8614502,0.3800049,35.3428955,0.760025,52.8243713,2.2802734c0.4103394-0.7047424,0.9225769-1.3451233,1.52005-1.9002686
		C434.8207092,159.93367,452.6821899,149.2926788,462.1829224,135.6117706z"/>
	<path class="st2" d="M369.0755005,180.8352661c-165.6931458-1.5201263-303.644104,41.0432587-308.2044678,95.3875732
		c-1.9001503,21.6617126,17.4813881,41.8033142,52.0641365,58.5246277
		c25.652977,11.6512146,52.5575485,20.3218994,80.1863785,25.8420715
		c6.4605103-2.6601868,12.5409851-4.9403687,19.7615509-7.2205505c9.0767517-2.6998596,17.9637451-6.0007629,26.6021271-9.8807983
		c-46.363678-6.4605103-83.6066437-17.1013794-106.7884827-29.6423645
		c-17.1013641-9.1207275-26.222084-19.3815613-25.0819931-30.4024048
		c3.0402374-36.4829102,118.94944-64.6051331,258.4205322-63.4650421
		c139.8511047,1.5201111,250.4399414,32.3025513,247.0195923,68.4054108
		c-0.7600708,10.2608337-10.2608643,19.3815613-25.842041,27.742218
		c-29.2623901,15.5812378-80.5664368,26.9821472-143.2714233,32.6824646
		c-2.1452026,3.1459961-4.0507202,6.4489136-5.70047,9.8807983c28.5022583-10.6408691,61.5649109,5.3205872,61.5649109,5.3205872
		c1.3099976,0.5429688,2.5799255,1.1779175,3.800293,1.9001465c41.4232788-7.6006165,77.1461182-18.2414551,103.74823-30.7824707
		c31.5425415-14.8213501,50.9240112-33.4428406,52.4441528-52.8243408
		C664.3590088,227.9590454,534.3886108,182.7353516,369.0755005,180.8352661z"/>
</g>
</svg>
