<?xml version="1.0" encoding="utf-8"?>
<!-- Generator: Adobe Illustrator 22.0.1, SVG Export Plug-In . SVG Version: 6.00 Build 0)  -->
<svg version="1.1" id="Layer_1" xmlns="http://www.w3.org/2000/svg" xmlns:xlink="http://www.w3.org/1999/xlink" x="0px" y="0px"
	 width="720px" height="720px" viewBox="0 0 720 720" style="enable-background:new 0 0 720 720;" xml:space="preserve">
<style type="text/css">
	.st0{fill:#EDE0C5;}
	.st1{fill:#00471A;}
	.st2{fill:#FFFFFF;}
</style>
<g>
	<path class="st0" d="M601.0380859,161.1285095C584.5044556,79.7762527,518.3706055,55.3517876,515.7402344,54.412384
		c-0.9393921-0.3757858-2.2546997-0.5637321-3.1940918-0.5637321c-3.3817139,0-6.5758057,1.6909676-8.266571,4.8849602
		c-0.9393921,2.0666428-1.1272278,4.6970139-0.5637207,6.9516068
		c-21.9819336-18.4123878-42.836853-26.4912262-51.4790955-29.1214867C451.2973633,36.1879501,450.3579712,36,449.4185486,36
		c-3.5699768,0-6.763855,2.2545891-8.4546204,5.6364174c-2.2546997,4.1333923-0.5637207,9.3940239,3.5695496,11.8365631
		c20.1031189,12.0242882,37.2004395,28.369915,50.3520813,47.1579704c-15.9698486-3.7576141-26.6789551-4.1334-30.2489624-4.1334
		c-1.3150635,0-1.8787842,0-1.8787842,0c-4.6970215,0.3757858-8.4546204,3.9455643-8.8302917,8.6425781
		c-0.3756714,4.8848495,2.4425354,9.2060776,7.1395569,10.1454773c0.1878052,0.1879501,25.9275818,6.3879852,54.8610229,27.0548477
		c5.4485474,16.5334625,8.2667847,33.4427032,8.2667847,51.1035309c0,33.066925-10.5213013,67.2611847-28.9336548,93.3765106
		c-4.5089417,6.2001648-8.6424561,11.6486206-13.3394775,16.5335999
		c1.8788147-34.0064392-8.2667847-87.1766205-69.7036133-111.6010895c-1.1274719-0.3757782-2.4425659-0.5636139-3.5697937-0.5636139
		c-3.5697632,0-6.7636414,2.0666351-8.4546204,5.2606354c-2.2546997,4.321228-0.7515564,9.5818481,3.5697632,12.2122345
		l0.5637512,0.3757782c9.5816345,6.2000275,17.6605835,14.2788696,23.6726685,23.2971191
		c-6.5758057-2.0666504-12.5879211-2.6302643-16.34552-3.1938782h-0.5637207c-0.5635071,0-0.7513428,0-1.1270142,0
		c-3.9456787,0-7.3276062,2.630249-8.8305359,6.2000275c-1.6909485,4.1333923,0.1878357,8.6424561,3.7576294,11.0848846
		c0,0,0.375885,0.3757935,0.5635071,0.3757935c19.5398254,11.2728119,30.4367676,24.4244537,32.503418,39.2670746
		c2.066864,15.9698486-6.9515076,31.375946-13.1516418,39.8305664
		c-16.5335693-18.9758911-27.4305115-51.6671448-30.436554-64.0671997c-0.9393921-4.321228-4.6970215-7.1394501-9.0183716-7.1394501
		c-0.5637207,0-0.7513123,0-1.1272278,0c-4.6970215,0.5636292-8.2667847,4.509079-8.2667847,9.3940277
		c0,40.2063599,10.7093201,67.4490356,21.7943115,85.1098633c-16.9092407,8.4546204-32.8790894,9.0182495-36.4488525,9.0182495
		c-0.5637512,0-0.9393921,0-1.1272278,0c0,0-0.5637512,0-0.9394226,0c-3.7575989,0-19.9155273-0.5636292-36.4488525-8.8304138
		c11.0849915-17.8486633,21.7940979-45.2791748,21.4184265-85.297699c0-4.6970215-3.381958-8.8303986-8.2667847-9.3940277
		c-0.5637512,0-0.7515869,0-1.1272583,0c-4.1335144,0-8.078949,2.818222-9.0183411,7.1394501
		c-3.0062866,12.5880127-13.7153931,45.0913086-30.0608826,64.2551575
		c-6.3880005-8.4546204-15.4061279-23.6730042-13.3397217-39.8306885
		c1.8788147-14.8426208,12.7759705-28.1820984,32.3155823-39.4549103c0,0,0.1878357-0.1879578,0.3759155-0.1879578
		l0.3756714-0.1878357c3.3819275-2.2545929,5.2607422-6.9515991,3.5695496-11.0849915
		c-1.315094-3.7576141-5.0726929-6.2000427-8.8302917-6.2000427c-0.5637512,0-0.7513428,0-1.1272583,0l-0.5635071,0.1879578
		c-3.9456482,0.5636139-9.5820618,1.1272278-16.3457336,3.1938782c5.8242493-9.2060852,13.9031982-17.4728699,23.4850769-23.4850769
		l0.5635071-0.3756561c4.1335144-2.4425507,5.8244629-7.7031708,3.5700073-12.2122345
		c-1.5031433-3.1940002-5.072937-5.0727997-8.4546204-5.0727997c-1.1274719,0-2.4425659,0-3.5700073,0.5636139
		c-61.4368591,24.8002472-71.0187225,77.9704132-69.1399078,111.9768524
		c-4.5091858-4.8849487-8.8304138-10.3334045-13.3395844-16.5335693
		c-18.4122772-26.1153259-29.1214905-60.1216583-29.3093262-93.1886902c0-17.4728699,2.4424286-34.7579041,7.8910065-51.1035309
		c28.5578613-20.4789124,54.4853668-27.2426758,54.6732025-27.2426758
		c4.5091553-1.3151855,7.7032776-5.4484711,7.1394348-10.1454849c-0.3756714-4.6970139-4.1333008-8.078949-8.8302917-8.4546204
		c0,0-0.3757935,0-1.8788147,0c-3.7576141,0-14.4668274,0.7514496-30.2488403,4.321228
		c12.9638062-18.7880554,30.2488403-35.3215179,49.9761963-47.5337524
		c3.9454346-2.2545891,5.6364136-7.3273849,3.5697632-11.8365631c-1.690979-3.3818283-5.0726929-5.4484673-8.6427002-5.4484673
		c-0.9393921,0-1.8787842,0.1878357-2.8182068,0.5636177c-8.8301697,2.8182106-29.4970245,10.897049-51.2912445,29.4972687
		c0.7515717-2.0667572,0.3757935-4.6970139-0.7515564-6.9516029c-1.5030212-3.0060425-4.8848572-4.8848495-8.2666779-4.8848495
		c-1.1273499,0-2.2545929,0.1878357-3.1940002,0.5636177c-2.6303711,1.1272392-68.5763855,25.9274902-84.5462341,107.6555252
		c-14.4668198,74.0249786,27.8062897,126.2557526,74.5885925,168.1530609
		c-3.0061493,0.5636292-5.8243561,1.8788147-7.8910065,4.321228c-2.4424133,3.0061646-3.5697784,7.1395569-3.0060425,11.6486206
		l1.5030212,10.7092285c1.127243,9.5818481,6.5758209,41.5215454,26.8668976,52.6065369
		c4.884964,2.6303711,11.8364563,5.2606506,32.1276398,6.7636719l21.4183197,1.5031128l-2.2546082,7.3272705
		c-0.9393921,2.6303711-0.5635986,5.4486084,0.9394226,7.703186l15.5940552,24.8001404
		c-0.1878357,0.5637207-0.5635071,1.5031433-0.7513428,2.0667419l-33.630661,121.3707581
		c-1.1273499,3.7576294,0.1878357,7.5152588,3.0060425,9.9577026L361.1144714,684l114.0436401-92.8130493
		c2.8182068-2.4423828,3.9454346-6.3878784,3.0060425-9.9576416l-34.5700684-121.1829224
		c-0.1878357-0.5636292-0.3756714-1.5030212-0.7513428-2.0666504l15.5939331-24.9880676
		c1.3153076-2.2546082,1.690979-5.0728149,0.9394226-7.703186l-2.2546997-7.3272705l21.6062622-1.690979
		c20.2911682-1.6908569,27.2426758-4.321228,32.1277466-6.9515991
		c20.2911987-11.0848694,25.3638916-43.2125244,26.4910889-52.7943726l1.1272583-10.7092285
		c0.3756714-4.321228-0.5637207-8.6424561-3.1939087-11.6486206c-2.0668335-2.4424133-4.8850708-3.9454346-7.8908691-4.321228
		C573.9832153,287.5720825,616.0684814,234.9655304,601.0380859,161.1285095z"/>
	<path class="st1" d="M591.4559937,163.9467163c-15.7817993-77.2189713-79.2855225-99.9524689-79.2855225-99.9524689
		c23.4850464,16.9092522,47.1582031,49.22472,56.9279175,94.8796692
		c-9.5820923-11.6486206-18.6002197-20.4790344-28.9336548-27.6184692
		c-25.9273682-55.4247513-69.8916931-77.594635-91.4979553-84.5462341
		c28.1820679,16.9092484,51.4795227,41.8973389,65.7581482,70.830986
		c-32.5031738-11.4607849-52.0427856-10.3334351-52.0427856-10.3334351s29.1214905,7.1394424,59.9341431,30.0608902
		c6.3877563,17.6607056,9.9575195,36.6367035,9.9575195,56.7398224c0,35.1336823-11.0849609,71.2067871-30.4367676,98.8252258
		c-10.7090759,15.5940552-21.2303467,26.3032837-34.5698242,36.2609253
		c4.321106-11.0849915,20.6668701-95.8190765-59.5582581-127.7587585l0.5635071,0.3757782
		c19.3517761,12.024292,33.0671387,31.1881256,38.8913879,53.5459595
		c-14.4669189-13.9032135-30.0608826-15.4062347-38.1395874-16.3456268c0,0,0.1875916,0.1879425,0.3756409,0.1879425
		c74.4006653,42.8367462,15.5941772,101.0796967,15.5941772,101.0796967
		c-23.4850464-19.5396118-37.2004089-63.3157654-40.2066956-75.5279846c0,46.4065247,15.5941772,74.4007568,26.1156616,87.9280701
		c-23.8609619,16.3456116-50.7277222,15.4062195-50.7277222,15.4062195s-26.8670349,0.9393921-50.9158325-15.4062195
		c10.5215149-13.715271,26.115448-41.5215454,25.5519409-88.1159058
		c-2.8182068,12.024292-16.3457336,56.3641663-39.8308105,75.903656c0,0-59.1823578-58.0550232,15.0304565-101.0796967
		c0,0,0.1878357-0.1878357,0.375885-0.1878357c-8.078949,0.9394073-23.6731262,2.4424286-38.1398315,16.5334625
		c5.6364136-22.5456543,19.5393982-41.5216675,38.3274536-53.9217377l0.5637207-0.3757782
		c-80.0370636,32.3154755-63.3156433,116.8617249-58.8065796,127.9467163
		c-13.1516418-9.9577637-23.6728973-20.6668701-34.7579041-36.0730896
		c-19.7274475-27.4306335-31.0002899-63.5036011-31.1881256-98.6372833
		c-0.1879425-19.9154053,3.3818359-39.0791321,9.3940277-56.9277802
		c31.5639191-23.297226,60.4974365-30.4366684,60.4974365-30.4366684s-19.3516693-0.9393997-51.6671448,10.7092133
		c14.0910492-29.1215973,37.3882751-54.485466,65.3826294-71.3947144
		c-21.4185333,7.1395531-65.1946716,29.4972687-90.9343262,85.1099777
		c-10.3334351,7.3272705-19.1638336,16.1576691-28.745697,27.9941254
		c9.5818634-45.4669952,33.2547607-77.594635,56.5519867-95.0675049c0,0-63.5036011,23.1092834-78.7219849,100.3282471
		c-17.6606979,89.8068695,54.4853516,146.171051,112.5404816,193.7047729l-44.3398743-17.8486328
		c-3.0060425-1.1273499-5.2606354,1.6908569-4.6970062,5.0727844l1.5031281,10.8970642
		c0.5636292,6.012207,5.0726929,36.6366882,21.7940979,45.6549377c3.5697784,2.0667419,9.7698059,4.1333923,28.1820831,5.6364136
		l33.4427032,2.0667725l-5.4485779,18.6000977l32.503418,52.2307434l-16.7211609-17.660675L253.2711334,584.611145
		l93.7525482,76.6552124l-29.4973755-132.2678223l43.5884094,53.5459595l43.5881958-53.170166l-28.7458191,132.4558105
		l93.1889343-77.2189941l-34.5703125-121.1829224l-16.5333252,17.6607971l32.5031738-52.4187012l-5.6364136-18.6000977
		l33.0671692-2.2546082c18.2243042-1.5030212,24.6123047-3.7575989,28.1820679-5.8243713
		c16.9092407-9.018219,21.2305908-39.8305664,21.7941284-45.6549377l1.1271973-10.8970337
		c0.3756714-3.3818359-1.6907349-6.5758362-4.6970215-5.0728149l-44.1519165,18.2244263
		C537.9100342,310.1177368,609.680542,253.7535858,591.4559937,163.9467163z M550.8740234,160.5647736
		c2.630188,3.193985,5.4483643,6.2001495,8.0787354,9.3940277c25.3638916,32.3154755-11.2728271,90.3706055-11.2728271,90.3706055
		S561.3950806,197.5772552,550.8740234,160.5647736z M161.3975067,171.4619293
		c2.4424133-3.5697784,5.2606201-6.5758209,7.8910065-9.3940277c-10.1455994,36.8245392,3.7575989,99.3887329,3.7575989,99.3887329
		S136.4094086,203.5894623,161.3975067,171.4619293z"/>
	<path class="st2" d="M361.1144714,518.4771729h18.9758911l-9.0181274,12.4002075h-9.9577637h-9.9575195l-9.0183716-12.4002075
		H361.1144714z M330.6779175,407.8156128c-4.8848267-2.2545776-13.7151184-6.2000427-22.73349-10.3334351
		c-1.8788147-0.7515564-3.7575989,0.3757935-4.1332703,2.2546082c-0.7518005,3.9454346-0.5637512,9.9576416,4.696991,13.9030762
		c10.1453857,7.703186,18.4121704,3.381958,22.9213562-0.9393921
		C333.1202393,411.009613,332.3688965,408.9428406,330.6779175,407.8156128z M222.4586792,390.1548157
		c7.7031708,4.3213196,26.4912109,3.5697632,43.0246887,4.8849487
		c-18.4122772-6.9515991-45.0913391-26.3032837-57.8671875-38.3276672
		C207.6161804,356.7120972,210.8100586,383.7669373,222.4586792,390.1548157z M456.3700562,394.4760437
		c16.34552-1.5030212,35.1335754-0.9394226,42.836853-5.2606506c11.2728271-6.2000427,14.2786255-33.4427185,14.2786255-33.4427185
		C501.0856934,367.9849243,474.4065247,387.3366089,456.3700562,394.4760437z M414.0969238,397.294342
		c-8.8302917,4.1333008-17.8486328,8.2666931-22.7337341,10.3334351c-1.8787842,0.9393005-2.4422913,3.1938782-0.9393921,4.8848572
		c4.6970215,4.5090637,12.9638062,8.6424561,22.9215698,0.9393921c5.260498-4.1333923,5.260498-10.1455994,4.8848572-13.9031982
		C417.8545532,397.6700134,415.7876587,396.5427856,414.0969238,397.294342z M380.0903625,446.5189514l-8.8302917-28.745697
		l-10.1453552,4.8848572l-10.1455994-4.8848572l-8.6424561,28.745697
		c-0.1880798,0.3757935-3.0062866,11.8364563-15.5941772,19.727478l-5.2607422,23.6730042l13.3396912,17.6607056h13.9029846
		l-12.963562-18.9758911l2.0664063-11.6486206c5.8244629,6.2000427,14.2790833,10.1454773,23.4850464,10.1454773
		c9.2064209,0,17.6610413-4.1333923,23.4850769-10.3334351l2.066864,11.6486206l-12.9638062,18.9760132h13.9032288
		l13.1516113-17.8486633l-5.4485779-23.6730042C382.9085693,457.9797363,380.0903625,446.5189514,380.0903625,446.5189514z"/>
</g>
</svg>
