<?xml version="1.0" encoding="utf-8"?>
<!-- Generator: Adobe Illustrator 22.0.1, SVG Export Plug-In . SVG Version: 6.00 Build 0)  -->
<svg version="1.1" id="Layer_1" xmlns="http://www.w3.org/2000/svg" xmlns:xlink="http://www.w3.org/1999/xlink" x="0px" y="0px"
	 width="720px" height="720px" viewBox="0 0 720 720" style="enable-background:new 0 0 720 720;" xml:space="preserve">
<style type="text/css">
	.st0{fill:#A0A2A3;}
	.st1{fill:#0C233F;}
	.st2{fill:#FFFFFF;}
	.st3{fill:#266092;}
	.st4{fill:#79BC43;}
</style>
<g>
	<path class="st0" d="M360.0971985,684.1905518c-137.8111572,0-260.9098511-87.6192627-306.1261597-217.8576355
		C-4.6582255,297.5847778,84.9088974,112.3950195,253.656189,53.7657623
		c34.3987732-11.8991051,70.0952454-17.9563026,106.2248535-17.9563026
		c137.8111572,0,260.9099121,87.6192169,306.1261597,217.857605l1.513916,4.3272247
		c55.6005859,167.6656799-33.9656372,350.0429382-201.4160767,408.0229187
		C431.9233093,678.1333618,396.2268372,684.1905518,360.0971985,684.1905518"/>
	<path class="st1" d="M627.0651855,213.4271088C587.9060669,142.0341949,523.4365845,90.3275299,445.1201477,67.6117706
		c-13.4129639-3.8940659-27.2591248-6.9235306-41.1060791-8.8696938
		C254.5216522,36.6747437,109.7878571,129.701889,67.6010437,275.0849915
		c-22.7158089,78.1003113-13.6299896,160.310791,25.5282516,231.7037354
		c39.1581955,71.3938293,103.8446732,123.0995789,181.9449768,145.8153381
		c13.4129639,3.894043,27.2591248,6.9235229,41.1052551,8.8696899c30.5046997,4.5441895,61.0085449,4.1110229,90.2146606-0.432312
		c0.4331665,0.2161865,0.649292,0.432312,1.0824585,0.649292l0.432251-0.8654175
		c113.5798035-18.1724854,211.3672791-100.3837891,244.9006653-215.694458
		C675.3091431,367.0314026,666.2233276,284.8200684,627.0651855,213.4271088"/>
	<path class="st2" d="M514.7825928,273.1378479c0.2161255-3.028595,0.2161255-7.3557739-2.163147-10.6004944
		c0,0,3.461731,1.946991,5.6248779,4.7594604c1.7300415,1.9470215,2.5963135,3.8940125,3.0286255,5.1925964
		C519.7581787,272.2724304,517.5958862,272.4894104,514.7825928,273.1378479 M491.6337585,284.8203125
		c3.245575-2.379303,6.2741699-4.1101685,9.0866089-5.6249084c-0.432251-1.297699-1.297699-2.812439-2.3801575-4.9756165
		c-2.1631775-3.8948975-8.0041809-7.3557739-8.0041809-7.3557739
		C492.716156,273.7866211,492.28302,280.9263,491.6337585,284.8203125"/>
	<path class="st0" d="M142.4555054,454.8660278c52.138916-3.0286255,103.196167-40.4559937,103.196167-40.4559937
		s0,0.2161865-0.2169647,0.2161865c-15.3599243,23.5820923-36.3457947,36.9950562-36.3457947,36.9950562
		c2.5972595,3.244751,4.7603912,5.1917419,6.9235229,6.4903259
		C194.1612244,466.9821472,142.4555054,454.8660278,142.4555054,454.8660278z M527.1141968,284.6041565
		c0,0-1.298584-0.865448-1.730835-1.0815735c-8.2212524-4.3272095-22.7158203,8.2212219-32.2348328,13.6290894
		c-9.5189209,5.1926575-23.3650208,16.4424438-30.2876282,1.0824585
		c-6.7073975-15.3608704,8.8696899-39.3743591,14.2783813-54.7351837
		c11.8982544-33.5333405,12.3313293-53.2205353,9.7351379-63.8210602
		c11.0336609,12.3314209,14.4954224,36.3449097,14.4954224,36.3449097s4.1101379-44.7831421-17.7402344-56.4652252
		c0.432251,1.5147095,0,7.1396484-0.433075,11.4667969c-10.168335,1.946167-32.6679382-0.6492615-40.0237122-4.5433197
		c-27.6922302,29.638443-57.7637939,70.9598236-80.4796143,108.8203125
		c-9.7350159,20.1203308-19.4710083,43.4854126-21.8511963,62.7394409c0,0-3.0285645-8.6535034-3.8940125-20.1203308
		c-12.5475769,4.7603149-55.1666565,25.7452393-64.2533264,89.9993896c0,0,27.0430298-27.9084167,57.114502-38.9420776
		c0,0-19.0378113,49.7587585,17.3078918,137.8111877c0,0,14.7116394-54.085968,45.4315186-67.7159729
		c18.6056519,92.3787231,73.1238403,93.8934937,88.9170532,156.6329346c0,0,16.6585693-32.4517212-3.4609375-87.8353882
		c0,0,6.922699,1.946991,12.7637329,8.8704834c0,0-0.865448-16.2262573-16.0093689-51.057312
		c-9.9511414-18.6056213-12.9806519-43.9176941-12.9806519-43.9176941
		c-8.8705444,8.0050354-11.0336914,35.0471497-11.0336914,35.0471497
		c-27.0429993-73.3399658,49.7596741-146.0314941,63.8219299-156.8490295
		c6.9226685-5.1917725,11.0328369-5.4078979,13.6291504-4.1101379
		C530.5759888,290.4452209,530.1436157,286.984314,527.1141968,284.6041565z"/>
	<path class="st3" d="M298.43927,115.8563614c-4.3262634-10.817543-1.7308655-22.7158051,0.2161255-28.7738419
		c32.8840332-7.3557816,67.2828369-9.0866623,101.897644-3.8940659c12.7645264,1.7308807,25.3129578,4.5433273,37.8604431,8.2212677
		c0.4332886,0.2161255,0.8655396,0.2161255,1.298645,0.432251c-17.7410889,2.5963211-40.4567871,7.7880783-65.9850464,17.0917511
		c-20.1203308,6.7065125-41.3222046,14.9277344-60.5762634,22.7157516
		C306.0111694,127.5393448,301.0355835,122.3466949,298.43927,115.8563614z M160.4122772,324.1951599
		c9.9521027-30.9370117,23.1490021-57.1145325,37.2112427-78.9656982
		c2.1632385-4.3271942,5.6248932-10.8166962,9.9521027-18.6056061
		c-53.8697968-5.8410797-102.7631302,51.7066193-121.5857162,77.451004
		c-15.576149,75.5039673,1.2976913,151.4411011,41.7545166,211.8003845
		c9.518959-15.1447449,24.2305222-38.2927856,24.2305222-38.2927856
		c-21.634201-7.5718994-43.2683868-26.8268433-43.2683868-26.8268433
		c12.1143875-7.5718994,24.0134888-16.4424438,35.4803009-25.9605103
		C144.8352814,390.1793518,150.0279388,356.4298706,160.4122772,324.1951599z M261.4448853,153.9321442
		c9.0858154-4.1101837,20.1195068-8.8696442,32.4509583-14.0622406c-5.408783-4.9756165-9.5189209-10.8166962-12.1152344-17.5231552
		c-4.1102295-10.6005783-4.1102295-21.4180679-2.5954895-30.0715866
		c-40.0236816,11.8982697-77.018692,32.8840332-107.955719,61.2246857h4.3262634
		C201.9503021,151.9859772,239.8107605,153.0675964,261.4448853,153.9321442z M485.1430969,428.688446
		c-0.6483765,33.3171692,24.8798828,54.7352295,26.3945313,115.9599915c0,0-7.3557739-5.1917725-10.3843384-6.489502
		c0,0,5.4079285,26.3928223,7.3557739,59.0615234c29.4222717-18.3886108,55.599762-42.4028931,76.8017273-70.9606323
		c-10.6005859-52.7873535-43.9176636-109.6857605-88.4838562-162.257843
		C489.4711609,381.526062,485.5762024,400.7809448,485.1430969,428.688446z M272.9105835,210.3983765
		c-7.5718994,3.677948-16.0093384,8.0042572-24.2304535,12.5475769
		c17.5239105,11.4668121,31.5862579,28.989975,43.0521698,49.9757385
		c30.5047607-23.581192,58.8453674-24.014328,58.8453674-24.014328c2.5964355-3.244751,4.976532-6.2733765,7.3557739-9.3028412
		c-9.5188904-6.4903412-19.0378113-12.5475311-28.7736816-18.3886108
		C315.7467346,216.4556274,283.7281494,211.9122925,272.9105835,210.3983765z M404.0144958,170.1588287
		c-2.3792725-0.2169647-4.9755859-0.433136-8.0041504-0.6492615c-15.3608704-1.0824585-40.0237122-3.0286255-69.4468079-13.1968536
		c-6.0571289,6.7065125-11.0328369,13.6291504-14.7107239,19.6871796
		c7.5718994,7.7880859,22.0664978,22.9319458,29.2061462,30.937027
		c9.5189209,5.8410187,19.0378113,11.8991089,28.5576782,18.3894501
		c17.9562378-21.4180603,33.5325012-38.0766296,48.4601746-53.6536713c-3.893158-0.432251-7.7880249-0.865387-11.8982544-1.297699
		L404.0144958,170.1588287z M216.8775635,209.9661865c3.677887-6.7073517,7.5718994-13.4138641,11.0336609-19.4710693
		c-14.9276733-9.7359772-24.0134888-16.8747406-49.7587128-19.0387573c-10.6005707-0.2161255-19.2549896,0-25.5283051,0.433136
		c-23.1488953,25.5282593-41.7545166,55.8168182-54.5190659,89.7824097
		C126.6628571,232.2487946,169.2819824,200.6625061,216.8775635,209.9661865z M638.9640503,336.7426453
		c-7.788147-35.6964722-34.3986816-103.844696-124.6134644-141.4881744
		c2.8116455,26.8268433-3.0293884,52.5712128-3.0293884,52.5712128s16.6585388,9.7359924,20.7687073,28.1245422
		c0,0,2.1639404,0.8654175,3.8948364,3.4617615c4.7595825,5.6248779,10.8167114,18.8217468,1.081665,44.9992676
		c0,0-5.6257935-12.1152344-17.7402344,0.8654175c-5.192627,7.3557739-9.7358398,14.0622864-13.6299744,20.7687683
		c43.9176941,50.6250305,78.3164978,106.0086975,93.0280457,159.8785095
		c12.7636108-20.5526123,22.9319458-43.2692871,30.0715942-67.7159119
		C638.7478027,404.2424316,641.7756348,370.0598145,638.9640503,336.7426453z M510.6719971,175.7835083
		c37.6444092,14.2784119,77.2339478,36.9950714,106.440979,73.3399658
		c-26.6097412-61.6578674-75.2869873-113.3636475-138.8927612-142.7859192v0.4322968
		c-0.864502,0-59.7098694-1.298584-132.4023132,33.9664383c-1.2977905,0.6484833-2.5954895,1.5138702-3.677063,2.379303
		c22.7158203,6.7065125,41.7537537,8.0050964,55.1666565,8.8697052c3.245636,0.2161102,6.0589294,0.433136,8.4382935,0.6492615
		l1.946991,0.2161255c6.7064819,0.6493073,15.3599243,1.5147552,25.3121338,3.0286255
		c9.0857239-16.8747406,24.2304688-27.691391,33.3171387-29.6384506
		c8.2212219,3.0286179,12.5475769,8.0042496,15.5769958,14.9277267
		C497.4751892,147.6589355,506.1296082,160.8557892,510.6719971,175.7835083z M231.8052368,233.7633514
		c-4.3264618,3.0285645-8.0043488,6.2742004-11.2498932,9.5189514
		c-30.7199554,43.2692108-53.219635,99.0851898-57.330719,165.2863312
		c49.1094971-44.9992676,89.9985199-98.6520386,114.8784027-123.5318604
		C266.2039185,261.8878784,251.0600281,243.4992676,231.8052368,233.7633514z"/>
	<path class="st4" d="M299.0882874,308.1853027c0,0.2161255,25.5281372-25.5282593,42.6199036-33.9656677
		c0,0-4.1101379,11.2498474-4.543335,21.8512268C337.164856,296.0708618,311.4196167,299.9640808,299.0882874,308.1853027z
		 M448.7985535,152.4181824c14.7107239-15.5769958,27.4752808-5.6249542,27.4752808-5.6249542
		C473.6775208,140.0867767,464.5916748,123.861351,448.7985535,152.4181824z M286.3243713,178.1630859l19.2541504-28.124588
		l-38.7250671,19.6871948c0,0-27.692337-2.3792572-42.4038849-2.8124542
		c13.4138641,8.4373932,24.879776,18.3894958,24.879776,18.3894958l-17.0908051,28.5568237l36.5619354-19.9033508
		c0,0,23.1479492,3.8940582,44.1338196,8.2212677C301.0350647,188.3313141,286.3243713,178.1630859,286.3243713,178.1630859z"/>
</g>
</svg>
