<?xml version="1.0" encoding="utf-8"?>
<!-- Generator: Adobe Illustrator 22.0.1, SVG Export Plug-In . SVG Version: 6.00 Build 0)  -->
<svg version="1.1" id="Layer_1" xmlns="http://www.w3.org/2000/svg" xmlns:xlink="http://www.w3.org/1999/xlink" x="0px" y="0px"
	 width="720px" height="720px" viewBox="0 0 720 720" style="enable-background:new 0 0 720 720;" xml:space="preserve">
<style type="text/css">
	.st0{fill:#C69E66;}
	.st1{fill:#001644;}
	.st2{fill:#DA1A32;}
	.st3{fill:#FFFFFF;}
</style>
<g>
	<path class="st0" d="M684,313.4180908l-5.5921021-3.4649658c-85.8889771-50.0483704-210.6085205-74.7782288-267.8544617-75.7415009
		l-0.7626038-0.0066681c-7.7934265-0.8438416-15.3623047,2.9392548-19.3651733,9.6791992
		c-2.4924622,4.8067322-2.9082031,10.424408-1.1505127,15.5456543c-1.2035217-1.2977905-2.5397034-2.4658203-3.9867554-3.4850616
		c-3.2049561-2.3499756-6.5888977-4.4455719-10.120697-6.267807c0,0,0.7224121,4.5018463-0.9365234,3.9667664
		c-0.9520569-0.3329315-1.8854065-0.7170715-2.796051-1.1506348c-4.6489258-2.2073669-11.3782349-6.2610321-11.3782349-6.2610321
		s-6.8363953,4.0536652-11.4786682,6.2610321c-0.9133606,0.4325714-1.848877,0.8166046-2.8027039,1.1506348
		c-1.6523132,0.5347748-0.9365234-3.9667664-0.9365234-3.9667664c-3.5292358,1.8230286-6.9107971,3.9186249-10.1140747,6.267807
		c-1.4503174,1.0175629-2.7888794,2.1856842-3.9934082,3.4850616c1.7610779-5.1208496,1.3452454-10.7398071-1.1505127-15.5456543
		c-4.0028687-6.7399445-11.5716248-10.5230408-19.3651428-9.6791992l-0.7558594,0.0066681
		c-57.2459259,0.9632721-181.9722748,25.6931305-267.8612061,75.7415009L36,313.4180908
		c5.4629364,12.8859558,16.0747795,22.8936768,29.2584381,27.5928345l-2.8362274,1.364624
		c0,0,11.7595825,19.0908813,30.0544586,23.0508728l-3.4917374,1.4515381
		c8.8514557,13.0349121,22.4484863,22.0924072,37.8874512,25.2382813l-3.6924057,1.8060303
		c12.1455078,12.059082,28.1295929,19.4855652,45.1785889,20.9906006l-3.9666595,3.0235596
		c13.6862335,8.2216187,28.9928284,13.3770752,44.8642578,15.1108093l-4.3010864,3.8262634
		c0,0,47.3927307,17.331604,87.0863037,2.8896179c11.1090393,27.8113098,38.0073853,46.078125,67.9552307,46.1486511h0.0134277
		c29.9494629-0.0704041,56.849884-18.3367615,67.9620056-46.1486511
		c39.6801453,14.4419861,87.0795288-2.8896179,87.0795288-2.8896179l-4.2944031-3.8262634
		c15.8711243-1.735321,31.1773376-6.890686,44.8642273-15.1108093l-3.9799805-3.0235596
		c17.0484009-1.500061,33.0319824-8.9273376,45.171936-20.9906006l-3.6790771-1.8060303
		c15.4399414-3.1434021,29.0379028-12.2015076,37.8874512-25.2382813l-3.4917603-1.4515381
		c18.2815552-3.9599915,30.0545044-23.0508728,30.0545044-23.0508728l-2.8294678-1.364624
		C667.9349365,336.3108826,678.5422363,326.3028564,684,313.4180908z"/>
	<path class="st1" d="M674.9638062,315.8937683c-84.0360718-48.9580078-207.4713135-73.8551178-264.516571-74.8117371
		c-6.8831482-0.1204224-11.5522461,1.5586243-13.9536438,6.0336304l-0.0000916-0.0003052
		c-3.9734192,7.4651642,1.6388855,15.7931824,4.0201721,19.3722229c7.3099365,9.9786072,11.491272,21.9034424,12.0138245,34.2619629
		c0.1335449,16.2008667-7.9883118,31.3555298-21.5525208,40.215332c6.5975342-9.7501831,9.9561462-21.3308716,9.598938-33.0980225
		c0-34.8372192-20.8769226-47.4396362-20.8769226-47.4396362s-0.5016785,2.0870361-1.7726135,2.0870361
		c-4.5159912-1.565979-8.8816833-3.5359802-13.0438538-5.8861694c-1.6388855-0.8829193-3.9198303-2.2144165-4.7158508-2.6756134
		c0,0-3.4048157,1.7926941-5.0369263,2.6756134c-4.1609802,2.3525696-8.526886,4.3227844-13.0439453,5.8861694
		c-1.2709656,0-1.7792969-2.0870361-1.7792969-2.0870361s-20.8701782,12.602417-20.8701782,47.4396362
		c-0.3571777,11.7671509,3.0014038,23.3478394,9.598938,33.0980225
		c-13.5638123-8.8609924-21.6873474-24.0141602-21.5591736-40.215332
		c0.52771-12.3585205,4.7111511-24.2823792,12.0204163-34.2615662c2.388031-3.5787659,7.9935608-11.9067535,4.0202332-19.3723145
		c-3.0284424-4.6141205-8.5104675-6.9857635-13.9469604-6.0336304
		c-57.0585785,0.9566193-180.4938965,25.8537292-264.5232239,74.8117371
		c8.5640755,13.8417358,23.9635582,21.9473877,40.2220039,21.1711731
		c-4.1205978,2.0136719-8.2321396,4.0783386-12.3348389,6.1942139
		c9.4619141,13.2680969,25.6335526,20.0172729,41.7203674,17.4119568c-4.9031906,2.3214111-9.786293,4.6982422-14.6493073,7.1306458
		c11.0618057,13.3632507,27.8605118,20.61203,45.1719208,19.4922485
		c-7.1573944,3.6121521-11.4785614,5.9131775-11.4518127,5.9065247
		c14.7702332,12.6866455,34.4803467,18.0234985,53.6337891,14.5221252c-3.5787506,2.6087952-7.190918,5.37146-11.4652405,8.3548584
		c16.3565979,8.2081604,34.7702026,11.4120178,52.9380951,9.2109375c-3.6925049,2.8027954-7.3781586,5.6189575-11.0639038,8.4819336
		c-0.0669098-0.388031,43.8140717,12.0069885,75.0323944-1.7458801c1.1572876-0.5084229,2.2676086-1.0903625,3.3780823-1.6656189
		c9.6654663,35.2518005,46.0780029,55.9935913,81.3298035,46.328125
		c22.5368958-6.1791992,40.1447449-23.7852783,46.3263245-46.3214722c1.1171265,0.5686035,2.2141418,1.1505432,3.3713074,1.6588745
		c31.2184143,13.7529602,75.0926514,1.3579407,75.0391541,1.7458496c-3.6790771-2.862854-7.3713989-5.6790161-11.0705566-8.4818115
		c18.165802,2.2037659,36.5780334-1.0001831,52.931427-9.2109375c-4.2543335-2.9833984-7.8665161-5.7460632-11.4517822-8.3548584
		c19.149231,3.5031738,38.8560791-1.8341675,53.6203003-14.5221252c0.0267944,0.0066528-4.2877197-2.2943726-11.4384766-5.9065247
		c17.3110352,1.1174927,34.1087646-6.1308899,45.171936-19.4922485c-4.8629761-2.4419556-9.7504883-4.8188782-14.6625977-7.1306458
		c16.0888062,2.60672,32.2630005-4.1425781,41.7269897-17.4119568c-4.09375-2.1140747-8.2009277-4.178772-12.3214111-6.1942139
		C651.0042114,337.8372803,666.3999023,329.7322388,674.9638062,315.8937683z M343.4108276,379.7345581
		c3.9332275,18.9169922,7.552063,37.0713501,8.5955811,44.2087708c0.2499084,6.6826477-0.5353699,13.3638306-2.3277893,19.8065491
		l-0.3880005,0.7692566c-2.201416-0.4121704-4.3768616-0.9527283-6.5152283-1.6187744
		c-1.1641541-10.9532166-4.3628235-21.5928955-9.4317932-31.3722229
		c-3.2016602-6.6205444-5.7468262-13.5389709-7.5989075-20.6560974
		C330.7596436,385.9267883,336.7866211,382.1270752,343.4108276,379.7345581z M141.8533173,317.4218445
		c41.3780975-14.1705017,83.980896-24.4735718,127.2614594-30.776886
		c-0.8618469,6.5176086-1.1438599,13.0987549-0.8427429,19.6661682
		c-7.8063354,1.5117798-32.1348419,6.7427368-86.6515503,22.1678772
		C181.6204834,328.4790039,152.5627136,336.479248,141.8533173,317.4218445z M168.3559875,346.313446
		c32.9645691-12.0397949,66.8098755-21.5154419,101.2339172-28.3423767v0.0003052
		c1.0539856,5.8897095,2.8031311,11.6334839,5.2108765,17.1109314c-9.144104,2.9299011-39.7939301,12.7094421-63.701004,19.4855652
		C182.6841888,362.6346436,168.3559875,346.313446,168.3559875,346.313446z M200.8244476,370.8351746
		c20.4890137-7.8731689,69.0390167-23.5993958,78.7516327-26.7365417v-0.0000916
		c2.6964111,4.29422,5.8327637,8.2958679,9.3582153,11.940155c-5.7393799,2.4483032-18.7698059,7.8865967-42.4093933,17.1979675
		C212.5840302,386.601593,200.8244476,370.8351746,200.8244476,370.8351746z M294.474884,403.3866577
		c-6.3240967,1.5672913-12.9634094,1.3050537-19.1444092-0.7558289
		c6.0671387-4.4817505,15.4386902-10.6893005,23.8469238-16.1342468
		C296.865509,391.8923035,295.2840271,397.5725098,294.474884,403.3866577z M290.0071411,382.5683899
		c-28.8503418,17.8199768-51.7808075,6.5487366-51.7808075,6.5487366
		c18.2212982-8.7695313,49.7272797-22.5357971,58.2091217-26.2215271c3.6321411,2.9172668,7.4780884,5.5579834,11.5054016,7.8999023
		L290.0071411,382.5683899z M319.4194031,398.552887c1.8440247,5.5404053,3.9900513,10.975708,6.4283142,16.2814331
		c3.8905945,7.8001709,6.7120972,16.0890808,8.3882751,24.6429138
		c-9.1941223-4.5801086-16.9734192-11.5688477-22.5090637-20.2213135
		C312.6620789,411.8544922,315.2947388,404.7691956,319.4194031,398.552887z M334.2580566,449.7024536
		c-0.9623718,3.8950806-3.3121338,7.3055725-6.6088867,9.5922852c-3.0497131-2.1360779-5.8837585-4.5646057-8.461853-7.2510681
		c-3.793335-5.8331604-6.2846985-12.4153748-7.3045654-19.2982178c6.2863159,6.8245544,13.9614868,12.2234497,22.5090637,15.8332214
		C334.3449707,448.9466248,334.3182068,449.3278809,334.2580566,449.7024536z M355.9049683,469.315918
		c-7.2435303-0.5180969-14.3186646-2.4305115-20.8367615-5.6322937c3.6601868-3.2434387,6.1869507-7.5727539,7.2108765-12.3549194
		c3.151062,0.8337097,6.3594971,1.4329224,9.598938,1.7926941h0.0001221
		c1.0328674,1.8824158,1.9552917,3.8232727,2.7625427,5.8129883l1.2642822,3.2106934V469.315918z M368.0183411,424.6514282
		c0.8829346-6.5218811,4.5887756-25.2917786,8.6424255-44.8910217c6.6020508,2.3920288,12.6081238,6.1846924,17.6058655,11.1174011
		c-1.8565369,7.1144409-4.4038086,14.0304871-7.6055603,20.6495361c-5.0402222,9.7566528-8.2333374,20.3610229-9.4183655,31.2785645
		c-2.1444397,0.6828308-4.3265381,1.2412109-6.5353088,1.6722717l-0.3612671-0.7224426
		C368.5818787,437.5473938,367.7965088,431.1018066,368.0183411,424.6514282z M364.105072,469.3103333v-7.1238708
		l1.2576294-3.2174988c0.8149109-2.0005188,1.743988-3.9524231,2.7826233-5.8463745
		c3.2374878-0.3591614,6.4437256-0.9584045,9.5922852-1.7926941c1.0271301,4.7793884,3.5505981,9.1071167,7.2043457,12.3549194
		C378.4245605,466.8872986,371.3486938,468.7976379,364.105072,469.3103333z M400.8080139,452.0570068
		c-2.5728149,2.6803894-5.3999939,5.1043396-8.4417725,7.2377319c-3.2946472-2.2917786-5.6436157-5.7033691-6.6088867-9.598938
		c-0.0534973-0.3679199-0.0869141-0.749176-0.1337585-1.1171265c8.5389404-3.6027832,16.2071533-8.9924622,22.4889832-15.806488
		C407.0915222,439.6505737,404.6000366,446.2282104,400.8080139,452.0570068z M385.8015137,439.2859192
		c1.6911621-8.4851074,4.5053101-16.7070313,8.3680725-24.448822c2.4356689-5.3030396,4.5772095-10.736145,6.414978-16.2747498
		c4.0953369,6.1752319,6.7200623,13.207428,7.6724854,20.5557251
		C402.6694336,427.6932068,394.9253235,434.6483459,385.8015137,439.2859192z M444.6728821,402.631134
		c-6.1760254,2.0613708-12.8105469,2.3258057-19.131073,0.7626038c-0.8082275-5.8143616-2.38974-11.4946899-4.7025146-16.8901978
		c8.4083557,5.4379883,17.766449,11.6455383,23.8335876,16.1272888V402.631134z M429.9948425,382.5683899l-17.9270325-11.7728882
		c4.0263062-2.3435059,7.8720703-4.9841309,11.5054016-7.8999023c8.4751587,3.68573,39.9811707,17.4519958,58.2024536,26.2215271
		C481.7756653,389.1171265,458.8519592,400.3883667,429.9948425,382.5683899z M473.4837646,373.2366638
		c-23.6461487-9.3113708-36.6700134-14.7496643-42.4159546-17.1979675
		c3.5276184-3.6440735,6.6660461-7.6456604,9.3647461-11.9400635c9.7060547,3.137146,58.2627258,18.8633728,78.7449951,26.7365417
		C519.1775513,370.8351746,507.4246216,386.601593,473.4837646,373.2366638z M508.9028931,354.5678711
		c-23.9002991-6.776123-54.5501099-16.5556641-63.6942139-19.4855652
		c2.4015808-5.4796448,4.1505127-11.2227173,5.2108459-17.1109314v-0.0003052
		c34.4239502,6.8269348,68.2692566,16.3025818,101.2339172,28.3423767
		C551.6534424,346.313446,537.3186035,362.6346436,508.9028931,354.5678711z M538.3894653,328.4790039
		c-54.523468-15.4251404-78.8452148-20.6560974-86.6515503-22.1678772
		c0.2985229-6.567627,0.0143127-13.1487732-0.8495178-19.6661682c43.2827759,6.3038025,85.8877258,16.6069031,127.268219,30.776886
		C567.4472046,336.479248,538.3894653,328.4790039,538.3894653,328.4790039z"/>
	<path class="st2" d="M340.953949,303.9318237c0.8043823,0.586792,1.5423279,1.2597046,2.2007141,2.0068054
		c-0.3045959,0.2062378-0.525238,0.514679-0.6221008,0.8695984c-0.2514954,0.9251709,0.2929382,1.8795166,1.2174377,2.1337891
		c0.4510803,0.1157227,0.9294739,0.0484314,1.3311157-0.1872559c0.2733459,0.4930115,0.5059509,1.0076294,0.6956787,1.5384216
		C339.4154053,311.0491333,340.953949,303.9318237,340.953949,303.9318237z M379.0501404,303.9353943
		c-0.8027954,0.5863037-1.5405273,1.2568359-2.2007141,2.0000305c0.2904663,0.2203674,0.5074463,0.5235596,0.6221008,0.8696289
		c0.2565308,0.9230957-0.2837219,1.879303-1.2067261,2.1359558c-0.4577026,0.1271973-0.9475403,0.0611572-1.3552551-0.1827698
		c-0.2653198,0.4920349-0.4912415,1.0042419-0.6755981,1.5318604
		C380.5886536,311.0527344,379.0501404,303.9353943,379.0501404,303.9353943z M339.798645,336.3089905
		c2.9767456,13.217865,6.6758118,31.4391785,11.3582458,56.0753479l-4.2944031-55.8210754
		C343.5914001,330.2490234,337.5177002,326.2087708,339.798645,336.3089905z M373.1489563,336.5632629l-4.2944031,55.8210754
		c4.6890869-24.6361694,8.3815002-42.8574829,11.3581238-56.0753479
		C382.4803162,326.2087708,376.4199219,330.2490234,373.1489563,336.5632629z M362.986084,401.5215759
		c2.0200195-38.0609741,5.0502625-65.0121155,5.0502625-68.37677c0.0010986-1.5005493-0.2106018-2.9937439-0.6287537-4.434906
		l-2.2141418,7.2377319L364.5112,323.157959c-1.3040466-1.6225586-2.8309631-3.0526123-4.5353699-4.2476807h-0.1203308
		c-1.6537781,1.1923828-3.1231995,2.6212463-4.3613281,4.2409058l-0.6689453,12.7964478l-2.2275391-7.2444153
		c-0.4182434,1.4434814-0.6299438,2.9388733-0.6287537,4.4415894c0,3.3646545,3.0168152,30.3153992,5.0437012,68.37677
		c2.0200195,38.0613708-2.6958313,45.1318665-2.6958313,45.1318665c2.1841125,3.5055542,4.0832214,7.1807556,5.6791077,10.9902954
		c1.6032715-3.8097534,3.5091553-7.4849548,5.6992188-10.9902954c0,0-4.7225952-7.0704956-2.709137-45.1318665H362.986084z"/>
	<path class="st3" d="M321.9259033,358.6025696c-0.9431763,0.662262-1.8595276,1.3579407-2.7626343,2.0669556
		c-19.9805908-12.8699341-48.1419067-41.9143677-25.8067932-96.671936c0,0-79.3803864,3.2844238-188.1997986,47.198822
		c0,0-7.6390839,3.1773987-12.0873337,4.7693481c-6.9879532,3.1715393-15.0387192,2.9943237-21.8802948-0.4815979
		c71.4976807-34.4276123,148.4526367-56.1201782,227.4050446-64.1023254
		c16.8566895-1.5920258,19.0909119,0.9566193,14.6425476,7.3179932
		C309.8519897,263.5293274,270.4527588,313.7851257,321.9259033,358.6025696z M421.4098816,251.3834229v-0.0003967
		c-16.8633423-1.5920258-19.0908813,0.9566193-14.6425476,7.3183899
		c3.3914185,4.8228455,42.7839966,55.0852966-8.6824951,99.8960571c0.9430847,0.6622925,1.8595276,1.3578796,2.7625427,2.0669861
		c19.9805908-12.8699341,48.1419983-41.9076233,25.8001099-96.671936c0,0,79.3938293,3.2910767,188.1997986,47.198822
		c0,0,7.6390991,3.1840515,12.0941162,4.7760925c6.9875488,3.1646729,15.0341187,2.9851074,21.8735352-0.4883423
		C577.3161621,281.0553284,500.3615112,259.3651733,421.4098816,251.3834229z M386.3987427,314.1852722
		c0.0268555-0.0601501,0.0534973-0.113739,0.0735779-0.1739197c2.4876099-4.5715637,3.5872192-9.7696838,3.1640015-14.9569702
		c0.0788574-9.0830383-3.1581116-17.8829956-9.1039429-24.749939c0,0-0.1405029,3.0570068-5.2911072-0.3679199
		c-9.1752319-6.4381409-21.402771-6.4301758-30.5695496,0.0200806c-4.9766846,3.377594-5.2175293,0.3474426-5.2175293,0.3474426
		c-5.9303894,6.8750916-9.1610107,15.6706543-9.0906067,24.749939c-0.3243713,5.0405273,0.6934814,10.0768433,2.9499817,14.5958252
		c0.0736084,0.1872253,0.1470947,0.3678284,0.227417,0.5551453c2.9633179-1.2441711,8.3614197,1.705719,15.3114929,9.1708679
		v0.0003967l0.1003418-0.1672668c1.6589355-3.178772,0.8602295-7.0853882-1.913147-9.3580933
		c0,0-10.9300537,2.2943726-11.2042847-12.2010803c0.0354004-1.6151123-0.4017639-3.2052612-1.2575378-4.5754395
		c0,0,2.8027344-2.5485535,8.8898315,2.0335388c6.1005554,4.5686646,9.4183655,17.539032,12.7295227,14.4954834
		c3.2576599-3.0235901,2.0870667-19.9204407,3.7927551-20.5558472c1.6789551,0.6354065,0.521759,17.5322571,3.7927246,20.5558472
		c3.3111572,3.0435486,6.6022339-9.9268188,12.7228699-14.4954834c6.0804749-4.5820923,8.8898315-2.0335388,8.8898315-2.0335388
		c-0.848999,1.374054-1.2919312,2.9603271-1.2775879,4.5754395c-0.2475281,14.4954529-11.1775818,12.2010803-11.1775818,12.2010803
		c-2.7722778,2.26297-3.5643005,6.1668701-1.8931274,9.3313599c0.0282593,0.0622559,0.0642395,0.1206055,0.1070862,0.1739197
		C378.0506592,315.9512329,383.4221191,313.0013428,386.3987427,314.1852722z M400.5831604,398.5617371
		c4.095459,6.1752319,6.7201538,13.207428,7.6725159,20.5558472l0.046814-0.066925
		c3.3809814-5.2155151,5.8762207-10.9542236,7.3848267-16.9837646c-1.8924561-9.8235779-6.3538208-18.9702759-12.9300842-26.5092163
		c1.1751709,7.7039185,0.4378357,15.5786743-2.1472168,22.930481L400.5831604,398.5617371z M317.250824,375.5587769
		c-6.5649414,7.5241394-11.0214233,16.6517334-12.916748,26.455719c1.500824,6.0905151,3.986145,11.8951111,7.3580627,17.1844482
		l0.0401611,0.0535889c0.9320679-7.4001465,3.565033-14.4839478,7.6924744-20.6963501l-0.0267334-0.066925
		C316.8097229,391.1382446,316.0722656,383.2626953,317.250824,375.5587769z M380.7771912,360.0913696
		c-1.3445129,6.3413086-2.7358704,12.9903564-4.1004028,19.5792542l-0.0134277,0.0869141
		c6.5979614,2.3964844,12.6010437,6.1885376,17.5992126,11.1174011l0.0200806-0.0668335
		c2.3373413-9.2310181,0.4367371-19.023468-5.1841125-26.7098999
		C386.4382324,362.5387878,383.6551819,361.1987305,380.7771912,360.0913696z M339.2682495,360.0837097
		c-2.8913269,1.1040039-5.6858826,2.4464417-8.3547668,4.0135193c-5.6208496,7.6864014-7.5214233,17.4788513-5.1841125,26.7098694
		l0.0133362,0.0668335c5.0148621-4.9452515,11.0419312-8.7449646,17.6661072-11.1374817l-0.0200806-0.0869141
		C342.0174561,373.0677185,340.6194458,366.4119873,339.2682495,360.0837097z M408.1125793,432.770813
		c-1.0200806,6.8786621-3.5115356,13.4565125-7.3045654,19.28479l0.1471558-0.1404114
		c7.723114-8.0557251,12.8939819-18.213623,14.8633118-29.1982727c-2.2170105,3.5704956-4.7754211,6.91745-7.6390991,9.9936218
		L408.1125793,432.770813z M311.8312378,432.6946411c-2.8677368-3.0713196-5.430603-6.4136963-7.6524048-9.9803162
		c1.9734802,10.9913025,7.1515198,21.1541748,14.8833923,29.2116089c0.0401611,0.0401917,0.0870056,0.0735779,0.1270752,0.1204224
		c-3.7949219-5.8322449-6.286499-12.4148865-7.3045654-19.2982178L311.8312378,432.6946411z"/>
</g>
</svg>
