<?xml version="1.0" encoding="utf-8"?>
<!-- Generator: Adobe Illustrator 22.0.1, SVG Export Plug-In . SVG Version: 6.00 Build 0)  -->
<svg version="1.1" id="Layer_1" xmlns="http://www.w3.org/2000/svg" xmlns:xlink="http://www.w3.org/1999/xlink" x="0px" y="0px"
	 width="720px" height="720px" viewBox="0 0 720 720" style="enable-background:new 0 0 720 720;" xml:space="preserve">
<style type="text/css">
	.st0{fill:#FFFFFF;}
	.st1{fill:#9EA2A2;}
	.st2{fill:#1D428A;}
	.st3{fill:#F58426;}
</style>
<g>
	<path class="st0" d="M420.1989441,133.7675476l-1.5402222-10.782814h0.0001526l4.3834229,0.8096695l2.0614014,10.5400848
		L420.1989441,133.7675476z M397.8788452,145.1179352l-2.4413147-25.7313538l-4.4542236-0.4974136v0.0001602l2.3138733,25.8699493
		L397.8788452,145.1179352z M623.1340942,281.9880371l33.1652832,72.7650757l-81.1472168,83.553772
		c0,0-29.4481812-18.4524536-49.8405151-26.5456848l-24.7684326,28.2930908
		c-2.7915039,58.8148193-42.8134155,110.4027405-99.0588989,127.7220764l-42.5617371,54.8978882l-42.9467468-55.7714844
		c-54.6385803-18.0301514-92.6687622-67.4116821-96.1860504-124.8565979l-29.7738342-28.8483887
		c-25.3312225,10.9143982-47.5747986,22.4730835-47.5747986,22.4730835l-79.8956451-80.191803l33.6762543-73.8241577L36,203.4473267
		h95.8082428l18.5486145-40.3920441l47.4339905-19.1409302l5.2646942-14.3131866l38.4448242,17.5638428l9.1446533-31.9510193
		l6.271637-2.0882111c30.4107971-10.1295929,65.4568176-15.5867844,101.3322754-15.7864532
		c1.0292664-0.066658,12.4322815,0.1333237,12.6987915,0.1333237c1.3402405,0,6.9381104,0.3034897,6.9381104,0.3034897
		c30.351593,1.4660873,58.859314,6.5159683,84.7458496,15.0166473l6.3606567,2.0953827l8.4190063,30.4699402l13.8392334-10.4552307
		l77.7113953,27.6266022l18.7484741,40.9325256H684L623.1340942,281.9880371z M437.1116333,118.8081512
		c0,0,5.7080688,27.8194122,8.8625488,41.9402618l9.0472107,1.7702179l-3.0312195-13.10849l5.5650024,1.2495117
		l3.4825134,13.1665344l8.9316101,2.0016174l-5.4260864-18.7774658l-3.5751953-3.9336853l1.9322205-2.7768402l-4.1188354-15.4222031
		c-4.0874329-1.2365952-7.925293-2.3140335-7.925293-2.3140335l3.8641663,15.9199371l-1.4924011,2.059494l-3.1007385-0.6248322
		c0-0.0017548-3.1809387-12.8022842-4.7982178-19.0221024c-3.6311646-1.1699371-8.216156-2.1290359-8.216156-2.1290359
		L437.1116333,118.8081512z M409.2467651,113.3216171l0.0057373,0.0030289l5.7618103,42.5072174l8.677063,1.076004
		l-1.8512268-12.4836578l5.2179565,0.5784302l2.3717651,12.8077087l8.7008362,1.5040436l-2.630127-15.3671875l-3.0449219-3.6330719
		l1.7238159-2.3948822l-2.9854431-15.4686127l-5.3669128-6.2014771L409.2467651,113.3216171z M383.0704651,115.2336044
		c0.6811218,11.1293564,1.2458496,22.2931595,2.0824585,33.3557053l4.7089233,5.1253204l13.0504456,0.879364l4.0378418-6.1665497
		c-1.0959473-10.1224213-2.8883362-20.5178604-3.806427-31.3654251l-4.7330017-5.1257935l-10.8745117-1.0642014l0.0001526-0.0001602
		h-0.0015869l0.0014343,0.0001602C386.099762,112.4269409,384.2625732,113.6638565,383.0704651,115.2336044z
		 M357.9642639,136.1863556l4.8128967,4.9171906l1.5966797,0.1156311l0.0810242,11.4540558l7.9602051,0.2313995
		l-0.2197571-11.4309387l1.4924011-0.0810089l4.5006409-4.4889984l-0.9603882-26.7378311
		c-2.1990356-0.1849976-7.1036377-0.347023-7.1036377-0.347023l0.2776489,23.6948242l-4.6625061,0.0346069l-0.0695496-23.833252
		c0,0-4.8277283-0.1157837-7.4045715-0.1157837l-0.0003052-0.0001602L357.9642639,136.1863556z M312.009613,113.3594131
		l-5.5766602,37.8789902l4.2461243,4.0493164l9.6839905-0.9023285l4.1767578-3.5519104l3.2973633,2.869339l8.8973083-0.5321808
		l5.183197-5.16008l2.1634827-37.7866516h-0.0004578c-2.6878662,0.1628265-4.2894897,0.1180115-7.3696594,0.4511642
		l-2.6263123,33.1359482l-5.1485901,0.4627991l3.0082397-33.2745285l-7.2199097,0.7056885l-4.0957336,33.5174179
		l-5.2410889,0.578598l3.945343-33.4482117L312.009613,113.3594131z M289.6118164,117.6050491
		c-1.703064,9.803772-8.561615,41.5701218-8.561615,41.5701218c6.1239929-1.0662842,12.5410767-1.9802551,18.9167175-2.7651978
		c0.459137-2.6360168,1.3652954-8.5384827,1.3652954-8.5384827l-9.1172485,1.3305359l1.6777344-8.7580719l8.885498-1.272644
		c0.5922852-3.2284851,0.7552795-4.3918762,1.2957458-7.7980194c-3.8622437,0.5106506-5.8466187,0.8257904-9.0987244,1.4110718
		l1.6081848-9.1515121l8.8505859-1.666069l1.2493591-7.8323059l0.0004578-0.0001602l-0.0003052-0.0004807l-0.0001526,0.0006409
		L289.6118164,117.6050491z M249.1617126,165.849823l9.021698-2.0614319l7.2565918-24.9191284l2.8670959,6.2132721
		l-4.2354431,17.3196716l9.2350769-1.8185272l9.5663147-41.5434875c0.0007935-0.0001602,0.0020752-0.0004807,0.0028687-0.0006409
		l-0.002533-0.000473l-0.0003357,0.0011139c-2.874115,0.6446152-8.5816956,2.1628494-8.5816956,2.1628494l-2.1867676,8.4572983
		c0,0-2.4291687-4.5918655-3.4361267-6.8727264c-2.7398376,0.8219528-5.0500183,1.5244598-8.1451721,2.5684052
		C256.7618103,138.855072,252.916153,152.3585815,249.1617126,165.849823z M608.7089844,280.2365112l49.9186401-64.3623047
		l-78.901123-0.0016022l-19.6426392-43.0433807l-0.1630249-0.3259735l-0.3406372-0.125824l-65.7159424-23.4060059
		l-0.4518127-0.1629944l-0.3923035,0.2963104l-17.4305115,13.298584l-0.1778259,0.1408234l-0.0886536,0.2220001
		l-2.9916687,7.3159027c0,0-27.2414551-6.8419342-67.256012-10.8402252
		c-4.0799561-0.4073029-14.9648438-1.3032532-32.3508606-2.6730042l-1.6882324-0.1333313l-1.7548828-0.1333313l-0.4071655-0.0296478
		l-0.2888184,0.2888031l-12.9877625,12.9359436l0.0148315-13.2839203c0,0-36.8380737,2.080719-60.9622192,5.3608704
		c-24.1167908,3.2876434-47.8486176,9.2557983-47.8486176,9.2557983l-4.3614044-9.344635l-0.1406708-0.2961426l-0.2888031-0.1333313
		l-31.0105896-14.1946869l-0.8736115-0.3924866l-0.3258209,0.8959503l-3.6136169,9.8184509l-0.8144531-1.9695587
		l-0.3406525-0.8071136l-0.8144531,0.3332977l-44.375824,17.7859955l-0.3259735,0.1406555l-0.1554871,0.3259735
		l-19.5134583,42.8714752l-78.6236572-0.0016022h-0.0119591l49.4319305,64.1626282l-33.1407318,72.8106689l67.2117004,67.3080139
		l3.1321564-1.7772217c2.0213776-1.1550903,4.8870544-2.8581848,8.1303558-4.7537231
		c8.1302185-4.7980652,19.2667542-11.3513794,24.5832825-13.9207153l1.0886078-0.5183105
		c4.0659027-1.9652405,6.9401703-3.357666,15.3544159-7.0534058l35.0222626,45.4589844
		c1.8175659,56.17453,39.7549286,103.1981812,91.3720245,118.6010742l35.5270081,46.1141357l35.1656189-45.3405151
		c53.6198425-14.7093506,93.1723938-63.3416138,94.1506348-121.392395l33.1922302-42.796051
		c15.8649292,7.7827148,32.6755371,17.2565308,48.6841431,27.5111389l3.2356567,2.080719l68.0336304-70.0623779
		L608.7089844,280.2365112z"/>
	<path class="st1" d="M237.7829285,375.5155945c2.5888062-0.8611755,5.7912903-1.8901367,9.4833832-3.0149231
		c-7.7779236,14.3919678-12.8821869,30.4389954-14.6503296,47.479248l-25.0143433-32.467865
		c4.595047-1.9840698,10.1691437-4.3783264,17.0528717-7.3240662l2.7323303-1.021759
		C227.4165039,379.1587219,231.0521393,377.7446289,237.7829285,375.5155945z M491.316925,379.9066772
		c-2.5931396-0.7296143-8.5335388-2.3709717-16.8724976-4.4818115
		c6.6870728,13.1705017,11.1655579,27.6425476,12.9497986,42.9462585l23.6565552-30.5020142
		c-5.6428223-2.5661621-11.1263428-4.9046021-16.3202209-6.9109802L491.316925,379.9066772z M584.4453125,227.0450287
		l-0.0003662,0.0006409l-6.5974121,12.6026154l17.7191162,11.906662l0.2073364,0.1333313l0.0963135,0.2369843h-0.0001221
		l7.6063232,16.7731323l32.3047485-41.6527252h0.0001221L584.4453125,227.0450287z M340.535675,560.0563354l18.4240417,23.9139404
		l18.3076477-23.6051636c-5.6168213,0.7519531-11.3373108,1.1767578-17.1600342,1.1767578
		C353.4526062,561.5418701,346.9168701,561.0338135,340.535675,560.0563354z M134.7605133,227.0388031l-50.793396-0.0006256
		l31.9298096,41.4439697L134.7605133,227.0388031z M125.1210022,353.9277954
		c-7.2269287,3.7467957-14.3578415,7.678894-21.3922806,11.7661743l42.7038498,42.8425903
		c5.1758728-3.1099854,10.6603394-6.2815247,16.6953278-9.7765198l-38.006424-44.8328857L125.1210022,353.9277954z
		 M551.4019775,335.8413696c-6.7984009-2.8379211-13.6605835-5.5393372-20.5910645-8.0838013v-0.0006409l-26.401947,47.4706421
		c3.9011536,1.5144043,8.0783997,3.3063049,12.3694763,5.2562561c3.4055176,1.5474243,6.8795776,3.1930847,10.3707275,4.9111328
		c17.8352661,8.7770691,35.8662109,19.1768188,44.6655884,25.0858154
		c5.8496704-5.5980225,37.5905151-38.9146729,41.9515991-43.4907227
		c-16.7262573-9.8135071-33.9920654-18.6862488-51.7351074-26.5700684
		C558.5070801,338.8540649,554.9638062,337.328186,551.4019775,335.8413696z M291.4641418,301.2852478
		c-10.0180969,1.3254395-19.9468994,2.9720459-29.7801819,4.8824463c3.105835,10.0991211,6.9062195,23.0170288,10.2549438,34.188324
		c7.2510071-6.8768616,15.3005066-12.9104004,24.0027771-17.9543762c-1.499115-7.0333252-3.1717224-14.8224182-4.477356-21.1162109
		L291.4641418,301.2852478z M340.7399597,297.2478943l-0.0001526-0.0004578
		c-10.3000793,0.348114-20.5309448,0.9927368-30.6830139,1.9553528c0.6477966,4.2449951,1.5319519,10.0286255,2.3170471,15.1858521
		c9.1146851-3.6611328,18.7348938-6.3257141,28.7453613-7.8131714L340.7399597,297.2478943z M207.2624207,320.0746765
		c6.9306183,16.4750977,14.6854095,33.4510803,22.919281,49.252533c6.5344696-2.4067078,15.3239594-5.5830383,23.9440918-8.08078
		c0.8702698-1.2764587,1.7692566-2.5315552,2.6837158-3.7743835l-17.557312-46.433075
		C228.0045013,313.7564697,218.2211456,316.6167297,207.2624207,320.0746765z M188.9131622,326.1134949v0.0004883
		c-7.6323242,2.7257996-14.833252,5.5356445-22.0451813,8.5269775c-3.5223999,1.4611511-7.0644226,2.9707642-10.6445465,4.5472107
		c-0.7382202,0.3250122-1.4609833,0.6288147-2.2043152,0.9597473l32.9622803,46.8805847
		c0.4562683-0.3927917,2.0539246-1.2227173,4.3244171-2.3033447c2.7345734-1.3015137,6.4633331-2.9728394,10.4981384-4.7382507
		c4.7390594-2.0733948,9.8670959-4.2638245,14.2171783-6.1018066
		C207.5651093,358.5722961,197.3918304,341.6927795,188.9131622,326.1134949z M513.3389893,321.6825562
		c-11.1069031-3.6209717-21.8281555-6.6132507-33.2164917-9.4642639l-0.0006409,0.0004883l-17.2461548,44.5113831
		c1.8440247,2.4690552,3.5721436,5.0270691,5.237915,7.6291199l21.1254578,4.9674377L513.3389893,321.6825562z
		 M373.3893433,297.2124939c-0.1291809,2.5752563-0.184845,5.7503052-0.2663574,8.6083374
		c15.1790161,1.5322571,29.5747986,5.7137756,42.7215576,12.0728149l2.3775024-17.2101135
		c-15.0935059-1.8599854-29.3815002-2.9914856-44.8304749-3.4711914L373.3893433,297.2124939z M360.1073303,305.1645813
		c2.8442993,0.0003052,5.6578064,0.1262817,8.4560242,0.3090515l0.1636353-10.1584473l-11.3268127-11.7661743l0.1610718,21.6801453
		C358.4111023,305.2124023,359.253479,305.1647339,360.1073303,305.1645813z M423.8900757,322.1833191
		c9.085022,5.2243347,17.4648132,11.524231,24.9729004,18.7353516l10.1442566-33.5475464
		c-10.3514404-2.1398926-20.4016113-4.0072327-30.9605103-5.495636L423.8900757,322.1833191z"/>
	<path class="st2" d="M415.0143127,155.8318634l8.677063,1.076004l-1.8512268-12.4836578l5.2179565,0.5784302l2.3717651,12.8077087
		l8.7008362,1.5040436l-2.630127-15.3671875l-3.0449219-3.6330719l1.7238159-2.3948822l-2.9854431-15.4686127l-5.3669128-6.2014771
		l-16.5803528-2.9275436l0.0057373,0.0030289L415.0143127,155.8318634z M418.6588745,122.9847336l4.3834229,0.8096695
		l2.0614014,10.5400848l-4.9047546-0.5669403l-1.5402222-10.782814H418.6588745z M658.6276245,215.8742065l-78.901123-0.0016022
		l-19.6426392-43.0433807l-0.1630249-0.3259735l-0.3406372-0.125824l-65.7159424-23.4060059l-0.4518127-0.1629944
		l-0.3923035,0.2963104l-17.4305115,13.298584l-0.1778259,0.1408234l-0.0886536,0.2220001l-2.9916687,7.3159027
		c0,0-27.2414551-6.8419342-67.256012-10.8402252c-4.0799561-0.4073029-14.9648438-1.3032532-32.3508606-2.6730042
		l-1.6882324-0.1333313l-1.7548828-0.1333313l-0.4071655-0.0296478l-0.2888184,0.2888031l-12.9877625,12.9359436
		l0.0148315-13.2839203c0,0-36.8380737,2.080719-60.9622192,5.3608704
		c-24.1167908,3.2876434-47.8486176,9.2557983-47.8486176,9.2557983l-4.3614044-9.344635l-0.1406708-0.2961426l-0.2888031-0.1333313
		l-31.0105896-14.1946869l-0.8736115-0.3924866l-0.3258209,0.8959503l-3.6136169,9.8184509l-0.8144531-1.9695587
		l-0.3406525-0.8071136l-0.8144531,0.3332977l-44.375824,17.7859955l-0.3259735,0.1406555l-0.1554871,0.3259735
		l-19.5134583,42.8714752l-78.6236572-0.0016022h-0.0119591l49.4319305,64.1626282l-33.1407318,72.8106689l67.2117004,67.3080139
		l3.1321564-1.7772217c2.0213776-1.1550903,4.8870544-2.8581848,8.1303558-4.7537231
		c8.1302185-4.7980652,19.2667542-11.3513794,24.5832825-13.9207153l1.0886078-0.5183105
		c4.0659027-1.9652405,6.9401703-3.357666,15.3544159-7.0534058l35.0222626,45.4589844
		c1.8175659,56.17453,39.7549286,103.1981812,91.3720245,118.6010742l35.5270081,46.1141357l35.1656189-45.3405151
		c53.6198425-14.7093506,93.1723938-63.3416138,94.1506348-121.392395l33.1922302-42.796051
		c15.8649292,7.7827148,32.6755371,17.2565308,48.6841431,27.5111389l3.2356567,2.080719l68.0336304-70.0623779
		l-32.6772461-72.0583801L658.6276245,215.8742065z M434.4941101,171.9698029l8.3608093,43.9001007l2.1279297,11.1732178
		l0.7224426,3.7933502l2.8380737-3.7933502l8.3590698-11.1728973l3.959198-5.2921448l-9.5679016-35.7850342l24.3309937,5.4031219
		l9.5447693,35.5539703l-0.0904236,0.1205597l-8.3711853,11.1727448l-3.015564,4.0247498l20.1660461,16.4868774
		l19.5600281,70.0475311c-10.7289124-3.4727783-21.6002502-6.5980835-32.6034546-9.3599243l-10.4818726-47.7597961
		l-11.3960266-9.3712769l-7.7980042,10.5281067l7.8211365,41.627533
		c-10.0259094-2.0510254-20.1358948-3.820282-30.3471375-5.2642212
		c-2.3604431-18.8329468-5.8933716-46.2474518-9.0987244-70.9602203c-0.4935913-3.805481-0.978241-7.5374298-1.4507751-11.1733856
		c-3.3900452-26.0830078-6.0990906-46.7539673-6.0990906-46.7539673l-0.0083008-0.0033417L434.4941101,171.9698029z
		 M300.546936,359.894043c-2.2917175,2.8273926-4.4708252,5.7503357-6.687561,8.8783264l-0.138916-0.0462341
		c-17.3938293-3.887146-31.1029053,5.1063232-42.1139526,16.3020325c2.0574341-5.1900635,5.0157776-10.7565002,8.5308228-16.2320251
		c5.4667664-8.5159912,12.3074341-16.8059998,19.4101257-23.0704651l0.0001526-0.0001526
		c10.7515564,0.4664612,18.5625,0.2958069,30.3358154,3.9684448
		C306.3814392,353.06073,303.3765564,356.4030762,300.546936,359.894043z M239.2520447,311.0386353l0.0006409,0.0001526
		c-0.0001678,0-0.0003204,0.0001831-0.0004883,0.0001831l17.557312,46.433075
		c-0.9144592,1.2428284-1.813446,2.4979248-2.6837158,3.7743835c-8.6201324,2.4977417-17.4096222,5.6740723-23.9440918,8.08078
		c-8.2338715-15.8014526-15.9886627-32.7774353-22.919281-49.252533c10.958725-3.4579468,20.7420807-6.3182068,31.9897766-9.0357056
		L239.2520447,311.0386353z M310.0567932,299.2027893c10.1520691-0.962616,20.3829346-1.6072388,30.6830139-1.9553528
		l0.0001526,0.0004578l0.3792419,9.3275757c-10.0104675,1.4874573-19.6306763,4.1520386-28.7453613,7.8131714
		C311.5887451,309.2314148,310.7045898,303.4477844,310.0567932,299.2027893z M357.400177,283.5490112l11.3268127,11.7661743
		l-0.1636353,10.1584473c-2.7982178-0.1827698-5.6117249-0.3087463-8.4560242-0.3090515
		c-0.8538513,0.0001526-1.696228,0.047821-2.5460815,0.0645752L357.400177,283.5490112z M428.0464172,301.8754883
		l0.0003052-0.0001526v0.0001526c10.5588989,1.4884033,20.6090698,3.3557434,30.9605103,5.495636l-10.1442566,33.5475464
		c-7.5080872-7.2111206-15.8878784-13.5110168-24.9729004-18.7353516l4.1566467-20.3078308
		C428.0465698,301.8754883,428.0465698,301.8754883,428.0464172,301.8754883z M415.8445435,317.8936462
		c-13.146759-6.3590393-27.5425415-10.5405579-42.7215576-12.0728149c0.0815125-2.8580322,0.1371765-6.0330811,0.2663574-8.6083374
		l0.0022278-0.0001526c15.4489746,0.4797058,29.736969,1.6112061,44.8304749,3.4711914L415.8445435,317.8936462z
		 M271.9389038,340.3560181c-3.3487244-11.1712952-7.1491089-24.0892029-10.2549438-34.188324
		c9.8332825-1.9104004,19.762085-3.5570068,29.7801819-4.8824463l0.0001831,0.0001831
		c1.3056335,6.2937927,2.978241,14.0828857,4.477356,21.1162109
		C287.2394104,327.4456177,279.1899109,333.4791565,271.9389038,340.3560181z M285.9699707,340.5193481
		c8.2338562-7.5527344,20.223938-13.5189819,31.4346313-18.0950623v-0.0004883l16.8457031,8.3536377
		c-7.4785767,4.480072-13.4906006,9.3202515-19.7033997,14.8440857
		C304.1508179,342.7930298,298.6987305,342.0002441,285.9699707,340.5193481z M324.855896,319.9483643
		c10.1075745-3.6818542,20.8087463-5.0194092,31.8979187-5.2642212l-0.0004883-0.0003052
		c3.696228-0.0814819,7.4329834-0.0452881,11.2111816,0.069519c-9.8404541,3.4286499-19.3153687,8.4349976-28.7045288,12.7963867
		C332.8553467,323.7141418,329.1876526,322.7398987,324.855896,319.9483643z M380.1362305,316.4312439
		c31.4161072,5.3538513,61.8104858,24.1498108,79.6554565,52.7463684
		c-30.2107849-30.425293-75.5104675-28.2312012-113.9481201-38.9897766
		C345.8435669,330.1878357,368.4665527,319.4152527,380.1362305,316.4312439z M462.8757019,356.7301636l17.2461548-44.5113831
		l0.0006409-0.0004883c11.3883362,2.8510132,22.1095886,5.8432922,33.2164917,9.4642639l-24.0999146,47.644165
		l-21.1254578-4.9674377C466.4478455,361.7572327,464.7197266,359.1992188,462.8757019,356.7301636z M358.4439697,180.0256958
		l14.12677-14.1036377l0.0001526,0.0033569l31.5620422,2.256134l2.7535706,21.600708l-23.4862366-1.1453705l1.5462952,27.2319031
		l0.6345825,11.1735229l2.2733459,40.0361176l27.7093811,1.6427612l3.065979,27.9871826
		c-14.9573364-1.8067322-30.1018677-2.9506531-45.3998413-3.4246216l-14.8322754-15.1794739l0.0240784-51.062439
		l0.005249-11.1736908L358.4439697,180.0256958z M320.8888855,167.2296295l23.8680115-1.249527v-0.0006256l0.0003052,0.0006256
		h-0.0003052l-1.7357788,49.8877258l-0.3887939,11.1738586l-2.3067017,66.2972412
		c-10.2924194,0.3479919-20.511322,1.0042419-30.6479187,1.9668579l5.9754944-68.2644196l0.978241-11.1740265
		L320.8888855,167.2296295z M243.1404419,181.1482544l26.0547791-6.525528l8.2373962,39.5798187l7.2659912-42.0558777
		l22.1676636-3.2280121l0.0006409-0.0017548l-5.6382141,46.9501343l-1.3418579,11.1740112l-8.4422913,70.3014221
		l-0.058075,0.0119629c-9.862915,1.3031006-19.6281128,2.8964539-29.3062134,4.7550049l6.4674988-36.8956299l-7.8471375-38.1732483
		l-2.1609497-10.5124969l-2.3102112,10.5124969l-17.6129456,80.1497192
		c-10.7070618,2.5915222-21.2803192,5.5276794-31.7355652,8.7931519l23.9184113-88.9431915l3.0048981-11.1744843
		L243.1404419,181.1482544z M83.9671173,227.0381775l50.793396,0.0006256l-18.8635864,41.4433441L83.9671173,227.0381775z
		 M88.5983734,350.6560974l28.4211197-62.3546143l5.2584839-11.5369873l22.6647568-49.7255249l5.0935822-11.1749725
		l16.3816223-35.9405365l28.2299042-11.2687378l-18.6999512,47.2097473l-4.4263306,11.1748199l-3.1369476,7.9193726
		l9.1964874-7.91922l12.9767609-11.1746521l6.6467438-5.7235107l17.979599-51.138031l-0.0017548-0.0041504l20.0154877,8.9898071
		l-14.3729858,47.8765259l-1.917099,6.3856812l-5.0377502,4.7888184l-22.8220062,21.6943207l13.4556732,22.2137451
		l-15.595871,51.0107727c-8.2769318,2.9284973-16.4599304,6.0791626-24.5556946,9.4168701
		c-3.5710297,1.4723206-7.1282043,2.9734802-10.6616058,4.5248718c-0.223114,0.0979309-0.4490967,0.1904297-0.6720428,0.2886658
		l0.2781372-0.7999268l4.3993683-12.6531982l16.8308716-48.4078979l-5.2063293-6.0624084l-21.7743835,19.4606628l-5.688446,14.45224
		l-4.7837067,12.1536865l-14.3332825,36.4161072c-7.4270706,3.8576355-14.7511139,7.900238-21.9710236,12.1133423
		L88.5983734,350.6560974z M146.4325714,408.5365601l-42.7038498-42.8425903
		c7.0344391-4.0872803,14.1653519-8.0193787,21.3922806-11.7661743l0.000473-0.0006409l38.006424,44.8328857
		C157.0929108,402.2550354,151.6084442,405.4265747,146.4325714,408.5365601z M191.3058167,384.7251587
		c-2.2704926,1.0806274-3.8681488,1.910553-4.3244171,2.3033447l-32.9622803-46.8805847
		c0.7433319-0.3309326,1.466095-0.6347351,2.2043152-0.9597473c3.5801239-1.5764465,7.1221466-3.0860596,10.6445465-4.5472107
		c7.2119293-2.991333,14.4128571-5.801178,22.0451813-8.5269775v-0.0004883
		c8.4786682,15.5792847,18.651947,32.4588013,27.1079712,47.7716064c-4.3500824,1.8379822-9.4781189,4.0284119-14.2171783,6.1018066
		C197.7691498,381.7523193,194.04039,383.423645,191.3058167,384.7251587z M224.6545105,380.1879883l2.7323303-1.021759
		c0.0296631-0.0075073,3.6652985-1.4216003,10.3960876-3.6506348c2.5888062-0.8611755,5.7912903-1.8901367,9.4833832-3.0149231
		c-7.7779236,14.3919678-12.8821869,30.4389954-14.6503296,47.479248l-25.0143433-32.467865
		C212.1966858,385.5279846,217.7707825,383.133728,224.6545105,380.1879883z M242.8218079,451.5931702
		c-1.0173187-6.6017456-1.5225372-13.367157-1.431488-20.2243958c0.1360474-10.2294312,1.5711823-20.6543884,4.5122833-31.0112305
		c10.2948151-14.3691711,23.3404694-27.1696777,40.5867767-26.8414917v-0.0047913
		c1.1496887,0.0218506,2.3180237,0.1009521,3.5056458,0.2430725c-17.624115,27.0433655-25.9707336,57.8895264-24.6478577,88.7096863
		c0.3103638,7.2293091,1.1350098,14.4570313,2.5170593,21.6342163c2.4272461,12.6056519,6.5158081,25.0546875,12.2962646,37.0788879
		C261.255127,505.3026428,247.1986847,479.9951782,242.8218079,451.5931702z M312.2646179,541.7300415
		c-6.7866211-2.9691772-13.2858276-6.4516602-19.4000854-10.3209229
		c-7.5882874-11.074707-13.1253967-23.4910278-16.7203674-36.5634766c-2.1510315-7.822113-3.5914307-15.8795776-4.36203-24.0292664
		c-3.1849365-33.676239,5.2348633-68.9055176,23.9979858-95.4490967l0.0012817,0.0028687
		c15.0461426,4.3244324,23.236145,24.0212708,25.2798767,30.0931091
		c15.6355896,46.4890747,19.1008911,97.9659729,59.604248,144.7926636
		c-16.7426758,3.3967285-33.3941345,2.298584-49.0726318-1.8070679
		C324.9530334,546.710083,318.4833069,544.4509277,312.2646179,541.7300415z M358.9597168,583.9702759l-18.4240417-23.9139404
		c6.3811951,0.977478,12.9169312,1.4855347,19.5716553,1.4855347c5.8227234,0,11.5432129-0.4248047,17.1600342-1.1767578
		L358.9597168,583.9702759z M438.6423035,522.4175415c-10.8276062,9.7371216-22.3872375,16.3482666-33.9797363,20.9046021
		c-5.880127,2.3109741-11.7685547,4.1030273-17.5746765,5.4860229c-0.1607666-0.166626-0.3028564-0.342041-0.4624939-0.5092163
		c-30.2953186-31.7363281-40.3617554-72.8173523-51.1381836-113.3144836
		c-8.3080139-31.2386475-14.087677-54.801239-36.1091003-64.3608704l-0.0231323-0.1736755
		c2.9045715-4.0907593,6.0687866-8.0295715,9.4467163-11.8313904c2.0818176-2.3430481,4.2263184-4.645752,6.4963379-6.8648987
		l-0.0017395-0.0012817c4.6152954,1.302002,9.211792,2.8738098,13.7798767,4.6476746
		c49.8807068,19.3694763,95.9249878,65.7990417,116.0988464,116.4069824
		c1.6592102,4.1620483,3.1433411,8.3504333,4.440033,12.5558777c2.0419617,6.6229858,3.6396179,13.2823181,4.7043152,19.9316101
		C451.1947021,510.3515625,443.6775208,517.3823242,438.6423035,522.4175415z M459.1336975,498.8187256
		c-1.3555603-6.3383179-3.1316833-12.6560364-5.2812805-18.9190979c-1.4074097-4.100647-2.9776306-8.1769104-4.7011108-12.2195435
		c-20.2405396-47.4760742-61.6146545-90.2301636-108.5440369-111.88797
		c-6.8739929-3.1723633-13.8598022-5.9198608-20.9232483-8.1342163
		c5.9751892-5.3684998,12.9633484-10.5455017,20.1311035-14.9365845l0.00177,0.0036621
		c37.0763245,13.0392761,81.2741699,9.4570923,112.9885254,37.4394836c0.038269,0.0350952,0.0732117,0.070343,0.1114807,0.1054077
		c20.544342,18.8731689,25.3658447,38.4458008,25.7581482,59.3433533
		c0.1151428,6.1309814-0.1468811,12.3748779-0.5092163,18.7498779c-0.0109863,0.0800476-0.0278931,0.1583557-0.0390625,0.2384338
		C475.5952148,466.8311768,469.3956604,484.0082703,459.1336975,498.8187256z M487.3942261,418.3711243
		c-1.7842407-15.3037109-6.2627258-29.7757568-12.9497986-42.9462585
		c8.3389587,2.1108398,14.2793579,3.7521973,16.8724976,4.4818115l3.4136353,1.0514526
		c5.1938782,2.0063782,10.6773987,4.3448181,16.3202209,6.9109802L487.3942261,418.3711243z M571.8147583,410.4807739
		c-8.7993774-5.9089966-26.8303223-16.3087463-44.6655884-25.0858154c-3.4911499-1.7180481-6.96521-3.3637085-10.3707275-4.9111328
		c-4.2910767-1.9499512-8.4683228-3.7418518-12.3694763-5.2562561l26.401947-47.4706421v0.0006409
		c6.930481,2.5444641,13.7926636,5.2458801,20.5910645,8.0838013c3.5618286,1.4868164,7.1051025,3.0126953,10.6292725,4.5786133
		c17.743042,7.8838196,35.0088501,16.7565613,51.7351074,26.5700684
		C609.4052734,371.5661011,577.6644287,404.8827515,571.8147583,410.4807739z M630.3307495,350.3798828l-13.5137329,13.86026
		c-9.0485229-5.3461914-18.2502441-10.423645-27.6168823-15.214386
		c-8.1169434-4.1542664-16.3607178-8.0683289-24.6984253-11.7910461c-3.5195313-1.5713196-7.0580444-3.1032715-10.6153564-4.5963135
		c-2.0449829-0.8583069-4.0829468-1.7316284-6.1402588-2.5637817c-5.1463623-2.0881958-10.3338623-4.0796204-15.5614014-6.0048218
		l-16.9613037-55.8586121l31.7124023,9.3368225l8.8737183,24.7244263l16.0229492,7.226593l9.8352051,4.4359131
		l-4.5253906-11.2821655l-11.4063721-28.4367371l-62.1750183-43.9302368l-0.9980164-3.2418823l-3.4393311-11.1728973
		l-14.8841248-48.3525848l10.6673584-8.2375336l0.00177,0.0036621L553,179.9132538l16.2704468,35.959198l1.6853638,3.7247772
		l-11.616272-3.7249451l-19.1590576-6.1439056l-8.1912842-19.9575958l-20.2354431-7.1961517l11.3730164,31.932373
		l2.0438843,1.3644867l16.7353516,11.1728973l46.5887451,31.1035614l8.5482178,18.8455505l5.2330933,11.5369873
		L630.3307495,350.3798828z M595.8701782,251.9252625h0.0001221l-0.0963135-0.2369843l-0.2073364-0.1333313l-17.7191162-11.906662
		l6.5974121-12.6026154l0.0003662-0.0006409l51.3360596,0.0006409H635.78125l-32.3047485,41.6527252L595.8701782,251.9252625z
		 M445.9741821,160.7484131c-3.15448-14.1208496-8.8625488-41.9402618-8.8625488-41.9402618l0.0011292-0.0011139
		c0,0,4.5849915,0.9590988,8.216156,2.1290359c1.6172791,6.2198181,4.7982178,19.0203476,4.7982178,19.0221024l3.1007385,0.6248322
		l1.4924011-2.059494l-3.8641663-15.9199371c0,0,3.8378601,1.0774384,7.925293,2.3140335l4.1188354,15.4222031l-1.9322205,2.7768402
		l3.5751953,3.9336853l5.4260864,18.7774658l-8.9316101-2.0016174l-3.4825134-13.1665344l-5.5650024-1.2495117l3.0312195,13.10849
		L445.9741821,160.7484131z M306.4329529,151.2384033l5.5766602-37.8789902l7.3233948-1.0066299l-3.945343,33.4482117
		l5.2410889-0.578598l4.0957336-33.5174179l7.2199097-0.7056885l-3.0082397,33.2745285l5.1485901-0.4627991l2.6263123-33.1359482
		c3.0801697-0.3331528,4.6817932-0.2883377,7.3696594-0.4511642h0.0004578l-2.1634827,37.7866516l-5.183197,5.16008
		l-8.8973083,0.5321808l-3.2973633-2.869339l-4.1767578,3.5519104l-9.6839905,0.9023285L306.4329529,151.2384033z
		 M281.0502014,159.1751709c0,0,6.858551-31.7663498,8.561615-41.5701218l17.0715332-3.4705734l-1.2493591,7.8323059
		l-8.8505859,1.666069l-1.6081848,9.1515121c3.2521057-0.5852814,5.2364807-0.9004211,9.0987244-1.4110718
		c-0.5404663,3.4061432-0.7034607,4.5695343-1.2957458,7.7980194l-8.885498,1.272644l-1.6777344,8.7580719l9.1172485-1.3305359
		c0,0-0.9061584,5.9024658-1.3652954,8.5384827C293.5912781,157.1949158,287.1741943,158.1088867,281.0502014,159.1751709z
		 M389.8618469,153.7146301l13.0504456,0.879364l4.0378418-6.1665497
		c-1.0959473-10.1224213-2.8883362-20.5178604-3.806427-31.3654251l-4.7330017-5.1257935l-10.8745117-1.0642014
		c-1.4364319,1.5549164-3.2736206,2.791832-4.4657288,4.3615799c0.6811218,11.1293564,1.2458496,22.2931595,2.0824585,33.3557053
		L389.8618469,153.7146301z M390.9833069,118.8891678l4.4542236,0.4974136l2.4413147,25.7313538l-4.581665-0.3586578
		l-2.3138733-25.8699493V118.8891678z M258.1834106,163.7883911l-9.021698,2.0614319
		c3.7544403-13.4912415,7.6000977-26.994751,11.3615723-40.4938049c3.0951538-1.0439453,5.4053345-1.7464523,8.1451721-2.5684052
		c1.006958,2.2808609,3.4361267,6.8727264,3.4361267,6.8727264l2.1867676-8.4572983c0,0,5.7075806-1.5182343,8.5816956-2.1628494
		l-9.5663147,41.5434875l-9.2350769,1.8185272l4.2354431-17.3196716l-2.8670959-6.2132721L258.1834106,163.7883911z
		 M362.7771606,141.1035461l-4.8128967-4.9171906l0.3007813-26.5872879l0.0003052,0.0001602
		c2.5768433,0,7.4045715,0.1157837,7.4045715,0.1157837l0.0695496,23.833252l4.6625061-0.0346069l-0.2776489-23.6948242
		c0,0,4.9046021,0.1620255,7.1036377,0.347023l0.9603882,26.7378311l-4.5006409,4.4889984l-1.4924011,0.0810089
		l0.2197571,11.4309387l-7.9602051-0.2313995l-0.0810242-11.4540558L362.7771606,141.1035461z M282.8759155,119.0395508
		c-0.0007935,0.0001602-0.0020752,0.0004807-0.0028687,0.0006409l0.0003357-0.0011139L282.8759155,119.0395508z"/>
	<path class="st3" d="M630.3307495,350.3798828l-13.5137329,13.86026
		c-9.0485229-5.3461914-18.2502441-10.423645-27.6168823-15.214386
		c-8.1169434-4.1542664-16.3607178-8.0683289-24.6984253-11.7910461c-3.5195313-1.5713196-7.0580444-3.1032715-10.6153564-4.5963135
		c-2.0449829-0.8583069-4.0829468-1.7316284-6.1402588-2.5637817c-5.1463623-2.0881958-10.3338623-4.0796204-15.5614014-6.0048218
		l-16.9613037-55.8586121l31.7124023,9.3368225l8.8737183,24.7244263l16.0229492,7.226593l9.8352051,4.4359131
		l-4.5253906-11.2821655l-11.4063721-28.4367371l-62.1750183-43.9302368l-0.9980164-3.2418823l-3.4393311-11.1728973
		l-14.8841248-48.3525848l10.6673584-8.2375336l0.00177,0.0036621L553,179.9132538l16.2704468,35.959198l1.6853638,3.7247772
		l-11.616272-3.7249451l-19.1590576-6.1439056l-8.1912842-19.9575958l-20.2354431-7.1961517l11.3730164,31.932373
		l2.0438843,1.3644867l16.7353516,11.1728973l46.5887451,31.1035614l8.5482178,18.8455505l5.2330933,11.5369873
		L630.3307495,350.3798828z M258.5396729,216.5280609l2.1609497,10.5124969l7.8471375,38.1732483l-6.4674988,36.8956299
		c9.6781006-1.858551,19.4432983-3.4519043,29.3062134-4.7550049l0.058075-0.0119629l8.4422913-70.3014221l1.3418579-11.1740112
		l5.6382141-46.9501343l-0.0006409,0.0017548l-22.1676636,3.2280121l-7.2659912,42.0558777l-8.2373962-39.5798187
		l-26.0547791,6.525528l-9.3361816,34.7174988l-3.0048981,11.1744843l-23.9184113,88.9431915
		c10.455246-3.2654724,21.0285034-6.2016296,31.7355652-8.7931519l17.6129456-80.1497192L258.5396729,216.5280609z
		 M213.8701019,227.0399323l5.0377502-4.7888184l1.917099-6.3856812l14.3729858-47.8765259l-20.0154877-8.9898071
		l0.0017548,0.0041504l-17.979599,51.138031l-6.6467438,5.7235107l-12.9767609,11.1746521l-9.1964874,7.91922l3.1369476-7.9193726
		l4.4263306-11.1748199l18.6999512-47.2097473l-28.2299042,11.2687378l-16.3816223,35.9405365l-5.0935822,11.1749725
		l-22.6647568,49.7255249l-5.2584839,11.5369873l-28.4211197,62.3546143l12.1713867,12.2056885
		c7.2199097-4.2131042,14.5439529-8.2557068,21.9710236-12.1133423l14.3332825-36.4161072l4.7837067-12.1536865l5.688446-14.45224
		l21.7743835-19.4606628l5.2063293,6.0624084l-16.8308716,48.4078979l-4.3993683,12.6531982l-0.2781372,0.7999268
		c0.2229462-0.0982361,0.4489288-0.1907349,0.6720428-0.2886658c3.5334015-1.5513916,7.0905762-3.0525513,10.6616058-4.5248718
		c8.0957642-3.3377075,16.2787628-6.4883728,24.5556946-9.4168701l15.595871-51.0107727l-13.4556732-22.2137451
		L213.8701019,227.0399323z M418.6298523,296.708374l-3.065979-27.9871826l-27.7093811-1.6427612l-2.2733459-40.0361176
		l-0.6345825-11.1735229l-1.5462952-27.2319031l23.4862366,1.1453705l-2.7535706-21.600708l-31.5620422-2.256134
		l-0.0001526-0.0033569l-14.12677,14.1036377l-0.0169067,35.842453l-0.005249,11.1736908l-0.0240784,51.062439
		l14.8322754,15.1794739C388.5279846,293.7577209,403.6725159,294.9016418,418.6298523,296.708374z M473.6923218,231.0681915
		l3.015564-4.0247498l8.3711853-11.1727448l0.0904236-0.1205597l-9.5447693-35.5539703l-24.3309937-5.4031219l9.5679016,35.7850342
		l-3.959198,5.2921448l-8.3590698,11.1728973l-2.8380737,3.7933502l-0.7224426-3.7933502l-2.1279297-11.1732178
		l-8.3608093-43.9001007l-22.5379639-2.8576965l0.0083008,0.0033417c0,0,2.7090454,20.6709595,6.0990906,46.7539673
		c0.4725342,3.6359558,0.9571838,7.3679047,1.4507751,11.1733856c3.2053528,24.7127686,6.7382813,52.1272736,9.0987244,70.9602203
		c10.2112427,1.4439392,20.321228,3.2131958,30.3471375,5.2642212l-7.8211365-41.627533l7.7980042-10.5281067l11.3960266,9.3712769
		l10.4818726,47.7597961c11.0032043,2.7618408,21.8745422,5.887146,32.6034546,9.3599243l-19.5600281-70.0475311
		L473.6923218,231.0681915z M342.6323242,227.041687l0.3887939-11.1738586l1.7357788-49.8877258l-23.8680115,1.249527
		l-4.2574463,48.6377106l-0.978241,11.1740265l-5.9754944,68.2644196c10.1365967-0.962616,20.3554993-1.618866,30.6479187-1.9668579
		L342.6323242,227.041687z M445.1750183,472.8070068c-20.1738586-50.6079407-66.2181396-97.0375061-116.0988464-116.4069824
		c-4.5680847-1.7738647-9.1645813-3.3456726-13.7798767-4.6476746l0.0017395,0.0012817
		c-2.2700195,2.2191467-4.4145203,4.5218506-6.4963379,6.8648987c-3.3779297,3.8018188-6.5421448,7.7406311-9.4467163,11.8313904
		l0.0231323,0.1736755c22.0214233,9.5596313,27.8010864,33.1222229,36.1091003,64.3608704
		c10.7764282,40.4971313,20.842865,81.5781555,51.1381836,113.3144836c0.1596375,0.1671753,0.3017273,0.3425903,0.4624939,0.5092163
		c5.8061218-1.3829956,11.6945496-3.1750488,17.5746765-5.4860229
		c11.5924988-4.5563354,23.1521301-11.1674805,33.9797363-20.9046021
		c5.0352173-5.0352173,12.5523987-12.065979,15.677063-17.1230469c-1.0646973-6.649292-2.6623535-13.3086243-4.7043152-19.9316101
		C448.3183594,481.1574402,446.8342285,476.9690552,445.1750183,472.8070068z M265.347168,462.4640198
		c-1.322876-30.8201599,7.0237427-61.6663208,24.6478577-88.7096863c-1.1876221-0.1421204-2.355957-0.2212219-3.5056458-0.2430725
		v0.0047913c-17.2463074-0.328186-30.2919617,12.4723206-40.5867767,26.8414917
		c-2.9411011,10.356842-4.376236,20.7817993-4.5122833,31.0112305c-0.0910492,6.8572388,0.4141693,13.6226501,1.431488,20.2243958
		c4.3768768,28.4020081,18.4333191,53.7094727,37.3386841,69.5839539
		c-5.7804565-12.0242004-9.8690186-24.4732361-12.2962646-37.0788879
		C266.4821777,476.921051,265.6575317,469.6933289,265.347168,462.4640198z M295.7814026,375.3701477l-0.0012817-0.0028687
		c-18.7631226,26.5435791-27.1829224,61.7728577-23.9979858,95.4490967
		c0.7705994,8.1496887,2.2109985,16.2071533,4.36203,24.0292664c3.5949707,13.0724487,9.1320801,25.4887695,16.7203674,36.5634766
		c6.1142578,3.8692627,12.6134644,7.3517456,19.4000854,10.3209229c6.218689,2.7208862,12.6884155,4.9800415,19.3282776,6.718811
		c15.6784973,4.1056519,32.3299561,5.2037964,49.0726318,1.8070679
		c-40.5033569-46.8266907-43.9686584-98.3035889-59.604248-144.7926636
		C319.0175476,399.3914185,310.8275452,379.6945801,295.7814026,375.3701477z M452.9169006,370.2698669
		c-0.038269-0.0350647-0.0732117-0.0703125-0.1114807-0.1054077
		c-31.7143555-27.9823914-75.9122009-24.4002075-112.9885254-37.4394836l-0.00177-0.0036621
		c-7.1677551,4.3910828-14.1559143,9.5680847-20.1311035,14.9365845c7.063446,2.2143555,14.0492554,4.961853,20.9232483,8.1342163
		c46.9293823,21.6578064,88.3034973,64.4118958,108.5440369,111.88797
		c1.7234802,4.0426331,3.2937012,8.1188965,4.7011108,12.2195435c2.1495972,6.2630615,3.9257202,12.58078,5.2812805,18.9190979
		c10.2619629-14.8104553,16.4615173-31.9875488,18.9930725-50.2171936c0.0111694-0.0800781,0.0280762-0.1583862,0.0390625-0.2384338
		c0.3623352-6.375,0.6243591-12.6188965,0.5092163-18.7498779
		C478.2827454,408.7156677,473.4612427,389.1430359,452.9169006,370.2698669z M334.2503052,330.7774353l-16.8457031-8.3536377
		v0.0004883c-11.2106934,4.5760803-23.2007751,10.5423279-31.4346313,18.0950623
		c12.7287598,1.480896,18.1808472,2.2736816,28.5769348,5.1021729
		C320.7597046,340.0976868,326.7717285,335.2575073,334.2503052,330.7774353z M279.5474548,345.7256775
		c-7.1026917,6.2644653-13.9433594,14.5544739-19.4101257,23.0704651
		c-3.5150452,5.4755249-6.4733887,11.0419617-8.5308228,16.2320251
		c11.0110474-11.1957092,24.7201233-20.1891785,42.1139526-16.3020325l0.138916,0.0462341
		c2.2167358-3.1279907,4.3958435-6.0509338,6.687561-8.8783264c2.8296204-3.4909668,5.8345032-6.833313,9.3364868-10.2000732
		c-11.7733154-3.6726379-19.584259-3.5019836-30.3358154-3.9684448L279.5474548,345.7256775z M459.791687,369.1776123
		c-17.8449707-28.5965576-48.2393494-47.3925171-79.6554565-52.7463684
		c-11.6696777,2.9840088-34.2926636,13.7565918-34.2926636,13.7565918
		C384.2812195,340.9464111,429.5809021,338.7523193,459.791687,369.1776123z M324.855896,319.9483643
		c4.3317566,2.7915344,7.9994507,3.7657776,14.4040833,7.6013794c9.3891602-4.3613892,18.8640747-9.3677368,28.7045288-12.7963867
		c-3.7781982-0.1148071-7.5149536-0.151001-11.2111816-0.069519l0.0004883,0.0003052
		C345.6646423,314.9289551,334.9634705,316.26651,324.855896,319.9483643z"/>
</g>
</svg>
