<?xml version="1.0" encoding="utf-8"?>
<!-- Generator: Adobe Illustrator 22.0.1, SVG Export Plug-In . SVG Version: 6.00 Build 0)  -->
<svg version="1.1" id="Layer_1" xmlns="http://www.w3.org/2000/svg" xmlns:xlink="http://www.w3.org/1999/xlink" x="0px" y="0px"
	 width="720px" height="720px" viewBox="0 0 720 720" style="enable-background:new 0 0 720 720;" xml:space="preserve">
<style type="text/css">
	.st0{fill:#FFFFFF;}
	.st1{fill:#F05333;}
	.st2{fill:#FCBB30;}
	.st3{fill:#1E3160;}
	.st4{fill:#0A7EC2;}
</style>
<g>
	<path class="st0" d="M676.130188,281.5122986c-39.1292725,3.1043396-79.5449219,9.012146-120.7866821,17.7705688
		c2.6913452-7.1224976,5.2484131-14.3800659,7.6624146-21.7961426
		c38.6610718-7.0192566,76.8212891-13.157196,114.2910156-18.4527588
		c7.7421265-0.8106384,7.7421265-10.0927429-0.3251953-10.6440125c-33.6987915-2.624649-68.7302246-3.350708-104.6918335-2.0928497
		c1.4610596-5.4980316,2.8661499-11.0050049,4.2166748-16.5233917
		c-72.3119202-37.2275238-133.4357605-57.8048859-215.5297852-57.8122253
		c-82.109436,0-143.2252045,20.5765686-215.5288696,57.8040924l5.7012482,22.9751892
		c7.2177429,29.0495453,16.9916992,56.2210236,29.1561432,81.6377716
		c-49.7847137,21.2872314-95.9886398,45.5762939-137.8182068,72.1923523
		c-11.9099445,7.0266113-5.6370888,13.9345093,4.6849365,9.552002
		c41.1620522-14.9598083,83.6819458-29.2991943,127.344986-42.9645691
		c-8.2340546,17.3331604-16.2298126,34.7622681-24.019104,52.2784424
		c-6.0265656,13.632843-16.4916382,34.5638733,3.6921692,43.3377686c1.9611359,0.5082092,3.9303894,0.8651428,5.971283,1.0236511
		c-30.8318939,21.3677368-59.5676727,43.8695984-85.9528503,67.1504822
		c-10.6635513,9.4569092-2.69133,14.3085327,6.1460114,8.7186279
		c58.4716644-32.3409424,120.2142792-63.8395691,184.7124329-93.9649353
		c29.1886902,28.370697,61.0125427,51.6117249,95.9098206,72.558197
		c78.5286255-47.0779724,137.4612732-102.6509399,177.6151733-185.697876
		c47.1804199-17.0160828,93.7974854-32.5548401,139.5565796-46.5852356
		C686.3171997,290.2309265,686.1976929,280.5992126,676.130188,281.5122986z"/>
	<path class="st1" d="M187.608963,337.1251526c1.7066345,3.4466248,3.4856873,6.8770142,5.2801514,10.2593994
		c-2.7718201,5.6687927-5.5265198,11.3220825-8.2584534,17.0079956
		c-47.8715515,14.776001-94.3608398,30.3708496-139.294754,46.6958313
		C88.4037933,383.7104187,136.1086731,358.7781982,187.608963,337.1251526z M565.1573486,251.9268646
		c-1.9927979,7.0948944-4.0808716,14.0385895-6.2728882,20.8513336
		c39.8440552-7.2493591,79.1164551-13.5857239,117.6660767-19.0446625
		C640.7483521,250.9381561,603.4849854,250.3071899,565.1573486,251.9268646z"/>
	<path class="st0" d="M554.7556763,239.6437073C523.3051147,358.143219,465.77005,437.7515869,360.9749451,502.4245605
		c-39.3513184-24.3442993-72.8191833-51.5003052-100.7850342-82.442749
		c12.4262695-5.9078674,26.4567566-12.569397,38.7797852-18.3893433c4.9865723,0.4520264,9.7585449,0.7065125,14.2134094,0.8170776
		c-0.269928,6.829071-2.4221802,11.8474121-5.867981,15.4281921c2.0090637,2.2944641,4.041748,4.5816345,6.0899048,6.8363342
		c5.4232178-4.8589172,8.9170532-12.0449219,9.2032166-22.2246399c12.7442017-0.2138672,25.0428162-1.5164185,36.4771118-3.9539795
		c-0.6513062,18.6836548-3.2555847,32.427948-8.5672913,37.8747559c-0.1912231,0.1748047-0.2936401,0.3178406-0.3733521,0.4845886
		c-1.3341675,1.4131165-2.5253906,2.5725403-3.5417175,3.4856262c5.1296997-0.9529114,10.179718-2.1440735,15.1581726-3.5417175
		c6.4078979-13.2597046,6.494873-36.5087891,6.5900269-40.542511c11.8944702-2.9856262,22.479187-5.994812,32.0075989-9.2504272
		c0.3731995,10.9099121,4.7320862,21.3351746,13.0612488,25.1704712c3.7555847-2.6359863,7.3925171-5.4468079,10.9180298-8.3609009
		c-2.1123657,0.3097839-15.3086548,1.2229309-15.1021118-19.9699402
		c27.8861389-10.5204163,46.037262-23.2011719,62.0125732-42.1141968
		c4.2166138-9.5283813,7.6226196-19.525238,10.0367126-29.8716125
		c-19.1204224,30.141571-36.7235413,47.7528381-71.1044922,61.5523682
		c0.9919739-6.0736694,2.7628479-13.3628845,5.5736084-22.0498352c10.0366516-4.2084961,20.5099487-9.2186279,26.8063965-11.822937
		l15.0305176-15.7769775c3.7881165-14.6020813,7.5355835-29.1959534,11.2912292-43.7898865l-11.7514038,3.6596985
		l13.8157959-14.5305176c2.8905945-11.4180298,5.7484436-22.8515472,8.6072388-34.27771
		c-6.931488,1.0122375-13.8717957,2.0448914-20.7871704,3.1164856c1.158783-5.7085876,1.976593-11.3700867,2.4213562-17.0193024
		c-3.3270874-0.8423767-6.6777344-1.6400146-10.0438538-2.3986206c-0.7147827,6.3485413-1.9457703,13.3873596-3.8272095,21.228653
		l-0.9610901,0.1585388c-6.494873,1.0879364-13.1409302,3.2116547-18.921936,8.0950012l1.8506165-5.6216278
		c-11.1399841,2.0132141-22.2409668,4.057312-33.3573608,6.2135773l-11.0521545,11.6205139l0.3731995-0.9448242l3.58078-9.2943115
		c-10.9895325,2.2433014-21.9546509,4.5654144-32.9198608,6.9518433
		c-2.2871704-14.8126221-4.5735474-28.1959229-6.5744934-39.0228577c-3.1051636,0.3618622-6.2095032,0.7822113-9.3065186,1.2309875
		c2.0092163,10.9692535,4.3516235,24.6704102,6.6704712,39.8400269l-7.765686,1.7391663l-9.8780518,10.4016724
		c-6.9233704-7.3127747-20.9700928-2.70755-29.8155823-0.4764404c-9.5910339,2.4294128-19.1828308,4.930481-28.7511902,7.5193176
		c-2.8587952,0.7862244-5.7086487,1.6594849-8.4958801,2.6124268
		c-7.1778564-10.3545837-13.9190216-21.0058594-19.4772797-32.4995117l-1.0163116-2.1319275
		c-2.8904724,1.1911774-5.7810059,2.401825-8.6389465,3.664566l1.2228546,2.5490112
		c5.4232178,11.226944,11.957901,21.7319183,18.9926453,31.9116364
		c-10.3219604,4.597168-19.8658905,10.9814453-28.1242828,20.0805664c0,0-13.4345245,14.070343-15.0069733,15.7932434
		c-3.4938202,4.0092773-6.503006,8.2657471-9.1471252,12.6164856
		c-14.1020203-28.3934631-25.2891693-59.2733154-33.674408-93.0908356
		c64.2761536-32.0384674,121.2151947-49.0505066,193.844101-49.0342407
		C433.5648193,190.6330109,490.4875793,207.6125031,554.7556763,239.6437073z M400.7319946,376.9692078
		c0.6268311-6.1696167,1.976593-13.2361145,4.2239075-21.4221497c-3.4620972,1.1984558-6.6379395,2.0960999-9.2267456,2.5245972
		c-1.6993713,0.1748047-3.2075195,0.1268616-4.5256348-0.0951538l-3.1368103,3.2637329
		c-6.6453247,2.9213562-13.3231506,5.8199463-19.9927979,8.7739258c0.2382202,5.7248535,0.3650513,11.2432251,0.3805847,16.5387878
		C380.5798645,383.4884033,391.2352295,380.3361206,400.7319946,376.9692078z M358.9503784,374.0713806l-5.2801514,2.3343506
		c-2.3025818-4.7483826-3.5734558-6.598114-5.89151-11.2985229l-3.581604,9.8935242l-16.0867615,12.9344482l-6.2729187,2.9058838
		l0.2943726,2.3026733c12.9425354-0.2064819,25.4801636-1.6277466,37.0966187-4.2800598
		C359.2284241,384.1234436,359.1406555,379.1766663,358.9503784,374.0713806z"/>
	<path class="st1" d="M368.4544983,386.552948c-0.0155334-5.2955627-0.1423645-10.8139343-0.3805847-16.5387878
		c6.6696472-2.9539795,13.3474731-5.8525696,19.9927979-8.7739258l3.1368103-3.2637329
		c1.3181152,0.2220154,2.8262634,0.2699585,4.5256348,0.0951538c2.5888062-0.4284973,5.7646484-1.3261414,9.2267456-2.5245972
		c-2.2473145,8.1860352-3.5970764,15.252533-4.2239075,21.4221497
		C391.2352295,380.3361206,380.5798645,383.4884033,368.4544983,386.552948z M400.3587952,387.013916
		c-9.5202637,3.2556152-20.1049805,6.264801-31.9994507,9.2504272c-0.0951843,4.0336304-0.1902771,27.2746582-6.5900574,40.5343628
		c18.7227478-5.2801514,36.1274719-13.6727295,51.6507568-24.6143188
		C405.0908813,408.3409424,400.7319946,397.9156799,400.3587952,387.013916z M313.4050293,424.6740723
		c5.558197,6.0899353,11.3147888,12.0530701,17.2543335,17.8340149c5.3833923-0.4845886,10.7115784-1.2073975,15.943634-2.1676636
		c1.0163269-0.9130859,2.20755-2.0725098,3.5417175-3.4856262c0.0797119-0.166748,0.1902771-0.3097839,0.3733521-0.476532
		c5.3117065-5.4467468,7.9159851-19.1918335,8.5672913-37.8828125c-11.4342957,2.4456787-23.7329102,3.7401123-36.4771118,3.9539795
		C322.3302002,412.6372681,318.8363953,419.815155,313.4050293,424.6740723z M232.8518524,249.8152771
		c-4.3751526,1.893631-8.7341003,3.8628998-13.0694427,5.9110565c3.9458618,13.8044586,8.5357056,27.3023224,13.7361603,40.4749908
		c6.0663757-4.9621582,12.6328888-8.8446655,19.5569153-11.9262085
		c-7.0428162-10.178894-13.5775604-20.6838684-18.9926453-31.9075623L232.8518524,249.8152771z M329.0551758,271.1268311
		l9.8780518-10.4017029l7.765686-1.7431946c-2.3188477-15.1655426-4.6612549-28.866684-6.6704712-39.8359528
		c-33.7850037,4.8711395-66.5227356,13.8995514-98.5295105,27.0006714l1.0163116,2.1359863
		c5.5582581,11.4896088,12.2994232,22.1449432,19.4772797,32.499527c2.7872314-0.9529724,5.637085-1.8262329,8.4958801-2.6124573
		c9.5683594-2.5888062,19.1601563-5.0898743,28.7511902-7.5193176
		C308.085083,268.4111633,322.1318054,263.8132019,329.0551758,271.1268311z M295.2539063,403.3470459
		c3.914978,4.9150696,7.9404907,9.7503967,12.0612183,14.4906921c3.4458008-3.58078,5.598053-8.5991211,5.867981-15.4281921
		c-4.4467163-0.103241-9.218689-0.3569336-14.2134094-0.8170776L295.2539063,403.3470459z M353.6702271,376.4057312
		c-2.3025818-4.7483826-3.5734558-6.598114-5.89151-11.2985229l-3.581604,9.8935242l-16.0867615,12.9344482l-6.2729187,2.9058838
		l0.2943726,2.3026733c12.9425354-0.2064819,25.4801636-1.6277466,37.0966187-4.2800598
		c0-4.7402344-0.0877686-9.6870117-0.2780457-14.7922974L353.6702271,376.4057312z M454.0146179,219.1881256
		c2.395813,0.5568695,4.7853088,1.1474304,7.1725159,1.7489777c0.0003357-0.0043335,0.000885-0.0085907,0.0011902-0.0129395
		C458.8092651,220.3195496,456.4148254,219.7470093,454.0146179,219.1881256z M451.1408081,218.5526886
		c0.9300842,0.2088776,1.8633728,0.4008179,2.7921143,0.6165009c-0.9292908-0.216156-1.8566284-0.4368286-2.7884521-0.6468353
		C451.1433411,218.5323486,451.1419373,218.5426941,451.1408081,218.5526886z M479.2362976,225.9189606
		c-5.9880371-1.8051453-12.0059204-3.4589539-18.0491638-4.9818573c-0.4449768,5.6457672-1.2622681,11.3029938-2.420166,17.0072479
		c6.9153748-1.0756683,13.8556824-2.104248,20.7871704-3.1165619c-2.8587952,11.426239-5.7166443,22.8596802-8.6072388,34.2737122
		l-13.8157959,14.5305176l11.7514038-3.6596985c-3.7556458,14.5939331-7.5031128,29.1878052-11.2912292,43.7898865
		l-15.0305176,15.7851257c-6.2964478,2.5961609-16.7697449,7.6062927-26.8063965,11.8147888
		c-2.8107605,8.6869507-4.5816345,15.9761658-5.5736084,22.0498352
		c34.3809509-13.79953,51.9840698-31.4107971,71.1044922-61.5523682
		c2.9457092-12.5531006,4.4938049-25.6152039,4.4938049-39.0578003
		C485.7790527,256.5483704,483.4926758,240.8145447,479.2362976,225.9189606z M400.0725708,214.886261
		c-17.1900635,0-34.0947876,1.0123138-50.7376099,3.0205994c2.000946,10.8269348,4.287323,24.2142944,6.5744934,39.0228577
		c10.96521-2.3864288,21.9303284-4.704483,32.9198608-6.9477844l-3.58078,9.2935181l-0.3731995,0.9415588l11.0521545-11.6164551
		c11.116394-2.1603241,22.2173767-4.2003479,33.3573608-6.2176361l-1.8506165,5.6256866
		c5.7810059-4.8833466,12.427063-7.0070648,18.921936-8.0950012l0.9610901-0.1585236
		c1.8785095-7.8330383,3.1082764-14.8576355,3.8235474-21.2023926c-1.884613-0.4233551-3.7680054-0.853653-5.6578979-1.2491302
		C430.5475159,215.6920319,415.4291687,214.886261,400.0725708,214.886261z M454.0146179,219.1881256
		c-0.0272217-0.0063324-0.0544128-0.0126038-0.0816956-0.0189362
		C453.9601135,219.1755219,453.9873962,219.1817932,454.0146179,219.1881256z M409.2359619,383.8453979
		c-0.206543,21.2009888,12.9897461,20.2797241,15.1021118,19.9780884
		c20.0407104-16.714386,36.1990356-37.9145813,46.9104614-62.0849304
		C455.2732239,360.6523438,437.1221008,373.3249817,409.2359619,383.8453979z"/>
	<path class="st2" d="M371.7498474,477.6118774c-2.5245972,1.7147827-5.0654602,3.4141541-7.638092,5.097229
		c-30.8318787-20.8904114-58.3447571-45.4892578-82.1102295-73.09729l13.2523804-6.2647705
		c3.914978,4.9150696,7.9404907,9.7503967,12.0530701,14.4906921c2.0090942,2.3025818,4.0498962,4.5816345,6.098053,6.8363342
		C331.0089722,443.9927673,350.5018005,461.7235413,371.7498474,477.6118774z M364.7151184,208.6963043
		c-59.1228943,1.5920563-114.8154144,15.2891388-168.6021423,40.6823425
		c6.0501099,21.2237396,13.6247101,41.7490692,22.6612701,61.4564362l6.1769562-6.4786072
		c2.7156677-3.0091553,5.5817261-5.7248535,8.5673676-8.1551514c-5.2004547-13.1726685-9.7975616-26.6786804-13.7361603-40.4790649
		c4.3434753-2.0521545,8.7024231-4.0174103,13.0694427-5.9151154c2.8660736-1.258667,5.7566071-2.4693146,8.6625519-3.6604919
		c31.9913025-13.1051941,64.7209167-22.1295319,98.5221863-27.0047455c3.080719-0.448761,6.1932068-0.8731842,9.2983704-1.238327
		c16.6428223-2.0131378,33.5475464-3.0254517,50.7538757-3.0254517c15.340332,0,30.4586792,0.8139038,45.3940735,2.4254303
		C419.2245789,211.8209991,392.3629761,208.9346008,364.7151184,208.6963043z"/>
	<path class="st3" d="M360.9667969,177.3326874c-78.7823181,0-139.7793274,19.4772797-209.3112335,55.2681427l4.6685944,18.845459
		c8.6154022,34.6477051,20.9148254,66.5747986,36.5649567,95.9456177
		c-13.030426,26.4965515-25.52005,53.2630615-37.4861603,80.2279358
		c-4.7166138,10.6480713-14.8556976,29.3708191,0.5317993,36.0567627
		c14.0938873,3.6685486,27.6559753-5.7883606,39.891983-12.0132751c10.8302155-5.5183716,21.716507-10.9732666,32.6027527-16.381073
		c3.5889282-1.7781677,10.5683746-5.161377,19.3577728-9.3690491
		c31.6262512,35.4526062,69.6596069,66.0063782,113.1795349,92.0826416
		c115.3553467-69.14328,177.0036621-155.2945557,209.2803955-285.3950195
		C500.7624817,196.8058929,439.749939,177.3326874,360.9667969,177.3326874z M360.9749451,502.4245605
		c-39.3594666-24.3362122-72.8191833-51.5003052-100.7931519-82.4346313
		c12.4343872-5.9078369,26.4567261-12.5775146,38.7805481-18.3974609c4.993927,0.460144,9.7658997,0.7138367,14.2207642,0.8170776
		c-0.269928,6.829071-2.4295044,11.8474121-5.8761292,15.4281921c2.0090942,2.2944641,4.0498962,4.5816345,6.0907288,6.8363342
		c5.430542-4.8589172,8.9243774-12.0368042,9.2024231-22.2246399c12.7523193-0.2138672,25.0509338-1.5083008,36.4771118-3.9539795
		c-0.6431885,18.690979-3.247467,32.427948-8.5591736,37.8828125c-0.1912231,0.166748-0.3017883,0.3097839-0.3733521,0.476532
		c-1.3422852,1.4131165-2.5253906,2.5725403-3.5417175,3.4856262c5.1296997-0.9447632,10.1715698-2.1359253,15.1581726-3.5417175
		c6.4078979-13.2597046,6.494873-36.5007324,6.5900269-40.5343628c11.8944702-2.9937744,22.479187-5.994812,31.9994507-9.2504272
		c0.3813477,10.9017639,4.7320862,21.3270264,13.069397,25.1704712c3.7483215-2.6441345,7.3925171-5.4549561,10.9180298-8.3690491
		c-2.1123657,0.3097839-15.3086548,1.2310486-15.1021118-19.9699402
		c27.8861389-10.5204163,46.0291138-23.1930542,62.0125732-42.1141968
		c4.2166138-9.5283813,7.6144714-19.525238,10.0367126-29.8716125
		c-19.1204224,30.141571-36.7235413,47.7528381-71.1044922,61.5523682
		c0.9847107-6.0736694,2.7628479-13.3628845,5.5736084-22.0498352c10.0366516-4.2084961,20.5099487-9.2186279,26.7982788-11.8147888
		l15.0386353-15.7851257c3.7881165-14.6020813,7.5275269-29.1959534,11.2831116-43.7898865l-11.7514343,3.6596985
		l13.8239441-14.5305176c2.8905945-11.4099731,5.7484436-22.8474731,8.5991211-34.2737122
		c-6.9233704,1.0082397-13.863678,2.0408936-20.7790527,3.1165619c1.1513672-5.7085876,1.976593-11.3700867,2.4213562-17.0201874
		c-3.3344116-0.8455658-6.685791-1.6432037-10.0519714-2.4018097c-0.706665,6.3526154-1.9376526,13.3873596-3.8190918,21.2327271
		l-0.9610901,0.1585236c-6.5030212,1.0879364-13.1409302,3.2116547-18.921936,8.0950012l1.8506165-5.6256866
		c-11.1399841,2.0172882-22.2482605,4.0613098-33.3573608,6.2176361l-11.0603027,11.6164551l0.3731995-0.9415588
		l3.5889282-9.2935181c-10.9895325,2.2392426-21.9546509,4.5613556-32.9198608,6.9477844
		c-2.2953186-14.8085632-4.5816956-28.1959229-6.5744934-39.0228577c-3.1051636,0.365921-6.2095032,0.7822113-9.3137207,1.2309875
		c2.0082703,10.9733276,4.3588257,24.674469,6.6695251,39.8400269l-7.7575378,1.7391663l-9.885376,10.4016724
		c-6.9160461-7.3127747-20.9627686-2.70755-29.8155212-0.4764404c-9.5837708,2.437561-19.1837158,4.930481-28.743927,7.5193176
		c-2.8587952,0.794342-5.7086487,1.6594849-8.4958801,2.620575c-7.1860046-10.3627319-13.9190216-21.0140076-19.4853516-32.5035858
		l-1.0082397-2.1319275c-2.8986053,1.1871033-5.7810059,2.3977509-8.6470795,3.6604919l1.2309875,2.5530701
		c5.4150848,11.2228851,11.957901,21.7278595,18.9926453,31.9075775
		c-10.3219604,4.597168-19.8658905,10.9814453-28.132431,20.0886841c0,0-13.4263763,14.0622253-14.9988251,15.7851257
		c-3.4938202,4.0092773-6.503006,8.2738647-9.1471252,12.6164856
		c-14.1020203-28.3544617-25.2891693-59.2814331-33.674408-93.0867615
		c64.2761536-32.0425415,121.2151947-49.0545807,193.844101-49.0383148c72.5980225,0,129.5207825,16.9794922,193.7807617,49.0147705
		C523.296936,358.143219,465.7619019,437.7515869,360.9749451,502.4245605z M321.8374329,390.8410645l6.264801-2.9058838
		l16.0875549-12.9344482l3.58078-9.9016724c2.3262024,4.7085571,3.5889282,6.5582886,5.8996582,11.3066711l5.2801514-2.3424683
		c0.1829529,5.1052856,0.2780457,10.0601807,0.2780457,14.800415c-11.6245117,2.644165-24.1622314,4.0735779-37.1047668,4.2800598
		L321.8374329,390.8410645z M368.0739136,370.0141602c6.6696472-2.9539795,13.3474731-5.8525696,19.9927979-8.7739258
		l3.1368103-3.2637329c1.3181152,0.2220154,2.8262634,0.2699585,4.5256348,0.0951538
		c2.5888062-0.436615,5.7646484-1.3261414,9.2267456-2.5245972c-2.2473145,8.1941833-3.5970764,15.2606506-4.2239075,21.4221497
		c-9.4967651,3.3669128-20.1521301,6.5191956-32.2774963,9.5837402
		C368.4389648,381.2573853,368.3121338,375.7308655,368.0739136,370.0141602z"/>
	<path class="st0" d="M451.1915588,268.0298157c0.8261108-2.9620056,1.6278687-5.9395142,2.4538574-8.9048157
		c-3.4702148,0.7147217-6.9477234,1.4489441-10.4252625,2.2034912
		c-4.9077454,16.9282532-9.8699341,33.8410645-14.8085632,50.7693176c3.9141235-1.4448547,7.8210449-2.8579712,11.7514343-4.3117065
		c1.3016663-4.7158813,2.6123657-9.4642639,3.9385071-14.1727905c5.6607056-1.8180237,11.2667847-3.6133423,16.9282837-5.3833923
		c-2.6921387,10.5049438-5.4078064,20.9936523-8.1543579,31.4587708
		c-10.7359009,4.4304504-21.4465637,8.9324646-32.1425781,13.4906006c-3.3742371,1.4375305-6.7729187,2.9221497-10.3773193,3.517395
		c-10.5846558,0.897583-7.1705322-11.116394-5.0744019-17.7064514c5.3280945-16.6981201,10.6643372-33.3889771,15.9842529-50.055481
		c1.8099365-5.5817261,3.9694824-10.8066101,8.0511169-15.2052917c4.9703674-5.0101929,10.9968872-7.1299133,17.6665344-8.2454529
		c8.3690491-1.3822479,16.777832-2.6799316,25.163208-3.9068451c-1.8977661,7.6226196-3.8198853,15.2565765-5.7565918,22.8718719
		C461.3233337,265.6004028,456.257843,266.8232422,451.1915588,268.0298157z M320.5511475,299.9179077
		c-7.368042,17.3965759-14.6019897,34.8493042-21.6920166,52.3101196
		c-3.3035583,8.1226807-6.6542664,16.2615662-11.1562805,23.8524475
		c-11.2985229,17.9763184-27.9576416,29.1723938-46.5373077,38.3748169
		c-10.917923,5.4232788-21.8124237,10.8862915-32.6580353,16.4046631
		c-9.9967804,5.0890198-24.1622314,14.6020203-35.4851532,11.6636047
		c-10.2268524-4.4459229-0.6195679-21.5888672,2.5172577-28.6398315
		c11.9977875-27.0446167,24.5192261-53.842804,37.5967407-80.4109192c4.4621887-9.0194702,9.242218-17.8178101,15.943634-25.5037842
		c11.6807404-12.9108582,26.2746124-19.9057617,42.6231384-24.3443604
		c9.5284729-2.6042786,19.0885925-5.0980225,28.6325378-7.5355835c7.0192566-1.746521,23.1613159-7.5746765,26.2664795,1.9692688
		C328.1347656,285.1809082,323.3148499,293.3986816,320.5511475,299.9179077z M286.9328918,301.7521973
		c-7.6226196,2.3181152-15.213501,4.6841431-22.7808228,7.0746155
		c-13.5222931,28.5365601-26.4802856,57.3040466-38.9780579,86.2626343
		c8.6145325-3.9629517,17.2217102-7.8453674,25.8687897-11.6961365
		C262.6039429,356.0153503,274.5456543,328.7960205,286.9328918,301.7521973z M407.7114563,268.7998352
		c2.5562744-0.5952148,5.1052856-1.2066345,7.6542969-1.8025818c1.9131775-5.803772,3.8271484-11.6237793,5.7403259-17.4519501
		c-7.3998108,1.3416443-14.7923584,2.7230225-22.1685486,4.1564789
		c-11.9742432,15.6379395-23.7971497,31.4075623-35.4932861,47.2723083
		c5.4793701-14.5231628,10.9895325-29.0219421,16.5632019-43.480896
		c-12.4026489,2.5448608-24.7728271,5.2402649-37.1283569,8.0510559c-3.2156372,7.472168-6.3996887,14.9516602-9.5439453,22.4474487
		c2.6441956-0.7464294,5.3363342-1.4846802,7.9958496-2.2156372c-9.7268677,23.5271912-19.2073364,47.1568909-28.4975586,70.8190613
		c-3.8190308,9.6308899-7.5990295,19.2626038-11.3862915,28.8861694
		c12.4026489-5.8598328,24.8215942-11.6643982,37.2714233-17.3965759
		c5.6297302-15.5631104,11.3147888-31.1018677,17.0795288-46.6170349
		c5.2800903,10.5838623,10.513092,21.1766663,15.7217407,31.8165283c8.0111694-3.5734558,16.0630798-7.1070862,24.1060181-10.616333
		c-4.8987732-11.1643372-9.8690796-22.3124695-14.8793335-33.4524536
		C389.655426,295.7012939,398.6278076,282.2269592,407.7114563,268.7998352z"/>
	<path class="st4" d="M247.7953949,425.8969421c5.8915863,6.63797,12.0131989,13.0774841,18.3577423,19.3504333
		c-65.8244019,30.7123718-128.81427,62.7671204-188.4055481,95.7585449
		c37.1210175-32.8166199,78.949791-64.0217285,124.780571-92.7412415
		c8.6153259-4.3833008,17.2542572-8.6942139,25.9013367-12.9905396
		C232.0102844,433.5114136,239.0052032,430.1208801,247.7953949,425.8969421z M546.7680054,306.6193237
		c-3.8035889,9.5040588-7.805603,18.7226868-12.0928955,27.6633301
		c47.9983521-17.356781,95.369873-33.1735535,141.8754272-47.4268494
		C634.5949707,290.1991882,591.1221313,296.7655945,546.7680054,306.6193237z M492.0999146,230.0038452
		c5.0817261,1.6676331,9.8374939,3.3669586,14.5858765,5.1573639c11.9179688,4.4231262,22.4627686,8.9487152,31.1896362,13.1214294
		c-26.9178162,92.3525848-82.0387878,169.8169098-159.8047485,224.937851l-6.3363037,4.3914185
		c-22.7726746-17.0477905-36.215271-30.4432373-36.215271-30.4432373l10.7187805-1.7546082
		c32.5231018-5.431366,63.8631592-20.1440125,89.7718811-44.3298035
		c44.1639099-41.2018738,62.1004028-100.0312805,53.0093994-155.4693298
		c-0.2228088-1.2586365-0.4764709-2.5132141-0.6992493-3.7677917l-0.0870056-0.5358124l-0.1113892-0.5838013l-0.1349792-0.6154938
		l-0.1113892-0.5878601l-0.1268311-0.6390686l-0.1268616-0.5911102l-0.1512146-0.6748505l-0.1504211-0.6390839l-0.1195374-0.5878601
		l-0.0951233-0.5081635l-0.1821289-0.7106323l-0.1430969-0.6667328l-0.1349792-0.4967804l-0.0877991-0.5000458l-0.1268311-0.4886627
		c-0.500061-1.9887848-0.9448242-3.6799927-1.3977051-5.3159027
		C487.4230957,228.4720154,489.7728882,229.2379303,492.0999146,230.0038452 M492.9495544,231.0844269
		c4.7557068,1.6277924,9.6627197,3.338501,14.3321228,5.1012573
		C502.525177,234.387146,497.736969,232.6959534,492.9495544,231.0844269"/>
</g>
</svg>
