<?xml version="1.0" encoding="utf-8"?>
<!-- Generator: Adobe Illustrator 22.0.1, SVG Export Plug-In . SVG Version: 6.00 Build 0)  -->
<svg version="1.1" id="Layer_1" xmlns="http://www.w3.org/2000/svg" xmlns:xlink="http://www.w3.org/1999/xlink" x="0px" y="0px"
	 width="720px" height="720px" viewBox="0 0 720 720" style="enable-background:new 0 0 720 720;" xml:space="preserve">
<style type="text/css">
	.st0{fill:#061922;}
	.st1{fill:#0050B5;}
	.st2{fill:#FFFFFF;}
</style>
<g>
	<path class="st0" d="M669.5787354,272.7988892C632.2252808,162.4078064,528.6850586,88.0880432,412.1455994,88.0172729v0.0104065
		c-97.3398132,0.1446533-187.1658478,52.347702-235.4808807,136.8516388h-70.4057236l47.6375351,45.4822845l-46.4334564,71.6993103
		H53.4690056l45.4333611,43.370697L36,482.5705566l96.1086731-56.7050476l22.2717743,21.2622986
		c48.1401978,142.267395,202.4962311,218.5728149,344.7636108,170.4336548
		C641.4124756,569.4223022,717.7178955,415.0662842,669.5787354,272.7988892z"/>
	<path class="st1" d="M145.4939575,316.6211853l31.7237396-48.9810486l-25.749115-24.582016h41.6533813l28.8089294-44.4989014
		v44.4989014h48.2320099l-48.2320099,28.4659882v38.7853699l-25.1193695-23.9713135L145.4939575,316.6211853z
		 M163.2558594,360.2166748v-40.9198303l-26.4899445,40.9198303h-38.065567l23.5318756,22.4592285l-29.3024368,45.2552185
		l47.413414-27.9675293l22.9126587,21.8826904v-35.4103699l44.4442291-26.2192383H163.2558594z M463.5920715,217.6069183
		c-16.657959-6.1079407-34.2555542-9.2601471-51.9993286-9.3151093l0.0233765,0.0122833
		c-19.8388062-0.0520477-39.4577637,4.1482544-57.5360107,12.3187866l-2.3294983,1.0489807v-48.1235504l-34.8040161,53.7704315
		h-50.4159241l31.158905,29.7418365l-12.9917908,20.0414429v-19.1392212l-39.437912,60.9165344h-58.4703827l36.1424408,34.4947205
		l-42.5883331,65.7726135l68.8987732-40.6482544l13.474762,12.8608093l0.1122742,0.5090027
		c0.8887634,4.3239746,1.8792725,8.2754822,2.9931641,12.104187l0.6285706,2.1324463h-42.1591644l30.9115753,28.9185791
		l-37.0873413,58.2171936l62.6101685-35.5676575c0.7519531-0.449646,1.6091309-0.6952209,2.4862061-0.7107239
		c1.737793,0.1821594,3.3609619,0.9554443,4.5993652,2.1894836c0.1812744,0.1479187,1.7331238,1.433136,3.6240845,2.9817505
		c2.9458008,2.4280396,6.6797791,5.509491,7.1767883,5.9047546c18.1524963,14.8111267,38.3795776,26.8819885,60.0327454,35.82901
		c79.0488586,28.9799805,166.6228638-11.6089172,195.6025391-90.6575012
		C583.2289429,334.1608887,542.6403198,246.5868683,463.5920715,217.6069183z"/>
	<path class="st2" d="M326.4084473,510.9116211l10.3705139,7.1358643l-27.6272278,40.4798584l-10.3599854-7.1247559
		l14.8587952-21.7929077l0.5525513-0.8013916l-20.6644287,7.9050903l-1.4740601-1.0168457l-0.449646-21.7814941
		l-0.0105286-0.9367676l-15.5569458,22.7849121l-10.3716736-7.1235962l27.6149292-40.4795532l10.4722595,7.1911316
		l0.2935181,24.6051331L326.4084473,510.9116211z M459.1306763,549.7095337l-21.0140686,2.3476563l-3.125885,10.9189453
		l11.7095032-1.3091431l-0.1228027,0.4390869c-1.3378296,4.593811-5.2852478,7.9468994-10.0337219,8.5254517
		c-3.7889404,0.4713135-7.6077271-0.6130371-10.585083-3.0033569c-2.9475708-2.4028931-4.8174744-5.8811035-5.1975403-9.6651001
		c-0.9267883-7.7290649,4.5865173-14.746521,12.3158569-15.673584c0.1011658-0.0116577,0.2029114-0.0230713,0.3046265-0.0333252
		c3.8088379-0.4434814,7.6358032,0.6546021,10.630127,3.0490112l0.5625,0.4516602l7.1323547-10.015564l-0.5624695-0.3952637
		c-4.7011108-3.2636108-10.2945251-4.9984741-16.0165405-4.9671631c-8.2059021,0.0102539-15.9954834,3.6120605-21.3175659,9.8571167
		c-4.4502563,5.3387451-6.527771,12.2647095-5.7477417,19.1716919
		c1.3869324,12.4228516,11.4253235,22.0969849,23.8914795,23.0231323c1.9546814,0.1748657,3.9216919,0.1520386,5.8717041-0.0675049
		c6.633606-0.7171631,12.668457-4.1617432,16.6585388-9.5077515v-0.0105591
		c4.0941772-5.5396118,5.9056396-12.4383545,5.0630493-19.2733765L459.1306763,549.7095337z M472.4920349,522.381958
		l18.8605652,45.2596436l11.7159424-4.9191895l-18.861145-45.2608032L472.4920349,522.381958z M551.9443359,516.1275635
		l-0.0122681,0.0122681c-1.1746826,2.9984741-3.1855469,5.5960693-5.791626,7.4869995
		c-6.0202026,4.9297485-14.8961792,4.0459595-19.8270874-1.9733887c-4.9297485-6.0202637-4.0462646-14.8962402,1.9745483-19.8259583
		c0.286499-0.2362366,0.5835571-0.4601746,0.8887939-0.6712646c2.5148315-2.0043945,5.5524292-3.2469177,8.7520142-3.5790405
		l1.236084-0.1029053l-7.5474854-10.0033264l-0.4151611,0.0906372c-3.5410156,0.7680359-6.861084,2.3321533-9.7092285,4.5727844
		c-5.7330933,4.2418213-9.5682678,10.5693054-10.6751404,17.6148376
		c-1.9254456,14.065918,7.7901917,27.0744019,21.8227844,29.2214355l0.2701416,0.0342407
		c7.0773926,0.8764648,14.2097168-1.1165161,19.80896-5.5332031c2.9247437-2.1344604,5.3349609-4.8963623,7.0528564-8.0830688
		l0.1929321-0.3862305l-7.595459-10.0477295L551.9443359,516.1275635z M622.4154053,431.8379211v0.0125732
		c-2.1774902,6.7227478-6.8902588,12.3322144-13.1362305,15.6384888c-6.0657959,3.2103882-13.1853027,3.7828369-19.6856079,1.58078
		c-13.6571655-4.9422913-20.7626343-19.9835205-15.9060059-33.6717224c0.5350342-1.6117554,1.2127075-3.1729431,2.0254517-4.6630859
		c2.5400391-4.7122498,6.4342041-8.5546875,11.1797485-11.0324402c6.0950928-3.1980896,13.2344971-3.7567749,19.753479-1.5465698
		c0.1321411,0.0467834,0.2654419,0.0947266,0.397583,0.1438599
		C620.5501709,403.3157654,627.432312,418.3318481,622.4154053,431.8379211z M610.4825439,417.351593
		c-3.4369507-6.7947083-11.6860962-9.5785217-18.5372314-6.2555847c-3.319458,1.6629333-5.8383789,4.5809631-6.9973145,8.1079407
		c-0.0186768,0.0541077-0.0374146,0.1081848-0.0560913,0.1634521c-2.3868408,7.2256165,1.5354614,15.0181274,8.7613525,17.4055176
		c1.4682007,0.4963989,3.0065918,0.752533,4.5560913,0.7566223h0.0128784
		c4.9887695,0.0028992,9.5741577-2.7455444,11.9223633-7.147583c0.3970337-0.7522278,0.736145-1.5339966,1.0126953-2.3374023
		C612.3565674,424.531311,612.1138916,420.6859131,610.4825439,417.351593z M403.9668884,189.9101105
		c-1.6898499,0.0853577-3.3831787,0.0175323-5.0613098-0.2028961c-5.3068848-0.6630707-10.2921753-2.9057465-14.3079834-6.4368439
		c-5.1940308-4.5499573-8.3058777-11.0207214-8.6181335-17.9186096c-0.0064392-0.1675262-0.0099487-0.3362122-0.0134583-0.5037384
		c-0.2642822-14.3687897,11.1698303-26.2303314,25.5386353-26.4949188c0.4724426-0.021637,0.9448853-0.0330353,1.4050598-0.0330353
		c6.5727844-0.0450134,12.9345093,2.3163605,17.8864441,6.6394501c5.1852722,4.5125427,8.2983093,10.9502563,8.6152039,17.817749
		v0.0113983C429.8539734,177.2969208,418.4730835,189.4271393,403.9668884,189.9101105z M416.5090332,163.4660492
		c-0.2122498-6.7020111-5.2694702-12.253006-11.9229431-13.0865173c-0.8402405-0.1020355-1.68573-0.1365204-2.53125-0.1020355
		c-7.4586182,0.302887-13.3385315,6.4564362-13.3028564,13.9203339c0.0362549,7.6583099,6.2745972,13.8369904,13.9326172,13.8004456
		l0.6975708-0.0239716c3.6860352-0.1549377,7.1568909-1.7909851,9.6220703-4.5332947
		C415.4460144,170.7124329,416.706665,167.1231537,416.5090332,163.4660492z M480.0880737,201.4719849l-14.5787354-4.4707336
		l-0.0116882,0.0105133l-5.4542236-16.3951263l-4.0965271,13.4604492l-12.1480408-3.7278595l14.2869568-46.9269257
		l13.3280029,4.088913c13.4203796,4.1213684,18.8085327,11.8679657,15.6031189,22.4133148
		c-1.9582214,5.9945068-7.3153687,10.2331085-13.599884,10.7608185l-0.3613586,0.0447235L480.0880737,201.4719849z
		 M471.5605774,170.2619171c1.6746216-0.668335,2.9317627-2.0930023,3.3860779-3.8380737
		c0.4689331-1.2510071,0.3999634-2.6402893-0.1911926-3.8392487c-1.3676453-1.9929962-3.4580078-3.3738098-5.8278503-3.850647
		l-2.0354004-0.6200867l-3.4749756,11.4268036l2.158783,0.6648254c1.074707,0.3382568,2.1932678,0.5174713,3.3194275,0.532959
		C469.8058472,170.7498627,470.7103882,170.5884705,471.5605774,170.2619171z M525.3859863,215.6650696l-13.3648682-8.9312286
		l0.1690063-0.2476349l20.5065308-30.8814545l-10.5722046-7.0695038l-27.1109314,40.8409119l23.9271545,16.0004578
		L525.3859863,215.6650696z M587.6587524,227.3748779l-26.2770996,45.5373535l-8.5368652-10.6701965l3.8117676-6.2555695
		l0.1011353-0.1789246l-11.145813-13.9577332l-0.1362305-0.1695709l-7.1090088,2.4508362l-8.2901001-10.3769531
		l49.9768066-15.8861389h0.0123291L587.6587524,227.3748779z M570.6505737,233.0986633l-14.8161011,5.0598297l6.6488037,8.3099823
		v0.0122681L570.6505737,233.0986633z M367.363678,527.6113892l0.0105286,0.0023193l0.0023499-0.0023193H367.363678z
		 M379.1971436,530.3443604l7.5036621,52.0750732l-13.2853088-3.071228l-0.8764954-7.2721558l-0.021637-0.2133789
		l-17.5712891-4.0544434l-4.0731201,6.3459473l-12.9128723-2.9805908l29.4141235-43.5598755L379.1971436,530.3443604z
		 M371.2444458,560.9884033l-1.854126-15.5811768l-8.2585449,12.8274536l-0.2350464,0.3613892L371.2444458,560.9884033z
		 M595.6793213,285.999054l-18.289917,26.8974915l3.9591064,11.2218628l46.0639038-16.4056702l-4.2421265-12.0135498
		l-25.4450684,9.0674744l18.8862915-27.6313171l-3.9924316-11.2800598l-46.0626831,16.4179382l4.2508545,12.0033264
		l25.4012451-9.0455322L595.6793213,285.999054z M624.8800049,373.5864868
		c-4.5560913,3.8983154-10.3710938,6.0120544-16.3667603,5.9506531c-1.1133423-0.0125732-2.2833252-0.0344849-3.3972168-0.1353455
		c-0.1157837-0.0093689-0.2327271-0.0198975-0.3496704-0.0312805
		c-12.8344727-1.2352295-22.2366943-12.6421509-21.0006104-25.4760742l-0.1345215-15.1990967l48.8875122-0.4516907
		l0.1339111,15.0640259h0.010498C633.170105,360.8818054,630.3242798,368.2954102,624.8800049,373.5864868z
		 M621.0337524,354.0412292l-0.0228271-2.9586792l-25.6467896,0.2373962l0.0333252,2.9700623
		c-0.055542,3.2457581,1.1138916,6.3938599,3.2738647,8.8186951c2.5458374,2.5186462,6.029541,3.8538513,9.6068726,3.6810608
		h0.1122437c0.4818115,0.026886,0.9659424,0.0248413,1.4489136-0.0064392
		C616.4484253,366.356781,621.460022,360.6505432,621.0337524,354.0412292z"/>
	<path class="st1" d="M647.0571899,272.2265015c-36.640564-98.0682831-130.2901001-163.1040649-234.979248-163.1841888v-0.0124893
		c-64.0741882-0.0083237-125.6944275,24.6435165-172.0820923,68.8436661v14.1148529
		c93.2603149-95.51651,246.2946472-97.3450012,341.8111572-4.0847015
		c95.5165405,93.2613373,97.3450317,246.2957001,4.0836792,341.8112183
		c-93.2602844,95.5164795-246.2946472,97.3449707-341.8111572,4.0846558
		c-26.1483459-25.531189-46.167038-56.6592407-58.5502014-91.042572l-8.8188019,5.2055359
		c48.5283813,129.8831787,193.1591797,195.8337402,323.0413208,147.3053589
		C629.6350098,546.7394409,695.5855713,402.1086426,647.0571899,272.2265015z"/>
	<path class="st2" d="M213.7518921,291.1939392l-15.7709351-15.0628357l-26.7378845,15.7738647l16.5246582-25.5178833
		l-15.851059-15.1306763h25.6479645l16.1872559-25.0117798v25.0117798h26.3782806l-26.3782806,15.5709839V291.1939392z
		 M155.3937836,345.9227295l-14.3530121,22.1864624h-22.6665039l14.0051117,13.369812l-14.6798706,22.684021l23.7680969-14.0243835
		l13.9250031,13.313385V381.919281l23.4190216-13.8100891h-23.4178467V345.9227295z M460.9368896,227.3517761
		c-15.7767944-5.8848724-32.4716187-8.9236298-49.3096619-8.9756775l-0.0111084,0.0102386
		c-24.4814453,0.007309-48.5419006,6.3649139-69.8313904,18.4504089v-29.5731659l-19.4382935,30.0248566H291.458252
		l19.0880432,18.2235413l-19.898468,30.7574921l0.0678406-0.0435486
		c-6.3938599,10.4026489-11.4118958,21.5909119-14.9277954,33.286377v-31.4132385l-25.6912231,39.7012939h-41.0131226
		l25.3439178,24.1958313l-26.0186768,40.2091064l42.1158905-24.8515625l21.8426208,20.8553467
		c1.5611877,8.0061951,3.8088379,15.8641968,6.7172241,23.4853821l-2.4639893,4.5508423h-26.5922852l18.3138733,17.1286621
		l-20.7439423,32.0450439l27.9996796-16.519989c5.9828186-3.5144043,13.5788574-2.584137,18.5366516,2.270752
		c0.2373962,0.1809692,0.675354,0.5744934,1.3384094,1.1396179c19.3529358,17.7113342,41.6838074,31.8637695,65.9629211,41.8013
		c73.6630554,27.4763489,155.6524353-9.9655762,183.1305847-83.6286316
		C572.0421753,336.8190002,534.6005249,254.8281403,460.9368896,227.3517761z"/>
	<path class="st1" d="M351.6607361,264.2641907c-12.3103027,0.0437012-24.3812561,3.3978577-34.9494629,9.7106628
		c14.6737366-16.1691589,33.2302551-28.3265076,53.914978-35.3209686
		c13.0679321-4.6123352,27.2410889-5.0816803,40.5848083-1.3435364
		c34.5206909,12.0563812,60.5035706,40.8917999,68.9102478,76.4771271v0.0104065
		C440.7281189,309.6091003,403.753479,264.2641907,351.6607361,264.2641907z M493.8334351,313.5845337l0.0104065,0.0104065
		c19.325592-2.9243469,27.8301086-16.7207642,21.1134949-29.2891541
		c-21.5412292-29.3796844-54.5664368-48.2047119-90.8219604-51.7711487
		C459.5239868,246.1062622,485.7149963,276.5640869,493.8334351,313.5845337z M483.4494324,393.572937
		c1.591217-8.6720886,2.5319824-17.4523621,2.8140259-26.2649231
		c-75.9401245-1.1749268-186.2219238-3.8619995-186.2219238-3.8619995v-4.966156c0,0,110.2817993-2.6891479,186.2219238-3.8619995
		c-0.2820435-8.8135986-1.2228088-17.592865-2.8140259-26.2649231
		c-49.5482483-2.8899841-85.6247559-52.3352051-136.782959-52.3352051
		c-24.9359436-0.0551453-47.1452942,15.7570801-55.2532959,39.3390808
		c-11.0479431,29.4754333-10.9917603,61.9647217,0.157135,91.403717
		c8.0559692,23.5247803,30.22995,39.2808228,55.0961609,39.1476135
		C397.8246765,445.9081421,433.9011841,396.4514771,483.4494324,393.572937z M500.0421753,354.414917
		c16.0755005-0.2268677,29.843811-0.3392639,39.8094482-0.329895c-0.9209595-18.252655-5.7466431-36.0942078-14.1522827-52.3227234
		c0.2590942,12.7245178-9.8314209,23.5310364-28.5596313,26.196228
		C498.7694092,336.6919861,499.7393494,345.5357666,500.0421753,354.414917z M480.1213074,408.1498413v-0.0124817
		c-39.4057007,4.1898193-76.3678284,49.5357666-128.4605713,49.5357666
		c-12.0979919-0.0541077-23.9670715-3.2989807-34.4103699-9.4047241c2.4862061,2.6974792,5.0619202,5.3283386,7.7739258,7.8124695
		c14.0982361,12.9399109,30.9188843,22.5548401,49.2235718,28.1381531
		c11.4309082,3.5997314,23.6444397,3.9088135,35.2429199,0.8918762
		C444.852356,473.5426025,471.6230469,444.3720703,480.1213074,408.1498413z M493.842804,408.3319702
		c-8.1038513,36.6551514-33.8640442,66.9006958-68.7624817,80.7314453
		c36.0952454-3.8245239,68.8759155-22.7744446,90.2027588-52.1447449
		C521.3232422,424.5354919,512.802063,411.2011414,493.842804,408.3319702z M493.8334351,408.329895
		c0.0031128,0.0010376,0.0062256,0.0010376,0.0093689,0.0020752c0-0.0010376,0.0010376-0.0010376,0.0010376-0.0020752H493.8334351z
		 M539.8516235,367.8387756c-9.9552002,0.0114441-23.7463989-0.1123962-39.8094482-0.3278198
		c-0.3132324,8.8781128-1.2831726,17.7208557-2.9024658,26.4563904
		c18.6845093,2.6641541,28.7750244,13.4373779,28.5596313,26.1181641
		c8.3692017-16.2045593,13.2011108-34.0013733,14.1741943-52.2134399L539.8516235,367.8387756z"/>
</g>
</svg>
