<?xml version="1.0" encoding="utf-8"?>
<!-- Generator: Adobe Illustrator 22.0.1, SVG Export Plug-In . SVG Version: 6.00 Build 0)  -->
<svg version="1.1" id="Layer_1" xmlns="http://www.w3.org/2000/svg" xmlns:xlink="http://www.w3.org/1999/xlink" x="0px" y="0px"
	 width="720px" height="720px" viewBox="0 0 720 720" style="enable-background:new 0 0 720 720;" xml:space="preserve">
<style type="text/css">
	.st0{fill:#C8102E;}
	.st1{fill:#1D428A;}
</style>
<g>
	<path class="st0" d="M377.3633728,275.0953979c-68.1659546,72.1096497-190.6595001,70.8601379-271.2663574-3.6516113
		c-0.8472672-0.7835693-1.7177353-1.5261536-2.5558929-2.3256531c-4.8387756-5.4084473-7.1157303-3.1310425-7.4005814,1.1384888
		v9.2975769v144.4072571c85.9607239,12.8085938,188.7151794,4.2695313,261.5824585-101.9003601
		c3.1315002-4.5543518,4.8392334-1.4233093,2.8466492,2.5618286
		c-20.2096252,41.2723999-68.3133545,79.4137573-109.8706207,112.1471252
		c-39.8490906,31.3104858-146.8730621,143.4576111-145.4501953,242.2273865c0,7.6849365,0.2848434,5.40802,7.1161804,0.5692139
		c27.5728836-20.559082,77.5035782-24.0036011,115.8260422-13.239502c6.7762756,1.9033813,13.2331238,4.1972046,19.092514,6.9769897
		c5.40802,2.5617676,5.9772491,1.7077026,5.1231689-5.1231689c-0.8067627-8.348877-1.2704468-16.7846069-1.5065918-25.2417603
		c-1.9311523-69.1065063,14.7538147-140.032196,43.9179382-183.3981934
		c9.9846802-14.9140015,27.5433044-40.2886353,44.9058228-69.7999268
		c11.9895325-20.379364,23.8844299-42.7189636,33.1242065-64.9966736
		c7.5134277-18.1146851,13.2745361-36.1738281,15.9005127-53.0644836
		C389.8871155,264.5637512,386.1868286,265.70224,377.3633728,275.0953979z"/>
	<g>
		<polygon class="st1" points="132.2901611,128.7946625 145.0979462,119.4009857 158.4726257,128.7946625 153.3509064,113.4219818 
			167.0165405,103.7454224 150.2202454,103.7454224 145.3819733,88.0892792 140.2602386,103.7454224 123.7543335,103.7454224 
			137.1290131,113.4219818 		"/>
		<polygon class="st1" points="139.4023895,222.7225647 152.7845764,212.7622681 149.3110199,212.7622681 136.2711639,212.7622681 
			131.4328766,197.1067047 126.3111572,212.7622681 109.5223694,212.7622681 123.1805038,222.7225647 120.8620987,230.0887909 
			118.3416443,238.0952454 131.1500092,228.7015686 144.2412415,238.0952454 		"/>
		<polygon class="st1" points="113.2199173,181.1674042 126.0282822,171.4905548 139.1195221,181.1674042 134.2806549,165.511261 
			147.9463043,155.8347015 131.4328766,155.8347015 126.0282822,140.1785583 121.1900024,155.8347015 104.3931351,155.8347015 
			118.058197,165.511261 		"/>
		<polygon class="st1" points="288.267334,89.7966232 301.3660889,80.4032288 314.1744385,89.7966232 309.3361511,74.4242172 
			322.9937134,64.4642105 306.2049255,64.4642105 301.0831909,49.0915222 296.2443542,64.4642105 279.4480591,64.4642105 
			293.1131287,74.4242172 		"/>
		<polygon class="st1" points="357.4366455,219.8744965 352.3149109,204.2186432 347.4766541,219.8744965 330.6803589,219.8744965 
			344.0625305,229.5516205 339.2236938,245.2071838 352.3149109,235.5306244 365.4067383,245.2071838 360.5678711,229.8345032 
			373.9500732,219.8744965 		"/>
		<polygon class="st1" points="167.8663177,259.4391479 162.7445831,243.7835846 157.9068756,259.4391479 142.7258606,259.4391479 
			141.1100159,259.4391479 154.77565,269.3991699 149.6539307,284.7718506 162.7445831,275.0952759 176.12677,284.7718506 
			174.4081726,279.622406 170.9975433,269.3991699 184.3791504,259.4391479 		"/>
		<polygon class="st1" points="364.2734985,162.6637726 363.0271301,158.638031 359.4277344,147.0076294 355.0114441,160.5070038 
			354.3059998,162.6637726 346.2319946,162.6637726 337.8000793,162.6637726 339.8921814,164.2212982 351.1747742,172.6237793 
			346.335907,187.9961853 359.4277344,178.6030731 372.5258789,187.9961853 367.4047241,172.6237793 381.0622864,162.6637726 		"/>
		<polygon class="st1" points="335.2357483,118.5437088 330.1140442,133.9163971 343.2046814,124.5230026 356.295929,133.9163971 
			351.4576416,118.5437088 365.123291,108.5837021 348.326416,108.5837021 343.2046814,93.2110138 338.366394,108.5837021 
			321.5770569,108.5837021 		"/>
		<path class="st1" d="M564.1617432,428.5834656c-12.3482056-6.1169739-26.3833618-9.4612122-41.9182739-9.4612122
			c-3.507019,0-7.0221558,0.1873169-10.5199585,0.5472717c-24.0320435,2.4739685-47.1491089,13.4826355-60.0700378,33.609314
			h-0.5692139l0.0219421-0.3143311l0.720459-10.0829773l2.1042175-29.45224
			c1.7082214-27.0406189,7.684906-100.4769592,45.2567749-100.4769592c2.1376953,0,3.9446106,0.3593445,5.5067749,0.9758911
			c11.5417786,4.5571594,8.6784363,24.2225647,10.4333801,33.7499084
			c1.7088013,8.9428101,4.2304077,18.3613281,8.2749023,26.8322144c3.6588745,7.6618042,8.5964355,14.5122375,15.376709,19.5054932
			c1.4628906,1.0780945,3.0007935,2.0797119,4.6425781,2.9716187c6.163147,3.3497314,13.5963745,5.3414001,22.6563721,5.3414001
			c25.7044678,1.1603394,47.4827881-18.7371521,48.6431274-44.4421997c0.0502319-1.1248474,0.0606689-2.2514343,0.0300293-3.3771667
			c0-9.7412109-1.6469727-18.791687-4.5958252-27.094574c-2.9135742-8.2050476-7.1612549-15.629303-12.4798584-22.2032166
			c-8.1282349-10.046875-18.727356-18.1044312-31.0778809-23.6732483
			c-12.9648438-5.8456726-27.7885132-9.0046082-43.500061-9.0046082c-64.100708,0-109.1219177,24.354187-138.2081604,63.4861755
			c-12.081543,16.2539063-21.3822937,35.0779419-28.1828003,55.7521973
			c-9.7602539,29.6739197-14.3543396,63.1628723-14.3543396,98.5098572c0,19.2333069,1.390686,37.971344,4.353363,55.7429504
			c1.6354675,9.809021,3.7685547,19.3086548,6.3992615,28.4451294
			c11.0539856,38.3878784,31.1627808,70.1437988,62.8277588,89.2374268
			c20.6987915,12.4807739,46.3241882,19.5592041,77.562561,19.5592041c55.4511108,0,102.6776123-30.4754639,121.5250244-83.6942749
			c5.6291504-15.8953857,8.8388672-33.7310791,8.8388672-53.5010376c-0.0374756-4.8206787-0.2643433-9.5443115-0.6292114-14.1900635
			C619.4460449,483.7211609,598.2969971,445.4946594,564.1617432,428.5834656z M516.2662354,557.4562378v0.0003052
			c0.2851563,45.5419312-6.261322,85.1065674-32.4483948,85.1065674c-30.7407532,0-29.602356-39.5646362-29.602356-85.1065674
			v-0.0003052c0-0.0028687,0-0.005188,0-0.0077515c0.0011597-45.5387878,4.270813-84.814209,29.602356-84.814209
			c31.0248108,0,32.4483948,39.278595,32.4483948,84.8187866
			C516.2662354,557.4542236,516.2662354,557.454834,516.2662354,557.4562378z"/>
		<polygon class="st1" points="328.9732971,275.3784485 342.3549194,265.4181519 325.5580444,265.4181519 320.7203369,249.7625885 
			315.8815002,265.4181519 299.0852051,265.4181519 312.750824,275.3784485 307.62854,290.7511292 321.0032043,281.3574524 
			331.8355103,289.3018494 333.8110046,290.7511292 333.1569214,288.6723022 		"/>
		<polygon class="st1" points="253.2580872,61.332695 266.9237366,51.6561394 250.1268616,51.6561394 245.2891541,36 
			240.1668549,51.6561394 223.3705597,51.6561394 237.0361938,61.332695 231.9144745,76.7053833 245.2891541,67.3116989 
			258.0963745,76.7053833 		"/>
		<polygon class="st1" points="276.3174133,291.0345764 271.1956787,275.3784485 266.0658569,291.0345764 249.5605316,291.0345764 
			262.9352112,300.9945984 261.9116821,304.2453308 258.0963745,316.3672791 271.1956787,306.9736023 284.2863464,316.3672791 
			280.1771851,304.0323181 279.1651917,300.9945984 292.8227539,291.0345764 		"/>
		<polygon class="st1" points="234.187851,289.0437927 217.3990631,289.0437927 212.2692566,273.3879395 207.4315491,289.0437927 
			194.3686066,289.0437927 190.6421814,289.0437927 204.2997437,299.0038147 199.4614716,314.3764954 212.2692566,304.9828186 
			225.6514435,314.3764954 220.5297089,298.7209473 221.3073273,298.1699219 		"/>
		<polygon class="st1" points="194.6231842,74.4242172 208.0053711,64.4642105 191.4925385,64.4642105 186.370224,49.0915222 
			181.2485046,64.4642105 164.7356567,64.4642105 178.1178436,74.4242172 173.2789917,89.7966232 186.370224,80.4032288 
			199.4614716,89.7966232 		"/>
	</g>
</g>
</svg>
