<?xml version="1.0" encoding="utf-8"?>
<!-- Generator: Adobe Illustrator 22.0.1, SVG Export Plug-In . SVG Version: 6.00 Build 0)  -->
<svg version="1.1" id="Layer_1" xmlns="http://www.w3.org/2000/svg" xmlns:xlink="http://www.w3.org/1999/xlink" x="0px" y="0px"
	 width="720px" height="720px" viewBox="0 0 720 720" style="enable-background:new 0 0 720 720;" xml:space="preserve">
<style type="text/css">
	.st0{fill:#F9A01B;}
	.st1{fill:#E56020;}
	.st2{fill:#B95915;}
</style>
<g>
	<polygon class="st0" points="684,269.26297 596.6870117,235.0224152 618.9432373,141.2893677 544.8982544,175.1017303 
		506.3778381,94.636734 446.8851318,153.7014618 339.8838196,105.7648544 325.3315735,201.2100677 229.8863525,222.1823425 
		286.3831482,255.9947052 229.4583588,284.67099 277.822937,288.9510803 79.2285156,443.03302 279.1069031,336.8876648 
		65.1042633,499.9577942 292.8031921,381.4001465 49.2680588,564.1586304 317.6273499,421.2047729 36,625.3632813 
		348.0158081,454.5891418 136.1530762,625.3632813 393.3844604,477.701355 389.1043701,507.6618042 431.9049072,483.6936035 
		528.6340942,575.2867432 579.9945679,420.3487854 654.4675293,415.6407166 616.8031006,321.9074402 	"/>
	<path class="st1" d="M458.0119324,161.4054565c-85.5263672-3.4160614-157.6893616,63.0198059-161.3411865,148.5361938
		c-3.658783,85.6833191,62.8352051,158.1094971,148.5185547,161.7683105
		c85.6833191,3.6589966,158.1095276-62.8349915,161.76828-148.5183411
		C610.499939,237.3865814,543.8165283,164.9545288,458.0119324,161.4054565z"/>
	<path class="st2" d="M470.8520203,450.73703c-85.6809692-3.4093323-152.375-75.6312866-148.9656982-161.3120422
		c1.5197449-38.1880035,17.0707703-74.4740295,43.6763306-101.9111786
		c-71.3871155,47.7593994-90.5412292,144.3466339-42.7820435,215.7337494
		c27.5144348,41.1264648,72.9577942,66.7049561,122.3910522,68.88974
		c44.2666931,1.7426453,87.1965637-15.3670959,118.129425-47.0804138
		C536.0707397,443.3850403,503.6340332,452.3952026,470.8520203,450.73703z"/>
	<path d="M606.5296021,302.2193604c-9.4906006-6.8380127-20.5120239-11.2465515-32.1004028-12.8403015
		c-2.5679321,0-4.7080688-0.4279785-7.276001-0.4279785c-1.4180298-10.3050232-3.7088623-20.4711609-6.8480225-30.3882446
		c1.5456543,0.3361206,3.1269531,0.4797974,4.7080688,0.428009c11.1281738,0.855957,21.8283081,2.1399231,32.5284424,3.8518677
		c-1.4520264-4.1011353-3.1674805-8.1043243-5.1361084-11.9840851c-11.5560913-1.7119598-23.9683838-2.9959106-36.3804932-3.8521118
		c-3.8377075-10.1001587-8.5645142-19.8398285-14.1242676-29.1042633
		c7.6911621-1.3843231,14.8222046-4.9499359,20.5443115-10.2721405c-2.9959106-2.9961395-5.9920654-5.5640564-8.9881592-8.5601959
		c-5.2467041,4.6543121-11.8467407,7.5043793-18.8321533,8.1322021c-1.2839355-1.7119446-2.5681152-3.424118-3.4241333-4.7080841
		c-10.3748779-13.388443-22.6280518-25.2090454-36.3804626-35.0965271
		c-11.9656067-3.550827-24.3343506-5.5644989-36.8082886-5.9922638h-1.7121582
		c24.1166687,9.7544708,45.3345032,25.5205688,61.632843,45.7966614
		c-18.1679077-2.5344086-36.0726318-6.6882324-53.5006409-12.4120789
		c-5.5640564-1.7121735-10.7001343-2.9961395-15.8362122-4.7080841c-23.878479-6.9956207-48.7703552-9.8900909-73.6169434-8.5601959
		c-13.4674683,7.7229309-25.725647,17.3851013-36.3804932,28.6764832
		c19.6882935-8.1322021,59.0647278-21.8282471,107.0013123-8.5601807
		c5.1360779,1.2839508,10.2721558,2.5679169,15.8362122,4.2800903c20.97229,6.4200439,44.9406738,13.2680664,65.4849854,13.2680664
		c5.5198364,8.6106873,10.3842163,17.6241302,14.552002,26.964325c-3.9846802-0.3487549-7.9846191-0.4915619-11.9840698-0.4279938
		c-100.1533203-1.7119446-185.3261719,27.8202972-232.8347778,75.7569122
		c0.1273499,9.3467102,1.1304932,18.6610107,2.9959106,27.8204956c13.26828-19.2603149,33.3843689-36.8084717,59.0647278-51.3607178
		c47.9365845-26.964325,112.1373901-41.088562,180.1902771-40.2323608c2.5679321,0,4.7081299,0.4279785,7.276001,0.4279785
		c3.4189453,9.8944397,5.9959717,20.0601196,7.7042236,30.3882141
		c-44.0846863,2.1401672-72.3329773,29.1044922-105.2893677,58.6367493
		c-29.1044617,26.1083374-65.0567627,52.2167053-117.273468,68.052887
		c4.9795532,5.9779053,10.417572,11.55896,16.2641907,16.6921997
		c49.2205811-19.6881104,81.7489624-50.5045471,109.5692749-75.3289185
		c31.6723938-28.248291,58.6367188-55.212616,98.0133667-56.4967957c1.2839355,11.091095,1.2839355,22.293457,0,33.3845825
		c-5.1361084,60.7766724-40.6605835,112.5655823-88.5971985,138.2455139
		c12.09729-1.199707,24.0169373-3.7848206,35.5245056-7.7039795c3.8521118-3.4241333,7.70401-6.8480225,11.1281128-10.2721558
		c32.0372925-31.785614,51.625-73.9983521,55.2126465-118.9854126c1.2841797-11.3773804,1.2841797-22.8631897,0-34.2405701
		c2.1401367,0.4282227,4.2800903,0.4282227,5.9920044,0.8562012c12.4022827,2.05896,23.8097534,8.0629883,32.5283813,17.1203918
		C607.2486572,313.0592346,607.1056519,307.620575,606.5296021,302.2193604z"/>
</g>
</svg>
