<?xml version="1.0" encoding="utf-8"?>
<!-- Generator: Adobe Illustrator 22.0.1, SVG Export Plug-In . SVG Version: 6.00 Build 0)  -->
<svg version="1.1" id="Layer_1" xmlns="http://www.w3.org/2000/svg" xmlns:xlink="http://www.w3.org/1999/xlink" x="0px" y="0px"
	 width="720px" height="720px" viewBox="0 0 720 720" style="enable-background:new 0 0 720 720;" xml:space="preserve">
<style type="text/css">
	.st0{fill:#FFFFFF;}
	.st1{fill:#CF0A2C;}
</style>
<g>
	<path d="M582.3403931,209.9082336c-9.461731-14.4013214-20.5063477-27.6977997-32.9276123-39.6408386
		c-5.2410889-5.3306732-10.7919312-10.3477783-16.6235352-15.025177L652.3511963,36H304.8544006L170.5870819,170.2674103
		l-0.3196869,0.3196869c-12.1046143,12.2337494-23.121994,25.4973755-32.9275513,39.6408234
		c-9.6355133,14.4236298-17.8777618,29.7307434-24.6155624,45.7146606c-28.1322708,66.6302643-28.1322708,141.8037872,0,208.4340668
		c6.6711197,15.9146729,14.9173737,31.1221008,24.6156998,45.3952637
		c9.4616852,14.4013672,20.5063629,27.697876,32.9275513,39.6409302
		c5.1535645,5.5194702,10.7100677,10.6485596,16.6235962,15.3447876L67.6487808,684h347.4968262l134.5867004-134.9067993
		c24.4284058-24.2271118,43.8695679-53.0087585,57.2235107-84.7163391c28.1320801-66.6303101,28.1320801-141.8038025,0-208.4341278
		C600.4754028,239.736145,592.2199097,224.2971954,582.3403931,209.9082336z"/>
	<path class="st0" d="M534.0681152,185.9318542c-5.1151733-5.4345856-10.8692017-10.5494232-16.303772-15.3444977
		L371.9881592,317.0027161c7.4596252,2.1318665,14.2709045,6.0870667,19.8204956,11.5083923
		c17.2630615,17.6923523,17.2630615,45.9249878,0,63.6173706L121.3558197,662.5809326h31.968399l254.1490173-254.4684448
		c26.2303772-26.2368164,26.5151062-68.6794739,0.6391907-95.2659912l15.6646118-15.6646118
		c34.8700562,34.9796143,34.7816162,91.6036987-0.1979675,126.4737854c0,0.0003357,0,0.0003357-0.0003662,0.0003357
		l-0.1214294,0.1207581L184.9728546,662.5809326h31.6489716l222.8198242-222.8197937
		c43.5662231-43.8258057,43.7087708-114.5622864,0.3194275-158.5632935l15.6645813-15.6645813
		c52.4376221,52.5260315,52.3658447,137.615448-0.1598816,190.0530396l-0.1595154,0.1591797L248.270462,662.5809326h31.6486359
		L471.090271,471.4097595c61.3079224-61.1960144,61.4508057-160.4886475,0.3197632-221.8608704l15.984375-15.984375
		c69.8340454,70.3034668,69.5479126,183.8782349-0.6391907,253.8292847L311.5680542,662.5806274h31.9684143l159.2027893-159.522583
		c78.8325806-78.5740662,79.0421143-206.1772156,0.4677429-285.0098267l-0.1479797-0.1483154l15.984375-15.9847107
		c87.395752,87.7189178,87.1338501,229.6773529-0.585083,317.0731201c-0.0180664,0.0180054-0.0360718,0.0357056-0.0541382,0.0537109
		L375.1850891,662.5809326h31.6486206l127.5541687-127.553772
		C630.3648682,438.4007874,630.2219849,282.3823547,534.0681152,185.9318542z"/>
	<path class="st1" d="M328.7920227,328.5498657l0.0387878-0.0387573l270.4528198-270.772583h-31.6486206L312.8467712,312.5267334
		c-26.3024902,26.2575684-26.445343,68.83255-0.3197632,95.2659912l-15.984375,15.6646118
		c-34.7833252-34.8435364-34.7343445-91.2869873,0.1091919-126.0703125
		c0.1762085-0.1755371,0.3527832-0.3504028,0.5299988-0.5245667L535.9863281,57.7385139h-31.6486206L281.1977844,280.8777466
		c-43.725769,43.7597961-43.8686371,114.6279602-0.319397,158.5636292l-15.9847107,15.6645813
		c-52.1794128-52.7199402-52.0368805-137.6678162,0.3197632-190.2122192L472.6884155,57.7385139h-31.6483154
		L249.5491638,249.2294617c-61.3079376,61.1956787-61.4508057,160.4883118-0.3197632,221.8608704l-15.984375,15.984375
		c-69.7625732-70.2810059-69.6197052-183.7241211,0.3197632-253.8292694L409.0717163,57.7385139H377.42276l-159.5222321,159.84198
		c-78.8193359,78.6104889-79.1050873,206.1956024-0.6395264,285.1585083l-15.6645966,15.9847107
		c-87.4838791-87.6304932-87.3651581-229.5885925,0.2649841-317.0724487l0.0547791-0.0544281L345.7741089,57.7385139h-31.6486206
		L185.9321289,185.9318542c-96.0466919,96.3981018-95.7619705,252.4056396,0.635788,348.4526672l0.0034027,0.0031128
		c5.1233368,5.3359375,10.5681458,10.3538208,16.3037872,15.0250244l145.7761993-145.7758179
		c-7.5212402-1.9842224-14.3685608-5.960144-19.8204956-11.508728
		C311.2636108,374.5823669,311.2459106,346.1174011,328.7920227,328.5498657z"/>
</g>
</svg>
