<?xml version="1.0" encoding="utf-8"?>
<!-- Generator: Adobe Illustrator 22.0.1, SVG Export Plug-In . SVG Version: 6.00 Build 0)  -->
<svg version="1.1" id="Layer_1" xmlns="http://www.w3.org/2000/svg" xmlns:xlink="http://www.w3.org/1999/xlink" x="0px" y="0px"
	 width="720px" height="720px" viewBox="0 0 720 720" style="enable-background:new 0 0 720 720;" xml:space="preserve">
<style type="text/css">
	.st0{fill:#FFFFFF;}
	.st1{fill:#5B2B82;}
	.st2{fill:#5C6670;}
</style>
<g>
	<path class="st0" d="M562.7110596,117.6088562L494.7736511,49.757431l-68.2490845,67.860672l-67.8233337-67.860672
		l-67.7991028,67.8514252L223.058197,49.757431l-67.7858429,67.8868332L75.9995956,37.6265869v361.3504944
		C75.9995956,556.1311035,202.0775757,684,359.1400452,684c157.2973938-0.2173462,284.7328796-127.7253418,284.8603821-285.0229187
		V36L562.7110596,117.6088562z"/>
	<path class="st1" d="M380.9311829,331.1629944v96.2010193h-37.2011414v-89.7358398h-29.3244019v89.7339478h-39.0349121V315.4934692
		h93.961731C375.7210693,315.4934692,380.9292603,322.6400757,380.9311829,331.1629944z M397.3777161,315.4934692v95.9674988
		c0,8.5415649,5.1652832,15.9030457,11.5350342,15.9030457h93.8686218v-67.9204712l-37.477417-0.0429077v45.8007813h-29.3113098
		v-68.1167297h66.7906189v-21.591217h-105.405365H397.3777161z M171.4862366,315.4932861l-21.2319489,45.1758423h-12.2620087
		v-45.1758423h-38.854744v111.8693542h38.854744v-45.01297h12.2620087l21.2319489,45.01297h38.8177643l-27.37883-55.8547058
		l27.37883-56.0146484H171.4862366z M220.6416931,427.3621216h40.2245789V315.4934692h-40.2245789V427.3621216z
		 M610.7246704,360.5995483h-54.1798096V337.17453h27.1039429v8.5750427h37.3205566v-0.0018921v-30.2543945H517.8347168v51.1081848
		c0,8.5210266,5.1746826,15.4436951,11.5313721,15.4436951h52.5497437v24.3811646h-64.0792236v20.9376831h103.1851196v-51.3525391
		C621.0217285,368.0655212,616.6331177,360.5995483,610.7246704,360.5995483z M620.9609985,208.8448486V92.2460861
		L511.2519531,202.035202h-32.9337463l67.9252014-67.956604l-51.4683533-51.3767929l-68.250824,67.8479385l-67.8222961-67.8479385
		L239.4600983,202.035202h-32.9311218l67.8079987-68.0595093l-51.2796478-51.2738876l-67.7849731,67.8479385L99.1405029,94.8295135
		v111.3377228v88.7969971h521.8204956V208.8448486z"/>
	<path class="st0" d="M213.1347351,237.4421234h34.5755005v7.8599701H223.810791v25.5541077h23.8994446v7.8786316h-29.3244171
		c-2.90242-0.0151672-5.248291-2.3710022-5.2510834-5.2735901V237.4421234z M199.9017639,242.7026215v36.0302887h-10.6758881
		v-10.8030396h-13.2306976v10.8030396h-10.6668091v-41.2927094h28.7095947
		c0.1240082-0.0109863,0.2483673-0.0177917,0.3727264-0.02005
		C197.385849,237.3624115,199.8442078,239.7276459,199.9017639,242.7026215z M189.2277985,245.3096008h-13.2326202v14.7657166
		h13.2326202V245.3096008z M601.5780029,242.6672211v30.779007c-0.0014038,2.8985901-2.3360596,5.2557983-5.2344971,5.2847595
		H572.151062c-2.894043-0.0237122-5.229126-2.3737793-5.234314-5.2680054v-30.7957611
		c0.0085449-2.8862,2.3482666-5.2224731,5.234314-5.2270203h24.1924438
		C599.2307739,237.4421234,601.5718994,239.7799683,601.5780029,242.6672211z M590.8588867,245.2928467h-13.1860352v25.5016174
		h13.1860352V245.2928467z M117.4827576,256.7607422c0.0094147,2.8994751,2.3592987,5.2469177,5.2587585,5.2530212h18.6389313
		v8.8385925h-23.8976898v7.8786316h34.5756683v-19.3352051c0.0073242-2.6868286-2.0221558-4.9423523-4.6948853-5.2177582
		l-0.2914429-0.0261688h-18.931778v-8.8516846h23.9181061v-7.8599701h-34.5756683V256.7607422z M342.4768677,242.7026215v36.0302887
		h-10.6837158v-10.8030396h-13.2326355v10.8030396h-10.6758728v-41.2927094h29.3053894
		C340.0994568,237.4426422,342.4609985,239.793396,342.4768677,242.7026215z M331.7914124,245.3096008h-13.2326355v14.7657166
		h13.2326355V245.3096008z M520.4048462,245.2905884h11.9705811v33.4396973h10.6531982v-33.4396973h11.9560547v-7.8498535
		h-34.579834V245.2905884z M409.7232666,237.4402008h-53.0855408v41.294632h10.6741333v-33.4289093h13.0889282v33.4289093
		h10.8180237v-33.4289093h13.0796509v33.4289093h10.6779785v-36.0397034
		C414.9638977,239.7988129,412.6195984,237.4538116,409.7232666,237.4402008z M504.3275452,237.4402008h-29.3094177v41.294632
		h10.6687317v-33.4289093h13.2326355v33.4289093h10.6762085v-36.0397034
		C509.5826416,239.7932281,507.2296143,237.4459686,504.3275452,237.4402008z M429.5105286,273.4612427h0.0001831
		c-0.0029602,2.9057312,2.3472595,5.2650452,5.2529907,5.2735901h29.2963562v-7.8786316h-23.873291v-8.8516846h23.873291v-7.8432312
		h-23.873291v-8.8591919h23.873291v-7.8599701h-34.54953V273.4612427z M288.8648071,263.7094116l6.3249512,15.0234985h-10.3978882
		l-6.3884277-15.0215759h-7.740509v15.0215759h-10.6668091v-41.2927094h28.713623
		c0.1018372-0.0083618,0.2038879-0.0141296,0.3060913-0.0167389c2.9899902-0.0795288,5.4781799,2.2799377,5.5577087,5.269928
		v21.0160217H288.8648071z M283.8953857,245.3020935h-13.2307129v10.5546722h13.2307129V245.3020935z"/>
	<path class="st2" d="M140.9005737,543.602478c-19.3976364-28.7553101-32.8435593-61.1021118-39.5452499-95.134491v-0.0021057
		h111.9661484c2.6947021,13.1654968,5.8711243,25.8363037,9.4358063,37.7540283
		C176.3442993,497.1539307,152.7118988,522.8869629,140.9005737,543.602478z M231.6782074,512.4744263
		c-45.0947571,9.8282471-64.1836853,35.3914185-72.2583466,55.6137085
		c49.4697571,58.4586792,121.9468079,92.473938,198.5250549,93.1719971
		c-7.1802979-3.6676025-14.2056885-7.7049561-20.9638672-12.050293
		C304.7043152,628.3468018,260.3302307,587.7453003,231.6782074,512.4744263z M283.479187,507.4471436
		c-7.889801,0-15.9519348,0.3809204-24.0171814,1.0757751c20.3363342,51.1246033,51.0611267,90.4100037,91.3884277,116.7799988
		c21.0510864,13.8128662,44.4609375,23.6411133,69.063446,28.9953003
		c42.3152771-9.9207153,81.5221558-30.1467896,114.1340942-58.8780518
		c-25.7166443-2.81604-52.0848999-17.6157837-79.9189453-33.2237549
		C410.6702881,537.8021851,356.5481873,507.4471436,283.479187,507.4471436z M241.095871,448.4812317
		c2.6252747,11.4248352,5.2045135,22.7882385,8.653717,33.2419434c9.3081207-1.0444031,18.6671906-1.5704346,28.0339203-1.5760193
		c55.5951843-1.1298523,110.5743103,12.7901306,180.7302856,52.7679443
		c51.8550415,29.5464478,74.6376953,38.5084839,90.1856689,34.6818848
		c14.3270874-3.5238647,27.6156616-11.9871216,51.0631714-61.5430603
		c8.4019165-18.3996277,14.6113892-37.7233276,18.5007935-57.5726929H241.095871z"/>
</g>
</svg>
