<?xml version="1.0" encoding="utf-8"?>
<!-- Generator: Adobe Illustrator 22.0.1, SVG Export Plug-In . SVG Version: 6.00 Build 0)  -->
<svg version="1.1" id="Layer_1" xmlns="http://www.w3.org/2000/svg" xmlns:xlink="http://www.w3.org/1999/xlink" x="0px" y="0px"
	 width="720px" height="720px" viewBox="0 0 720 720" style="enable-background:new 0 0 720 720;" xml:space="preserve">
<style type="text/css">
	.st0{fill:#FFFFFF;}
	.st1{fill:#C4CED4;}
</style>
<g>
	<path class="st0" d="M230.9785156,388.157135h39.7285767l-11.9571838,30.0857239L230.9785156,388.157135z M183.5354614,523.1571655
		l-63.2571335,93.7285156l103.7571335-33.9428711L266.0783386,684l31.6286926-108.7713623l116.8712463,30.0857544
		l-75.599884-87.5571899l90.643158-75.214325l-81,5.0142822l53.6143494-60.1714172h104.5284729l119.5715027-211.75737V36
		h-84.8572388l-40.5000305,72.1285629l-7.7142639,54.3856888L432.3213806,270.900177h-55.9285889l54.7714233-96.8142853V36.3858986
		h-87.9427795l-39.3428345,71.7428894l-6.9428406,54.7714233L201.2784729,333.771637l14.657135,37.7999573l-18.5143127-20.0573425
		l7.7142792,102.9856873l-111.4714432,5.0142822L183.5354614,523.1571655z"/>
	<polygon points="511.3912964,115.0707626 505.2207031,167.9146881 439.2651062,285.5558167 352.8648376,285.5558167 
		417.2801208,171.7698059 417.2801208,50.2728996 350.5500183,50.2728996 315.0654602,115.0707626 309.6647034,167.9146881 
		215.5488739,335.3137817 231.363266,374.2715454 289.6072998,374.2715454 262.9920349,441.7714539 213.2340698,387.7704468 
		219.0220795,467.2296448 132.2339172,471.0854187 201.2794647,519.2984009 152.2913361,592.1990967 231.363266,566.7415771 
		263.7618713,645.0430298 288.8374634,559.413208 376.7780457,581.7854614 319.6910706,516.2131348 389.5071411,458.3563232 
		317.3809509,462.9866028 395.6777344,374.2715454 498.6622009,374.2715454 612.4481812,172.5449677 612.4481812,49.8856544 
		548.4208374,49.8856544 	"/>
	<path class="st1" d="M588.5352173,68.0153427l-21.9851074,40.4973679h-31.2412109l23.1427612-40.4973679H588.5352173z
		 M393.7498474,68.0153427h-32.0161133l-22.7553711,40.4973679h33.9440002L393.7498474,68.0153427z M364.4363708,125.1019516
		h-29.7009583l-3.8554688,35.0968399h30.4710388L364.4363708,125.1019516z M526.822998,160.1987915h30.0834961l3.0853882-35.0968399
		h-29.3134766L526.822998,160.1987915z M520.6522217,181.801239h31.6286621l-81.3870544,145.4145203h-91.8006897
		L273.4058533,486.8996277h3.4727783l50.9159241-3.4728699l-36.2592163,30.0884399l29.7009583,34.3266602l-45.9028015-11.9541016
		l-12.7241516,44.3529053l-16.9719849-40.4973755l-40.8895874,13.4990845l25.0752411-37.7994385l-35.8717346-25.4579163
		l45.1278992-1.9277344l-3.0853882-40.8848572l30.0836334,32.3988647l66.7780151-152.3555298h-91.0783691l82.9320984-145.4145203
		h32.0113831l-68.65802,119.956604H452.37677L520.6522217,181.801239z M265.3070679,511.585907
		c0.0465698-7.4093018-5.9222107-13.4535217-13.3315125-13.4999695c-0.0561829-0.0003357-0.1123657-0.0003357-0.168457,0
		c-7.4557648,0.2162781-13.3245544,6.4358521-13.1082764,13.8916931
		c0.2075043,7.1517029,5.9565582,12.9007874,13.1082764,13.1082458c7.2783508,0.1774292,13.3224182-5.5788574,13.4999695-12.8571167
		C265.3124084,512.0145874,265.3124084,511.8003235,265.3070679,511.585907z"/>
</g>
</svg>
