<?xml version="1.0" encoding="utf-8"?>
<!-- Generator: Adobe Illustrator 22.0.1, SVG Export Plug-In . SVG Version: 6.00 Build 0)  -->
<svg version="1.1" id="Layer_1" xmlns="http://www.w3.org/2000/svg" xmlns:xlink="http://www.w3.org/1999/xlink" x="0px" y="0px"
	 width="720px" height="720px" viewBox="0 0 720 720" style="enable-background:new 0 0 720 720;" xml:space="preserve">
<style type="text/css">
	.st0{fill:#BD1B21;}
</style>
<path class="st0" d="M468.8058167,662.6412964v0.0002441c-0.0002441,0-0.0002441,0.0002441-0.0004883,0.0002441
	L468.8058167,662.6412964z M671.104126,419.64151c-0.8060913-1.209137-2.0149536-2.8210754-2.8210449-4.0299683
	c-0.8058472-1.2088928-2.8208618-3.6269226-3.626709-4.8357849l-2.8210449-2.8208313
	c-2.4180298-2.4180298-4.8358154-4.8358154-6.850769-6.4477539c-1.0897217-0.4330139-2.0578613-1.1245728-2.8208618-2.0149841
	c-6.4060669-5.066803-13.4517822-9.2671204-20.9553833-12.4924316c-3.223877-1.209137-6.4477539-2.4180298-9.6716309-3.6269226
	c-2.7720947-0.8616638-5.5994873-1.5346985-8.4624634-2.0149841c-1.2015991-0.471283-2.5584106-0.3204346-3.6269531,0.4032898
	c-1.2088623,0.8058472-1.2088623,2.4180298-1.2088623,4.0297241c-0.4030762,4.0299683-0.4030762,8.4627075-0.8060913,12.8957214
	c-0.4030762,4.4327698-0.8058472,8.462738-1.2089233,12.8954773c-0.4030151,4.0297241-0.4030151,7.6566467-0.8058472,11.686615
	c-0.4115601,5.1589355-1.2200928,10.2786255-2.4179688,15.3132629c-1.6119385,9.2688293-3.6269531,18.9401855-5.6419067,28.2090149
	c-0.2909546,2.6375732-0.9698486,5.2176514-2.0147705,7.6566162c-1.6314087,4.0297241-2.8468628,8.2156372-3.6268921,12.4927063
	c-1.8892822,8.8260498-4.5872803,17.4595947-8.0596924,25.7909851c-2.1965332,7.0255127-5.170166,13.7836914-8.8657837,20.149292
	c-0.3096924,0.3216553-0.4578857,0.7658691-0.4030151,1.2089233c-2.0150146,4.4329834-3.6269531,8.8657227-5.6419067,12.8956909
	c-1.5032349,2.6035156-2.8491211,5.2949219-4.0297241,8.0596924c-1.6389771,3.487793-3.524353,6.8546753-5.6419067,10.0744019
	c-3.223877,5.2388916-6.850769,10.074707-9.6716309,15.3135376c-2.0476074,3.6412964-4.3362427,7.1414795-6.850769,10.477478
	c-0.7675781,0.7887573-1.3222046,1.7593384-1.6119385,2.8210449c-1.7827759,2.9797363-3.8043213,5.8098145-6.0446777,8.4627686
	c-4.0297241,5.2385864-8.4627686,10.477417-12.8955078,15.7163086c-2.8208008,3.223877-5.6419067,6.0446777-8.4627075,9.2685547
	c-2.4180298,2.8208008-5.2388611,5.6416626-8.0596924,8.4627075c-0.5887451,0.633606-1.2676086,1.1767578-2.0149841,1.6119385
	c-1.7089233,1.22229-3.3252563,2.5693359-4.8358154,4.0297241c-3.2455444,3.5111694-6.8980713,6.6226807-10.8804932,9.2685547
	c-1.6119385,1.2089233-3.6269226,2.4180298-5.2388611,3.6269531c-4.2136841,3.3562012-8.813385,6.1972046-13.7010803,8.4627075
	c0.4030457,0.8060913,0.8060913,1.2089233,1.2088928,1.2086792c1.7637329-0.140625,3.5145569-0.4101563,5.2388306-0.8058472
	l3.223877-1.6119385l9.6716309-3.6269531l23.776001-11.2835693l4.0299683-2.0149536l2.0149536-0.8060913l2.4177856-1.6119385
	l4.0299683-2.4177856l4.8358154-2.8210449l6.4477539-4.0297241l11.2835083-8.0599365l5.6419067-4.4327393l7.6566772-5.6416626
	l7.25354-5.2388916l3.223877-2.4180298l4.8358154-4.4327393l4.8360596-4.8358154l8.0596924-8.4627075l9.2685547-8.8657837
	l10.477478-12.0894165l5.6419067-7.6566162l2.0149536-2.8210449l6.4477539-7.6566772l12.0894165-17.7312622l3.223877-5.6416626
	l8.0596313-16.1193542l4.4330444-8.8657837l8.0596924-16.1193542l4.4327393-9.6716309l4.8358154-14.9104614
	c0,0,5.6419067-19.7462769,8.4627075-30.2237244c0.4988403-1.0624695,0.3421631-2.3171692-0.4030151-3.223877
	C673.9249878,425.2831726,672.7160645,422.4623413,671.104126,419.64151z M682.7910156,322.5220642
	c0,0-2.821106-19.7462769-4.8358154-29.4179077c-0.6774292-3.0542603-2.774292-5.6004639-5.6419067-6.850769
	c-1.048584-0.4693298-2.1251221-0.8731079-3.223877-1.2088928c-2.0147705-0.8060913-4.4328003-1.6119385-6.4477539-2.4180298
	c-4.8358154-1.209137-9.6716309-2.8208313-14.5074463-3.6269226c-6.0446777-0.8058472-11.6865845-1.6119385-17.7312622-2.0149841
	c-4.8358154-0.4028015-9.6716309-0.8058472-14.5074463-0.8058472h-10.0748901c-2.0147705,0-4.4327393,0-5.2385864,1.2088928
	c-0.6182251,1.9674683-0.6182251,4.07724,0,6.0447083c0.8060913,4.8358154,1.6119385,7.2535706,2.4179688,11.6865845
	c2.736084,13.8285522,4.4866333,27.8337402,5.2386475,41.9103394c0.4030151,6.4477539,0.8060913,12.8955078,0.8060913,18.9401855
	v4.8358154c0.0272827,1.1209106,0.3023682,2.2218628,0.8058472,3.223877
	c0.5541382,0.7807312,1.4608154,1.2339783,2.4180298,1.2088928c1.2088623,0.4032898,2.4180298,0.4032898,3.6268921,0.8060913
	c1.2089233,0.4025574,3.6269531,0.8058472,4.8358154,1.2088928c5.6419067,2.0149841,11.6865845,4.0299377,16.9254761,6.0446777
	c3.8781128,1.6368103,7.6470947,3.5214233,11.2835083,5.6419067c0.4030762,0.4030457,0.8058472,0.4030457,1.2089233,0.8058472
	c2.0147095,1.6119385,4.4327393,3.223877,6.4477539,4.8358154c5.461792,3.3766479,10.3575439,7.5925293,14.5073853,12.4926758
	c0.8060913,0.8058472,1.6119385,2.0149841,2.4180298,2.8208313c1.6119385,1.2088928,4.0297241,6.4477539,6.0447388,8.462738
	c0.8058472,0.4030457,0.8058472,0.8060913,1.2086182,0.8060913v0.0002441
	c0.2190552-0.2171326,0.3606567-0.5002747,0.4030762-0.8058472c0.0648193-0.8161011,0.1995239-1.6250916,0.4032593-2.4180298
	l2.4177856-20.5523682l1.2088623-19.3432312v-21.761261L682.7910156,322.5220642z M152.0597687,113.3729324h1.2088776
	l8.8657837-3.6269226h1.2088776l9.6716156-4.0297165l5.2388611-1.6119308l5.2388458-2.0149841l7.2538452-2.4177856
	l17.7312927-6.8507843h1.6119385l8.8655243-3.223877l7.25383-2.8208237l0.8058472,0.8058472l13.7015839,0.4030457
	l8.8655243,0.8058472h0.4030457l17.731308,1.2091293l24.5820618,1.2088928v0.4032898l8.8657837,7.6566315h0.8058472
	l8.865509,8.4624863l0.8060913-0.4030457l12.0894165,0.4030457l0.4030457-0.4030457l30.6270142,1.6119385v0.8060837
	l13.701355,8.0596848h0.4030457l24.1790161,11.6863556v1.209137l13.7015991-5.2388611l20.1490784,6.8507843l3.223877,5.6416626
	l7.2538147,0.4030457l7.2536011,8.0596771h0.8060913l5.6416626,6.4477386v0.4030457h0.8060608l15.7163391,3.6269226
	l6.0446777,8.8655243l14.5076904,5.2388611c7.8327942,2.0373993,15.7696838,3.6515198,23.776001,4.8358002
	c7.6473389,1.8319855,15.5466919,2.3768463,23.3731689,1.6119385c1.7562256,0.0823669,3.5160522-0.0528717,5.2388916-0.4030457
	c1.2091064,0,2.0149536,0,2.8208008-1.2088928c0.237854-1.0163879-0.0670166-2.0834503-0.8058472-2.8208313
	c-0.4030151-0.806076-4.0299683-7.6568756-4.0299683-7.6568756l-3.6266479-5.6416473l-15.3135376-22.1643066l-3.223877-3.6266785
	l-2.8208008-4.029953l-4.8358154-5.641655l-12.4927063-13.7013397l-5.2388306-5.2388535l-19.3432312-17.7312927
	l-15.7163391-12.0898895l-5.6418762-2.8208237l-18.5371704-11.2835541l-12.8957214-6.8507881l-2.4177856-1.2088928
	l-10.4776917-4.0299606l-15.7163086-5.641655l-1.209137-0.4030457l-4.8358154-1.208889l-1.2088928-0.4030457l-4.4327698-1.2088928
	l-9.2687988-1.6119347h-4.4327698l-8.462738-1.6119347l-10.074646-0.8058472L342.6712646,36h-6.0444641l-10.4776917,0.4030457
	l-10.0746765,1.208889h-8.0596619l-6.8507996,0.8058472l-7.2536011,1.6119347l-5.6418762,1.6119385l-8.8655396,1.6119347H277.38797
	l-8.4627075,2.8210716l-4.8358154,1.2088928l-2.8208313,1.6119347l-7.2536011,2.0149803l-3.6269073,2.0147362l-4.4330139,1.6119385
	L235.074585,58.97015l-13.7013245,5.2388496l-4.4330139,2.01474l-9.6716156,5.2388535l-8.4627228,5.641655l-7.6566315,4.0299606
	l-2.8208313,1.6119385l-8.4627228,4.4327621l-1.209137,0.8060913l-9.6713715,7.6566315l-8.0596771,5.2388535l-1.6119385,1.2088928
	l-8.8657684,7.2538376l-3.223877,2.8208237c0,0-4.8358154,4.0299606-4.8358154,4.8358078l3.223877-1.2088928
	C145.6120148,115.7909546,151.656723,113.3729324,152.0597687,113.3729324z M589.2984619,171.8059235
	c0,0-4.8358154,4.0297089-5.6416626,4.4327545c-1.4077148,1.0461121-2.8890381,1.9889069-4.4329834,2.8208313l-4.8358154,2.8210754
	c0,0-3.626709,1.6116791-4.4328003,2.0147247s-1.2088623,0.4030457-1.6119385,0.8060913
	c-0.4030151,0.4028015-0.4030151,0.8058472-0.4030151,1.6119385c0,0.8058472,0.4030151,1.2088928,0.8060913,2.01474
	c2.0147095,4.4330139,4.0297241,8.4627228,6.0444336,12.8957367c3.0986328,6.2681427,5.7907715,12.7292938,8.0596924,19.3432312
	c0.9813232,2.0795593,1.7900391,4.2358704,2.4180298,6.4477386c2.0149536,5.6419067,3.6268921,11.2837982,5.2385864,16.9254456
	c0.8060913,2.4180298,1.6119385,4.8358154,2.4180298,7.6566467c0.8060913,2.4180145,1.2089233,5.2388458,2.0150146,7.6566315
	c0.3189697,1.4986267,1.6957397,2.5313416,3.223877,2.4180298h4.8358154c6.0446777,0,11.6865845-0.4030457,17.7312622-0.4030457
	c1.6119385,0,13.2985229,1.209137,13.2985229,1.209137s4.0297241,0.4028015,6.0447388,0.8058472
	c4.4327393,0.8060913,8.8657227,2.0149841,13.2985229,2.8208313c3.7555542,0.7817078,7.4071045,1.9989014,10.8804932,3.6268921
	c1.6848145,0.7200928,3.4407349,1.2603149,5.2388306,1.6119385c0.5482788,0.0850525,1.0878296,0.2200623,1.6119385,0.4030457
	c0.8058472-0.4030457,1.2086792-0.8058472,1.2089233-1.2088928v-0.0002441
	c-0.5385132-2.4528503-1.2111206-4.8745422-2.0147705-7.2538147l-0.8060913-2.4177856l-0.8060913-3.2241211l-2.4177856-7.6566315
	l-2.4179688-6.8505402l-7.6566772-16.9254608l-3.223877-8.0596771l-4.4329834-9.6716156l-5.2385864-8.4627228l-1.2089233-2.4180298
	l-3.6268921-6.8505402l-3.223877-5.2388611l-1.2089233-1.6119385l-22.1640625-29.8209381
	c0,0-2.0149536-2.4177704-3.223877-3.6266632c-0.4030151-0.8060913-0.8060913-1.209137-1.2088623-1.209137
	c0,0-6.850769,10.8807526-9.6716309,14.1046143C594.9403687,166.5670624,589.2984619,171.8059235,589.2984619,171.8059235z
	 M418.0299377,42.0447006l12.0894165,4.8358078c2.477478,1.2444687,5.0353699,2.3215294,7.6568604,3.2238693
	c1.8312378,0.4249763,3.5945129,1.103138,5.2388611,2.0149841l18.1343384,10.8805046
	c3.6166687,2.1926231,6.9935913,4.7590523,10.0744324,7.6566353c2.2764282,2.2289352,4.8535767,4.1279221,7.6568604,5.6418991
	c1.2088928,0.8058472,2.4177856,2.01474,3.6266785,2.8208313c0.8060913,0.4032822,1.209137,1.2088852,2.0149841,1.6119308
	c3.6727295,2.7355423,7.1719666,5.6964874,10.4776917,8.8655243c3.288208,3.6912537,6.7864685,7.1895065,10.4777222,10.4777069
	c3.5272522,3.1997528,6.7637939,6.7060471,9.6716309,10.4777069c2.3336792,3.136879,4.8925781,6.1000137,7.6566162,8.8655319
	c5.2388306,5.2388535,9.2685547,11.2835541,14.1043701,16.9254456c0.3935547,0.8930817,0.9389038,1.7113647,1.6119385,2.4177856
	c3.223877,4.8358002,6.0449219,10.0746613,9.6716309,14.5076599c2.5123291,3.1965942,4.8014526,6.5630035,6.850769,10.0744171
	c1.1969604,2.2374725,2.5432739,4.3915863,4.0299683,6.447998c0.6177368,0.9686279,1.6726074,1.5712433,2.8208618,1.6116943
	c0.7229614-0.1164856,1.4108887-0.3916016,2.0149536-0.8058472l2.4177856-1.2088928c0,0,3.223877-1.6119385,4.4329834-2.0149841
	c1.5583496-0.6484222,3.0440674-1.4586639,4.4328003-2.4180298c0.8060913-0.8058472,4.4327393-3.2238617,6.0446777-4.8358002
	c2.057373-1.9879303,3.944458-4.1447449,5.6416626-6.4477539l2.8210449-3.6269073l4.8358154-8.0596771
	c0.394043-0.7585754,0.6660156-1.5744171,0.805603-2.4177856c-0.3691406-1.15065-0.9127808-2.2379456-1.6119385-3.223877
	l-1.2088623-2.0149841l-3.223877-3.6269073l-2.0147705-3.223877l-4.0299683-4.0297165l-1.2088623-1.2088928
	c-6.850769-5.6418991-20.9551392-16.9254532-20.9551392-16.9254532l-4.0299683-3.2238693l-7.2536011-6.4477463
	l-36.2686768-21.7612534l-28.6118164-13.70158l-15.3135071-6.0447006l-5.6419067-2.0149803l-18.9399414-6.4477463
	l-13.2985535-3.2238693l-12.8957214-2.8208275h-2.01474l-1.209137,1.208889l0.4030457,0.4030457
	C416.6188049,41.6528625,417.3069458,41.9279785,418.0299377,42.0447006z M108.1344452,339.0444641l14.5074234-0.8060913
	l8.8657761-10.074646l0.8058319-2.01474l1.209137,0.4030457l23.776001-2.8210754l1.2088928-0.8058472h8.8657684l1.2088928,0.4030457
	l2.8208313-3.6269226l10.8807526-6.4477539l11.2835388-8.0596619l32.2389679,0.4028015l0.4028015,0.8060913l12.492691,1.2088928
	l9.6716156-2.0149841l18.1343536-18.5371399h0.4028015l14.5076599-13.701355l21.3582153-2.8210754l0.8058472-0.4028015
	l0.8060913,0.8058472l11.2835388,5.2388611l0.8058472-0.8060913l10.0746765-1.2088928l0.4030457-0.4032898l9.2685547-1.6119385
	l0.8060913-0.4028015l10.0746765,8.4624939l0.4030457-0.8058472l20.9551697-0.4030457l1.611908-1.2088928l16.5224304,0.8058472
	l0.8058472,0.4030457l2.4180298-0.8060913l0.4030151-0.8058472l6.8507996-2.8208313h0.8058472l7.6566467-3.6269226
	l0.8060913-0.8060913l8.0596619-3.2238464l0.4030457-0.8058472l22.5671082-8.8657837v-0.4030457l4.0299683-1.209137
	l0.8058472-0.8058472l1.209137,1.2088928l6.4477539,3.223877h2.0149536l7.2536011,4.0299683l0.4030457-0.8060913
	l2.4180298-1.2088928h0.4030457l3.6266785-1.6119385v-0.4030457l5.2388306-1.2088928l13.7015991,3.6269226l2.8208313-0.8060913
	l2.4177856,1.6119385l10.074646,1.6119385l9.6716309,3.6269226l5.6418762-0.4030457l2.0150146,1.2088928l1.6119385-0.8058472
	c0,0,19.3432007-2.4180298,29.0148315-3.2241211c6.4477539-0.4030457,12.4924316-1.2088928,18.9401855-1.6119385
	c3.6266479-0.4028015,7.2536011-0.8058472,10.477478-1.2088928c2.4177856,2.0149841,3.2236328,1.2088928,2.4177856-1.2088928
	l-0.0002441,0.0004883c-2.0150146-6.0447083-3.6269531-11.6865997-5.6419067-17.7312927
	c-1.5025635-4.9203644-3.2509155-9.7622681-5.2388916-14.507431c-1.2088623-2.8210754-2.0149536-6.0449371-3.223877-8.8657684
	c-0.4030151-1.6119385-1.2088623-2.8208313-1.6119385-4.4327698c-2.9492188-7.1743927-6.3132324-14.1713867-10.074646-20.9554138
	c0-0.4028015-0.4030151-0.8058319-0.8058472-1.2088776c-0.3170166-0.7198334-0.8920898-1.2949219-1.6119385-1.6119385
	c-0.8060913-0.4030457-1.6119385,0-3.223877,0c-3.223877,0.4030457-6.850769,0.8060913-8.4627075,0.8060913
	c-1.6121826,0-7.6566162,0.4028015-12.4926758,0.8058472l-1.2089233-0.4030457h-6.0446777l-15.7163086-2.01474
	c-5.6416626-0.8060913-18.9401855-4.0299683-18.9401855-4.0299683l-9.6716309-3.2238617l-11.6863403-4.0299683l-0.8060913,0.4030457
	l-18.537384-1.6119385l-0.4030457,0.4030457l-10.4777222-8.0596771h-1.2088928l-6.4477234-6.0447083l-0.4030457-1.2091217
	l-7.2536011-1.2088928l-0.8060913,0.4030457l-6.0444641-2.0149841l-0.8060913-0.8058472l-13.7013245,0.8058472
	l-12.4926758-4.8358154l-42.7164307,2.4180298l-0.8058472-0.4030457l-8.0596924,0.4030457l-0.8060913,0.8058472
	l-20.9551697,1.6119385l-0.4030457-0.4030457l-29.8209229,17.3284912l-0.4028015,1.2088928l-1.209137,1.209137l-0.8058472-0.4030457
	l-14.9104614-1.6119385l-0.8060913,0.4028015h-26.5968323l-0.4030457-0.4028015l-7.6566315-0.4030457l-2.4180298-1.2088928
	l-27.805954,21.7610168v0.4030457l-9.6716156,7.6566315l-10.8805084-5.2388458l-0.8060913,0.4030457l-4.0297241-1.2088928
	c0,0-20.1493225,5.2388458-19.7462769,5.2388458l-18.9401855-2.820816l-1.2088928-1.209137l-3.6269073,3.6269073
	l-7.6566391,3.6269226v0.8058472l-14.9104691,11.2835541L85.567337,235.4772644l-24.179039,17.731308l-10.8807526,8.0596771
	l-0.4030457,4.4330139l-4.4327621,10.4776917l-2.0149803,8.8655396l-2.8208275,18.1343384l-1.6119347,8.0596619
	l-0.8058472,9.6716309l-2.418026,19.7462769l-1.2088928,43.5222778l1.2088928,2.4180298l0.8060913,12.0896301
	c0,0,0,2.01474,0.8058434,2.01474l53.1941338-54.8058167L108.1344452,339.0444641z M317.6858826,523.2091675l-1.2088928-4.0296631
	l4.4327698-16.9254761l8.8657837-2.8208313l0.4032593-0.4030457l2.8208313-0.4032898v-1.6119385l12.0894165-19.3432312
	l1.209137-0.4032898l4.8357849-9.6716003l8.0596924-4.4327698l1.2088928-1.209137l1.6119385,0.4030457l4.8358154-2.8208313
	h0.4030457l8.865509-4.0297241l0.8060913-1.209137l29.4176636-13.2985229h1.6119385l0.4030457-1.6119385l1.2088928-0.8058472
	l2.8208008-10.074646l9.2688293-4.0299683l10.8804932-1.2088928l9.6716309-6.8507996l13.7015686,0.4030457l1.2088928,1.209137
	l0.8058472-0.8060913l19.3434753-8.4627075v-2.4180298l4.8358154-8.8655396l9.6716309-2.4180298l0.4030457-0.8058472
	l12.8954773-2.8210754l4.8358154-6.0444336h0.8060913c0.984436-1.0383301,2.0639343-1.9828186,3.2238464-2.8208313
	l8.8655396,1.2088928l0.4030151,0.4030457l4.8358154,0.8058472l3.223877,0.4030457c0,0,13.2985229-6.0447083,18.5374146-8.462738
	c2.4180298-0.8058472,4.4327393-1.6119385,6.850769-2.4177856c3.223877-1.209137,6.0447388-2.0149841,9.2685547-3.223877
	c1.6119385-0.4032898,3.223877-0.8060913,4.4330444-1.2091064l6.0446777-1.2088928l7.2536011-1.209137l4.4329834-0.4028015
	c0.9308472-0.1932373,1.8729248-0.3280029,2.8208618-0.4030457c1.0100098,0.1157227,2.0244751-0.1742554,2.8210449-0.8060913
	c0.8058472-0.8058472,0.8058472-1.6119385,1.2089233-2.4177856c-0.5368652-1.4162598-0.8097534-2.9187927-0.805603-4.4332581
	l-0.0002441,0.0002441c0-1.209137-0.402832-2.0149841-0.402832-3.6269226
	c-0.3430786-3.750946-0.4776001-7.5177307-0.4032593-11.2835388c0-1.209137-0.4030762-2.4180298-0.4030762-3.6269226
	c-0.4030151-4.4327698-0.4030151-9.2685852-0.8060913-13.7013245c-0.402771-6.0447083-1.6119385-11.686615-2.4177856-17.3284912
	c-0.8060913-4.4327698-1.6119385-8.8657837-2.4180298-13.2985535c-0.8060913-4.8358154-1.6119385-8.865509-2.8208008-13.7013245
	c-1.2091064-4.8358154-2.0149536-5.2388611-6.850769-4.8358154c-0.4432983-0.0548401-0.8875122,0.0930786-1.2091675,0.4030457
	c-1.6119385,0.4030457-4.4327393,0.4030457-6.0446777,0.8058472c-9.2685547,1.209137-18.1343384,1.6119385-27.8059692,2.8208313
	l-26.9998779,9.2687988l-39.0895081-1.209137l-4.4329834-1.2088623v0.8060608l-11.6863708,8.462738h-1.6119385l-9.2687988,8.4624939
	l-0.4030457,1.209137l-23.3729553,3.2238464l-21.3582153,16.5224304h-2.4180298l-11.2835388,6.8505249l-4.4330139,0.4030457
	l-4.4327698,3.6269226l-1.2088928-0.8060913l-21.761261-1.6119385l-3.6269226,4.4330139v0.8058472l-18.9399414,20.5523682
	l-0.4030457,1.2088928h-0.8060913l-24.1790466,27.4029236h-6.4477234l-0.4030457,0.8060608l-19.7462769,3.223877h-1.6119385
	l-0.4032898,0.8058472l-32.6417694,18.1343384l-14.507431-1.6119385l-3.2238617,1.209137l-14.507431-0.8060913
	l-14.5076599,15.7163391l-8.462738,1.6119385l-4.8358002-0.4028015l-5.2386169,2.01474l-3.2241058-0.4028015v0.8058167
	l-17.7312927,13.7015991l-1.6119385,0.4030457l-27.8057251,21.761261l0.4028015,1.2088928l-17.3282471,41.9105835
	l0.8058472,1.611908l-28.6118011,2.4178162l-9.2688141,8.0596313l-0.8058472,3.223877l12.8954849,17.7313232l9.2688141,14.5076904
	l8.0596848,10.477417l13.2985306,14.5076904c-0.0019455,0.4361572,0.1396255,0.8609009,0.4028015,1.2088623
	c0.4030457,0,1.6119385,0,1.6119385,0.4033203l8.0599289,2.8208008l9.6713715,3.223877
	c-0.0046387,0.2178955,0.1683807,0.3984375,0.3862305,0.4030762c0.0056,0,0.0112,0,0.0168152,0h0.8063202l16.1193695,6.4477539
	h1.2088928l0.8060913,1.2088623h1.6119232l3.6266785,2.4180298l6.8507843-3.6268921h0.4030457l3.223877-2.0147705
	l24.5820923,6.0447388l18.1343384-9.2686157l39.8955994-4.0299683l16.5223999-26.1939697l7.2536011-7.2536011h0.8060913
	l5.6416321-5.2388916v-0.8060913l10.0746765-9.2685547l4.8358154-4.8358154l1.2088928-0.8058472l5.6418762-5.6419067
	l4.4327698-4.4327393L317.6858826,523.2091675z M495.4028625,624.3580933
	c2.8208313-2.4179688,5.2388611-5.2388306,8.0596924-8.0596313c0.4030457-0.4030762,1.2088928-0.8060913,1.2088928-1.6119385
	c0.9790955-1.9984131,2.3495483-3.7799683,4.0299683-5.2388916c1.1849976-1.1060181,2.2642517-2.3203125,3.223877-3.6266479
	c1.960144-2.7041016,4.2628784-5.142334,6.8505249-7.2538452c1.8599854-1.9133301,3.6091309-3.9315186,5.2388306-6.0444336
	c2.8208618-4.0299683,5.2388916-8.0596924,8.0596924-12.0896606c3.6269531-5.2388306,7.2538452-10.4777222,10.4777222-16.1193848
	c3.223877-6.0446777,6.4477539-12.0895996,9.6716309-17.7312622c2.8208008-4.8358154,5.6419067-10.074646,8.0596924-15.3135376
	c3.6268921-8.8655396,7.6568604-17.3282471,10.8807373-26.5970459c3.6171265-9.4566956,6.5793457-19.1512146,8.8655396-29.0148621
	c2.0149536-7.2535706,3.2238159-14.9104614,5.6418457-21.761261c0.4030762-0.8058472,0.4030762-2.01474,0.8058472-2.8208313
	c1.2089233-6.0444336,2.0150146-12.089386,2.821106-17.7312927c0.8060913-5.6416321,1.6119385-11.2835388,2.4177856-16.9254456
	c0.4032593-4.0297241,1.2088623-7.6566162,1.6119385-11.6863403c0.4030151-5.2388611,0.8060913-10.8807678,0.8060913-16.1193542
	v-1.6119385c-0.2185669-0.6523438-0.3538208-1.3295288-0.4033203-2.0154724v-0.0002441
	c0.1674194-1.2661743-0.1181641-2.5508423-0.8058472-3.6269226c-0.6605835-0.6447754-1.5059204-1.0673218-2.4180298-1.2088928
	c-0.8060913,0-4.0299683,0.4030457-4.0299683,0.4030457l-5.6416016,0.8058472
	c-0.6964722-0.0623779-1.3960571,0.0777283-2.0150146,0.4032898c-3.223877,0.8058472-6.850769,1.6119385-10.074646,2.4180298
	c-3.7034302,0.9656982-7.3383789,2.1772766-10.8804932,3.6266785c-3.6269531,1.6119385-8.0596924,2.8208313-11.6866455,4.8357849
	c-1.2088623,0.8060913-14.1043701,6.8507996-19.7462769,9.6716309l-7.25354,7.6566467l-0.4030762,1.611908l-0.8060913-0.4028015
	l-4.4327393,0.4028015l-0.4030762,0.4030457l-14.9104614,4.8358154v1.6119385l-1.6119385,1.6119385v0.8060913l-6.8505249,12.089386
	h-0.8060913v1.209137c-1.0261536,1.5602722-1.9677124,3.1746521-2.8208313,4.8358154l-31.4328918,20.1490784h-0.8058472
	l-4.8357849,4.0299683l-3.223877,13.2985229l-3.223877,2.8208313l-12.0896301,45.5372314l1.611908,5.2388916l-18.1343384,8.8657837
	h-2.8208313l-3.6268921,15.7163086l-0.4030457,0.4032593l-4.4330139,14.5074463l0.4030457,0.8058472l-2.0149841,12.4926758
	l-0.8058472,0.8058472l0.4030457,1.2091064l-17.3284912,27.8059692l-1.2088928,0.4030762l-4.4330139,6.850769v1.2089233
	l-14.9102173,20.9551392l-15.7165527,9.2685547l0.8060913,1.2089233l-0.8060913,6.4477539l1.209137,2.4180298l-2.4180298,0.8060913
	l-11.2835693,6.850769l-1.2088928-0.4033203l-16.9254456,10.074707l-2.0149841,3.223877
	c2.1200256,0.4663696,4.2785339,0.736145,6.447998,0.8058472l10.8804932,0.8060913L339.044342,684h25.3881836l23.3731995-2.8210449
	l14.1043701-2.4177856l10.4776917-2.821106l11.2835693-3.223877l14.5074158-5.6416626l1.209137-0.8060913l4.0297241-2.4177856
	c5.849762-2.9959717,11.5031128-6.3609619,16.9254456-10.074646c8.8657837-6.850769,18.1343384-13.7015381,26.5970764-21.3582153
	C489.7609863,629.5967407,492.5817871,627.1789551,495.4028625,624.3580933z"/>
</svg>
