<?xml version="1.0" encoding="utf-8"?>
<!-- Generator: Adobe Illustrator 22.0.1, SVG Export Plug-In . SVG Version: 6.00 Build 0)  -->
<svg version="1.1" id="Layer_1" xmlns="http://www.w3.org/2000/svg" xmlns:xlink="http://www.w3.org/1999/xlink" x="0px" y="0px"
	 width="720px" height="720px" viewBox="0 0 720 720" style="enable-background:new 0 0 720 720;" xml:space="preserve">
<style type="text/css">
	.st0{fill:#520090;}
</style>
<path class="st0" d="M684,140.3023376l-63.3080444,135.9682007H367.4598694l-79.8544312,170.4998169h-71.2216644
	c2.8781586-49.6392212,40.476944-75.2470093,40.476944-75.2470093c4.6811218,5.397644,8.9102173,11.1979065,12.6288757,17.3412476
	l116.6751709-248.5622559H684z M247.3065338,361.6434326c-20.7789612-19.274292-48.0749817-31.6199036-78.2150421-33.3627625
	v118.4896851h32.9043579C204.1543274,391.3759766,247.3065338,361.6434326,247.3065338,361.6434326z M122.1414108,446.7703552
	h33.1095657V328.2306519c-30.3030777,1.5312805-57.7800293,13.7772217-78.7191086,33.0249023
	C76.531868,361.2555542,119.2638321,392.0953674,122.1414108,446.7703552z M66.8609161,371.1744995
	c-17.8580246,20.441925-29.2145996,46.7090149-30.8447304,75.5767822l72.4564056,0.0190735
	C104.8759079,399.2893372,66.8609161,371.1744995,66.8609161,371.1744995z M36,460.8883057
	c1.571167,28.9874268,12.948555,55.3669434,30.8718948,75.8788452c0,0,40.1624908-29.5666504,41.6007004-75.6085815L36,460.8883057z
	 M76.3682709,546.5224609c20.9570084,19.3329468,48.4958115,31.6381226,78.8746185,33.1751709V460.4391479h-33.1014786
	C119.2638321,518.7111206,76.3682709,546.5224609,76.3682709,546.5224609z M201.9958496,460.4391479h-32.3731232
	l-0.0150299,119.1778564c30.1221466-1.864502,57.3765411-14.321167,78.0838318-33.6904907
	C247.6915283,545.9265137,207.0319061,519.430542,201.9958496,460.4391479z M257.1029358,536.1257935
	c17.6239014-20.4439697,28.7879639-46.6145325,30.3209839-75.3415222l-71.0401459-0.3451233
	C218.5422516,511.5171509,257.1029358,536.1257935,257.1029358,536.1257935z"/>
</svg>
