<?xml version="1.0" encoding="utf-8"?>
<!-- Generator: Adobe Illustrator 22.0.1, SVG Export Plug-In . SVG Version: 6.00 Build 0)  -->
<svg version="1.1" id="Layer_1" xmlns="http://www.w3.org/2000/svg" xmlns:xlink="http://www.w3.org/1999/xlink" x="0px" y="0px"
	 width="720px" height="720px" viewBox="0 0 720 720" style="enable-background:new 0 0 720 720;" xml:space="preserve">
<style type="text/css">
	.st0{fill:#FFFFFF;}
	.st1{fill:#E31837;}
	.st2{fill:#002B5C;}
	.st3{fill:#C4CED4;}
</style>
<g>
	<path class="st0" d="M359.9921265,36.0000305c-178.934082,0.0087051-323.9842224,145.0658722-323.9842224,324
		S181.0580444,683.991272,359.9921265,684c178.9402466,0,324-145.0597534,324-324S538.932373,36,359.9920959,36
		C359.9920959,36,359.9920959,36,359.9921265,36.0000305z"/>
	<path class="st1" d="M316.8789063,120.6692734c-119.105484,13.4556808-197.0136719,81.4630203-236.8560028,141.306488
		c29.9316025-86.5823212,98.9294128-154.8855896,185.9306183-183.8858948v0.0031281
		C285.1099854,83.6802368,306.3917542,95.5266724,316.8789063,120.6692734z M422.3665466,69.7056274
		c-20.1760559-4.3677444-41.1157227-6.7331314-62.5976257-6.7555046l-0.0002441,0.000721
		c-21.5731201-0.0199699-42.5428467,2.3182373-62.8096008,6.6857376
		c14.9215393,7.7156601,29.8178101,21.8735962,39.2848816,47.703537l23.4537354-34.539444l23.4878845,34.539444
		C392.6083984,91.5989532,407.4674072,77.4215317,422.3665466,69.7056274z M453.164978,78.1555405v0.0033722
		c-19.0674744,5.6315079-40.2275085,17.4750595-50.6496887,42.506752
		c118.1741638,13.3471832,195.8434753,80.4037476,235.9543152,139.8878021
		C608.2943115,174.7051392,539.6339722,107.0228195,453.164978,78.1555405z"/>
	<path class="st2" d="M114.7661209,524.612915c-30.7750854-45.2693787-49.2134247-99.5058594-50.7875481-157.9698792
		c5.0329475-30.907135,14.7952309-58.0424805,27.0561867-81.6552429
		c22.1716766-42.6135712,65.0217438-82.798233,117.6817169-113.8384399
		c22.4837189-13.0481262,38.7498474-16.0565948,49.4029999-15.8318939h-0.0004883
		c10.653656,0.2247009,15.6933289,3.7068787,15.6933289,3.7068787l34.4699097,19.2960052l-1.7668152,6.3746643
		l-7.5176697,27.3338165c0,0-14.1634521,39.3594818-47.8421021,72.9936371
		C187.4149933,348.0536194,105.9863663,440.3612976,114.7661209,524.612915z M655.0210571,364.0065308
		c-5.1438599-29.8207092-14.7119751-56.1089478-26.6404419-79.0538635
		c-22.1714478-42.5692902-65.0265503-82.7392883-117.681488-113.8040314
		c-22.4928589-13.0476532-38.7849731-16.0967712-49.4376526-15.8663025l0.0033569,0.0004883
		c-10.6504822,0.2299957-15.6584167,3.7415161-15.6584167,3.7415161l-34.4699097,19.2960052l1.7668152,6.4090729
		l7.5176697,27.2984467c0,0,14.1509399,39.33638,47.8072205,72.9936218
		c63.5684204,62.834137,144.7210693,154.7770996,136.492981,238.8270874
		C635.6283569,478.0643921,653.9586792,423.1357117,655.0210571,364.0065308z M359.6902466,217.6009216l0.0043335,0.0038452
		c-3.4143372,2.4387665-112.5376434,80.9801636-160.6056519,158.7332153
		c-64.8737946,104.9352722-56.4486542,165.4490051-39.6662292,199.9922791
		c41.815567,38.4453125,94.7315369,64.9971924,153.3973694,74.3088989l25.2893677-358.449585l21.0628357-21.166748
		l0.2776184-0.2774048h0.0344238l0.2422485,0.2774048l21.0974731,21.166748l25.4628296,358.173645l-0.3464355,0.1737061
		c59.1094666-9.3340454,112.4098511-36.1135864,154.402771-75.0039063
		c16.5175171-34.6763306,24.3388062-95.0568237-40.0473022-199.1989136
		C472.2281189,298.5762939,363.1293335,220.0396881,359.6902466,217.6009216z"/>
	<path class="st3" d="M359.7390747,271.0480652v0.0004883l-0.0004883-0.0004883H359.7390747z M359.7390747,271.0485535
		l0.2424927,405.669281l45.9362488-26.1898193l0.3464355-0.1739502l-25.4628296-358.1736145L359.7390747,271.0485535z
		 M359.6690674,105.7655411l0.0007324,0.001442l0.0002441-0.0004807L359.6690674,105.7655411z M403.5278931,164.2425232
		l24.4927979-13.1643372l11.7783508-6.3746643c-5.6315308-1.2416382-11.3809204-2.0733185-17.0788269-3.0486298
		c-12.8374023-2.1950684-25.7190552-3.9950867-38.8003845-4.8154602l-9.2498474-0.5889435l-0.1739197-0.3806l-0.2078552-0.3808441
		l-3.7068787-7.5518265l-0.2078552-0.4503632l-10.7036743-21.7198715l-3.4641418,6.9972916l-6.8591919,13.9955444h-0.0346375
		l-0.2773743,0.5886993l-0.2774048,0.5889435l-3.7066345,7.5518265l-0.3120117,0.6584625l-0.0690613,0.1041718l-9.2149658,0.5889435
		c-13.05896,0.8203888-26.0195007,2.6204071-38.8345337,4.8154602c-5.6868286,0.9736328-11.4232483,1.8108521-17.0446472,3.048645
		l18.1185913,9.7692566l18.1181335,9.7692566l5.6122742,3.0137634l5.6125183,3.0137482l-3.3950806,12.2982483l-0.2078552,0.6928711
		l-1.5243225,5.6813049l-10.1156921,36.6524658l23.0026245-16.9404755l15.5547485-11.5016937l4.6073608-3.3950653
		l4.5729675-3.3953247v-0.1736908l0.1385803,0.1044159l0.1383057-0.1044159v0.1736908l4.607605,3.3953247l4.607605,3.3950653
		l38.5232239,28.441452l-10.0810547-36.6524658l-0.866333-3.1869659l-0.8660889-3.1869812l-3.3950806-12.298233l3.6376038-1.9400482
		L403.5278931,164.2425232z"/>
</g>
</svg>
