<?xml version="1.0" encoding="UTF-8" standalone="no"?>
<svg
   version="1.1"
   id="Layer_1"
   x="0px"
   y="0px"
   width="465.09726"
   height="410.78906"
   viewBox="0 0 465.09726 410.78906"
   enable-background="new 0 0 250 222"
   xml:space="preserve"
   sodipodi:docname="Toronto_Raptors_1995.svg"
   inkscape:version="1.3.2 (091e20e, 2023-11-25, custom)"
   xmlns:inkscape="http://www.inkscape.org/namespaces/inkscape"
   xmlns:sodipodi="http://sodipodi.sourceforge.net/DTD/sodipodi-0.dtd"
   xmlns="http://www.w3.org/2000/svg"
   xmlns:svg="http://www.w3.org/2000/svg"
   xmlns:rdf="http://www.w3.org/1999/02/22-rdf-syntax-ns#"
   xmlns:cc="http://creativecommons.org/ns#"
   xmlns:dc="http://purl.org/dc/elements/1.1/"><metadata
   id="metadata6897"><rdf:RDF><cc:Work
       rdf:about=""><dc:format>image/svg+xml</dc:format><dc:type
         rdf:resource="http://purl.org/dc/dcmitype/StillImage" /></cc:Work></rdf:RDF></metadata><defs
   id="defs6895" /><sodipodi:namedview
   pagecolor="#ffffff"
   bordercolor="#666666"
   borderopacity="1"
   objecttolerance="10"
   gridtolerance="10"
   guidetolerance="10"
   inkscape:pageopacity="0"
   inkscape:pageshadow="2"
   inkscape:window-width="1920"
   inkscape:window-height="1009"
   id="namedview6893"
   showgrid="false"
   inkscape:zoom="1"
   inkscape:cx="233"
   inkscape:cy="205"
   inkscape:window-x="-8"
   inkscape:window-y="-8"
   inkscape:window-maximized="1"
   inkscape:current-layer="layer4"
   inkscape:document-rotation="0"
   inkscape:showpageshadow="2"
   inkscape:pagecheckerboard="0"
   inkscape:deskcolor="#d1d1d1" />

<g
   inkscape:groupmode="layer"
   id="layer4"
   inkscape:label="Layer 1"
   transform="translate(105.30026,95.042231)"
   style="display:inline"><g
     id="g18432"><path
       id="path2331"
       style="color:#000000;font-style:normal;font-variant:normal;font-weight:normal;font-stretch:normal;font-size:medium;line-height:normal;font-family:sans-serif;font-variant-ligatures:normal;font-variant-position:normal;font-variant-caps:normal;font-variant-numeric:normal;font-variant-alternates:normal;font-variant-east-asian:normal;font-feature-settings:normal;font-variation-settings:normal;text-indent:0;text-align:start;text-decoration:none;text-decoration-line:none;text-decoration-style:solid;text-decoration-color:#000000;letter-spacing:normal;word-spacing:normal;text-transform:none;writing-mode:lr-tb;direction:ltr;text-orientation:mixed;dominant-baseline:auto;baseline-shift:baseline;text-anchor:start;white-space:normal;shape-padding:0;shape-margin:0;inline-size:0;clip-rule:nonzero;display:inline;overflow:visible;visibility:visible;isolation:auto;mix-blend-mode:normal;color-interpolation:sRGB;color-interpolation-filters:linearRGB;solid-color:#000000;solid-opacity:1;vector-effect:none;fill:#ffffff;fill-opacity:1;fill-rule:nonzero;stroke:none;stroke-width:5.32913;stroke-linecap:butt;stroke-linejoin:miter;stroke-miterlimit:4;stroke-dasharray:none;stroke-dashoffset:0;stroke-opacity:1;color-rendering:auto;image-rendering:auto;shape-rendering:auto;text-rendering:auto;enable-background:accumulate;stop-color:#000000"
       d="m -56.640511,257.0458 c 7.832976,-0.29975 15.353986,-2.65387 22.033203,-6.66804 6.278748,6.68738 13.084805,12.86131 20.347656,18.48626 -4.483646,6.32668 -5.650938,12.7064 -5.59375,21.33594 0.05549,8.3734 6.357422,14.4414 6.357422,14.4414 l 1.892578,1.91797 5.9296876,-5.97461 c 1.7116843,1.33073 3.6215859,2.5021 5.77734377,3.52539 1.42518853,4.54128 4.49796293,7.49174 7.43750003,9.70508 l 2.5664066,1.93164 c 1.019176,-2.04715 1.949285,-4.14542 3.289062,-6.00781 2.034582,0.73352 11.618179,3.68878 25.935547,0.2207 7.405513,-1.79383 13.416994,-4.53851 16.013672,-5.41406 1.018329,-0.34078 3.28018,-0.44818 6.123047,-0.40234 2.720257,0.0439 6.048974,0.11003 9.61914,-0.21289 6.776314,0.80494 13.669373,1.23242 20.666016,1.23242 34.09025,0 65.82746,-9.93675 92.63867,-26.92383 -0.54857,6.83751 1.11739,14.01233 5.94336,19.22851 l 2.41406,2.61133 c 1.4096,-2.6458 3.12586,-5.02239 5.26563,-7.12304 l 5.0293,1.39062 c 0.45779,1.16368 2.64444,6.09063 7.54687,8.12695 l 2.54688,1.0586 0.96875,-2.58399 c 0.59189,-1.57836 1.79861,-3.39453 2.8496,-4.60547 12.78245,2.28859 23.51492,-0.26294 31.09571,-7.25781 7.92121,-7.30898 12.34406,-18.90965 13.49609,-33.47851 0.35618,-4.5042 5.60742,-15.88374 5.60742,-29.02149 0,-4.09471 -1.5459,-9.20431 -4.16406,-12.67773 -0.82941,-1.10036 -1.42949,-1.26138 -2.24023,-1.68555 -1.94567,-1.01796 -5.33585,-2.32113 -9.4961,-3.3125 -0.98683,-0.81563 -2.07379,-1.49023 -3.27539,-2.00976 3.34362,-6.94032 6.27843,-14.11158 8.6875,-21.5293 10.96454,-4.99003 20.48208,-10.29732 29.83789,-15.82227 41.46522,-24.37142 62.48288,-48.07692 72.2461,-69.826169 l 1.04492,-2.328125 -6.5625,-3.292969 -1.35938,1.318359 c -22.20874,21.575514 -57.2183,38.505104 -87.25195,48.197264 0.2699,-3.9295 0.54297,-7.85907 0.54297,-11.86133 0,-3.35131 -0.16569,-6.65711 -0.35547,-9.95507 l 20.1875,-4.44141 -0.19727,-2.32617 C 281.91455,80.847382 270.06095,49.204692 251.65636,22.401128 l 7.11524,-38.308593 -36.13672,4.953125 c -3.50498,-3.208021 -7.12793,-6.286791 -10.86133,-9.232422 l -0.50195,-38.134766 -33.78516,16.472656 c -4.17647,-2.063378 -8.43727,-3.985547 -12.78125,-5.751953 l -10.6289,-37.818359 -27.63086,26.736328 c -4.89751,-0.885754 -9.85731,-1.589004 -14.87696,-2.099609 l -19.636716,-34.259766 -19.564453,34.21875 c -5.049995,0.499867 -10.041222,1.192108 -14.966797,2.070312 L 29.818473,-85.413325 19.214957,-47.794184 c -4.436435,1.789718 -8.788295,3.739358 -13.0507808,5.839844 l -33.5449222,-16.369141 -0.498047,37.818359 c -3.850289,3.028332 -7.582797,6.198378 -11.189453,9.50586 l -35.83789,-4.908203 7.05664,37.998046 c -18.441678,26.820994 -30.349271,58.517754 -33.373044,92.792969 l -0.20508,2.33008 20.154296,4.4668 c -0.193739,3.33761 -0.361328,6.6835 -0.361328,10.07421 0,6.33249 0.403627,12.5666 1.066406,18.72071 0,0 -0.810665,0.0269 -1.237305,0.17968 -1.49089,0.53395 -2.039439,1.26807 -2.831054,2.10938 l -2.613281,2.77734 c -1.875929,1.9937 -4.126708,4.03883 -6.292969,5.05664 -3.190429,1.49901 -5.869757,5.5831 -4.605469,11.14454 -0.866659,1.9266 -1.651147,3.88498 -2.259766,5.9082 -1.02583,3.41015 -1.61593,7.90805 -0.37891,12.66992 -3.3973,6.7812 -4.75457,14.37694 -4.47851,21.90925 0.94518,25.78949 22.827456,45.80271 48.624999,44.8155 z"
       sodipodi:nodetypes="cccccccccccccccccccccccccccccccccccccccccccccccccccccccccccccccccccccccccccccc" /><path
       style="fill:#393a97;fill-opacity:1;stroke:none;stroke-width:1.92768"
       d="m 91.755316,-38.984951 c 94.334634,0 170.747674,76.440028 170.747674,170.739961 0,94.325 -76.41497,170.74382 -170.747674,170.74382 -94.3037928,0 -170.724544,-76.42075 -170.724544,-170.74382 0,-94.299933 76.4207512,-170.739961 170.724544,-170.739961 z"
       id="path6682"
       sodipodi:nodetypes="ccccc" /><path
       id="path6684"
       style="fill:#000000;stroke:none;stroke-width:1.92768"
       d="m 91.763786,-59.182856 c -100.2138494,0 -181.711485,76.58519 -190.332032,174.300786 l 34.400391,7.625 c -0.176147,3.03813 -0.275391,6.09746 -0.275391,9.17968 0,86.28065 69.9552914,156.21094 156.205078,156.21094 86.346188,0 156.216798,-69.92836 156.216798,-156.21094 0,-3.05114 -0.0971,-6.07991 -0.26953,-9.08789 l 34.4375,-7.57812 C 273.90002,17.587278 191.75402,-59.182856 91.763786,-59.182856 Z m -0.03906,92.138672 c 54.569484,4.46e-4 98.806574,44.340722 98.806634,99.037114 -7e-5,54.69639 -44.23716,99.03665 -98.806634,99.0371 -54.570242,6.4e-4 -98.8085214,-44.33995 -98.8085936,-99.0371 6.45e-5,-54.697157 44.2383456,-99.037751 98.8085936,-99.037114 z"
       sodipodi:nodetypes="cccccccccccccc" /><path
       fill="#3a3b95"
       d="m 244.89753,44.223144 10.58101,-56.989786 -46.18902,6.3304848 -0.62649,-47.6482728 -42.69608,20.815036 -13.24698,-47.127801 -35.67741,34.522733 L 91.934589,-89.67895 66.888307,-45.874462 31.174271,-80.397195 17.886807,-33.269394 -24.770715,-54.08443 -25.39721,-6.4361572 -71.61322,-12.766642 -61.026428,44.223144 c 31.511704,-53.6645467 89.65424,-88.599802 152.961017,-88.599802 63.302921,0 121.445461,34.9352553 152.962941,88.599802 z"
       id="path6688"
       style="fill:#393a97;fill-opacity:1;stroke:none;stroke-width:1.92768"
       sodipodi:nodetypes="ccccccccccccccccc" /><path
       id="path6702"
       style="fill:#c5ced5;fill-opacity:1;stroke:none;stroke-width:1.92768"
       d="M 228.45447,12.93505 C 225.10289,9.1675125 224.30894,4.0462093 228.10748,0.43407674 231.89054,-3.1633388 236.69181,-1.915255 240.0475,1.87405 c 3.38746,3.8251705 4.17426,8.916459 0.42602,12.512539 -3.75427,3.60186 -8.61405,2.376054 -12.01905,-1.451539 z m 8.94251,-8.551167 c -1.67922,-1.9116546 -4.34279,-2.5552155 -6.34399,-0.6457712 -2.03551,1.9421772 -1.6318,4.7556093 0.0675,6.6832492 1.71468,1.945098 4.35555,2.570456 6.4095,0.645771 2.05006,-1.9210271 1.60042,-4.7098778 -0.13301,-6.683249 z m -50.96198,-27.064558 0.20048,-0.325777 c 0.61108,0.360475 0.8263,0.22336 0.95806,0 l 5.73098,-9.715483 -4.23703,-2.75272 c -0.30811,-0.200171 -0.48,-0.08675 -0.87902,0.445293 l -0.34699,-0.17349 2.71803,-4.616782 0.28144,0.179274 c -0.20048,0.639988 -0.19483,0.850568 0.079,1.025523 l 12.27351,7.841782 c 0.32691,0.208868 0.47999,0.100239 0.89251,-0.420233 l 0.33349,0.179274 -2.79706,4.618709 -0.28144,-0.200478 c 0.28144,-0.645771 0.23475,-0.857934 0,-1.006247 l -4.29293,-2.712238 -5.73098,9.669218 c -0.14246,0.240353 -0.13108,0.474208 0.41445,0.919501 l -0.13301,0.3065 z M 137.9135,-59.17542 c 0.0701,-0.26534 0.0675,-0.485774 -0.61108,-0.753721 l 0.0655,-0.33927 6.82397,1.952734 -0.13301,0.346982 c -0.613,-0.154214 -0.84055,-0.02371 -0.89444,0.159997 -0.0935,0.31886 3.42548,7.122759 4.71702,9.954514 l 2.12045,-7.822505 c 0.0924,-0.340811 -0.14651,-0.57252 -0.48,-0.699746 l 0.13301,-0.366259 5.11605,1.505514 -0.0655,0.354693 c -0.69203,-0.159997 -0.89318,0.02681 -0.95998,0.279513 l -3.61053,13.659505 c -0.0721,0.272569 -0.0675,0.499268 0.61107,0.753721 l -0.0655,0.352765 -5.33195,-1.538285 0.0675,-0.360475 c 0.47999,0.16578 0.7147,0.06665 0.7595,-0.121444 0.0907,-0.380751 -0.47999,-0.992752 -5.66351,-11.766528 l -2.38453,9.19501 c -0.0779,0.300532 -0.081,0.493484 0.61107,0.759504 l -0.079,0.360475 -5.384,-1.551779 0.0655,-0.33927 c 0.74794,0.133009 0.89129,-0.04658 0.95998,-0.306501 z m -45.978911,10.000779 c -4.977348,0.0173 -9.135252,-2.824044 -9.135252,-8.1425 0,-5.303034 4.144493,-8.179104 9.135252,-8.188764 4.977251,-0.0096 9.114961,2.839505 9.135251,8.161777 0.0202,5.30315 -4.131036,8.15209 -9.135251,8.169487 z m 0,-3.689575 c 2.538748,0 4.778707,-1.605754 4.778707,-4.47799 0,-2.864525 -2.239961,-4.459681 -4.778707,-4.456784 -2.544536,0.0029 -4.790272,1.62503 -4.790272,4.483772 0,2.872236 2.245741,4.451002 4.790272,4.451002 z m -53.53732,10.847032 c 0.08198,0.292999 0.192768,0.466498 0.87902,0.314211 l 0.140721,0.352765 -5.837001,1.705992 -0.08674,-0.339271 c 0.726734,-0.273729 0.717352,-0.490749 0.645771,-0.753721 l -3.710774,-13.632518 c -0.07325,-0.269083 -0.192768,-0.44722 -0.98697,-0.28144 l -0.08096,-0.372042 10.314989,-3.045726 c 4.154115,-1.226593 6.358067,-0.243777 7.269263,3.105484 0.729266,2.680547 -0.560954,4.610999 -2.698745,5.962299 l 4.68425,3.891976 c 0.337012,0.280012 0.626494,0.372042 0.919501,0.260236 l 0.106022,0.352765 -5.858204,1.738763 -0.08675,-0.339271 c 0.379752,-0.154214 0.567035,-0.365745 0.485774,-0.71324 -0.0658,-0.281356 -4.204259,-3.411985 -4.703527,-3.924746 l -2.766214,0.819262 z m -2.226464,-8.003707 4.703527,-1.405275 c 1.690952,-0.505207 1.976772,-1.392866 1.73298,-2.251524 -0.236202,-0.831923 -0.94447,-1.433161 -2.579229,-0.952272 l -4.757503,1.399492 z m -40.9399635,29.464514 c -4.1986939,2.698407 -9.2005005,2.569008 -11.8802615,-1.931531 -2.696528,-4.528697 -0.608143,-9.259201 3.612463,-11.97279 4.2553858,-2.735951 9.2192375,-2.56291 11.9207427,1.964301 2.7094821,4.540579 0.58579581,9.215877 -3.6529442,11.94002 z m -1.8640618,-3.144038 c 2.1627057,-1.399909 3.2728693,-3.988549 1.8120145,-6.428797 -1.4460884,-2.415582 -4.1613256,-2.555877 -6.3169912,-1.166243 -2.162441,1.394002 -3.266845,3.992241 -1.825508,6.415303 1.448251,2.434685 4.1809635,2.571112 6.3304847,1.179737 z M -46.765488,16.059811 -47.01223,15.818852 c 0.458786,-0.586014 0.386006,-0.80627 0.179274,-1.000464 l -8.136717,-7.6432315 -3.365721,3.8919755 c -0.206195,0.238435 -0.17349,0.453004 0.246743,0.971549 l -0.200478,0.28144 -3.897759,-3.6317396 0.239031,-0.2660191 c 0.560954,0.3932457 0.742136,0.3899104 0.959983,0.1407202 l 9.727048,-11.1265405 c 0.212096,-0.242612 0.159997,-0.4260162 -0.240959,-0.9599822 l 0.219755,-0.2660192 3.832218,3.61246314 -0.233249,0.27372986 c -0.553243,-0.38553502 -0.717302,-0.41225453 -0.938778,-0.15999703 l -3.411985,3.88619293 8.123223,7.6220275 c 0.196549,0.184422 0.404812,0.279513 0.938778,-0.252526 l 0.266019,0.24096 z"
       sodipodi:nodetypes="cccccccccccccccccccccccccccccccccccccccccccccccccccccccccccccccccccccccccccccccccccccccccccccccccccccccccccccccccccccccccccccc" /><path
       id="path6874"
       style="fill:#c5ced5;fill-opacity:1;stroke:none;stroke-width:1.92768"
       d="m 70.164176,-29.649653 -0.105469,16.970703 14.373047,-7.623047 -0.242187,33.529297 -5.388672,6.916016 c 0,0 6.949554,-0.991824 13.779297,-0.964844 6.823963,0.054 14.351558,1.011719 14.351558,1.011719 l -5.24414,-6.857422 0.27344,-33.501953 14.25977,7.816406 0.0644,-17.003906 c -6.79107,-1.142869 -15.64705,-1.81726 -24.845678,-1.78125 -7.154488,0.02801 -14.515863,0.48553 -21.275366,1.488281 z m -20.253906,3.884766 c -7.882252,1.914179 -26.132094,8.435033 -37.320313,15.052734 L 21.19152,-4.8430123 32.998161,27.580816 30.986442,36.416753 26.156364,35.807378 -0.99793313,7.676519 -13.865121,7.7155815 C -20.974379,13.585346 -32.314905,24.719938 -40.937386,37.180425 l 8.509765,0.939453 27.1796879,27.578125 0.8457031,6.394532 -5.5351563,1.488281 -23.1601567,-7.583985 -6.429687,5.125 -2.113281,-7.808593 -20.783203,-7.109375 -8.900391,3.357422 c 0,0 -8.070505,17.364434 -12.375,40.232421 l 9.416016,-2.74414 47.886718,16.677734 5.94336,7.29883 c 0.406738,-5.20087 2.304958,-15.68587 4.396484,-22.070314 l -17.191406,-5.94336 -2.757813,-9.794921 22.69336,7.916015 C -6.017966,71.379233 8.6954027,55.737585 9.22277,55.223394 L -0.25183938,45.621831 C 1.1129593,43.102364 5.7774575,39.711675 5.7774575,39.711675 l 9.3496095,9.636719 C 18.307031,46.258113 33.165713,32.702228 56.632926,24.781988 L 49.015739,20.930425 46.896598,14.686285 61.373161,8.4245659 67.877067,-0.5656685 59.140739,-23.67895 Z m 90.93555,2.453125 -12.48828,1.546875 -14.31836,35.832031 8.1875,9.208984 c 7.91503,2.338268 20.73828,8.261719 20.73828,8.261719 l 12.35547,-0.986328 14.45703,-35.7714844 -7.63672,-9.7167966 c -3.89197,-2.245739 -17.0579,-7.149 -21.29492,-8.375 z m -97.283206,10.902343 3.144531,0.701172 4.222656,11.59375037 L 48.644645,2.8776909 42.750114,5.3230034 37.25402,-10.149653 Z m 99.470706,1.214844 9.07422,3.605469 -10.84766,27.484375 -9.07617,-3.617188 z m 60.2439,127.427725 30.02539,-10.17383 6.20898,-29.531245 8.1836,-2.591796 3.55859,10.246093 -11.53906,3.904297 4.98242,17.384761 5.18359,-5.476558 16.2461,-5.310547 c -3.47729,-16.204007 -9.42315,-32.323491 -15.8982,-44.990228 l -4.50586,7.255859 -18.83008,6.128907 -6.82226,31.43164 -9.42188,3.291016 -3.48047,-10.173828 10.58203,-3.664063 -6.42382,-18.796875 -4.35938,4.830078 -16.76953,5.701172 0.5957,-7.953125 10.30078,-10.289062 -0.13086,-8.695313 7.36719,1.527344 10.36914,-9.794922 0.82813,-9.255859 c 0,0 -14.47446,-18.135929 -30.43946,-29.9101564 l -0.13281,9.2753904 -27.22461,24.939453 -8.9414,1.632813 c 4.91557,3.238487 12.08478,8.641437 17.32226,13.732422 l 7.99414,-7.488282 10.98047,2.63086 -12.68555,11.546875 c 16.44625,18.025857 25.11838,42.570229 26.87672,58.636709 z m -216.640388,-93.685537 2.716797,0.265625 8.5507816,8.935547 c 0,0 -3.5056447,2.879598 -6.0039062,5.890625 L -18.060433,27.219488 Z m 211.736328,1.58789 6.27734,6.515625 -8.26171,8.015625 -10.43555,-2.964843 z m -262.628906,49.550782 15.470703,5.132812 2.259766,9.8125 -20.496094,-7.001953 c 0.753798,-2.704906 1.802102,-5.3099 2.765625,-7.943359 z"
       sodipodi:nodetypes="ccccccccccccccccccccccccccccccccccccccccccccccccccccccccccccccccccccccccccccccccccccccccccccccccccccccccccccccccccccccccc" /><g
       id="g8669"><path
         id="path6720"
         style="display:inline;fill:#000000;stroke:none;stroke-width:1.92768"
         d="m 83.75103,25.575478 c -2.60622,-0.83276 -7.18687,-1.95278 -11.87305,-2.66602 -3.77246,-0.57252 -8.64299,-1.0208 -10.44922,0.0664 -2.7585,1.64624 -6.97656,4.48437 -6.97656,4.48437 -2.612,0.43373 -13.70467,3.37133 -24.47266,10.9336 -5.89676,4.12522 -10.58119,8.88776 -13.91992,14.14453 -4.07125,6.40952 -6.13086,13.57764 -6.13086,21.6875 0,7.56241 0.0929,16.44135 5.94922,26.201172 5.54399,9.32224 8.12275,14.03938 11.20703,19.98047 0.37074,0.71569 0.70426,1.45615 1.01758,2.21094 -5.21961,2.84211 -8.73614,7.12975 -11.53711,10.21484 -7.02252,6.08953 -12.66367,16.52352 -12.33789,28.36523 -2.93199,-1.15275 -19.901646,-3.71012 -26.505861,-3.05664 -14.205038,-7.15746 -27.819178,-10.60814 -31.431641,-10.07031 -2.723805,0.77299 -11.340359,2.05802 -17.296875,5.26953 0,0 -6.756454,-1.2649 -9.908203,-0.17383 -1.871772,0.67854 -6.042649,7.27606 -11.492188,9.8418 -3.105475,1.45347 -4.153003,5.75547 -3.019531,8.98047 -0.124025,1.25166 -5.480751,9.64261 -2.582031,18.62305 -2.78885,5.57808 -4.95121,12.78907 -4.59375,21.50781 0.99653,24.30614 21.514977,43.24597 45.855469,42.26367 24.196316,-0.97649 43.222875,-21.38237 42.257812,-45.86914 -0.09854,-2.5002 -0.425037,-4.95763 -0.935547,-7.36719 1.417172,-3.69575 1.240235,-6.86718 1.240235,-6.86718 2.633205,2.40381 13.719611,13.7876 32.277341,15.45312 0.1465,13.8542 8.21652,18.83525 11.1543,32.68945 0,0 -4.52462,2.34352 -3.57813,6.46875 1.01974,4.15028 2.06446,8.56836 2.06446,8.56836 -8.52803,-2.3055 -33.85536,-3.93775 -34.734378,6.99024 -8.902003,8.46828 -10.214489,14.48636 -10.1875,25.73242 0.05976,2.99175 2.96435,10.77587 5.589844,12.58789 l 5.703124,-5.74219 c 1.91418,2.07804 4.71132,3.62428 8.14258,5.19531 0.98697,4.55125 3.80067,7.13042 6.89844,9.4629 0,0 2.0167,-4.07266 3.42968,-5.28516 l 1.88672,0.89258 c 17.17751,5.2452 34.12882,-3.2841 40.03907,-5.27539 5.40327,-1.80816 17.63672,1.99048 29.32421,-4.5 1.42455,-4.54353 2.09059,-9.79449 0.3711,-15.38282 2.32671,-4.41245 -0.81943,-16.47187 -3.71094,-20.11132 2.01249,-8.54153 -0.40466,-15.56348 -7.68164,-17.11719 -0.23325,-2.86452 2.82679,-7.02814 0.6543,-13.00586 l 1.18554,-0.0527 2.21875,3.23047 c 15.38477,-8.07696 33.62758,-12.08559 40.92383,-12.05859 3.89198,-0.027 26.07263,9.88424 40.59766,23.89844 l 8.04883,-1.81055 c 6.27651,2.159 11.80758,4.062 17.20507,5.35547 l -0.89453,7.44922 c -0.42741,3.55925 -0.7452,6.96564 0.0684,9.39258 4.57051,-3.29825 8.46165,-5.05024 11.32617,-5.30469 l -0.4746,1.19531 c -7.703,6.90879 -9.61962,23.5474 -1.3711,32.46289 0.89252,-1.49009 2.94701,-4.26464 4.99805,-5.66992 l 7.83398,2.16797 c 0.21398,1.20479 2.25321,6.09551 6.49024,7.85547 0.87902,-2.34405 2.5822,-5.00375 4.22265,-6.47071 25.91952,5.47074 40.81993,-9.86032 43.05664,-38.14648 0.41255,-5.21719 5.59961,-16.01657 5.59961,-28.81055 0,-3.21922 -1.58661,-8.36737 -3.62695,-11.07422 -0.75678,-1.004 -6.13065,-3.13075 -10.70117,-4.1582 -2.93392,-2.86452 -9.4227,-4.38329 -13.03516,-2.64453 -6.27651,-4.22546 -17.74899,-7.84817 -24.77344,0.54492 1.29347,-2.23803 2.3197,-5.26346 2.86524,-9.09375 -1.43295,-0.55013 -2.78334,-1.20429 -4.08008,-1.91211 34.21988,-8.63563 54.17011,-19.27641 74.01563,-30.99609 41.15393,-24.18846 61.68954,-47.51499 71.16406,-68.621092 l -2.58789,-1.29883 c -34.28398,33.306472 -96.1507,54.881412 -126.78907,57.222652 -0.93738,-1.45273 -2.0996,-2.40429 -2.0996,-2.40429 1.91997,-16.83632 -11.54081,-23.56702 -16.11133,-25.24024 1.65009,3.33873 1.65066,14.18608 -0.40039,15.85352 -2.93199,-8.34298 -9.55401,-12.51418 -13.79297,-14.17969 1.30696,4.38353 0.89444,11.24191 0,14.17969 -4.90401,-16.0132 -13.29861,-25.63054 -15.20508,-27.5293 -0.74601,-0.77107 -4.83763,-3.21238 -6.88867,-3.76562 -14.14291,-3.83802 -25.14532,-3.15751 -41.51758,-0.73438 -2.19259,-1.12967 -4.82784,-2.0341 -7.71289,-2.70117 0.47132,-1.99983 0.38491,-4.02364 0.23235,-6.04492 -2.10916,1.90278 -4.35912,3.67407 -6.9043,4.95703 -0.43238,-0.0441 -0.86572,-0.0822 -1.30078,-0.11719 0.9823,-5.02656 1.18411,-8.546195 0.90242,-11.556642 -3.14346,2.128481 -6.24181,4.536304 -9.88868,5.730472 1.75853,-3.768047 3.06446,-7.782399 3.06446,-11.966802 -1.11073,0.93519 -4.70665,3.60798 -7.43555,4.26953 -0.20048,-0.74023 -1.31958,-5.73797 -1.41211,-6.1582 0.27373,-0.30072 4.07782,-4.2582 5.23828,-5.4707 v 4.25781 c 0.98123,-0.321866 8.026,-2.71806 10.84961,-6.05664 0.37911,3.417355 0.36916,6.095538 0.002,8.19531 2.93812,-1.121833 6.56331,-3.091148 10.57421,-6.5039 0.2886,2.750395 0.55649,5.502866 0.81841,8.25585 3.85452,-1.687663 12.84059,-6.488703 16.64835,-15.85159 0.89251,-0.26024 4.44357,-1.49253 6.75586,-3.58984 0,-1.08766 -2.59711,-19.26929 -5.66211,-26.5 -0.27951,-0.0675 -26.41016,-7.06303 -30.70117,-8.58203 -0.27951,-1.17203 -0.34766,-1.87282 -0.34766,-2.29883 0,-0.29301 0.1426,-0.7862 0.1426,-0.86524 0,-0.34698 -0.20178,-0.584834 -0.82031,-1.33984 -1.15496,-1.409805 -8.51148,-4.116921 -16.54492,-6.92187 -1.928763,-0.673445 -3.782859,-1.716998 -5.83011,-1.78711 -3.291074,-0.112709 -6.459214,2.279834 -7.84573,3.48828 z"
         sodipodi:nodetypes="cccccccccccccccccccccccccccccccccccccccccccccccccccccccccccccccccccccccccccccccccccccccccccccccccccccc" /><path
         id="path6804"
         style="display:inline;fill:#ffffff;stroke:none;stroke-width:1.92768"
         d="m 110.76574,67.799566 c 0.53975,1.586478 0.53977,8.407316 -0.14649,10.115234 4.29679,-1.812008 6.27735,-7.949219 6.27735,-7.949219 0,0 -4.43258,-1.599276 -6.13086,-2.166015 z M 79.060661,68.45191 c 1.519008,2.525257 1.015625,8.875 1.015625,8.875 6.023984,-2.750788 6.802734,-6.587891 6.802734,-6.587891 0,0 -6.058391,-1.37339 -7.818359,-2.287109 z m 28.425779,0.49414 -7.501951,1.478516 c 1.258771,1.532498 1.772131,5.949882 1.525391,7.77539 4.75171,-2.286227 5.97656,-9.253906 5.97656,-9.253906 z m -10.441404,1.984375 c 0,0 -4.651196,1.145531 -6.783204,0.925781 0.99468,1.572979 1.371094,7.619141 1.371094,7.619141 4.171486,-2.074178 5.41211,-8.544922 5.41211,-8.544922 z m 23.681644,0.345703 c 0.40674,1.759959 0.54746,7.097195 0,8.689453 3.54499,-1.592258 6.61718,-6.363281 6.61718,-6.363281 -2.8009,-0.333489 -6.61718,-2.326172 -6.61718,-2.326172 z m 9.88867,2.839844 c 1.09106,2.338268 0.68359,8.361328 0.68359,8.361328 3.00332,-2.058758 4.97612,-5.922664 7.16211,-8.201172 -1.706,0.22747 -6.2785,0.227314 -7.8457,-0.160156 z M 75.142692,85.190191 c -1.231779,1.364789 -5.303752,4.18952 -7.15625,5.230469 3.198007,0.420229 4.95252,0.75906 6.830078,1.59375 0.759499,-2.047198 0.385972,-4.013672 0.326172,-6.824219 z m 9.576172,6.830078 c -1.279969,1.339729 -4.59132,3.157854 -6.330078,3.871094 0.506969,0.680469 3.052275,3.170435 4.052734,4.984377 0.998539,-1.127693 2.537583,-5.697944 2.277344,-8.855471 z m 7.109375,8.927731 c -1.505519,1.87948 -5.137283,3.90498 -6.363282,4.25196 0.76722,1.38022 3.513047,3.85591 4.796875,4.77734 2.266938,-2.97826 2.079166,-6.7373 1.566407,-9.0293 z m 9.015621,6.99024 c -1.006235,2.03948 -5.382576,5.16974 -6.548824,5.89648 1.511298,1.83129 5.017055,2.72656 6.308594,2.72656 0.6612,-2.09923 1.15395,-5.41733 0.24023,-8.62304 z m 10.46289,2.07031 c -1.0872,2.0202 -3.06597,4.98491 -5.25195,7.24414 2.18598,0.43951 3.68356,0.66312 6.34375,0 0.0598,-2.03369 -0.27254,-5.89091 -1.0918,-7.24414 z m -34.138668,16.79492 c -2.422597,10.15485 -0.208375,18.81761 -1.140625,23.97461 -1.504398,8.32196 -7.261902,15.77299 -11.417968,18.10547 -29.85194,-0.68625 -35.982422,-39.61914 -35.982422,-39.61914 -3.886896,7.86784 -1.535181,19.76991 0.873047,25.3125 10.954079,25.21108 25.247139,26.76793 49.734375,43.06641 3.818716,1.61731 11.640625,3.16796 11.640625,3.16796 8.028752,0.77299 25.686946,-2.32396 33.189456,-4.52343 -6.48277,6.37096 -16.23828,7.30859 -16.23828,7.30859 14.73673,1.9479 40.28797,-3.12941 59.4746,-24.11133 -1.82774,-6.44564 -2.40852,-10.83126 -2.77539,-17.10742 -1.31414,-0.7242 -3.41931,-2.471 -5.27539,-4.18945 l -1.00195,1.75781 c -5.33952,9.3675 -18.56374,15.16628 -30.08789,15.58594 -26.46204,0.96362 -48.229973,-18.57063 -47.523438,-46.58594 -1.272608,-0.7061 -2.454771,-1.42547 -3.46875,-2.14258 z m 115.031248,63.17578 c -2.22181,0.59573 -6.08492,1.54371 -8.80469,1.74024 1.10345,1.6549 1.92411,3.2701 2.69336,4.74609 1.57491,3.15174 2.9339,5.87577 6.21094,7.70899 2.31741,-2.43381 3.7222,-5.43055 4.29297,-8.72071 -1.63928,-1.6167 -3.0543,-3.50688 -4.39258,-5.47461 z m -37.16211,8.78907 c -10.29125,6.60046 -20.77043,10.35055 -31.71875,11.51953 -12.57868,1.34308 -26.78445,-0.60774 -43.185544,-6.39844 4.078956,3.50259 8.128676,9.30169 11.513672,16.4707 9.061992,-2.97054 18.639012,-4.21007 23.544922,-4.86328 2.6721,-0.35578 7.15335,0.8493 12.27734,2.9668 4.70912,1.94605 12.0842,5.50958 20.67969,11.56055 6.40952,0.28095 19.49925,-4.51567 25.32031,-8.84961 -2.31705,-1.61154 -3.94443,-4.62353 -5.79687,-8.10743 -2.78557,-5.23885 -5.94381,-11.16829 -12.63477,-14.29882 z m 60.39258,14.80468 1.16016,0.50586 c 2.65247,-1.19323 5.12028,-1.09717 7.1582,0.29883 2.66063,1.82257 5.01836,6.35072 4.87891,13.04297 -0.0567,2.72164 -1.54705,8.33551 -4.19922,11.9043 -2.94776,3.96653 -8.72926,7.76243 -9.82031,8.4082 0.67853,0.95999 1.01171,1.55968 1.01171,2.08594 0,0.11373 -6.7e-4,0.23187 -0.0547,0.33789 4.4964,-0.0707 12.57636,1.69875 16.64648,5.61523 l 0.41406,0.39844 -0.56054,-0.0879 c -15.54659,-2.43759 -25.96679,-2.09223 -31.85157,6.92578 3.34451,1.21829 7.2375,4.28857 7.76954,9.13281 2.21945,-3.97546 5.79336,-5.77511 8.72851,-5.93164 3.01224,-0.16065 9.22175,2.74412 10.92774,8.95508 2.48659,-0.35578 7.41441,-1.51957 10.78125,-7.85937 3.01611,-5.67946 3.31863,-12.07234 4.29882,-15.37696 1.64198,-5.53579 5.34385,-17.53492 5.25586,-25.57422 -0.0655,-5.9869 -1.72292,-11.0279 -6.68945,-12.31054 -1.28439,-0.33169 -2.57607,-0.26937 -4.98242,0.36914 -3.45574,-2.48558 -8.26925,-4.65406 -12.66405,-4.80078 -2.77394,-0.0927 -6.21238,0.59357 -8.20898,3.96094 z m 36.98633,5.29688 c 1.16046,2.97054 1.70508,6.04922 1.70508,10.2207 0,2.612 -1.67505,11.19294 -2.67969,13.41406 -0.97919,2.16487 -3.10366,9.32164 -3.33203,10.32813 -0.24021,1.0587 -1.04772,11.65245 -4.37305,16.92969 -3.36778,5.34461 -7.83361,11.11509 -16.97656,11.40039 -2.79898,0.96576 -7.99609,6.13867 -7.99609,6.13867 11.13991,1.09879 22.10759,-0.14987 29.4121,-14.88086 2.5334,-5.1091 4.38104,-16.7628 4.63672,-19.42188 0.62141,-6.46269 5.08032,-15.2703 5.26368,-22.7871 0.16169,-6.6286 -0.89295,-7.45669 -2.25196,-10.38868 z M 74.115357,254.97727 c -0.528189,-1.37829 -1.57875,-2.4391 -3.105469,-3.15234 -2.67264,2.63989 -9.969717,4.43607 -12.951172,4.29882 -14.11099,-0.62061 -15.678724,-1.09034 -21.773437,-3.94335 -0.39035,-0.1807 -1.315346,-0.51861 -1.985356,-0.46483 -1.156025,0.0925 -0.765903,1.42118 -0.563481,1.94923 1.193229,3.5103 2.347687,7.40353 2.498047,7.9375 2.025988,1.39178 3.495325,3.29668 4.291015,5.47656 0.784565,2.1494 0.734633,4.34957 -0.02539,6.47657 -2.777303,-6.74917 -8.657116,-9.42688 -11.15625,-10.28907 -4.269796,-0.78071 -8.841276,-1.08049 -12.351563,-1.25976 -3.045727,-0.17349 -12.149816,-0.66425 -14.6210935,1.39258 1.3994886,0.79998 5.9311356,3.99387 6.484375,11.66796 1.3622685,-1.76576 3.5630395,-2.99562 6.5664065,-3.68164 -0.800889,-1.3572 -1.670749,-2.77911 -2.679688,-4.32226 4.928295,2.04839 14.19369,9.22978 14.88086,21.36914 3.543467,1.07634 7.061211,1.57885 10.783203,0.73437 5.062852,-1.14871 9.403066,-3.47935 16.917968,-4.89257 1.972951,-0.36461 11.131276,-0.24747 13.050782,-0.67969 1.605522,-0.36152 2.931602,-0.58123 3.998047,-0.75196 2.305057,-0.36902 3.577886,-0.58643 4.890625,-1.66015 0.632279,-0.99661 0.892578,-2.37205 0.892578,-3.92383 0,-6.33047 -4.316402,-15.85451 -4.316402,-15.85451 0.567976,-1.88224 1.072551,-4.35415 0.275395,-6.42677 z m -3.755868,21.89651 c 1.257962,-0.27522 2.26043,-1.04867 3.279297,-1.7832 l -0.1875,1.22852 c -0.488921,3.22699 -10.484123,7.66914 -16.498047,3.90429 -2.870652,-1.77902 -6.375316,-5.63182 -9.640625,-6.33007 l 0.01367,-1.01172 c 0.433729,-0.08 0.877588,-0.12943 1.330078,-0.15039 1.165789,-0.054 2.389309,0.076 3.642578,0.31836 4.270757,-6.58277 0.291099,-11.30507 -0.330078,-11.97657 l -3.138672,-3.18554 4.464844,-0.29297 c 13.930939,-0.90192 17.912036,12.18748 17.064455,19.27929 z m 133.597651,3.81836 c 0,0 -1.9697,1.54398 -2.92968,2.95118 l 2.79883,0.55273 c -0.26795,-1.87177 0.13085,-3.50391 0.13085,-3.50391 z m -125.582026,5.35547 c -4.156056,2.85875 -10.202222,2.55153 -16.791016,2.61133 -6.777693,0.0405 -16.152199,4.41228 -22.501953,5.9043 -6.316984,1.49781 -15.483683,-0.18638 -17.650391,-1.28516 0,0 -4.545695,3.07654 -6.970703,6.80274 0,0 6.203322,1.63246 9.324219,1.7539 17.609709,0.55615 21.030705,-4.76771 31.962891,-6.92383 5.002315,-0.9407 12.378895,-0.0546 16.076171,-0.34765 2.837538,-0.24674 6.156251,-2.31055 6.15625,-2.31055 z m -76.480469,1.39453 c -2.61199739,2.05876 -2.9250379,2.05805 -3.9042969,3.4961 0.6862493,1.39949 2.27837162,1.76 3.2441406,2.66601 -0.27455868,-2.06543 0.2534781,-4.1431 0.6601563,-6.16211 z"
         sodipodi:nodetypes="cccccccccccccccccccccccccccccccccccccccccccccccccccccccccccccccccccccccccccccccccccccccccccccccccccccccccccccccccccccccccccccccccccccccccccccccccccccccccccccccccccc" /><path
         id="path6830"
         style="display:inline;fill:#d31245;fill-opacity:1;stroke:none;stroke-width:1.92768"
         d="m 88.59087,29.325478 c 1.01203,0.69975 2.08081,3.31147 2.33008,4.89843 0.17674,1.12528 3.41777,4.55691 4.29101,5.31641 l -0.28515,0.39453 c -5.78495,-1.59226 -7.78115,-6.53202 -11.33594,-8.36328 -3.50631,-1.80628 -14.51071,-3.01838 -19.9082,-2.78516 -2.77199,2.95902 -9.32227,10.99415 -9.32227,10.99415 -1.45154,-2.19947 -0.76562,-6.54493 -0.76562,-6.54493 -13.37999,3.91703 -17.88754,6.31766 -25.68555,14.20508 -8.34241,8.43806 -10.88281,22.53701 -10.88281,25.48828 0,2.95128 -0.55112,12.46117 3.95898,22.46875 2.63971,5.857332 6.75729,11.623312 11.75195,20.892582 4.28517,7.95258 3.53196,21.90817 11.00782,31.94922 6.89495,9.2608 13.52538,12.75114 18.55468,12.98437 1.89298,-1.33394 4.59298,-6.02331 5.71875,-8.52929 0,0 -9.01592,1.85404 -15.25195,-6.24219 7.30203,2.17249 12.30424,-1.15117 14.23242,-3.91211 2.21831,-3.17638 2.44531,-5.4707 2.44531,-5.4707 -4.76328,3.28476 -9.24344,3.22195 -13.42578,2.89844 -8.30322,-0.64226 -13.58593,-8.63282 -13.58593,-8.63282 22.08923,6.32277 26.90039,-4.58398 26.90039,-4.58398 l -0.56055,0.0859 c -22.88134,3.50802 -28.99805,-14.29688 -28.99805,-14.29688 16.62427,9.43211 27.47852,5.63281 27.47852,5.63281 0,0 -0.68752,-2.98454 -6.16992,-5.26172 -6.16654,-2.5613 -16.14656,-4.50596 -21.99024,-11.4082 -2.49929,-2.952032 -4.4735,-6.715822 -4.6914,-11.931642 -0.26787,-6.41195 4.23632,-9.38867 4.23632,-9.38867 -1.16625,3.79173 -1.13214,10.01949 4.61133,16.4043 6.6515,7.394242 19.18972,7.085272 23.82813,9.707032 1.89275,1.06984 8.65041,5.90525 10.16797,7.96289 7.14352,9.6858 15.9376,15.00195 25.26562,15.00195 8.93478,0 15.41211,-7.43555 15.41211,-7.43555 -13.64793,1.36672 -21.83268,-0.54089 -27.38672,-4.18945 -5.52046,-3.6265 -15.47139,-19.048282 -18.03711,-20.341802 -3.46405,-1.74642 -15.83789,-2.11328 -15.83789,-2.11328 3.53729,-20.91528 20.9368,-31.78906 22.95508,-31.78906 3.01295,0 8.14983,2.91882 11.43555,3.15234 3.27807,0.23298 17.80245,-3.62833 20.5957,-3.85156 2.80299,-0.22401 16.37792,7.25862 24.42969,6.34375 2.51767,-0.28607 5.86262,-0.58062 8.32812,-1.95312 -0.0675,-3.2597 -1.17187,-7.09766 -1.17187,-7.09766 -1.42648,0.32577 -2.65263,2.48587 -3.26563,3.48633 l -0.41211,-0.16016 c 0,-4.51847 2.86524,-9.30859 2.86524,-9.30859 0,0 -1.36053,-4.12531 -2.1875,-5.92383 -3.82644,-2.3055 -21.28187,-5.79998 -30.35352,-7.68945 -10.05861,-2.09503 -9.64844,-6.39649 -9.64844,-6.39649 1.73106,1.57876 6.70899,2.29102 6.70899,2.29102 0,0 0.6147,-2.26674 -1.97852,-2.94531 -2.73296,-0.71513 -13.23437,-5.41016 -13.23437,-5.41016 z m -10.67578,6.99414 c 7.06262,0.93586 9.15144,8.94683 12.3457,10.22851 2.05677,0.82527 6.28412,0.20576 7.53711,-0.92578 -1.89876,6.13771 -12.47266,6.83594 -12.47266,6.83594 l -7.52148,0.48828 -5.01367,-1.57031 c -4.53004,-0.34698 -6.72849,-3.03755 -8.35352,-3.81055 -1.66744,0.33349 -4.41211,1.26563 -4.41211,1.26563 2.87994,-6.72181 11.07422,-9.56055 11.07422,-9.56055 -1.76575,-0.79806 -6.82422,-0.44531 -6.82422,-0.44531 1.228107,-0.854539 5.252936,-3.61749 13.64063,-2.50586 z m -27.11914,10.68359 -6.29492,9.09375 8.07421,3.17383 c -28.17104,3.0438 -23.74609,27.52539 -23.74609,27.52539 -1.999,-4.32378 -5.47925,-7.19125 -3.75977,-17.97851 2.26502,-14.09901 19.16283,-20.47472 25.72657,-21.81446 z m 75.99414,7.04883 c 0,0 4.57116,3.18418 4.7832,9.44141 0,0 -3.88928,-5.45563 -7.78125,-6.82813 z m -59.48242,12.26758 c 0,0 -11.80558,10.34052 -15.42383,25.92578 0,0 -3.84567,-1.94458 -4.73047,-4.99609 0,0 6.03408,-12.96839 20.1543,-20.92969 z m 52.9375,49.673832 4.70312,3.82812 -0.0684,0.26758 c -2.58294,13.1572 -20.09572,14.95606 -23.60937,14.91795 4.34807,10.55264 13.13393,18.11922 19.79492,18.9082 4.84424,0.65926 14.18255,1.3323 17.0625,-5.89648 5.86206,2.49827 14.25576,1.70582 19.57422,-1.49219 2.79705,5.92182 10.91557,9.23295 13.10156,11.49219 1.226,18.33219 6.00781,27.26112 7.63477,27.66015 4.50498,1.11226 9.83593,-1.17187 9.83593,-1.17187 l -1.09179,-8.21485 9.34179,7.4961 c 3.75896,-0.82119 8.26172,-3.87891 8.26172,-3.87891 -1.16046,-1.41298 -4.57031,-8.86914 -4.57031,-8.86914 5.44954,2.47706 11.52734,4.81836 11.52734,4.81836 0,0 3.2778,-1.5862 5.38282,-3.67773 2.12044,-2.07804 4.30468,-13.33985 4.30468,-13.33985 -1.42455,-3.27127 -9.34179,-5.5039 -9.34179,-5.5039 l -0.82813,2.50586 c 3.14404,3.8515 1.43945,10.20898 1.43945,10.20898 -6.62349,-11.39449 -19.24218,-15.92578 -19.24218,-15.92578 -1.09107,0.90022 -4.50586,3.39844 -4.50586,3.39844 -0.20048,-6.64855 -0.2793,-7.34375 -0.2793,-7.34375 -2.86453,-10.17427 -12.62062,-26.28639 -16.43164,-27.71094 -10.64655,-3.9633 -27.98493,-3.90171 -33.64844,-1.04297 0,0 4.65131,5.59194 2.94532,10.18945 -6.57721,-9.96448 -18.94921,-13.62141 -20.10545,-13.9453 -0.48768,1.08348 -1.18748,2.32228 -1.18748,2.32228 z m 221.4707,-1.18555 -3.06641,0.99414 c -38.4632,28.54655 -84.47159,42.70821 -111.00781,44.54883 -1.16046,4.70353 -4.15825,14.82391 -6.82422,17.46289 0,0 -5.38446,5.63596 -9.35547,3.95117 0,0 -4.22299,4.90438 -11.79297,6.98242 l 4.42383,4.80274 c 35.68897,-7.03408 63.11457,-22.29382 74.45508,-28.42383 30.62497,-16.54138 53.4814,-38.42846 63.16797,-50.31836 z M 140.6456,155.91914 c -3.2597,2.97248 -8.31543,4.69922 -13.86328,4.69922 -7.80516,0 -16.59713,-3.41157 -22.7754,-11.58204 -3.78289,-5.0027 -6.49417,-9.81389 -8.13671,-14.47656 -4.05934,-0.73672 -8.46313,-2.28811 -12.32424,-4.1191 0.04448,17.33132 8.85776,27.82305 16.40427,33.62896 7.49936,5.76962 16.05679,8.60742 26.12696,8.60742 11.58512,0 24.69399,-5.40691 29.73633,-14.29106 l 1.29492,-2.2832 c -1.0828,-1.11737 -1.58985,-1.86914 -1.58985,-1.86914 0,0 -4.41094,2.84777 -12.53611,2.00095 -0.75272,-0.08 -1.51955,-0.16895 -2.33689,-0.31545 z M 19.26665,140.07743 c -5.52471,3.8727 -9.59466,14.9184 -8.48047,20.86914 0,0 7.91389,6.60877 7.3086,16.17774 0,0 -6.81622,-6.91685 -10.64844,-8.75586 -6.14929,-1.47852 -20.309072,-4.7824 -31.73633,-4.27735 -3.897759,-2.85103 -19.470703,-7.73633 -19.470703,-7.73633 0,0 -6.116899,-1.64012 -9.349609,-2.19336 -3.990288,0.79999 -11.366569,3.73313 -15.757813,4.5254 -2.592723,0.4877 -5.904533,6.53813 -6.070313,8.39062 0,0 1.339617,-1.17971 3.097657,-1.0332 3.012956,0.60529 5.150914,3.84333 6.669922,7.21484 1.79852,-0.77878 3.20611,-2.57027 4.171875,-5.67383 5.150748,-0.71324 9.41523,-3.56749 12.314453,-2.76172 0,0 10.126308,6.54497 13.332031,9.80274 1.306964,3.97294 4.48395,8.76967 5.191406,10.4082 0,0 -1.857789,5.23751 -0.40625,7.8418 0,0 3.731391,1.05194 9.126953,-2.55859 3.531501,-4.50498 0.539514,-13.31201 -0.166015,-16.08594 0,0 7.151524,5.61068 8.125,13.8457 3.743545,2.44044 15.763386,11.39506 30.535156,13.6543 0.682876,-10.34548 14.67352,-22.86232 17.31836,-25.14063 -8.26972,-7.72998 -14.94547,-21.53564 -15.10547,-36.51367 z m 277.89844,6.20703 4.4375,1.21289 c -8.32755,6.24374 -24.49268,16.68275 -42.57813,24.45899 -12.55109,5.43411 -24.76052,11.23824 -39.01953,15.08203 l 10.30274,-16.45117 10.16601,8.39062 8.05078,-13.53515 8.86133,6.08398 7.03516,-11.36133 7.43554,4.83789 6.14454,-9.74219 5.58398,2.87891 4.85156,-7.72266 5.1836,1.34571 z m -384.312502,19.64453 c -2.483214,1.40096 -2.789062,2.11679 -2.789062,2.61328 0,0.33071 0.197979,0.55259 0.367187,0.66407 l 0.251953,0.16601 c 0.959098,-0.40487 1.595233,-0.58896 2.339844,-0.78515 0.126162,-0.0332 0.842142,-0.0616 2.726562,1.88086 0.924414,0.95286 1.731954,2.00273 2.517579,3.06835 l 1.726562,-3.37109 -0.160156,-3.33594 c -0.0786,-1.63046 3.297658,-6.31597 4.810547,-8.32812 l -0.960938,-0.16016 c -0.258907,-0.0431 -0.516638,-0.0529 -0.771484,-0.0371 -1.784087,0.11071 -3.433693,1.50819 -4.396484,2.73828 -1.067993,1.36447 -2.298373,2.98898 -5.66211,4.88671 z m 124.697262,15.64649 -10.01953,9.61328 c 10.085991,1.18527 19.177587,5.5089 27.61328,10.96875 11.984003,7.75643 18.315783,18.08207 22.80274,26.68945 l 10.64648,-5.35937 C 84.682133,215.77479 78.158512,203.7239 62.50688,193.00712 49.107472,183.83246 41.814785,182.31765 37.54985,181.57548 Z m 132.01758,5.30273 -10.98047,8.5918 c 6.84425,3.9888 9.01673,6.33279 12.25782,12.70117 2.05698,4.04176 4.3396,8.58249 10.44726,13.54688 -5.56978,5.03812 -19.8348,11.52363 -29.11523,12.1289 l -3.00196,0.19531 11.70508,7.25782 c 8.37134,-0.70915 22.20034,-6.67417 31.82813,-14.54097 9.34708,-7.63743 14.30544,-15.66142 17.34375,-24.00586 l -8.85352,-5.43945 c -1.50268,5.29268 -4.25325,10.38691 -8.07422,14.36914 -5.61949,-3.49177 -7.99675,-7.82848 -10.52343,-12.25781 -3.32664,-5.83161 -6.13619,-9.54639 -13.03321,-12.54693 z m -141.09961,8.70313 c -4.65727,3.14597 -5.96921,16.73864 -2.1582,21.94336 3.79752,5.14304 9.95435,21.89534 11.52734,28.31836 4.01149,2.38646 16.25237,3.47162 19.39063,3.39062 2.70453,-0.0925 6.06216,-0.53803 8.84765,-1.93945 -2.03177,-3.88426 0.9193,-5.65068 1.01954,-13.51367 0.0867,-7.12276 -8.56114,-13.83894 -10.38086,-15.54493 0.1118,-0.37204 0.20668,-0.55761 0.32812,-0.77929 0,0 5.04959,1.12479 7.47461,2.88476 1.8255,1.4207 3.84433,3.24734 4.92383,4.52539 l 0.83203,-0.60547 C 61.64424,210.50898 49.72327,202.1187 38.59673,198.5872 34.07248,197.17421 28.46782,195.58134 28.46782,195.58134 Z m 180.41016,20.47656 c -4.63799,8.95019 -19.37639,19.83094 -31.31641,25.07422 18.56158,6.01049 27.19577,7.97427 37.79297,-1.10547 4.62991,-3.96693 7.11552,-7.95469 7.10352,-13.88672 -0.0152,-7.56164 -3.55506,-8.86337 -6.07618,-7.07031 -1.17778,0.83766 -2.8023,-1.19392 -7.5039,-3.01172 z"
         sodipodi:nodetypes="cccccccccccccccccccccccccccccccccccccccccccccccccccccccccccccccccccccccccccccccccccccccccccccccccccccccccccccccccccccccccccccccccccccccccccccccccccccccccccccccccccccccccccccccccccccccccccccccccccccccccccccccccccccccc" /><path
         id="path6888"
         style="display:inline;fill:#c5ced5;fill-opacity:1;stroke:none;stroke-width:1.92768"
         d="m 76.195426,42.690191 -0.201172,0.02734 c -2.598488,0.412526 -5.250149,1.399639 -6.296875,3.265625 0,3.417744 3.09375,5.392578 3.09375,5.392578 1.439966,0.832746 3.103176,1.457172 5.148438,1.763672 2.584998,0.366256 4.986747,0.104845 7.386719,-0.681641 1.680942,-0.799976 4.241519,-2.391248 4.634765,-3.177734 -3.257754,0.300706 -4.130815,-3.816328 -8.416015,-5.88086 -2.976608,1.374256 -4.409828,6.669186 -3.951172,9.367188 -3.612448,-3.818704 -2.244684,-7.77646 -1.398438,-10.076172 z m -5.78125,35.894531 c -1.678992,1.898752 -4.247434,5.990913 -5.08789,9.591797 5.441393,-3.451315 9.039721,-6.357533 11.009765,-8.117188 0.809564,1.544405 2.95304,7.010844 2.845663,11.482422 3.421395,-1.691918 5.898561,-3.139883 7.736328,-4.439453 0,0 0.130503,0.804911 0.201172,1.158203 0.24359,1.217763 0.685547,3.338123 0.685547,5.869141 0,1.891032 -0.246181,3.999018 -0.992187,6.144536 2.557424,-1.225274 4.964068,-2.733394 7.416015,-4.152349 0.251311,0.679663 1.359377,3.908789 1.359377,8.035159 0,1.29154 -0.0993,2.67306 -0.373047,4.09179 1.412783,-0.80898 6.401311,-4.08172 6.880861,-4.73046 0.72876,1.31821 2.16481,4.99253 2.66601,9.0957 0.88673,-0.74601 3.48044,-3.06512 4.36524,-4.89063 -0.34848,-1.3972 -4.09295,-3.53155 -5.05078,-3.95117 C 93.728601,99.38487 96.254428,91.098797 89.576286,85.260503 86.104818,82.197665 79.24773,78.851182 70.414176,78.584722 Z M 213.72668,135.05543 c 0.88095,3.52375 -0.2115,9.59123 -1.4375,11.47265 1.90451,0.21204 6.34149,1.94025 7.50195,3.33203 0,0 0.88092,-10.00673 -6.06445,-14.80468 z m -13.92383,2.49023 c 0.41252,2.93199 -0.6125,6.88357 -1.29297,8.56836 4.02499,1.67322 7.15625,4.37105 7.15625,4.37305 -1.29154,-7.92081 -3.13176,-10.6282 -5.86328,-12.94141 z m -272.259768,33.42773 c -1.32045,-0.15228 -3.737917,1.89985 -4.597656,3.48633 -1.131542,2.12815 -4.149855,8.62326 -0.412109,16.625 0.813475,-2.73345 3.044642,-10.33473 8.347656,-12.31445 0.510834,-0.1812 -0.03532,-2.88442 -0.195312,-3.59766 -0.539749,-2.57148 -3.142578,-4.19922 -3.142579,-4.19922 z m -15.021484,1.11329 c 0,0 -3.192127,1.53979 -4.429687,3.37109 -1.000459,1.49973 -4.818091,8.28374 -0.804688,16.01367 0.765283,-2.37104 2.432149,-8.91691 7.203125,-10.9082 0,0 1.976163,-0.0531 1.023438,-4.19727 -0.433727,-1.73298 -2.639424,-4.0923 -2.992188,-4.27929 z m 37.423828,0.32226 c 0,0 -5.5818,1.55994 -6.580078,1.97852 -0.873233,3.03026 -4.290724,6.93524 -8.261719,7.06054 -2.54624,1.78366 -6.089839,6.14298 -7.988281,9.8418 -2.131512,8.22602 -2.373222,15.12642 -2.093751,20.20898 6.548011,-0.924 10.120906,-3.70171 12.246094,-5.88085 8.011889,-8.21529 8.948748,-22.42392 18.640625,-29.20704 -2.476635,-1.84958 -5.462891,-3.88671 -5.462891,-3.88671 z m 9.576172,7.90234 c -8.64435,5.38351 -9.424584,19.68905 -18.488281,28.97461 -4.04057,4.13947 -9.132558,6.58823 -15.484375,7.43555 0.442132,2.98233 0.873702,4.68478 1.384765,6.49805 14.875242,-1.61542 29.41609,-8.91989 38.935547,-20.45703 0.03817,-1.4501 -0.02594,-2.74243 -0.136718,-3.71875 -4.317977,-2.8973 -3.711002,-10.27502 -2.384766,-12.01953 -0.348327,-2.28348 -2.172513,-4.55575 -3.826172,-6.7129 z m -50.376953,19.86329 -0.435547,-0.14063 c -1.414097,-1.16746 -2.576736,-2.3675 -3.542969,-3.58203 3.116329,10.50748 6.811911,14.9957 14.613282,15.33594 -0.278736,-5.10077 0.02639,-9.80796 0.736324,-14.42383 -2.96476,-4.06495 -3.689042,-8.2596 -3.509764,-11.25 -4.857719,1.48046 -7.861326,14.06055 -7.861326,14.06055 z m 71.089844,-4.87891 c -2.132,1.87177 -8.830078,2.67969 -8.830078,2.67969 1.285751,3.95747 -1.564313,10.67917 -2.884766,12.85937 7.269235,-2.94738 10.234717,-10.11562 11,-12.06836 0.732515,-1.93924 0.714844,-3.4707 0.714844,-3.4707 z m -76.615239,23.8418 c 5.528809,3.92219 13.671761,4.43472 17.949219,4.40039 -0.550762,-2.11326 -0.970321,-4.28739 -1.28125,-6.50586 -8.672856,-0.12201 -13.904425,-4.26164 -17.386717,-11.60742 -0.519768,4.18518 -0.425067,8.79161 0.718748,13.71289 z m 76.632817,-10.51953 c -7.816211,9.44316 -20.130859,10.80078 -20.13086,10.80078 l -0.779296,-0.86524 c 2.036062,-1.75423 3.464551,-3.87393 4.458984,-6.08984 -4.557801,4.07847 -16.840741,13.51187 -35.113281,15.84961 0.588711,1.42474 1.241333,2.79671 1.960937,4.11133 13.413759,-3.28956 24.208981,0.55582 34.546875,-1.8711 4.766401,-1.11896 8.892082,-3.49466 12.916016,-7.39453 1.618811,-4.62059 2.350541,-9.4641 2.148437,-14.42383 -0.0016,-0.0392 -0.0061,-0.078 -0.0078,-0.11718 z m -74.207031,17.68164 c 3.040056,6.73699 7.409421,11.46939 11.630859,14.74218 1.549003,-3.02996 4.15046,-5.3167 7.919922,-6.95703 -0.884535,-1.69866 -1.68234,-3.46842 -2.375,-5.31836 -4.617821,0.16934 -11.144722,-0.15466 -17.175781,-2.46679 z m 66.597656,7.1582 c -1.984457,0.95943 -4.048959,1.69069 -6.253906,2.20703 -10.781297,2.5247 -20.888619,-0.85209 -32.697266,1.46875 3.328007,4.41294 8.026855,8.59649 14.670898,11.3916 9.307387,-1.64625 18.084361,-6.73668 24.280274,-15.06738 z m -44.333985,5.16406 c -3.418582,1.33845 -5.266404,3.10943 -6.224609,5.375 3.625616,2.08695 9.13574,4.52318 16.478516,5.05469 -5.843644,-4.10112 -8.947277,-8.51395 -10.253907,-10.42969 z M 207.10558,250.8191 c -6.9685,1.87178 -10.84748,1.49905 -13.79297,1.27929 -1.29343,0.86553 -4.29156,3.48514 -5.66406,6.79688 4.37004,-2.03755 9.96969,-2.67793 10.92774,-2.54492 1.42644,-1.20479 5.25229,-3.38421 8.52929,-4.37696 z M 57.146598,261.86207 c 0,0 3.153137,5.69018 -0.779297,12.25195 2.498252,2.39803 9.949266,2.2647 9.947266,2.04687 0.387456,-3.96519 -1.245261,-12.93985 -9.167969,-14.29882 z m 139.521482,5.38671 c -3.20954,3.20765 -7.44774,10.83112 -3.49023,18.59961 1.64045,-4.33145 7.57052,-9.57551 10.10156,-10.70898 0.41445,-6.56176 -4.63739,-7.29691 -6.61133,-7.89063 z m -198.710935,1.51563 c -1.2992448,0.027 -2.5132082,1.83881 -4.4003906,3.0918 -3.1305326,4.60325 -7.7410654,12.48599 -4.4023434,20.44922 2.7045156,-4.611 9.7435021,-10.68098 15.0195309,-12.69922 -1.2260052,-5.3917 -2.6506113,-10.92276 -6.2167969,-10.8418 z m 218.156245,1.6582 c -1.01903,0.14389 -2.11867,0.58748 -3.4121,1.5918 -2.18599,3.93053 -6.00793,11.33996 -2.31836,18.59766 1.70788,-3.79945 8.24827,-10.44107 12.4082,-12.48633 -0.53204,-4.23703 -4.35001,-8.0318 -6.67774,-7.70313 z m -201.097651,6.41602 c -1.106486,0.0733 -4.577859,2.87041 -5.2968753,4.15039 -2.1801912,3.88426 -6.2836907,12.78143 -2.1796875,20.19141 2.006702,-4.63027 9.6365758,-11.90885 14.5058598,-14.17383 -2.105012,-7.31553 -5.325245,-10.31062 -7.029297,-10.16797 z"
         sodipodi:nodetypes="cccccccccccccccccccccccccccccccccccccccccccccccccccccccccccccccccccccccccccccccccccccccccccccccccccccccccccccccccccccccccccccccccccccccc" /><path
         id="path7453"
         style="color:#000000;font-style:normal;font-variant:normal;font-weight:normal;font-stretch:normal;font-size:medium;line-height:normal;font-family:sans-serif;font-variant-ligatures:normal;font-variant-position:normal;font-variant-caps:normal;font-variant-numeric:normal;font-variant-alternates:normal;font-variant-east-asian:normal;font-feature-settings:normal;font-variation-settings:normal;text-indent:0;text-align:start;text-decoration:none;text-decoration-line:none;text-decoration-style:solid;text-decoration-color:#000000;letter-spacing:normal;word-spacing:normal;text-transform:none;writing-mode:lr-tb;direction:ltr;text-orientation:mixed;dominant-baseline:auto;baseline-shift:baseline;text-anchor:start;white-space:normal;shape-padding:0;shape-margin:0;inline-size:0;clip-rule:nonzero;display:inline;overflow:visible;visibility:visible;isolation:auto;mix-blend-mode:normal;color-interpolation:sRGB;color-interpolation-filters:linearRGB;solid-color:#000000;solid-opacity:1;vector-effect:none;fill:#393a97;fill-opacity:1;fill-rule:nonzero;stroke:none;stroke-width:1.92768;stroke-linecap:butt;stroke-linejoin:miter;stroke-miterlimit:4;stroke-dasharray:none;stroke-dashoffset:0;stroke-opacity:1;color-rendering:auto;image-rendering:auto;shape-rendering:auto;text-rendering:auto;enable-background:accumulate;stop-color:#000000"
         d="M 85.98149,222.64384 C 80.168786,211.28045 72.55792,202.22408 61.42095,194.59891 50.636296,187.21495 43.829671,184.76339 38.16704,183.6536 l -6.57617,6.31055 c 4.527746,0.83709 12.907814,2.90555 24.60547,10.57519 10.942353,7.17443 18.219117,17.6628 22.58008,25.73145 z m 83.82032,-33.50196 -7.87891,6.16602 c 6.16719,3.92714 8.58498,7.94916 10.64063,11.98828 3.12206,6.1345 4.81187,9.11203 11.6914,14.36914 -6.52154,6.88835 -20.98035,12.45787 -29.23047,13.73633 l 6.27344,3.89062 c 8.63004,-0.8807 22.29333,-7.57193 30.19141,-14.02539 8.06856,-6.59276 13.23945,-14.06232 16.16601,-21.7207 l -5.39062,-3.31445 c -0.27971,0.79653 -3.29277,9.10454 -8.91211,13.89648 -6.71753,-3.8903 -9.01852,-7.77164 -12.42774,-13.74804 -2.53359,-4.44143 -5.03887,-8.42927 -11.12304,-11.23829 z m -84.30664,-22.46289 8.71484,1.63282 8.64063,7.13671 -2.21876,3.58204 8.2168,0.45312 10.92188,7.62305 10.23242,1.85742 c 0,0 -13.23431,3.8382 -20.33008,4.30469 l -13.08008,-9.10938 -3.37109,4.08985 9.75976,6.55664 c -8.9155,2.13201 -21.4414,0.60546 -21.4414,0.60546 l 0.15429,-2.47265 -24.54687,-16.57813 -8.74219,-3.2539 c 20.20203,1.99322 37.08985,-6.42774 37.08985,-6.42774 z m 0.79492,8.99414 c -2.811287,1.98726 -6.670718,2.54062 -8.13672,2.5918 l 7.69531,5.66211 3.79297,-4.97656 z m 69.22851,-21.43945 c 0,0 -4.41094,2.84777 -12.53711,2.00195 -2.60755,2.75135 -7.6348,6.30664 -16.19921,6.30664 -9.51308,0 -18.3755,-4.49694 -24.31055,-12.3457 -0.56267,-0.7441 -7.634309,-10.18708 -8.5957,-16.05664 -2.76251,-0.65603 -5.59988,-1.64233 -8.2793,-2.78516 -0.028,1.30735 -0.0114,2.525 0.13867,3.85938 1.55031,13.78705 8.9708,22.38732 15.38867,27.32617 7.16647,5.51494 15.3167,8.21094 24.95508,8.21094 13.078,0 26.38435,-7.3583 29.51563,-16.4043 z"
         sodipodi:nodetypes="ccccccccccccccccccccccccccccccccccccccccccccccccccc" /></g></g></g></svg>
