<?xml version="1.0" encoding="UTF-8" standalone="no"?>
<!DOCTYPE svg PUBLIC "-//W3C//DTD SVG 1.1//EN" "http://www.w3.org/Graphics/SVG/1.1/DTD/svg11.dtd">
<svg width="100%" height="100%" viewBox="0 0 2490 2500" version="1.1" xmlns="http://www.w3.org/2000/svg" xmlns:xlink="http://www.w3.org/1999/xlink" xml:space="preserve" xmlns:serif="http://www.serif.com/" style="fill-rule:evenodd;clip-rule:evenodd;stroke-miterlimit:2.613;">
    <g id="Capa-1" serif:id="Capa 1" transform="matrix(4.16667,0,0,4.16667,0,0)">
        <g transform="matrix(1,0,0,1,505.045,293.231)">
            <path d="M0,14.718L5.375,5.257L42.442,-4.2L8.061,-1.049L17.191,-15.761L-9.134,-19.965L-15.04,-17.337L-17.19,-20.49L-4.295,-38.88L47.278,-54.122L0.538,-47.816L7.521,-57.798L61.245,-70.41L9.669,-66.206L-3.221,-70.934L32.234,-78.818L-42.977,-69.359C-71.987,-127.685 -133.768,-168.146 -204.679,-168.146C-303.528,-168.146 -384.111,-89.326 -384.111,7.363C-384.111,16.817 -383.036,26.277 -381.426,35.732L-382.5,36.258L-378.738,45.718L-381.964,55.705L-400.765,51.501L-474.364,67.79C-466.843,75.672 -462.545,86.705 -462.545,88.81C-462.545,102.995 -476.511,127.166 -459.321,143.983C-437.294,164.476 -400.227,168.68 -374.977,160.798C-370.143,159.219 -335.761,143.983 -323.941,138.199C-292.247,166.048 -250.343,182.864 -204.679,182.864C-112.276,182.864 -36.529,115.08 -26.321,27.329C19.88,15.238 48.891,8.935 48.891,8.935L0,14.718Z" style="fill:white;stroke:white;stroke-width:0.94px;"/>
        </g>
        <g transform="matrix(1,0,0,1,123.619,271.165)">
            <path d="M0,58.85C0.537,60.955 5.91,67.258 5.91,67.258C5.91,67.258 2.688,71.989 3.763,75.14C24.176,149.759 94.015,204.931 176.747,204.931C276.13,204.931 356.178,126.114 356.178,29.429C356.178,-67.259 276.13,-146.081 176.747,-146.081C77.898,-146.081 -2.686,-67.259 -2.686,29.429C-2.686,39.41 -1.61,49.396 0,58.85" style="fill:rgb(29,44,91);"/>
        </g>
        <g transform="matrix(1,0,0,1,300.366,130.339)">
            <path d="M0,340.507C96.162,340.507 174.06,264.309 174.06,170.255C174.06,76.193 96.162,0 0,0C-96.164,0 -174.06,76.193 -174.06,170.255C-174.06,264.309 -96.164,340.507 0,340.507" style="fill:rgb(29,44,91);"/>
        </g>
        <g transform="matrix(1,0,0,1,299.292,173.428)">
            <path d="M0,253.799C71.45,253.799 129.467,197.049 129.467,127.166C129.467,57.276 71.45,0 0,0C-71.451,0 -129.472,57.276 -129.472,127.166C-129.472,197.049 -71.451,253.799 0,253.799" style="fill:rgb(106,172,222);"/>
        </g>
        <g transform="matrix(1,0,0,1,200.443,198.65)">
            <path d="M0,-26.273C0,-26.273 1.074,-25.747 1.61,-25.222L11.818,-11.036L1.074,-2.104L-11.82,-14.714C-11.82,-15.238 -12.356,-16.291 -12.356,-16.291C-15.042,-13.663 -17.729,-11.036 -20.415,-8.408L-18.803,-8.408L-4.834,4.729C-2.689,5.78 0.535,6.306 2.147,4.729C8.057,-1.574 13.968,-5.781 19.338,-9.459C21.489,-10.508 20.952,-13.663 19.876,-15.765L9.13,-30.476C9.13,-31.002 8.595,-32.579 8.595,-32.579C5.372,-30.476 2.147,-28.375 0,-26.273" style="fill:rgb(198,207,213);"/>
        </g>
        <g transform="matrix(1,0,0,1,280.488,163.444)">
            <path d="M0,-17.34L-1.074,-23.12C-9.132,-22.595 -26.86,-18.916 -37.608,-14.187L-35.457,-8.932C-35.457,-8.932 -34.919,-9.985 -32.773,-10.509L-22.564,-13.138C-22.564,-13.138 -18.265,3.154 -17.728,3.154L-17.728,5.78C-15.579,5.256 -9.132,4.204 -8.594,3.68C-8.594,3.154 -9.132,2.627 -9.668,1.578L-13.967,-15.24L-3.761,-17.34L0,-17.34Z" style="fill:rgb(198,207,213);"/>
        </g>
        <g transform="matrix(1,0,0,1,339.584,156.612)">
            <path d="M0,0.528L-12.358,-2.1L-10.746,-8.932L1.612,-5.778L0,0.528ZM-15.043,7.882L-14.508,4.204L-1.612,6.831L-2.688,11.036C-2.688,12.088 -4.298,12.612 -4.298,12.612C-0.538,13.663 3.221,14.714 6.445,16.291C6.445,15.239 5.907,14.189 6.445,13.138L11.281,-3.153C13.429,-8.408 10.205,-9.982 6.445,-11.035C2.147,-12.084 -7.522,-14.712 -11.819,-15.238C-16.117,-15.763 -18.268,-14.186 -19.879,-8.408L-23.639,6.831C-23.639,7.357 -24.174,8.41 -24.715,8.934C-21.488,9.459 -18.268,9.986 -15.043,10.511C-15.043,10.511 -15.579,8.934 -15.043,7.882" style="fill:rgb(198,207,213);"/>
        </g>
        <g transform="matrix(1,0,0,1,392.769,171.85)">
            <path d="M0,26.274L6.98,19.444L-4.836,9.985L-10.211,16.815C-10.211,16.815 -11.285,17.341 -11.285,18.917C-14.505,16.815 -17.194,14.714 -20.418,13.137C-19.345,12.086 -18.268,11.035 -17.194,9.985L-6.448,-4.202C-5.91,-5.253 -4.836,-6.829 -4.836,-8.408C-2.15,-6.829 4.833,-2.1 4.833,-2.1C3.759,-1.575 3.224,-1.049 2.147,-0.524L-2.15,5.255L10.743,15.239L16.114,10.509C16.652,9.985 17.188,8.933 17.726,8.408C19.876,10.509 23.635,13.662 25.784,16.292C25.248,16.292 24.174,16.815 23.097,17.341L6.98,32.58C6.98,32.58 6.448,33.631 6.448,34.682C4.298,32.055 0,28.378 -1.612,26.8C-1.077,26.8 0,26.274 0,26.274" style="fill:rgb(198,207,213);"/>
        </g>
        <g transform="matrix(1,0,0,1,396.528,371.531)">
            <path d="M0,-151.338L-13.97,-170.255L-20.954,-161.848L-33.308,-177.084L-40.83,-168.677L-64.466,-198.629L-74.674,-186.544L-101.533,-225.428L-136.992,-177.084L-148.813,-191.799L-171.374,-163.424L-176.208,-169.202L-198.774,-143.98L-203.607,-132.947L-221.873,-130.318L-224.022,-118.234C-224.557,-115.08 -230.469,-96.162 -225.632,-68.313C-224.557,-63.582 -220.799,-23.648 -212.739,-8.937C-195.011,23.116 -164.926,48.34 -126.248,57.274C-54.797,74.09 16.117,29.425 32.77,-43.089C34.382,-49.398 38.142,-65.161 38.68,-67.786C40.827,-104.044 0,-151.338 0,-151.338" style="fill:white;"/>
        </g>
        <g transform="matrix(1,0,0,1,360.535,428.28)">
            <path d="M0,-53.6C-15.044,-53.6 -30.084,-44.665 -46.74,-34.685C-65.54,-23.646 -87.03,-11.034 -110.667,-11.56C-104.22,-8.409 -97.238,-6.303 -89.714,-4.204C-70.376,0 -51.573,0 -33.847,-3.678C-9.669,-16.29 -2.148,-44.665 0,-53.6" style="fill:rgb(62,47,129);"/>
        </g>
        <g transform="matrix(0,1,1,0,388.771,397.006)">
            <path d="M-22.326,-22.865L-21.8,-22.865C-3.411,-26.624 12.359,-35.22 22.865,-47.039C16.563,-28.775 5.524,-11.581 -8.661,1.848C-17.069,-6.213 -21.273,-14.805 -22.326,-22.865" style="fill:rgb(62,47,129);"/>
        </g>
        <g transform="matrix(1,0,0,1,394.381,346.304)">
            <path d="M0,-124.007L-11.823,-139.772L-18.806,-131.891L-31.161,-147.128L-38.683,-138.196L-62.319,-168.148L-72.526,-155.537L-99.386,-194.423L-134.845,-146.601L-146.666,-161.317L-168.688,-132.942L-174.061,-139.247L-193.402,-117.703L-199.311,-104.565L-217.04,-102.464L-218.114,-91.953C-218.114,-91.953 -225.632,-73.038 -220.261,-43.611C-209.518,9.462 -191.252,44.666 -158.48,64.113C-130.547,70.416 -106.371,56.225 -83.272,42.567C-66.081,32.58 -49.425,23.12 -32.772,23.12C-30.625,9.987 -32.772,0.527 -35.458,-2.624L-31.699,-6.302C-26.863,-1.045 -25.79,9.987 -27.401,23.12C-18.268,24.698 -9.134,28.902 0,38.363C13.429,22.599 23.636,3.679 28.469,-17.861C29.546,-24.17 29.008,-29.947 26.86,-35.73C33.305,-37.835 37.067,-40.46 37.067,-43.085C39.753,-78.293 0,-124.007 0,-124.007" style="fill:rgb(62,47,129);"/>
        </g>
        <g transform="matrix(1,0,0,1,317.557,197.593)">
            <path d="M0,23.128L4.297,-7.351L-22.562,-45.712C-25.25,-31.522 -26.323,-12.606 -29.012,0.531L-24.174,7.363L-41.903,21.024L-69.842,-12.606C-70.375,-8.402 -69.842,-2.098 -69.302,3.159C-68.227,5.261 -66.078,6.836 -65.542,8.939L-80.045,28.904L-91.864,15.769C-93.477,13.669 -97.237,9.463 -97.237,9.463L-98.313,27.857C-104.759,36.261 -109.594,38.363 -114.966,46.247L-116.04,46.247C-117.114,45.722 -117.114,44.669 -117.652,44.146C-115.503,33.11 -120.875,46.771 -125.709,37.84L-136.992,37.84C-138.604,43.093 -142.365,50.977 -144.514,56.23C-148.809,51.503 -131.619,63.061 -131.619,63.061C-129.47,65.165 -129.47,66.74 -126.785,67.265C-124.099,65.165 -128.934,53.604 -119.264,46.247C-118.724,52.028 -121.948,52.552 -120.875,57.807L-112.818,59.909L-84.881,37.314C-85.417,40.467 -85.417,45.196 -86.493,48.349C-89.715,55.179 -93.477,67.791 -84.881,68.84C-76.286,60.962 -44.591,30.483 -44.591,30.483L-38.681,37.314L-26.86,29.958L-17.191,7.888C-17.191,7.888 6.448,38.363 15.041,57.281L19.876,55.704L30.623,49.926L58.556,60.436C61.242,55.704 61.242,48.874 67.69,46.247C68.764,48.349 68.225,52.028 69.84,54.128C75.747,57.807 80.58,61.485 86.493,64.638C89.714,61.485 93.476,56.758 96.701,54.128C98.847,58.331 100.459,63.061 102.072,67.265L103.145,67.265L100.459,50.977L65.001,7.888L65.001,17.873L69.84,24.179C68.764,24.704 67.69,26.804 66.616,27.329C53.72,11.565 59.095,17.347 45.663,1.583C48.887,15.769 49.961,23.654 52.646,37.84L37.603,25.754L41.365,13.142C32.77,2.634 24.174,-8.928 14.505,-19.437C14.505,-16.284 14.505,-11.029 15.041,-7.876L12.355,-4.198C16.117,1.057 19.338,4.736 23.098,9.99L9.669,24.179L15.041,33.636L26.325,24.179L49.422,43.093L13.967,45.722C8.592,35.737 0,23.128 0,23.128" style="fill:white;"/>
        </g>
        <g transform="matrix(1,0,0,1,306.811,428.805)">
            <path d="M0,-181.286L-11.816,-184.965L-70.911,-176.033L-50.496,-196L-88.64,-208.084L-170.295,-197.051L-149.345,-168.676L-172.446,-110.349L-184.267,-99.316L-180.504,-89.856L-183.73,-79.869L-202.531,-84.079L-276.13,-67.784C-268.609,-59.902 -264.312,-48.869 -264.312,-46.764C-264.312,-32.578 -278.277,-8.408 -261.087,8.409C-239.061,28.902 -201.993,33.106 -176.743,25.224C-170.835,23.119 -121.41,1.053 -121.41,1.053C-126.783,-3.677 -128.393,-8.408 -129.47,-11.559L-128.393,-16.816L-123.022,-12.085C-108.518,-17.869 -79.506,-29.427 -63.391,-35.731L-56.944,-50.967L-43.514,-41.513C104.757,-95.638 247.125,-126.639 247.125,-126.639L198.234,-120.856L203.609,-130.317L240.676,-139.774L206.294,-136.622L215.425,-151.335L189.103,-155.539L183.194,-152.911L181.043,-156.065L193.939,-174.454L245.512,-189.696L198.772,-183.39L205.755,-193.371L259.479,-205.984L207.907,-201.78L195.013,-206.508L230.468,-214.392L103.146,-198.102L99.925,-191.795L87.032,-196L2.15,-185.49L0,-181.286Z" style="fill:rgb(29,44,91);"/>
        </g>
        <g transform="matrix(1,0,0,1,362.147,385.19)">
            <path d="M0,-148.461L-32.065,-144.488C-31.566,-143.605 -31.082,-142.731 -30.623,-141.875L4.833,-144.503L0,-148.461ZM-142.649,-164.052L-143.976,-164.469L-155.488,-162.916L-161.168,-156.589L-165.464,-146.606C-162.777,-147.658 -161.168,-150.809 -162.242,-143.451C-161.703,-142.928 -161.703,-141.875 -160.629,-141.35L-159.556,-141.35C-154.183,-149.233 -149.349,-151.336 -142.902,-159.74L-142.649,-164.052ZM-55.335,-137.671L-67.151,-141.35L-112.842,-134.441C-119.709,-127.895 -126.231,-121.723 -129.47,-118.756C-138.066,-119.806 -134.305,-132.418 -131.083,-139.248C-130.007,-142.401 -130.007,-147.13 -129.47,-150.283L-157.407,-127.688L-165.464,-129.79C-166.538,-135.044 -163.313,-135.569 -163.854,-141.35C-173.523,-133.993 -168.688,-122.432 -171.374,-120.332C-174.06,-120.857 -174.06,-122.432 -176.208,-124.536C-176.208,-124.536 -182.118,-128.213 -186.417,-130.839C-186.954,-128.738 -193.398,-110.348 -188.026,-82.498C-178.805,-36.944 -164.033,-4.545 -139.313,16.008C-131.651,12.978 -124.394,10.099 -118.726,7.884L-112.279,-7.352L-98.85,2.102C-65.024,-10.244 -31.512,-21.379 0.079,-31.227C-0.463,-36.23 -1.766,-39.804 -3.224,-41.51L0.535,-45.188C3.051,-42.461 4.555,-38.153 5.184,-32.812C23.82,-38.577 41.749,-43.888 58.623,-48.709C59.403,-51.346 60.096,-54.032 60.703,-56.748C61.78,-63.056 61.242,-68.834 59.095,-74.616C65.539,-76.721 69.302,-79.346 69.302,-81.971C70.376,-96.159 65.004,-111.924 57.482,-125.586L58.556,-120.332L57.482,-120.332C55.87,-124.536 54.258,-129.266 52.111,-133.469C48.887,-130.839 45.125,-126.112 41.903,-122.959C35.991,-126.112 31.158,-129.79 25.251,-133.469C23.636,-135.569 24.174,-139.248 23.101,-141.35C16.652,-138.723 16.652,-131.893 13.967,-127.161L-13.967,-137.671L-24.713,-131.893L-29.549,-130.315C-31.421,-134.438 -34.004,-139.106 -36.904,-143.891L-53.185,-141.875L-55.335,-137.671Z" style="fill:rgb(29,44,91);"/>
        </g>
        <g transform="matrix(1,0,0,1,427.759,320.915)">
            <path d="M0,13.576C18.477,8.344 35.589,3.711 50.871,-0.3C51.636,-6.869 52.038,-13.553 52.038,-20.321C52.038,-47.736 45.603,-73.706 34.118,-96.854L-17.802,-90.212L-18.888,-88.086C-14.744,-81.757 -11.137,-75.079 -8.13,-68.143C0.463,-52.38 8.522,-33.988 7.449,-17.17C6.911,-14.545 3.151,1.219 1.539,7.527C1.073,9.565 0.557,11.58 0,13.576M-231.812,-97.193L-291.243,-89.161L-270.293,-60.786L-293.394,-2.459L-304.355,7.775C-304.282,8.217 -304.215,8.658 -304.14,9.099C-303.603,11.205 -298.229,17.508 -298.229,17.508C-298.229,17.508 -301.452,22.238 -300.377,25.389C-291.229,58.822 -272.148,88.352 -246.442,110.769C-243.888,109.626 -242.357,108.943 -242.357,108.943C-247.73,104.213 -249.341,99.482 -250.418,96.331L-249.341,91.074L-243.97,95.805C-235.686,92.502 -222.667,87.318 -210.025,82.304C-223.94,71.071 -235.403,57.171 -243.97,41.68C-246.655,37.475 -248.806,30.12 -250.418,22.764C-255.252,9.099 -257.938,-5.085 -257.938,-20.321L-257.938,-25.58C-260.625,-49.226 -255.788,-64.991 -255.252,-67.618L-253.104,-79.702L-242.357,-81.281C-239.241,-86.87 -235.707,-92.179 -231.812,-97.193" style="fill:rgb(29,44,91);"/>
        </g>
        <g transform="matrix(1,0,0,1,408.871,242.861)">
            <path d="M0,-10.032L-0.992,-8.089C2.686,-2.976 6.826,3.182 10.758,9.911C7.751,2.975 4.144,-3.703 0,-10.032M-206.972,-19.943L-212.924,-19.138C-216.819,-14.125 -220.353,-8.816 -223.47,-3.227L-215.95,-4.277L-211.117,-15.31L-206.972,-19.943Z" style="fill:rgb(29,44,91);"/>
        </g>
        <g transform="matrix(1,0,0,1,170.359,447.72)">
            <path d="M0,-204.405L12.355,-190.217L-16.117,-122.955L-25.788,-112.975L-22.027,-105.093L-47.814,-32.053L-47.814,-31.527C-52.111,-30.474 -60.706,-27.849 -62.854,-29.947C-65.541,-31.527 -66.616,-33.106 -63.394,-43.086L-54.26,-68.31L-53.722,-68.31L-54.26,-68.31C-53.722,-69.363 -42.977,-85.125 -39.754,-89.329L-105.833,-73.566C-104.759,-71.988 -99.923,-65.152 -100.461,-62.001L-107.443,-37.829C-110.668,-22.592 -104.222,-14.184 -96.7,-7.881C-89.178,-1.052 -66.616,8.408 -36.532,-3.152C-31.696,-5.25 0,-19.441 3.223,-21.02C2.685,-22.592 0,-26.796 -1.075,-32.053L26.323,-110.343L35.456,-120.33L33.309,-129.264L55.871,-194.423L56.408,-194.423L73.597,-212.813L0,-204.405Z" style="fill:white;"/>
        </g>
        <g transform="matrix(1,0,0,1,398.676,340.522)">
            <path d="M0,-28.895L-22.024,-22.592L-23.101,-22.066L-16.118,-38.356L-6.984,-44.66L-10.205,-50.966L-10.205,-51.491L12.357,-95.106L-67.152,-83.545L-84.343,-53.068L-63.928,-59.899L-42.439,-63.052L-41.365,-63.052L-51.573,-47.289L-59.63,-42.034L-58.556,-33.099L-87.567,21.546L-88.102,21.026C-90.252,18.921 -92.938,15.769 -92.938,13.665L-90.252,-24.692L-83.807,-33.625L-89.714,-40.981L-89.714,-63.052L-80.58,-81.444L-157.404,-69.359L-155.255,-56.22L-155.255,-55.695L-168.686,-29.421L-178.356,-19.961L-176.744,-12.08L-177.281,-11.559L-211.663,66.211L-160.091,46.244C-159.016,44.145 -152.033,25.224 -152.033,25.224L-152.033,24.704L-151.494,24.704L-131.618,18.395L-131.08,18.395L-134.303,38.362C-128.931,36.783 -88.102,22.599 -88.102,22.599L1.074,-4.724L20.415,-37.303L0,-28.895Z" style="fill:white;"/>
        </g>
        <g transform="matrix(1,0,0,1,493.228,274.842)">
            <path d="M0,14.189C-3.766,15.239 -17.19,17.867 -22.565,18.918L-23.639,19.444L-16.655,8.408L-9.134,3.154L-11.822,-2.627L-12.357,-2.627L-11.822,-3.153L14.502,-44.662L-63.931,-32.58L-81.121,-4.203L-62.318,-10.508L-45.128,-13.135L-44.054,-13.135L-52.649,-0L-64.469,6.306L-62.318,15.767L-87.569,58.851L4.298,33.627L19.877,6.306C15.576,8.408 0.535,14.189 0,14.189" style="fill:white;"/>
        </g>
        <g transform="matrix(1,0,0,1,62.3774,281.671)">
            <path d="M0,127.693C-3.224,143.457 3.76,151.865 10.745,158.168C18.803,164.997 41.366,174.983 71.449,162.897C76.824,161.319 111.743,145.029 111.743,145.029C111.743,145.029 108.519,139.779 107.443,133.996L134.842,55.706L143.437,45.718L141.29,36.785L164.389,-28.374L182.118,-47.29L107.443,-38.882L119.799,-24.169L91.328,42.567L81.657,53.074L85.418,60.956L60.167,133.996C55.333,135.575 47.275,137.673 45.128,136.101C42.979,134.522 41.366,132.943 45.128,122.963L54.26,97.739C54.26,96.686 68.762,76.193 68.762,76.193L1.61,92.483C1.61,92.483 7.52,100.37 7.52,103.516L0,127.693Z" style="fill:white;"/>
        </g>
        <g transform="matrix(1,0,0,1,419.629,349.456)">
            <path d="M0,-46.764L-20.953,-38.356L-43.516,-31.527L-37.071,-46.764L-27.398,-53.595L-30.623,-59.901L-8.061,-104.566L-88.641,-92.48L-106.37,-60.952L-84.881,-68.308L-63.392,-71.986L-72.526,-56.223L-81.122,-50.968L-80.045,-42.034L-108.52,11.565C-110.667,9.987 -113.356,6.835 -113.356,4.73L-110.667,-33.626L-104.219,-42.56L-110.132,-49.915L-110.667,-71.986L-100.998,-90.901L-178.896,-78.817L-176.208,-65.154L-190.177,-38.882L-199.848,-28.896L-198.234,-21.014L-233.154,57.802L-180.506,37.309L-172.447,16.29L-152.571,9.987L-155.795,29.954L-109.055,14.19L-19.342,-13.659L0,-46.764Z" style="fill:white;"/>
        </g>
        <g transform="matrix(1,0,0,1,430.91,299.539)">
            <path d="M0,-34.681L17.19,-37.307L9.134,-24.697L-2.688,-18.391L0,-8.931L-25.786,35.206L67.151,9.462L83.269,-18.916C83.269,-18.916 62.854,-11.034 62.318,-11.034C58.553,-9.983 44.589,-7.356 39.753,-6.306L45.663,-15.763L53.723,-21.543L50.496,-27.324L77.359,-69.887L-2.15,-57.277L-19.877,-27.85L0,-34.681Z" style="fill:white;"/>
        </g>
        <g transform="matrix(1,0,0,1,333.136,328.964)">
            <path d="M0,-50.968L29.546,-55.698L17.191,-34.154L8.596,-28.897L9.669,-22.068L-17.191,28.9L65.001,3.682L80.045,-20.495L63.931,-13.134L37.606,-6.305L46.737,-27.851L55.335,-33.629L52.111,-39.408L71.988,-79.868L0.539,-69.886L-13.431,-46.24L0,-50.968Z" style="fill:white;"/>
        </g>
        <g transform="matrix(1,0,0,1,65.6001,279.57)">
            <path d="M0,130.847C-2.685,141.88 0.537,149.762 9.67,158.169C17.191,164.473 38.143,173.407 67.153,162.368C72.526,160.269 81.658,156.065 89.717,152.387C94.55,150.288 98.849,148.183 101.533,147.13L105.296,145.558L102.61,142.926C102.072,141.88 101.533,138.729 100.998,135.571L129.47,55.175L136.454,46.767L134.843,39.411L158.48,-27.321L175.133,-42.56L110.129,-34.154L119.801,-23.646L90.791,46.767L82.195,55.175L85.417,63.057L59.095,138.202C54.797,140.301 44.589,143.979 39.756,140.827C36.531,138.202 34.92,135.571 38.68,124.011L47.812,98.787C48.352,97.215 59.095,83.025 59.095,83.025L3.224,96.162C3.224,96.162 8.059,103.518 6.985,106.676L0,130.847Z" style="fill:white;"/>
        </g>
        <g transform="matrix(1,0,0,1,244.496,390.975)">
            <path d="M0,-118.235L2.147,-106.148L-13.432,-77.249L-21.49,-70.414L-19.876,-62.532L-52.111,10.508L-8.059,-6.308L0,-27.854L26.325,-36.262L23.636,-16.82L62.315,-29.427C62.315,-29.427 58.556,-34.157 58.556,-35.209L61.242,-76.723L66.613,-83.552L61.777,-89.861L61.242,-113.505L69.299,-128.743L0,-118.235Z" style="fill:white;"/>
        </g>
        <g transform="matrix(1,0,0,1,509.343,277.469)">
            <path d="M0,7.358L-15.04,14.189C-22.023,15.764 -37.067,18.917 -45.663,20.495L-35.991,5.78L-28.472,0.001L-31.157,-5.254L-6.98,-43.615L-78.433,-32.579L-91.326,-11.036L-79.507,-15.238C-77.359,-15.763 -63.928,-17.865 -53.72,-19.44L-67.151,0.001L-76.282,5.254L-75.209,12.087L-97.235,50.973L-13.429,28.901L0,7.358Z" style="fill:white;"/>
        </g>
        <g transform="matrix(1,0,0,1,332.598,330.453)">
            <path d="M0,-54.639L34.917,-59.898L19.338,-33.096L12.358,-28.897L12.89,-22.589L-11.281,23.122L63.924,0.536L73.6,-15.754L65.54,-12.076L33.305,-3.141L45.125,-30.468L52.105,-35.725L49.425,-40.452L68.223,-77.761C68.223,-77.761 10.74,-69.878 2.68,-68.305L-6.98,-52.014L0,-54.639Z" style="fill:rgb(106,172,222);"/>
        </g>
        <g transform="matrix(1,0,0,1,181.103,443.515)">
            <path d="M0,-195.996L51.574,-202.827L40.829,-192.848L16.649,-125.059L18.269,-117.704L11.281,-109.823L-17.196,-28.901C-17.196,-28.901 -16.659,-21.019 -15.045,-19.44C-22.565,-16.288 -40.832,-7.348 -49.422,-4.197C-77.36,6.831 -97.777,-2.104 -104.216,-7.88C-111.746,-14.704 -115.505,-21.545 -112.818,-32.584C-111.746,-37.84 -111.206,-38.881 -109.597,-43.611C-108.517,-48.341 -106.908,-52.551 -105.836,-56.223C-104.757,-59.901 -106.908,-64.111 -107.984,-65.677L-61.782,-76.716C-63.393,-74.618 -68.764,-69.361 -70.38,-66.21L-78.97,-40.986C-83.271,-28.901 -82.198,-25.223 -77.36,-21.545C-69.839,-15.762 -53.722,-23.644 -53.722,-23.644L-26.865,-100.888L-30.087,-107.723L-22.565,-115.599L7.517,-188.115L0,-195.996Z" style="fill:rgb(106,172,222);"/>
        </g>
        <g transform="matrix(1,0,0,1,233.211,347.281)">
            <path d="M0,-31.535L-7.522,-25.232L-5.91,-17.877L-35.989,49.919L1.077,35.722L9.667,14.182L40.832,4.195L38.143,23.111L69.302,13.656C69.302,13.656 67.152,11.025 67.152,8.926L69.837,-33.64L74.67,-39.417L70.376,-44.674L69.837,-69.894L75.747,-81.454L14.504,-71.998L16.116,-61.485L0,-31.535Z" style="fill:rgb(106,172,222);"/>
        </g>
        <g transform="matrix(1,0,0,1,494.841,267.928)">
            <path d="M0,26.799C-9.669,28.901 -36.535,34.158 -36.535,34.158L-23.639,13.664L-17.197,9.458L-19.877,4.73L2.147,-29.952L-62.324,-19.965L-70.914,-5.781C-70.914,-5.781 -66.619,-7.883 -66.081,-7.883C-62.324,-8.406 -33.309,-13.134 -33.309,-13.134L-51.034,12.09L-59.092,16.817L-58.021,22.598L-77.362,56.751C-77.362,56.751 -15.047,39.409 -0.541,36.252L7.521,23.649C7.521,23.649 1.608,26.276 0,26.799" style="fill:rgb(106,172,222);"/>
        </g>
        <g transform="matrix(1,0,0,1,301.782,396.752)">
            <path d="M0,-63.416L-83.821,-46.728L-104.563,0L-67.494,-14.184L-58.901,-35.73L-27.74,-45.717L-30.426,-26.796L0.732,-36.257C0.732,-36.257 -1.416,-38.888 -1.416,-40.986L0,-63.416Z" style="fill:rgb(106,172,222);"/>
        </g>
        <g transform="matrix(1,0,0,1,459.839,316.227)">
            <path d="M0,-17.017L-32.12,-10.08L-42.36,8.012C-42.36,8.012 19.958,-9.33 34.464,-12.481L40.604,-22.093L42.382,-25.029C41.468,-24.625 36.463,-22.418 35.002,-21.94C25.33,-19.84 -1.53,-14.587 -1.53,-14.587L0,-17.017Z" style="fill:rgb(106,172,222);"/>
        </g>
        <g transform="matrix(1,0,0,1,369.36,327.898)">
            <path d="M0,-25.823L-23.467,-20.046L-24.029,-19.725L-24.398,-19.011L-24.398,-18.981L-26.02,-15.969L-34.461,0L-0.048,-8.463L6.115,-22.708L0,-25.823Z" style="fill:rgb(106,172,222);"/>
        </g>
        <g transform="matrix(1,0,0,1,184.397,450.345)">
            <path d="M0,-93.945L-37.814,-85.694L-57.015,-30.474C-57.015,-30.474 -73.131,-22.592 -80.654,-28.369C-85.489,-32.047 -86.564,-35.731 -82.266,-47.816L-73.671,-73.041C-72.842,-74.655 -71.012,-76.827 -69.217,-78.841L-109.907,-69.962C-109.073,-68.002 -108.435,-65.419 -109.126,-63.053C-110.202,-59.376 -111.812,-55.172 -112.886,-50.441C-114.5,-45.712 -115.035,-44.659 -116.111,-39.409C-118.797,-28.369 -115.035,-21.54 -107.518,-14.711C-101.069,-8.928 -80.654,0 -52.719,-11.027C-44.124,-14.184 -25.859,-23.119 -18.337,-26.27C-19.706,-27.613 -20.295,-33.516 -20.442,-35.241L-20.486,-35.205L-20.45,-35.307C-20.471,-35.573 -20.486,-35.731 -20.486,-35.731L0,-93.945Z" style="fill:rgb(106,172,222);"/>
        </g>
        <g transform="matrix(1,0,0,1,248.792,287.982)">
            <path d="M0,58.323L25.25,50.441L27.935,0L0,58.323Z" style="fill:white;"/>
        </g>
        <g transform="matrix(1,0,0,1,248.255,286.403)">
            <path d="M0,60.428L29.009,0L25.786,52.02L0,60.428Z" style="fill:white;"/>
        </g>
        <g transform="matrix(1,0,0,1,253.089,299.014)">
            <path d="M0,43.087L18.267,37.311L20.952,0L0,43.087Z" style="fill:white;"/>
        </g>
        <g transform="matrix(1,0,0,1,257.924,311.627)">
            <path d="M0,26.796L11.281,23.118L12.896,0L0,26.796Z" style="fill:rgb(29,44,91);"/>
        </g>
    </g>
</svg>
