<?xml version="1.0" encoding="UTF-8" standalone="no"?>
<!DOCTYPE svg PUBLIC "-//W3C//DTD SVG 1.1//EN" "http://www.w3.org/Graphics/SVG/1.1/DTD/svg11.dtd">
<svg width="100%" height="100%" viewBox="0 0 70 80" version="1.1" xmlns="http://www.w3.org/2000/svg" xmlns:xlink="http://www.w3.org/1999/xlink" xml:space="preserve" xmlns:serif="http://www.serif.com/" style="fill-rule:evenodd;clip-rule:evenodd;stroke-linejoin:round;stroke-miterlimit:2;">
    <g transform="matrix(0.078231,0,0,0.0703249,-0.407245,1.42878)">
        <g id="Layer_2">
            <g id="Layer_1">
                <g id="Layer_1-2">
                    <g>
                        <g transform="matrix(1.43098,0.978984,-0.868358,1.57072,207.086,-981.394)">
                            <g transform="matrix(1.40753,-0.880147,0.711238,1.40753,-721.398,587.96)">
                                <path d="M811.8,573.5C814.6,570.4 817.1,567.2 819.2,564.3C816.9,567.4 814.5,570.5 811.8,573.5L815.6,583L811.9,573.5L811.8,573.5Z" style="fill:rgb(197,206,218);fill-rule:nonzero;"/>
                            </g>
                            <g transform="matrix(1.40753,-0.880147,0.711238,1.40753,-721.398,587.96)">
                                <path d="M791.9,591.8C784.9,597.1 777.1,602 768.8,606.1L780.3,635.3C788.6,631 796.3,626 803.1,620.5L791.9,591.8Z" style="fill:rgb(197,206,218);fill-rule:nonzero;"/>
                            </g>
                            <g transform="matrix(1.40753,-0.880147,0.711238,1.40753,-721.398,587.96)">
                                <path d="M835.2,530.6C832.9,540.2 828.7,549.7 822.8,558.9C823.8,557.3 824.4,556.4 824.4,556.4L833.8,582.1C841,566.2 840.9,545.2 835.2,530.6Z" style="fill:rgb(197,206,218);fill-rule:nonzero;"/>
                            </g>
                            <g transform="matrix(1.40753,-0.880147,0.711238,1.40753,-721.398,587.96)">
                                <path d="M808.1,631.7L808.1,631.7Z" style="fill:rgb(9,31,64);fill-rule:nonzero;"/>
                            </g>
                            <g transform="matrix(1.40753,-0.880147,0.711238,1.40753,-721.398,587.96)">
                                <path d="M673.8,484.9C675.3,483.6 676.9,482.3 678.6,481.1C676.9,482.3 675.3,483.5 673.7,484.8C645.7,507 630.5,537.8 636,564.5C636.6,567.6 637.5,570.7 638.7,573.7C639.5,575.7 640.4,577.6 641.5,579.5L651.4,572.7C649,569.5 646.9,566 645.4,562.1C645.4,561.9 645.4,561.7 645.2,561.6C635.6,536.9 648,506.8 673.9,484.9L673.8,484.9Z" style="fill:rgb(233,29,45);fill-rule:nonzero;"/>
                            </g>
                            <g transform="matrix(1.95655,-1.22346,0.988662,1.95655,-1291.19,899.505)">
                                <path d="M728.7,458.6C729.1,458.6 729.6,458.4 730,458.4C729.6,458.4 729.1,458.6 728.7,458.7L728.7,458.6Z" style="fill:rgb(0,113,185);fill-rule:nonzero;"/>
                            </g>
                            <g transform="matrix(1.40753,-0.880147,0.711238,1.40753,-721.398,587.96)">
                                <path d="M710.9,595.3C701.7,595.8 693,595.1 684.9,593.3C675.1,591 666.4,586.9 659.4,581.2L648.1,589C655.6,597.4 665.8,603.5 677.7,607.1C687.8,610.2 699.1,611.5 711.1,610.9L711.1,595.3L710.9,595.3Z" style="fill:white;fill-rule:nonzero;"/>
                            </g>
                            <g transform="matrix(1.40753,-0.880147,0.711238,1.40753,-721.398,587.96)">
                                <path d="M730,458.3C765.7,451.7 798.2,463.6 808.8,489.8C812.7,499.4 813.2,509.8 810.8,520.2C808.9,528.8 805,537.5 799.5,545.7L813.5,551.8C819.6,541.7 823.6,531.2 824.9,520.8C826.1,511.1 825.2,501.6 821.6,492.7C809.4,462.5 771.3,449.3 729.9,458.1L729.9,458.3L730,458.3Z" style="fill:rgb(0,113,185);fill-rule:nonzero;"/>
                            </g>
                            <g transform="matrix(1.40753,-0.880147,0.711238,1.40753,-721.398,587.96)">
                                <path d="M788.1,559.8C778.2,570 765.6,578.9 750.9,585.3C742.9,588.8 734.8,591.4 726.8,593.1L726.8,609C736.8,607.2 746.9,604.1 757,599.7C757,599.7 757.3,599.7 757.4,599.5C775.9,591.2 791.5,579.6 803.1,566.3L788.2,559.8L788.1,559.8Z" style="fill:rgb(255,197,47);fill-rule:nonzero;"/>
                            </g>
                            <g transform="matrix(1.40753,-0.880147,0.711238,1.40753,-721.398,587.96)">
                                <path d="M824.4,556.4C824.4,556.4 823.8,557.4 822.8,558.9C822.4,559.5 822,560.1 821.6,560.8C821.3,561.2 821,561.7 820.7,562.2C820.2,562.9 819.7,563.6 819.2,564.4C817.1,567.3 814.6,570.5 811.8,573.6L815.5,583.1L822.5,600.9C822.5,600.9 829.7,591.8 833.8,582.3L824.4,556.5L824.4,556.4Z" style="fill:white;fill-rule:nonzero;"/>
                            </g>
                            <g transform="matrix(1.40753,-0.880147,0.711238,1.40753,-721.398,587.96)">
                                <path d="M704.4,472C688,479.2 674.6,489.9 665.3,502C674.1,491.8 686,482.9 700.2,476.7C738.5,459.9 778.8,468.9 790.2,496.9C801.6,524.9 779.9,561.2 741.6,578C739.9,578.7 738.2,579.4 736.5,580.1C740,579 743.4,577.7 746.9,576.2C786.2,558.9 808.6,521.6 796.9,492.8C785.1,464 743.7,454.7 704.4,472Z" style="fill:rgb(197,206,218);fill-rule:nonzero;"/>
                            </g>
                            <g transform="matrix(1.40753,-0.880147,0.711238,1.40753,-721.398,587.96)">
                                <path d="M758,527.3L743.8,520.7C738.8,518.4 735.8,514 735.6,508.8L735,494.1C735,492.3 732,492.1 730.5,493.8L718.4,507.6C714.1,512.5 707.9,516.2 701.2,517.7L682.5,522.1C680.2,522.6 679.1,525.2 680.9,526L695.1,532.6C700.1,534.9 703.1,539.3 703.3,544.5L703.9,559.2C703.9,561 706.9,561.2 708.4,559.5L720.5,545.7C724.8,540.8 731,537.1 737.7,535.6L756.4,531.2C758.7,530.7 759.8,528.1 758,527.3Z" style="fill:rgb(197,206,218);fill-rule:nonzero;"/>
                            </g>
                        </g>
                        <g transform="matrix(1.12788,0,0,1.12788,5.10325,7.85535)">
                            <g transform="matrix(3.03232,0,0,3.03232,-1036.53,-62.1521)">
                                <path d="M358.9,120.9L352.8,149.4L373.8,149.4L549.4,16.3L496.3,16.3L358.9,120.9Z" style="fill:rgb(0,113,185);fill-rule:nonzero;"/>
                            </g>
                            <g transform="matrix(3.03232,0,0,3.03232,-1036.53,-62.1521)">
                                <path d="M482.7,143L534.3,115.5L550.2,47.4L499.8,69.7L482.7,143Z" style="fill:rgb(233,29,45);fill-rule:nonzero;"/>
                            </g>
                            <g transform="matrix(3.03232,0,0,3.03232,-1036.53,-62.1521)">
                                <path d="M467.8,161.3L465.3,172.2L521,172.2L526.3,149.4L547.5,149.4L565.2,115.5L553.9,115.5L467.8,161.3Z" style="fill:rgb(255,197,47);fill-rule:nonzero;"/>
                            </g>
                            <g transform="matrix(3.03232,0,0,3.03232,-1036.53,-62.1521)">
                                <path d="M477,122.1L478.6,115.2L435.8,115.2L422.6,125.4L476.2,125.4L477,122.1Z" style="fill:rgb(197,206,218);fill-rule:nonzero;"/>
                            </g>
                            <g transform="matrix(3.03232,0,0,3.03232,-1036.53,-62.1521)">
                                <path d="M349.2,117.4L342.3,149.4L352.8,149.4L358.9,120.9L496.3,16.3L482.4,16.3L349.2,117.4Z" style="fill:white;fill-rule:nonzero;"/>
                            </g>
                            <g transform="matrix(3.03232,0,0,3.03232,-1036.53,-62.1521)">
                                <path d="M467.8,161.3L553.9,115.5L534.3,115.5L482.7,143L499.8,69.7L488.1,74.9L478.6,115.2L477,122.1L476.2,125.4L422.6,125.4L391.7,149.4L470.6,149.4L467.8,161.3Z" style="fill:white;fill-rule:nonzero;"/>
                            </g>
                        </g>
                    </g>
                </g>
            </g>
        </g>
    </g>
</svg>
