<?xml version="1.0" encoding="UTF-8" standalone="no"?>
<!DOCTYPE svg PUBLIC "-//W3C//DTD SVG 1.1//EN" "http://www.w3.org/Graphics/SVG/1.1/DTD/svg11.dtd">
<svg width="100%" height="100%" viewBox="0 0 960 640" version="1.1" xmlns="http://www.w3.org/2000/svg" xmlns:xlink="http://www.w3.org/1999/xlink" xml:space="preserve" xmlns:serif="http://www.serif.com/" style="fill-rule:evenodd;clip-rule:evenodd;stroke-linejoin:round;stroke-miterlimit:2;">
    <path d="M666.267,462.739C655.527,463.149 650.87,461.954 647.944,460.545C644.714,458.993 640.343,455.639 632.689,445.291C683.431,402.957 716.402,339.981 718.561,269.387L810.66,126.701C810.66,126.701 766.145,103.474 691.103,83.707C721.005,43.174 740.364,16.913 740.364,16.913C740.364,16.913 687.392,2.891 679.666,1.624C675.259,0.91 667.73,0.144 659.63,3.426C652.922,6.138 648.229,10.633 644.946,15.022C644.714,15.325 631.351,33.451 610.209,62.084C572.741,37.608 528.012,23.371 480.018,23.371C432.024,23.371 387.295,37.608 349.827,62.084C338.254,46.393 326.675,30.705 315.09,15.022C311.825,10.633 307.115,6.138 300.406,3.426C292.306,0.143 284.795,0.91 280.37,1.624C272.644,2.891 219.673,16.913 219.673,16.913C219.673,16.913 239.084,43.227 269.04,83.849C194.195,103.581 149.376,126.701 149.376,126.701L241.475,269.387C241.653,275.096 242.064,280.734 242.635,286.353C201.153,287.977 176.407,308.261 176.407,340.801C176.407,373.341 207.915,407.203 253.036,419.887C265.06,423.275 277.494,424.992 289.987,424.989C294.964,424.989 300.049,424.686 305.098,424.151C312.057,431.661 319.479,438.744 327.329,445.291C319.675,455.621 315.304,458.993 312.075,460.545C309.148,461.954 304.51,463.132 293.751,462.739C293.805,462.739 123.167,455.211 123.167,455.211L156.335,534.278C158.94,540.433 163.222,547.801 171.143,553.046C179.404,558.505 188.075,559.308 194.123,559.308L299.264,559.308C311.289,559.308 323.743,558.487 335.804,552.422C348.989,545.785 358.374,534.492 367.616,522.076C370.185,518.632 377.09,509.266 387.331,495.404L480,639L572.67,495.404C582.911,509.266 589.816,518.615 592.385,522.076C601.609,534.51 610.994,545.785 624.197,552.422C636.258,558.487 648.711,559.308 660.736,559.308L765.877,559.308C771.926,559.308 780.597,558.505 788.857,553.046C796.779,547.801 801.061,540.433 803.666,534.278L836.833,455.211C836.833,455.211 666.196,462.739 666.249,462.739L666.267,462.739Z" style="fill:white;fill-rule:nonzero;"/>
    <path d="M666.57,471.015C655.223,471.443 649.014,470.265 644.339,468.018C639.29,465.591 633.938,460.935 625.998,450.213C625.177,449.107 623.358,446.645 620.663,443.006C673.457,401.884 707.874,338.195 709.265,266.566L797.207,130.321C797.207,130.321 751.05,108.217 676.258,89.859C692.988,67.178 709.718,44.498 726.448,21.817C743.178,-0.864 685.518,10.987 678.328,9.81C674.474,9.186 668.748,8.686 662.734,11.113C657.792,13.111 654.206,16.465 651.601,19.979C651.351,20.319 635.722,41.477 611.529,74.267C574.275,48.095 528.904,32.699 480.019,32.699C431.134,32.699 385.76,48.095 348.506,74.267C324.312,41.477 308.683,20.318 308.433,19.979C305.811,16.465 302.243,13.111 297.3,11.113C291.288,8.686 285.56,9.186 281.707,9.81C274.499,10.988 233.588,21.817 233.588,21.817L283.776,89.859C208.984,108.217 162.828,130.321 162.828,130.321L250.769,266.566C250.97,276.138 251.762,285.689 253.142,295.164C251.412,295.093 185.237,290.686 185.237,340.799C185.237,372.555 217.263,400.689 255.444,411.411C272.821,416.299 290.824,417.441 309.218,414.782C318.408,425.041 328.47,434.514 339.353,443.006C337.573,445.403 335.801,447.805 334.036,450.213C326.097,460.935 320.744,465.609 315.696,468.018C311.02,470.265 304.812,471.443 293.464,471.015L135.887,464.057L164.005,531.065C166.289,536.417 169.715,542.143 175.745,546.122C182.025,550.279 188.787,551.01 194.14,551.01L299.281,551.01C311.021,551.01 321.832,550.154 332.091,544.998C343.367,539.325 351.771,529.495 360.959,517.114C364.153,512.814 373.984,499.523 388.453,479.917L480.017,621.764L571.58,479.917C586.05,499.505 595.88,512.814 599.074,517.114C608.28,529.513 616.666,539.325 627.942,544.998C638.202,550.154 649.013,551.01 660.753,551.01L765.894,551.01C771.264,551.01 778.008,550.279 784.288,546.122C790.319,542.126 793.762,536.417 796.028,531.065L824.148,464.057L666.569,471.015L666.57,471.015Z" style="fill:rgb(1,1,1);fill-rule:nonzero;"/>
    <path d="M659.309,119.191C689.658,126.274 718.829,135.283 746.733,146.166L703.949,212.442C696.277,177.779 680.737,146.041 659.309,119.191ZM480.018,491.338C464.21,491.342 448.444,489.716 432.97,486.485L480.018,559.38L527.067,486.485C511.593,489.718 495.826,491.344 480.018,491.338ZM300.727,119.191C270.379,126.274 241.208,135.283 213.303,146.166L256.088,212.442C263.759,177.779 279.3,146.041 300.727,119.191Z" style="fill:rgb(137,115,76);fill-rule:nonzero;"/>
    <path d="M665.696,104.168C701.826,112.767 736.902,124.167 770.677,138.617L707.874,235.918C706.97,228.024 705.66,220.181 703.949,212.422L746.733,146.146C718.847,135.263 689.675,126.272 659.309,119.172C658.506,118.155 657.685,117.156 656.865,116.157C659.88,112.071 662.842,108.057 665.714,104.168L665.696,104.168ZM527.067,486.483L480.018,559.378L432.97,486.483C425.196,484.857 417.513,482.821 409.954,480.382L480.018,588.939L550.082,480.382C542.515,482.812 534.827,484.849 527.049,486.483L527.067,486.483ZM256.087,212.422L213.303,146.146C241.19,135.263 270.361,126.272 300.727,119.172C301.53,118.155 302.351,117.156 303.172,116.157C300.156,112.071 297.195,108.057 294.322,104.168C258.193,112.767 223.116,124.167 189.342,138.617L252.144,235.918C253.048,228.024 254.359,220.181 256.07,212.422L256.087,212.422Z" style="fill:white;fill-rule:nonzero;"/>
    <path d="M590.779,129.34C632.796,72.412 663.501,30.79 664.447,29.541C667.48,25.456 670.727,24.796 675.741,25.617C681.7,26.58 692.369,29.238 699.631,31.183C699.631,31.183 658.523,86.916 604.356,160.328C600.235,149.445 595.685,139.08 590.779,129.34ZM374.27,136.154C348.047,100.619 321.819,65.088 295.588,29.559C292.555,25.474 289.308,24.814 284.295,25.634C278.335,26.598 267.666,29.256 260.405,31.201C260.405,31.201 305.062,91.732 362.584,169.712C365.456,158.205 369.417,146.93 374.27,136.154ZM667.177,487.017C641.36,487.998 629.584,481.951 613.134,459.722C605.492,449.391 597.856,439.056 590.226,428.716C583.214,435.316 575.256,441.132 566.55,446.128C590.618,478.739 607.461,501.539 611.921,507.551C629.245,530.886 636.881,534.972 660.754,534.972L765.895,534.972C773.816,534.972 777.938,532.706 781.31,524.785C784.682,516.846 799.615,481.166 799.615,481.166C799.615,481.166 698.292,485.84 667.194,487.017L667.177,487.017ZM368.739,430.161L346.883,459.74C330.433,481.951 318.658,487.998 292.841,487.035C261.743,485.858 160.42,481.183 160.42,481.183C160.42,481.183 175.353,516.882 178.725,524.803C182.098,532.742 186.219,534.989 194.141,534.989L299.282,534.989C323.136,534.989 330.772,530.904 348.114,507.569C352.628,501.486 369.81,478.24 394.324,445.021C386.099,440.775 377.606,435.834 368.739,430.161Z" style="fill:rgb(207,69,32);fill-rule:nonzero;"/>
    <path d="M289.362,40.247L260.405,31.202C267.666,29.258 278.335,26.6 284.295,25.636C289.308,24.816 292.555,25.476 295.588,29.561C296.57,30.863 329.702,75.767 374.27,136.156C372.442,140.221 370.746,144.344 369.185,148.519C323.439,86.471 289.362,40.247 289.362,40.247ZM596.363,141.044C639.308,82.796 670.674,40.247 670.674,40.247L699.631,31.202C692.369,29.258 681.7,26.6 675.741,25.636C670.727,24.816 667.48,25.476 664.447,29.561C663.519,30.828 632.797,72.431 590.779,129.359C592.706,133.159 594.561,137.066 596.363,141.062L596.363,141.044ZM368.739,430.162L346.883,459.741C330.433,481.952 318.658,488 292.841,487.037C261.778,485.859 160.563,481.203 160.42,481.185L191.001,494.619C191.001,494.619 273.322,497.723 297.444,498.276C322.708,498.847 337.73,491.14 355.661,467.252C357.874,464.308 366.116,453.158 378.606,436.264C375.284,434.284 371.995,432.249 368.739,430.162ZM667.177,487.019C641.36,488 629.584,481.952 613.134,459.723C605.491,449.393 597.855,439.057 590.226,428.717C587.407,431.358 584.466,433.864 581.412,436.228C593.901,453.14 602.162,464.291 604.374,467.234C622.287,491.122 637.31,498.829 662.591,498.258C686.713,497.705 769.035,494.601 769.035,494.601L799.615,481.167C799.473,481.167 698.275,485.842 667.194,487.019L667.177,487.019Z" style="fill:white;fill-rule:nonzero;"/>
    <path d="M725.912,505.768C725.163,515.919 724.609,524.714 724.52,534.99L715.582,534.99C716.545,529.21 719.507,512.172 721.933,503.805C722.754,501.005 723.289,499.577 724.895,499.881C726.59,500.184 726.144,502.45 725.894,505.768L725.912,505.768ZM700.273,526.57C701.576,526.677 702.022,525.303 702.414,522.77C705.126,505.268 707.499,496.884 707.499,496.884L707.41,496.848C705.073,496.937 702.753,497.008 700.452,497.08C699.685,501.932 698.436,511.566 698.793,521.378C698.917,524.625 699.399,526.48 700.256,526.57L700.273,526.57ZM741.149,521.878C741.077,524.143 741.434,524.768 742.255,524.893C743.183,525.035 743.771,524.322 744.307,522.163C747.857,507.748 751.176,497.758 752.05,495.242C749.659,495.331 747.09,495.421 744.378,495.528C743.272,501.397 741.416,512.387 741.149,521.878ZM252.537,496.884C252.537,496.884 254.892,505.268 257.622,522.77C258.014,525.285 258.46,526.677 259.763,526.57C260.619,526.498 261.119,524.625 261.226,521.378C261.583,511.584 260.334,501.932 259.567,497.08C257.265,497.008 254.946,496.919 252.608,496.848L252.519,496.884L252.537,496.884ZM217.781,524.893C218.602,524.768 218.959,524.143 218.888,521.878C218.62,512.387 216.782,501.397 215.658,495.528C212.946,495.421 210.359,495.331 207.986,495.242C208.861,497.758 212.179,507.748 215.73,522.163C216.265,524.322 216.854,525.035 217.781,524.893ZM238.085,503.805C237.265,501.005 236.729,499.577 235.124,499.881C233.429,500.184 233.875,502.45 234.124,505.768C234.874,515.919 235.427,524.714 235.516,534.99L244.455,534.99C243.491,529.21 240.53,512.172 238.103,503.805L238.085,503.805Z" style="fill:rgb(207,69,32);fill-rule:nonzero;"/>
    <path d="M274.018,497.581C275.284,504.735 277.729,519.007 279.905,535.01L244.436,535.01C243.473,529.23 240.511,512.193 238.084,503.825C237.264,501.025 236.728,499.597 235.123,499.901C233.428,500.204 233.874,502.47 234.124,505.788C234.873,515.939 235.426,524.734 235.515,535.01L202.883,535.01C197.602,515.279 193.427,501.952 190.982,494.602L191.036,494.602C191.036,494.602 197.798,494.888 208.003,495.262C208.878,497.813 212.214,507.804 215.747,522.183C216.282,524.342 216.871,525.055 217.798,524.913C218.619,524.788 218.976,524.163 218.905,521.898C218.637,512.407 216.799,501.417 215.675,495.548C226.559,495.94 239.779,496.422 252.643,496.868L252.554,496.903C252.554,496.903 254.909,505.288 257.639,522.79C258.031,525.305 258.477,526.697 259.78,526.59C260.636,526.518 261.136,524.645 261.243,521.398C261.6,511.604 260.351,501.952 259.601,497.1C264.597,497.278 269.468,497.439 274.035,497.581L274.018,497.581ZM769.017,494.602C769.017,494.602 762.255,494.852 752.049,495.226C751.175,497.778 747.839,507.768 744.306,522.147C743.771,524.307 743.182,525.02 742.254,524.877C741.433,524.752 741.076,524.128 741.148,521.862C741.415,512.371 743.253,501.381 744.377,495.512C733.494,495.904 720.273,496.386 707.409,496.832L707.499,496.868C707.499,496.868 705.143,505.253 702.414,522.754C702.021,525.269 701.575,526.661 700.273,526.554C699.416,526.482 698.917,524.609 698.81,521.362C698.453,511.568 699.702,501.917 700.451,497.064C695.455,497.242 690.585,497.403 686.017,497.546C684.75,504.7 682.306,518.972 680.129,534.974L715.599,534.974C716.562,529.194 719.524,512.157 721.95,503.79C722.771,500.989 723.306,499.562 724.912,499.865C726.607,500.168 726.161,502.434 725.911,505.752C725.162,515.903 724.609,524.698 724.519,534.974L757.152,534.974C762.433,515.243 766.608,501.917 769.052,494.566L768.999,494.566L769.017,494.602ZM486.369,58.09C432.737,58.09 373.075,139.477 373.075,209.946C373.075,239.168 383.352,253.333 400.658,249.123C397.928,238.972 400.39,227.518 408.062,219.972C404.298,237.901 415.217,251.852 432.934,250.996C463.122,249.533 489.099,204.219 536.986,204.219C550.796,204.219 563.374,210.088 568.958,219.704C568.923,219.704 562.321,216.243 547.067,216.243C541.679,216.243 536.576,216.921 531.669,218.063C539.216,271.459 481.32,294.401 448.563,267.48C442.978,269.692 437.216,270.995 431.185,270.995C421.676,270.995 414.307,267.908 409.079,263.145C393.593,284.268 369.917,307.157 339.8,323.195C366.152,338.11 388.401,358.144 401.568,379.695C329.862,332.347 284.973,314.222 247.933,314.222C220.279,314.222 204.774,324.319 204.774,340.91C204.774,354.041 214.48,367.796 229.307,378.411C252.091,393.664 286.222,401.371 313.537,392.95C279.014,365.441 257.639,351.811 236.747,343.711C315.535,342.694 372.647,450.289 481.552,450.289C525.675,450.289 567.478,432.627 589.351,404.475C606.515,382.389 614.294,350.473 614.294,306.532C614.294,180.117 552.027,58.072 486.369,58.072L486.369,58.09ZM413.343,188.056C412.648,195.567 408.223,201.311 403.477,200.865C398.731,200.419 395.448,193.979 396.144,186.45C396.84,178.939 401.265,173.213 406.011,173.641C410.756,174.087 414.039,180.527 413.343,188.056ZM428.438,140.993C424.958,147.683 418.571,151.269 414.164,148.986C409.757,146.702 409.008,139.423 412.487,132.716C415.966,126.026 422.354,122.44 426.76,124.723C431.167,127.007 431.917,134.286 428.438,140.993ZM449.366,198.778C446.333,205.7 440.267,209.714 435.788,207.751C431.31,205.789 430.15,198.599 433.166,191.695C436.199,184.773 442.265,180.759 446.743,182.722C451.221,184.684 452.381,191.874 449.366,198.778ZM443.728,105.438C440.356,101.781 442.104,94.68 447.653,89.542C453.202,84.422 460.428,83.227 463.8,86.866C467.172,90.524 465.423,97.624 459.875,102.762C454.326,107.882 447.1,109.077 443.728,105.438ZM479.001,158.031C473.595,163.294 466.405,164.685 462.943,161.135C459.482,157.585 461.052,150.431 466.476,145.168C471.882,139.905 479.072,138.514 482.533,142.064C485.995,145.614 484.407,152.768 479.001,158.031ZM521.125,130.735C514.256,133.857 507.012,132.716 504.943,128.166C502.873,123.617 506.762,117.409 513.631,114.287C520.5,111.165 527.744,112.306 529.814,116.856C531.883,121.405 527.994,127.613 521.125,130.735ZM409.169,327.727C404.333,328.993 398.874,324.087 396.965,316.791C395.056,309.494 397.429,302.554 402.246,301.287C407.081,300.021 412.541,304.927 414.45,312.223C416.359,319.52 413.986,326.46 409.169,327.727ZM431.381,370.632C427.189,373.273 420.516,370.222 416.501,363.835C412.487,357.448 412.63,350.134 416.84,347.494C421.033,344.853 427.706,347.904 431.72,354.291C435.735,360.677 435.592,367.992 431.381,370.632ZM432.612,299.878C429.098,293.206 429.811,285.909 434.218,283.572C438.625,281.235 445.066,284.767 448.599,291.44C452.113,298.112 451.4,305.409 446.993,307.746C442.586,310.083 436.145,306.55 432.612,299.878ZM467.743,406.33C464.638,410.095 457.395,409.256 451.578,404.439C445.762,399.64 443.567,392.683 446.672,388.918C449.776,385.154 457.02,385.993 462.836,390.809C468.653,395.608 470.847,402.566 467.743,406.33ZM475.986,340.768C472.506,344.3 465.316,342.855 459.946,337.539C454.576,332.24 453.059,325.068 456.538,321.536C460.017,318.004 467.207,319.449 472.578,324.765C477.948,330.064 479.465,337.235 475.986,340.768ZM515.005,366.012C512.704,370.65 505.353,371.703 498.591,368.349C491.829,364.995 488.225,358.519 490.527,353.862C492.828,349.224 500.179,348.171 506.941,351.525C513.703,354.879 517.307,361.355 515.005,366.012ZM523.391,312.58C516.468,315.577 509.189,314.15 507.119,309.405C505.067,304.659 509.01,298.362 515.933,295.365C522.856,292.367 530.135,293.795 532.205,298.54C534.256,303.286 530.313,309.583 523.391,312.58ZM561.465,381.747C560.234,386.778 553.293,389.4 545.961,387.598C538.628,385.796 533.685,380.266 534.934,375.217C536.165,370.186 543.124,367.564 550.439,369.366C557.772,371.167 562.714,376.698 561.465,381.747ZM572.027,297.256C564.605,298.594 557.825,295.489 556.897,290.334C555.97,285.178 561.233,279.897 568.655,278.559C576.077,277.221 582.857,280.307 583.785,285.481C584.713,290.637 579.449,295.918 572.027,297.256ZM349.238,298.112C344.153,277.399 348.703,261.7 364.975,250.282C369.863,259.399 376.982,264.679 385.903,265.643C375.894,277.614 363.726,288.335 349.238,298.112Z" style="fill:white;fill-rule:nonzero;"/>
    <path d="M485.531,41.803C424.905,41.803 357.303,127.685 357.303,211.177C357.303,219.848 358.034,227.59 359.444,234.334C333.948,250.354 324.795,276.776 333.341,307.942C329.648,310.048 325.812,312.099 321.869,314.133C300.816,307.086 287.81,304.267 269.557,301.913C246.256,299.344 221.581,301.734 206.362,312.599C201.652,315.971 198.084,320.02 195.675,324.694C193.284,329.351 191.982,334.721 191.982,340.84C191.982,347.815 193.588,354.327 196.442,360.375C200.35,368.635 206.648,376.092 214.623,382.639C225.863,392.38 240.636,400.283 257.247,404.957C277.622,410.684 306.561,409.828 329.184,403.013C331.015,404.147 332.853,405.271 334.697,406.385C393.628,450.735 433.647,467.237 481.57,467.237C533.632,467.237 579.307,447.328 604.089,413.057C621.502,388.973 631.529,354.327 630.923,305.356C629.21,168.04 563.891,41.856 485.531,41.856L485.531,41.803ZM364.975,250.283C369.863,259.399 376.982,264.68 385.903,265.643C375.894,277.614 363.726,288.336 349.238,298.113C344.153,277.4 348.703,261.701 364.975,250.283ZM589.351,404.476C567.495,432.627 525.692,450.289 481.552,450.289C372.647,450.289 315.535,342.677 236.747,343.712C257.639,351.811 279.014,365.441 313.537,392.951C286.239,401.372 252.091,393.665 229.307,378.411C214.498,367.796 204.774,354.042 204.774,340.911C204.774,324.32 220.279,314.222 247.933,314.222C272.002,314.222 299.389,321.876 335.268,340.215C354.627,350.099 376.447,363.086 401.568,379.678C388.401,358.145 366.152,338.11 339.8,323.178C369.917,307.158 393.593,284.251 409.079,263.146C414.307,267.909 421.658,270.995 431.185,270.995C437.216,270.995 442.978,269.675 448.563,267.481C481.32,294.402 539.216,271.477 531.669,218.064C536.576,216.922 541.679,216.244 547.067,216.244C562.339,216.244 568.941,219.705 568.958,219.705C563.374,210.089 550.796,204.22 536.986,204.22C489.099,204.22 463.122,249.534 432.934,250.997C415.217,251.853 404.316,237.902 408.062,219.973C400.39,227.519 397.928,238.972 400.658,249.123C383.352,253.334 373.075,239.169 373.075,209.946C373.075,139.478 432.755,58.091 486.369,58.091C552.027,58.091 614.294,180.135 614.294,306.551C614.294,350.473 606.515,382.39 589.351,404.494L589.351,404.476Z" style="fill:rgb(1,1,1);fill-rule:nonzero;"/>
    <path d="M488.974,259.883C480.392,263.451 471.65,262.577 465.334,258.331C478.965,249.161 492.435,236.869 507.761,227.949C510.206,240.437 502.159,254.406 488.974,259.883Z" style="fill:rgb(207,69,32);fill-rule:nonzero;"/>
    <path d="M413.344,188.058C412.648,195.569 408.223,201.295 403.477,200.867C398.731,200.421 395.448,193.981 396.144,186.452C396.84,178.942 401.265,173.215 406.011,173.643C410.757,174.089 414.039,180.529 413.344,188.058ZM426.761,124.743C422.354,122.46 415.966,126.028 412.487,132.736C409.008,139.426 409.757,146.722 414.164,149.006C418.571,151.289 424.959,147.721 428.438,141.013C431.917,134.323 431.167,127.027 426.761,124.743ZM463.782,86.886C460.41,83.229 453.184,84.424 447.635,89.562C442.104,94.682 440.338,101.801 443.71,105.458C447.082,109.115 454.308,107.92 459.857,102.782C465.406,97.662 467.154,90.544 463.782,86.886ZM446.743,182.724C442.265,180.761 436.199,184.793 433.166,191.697C430.133,198.619 431.31,205.809 435.788,207.754C440.267,209.716 446.333,205.684 449.366,198.78C452.399,191.858 451.222,184.668 446.743,182.724ZM482.534,142.066C479.072,138.516 471.882,139.907 466.476,145.17C461.07,150.433 459.482,157.587 462.943,161.137C466.405,164.687 473.595,163.296 479.001,158.033C484.407,152.77 485.995,145.616 482.534,142.066ZM529.832,116.84C527.762,112.291 520.519,111.149 513.649,114.271C506.78,117.393 502.891,123.619 504.961,128.151C507.03,132.7 514.274,133.842 521.143,130.72C528.012,127.598 531.902,121.371 529.832,116.84ZM446.672,388.938C443.567,392.703 445.762,399.643 451.578,404.459C457.395,409.258 464.638,410.115 467.743,406.35C470.847,402.586 468.653,395.646 462.836,390.829C457.02,386.03 449.776,385.174 446.672,388.938ZM416.841,347.496C412.648,350.136 412.487,357.45 416.502,363.837C420.516,370.224 427.171,373.275 431.382,370.634C435.574,367.994 435.735,360.68 431.721,354.293C427.706,347.906 421.051,344.855 416.841,347.496ZM402.246,301.29C397.411,302.556 395.056,309.496 396.965,316.793C398.874,324.089 404.334,328.995 409.169,327.729C414.004,326.462 416.359,319.522 414.45,312.226C412.541,304.929 407.081,300.023 402.246,301.29ZM490.527,353.865C488.225,358.503 491.829,364.997 498.591,368.351C505.353,371.705 512.704,370.652 515.005,366.014C517.307,361.375 513.703,354.882 506.941,351.528C500.179,348.174 492.828,349.226 490.527,353.865ZM534.917,375.237C533.686,380.268 538.628,385.816 545.943,387.618C553.258,389.42 560.216,386.798 561.447,381.767C562.678,376.736 557.736,371.187 550.421,369.386C543.088,367.584 536.148,370.206 534.917,375.237ZM456.556,321.556C453.077,325.088 454.594,332.242 459.964,337.559C465.334,342.857 472.507,344.302 476.004,340.788C479.501,337.255 477.966,330.101 472.596,324.785C467.225,319.487 460.053,318.042 456.556,321.556ZM434.218,283.574C429.812,285.911 429.08,293.208 432.613,299.88C436.127,306.552 442.568,310.067 446.993,307.748C451.4,305.411 452.131,298.114 448.599,291.442C445.084,284.77 438.643,281.255 434.218,283.574ZM532.205,298.56C530.153,293.815 522.856,292.387 515.933,295.384C509.011,298.382 505.068,304.661 507.119,309.425C509.171,314.17 516.468,315.597 523.391,312.6C530.314,309.603 534.257,303.323 532.205,298.56ZM583.785,285.483C582.857,280.327 576.077,277.223 568.655,278.561C561.233,279.899 555.97,285.162 556.898,290.336C557.825,295.492 564.605,298.596 572.027,297.258C579.45,295.92 584.713,290.657 583.785,285.483Z" style="fill:rgb(1,1,1);fill-rule:nonzero;"/>
    <path d="M229.325,378.41C252.108,393.664 286.239,401.371 313.537,392.95C279.014,365.44 257.639,351.811 236.747,343.711C221.492,344.05 211.001,352.417 217.014,367.599C220.511,371.435 224.668,375.074 229.307,378.41L229.325,378.41ZM481.57,450.288C525.692,450.288 567.495,432.627 589.369,404.475C606.533,382.389 614.312,350.472 614.312,306.532C614.312,240.077 597.113,174.836 571.242,127.898C573.236,132.445 575.264,136.977 577.326,141.493C606.319,205.182 623.982,337.503 576.844,395.448C538.931,442.028 435.467,458.655 341.013,391.719C380.604,419.996 423.799,450.288 481.57,450.288ZM526.442,191.499C483.64,192.623 454.022,234.155 430.614,236.652C418.981,237.883 410.524,231.211 408.062,219.972C404.298,237.901 415.217,251.852 432.934,250.996C463.122,249.533 489.099,204.219 536.986,204.219C550.796,204.219 563.374,210.088 568.958,219.704C564.284,205.289 549.475,190.874 526.442,191.481L526.442,191.499ZM400.658,249.122C383.94,253.19 373.789,240.131 373.111,212.925C375.573,234.904 390.435,238.115 400.194,234.743C399.232,239.507 399.391,244.43 400.658,249.122Z" style="fill:rgb(137,115,76);fill-rule:nonzero;"/>
</svg>
