<?xml version="1.0" encoding="UTF-8" standalone="no"?>
<!DOCTYPE svg PUBLIC "-//W3C//DTD SVG 1.1//EN" "http://www.w3.org/Graphics/SVG/1.1/DTD/svg11.dtd">
<svg width="100%" height="100%" viewBox="0 0 960 640" version="1.1" xmlns="http://www.w3.org/2000/svg" xmlns:xlink="http://www.w3.org/1999/xlink" xml:space="preserve" xmlns:serif="http://www.serif.com/" style="fill-rule:evenodd;clip-rule:evenodd;stroke-linejoin:round;stroke-miterlimit:2;">
    <path d="M479.998,10.265C308.937,10.265 170.27,148.942 170.27,320.007C170.27,491.051 308.937,629.738 479.998,629.738C651.053,629.738 789.737,491.051 789.737,320.007C789.737,148.942 651.053,10.265 479.998,10.265Z" style="fill:rgb(255,184,28);fill-rule:nonzero;"/>
    <path d="M479.998,21.77C315.302,21.77 181.768,155.294 181.768,320.007C181.768,484.707 315.302,618.234 479.998,618.234C644.694,618.234 778.23,484.707 778.23,320.007C778.23,155.294 644.695,21.769 480,21.769L479.998,21.77Z" style="fill:rgb(1,1,1);fill-rule:nonzero;"/>
    <g>
        <path d="M619.74,204.049L671.02,152.771C663.619,144.329 655.673,136.38 647.234,128.975L595.624,180.599L619.739,204.049L619.74,204.049ZM496.82,66.668C491.25,66.308 485.66,66.058 479.998,66.058C474.337,66.058 468.743,66.308 463.17,66.668L463.17,148.288L496.82,148.288L496.82,66.668ZM337.55,153.775L312.766,128.975C304.323,136.377 296.376,144.326 288.976,152.771L337.549,201.344L337.549,153.775L337.55,153.775ZM337.55,438.663L288.976,487.236C296.379,495.676 304.326,503.623 312.766,511.026L337.549,486.236L337.549,438.663L337.55,438.663ZM358.948,303.185L226.659,303.185C226.303,308.738 226.057,314.349 226.057,320.007C226.057,325.661 226.303,331.249 226.683,336.825L358.948,336.825L358.948,303.185ZM733.33,303.185L622.306,303.185L605.019,320.007L622.319,336.825L733.327,336.825C733.694,331.249 733.933,325.661 733.933,320.007C733.933,314.349 733.694,308.738 733.33,303.185ZM595.616,459.415L647.227,511.025C655.667,503.621 663.615,495.674 671.02,487.235L619.733,435.958L595.616,459.415ZM463.17,573.336C468.743,573.689 474.337,573.948 479.998,573.948C485.659,573.948 491.25,573.689 496.82,573.336L496.82,491.7L463.17,491.7L463.17,573.336Z" style="fill:rgb(255,184,28);fill-rule:nonzero;"/>
        <path d="M350.579,432.18L350.579,478.685L557.143,478.685L609.418,427.815L609.418,342.457L586.345,320.007L609.418,297.544L609.418,212.185L557.143,161.319L350.58,161.319L350.58,207.807L371.996,228.65L371.996,411.357L350.58,432.18L350.579,432.18Z" style="fill:rgb(255,184,28);fill-rule:nonzero;"/>
    </g>
    <g>
        <path d="M538.745,241.737L524.075,227.475L439.4,227.475L439.4,286.922L524.075,286.922L538.745,272.67L538.745,241.737ZM538.745,367.344L524.075,353.088L439.4,353.088L439.4,412.526L524.075,412.526L538.745,398.28L538.745,367.344Z" style="fill:rgb(1,1,1);fill-rule:nonzero;"/>
        <path d="M361.329,436.723L361.329,467.932L552.765,467.932L598.665,423.279L598.665,346.993L570.917,320.007L598.664,292.994L598.664,216.721L552.765,172.055L361.33,172.055L361.33,203.27L382.739,224.11L382.739,415.893L361.329,436.723ZM428.629,216.721L528.457,216.721L549.478,237.191L549.478,277.216L528.457,297.676L428.63,297.676L428.63,216.72L428.629,216.721ZM428.629,342.335L528.457,342.335L549.478,362.801L549.478,402.809L528.457,423.279L428.63,423.279L428.63,342.335L428.629,342.335Z" style="fill:rgb(1,1,1);fill-rule:nonzero;"/>
    </g>
    <g>
        <path d="M323.496,519.9C359.029,547.788 402.176,566.354 449.308,572.032L449.308,491.702L351.674,491.702L323.496,519.9ZM562.431,491.701L510.682,491.701L510.682,572.032C557.813,566.354 600.971,547.788 636.494,519.9L585.694,469.077L562.431,491.701ZM358.948,350.694L227.96,350.694C233.651,397.832 252.224,440.963 280.106,476.523L358.948,397.653L358.948,350.693L358.948,350.694ZM358.948,242.353L280.106,163.494C252.224,199.034 233.651,242.175 227.959,289.32L358.948,289.32L358.948,242.353ZM585.695,170.913L636.504,120.097C600.971,92.219 557.814,73.649 510.682,67.968L510.682,148.288L562.431,148.288L585.695,170.913ZM622.45,419.06L679.904,476.523C707.776,440.963 726.339,397.833 732.037,350.693L622.451,350.693L622.451,419.059L622.45,419.06ZM449.308,148.289L449.308,67.968C402.176,73.649 359.028,92.219 323.492,120.098L351.677,148.288L449.307,148.288L449.308,148.289ZM622.45,289.32L732.037,289.32C726.342,242.175 707.776,199.034 679.904,163.491L622.451,220.955L622.451,289.32L622.45,289.32ZM452.416,240.505L452.416,273.892L518.788,273.892L525.705,267.16L525.705,247.23L518.788,240.505L452.416,240.505ZM452.416,366.122L452.416,399.486L518.788,399.486L525.705,392.757L525.705,372.847L518.788,366.122L452.416,366.122Z" style="fill:white;fill-rule:nonzero;"/>
    </g>
</svg>
