<svg xmlns="http://www.w3.org/2000/svg" viewBox="0 0 960 640"><path d="M492.238 639.162c17.273-34.637 26.325-68.21 28.634-105.942 8.728 4.25 18.75 8.174 30.942 11.962l83.867 26.093v-43.827l103.032-30.25-62.67-61.884 123.77-62.577-44.52-38.978 56.71-118.689-132.264 12.886-14.132-59.345-74.308 64.517 23.369-132.173-67.75 23.69L480.047 0 413.36 124.692l-67.843-23.69 23.369 132.172-74.169-64.285-14.363 59.113-132.358-12.932 56.712 118.827-44.75 38.655 124.091 62.67-62.807 62.207 103.17 29.926v43.92l83.729-26.093c13.439-4.25 24.245-8.268 33.574-12.747-4.157 22.999-13.116 42.534-29.557 66.364 13.809 29.695 44.75 45.073 80.034 40.363" fill="#ddcba4"/><path d="M485.357 629.234c-26.461 1.708-48.86-9.33-60.821-29.789 19.212-29.094 28.079-54.31 30.25-86.5-12.516 8.5-26.787 14.826-49.785 22.077l-69.92 21.844v-33.944c0-2.864-.693-3.695-3.326-4.48l-90.147-26.231 57.173-56.574c1.71-1.616 1.386-4.156-.785-5.31L178.94 370.15l34.867-30.158c3.233-2.862 3.557-4.71 1.386-9.19l-49.6-103.402 116.98 11.408c4.71.461 6.096-.462 7.019-4.387l11.27-46.23 83.635 72.46-25.4-143.673 51.308 17.92c6.42 2.309 8.729 1.385 11.87-4.48l57.865-108.02 57.959 108.112c3.002 5.635 5.403 6.558 11.638 4.387l51.4-17.919-25.4 143.766 83.728-72.691 11.038 46.46c.925 3.925 2.31 4.71 7.113 4.248l116.84-11.406-49.46 103.494c-2.079 4.387-1.848 6.234 1.477 9.19l34.637 30.25-118.92 60.128c-2.17 1.155-2.54 3.695-.784 5.312l57.173 56.342-90.055 26.323c-2.633.785-3.326 1.617-3.326 4.48v33.944l-70.058-21.844c-19.535-6.096-32.558-11.961-44.15-19.535-.23 41.656-8.174 77.078-25.539 113.747" fill="#010101"/><path d="M473.72 610.944c17.595-40.363 22.675-82.112 16.902-137.438 22.676 24.846 37.824 34.498 69.69 44.382l46.828 14.593v-9.56c0-12.423 4.48-18.289 16.35-21.752l60.728-17.733-38.423-37.962c-10.021-9.79-8.405-22.768 3.325-28.634l100.076-50.615-14.362-12.516c-9.56-8.405-11.73-18.842-6.096-30.573l35.791-74.86-85.345 8.266c-14.362 1.386-22.906-4.387-26.093-17.826l-4.248-17.827-72.553 62.9c-11.176 9.652-23.599 3.233-21.06-10.806l22.908-129.034-22.537 7.806c-14.501 5.08-26.232.461-33.344-12.886l-42.118-78.555-42.072 78.555c-7.25 13.44-18.98 17.966-33.483 12.886l-22.444-7.806 22.907 129.034c2.54 14.039-10.115 20.458-21.151 10.806l-72.46-62.9-4.388 17.827c-3.325 13.439-11.73 19.212-26 17.826l-85.438-8.266 35.792 74.86c5.634 11.731 3.555 22.306-6.005 30.573l-14.5 12.516 100.077 50.615c11.73 5.866 13.347 18.843 3.325 28.634l-38.424 37.962 60.822 17.733c11.87 3.464 16.35 9.33 16.35 21.752v9.56l46.689-14.593c34.175-10.715 49.553-19.998 72.783-44.15 3.325 51.169-4.71 89.5-26.092 124.553 5.171 6.788 16.902 12.191 27.385 12.653" fill="#c8102e"/><path d="M435.434 442.103c19.674 0 32.559 6.558 35.791 17.964-8.96-8.174-29.695-11.868-44.981-7.943-4.157 1.015-5.172 1.94-9.79 8.728-14.27 21.383-26.463 33.482-40.272 39.948 12.562-12.884 22.444-26.832 33.62-46.736-33.851 7.574-59.482 17.595-90.101 18.287 49.97-14.823 85.761-30.248 115.78-30.248m-18.104-239.825c3.695 34.082 20.043 68.119 50.616 102.987l-.463-11.638c-.092-3.926-.553-4.942-3.094-8.037-19.673-22.306-33.944-48.352-47.06-83.312Zm29.002-34.498c.461 19.35 6.466 35.884 21.844 58.698v-10.946c0-3.001-.23-4.156-2.078-6.465-9.56-14.825-15.425-26.924-19.812-41.333m31.08 148.014c41.657-43.042 61.931-78.833 65.58-113.47-13.485 35.006-30.388 61.792-56.85 89.64-.786-15.425-1.017-30.943-1.017-51.078 0-12.1.462-12.884 4.942-19.812 14.824-22.076 20.135-36.576 20.828-55.373-5.08 16.673-15.517 35.791-26.37 48.215-.785-58.928-2.078-84.237-4.48-101.047-4.849 32.235-6.096 164.225-2.632 202.879m12.7 144.365c9.56-8.867 28.31-11.868 43.504-8.036 4.71 1.155 5.865 2.171 10.345 8.96 13.577 20.735 25.908 32.928 40.04 39.809-12.424-12.793-22.446-26.693-33.482-46.506 33.482 7.25 59.39 17.365 90.008 18.057-50.615-15.193-85.391-30.248-115.871-30.248-19.58 0-31.312 6.096-34.544 17.964ZM273.52 298.337c-23.97-16.164-36.993-23.876-46.275-27.802 6.326 7.113 17.826 16.903 41.101 34.914l5.173-7.065v-.047Zm404.417 5.912 6.974 6.511c27.94-21.428 41.101-32.466 48.029-40.225-10.345 4.387-25.355 13.485-55.003 33.714Z" fill="#a6192e"/><path d="m261.927 333.62 36.623-49.97 20.874-3.185 20.735 15.193 3.234 20.828-10.345 14.132-15.656-7.112 8.267-11.315-1.155-7.48-9.005-6.605-7.482 1.155-28.403 38.747 1.155 7.48 9.007 6.605 7.48-1.155L305.8 339.3l11.407 12.931-10.483 14.27-20.828 3.234-20.736-15.195-3.233-20.874v-.046Zm104.834-22.722 29.003 12.1-17.689 92.042-16.025-6.697 4.11-20.782-24.476-10.206-11.868 17.549-15.933-6.65 52.924-77.402-.046.046Zm2.54 60.5 7.574-38.332-4.018-1.663-21.936 32.374 18.427 7.666-.047-.045Zm44.474-41.518 21.66 2.956 14.5 62.068 7.99-59.02 16.394 2.215-12.33 90.98-20.32-2.77-15.379-65.81-8.498 62.577-16.395-2.218 12.331-90.978h.047Zm79.941 6.418 31.219-3.785 29.973 88.854-17.273 2.077-6.65-20.088-26.324 3.186-1.71 21.106-17.132 2.078 7.897-93.427Zm32.05 51.355-12.33-37.084-4.341.508-3.14 38.978 19.811-2.402Zm18.427-58.42 38.33-14.917 19.306 8.498 22.444 57.774-8.497 19.304-38.332 14.917-33.297-85.575h.046Zm58.79 57.913 3.048-6.928-17.411-44.796-6.926-3.05-15.841 6.144 21.29 54.771 15.84-6.141Zm7.99-87.7 25.723-18.058 68.396 64.147-14.224 9.975-15.379-14.547-21.706 15.24 8.497 19.397-14.13 9.929-37.178-86.084Zm52.462 30.11-28.4-26.878-3.558 2.54 15.657 35.837 16.301-11.453v-.045Z" fill="#ddcba4"/></svg>