<?xml version="1.0" encoding="UTF-8" standalone="no"?>
<!DOCTYPE svg PUBLIC "-//W3C//DTD SVG 1.1//EN" "http://www.w3.org/Graphics/SVG/1.1/DTD/svg11.dtd">
<svg width="100%" height="100%" viewBox="0 0 960 640" version="1.1" xmlns="http://www.w3.org/2000/svg" xmlns:xlink="http://www.w3.org/1999/xlink" xml:space="preserve" xmlns:serif="http://www.serif.com/" style="fill-rule:evenodd;clip-rule:evenodd;stroke-linejoin:round;stroke-miterlimit:2;">
    <path d="M807.957,408.157C807.957,384.02 831.659,294.25 659.386,158.665L688.343,152.225L673.441,103.05L644.691,122.212L644.691,92.406L588.274,92.406C551.536,65.934 533.822,32 475.813,32C451.609,32 426.179,36.816 420.651,36.816C416.416,36.816 403.513,34.086 381.562,34.086C318.234,34.086 312.422,81.309 320.336,97.904C237.058,154.938 195.801,196.087 195.801,210.906C195.801,216.641 199.177,224.101 199.177,234.845C199.177,258.275 148.582,309.87 148.582,337.177C148.582,362.692 181.067,364.417 181.067,364.417C182.888,371.954 170.315,396.903 181.615,409.673C166.003,426.645 184.218,435.116 184.218,448.629C184.218,457.801 177.879,460.592 177.879,477.474C177.879,496.718 186.934,519.986 234.444,519.986C253.224,519.986 269.864,517.036 283.088,517.036C286.748,556.904 303.783,572.583 306.584,582.601C308.839,590.627 314.074,608 324.647,608C338.429,608 414.482,583.043 472.247,548.004C501.223,558.783 538.02,555.226 551.385,555.226C565.967,555.226 572.022,564.141 580.597,564.141C585.775,564.141 625.052,520.315 622.553,424.325C647.153,465.968 661.753,493.058 663.215,508.555C695.078,497.17 721.923,421.672 710.245,373.625C710.245,373.625 750.465,438.927 811.418,429.277C811.418,429.277 807.957,417.37 807.957,408.157Z" style="fill:rgb(1,1,1);fill-rule:nonzero;"/>
    <g>
        <path d="M772.179,285.93C731.941,221.21 661.612,166.786 645.408,154.734C645.199,158.446 644.134,161.924 642.37,164.959C641.407,166.641 640.234,168.195 638.88,169.582C637.383,171.123 635.674,172.443 633.805,173.502C636.598,184.655 640.87,200.646 646.558,219.205C654.99,239.825 664.518,265.188 672.468,291.628C681.657,313.498 692.248,335.308 704.285,354.676C754.115,434.838 804.004,423.816 804.004,423.816C795.459,410.031 820.568,363.786 772.179,285.931L772.179,285.93ZM635.135,101.79L598.123,101.79L621.77,127.395L635.135,127.395L635.135,101.79Z" style="fill:rgb(255,103,32);fill-rule:nonzero;"/>
    </g>
    <path d="M704.586,364.609C703.001,362.221 701.457,359.805 699.955,357.364C693.097,346.354 686.712,334.556 680.778,322.404C678.365,312.133 675.544,301.805 672.468,291.628C664.518,265.188 654.99,239.825 646.558,219.205C640.87,200.646 636.598,184.655 633.805,173.501C631.858,174.619 629.758,175.445 627.571,175.953C625.882,176.345 624.146,176.576 622.355,176.576C620.704,176.576 619.09,176.392 617.544,176.066C615.434,175.613 613.396,174.873 611.488,173.865C604.358,339.405 620.751,368.058 623.761,415.296C665.574,481.218 667.055,500.454 667.055,500.454C667.055,500.454 715.867,466.23 704.586,364.609Z" style="fill:rgb(255,209,0);fill-rule:nonzero;"/>
    <path d="M686.343,350.233C684.91,341.102 683.005,331.78 680.778,322.405C678.365,312.133 675.544,301.805 672.468,291.628C664.518,265.188 654.99,239.826 646.558,219.206C638.278,199.025 631.107,183.447 627.571,175.953C625.882,176.345 624.146,176.576 622.355,176.576C620.704,176.576 619.09,176.392 617.544,176.066C615.978,193.906 610.348,270.061 621.194,338.65C636.729,437.038 674.025,472.648 674.025,472.648C674.025,472.648 699.821,435.484 686.343,350.232L686.343,350.233ZM685.796,388.831L656.235,372.869C655.321,367.156 652.915,351.931 649.915,332.931L682.174,351.363C684.326,365.136 685.439,377.605 685.796,388.831ZM673.25,310.077C676.478,322.115 679.232,334.177 681.269,345.912L649.067,327.491C647.264,316.138 645.466,304.784 643.673,293.43L673.25,310.077ZM635.05,203.01C645.86,228.054 660.895,265.708 671.648,304.244L642.822,288.024C636.446,247.569 629.768,205.369 629.768,205.369C629.004,200.51 633.805,199.849 635.051,203.009L635.05,203.01ZM619.828,208.103C620.034,202.789 624.938,202.354 625.522,206.043L638.408,287.601L621.317,303.461C618.289,267.783 618.752,232.872 619.827,208.103L619.828,208.103ZM625.42,337.981C623.911,328.388 622.732,318.634 621.808,308.879L639.21,292.709L644.804,328.105L626.768,345.969C626.293,343.311 625.843,340.648 625.42,337.981ZM627.693,351.081L645.623,333.33L651.992,373.635L637.466,391.357C633.862,379.489 630.531,366.107 627.693,351.081ZM638.993,396.263L653.103,379.068C655.443,388.669 662.838,418.956 663.149,420.277C662.611,421.259 657.48,430.56 654.735,435.519C649.558,425.144 644.086,412.163 638.993,396.263ZM673.194,465.193C669.563,460.705 663.686,452.571 657.104,440.143L666.046,423.919L682.06,437.611C679.289,451.006 675.647,460.099 673.194,465.192L673.194,465.193ZM682.986,432.746L667.366,419.39C664.022,405.715 660.686,392.039 657.358,378.36L685.901,393.773C686.08,409.203 684.835,422.163 682.986,432.746Z" style="fill:rgb(0,24,113);fill-rule:nonzero;"/>
    <path d="M599.273,151.755C515.24,214.621 470.02,308.383 456.335,340.477C456.335,340.477 454.515,344.25 456.627,348.362L483.244,400.139C484.358,402.297 486.744,402.742 488.546,401.108L532.33,361.568C535.35,358.845 536.321,354.455 536.321,354.455C556.272,240.279 583.257,184.439 599.943,159.14C599.471,157.305 599.187,155.406 599.187,153.434C599.187,152.862 599.245,152.305 599.273,151.755Z" style="fill:rgb(200,16,46);fill-rule:nonzero;"/>
    <g>
        <path d="M668.97,118.254L646.444,133.271L651.632,150.419L677.005,144.769L668.97,118.254ZM607.035,170.742C605.377,169.276 603.936,167.582 602.754,165.71C575.815,208.869 541.537,316.836 541.537,409.298C541.537,503.848 570.477,554.085 580.937,554.085C589.001,554.085 617.337,503.415 617.337,438.218C617.337,420.436 602.395,348.948 602.395,214.749C602.395,185.948 604.602,178.256 607.035,170.742ZM462.909,343.365L486.744,394.845L530.144,354.648C530.144,354.648 551.091,232.66 588.38,165.37C489.998,260.877 462.909,343.365 462.909,343.365ZM536.963,300.305C536.5,302.282 536.048,304.225 535.603,306.131C529.774,331.526 526.351,350.289 526.011,352.214C525.974,352.317 525.974,352.363 525.974,352.363L522.984,355.136L488.224,387.34L467.729,343.062C467.729,343.062 468.418,340.891 470.086,336.817C470.699,335.291 471.444,333.517 472.322,331.479C476.462,322.012 483.697,307.079 495.319,287.912C496.527,285.902 497.808,283.852 499.119,281.757C515.449,255.705 539.425,222.724 573.843,185.602C558.269,217.522 545.423,264.382 536.963,300.306L536.963,300.305ZM622.355,135.884C612.657,135.884 604.8,143.742 604.8,153.434C604.8,163.126 612.657,170.972 622.355,170.972C632.032,170.972 639.872,163.126 639.872,153.434C639.872,143.742 632.032,135.884 622.355,135.884Z" style="fill:rgb(0,132,61);fill-rule:nonzero;"/>
    </g>
    <path d="M596.132,188.759C596.132,188.759 548.27,289.633 548.27,407.165C548.27,485.002 572.371,544.465 579.06,544.465C584.323,544.465 608.95,507.442 608.95,430.171C608.95,398.903 592.038,280.304 596.132,188.759ZM575.72,256.696C576.57,253.602 580.937,252.781 580.342,258.043C577.154,285.006 575.003,309.398 573.608,331.169L556.742,344.175C561.194,311.238 568.438,281.256 575.72,256.696ZM555.978,350.12L573.268,336.779C572.099,356.439 571.543,373.84 571.381,388.962L552.403,401.958C552.611,384.189 553.933,366.793 555.978,350.12ZM552.356,407.337L571.344,394.338C571.23,418.84 572.128,436.887 572.976,448.198L555.876,458.84C553.541,441.772 552.365,424.564 552.356,407.337ZM598.632,491.964C596.415,493.521 589.472,495.944 578.342,477.474C571.862,497.096 564.128,491.622 561.261,488.614C559.535,481.013 557.949,472.686 556.591,463.74L575.815,451.782L602.489,469.505C601.542,477.046 600.255,484.539 598.632,491.964ZM604.866,430.171C604.866,442.689 604.207,454.159 603.075,464.552L578.73,448.367C577.919,437.709 577.023,420.634 577.06,397.357L604.338,416.185C604.678,421.655 604.866,426.368 604.866,430.171ZM603.961,410.571L577.08,392.018C577.193,376.998 577.681,359.618 578.824,339.894L598.999,354.797C600.999,376.359 602.885,395.695 603.961,410.57L603.961,410.571ZM598.472,349.053L579.116,334.763C580.512,312.073 582.739,286.427 586.115,257.899C587.049,249.88 591.821,253.959 591.972,258.242C593.17,288.666 595.868,320.565 598.472,349.053Z" style="fill:rgb(255,209,0);fill-rule:nonzero;"/>
    <path d="M553.761,168.001C559.629,168.001 558.865,160.149 553.431,160.149C469.303,160.149 421.141,170.831 413.738,172.605C409.086,131.361 385.391,118.237 385.391,91.556C385.391,81.199 392.233,79.092 397.843,79.092C417.483,79.092 432.206,102.122 459.495,102.122C484.858,102.122 490.309,84.162 504.752,84.162C526.445,84.162 516.9,141.84 555.365,141.84C567.524,141.84 575.495,136.974 575.495,136.974C580.662,134.094 575.72,127.904 571.296,130.224C571.296,130.224 563.571,134.196 556.016,134.196C523.521,134.196 537.708,76.3 503.902,76.3C487.717,76.3 482.32,94.122 458.985,94.122C432.923,94.122 422.576,70.772 396.731,70.772C382.072,70.772 376.828,80.595 376.828,90.443C376.828,119.962 405.974,142.435 405.974,182.928C405.974,224.083 391.92,260.335 391.92,317.53C391.92,384.225 455.269,403.865 455.269,466.025C455.269,501.187 468.756,522.947 483.867,522.947C492.178,522.947 499.941,518.064 503.581,505.14C505.751,506.075 507.75,506.582 509.449,506.582C513.656,506.582 529.407,501.963 529.407,483.454C529.407,430.464 438.365,403.034 438.365,319.991C438.365,280.064 444.77,216.178 454.571,216.178C459.701,216.178 466.115,238.538 478.377,238.538C493.565,238.538 488.253,194.411 495.045,194.411C500.459,194.411 508.553,215.012 518.23,215.012C526.067,215.012 528.672,199.044 532.077,186.47C533.312,180.632 525.012,178.976 523.842,184.918C521.748,194.256 517.314,206.605 517.314,206.605C512.391,201.661 504.354,186.555 494.638,186.555C479.188,186.555 481.442,230.6 478,230.6C471.51,230.6 467.436,207.746 453.363,207.746C435.253,207.746 429.877,270.764 429.877,320.396C429.877,407.676 520.974,436.868 520.974,482.624C520.974,494.135 512.617,498.057 509.279,498.057C507.921,498.057 506.524,497.754 505.137,497.227C505.544,494.05 505.759,490.55 505.759,486.682C505.759,459.706 490.922,454.648 484.877,454.648C478.839,454.648 475.472,459.893 475.472,468.562C475.472,480.191 485.734,493.133 495.772,500.529C494.281,507.789 491.092,514.461 484.32,514.461C471.209,514.461 463.806,484.089 463.806,465.968C463.806,400.411 400.466,381.378 400.466,315.854C400.466,260.04 414.521,224.253 414.521,187.122C414.521,184.81 414.464,182.599 414.369,180.429C423.085,178.34 477.369,166.189 553.761,168.001ZM483.998,469.063C483.998,464.496 485.168,462.789 486.386,462.789C493.752,462.789 497.091,477.598 497.091,483.511C497.091,485.097 497.1,488.078 496.884,491.588C489.754,484.691 483.998,474.1 483.998,469.063Z" style="fill:rgb(255,209,0);fill-rule:nonzero;"/>
    <g>
        <path d="M424.8,467.724C439.507,445.054 431.12,406.014 403.069,416.844C386.864,390.357 368.509,354.568 368.509,310.272C368.509,263.09 378.148,250.697 378.148,209.039C378.148,138.016 345.305,123.939 324.176,109.649C273.995,143.652 207.366,190.243 207.366,215.012C207.366,222.352 210.61,229.166 210.61,236.372C210.61,262 160.664,311.809 160.664,335.915C160.664,344.949 167.881,352.543 179.482,352.543C191.085,352.543 220.626,348.243 231.728,347.053C242.831,345.856 244.058,340.533 244.058,337.658C244.058,330.459 232.644,320.452 224.023,320.452C216.836,320.452 216.176,324.69 216.176,325.756C216.176,330.48 222.985,331.85 222.985,331.85C231.568,330.652 231.625,338.226 223.409,338.226C216.627,338.226 209.1,333.245 209.1,324.633C209.1,316.007 216.025,313.855 221.156,313.855C242.718,313.855 255.122,333.348 251.556,345.753C278.296,359.033 277.532,378.559 273.184,378.559C263.92,378.559 270.354,353.967 235.491,353.967C225.702,353.967 205.27,356.909 200.451,357.4C195.649,357.87 194.196,358.57 193.631,362.55C193.047,366.513 187.971,380.89 187.971,389.733C187.971,402.827 196.686,403.696 202.291,403.696C216.948,403.696 241.793,400.177 241.793,394.3C241.793,390.545 235.491,391.612 233.171,391.612C228.795,391.612 226.806,388.887 226.806,387.322C226.806,383.432 233.097,381.537 240.641,381.537C253.131,381.537 254.441,389.658 253.811,393.472C252.423,401.874 265.988,399.848 265.988,417.674C265.988,419.652 265.809,424.769 261.563,424.769C257.281,424.769 257.224,419.429 257.224,416.437C257.224,413.428 252.339,408.771 248.169,408.771C243.736,408.771 227.701,417.051 193.141,413.883C179.521,430.991 195.611,432.227 195.611,449.526C195.611,468.903 189.746,467.569 189.746,479.391C189.746,502.865 215.494,508.997 241.141,508.997C294.332,508.997 354.265,496.615 375.376,458.582C368.112,492.246 341.022,504.317 294.973,514.772C300.18,552.049 307.915,560.705 313.537,570.764C319.167,580.81 320.384,594.986 330.279,594.986C342.136,594.986 412.087,569.754 459.154,541.399L424.8,467.724ZM294.341,146.369L319.272,127.734C320.618,126.738 322.459,126.708 323.837,127.659C342.117,140.441 352.276,152.946 352.7,153.476C353.229,154.158 353.516,154.997 353.516,155.86C353.516,157.994 351.76,159.75 349.626,159.75C348.471,159.75 347.374,159.235 346.635,158.347C346.55,158.234 337.553,147.203 321.666,135.662C320.478,136.529 318.28,138.192 315.706,140.115C323.544,146.749 345.249,165.705 359.68,183.635C361.025,185.291 360.77,187.761 359.115,189.107C357.416,190.451 354.982,190.183 353.643,188.517C338.844,170.143 315.347,149.986 309.303,144.892C306.925,146.67 304.67,148.354 303.008,149.594C317.233,161.324 327.467,173.449 327.929,174.001C329.572,175.893 328.724,178.471 327.45,179.476C326.752,180.065 325.867,180.388 324.954,180.388C323.81,180.388 322.723,179.881 321.988,179.005C321.866,178.855 309.858,164.644 294.285,152.547C292.493,151.029 292.029,148.086 294.341,146.369ZM241.661,279.762C237.397,279.762 240.209,269.258 240.171,265.349C216.363,265.005 213.713,256.464 241.113,256.234C240.303,252.691 237.463,238.609 241.756,231.03L228.381,225.833C217.495,221.473 238.228,214.292 235.228,207.797C235.228,207.797 229.041,203.09 229.041,197.79C229.041,192.493 237.303,186.215 253.252,186.215C283.012,186.215 290.795,211.651 314.536,211.651C319.148,211.651 331.552,209.141 331.552,214.198C331.552,219.253 321.544,224.525 312.528,224.525C291.766,224.525 276.089,208.897 265.638,208.897C264.667,208.897 262.678,209.227 261.884,211.164L259.074,217.635C256.988,222.389 260.169,224.275 260.169,224.275L296.879,245.871C304.576,250.402 300.501,254.026 296.595,255.167C296.595,255.167 274.072,262.039 254.103,264.501C251.933,274.485 246.159,279.761 241.661,279.761L241.661,279.762ZM358.341,393.999C307.961,379.096 339.984,316.818 363.31,323.027C332.779,350.721 348.18,382.869 358.34,393.999L358.341,393.999Z" style="fill:rgb(204,138,0);fill-rule:nonzero;"/>
        <path d="M254.271,206.279L239.397,210.236C236.265,211.065 236.096,212.91 239.001,214.32L250.321,219.805C251.491,220.381 252.867,219.865 253.375,218.673L257.281,209.773C258.451,207.093 257.084,205.524 254.271,206.279Z" style="fill:rgb(204,138,0);fill-rule:nonzero;"/>
    </g>
    <g>
        <path d="M415.105,420.447C405.05,417.514 393.146,428.049 388.495,443.982C383.865,459.901 388.259,475.194 398.315,478.116C408.388,481.041 420.312,470.515 424.942,454.583C429.574,438.65 425.179,423.379 415.105,420.447ZM416.841,452.224C413.897,462.327 406.974,469.214 401.389,467.58C395.796,465.968 393.656,456.439 396.598,446.331C399.541,436.226 406.465,429.351 412.039,430.973C417.633,432.597 419.782,442.122 416.841,452.224ZM233.135,427.447C228.267,420.577 225.578,426.794 220.362,429.464C215.157,432.142 208.542,430.691 211.271,438.65C214.221,447.226 207.97,464.779 210.723,470.155C212.893,474.418 217.703,476.135 221.607,474.138C225.107,472.334 226.778,469.232 227.455,465.618C229.313,455.828 223.7,442.302 226.268,440.991C228.852,439.67 236.538,452.129 245.566,456.339C248.887,457.886 252.396,458.346 255.894,456.565C259.799,454.563 261.224,449.659 259.036,445.406C256.281,440.03 238.379,434.838 233.135,427.447ZM304.311,310.887C301.641,311.597 297.501,313.96 290.766,315.732C284.05,317.505 275.561,317.553 274.203,312.412C274.088,311.966 274.088,311.484 274.146,310.984C274.685,306.837 280.776,301.272 280.776,301.272C280.776,301.272 272.73,299.437 270.223,296.076C269.921,295.685 269.676,295.26 269.553,294.806C268.194,289.68 275.618,285.525 282.334,283.753C289.068,281.983 293.85,281.993 296.501,281.296C301.953,279.86 306.556,276.282 305.405,271.928C303.292,263.929 292.824,265.897 287.031,267.423C258.261,275.007 251.885,286.817 254.028,294.986C256.188,303.158 265.525,305.286 265.525,305.286C265.525,305.286 258.452,311.742 260.601,319.916C262.752,328.082 274.128,335.214 302.898,327.632C308.688,326.103 318.781,322.652 316.668,314.649C315.518,310.3 309.762,309.449 304.311,310.887ZM622.355,142.204C616.149,142.204 611.111,147.222 611.111,153.434C611.111,159.64 616.148,164.658 622.355,164.658C628.544,164.658 633.569,159.64 633.569,153.434C633.569,147.222 628.544,142.204 622.355,142.204Z" style="fill:rgb(200,16,46);fill-rule:nonzero;"/>
    </g>
    <g>
        <path d="M257.697,237.227C255.621,244.764 257.084,253.473 257.564,255.789C281.089,254.379 290.69,250.031 290.69,250.031L257.697,237.227ZM226.268,440.99C223.7,442.302 229.313,455.827 227.455,465.619C229.022,470.042 235.548,486.227 246.547,480.589C257.564,474.948 248.264,460.196 245.566,456.339C236.539,452.129 228.852,439.67 226.268,440.991L226.268,440.99ZM318.47,278.324C309.377,280.714 301.086,289.822 284.56,294.184C278.523,295.779 273.383,296.076 270.224,296.076C272.73,299.437 280.777,301.272 280.777,301.272C280.777,301.272 274.685,306.837 274.147,310.984C276.9,309.421 281.524,307.159 287.587,305.569C304.084,301.21 315.781,305.059 324.894,302.651C329.137,301.523 337.024,299.343 333.835,287.275C330.647,275.211 322.724,277.197 318.469,278.324L318.47,278.324ZM546.292,226.491C545.288,225.984 544.046,226.391 543.536,227.393C536.289,241.773 529.46,256.36 523.058,271.135L499.118,281.757C497.833,283.797 496.566,285.849 495.318,287.912L520.682,276.664C514.089,292.162 508.656,306.258 504.262,318.51L472.322,331.48C471.555,333.25 470.81,335.029 470.086,336.817L502.43,323.67C492.516,351.947 488.471,369.227 488.394,369.55C488.358,369.701 488.341,369.856 488.341,370.011C488.341,370.955 489.002,371.779 489.924,371.982C491.018,372.244 492.13,371.568 492.375,370.474C492.451,370.153 496.337,353.553 505.845,326.294L522.985,355.136L525.974,352.363C525.974,352.363 525.974,352.317 526.011,352.214L507.628,321.256C512.197,308.461 517.107,295.789 522.352,283.256L535.603,306.131C536.048,304.225 536.5,302.282 536.963,300.306L524.332,278.536C531.417,261.861 539.042,245.421 547.196,229.242C547.342,228.955 547.418,228.638 547.418,228.316C547.418,227.545 546.981,226.837 546.292,226.492L546.292,226.491ZM757.266,290.553C725.443,239.343 657.783,178.5 642.37,164.959C641.407,166.641 640.234,168.195 638.88,169.582C648.633,197.101 686.306,300.315 720.998,356.136C754.938,410.729 788.138,408.072 788.138,408.072C788.138,408.072 799.279,358.135 757.266,290.552L757.266,290.553ZM777.198,342.677L749.354,337.593L716.377,284.554L755.956,296.249C766.029,313.072 772.746,328.724 777.198,342.677ZM752.729,291.033L713.132,279.333L682.608,230.246L710.169,237.085C726.14,254.625 741.571,273.414 752.729,291.033ZM644.05,171.926C656.094,182.703 680.779,205.426 705.135,231.613L679.534,225.258L663.046,198.746C662.676,198.148 662.022,197.783 661.319,197.783C660.936,197.783 660.56,197.892 660.236,198.096C659.637,198.466 659.271,199.122 659.271,199.826C659.271,200.21 659.381,200.587 659.586,200.912L676.819,228.652L673.271,248.053C660.086,215.98 649.446,186.976 644.051,171.926L644.05,171.926ZM676.158,255.026L680.044,233.816L710.02,282.068L700.163,308.828C691.759,291.408 683.61,272.866 676.158,255.026ZM724.49,353.977C717.226,342.32 709.852,328.594 702.644,313.923L712.756,286.483L745.789,339.621L735.649,369.965C731.959,365.305 728.226,360.003 724.49,353.977ZM784.65,403.798C777.5,402.901 759.276,398.148 738.687,373.719L748.599,344.129L764.257,369.322C764.849,370.272 766.115,370.569 767.068,369.982C768.029,369.379 768.332,368.114 767.72,367.161L752.268,342.281L778.538,347.079C786.819,375.49 785.592,396.109 784.65,403.799L784.65,403.798Z" style="fill:white;fill-rule:nonzero;"/>
    </g>
</svg>
