<?xml version="1.0" encoding="UTF-8" standalone="no"?>
<!DOCTYPE svg PUBLIC "-//W3C//DTD SVG 1.1//EN" "http://www.w3.org/Graphics/SVG/1.1/DTD/svg11.dtd">
<svg width="100%" height="100%" viewBox="0 0 960 640" version="1.1" xmlns="http://www.w3.org/2000/svg" xmlns:xlink="http://www.w3.org/1999/xlink" xml:space="preserve" xmlns:serif="http://www.serif.com/" style="fill-rule:evenodd;clip-rule:evenodd;stroke-linejoin:round;stroke-miterlimit:2;">
    <path d="M614.283,388.965C617.699,383.096 620.811,377.155 623.541,371.229L869.456,239.529L610.698,239.529C591.299,219.198 563.246,206.816 528.757,203.321L508.255,0L386.097,202.282L320.344,202.282L298.08,239.53L90.544,239.53L230.651,352.404L143.668,497.985L207.498,497.985L121.716,640L386.902,497.97C394.76,497.912 402.616,497.686 410.464,497.292L571.434,626.996L554.164,455.498C578.224,438.805 597.939,416.964 614.282,388.965L614.283,388.965Z" style="fill:rgb(0,99,65);fill-rule:nonzero;"/>
    <path d="M613.166,361.568L815.957,252.958L604.707,252.958C585.699,230.287 555.367,217.558 516.536,215.896L498.935,41.4L393.678,215.698L327.953,215.698L305.705,252.958L128.605,252.958L248.168,349.27L167.33,484.54L231.287,484.54L158.505,605.064L383.523,484.54C393.98,484.538 404.434,484.229 414.873,483.613L554.866,596.388L540.001,448.778C565.381,432.738 585.918,410.922 602.679,382.203C606.681,375.345 610.21,368.421 613.166,361.568Z" style="fill:rgb(1,1,1);fill-rule:nonzero;"/>
    <g>
        <path d="M595.7,292.278C595.7,292.278 593.662,285.631 590.698,279.804L549.484,299.937C552.164,306.938 556.004,323.671 545.771,348.541C534.096,376.865 499.337,426.961 404.533,426.961L277.332,426.961L214.668,457.686L326.948,457.686L312.564,461.576L232.066,535.202L376.791,457.686L382.829,457.686C397.397,457.686 410.912,457.131 423.486,456.053L448.951,452.98C453.88,452.18 458.633,451.28 463.243,450.298C510.554,440.194 541.063,420.094 563.303,392.387C569.221,385.004 574.575,377.092 579.483,368.669C586.392,356.809 591.265,345.472 594.292,334.766C598.726,319.031 599.107,304.683 595.699,292.278L595.7,292.278ZM302.705,310.32L204.747,279.811L204.74,279.804L283.187,343.004L302.705,310.32ZM452.254,242.556L492.231,242.556L480.293,124.216L452.254,242.556ZM604.7,305.842C605.662,307.721 606.54,309.642 607.331,311.599C607.495,312.002 607.629,312.419 607.784,312.822C608.375,314.347 608.916,315.892 609.404,317.453C609.574,318.033 609.729,318.607 609.906,319.187C610.333,320.74 610.719,322.303 611.066,323.875C611.172,324.398 611.299,324.908 611.406,325.438C611.829,327.566 612.169,329.738 612.452,331.993L612.459,331.987L675.15,298.084L708.933,279.804L604.7,305.842ZM513.15,452.73C510.285,453.037 507.436,453.27 504.606,453.46C504.401,453.473 504.189,453.488 503.984,453.496C501.24,453.686 498.504,453.814 495.816,453.91C495.582,453.927 495.356,453.933 495.123,453.938C492.4,454.032 489.728,454.088 487.111,454.108L486.764,454.108C484.076,454.125 481.44,454.117 478.894,454.08L478.894,454.088L521.713,535.202L513.15,452.731L513.15,452.73Z" style="fill:rgb(162,170,173);fill-rule:nonzero;"/>
        <path d="M486.992,271.374L370.42,271.374L370.193,271.26L277.333,426.96L340.173,396.268L376.028,337.721L387.004,319.802L378.884,313.267L362.662,300.192L362.655,300.185L459.914,300.185C461.76,300.185 463.534,300.206 465.281,300.256C465.422,300.256 465.557,300.263 465.683,300.269C467.233,300.311 468.753,300.375 470.231,300.46C470.705,300.489 471.151,300.524 471.638,300.56C472.734,300.63 473.817,300.701 474.878,300.8C475.485,300.857 476.072,300.934 476.673,300.99C477.529,301.09 478.398,301.189 479.24,301.288C479.905,301.38 480.549,301.486 481.2,301.584C481.92,301.691 482.628,301.804 483.307,301.931C484,302.051 484.651,302.185 485.309,302.327C485.924,302.455 486.518,302.582 487.098,302.717C487.784,302.878 488.442,303.063 489.078,303.24C489.587,303.381 490.11,303.522 490.591,303.67C491.263,303.883 491.899,304.094 492.521,304.322C492.952,304.477 493.384,304.633 493.794,304.795C494.431,305.05 495.046,305.298 495.647,305.573L496.716,306.075C497.608,306.532 498.483,307.023 499.338,307.546C499.891,307.899 500.428,308.254 500.951,308.635C501.199,308.812 501.431,308.997 501.666,309.179C502.189,309.59 502.676,310.007 503.15,310.452C503.341,310.629 503.511,310.814 503.696,310.998C504.169,311.478 504.629,311.959 505.038,312.475C505.18,312.638 505.3,312.808 505.428,312.977C505.858,313.53 506.268,314.095 506.638,314.703C506.708,314.823 506.786,314.964 506.857,315.092C507.245,315.757 507.612,316.429 507.924,317.136C507.953,317.193 507.96,317.256 507.995,317.313C508.334,318.097 508.632,318.911 508.885,319.767L508.892,319.76L549.485,299.937C538.361,274.225 506.758,271.374 486.992,271.374Z" style="fill:rgb(162,170,173);fill-rule:nonzero;"/>
    </g>
    <g>
        <path d="M423.486,456.062L521.713,535.202L478.893,454.089C466.207,453.91 455.506,453.167 448.951,452.98L423.485,456.053M269.54,473.183L232.066,535.203L312.564,461.576M340.172,396.268L277.332,426.96L404.533,426.96C499.337,426.96 534.097,376.865 545.771,348.541C556.004,323.671 552.164,306.938 549.484,299.937L508.89,319.76C509.124,320.552 509.337,321.343 509.506,322.2C513.099,341.074 497.668,368.054 471.544,383.334C450.902,395.406 426.066,396.268 404.61,396.268L340.17,396.268" style="fill:white;fill-rule:nonzero;"/>
        <path d="M370.192,271.26L370.419,271.374L486.991,271.374C506.757,271.374 538.361,274.224 549.484,299.937L590.698,279.804C593.662,285.632 595.699,292.278 595.699,292.278C599.319,296.705 602.275,301.196 604.701,305.842L708.933,279.804L590.698,279.804C578.025,256.53 549.251,242.556 507.817,242.556L452.254,242.556L480.293,124.216L480.293,124.209L408.818,242.556L343.2,242.556L320.938,279.804L204.748,279.804L204.748,279.811L302.706,310.319L283.188,343.004L214.669,457.686L277.333,426.96L370.193,271.26L370.192,271.26Z" style="fill:white;fill-rule:nonzero;"/>
    </g>
</svg>
