<svg xmlns="http://www.w3.org/2000/svg" viewBox="0 0 960 640"><path d="M429.934 599.67H296.501c-38.055 0-69.049-30.958-69.049-69.069V0h505.096v530.646c0 38.066-30.95 69.068-69.049 69.068H530.021c-34.99 0-50.265 40.286-50.265 40.286s-14.52-40.286-49.822-40.286" fill="#004c97"/><path d="M480.067 597.537c-9.903-11.947-26.11-24.74-50.088-24.74H296.5c-23.224 0-42.14-18.92-42.14-42.15V26.916h451.322v503.73c0 23.23-18.915 42.15-42.139 42.15H530.066c-23.846 0-40.053 12.837-50 24.74Z" fill="#041e42"/><path d="M431.798 180.82c-11.989 0-13.987-6.574-14.12-10.438-.177-4.93 2.442-7.73 5.018-9.15-1.421-.755-3.464-1.466-6.217-1.466-7.504 0-13.587 6.13-13.587 13.636 0 8.44 6.083 13.503 16.296 13.503 7.638 0 31.083-2.132 38.143-2.132 6.66 0 12.7 2.087 16.607 3.82-2.398-3.199-7.37-7.196-17.318-7.551-9.59-.4-15.408-.178-24.866-.178" fill="#c8102e"/><path d="M519.852 113.751c1.466-3.021.977-6.751-1.288-9.994 10.924-8.173 20.204-5.553 24.245-3.686-14.742 10.526-23.535 28.782-25.977 34.289l-9.591-4.664c1.11-4.575 0-9.105-.666-11.237 5.64 1.421 11.145-.4 13.277-4.708Zm-67.228-7.107 27.087 13.191c-3.508.223-6.616.4-8.748.445 3.064 2.132 7.105 3.242 10.79 3.11 6.66-.224 15.897-.934 21.58-2.578.578 2.178 1.733 5.464.445 9.417-2.265 7.107-12.39 5.641-12.39 5.641 1.688 3.02 10.746 5.153 14.788-3.154l6.882 3.376c-4.84 12.126-2.398 22.52 2.131 27.14 2.443 2.487 5.551 3.597 8.792 3.197-.71 1.554-1.775 3.198-3.33 3.554-4.085 1.021-9.414-1.023-9.414-1.023s-.843 5.553 4.574 9.15c2.576 1.689 5.64 1.91 7.815 1.777-.71 1.599-1.998 3.554-4.129 4.22-3.509 1.066-8.481 0-8.481 0s-.755 12.259 8.391 13.369c2.932.356 5.373-.488 7.105-1.376-.31 2.753-1.42 6.661-5.328 8.084-6.128 2.22-12.3-2.221-12.3-2.221s-.755 9.593 7.372 12.48a13.353 13.353 0 0 0 8.303.222c-.889 2.577-2.62 5.908-5.684 6.352-6.839 1.022-11.989-3.642-11.989-3.642s-2.975 10.926 6.528 15.413c4.44 2.086 8.125 1.732 10.523 1.021-.754 2.265-2.576 5.196-6.705 6.041-8.48 1.776-12.833-6.13-12.833-6.13s-7.638 9.639.133 20.476c-4.618-.09-8.125-1.377-10.523-3.864-5.596-5.863-3.064-16.879-3.064-16.879s-13.898 7.863-8.392 22.164c-3.686-.843-6.44-2.487-8.215-4.974-4.618-6.352-1.2-16.257-1.2-16.257s-11.633 7.507-11.145 20.254c-10.035-5.064-5.062-17.633-5.062-17.633s-13.098 4.796-12.477 17.944c-2.265-1.332-3.819-3.02-4.618-5.108-1.376-3.598-.266-7.55.444-9.372 7.105-2.842 4.04-9.15 4.04-9.15-2.619 5.952-8.614 6.885-15.096 6.974-3.864.045-8.304.444-12.79 1.865-3.552 1.156-5.905 3.687-7.326 5.863-.665-3.065-.444-5.996.756-8.35 1.599-3.243 4.928-5.419 9.812-6.707 12.167-3.198 17.496-7.595 17.496-7.595s-8.126-1.955-11.101-5.552c11.9-.489 13.276-3.998 13.276-3.998s-3.374-6.307-.088-13.013h14.253c3.153 5.462 7.683 8.571 12.478 8.571 9.237 0 16.74-11.68 16.74-26.028s-7.503-26.028-16.74-26.028c-4.884 0-9.413 3.198-12.566 8.75h-14.387c-4.352-4.663-3.642-8.528-2.931-10.26 2.221-.222 9.015-1.466 7.637-8.217 0 0-1.331 4.442-8.214 4.575-2.798-1.732-4.352-3.732-4.973-4.708 4.44-9.773 11.723-22.164 11.811-22.297l.222-.356v-.4c0-1.066.133-3.864.31-5.463 1.6-1.421 6.84-6.352 9.815-12.303m25.043 21.01s11.367 3.42 16.74 3.42 6.484-5.33 6.484-5.33c-6.75 2.13-23.224 1.909-23.224 1.909Zm-28.596 3.508c.044 1.865.354 4.93 1.732 7.24 0 0 1.065.089 1.598.089 1.554 0 5.196-.267 8.214-2.4 2.398-1.687 3.598-3.641 4.175-4.929 2.62.356 4.973 1.377 6.66 3.775 0 0 1.688-8.26-10.08-7.417-1.154.088-6.793.799-8.97.844-4.617.088-6.083-2.221-6.083-2.221s-1.11 3.82 2.798 5.064m53.374-14.348c-6.084-3.33-9.059-9.816-6.616-14.79 1.953-4.042 7.015-5.996 12.433-4.93 1.066-4.753 2.53-15.502-3.064-25.673-11.456 1.91-19.05 9.683-22.114 13.458 4.175 3.597 5.773 8.795 3.774 12.837-1.243 2.576-3.729 4.353-6.927 4.975-3.063.577-6.438.088-9.59-1.422-6.617-3.198-9.903-10.038-7.415-15.19 1.464-3.021 4.706-4.931 8.657-5.153-.266-13.725-8.213-19.41-12.122-21.364.533 17.278-3.863 30.603-8.614 42.728l34.99 17.012c6.528-.578 13.144-1.377 16.607-2.443m124.688 104.024c11.456-8.35 24.466-17.81 24.732-41.618.222-20.21-14.654-39.176-43.738-39.176s-43.96 20.343-43.96 39.487c0 22.608 13.9 35.133 29.085 45.216 1.687-.889 3.374-1.732 5.061-2.62a887.548 887.548 0 0 0 6.306-3.243c-19.715-10.704-29.706-23.408-29.706-37.71 0-23.897 16.074-29.138 16.074-29.138s5.596 2.799 3.686 9.816c1.998-.665 3.419-1.687 4.262-3.064 2.576-4.22-.71-10.527-.71-10.527s6.66 1.2 9.28 6.707c1.2 2.532 1.377 5.419.622 8.706 1.954-.534 4.574-1.644 5.906-3.908 2.575-4.354-2.531-13.37-2.531-13.37s12.477 4.353 11.767 15.68c0 0 2.53-.844 3.374-2 2.798-3.908-.044-8.75-.044-8.75s15.186 8.306 15.186 27.583c0 24.563-22.29 35.977-42.006 46.06-12.922 6.618-25.177 12.881-27.486 21.676-1.51 5.73-.443 9.77.533 13.68 1.154 4.396 2.309 8.883-.622 15.012 10.613-3.286 9.99-17.367 9.99-17.367s7.683 11.682.8 23.985c13.277-3.864 10.258-24.384 10.258-24.384s11.367 12.303 2.886 27.715c3.286-1.376 17.05-7.816 12.877-30.602-3.33-18.211 7.105-25.806 18.161-33.846m-234.275-6.04a16.01 16.01 0 0 0 2.798-3.82c-4.308.444-8.793-1.2-12.212-4.62-3.418-3.42-5.062-7.95-4.618-12.215-1.42.71-2.664 1.644-3.818 2.799-2.754 2.753-4.352 6.263-4.574 9.86-.222 3.554.977 6.84 3.33 9.194 4.93 4.93 13.455 4.397 19.05-1.198m-12.212-54.722h13.899c-4.085-11.237-2.752-29.448 1.599-37.71-4.351-8.26-5.684-26.516-1.6-37.71h-13.898c4.086 11.238 2.754 29.45-1.598 37.71 4.352 8.262 5.64 26.518 1.598 37.71Zm-82.546-78.973c2.797 0 5.061-2.265 5.061-5.063s-2.264-5.064-5.061-5.064-5.062 2.265-5.062 5.064 2.264 5.063 5.062 5.063Zm127.484 0c2.797 0 5.062-2.265 5.062-5.063s-2.265-5.064-5.062-5.064-5.062 2.265-5.062 5.064 2.265 5.063 5.062 5.063Zm-127.484 280.27c-2.798 0-5.062 2.265-5.062 5.063s2.264 5.063 5.062 5.063 5.061-2.265 5.061-5.062-2.264-5.065-5.061-5.065Zm20.47-249.045a57.646 57.646 0 0 0-9.192 9.638c3.42 4.53 6.839 7.729 9.192 9.683 2.309 1.91 5.595 1.999 7.948.223 1.288-.978 2.132-1.688 2.62-2.133v-15.367c-.4-.445-1.244-1.2-2.62-2.221-2.398-1.777-5.64-1.689-7.948.221m-20.47 112.774c2.797 0 5.061-2.264 5.061-5.062a5.061 5.061 0 1 0-10.123 0 5.06 5.06 0 0 0 5.062 5.062Zm76.597-70.045h-35.035c-1.155 3.332-.889 7.507.888 10.75h33.97c1.597-3.02 1.642-7.108.22-10.75m50.4 216.398c2.797 0 5.061-2.265 5.061-5.062a5.062 5.062 0 1 0-10.123 0 5.06 5.06 0 0 0 5.062 5.062Zm-36.5 127.876c-2.265-9.105 2.575-18.966 6.128-26.25l2.93-5.996c.755-1.51.843-3.243.31-4.841-.533-1.6-1.686-2.888-3.197-3.644-3.108-1.554-6.927-.221-8.436 2.888-.755 1.51-.889 3.243-.311 4.842 1.154 3.198 6.306 4.575 6.306 4.575s-7.15 16.789-16.919 21.808c2.265 9.106-2.576 18.966-6.128 26.25l-2.93 5.996c-1.554 3.11-.222 6.93 2.886 8.44 3.109 1.554 6.927.221 8.437-2.887.755-1.51.665-3.199.31-4.842-.798-3.464-6.304-4.574-6.304-4.574s7.015-16.835 16.917-21.81m-16.607-6.929-.488-1.42 1.376-.578c2.754-1.11 5.418-3.331 8.127-6.707-3.686-1.821-12.656-6.174-19.804-9.372-15.232-6.796-27.708-7.55-27.708-7.55l2.53-2.31c2.664-2.444 3.597-5.775 3.908-8.174-2.665 1.378-5.551 1.777-8.393 2.133-4.618.577-8.97 1.155-12.655 5.775-3.774 4.707-3.507 12.258-3.507 12.258s-4.308 2.043-3.109 6.751c.621 2.443 2.664 4.043 4.397 5.02 0-1.245.176-2.71.887-4.131 1.11-2.221 3.153-3.82 6.083-4.753 10.969-3.42 27.575 7.285 45.115 18.611 1.287.844 2.575 1.643 3.863 2.488.355-2.755.222-5.464-.622-7.996m278.28-72.044c3.952-2.088 6.039-6.04 6.972-8.573-19.139 2.044-21.493-14.39-21.493-14.39s7.86 2.842 12.212.267c2.087-1.244 3.286-3.2 3.952-4.62-12.522-.8-15.72-8.75-20.026-19.499l-.755-1.821c-3.42-8.484-3.774-8.439-12.255-7.995-2.488.133-5.551.311-9.458.311-21.403 0-20.781-16.612-20.781-16.612s6.927 4.042 11.367 2.221c2.22-.933 3.73-2.798 4.618-4.308-15.186-.356-17.185-13.636-17.185-13.636s9.858 5.152 15.453 1.643c2.398-1.51 3.596-4.086 4.174-5.952-16.607 4.086-20.825-11.237-20.825-11.237s32.547 2.709 49.777-21.365l.4-.533.665-.088s5.506-.755 9.37 2.709c1.998 1.777 3.196 4.309 3.596 7.506 1.687-1.91 3.552-5.24 2.753-10.127-1.642-10.038-12.744-8.172-12.744-8.172s2.887-6.93 9.636-7.551c3.463-.311 6.794.888 9.636 3.42.577-2.444.754-6.485-2.797-9.86-4.042-3.865-13.055-1.11-13.055-1.11s2.842-8.218 9.413-9.818c2.62-.665 5.373-.221 8.171 1.29-.311-3.022-1.688-7.552-6.928-8.93-4.395-1.154-10.345.979-10.345.979s-3.642-16.524-21.847-25.806c-3.064 2.53-5.684 5.151-7.55 8.26.135.09.268.178.401.311 6.927 5.153 18.56 13.814 18.56 30.381 0 17.812-13.232 35.8-38.542 35.8-17.14 0-27.397-9.46-35.878-19.72-3.686-4.442-7.328-7.285-11.501-10.528-7.105-5.552-15.986-12.436-29.218-30.514-.222.045-.355.133-.577.178-6.306 1.288-10.79-1.687-13.055-3.775-3.952 9.194 6.616 17.722 6.616 17.722s-12.966 2.665-19.715-4.442c-3.419-3.597-4.352-8.35-4.529-11.681-6.972 8.35 1.198 18.788 1.198 18.788s-11.5 0-16.607-7.062c-2.308-3.198-2.974-6.84-3.064-9.638-5.86 7.816-2.708 16.612-2.708 16.612s-13.898-2.577-13.499-16.168c-8.214 6.662-3.775 16.967-3.775 16.967s-8.835-1.333-11.855-9.284c-1.022-2.753-.977-5.552-.578-7.816-7.281 5.64-23.4 17.544-41.384 26.87-24.822 12.838-30.86 14.303-54.217 13.193-2.309-.133-4.485-.267-6.616-.489h-.355c-16.52-1.732-25.887-6.218-28.108-7.418-5.284.889-8.793 3.687-10.124 4.976.888 2.31 2.886 8.394 2.842 16.39 2.441.665 8.792 2.13 16.252 1.776a18.227 18.227 0 0 1 3.685-2.266l.4-.178h.444s18.205 1.734 29.483-2.708c0 0-.71 7.994-29.35 5.951-5.461 2.71-8.88 8.75-10.258 11.637 3.241 1.022 9.592 3.909 11.057 10.705 1.953 0 5.862 0 8.792-.799 18.96-20.565 27.708-12.082 27.708-12.082-2.131-.133-4.396.311-6.66 1.155-.222 1.732-.888 7.818 0 12.925 3.197-.532 10.39-1.154 15.274 2.799 1.155-.756 3.109-2.133 4.574-3.82 0-2.443 0-13.77-3.597-21.853 0 0 2.932 2.399 4.53 5.996 6.394-.844 11.322-1.822 14.43-2.976-.62-6.84 4.086-10.571 4.086-10.571s-3.285 7.151-.31 13.236c1.153 2.354 3.196 4.264 6.393 5.508-.977-3.998-.977-11.015 7.371-17.455 6.35-5.42 3.952-12.082 3.952-12.082s6.794 5.863-1.687 14.569c-.488 1.865-1.421 6.928.888 10.348 1.11 1.644 2.93 2.71 5.328 3.243-.843-3.687-1.198-10.705 5.596-17.056 6.305-5.997 3.952-14.258 3.952-14.258s7.326 7.017-1.333 16.123c-.221 1.51-.71 6.84 2.043 10.038 1.155 1.378 2.797 2.177 4.929 2.488-1.066-3.865-1.954-11.593 5.461-17.989 6.395-6.396 4.619-13.502 4.619-13.502s7.104 5.863-1.954 15.28c-.134 1.553-.31 6.794 2.486 9.992 1.11 1.289 2.62 2.088 4.53 2.444-.977-3.865-1.643-11.46 5.639-18.123 6.083-6.084 5.284-13.546 5.284-13.546s6.705 5.64-2.62 15.323c-.088 1.466-.088 5.952 2.664 9.017 1.554 1.732 3.864 2.754 6.75 3.02-1.066-3.11-2.131-8.794 1.02-14.168l.401-.445s13.01-11.682 7.726-21.232c0 0 13.277 6.841-4.707 22.786 4.707 4.398 22.78 18.7 64.298 27.228.133 0 .266-.044.444-.09v.179h.088l.488.178c.444.266 10.924 6.662 17.097 16.923 3.64 6.084 4.883 12.88 6.171 20.031 2.176 12.127 4.618 25.85 19.938 39.798 4.13-.622 22.824-2.932 27.885 7.15 19.893 39.309 6.572 57.21-.09 63.073-11.366 10.037-26.153 8.26-29.394 7.728-4.085 2.487-6.927 5.996-8.304 7.994 2.62 1.333 7.016 4.665 8.26 12.26 1.82.489 6.083 1.466 10.834 1.865 1.51-.755 7.105-3.642 10.924-6.262.266-1.466.577-2.887 1.065-4.131l.178-.489.444-.266s14.475-9.816 16.784-20.876c0 0 6.839 9.682-14.564 23.185-1.466 4.354-1.421 10.972-1.288 14.17 3.42-.623 10.657-1.245 15.985 3.464 1.688-.844 5.285-2.932 7.949-5.952-5.906-28.25 7.549-29.004 7.549-29.004-1.599 1.688-2.754 3.686-3.552 5.819 1.554 1.376 5.328 4.575 9.324 6.84 1.421-2.71 4.884-7.951 11.19-9.194.133-1.333.31-3.642.355-6.263-1.51-1.465-8.88-7.019-18.694-10.438 0 0 3.241-.8 8.348.8 1.732-4.975 1.776-10.483 1.776-10.483s10.79 5.552 17.362 1.199c3.819-2.531 5.151-7.329 5.684-10.349-5.062 2.088-9.814 2.31-14.077.755-8.747-3.242-12.787-14.79-12.787-14.79s11.633 6.44 19.27 2.442m11.28-349.381c-2.798 0-5.063 2.265-5.063 5.064s2.265 5.062 5.062 5.062 5.062-2.264 5.062-5.062-2.265-5.064-5.062-5.064Zm0 290.351c-2.798 0-5.063 2.266-5.063 5.065s2.265 5.062 5.062 5.062 5.062-2.265 5.062-5.062-2.265-5.065-5.062-5.065ZM378.868 412.72c9.547 2.132 18.25 2.443 25.933 1.6-11.9-5.065-16.741-17.102-17.94-20.566-2.665-.577-5.507-.755-7.149-.843-.755 6.573-5.107 10.616-7.326 12.348 1.021 1.687 3.241 4.841 6.482 7.462Zm-38.01-132.717c6.972.356 12.3.444 17.052.089-15.808-7.373-24.156-17.81-25.976-20.298-2.265-.444-5.418-.534-6.528-.577-4.84 2.842-7.682 6.174-8.57 7.328.089.889.31 2.799.932 5.33 1.866 1.332 9.325 6.396 16.34 7.596 2.177.221 4.441.4 6.84.532m138.94 190.192c-2.799 0-5.063 2.266-5.063 5.064s2.264 5.063 5.063 5.063 5.061-2.265 5.061-5.063-2.264-5.064-5.061-5.064ZM376.027 457.18c1.688-1.332 4.574-3.864 6.927-7.506l.178-.266.267-.178c.399-.267 7.592-5.063 21.002-7.55 4.53-.845 10.436-.668 14.61 1.242 0 0-2.62-.088-7.194.533-.222 1.822-.622 6.219-.266 10.395 3.374-.356 10.834-.445 16.03 4.575.932-1.29 2.264-3.42 3.108-6.041 0 0-1.332-10.839-7.815-17.323 0 0 3.196.311 6.172 3.953 7.593-4.886 10.968-8.839 11.012-8.884l3.197-3.82-.399 4.975s-.489 6.618 3.508 10.527c1.953 1.91 4.75 2.932 8.258 3.02-2.398-3.864-5.461-11.637.49-21.142l2.397-3.775.532 4.442s.844 6.751 5.906 10.437c2.62 1.91 5.95 2.71 9.902 2.443-2.797-3.775-6.571-11.815-.31-23.185l2.308-4.176.667 4.709c.089.444 1.643 10.57 11.19 11.06-1.555-3.42-2.887-9.906 4.04-17.012 2.042-2.088 4.04-3.82 5.773-5.375 6.439-5.64 9.68-8.483 5.417-17.589-1.687-3.553-1.82-6.929-.444-10.127 4.04-9.238 20.781-16.256 46.49-24.518v-.133c-1.242-6.884-2.397-13.37-5.772-18.966-5.15-8.572-13.853-14.48-15.63-15.634-38.764 5.908-66.428 34.911-71.357 40.463 2.176 3.287 7.77 13.458 3.686 26.029-2.664 8.172-14.032 20.432-30.639 28.071-14.52 6.662-37.965 11.992-67.36-.222-3.553.532-7.06 1.732-8.838 2.399.49 2.532 1.155 8.083-.799 14.434.977.934 3.153 2.799 6.927 4.842.932 0 3.375.09 5.285 0 .666-.844 1.421-1.554 2.175-2.176l.622-.488.755.221s16.873 3.687 36.767-1.554c0 0-4.175 9.994-36.811 4.797-3.553 3.198-6.039 10.348-7.105 13.724 3.552.444 10.7 2.266 15.053 10.305m213.716 5.819c2.798-1.111 5.595-2.665 8.17-4.93 1.199-1.022 2.22-2.132 3.153-3.287-7.504-.845-12.211-7.019-13.32-8.661-3.998-2.044-8.748-2.755-11.236-3.021.134 3.242 0 9.993-3.108 16.256 2.043 1.688 7.816 5.463 16.341 3.643ZM432.865 241.76h-3.109c-3.952-.134-7.992.4-11.989 1.687-6.572 2.133-8.792 11.016-8.792 11.016s-6.172-9.239-1.909-18.256c1.82-3.864 5.462-6.484 10.613-7.994-9.237-5.33-19.317-9.372-22.78-10.661-3.597 3.376-8.126 5.152-12.477 5.152-1.288 0-2.576-.176-3.819-.487l-8.303 19.187c3.019 2.62 14.386 12.082 31.926 21.054 13.055-7.551 24.333-15.768 30.683-20.61m-61.144-23.496c-2.842-2.843-4.352-6.751-4.263-10.97h-28.33c-1.554 10.97-1.154 21.807-.976 24.739 10.301 6.84 23.488 10.571 27.575 11.637l9.812-22.653a14.246 14.246 0 0 1-3.819-2.708m236.363-24.741c2.797 0 5.062-2.265 5.062-5.063a5.061 5.061 0 1 0-10.124 0 5.06 5.06 0 0 0 5.062 5.063Z" fill="#ffb81c"/><path d="m533.618 113.13 82.592 2.62 16.74 6.707-16.74 6.707-94.848 3.02c1.11-2.22 2.576-5.019 4.486-8.083h57.991c9.369 0 31.749-1.6 31.749-1.6s-22.38-1.598-31.749-1.598h-55.95c1.688-2.532 3.598-5.197 5.773-7.773m-16.829-.534-15.541-.487a13.464 13.464 0 0 0 3.374 2.354c4.885 2.398 10.258 1.554 12.123-1.867m-57.547 20.921c1.153-.8 1.953-1.688 2.441-2.443h-.444c-1.154.09-6.927.355-8.525.444h-.489c0 1.066.089 2.487.622 3.776 1.332 0 4.263-.311 6.395-1.822m-90.052-17.234c-3.463-3.464-5.594-5.685-5.86-9.904l-1.067 1.11a3.309 3.309 0 0 0-.888 2.266v23.363c3.597-3.243 7.86-4.13 7.86-4.13v-12.748l-.045.043Zm70.248 4.62c.043-1.11.177-2.266.31-3.02l.09-.577.443-.356s3.242-2.753 6.217-6.53l-23.712-.754c-1.954-.044-18.206-.711-27.22-4.22.4 6.174 1.643 11.948 3.508 15.502h40.364v-.045Zm-90.851 8.04V109.71c0-.844-.311-1.644-.888-2.266l-1.6-1.687s-.442-.311-.71-.311c-.266 0-.533.088-.71.31l-1.598 1.688a3.309 3.309 0 0 0-.889 2.266v27.45c3.153-2.488 6.44-5.864 6.44-8.263m-9.636-19.187c0-.844-.311-1.644-.933-2.266l-1.598-1.687s-.444-.311-.71-.311c-.268 0-.534.088-.711.31l-1.599 1.688a3.309 3.309 0 0 0-.888 2.266v27.45c3.153-2.488 6.439-5.864 6.439-8.263V109.71Zm19.182 19.187V109.71c0-.844-.311-1.644-.888-2.266l-1.598-1.687s-.444-.311-.71-.311-.534.088-.711.31l-1.6 1.688a3.308 3.308 0 0 0-.887 2.266v27.45c3.153-2.488 6.439-5.864 6.439-8.263m91.916 46.949c.4-1.82 1.065-4.398 1.865-6.619h-6.395c1.11 3.42 3.064 5.509 4.53 6.619Zm-74.51 16.79c-3.241-7.996-4.175-19.055-4.44-23.23h-27.265c-.31 4.175-1.066 16.567-1.11 34.867h24.955c.71-3.509 2.487-6.796 5.151-9.416a17.31 17.31 0 0 1 2.664-2.177m63.676-68.624h-40.186c-1.865 3.553-3.108 9.328-3.508 15.502 9.059-3.509 25.31-4.176 27.22-4.22l10.39-.311c2.753-5.197 5.284-9.549 6.084-10.926M336.598 427.11c3.108-1.91 7.947-4.042 13.41-3.642.488-2.842.488-5.374.31-7.284-2.53.088-10.523 1.244-13.72 10.927Zm108.479-229.546h7.06c-.8-2.53-1.421-5.906-1.777-8.082-1.642 1.065-4.04 3.33-5.328 8.082m-146.8 35.934c-.444.621-1.02 1.155-1.642 1.643.576 1.11 1.154 2.22 1.643 3.287.532-1.11 1.065-2.22 1.642-3.287a7.24 7.24 0 0 1-1.642-1.643Zm-7.815-168.162c0-.8.134-1.554.4-2.31a76 76 0 0 1-3.285-1.687c.221 1.2.4 2.398.576 3.642.8 0 1.554.089 2.31.355Zm20.515 14.925c.444.665.799 1.331 1.022 2.086 1.198-.221 2.442-.444 3.64-.577-.888-.843-1.775-1.687-2.619-2.62-.622.444-1.333.843-2.043 1.066m-2.53-15.19c.177-1.244.354-2.444.576-3.643a76.634 76.634 0 0 1-3.286 1.688c.267.755.4 1.51.4 2.31a8.33 8.33 0 0 1 2.31-.356Zm-22.825 15.235a8.142 8.142 0 0 1-2.042-1.067 72.264 72.264 0 0 1-2.62 2.62c1.2.134 2.442.357 3.642.578a7.04 7.04 0 0 1 1.02-2.088m-1.82-4.13c-1.022-1.422-1.288-3.243-.71-4.975.576-1.732 1.82-3.02 3.507-3.598 2.842-.932 6.173.889 6.173.889s-.71-3.731 1.065-6.174c1.022-1.421 2.664-2.221 4.486-2.221 1.82 0 3.462.8 4.484 2.22 1.776 2.4 1.065 6.175 1.065 6.175s3.331-1.866 6.173-.889c1.643.533 2.93 1.866 3.508 3.598.577 1.733.31 3.553-.71 4.974-1.733 2.444-5.507 2.888-5.551 2.888 0 0 2.797 2.62 2.753 5.597 0 1.732-.843 3.376-2.354 4.44-1.465 1.067-3.285 1.378-4.929.845-2.842-.888-4.484-4.353-4.484-4.353s-1.643 3.465-4.485 4.353c-1.687.533-3.464.222-4.93-.844a5.666 5.666 0 0 1-2.353-4.441c0-2.976 2.754-5.597 2.754-5.597s-3.775-.489-5.55-2.888m7.237 0c0 4.043 3.33 7.374 7.371 7.374s7.37-3.286 7.37-7.374-3.284-7.372-7.37-7.372-7.37 3.286-7.37 7.372Zm7.327 13.282c-.444.622-1.022 1.154-1.643 1.643.576 1.11 1.154 2.221 1.643 3.286.532-1.11 1.065-2.22 1.642-3.286a7.223 7.223 0 0 1-1.642-1.643Zm140.183-9.194c.444.665.8 1.331 1.022 2.086 1.243-.221 2.441-.444 3.64-.577-.888-.843-1.776-1.687-2.62-2.62-.62.444-1.331.843-2.042 1.066m-2.53-15.19a86.65 86.65 0 0 1 .577-3.643 76.634 76.634 0 0 1-3.287 1.688c.267.755.4 1.51.4 2.31a8.33 8.33 0 0 1 2.31-.356Zm-10.17 24.429a9.6 9.6 0 0 1-1.643 1.643c.578 1.11 1.155 2.221 1.644 3.286.533-1.11 1.065-2.22 1.642-3.286a7.179 7.179 0 0 1-1.642-1.643Zm-7.815-24.119c0-.8.134-1.554.4-2.31a76.693 76.693 0 0 1-3.286-1.687c.222 1.2.4 2.398.577 3.642.799 0 1.554.089 2.31.355Zm-4.84 14.925a8.15 8.15 0 0 1-2.043-1.067 72.234 72.234 0 0 1-2.62 2.62c1.2.134 2.443.357 3.642.578a7.042 7.042 0 0 1 1.021-2.088m-1.82-4.13c-1.022-1.422-1.288-3.243-.71-4.975.577-1.732 1.82-3.02 3.507-3.598 2.842-.932 6.172.889 6.172.889s-.71-3.731 1.066-6.174c1.022-1.421 2.664-2.221 4.485-2.221s3.464.8 4.485 2.22c1.776 2.4 1.065 6.175 1.065 6.175s3.33-1.866 6.172-.889c1.644.533 2.932 1.866 3.509 3.598.576 1.733.31 3.553-.71 4.974-1.733 2.444-5.551 2.888-5.551 2.888s2.797 2.62 2.752 5.597c0 1.732-.844 3.376-2.353 4.44-1.466 1.067-3.286 1.378-4.929.845-2.842-.888-4.484-4.353-4.484-4.353s-1.644 3.465-4.486 4.353c-1.687.533-3.463.222-4.928-.844a5.66 5.66 0 0 1-2.353-4.441c0-2.976 2.752-5.597 2.752-5.597s-3.774-.489-5.55-2.888m7.194 0c0 4.043 3.285 7.374 7.37 7.374s7.371-3.286 7.371-7.374-3.285-7.372-7.37-7.372-7.371 3.286-7.371 7.372ZM280.87 372.168c1.198.133 2.442.356 3.64.577a7.013 7.013 0 0 1 1.022-2.088 8.112 8.112 0 0 1-2.043-1.066 74.255 74.255 0 0 1-2.619 2.622m27.53-16.835c.178-1.243.355-2.443.577-3.642a77.454 77.454 0 0 1-3.286 1.688c.267.755.4 1.51.4 2.31a8.309 8.309 0 0 1 2.31-.356Zm-17.984.356c0-.8.134-1.556.4-2.31a76.692 76.692 0 0 1-3.285-1.688c.221 1.2.4 2.399.576 3.642.8 0 1.554.09 2.31.356Zm7.816 24.118c-.444.621-1.022 1.155-1.643 1.643.576 1.11 1.154 2.22 1.643 3.287.532-1.11 1.065-2.22 1.642-3.287a7.24 7.24 0 0 1-1.642-1.643Zm12.699-155.548a8.293 8.293 0 0 1 1.022 2.088c1.198-.221 2.442-.444 3.64-.577-.888-.844-1.775-1.689-2.619-2.62-.622.444-1.333.843-2.043 1.066m-30.771 73.909c2.885-2.132 7.859-4.709 14.919-4.709a44.533 44.533 0 0 0-1.688-9.55c-3.196.623-11.767 3.288-13.231 14.303M310 375.011c0 1.732-.844 3.376-2.354 4.44-1.465 1.067-3.285 1.378-4.929.846-2.842-.889-4.484-4.354-4.484-4.354s-1.643 3.465-4.485 4.354c-1.687.532-3.464.221-4.93-.845-1.464-1.065-2.308-2.665-2.353-4.441 0-2.976 2.754-5.597 2.754-5.597s-3.775-.489-5.55-2.888c-1.022-1.42-1.289-3.242-.711-4.974s1.82-3.02 3.507-3.597c2.842-.933 6.172.888 6.172.888s-.71-3.731 1.066-6.174c1.022-1.422 2.664-2.22 4.485-2.22s3.464.798 4.484 2.22c1.777 2.398 1.067 6.174 1.067 6.174s3.33-1.866 6.171-.888c1.644.532 2.932 1.865 3.51 3.597.575 1.732.31 3.553-.711 4.974-1.732 2.444-5.507 2.888-5.551 2.888 0 0 2.797 2.62 2.752 5.597m-4.306-8.485c0-4.041-3.286-7.372-7.371-7.372s-7.371 3.286-7.371 7.372 3.33 7.374 7.37 7.374 7.372-3.286 7.372-7.374Zm-15.187-157.145c0-.8.134-1.554.4-2.31a76.808 76.808 0 0 1-3.285-1.688c.221 1.2.4 2.399.576 3.642.8 0 1.554.09 2.31.356Zm17.984-.311c.178-1.243.355-2.443.577-3.642a76.17 76.17 0 0 1-3.286 1.687c.267.755.4 1.51.4 2.31a8.313 8.313 0 0 1 2.31-.355Zm-22.824 15.234a8.103 8.103 0 0 1-2.042-1.065 74.082 74.082 0 0 1-2.62 2.62c1.2.134 2.442.355 3.642.578a7.04 7.04 0 0 1 1.02-2.088m-1.82-4.13c-1.022-1.422-1.288-3.243-.71-4.975.576-1.732 1.82-3.065 3.507-3.598 2.842-.933 6.173.888 6.173.888s-.71-3.73 1.065-6.173c1.022-1.422 2.664-2.221 4.486-2.221 1.82 0 3.462.799 4.484 2.22 1.776 2.399 1.065 6.174 1.065 6.174s3.331-1.865 6.173-.888c1.643.533 2.93 1.866 3.508 3.598.577 1.732.31 3.553-.71 4.974-1.733 2.443-5.507 2.887-5.551 2.887 0 0 2.797 2.621 2.753 5.596 0 1.734-.843 3.376-2.354 4.442-1.465 1.067-3.285 1.378-4.929.844-2.842-.888-4.484-4.352-4.484-4.352s-1.643 3.464-4.485 4.352c-1.687.534-3.464.223-4.93-.843-1.464-1.067-2.308-2.666-2.353-4.443 0-2.975 2.754-5.596 2.754-5.596s-3.775-.488-5.55-2.887m7.237 0c0 4.043 3.33 7.374 7.371 7.374s7.37-3.288 7.37-7.374-3.284-7.373-7.37-7.373-7.37 3.287-7.37 7.373Zm20.026 150.396a7.024 7.024 0 0 1 1.022 2.086c1.198-.221 2.442-.444 3.64-.577-.888-.844-1.775-1.687-2.619-2.62-.622.444-1.333.843-2.043 1.066m31.438-218.575h30.595c3.551-2.176 6.127-6.75 6.882-12.348-.4-6.662-1.82-12.88-3.908-16.345l-.488-.844.488-.843c1.777-2.932 3.064-7.773 3.642-13.192L368.79 95.14c-.756 1.732-1.733 4.353-2.132 7.373-.844 5.863.666 7.374 5.062 11.815l.622.622v17.189c-11.59 2.043-15.986 15.102-15.986 15.102-.4-4.265.445-7.507 1.82-10.038v-1.599c-3.773 4.308-9.59 7.683-9.59 7.683v-7.683c-3.774 4.308-9.591 7.683-9.591 7.683v-8.083a48.61 48.61 0 0 1-2.531 2.71c-.534 7.772 3.685 12.303 5.95 14.168m95.512 218.53c.444.622.8 1.332 1.022 2.087 1.2-.221 2.442-.444 3.64-.577-.887-.844-1.775-1.687-2.619-2.62-.622.444-1.332.843-2.043 1.066m-20.514-14.835c0-.8.133-1.556.399-2.31a76.633 76.633 0 0 1-3.285-1.688c.222 1.2.4 2.399.577 3.642.8 0 1.554.09 2.309.356Zm7.86 24.118a9.593 9.593 0 0 1-1.644 1.643c.577 1.11 1.155 2.22 1.644 3.287.532-1.11 1.065-2.22 1.642-3.287a7.218 7.218 0 0 1-1.642-1.643Zm-12.7-9.238a8.16 8.16 0 0 1-2.043-1.067 72.264 72.264 0 0 1-2.62 2.62c1.2.134 2.442.357 3.642.578a7.037 7.037 0 0 1 1.02-2.088m259.365-15.28c.177-1.242.354-2.442.577-3.641a77.454 77.454 0 0 1-3.286 1.688c.266.755.4 1.51.4 2.31a8.31 8.31 0 0 1 2.309-.356Zm-261.185 11.15c-1.02-1.422-1.288-3.243-.71-4.975s1.82-3.02 3.508-3.597c2.841-.933 6.172.888 6.172.888s-.71-3.732 1.065-6.174c1.022-1.422 2.665-2.221 4.486-2.221s3.463.799 4.484 2.221c1.776 2.398 1.065 6.174 1.065 6.174s3.331-1.866 6.173-.888c1.643.532 2.93 1.865 3.508 3.597s.311 3.553-.71 4.974c-1.733 2.444-5.507 2.888-5.551 2.888 0 0 2.797 2.62 2.753 5.597 0 1.732-.843 3.376-2.354 4.44-1.464 1.067-3.285 1.378-4.929.846-2.841-.889-4.484-4.354-4.484-4.354s-1.643 3.465-4.485 4.354c-1.687.532-3.464.221-4.928-.845-1.466-1.065-2.31-2.665-2.354-4.441 0-2.976 2.753-5.597 2.753-5.597s-3.775-.489-5.55-2.888m7.238 0c0 4.043 3.286 7.374 7.37 7.374s7.372-3.286 7.372-7.374-3.286-7.372-7.371-7.372-7.372 3.286-7.372 7.372Zm133.877 139.825a31.65 31.65 0 0 1-1.909-6.086c-24.955 16.79-56.394 15.813-67.539 15.235-37.965-1.998-81.125-22.12-90.272-26.561-.8 3.465-.978 6.974 0 10.261 5.55 2.797 50.797 24.828 99.198 26.871 45.38 1.91 73.31-11.903 73.31-11.903s-19.803 15.68-73.444 15.102c-48.888-.534-94.402-23.94-100.485-27.183-2.665 1.243-5.107 3.464-7.238 6.129 9.147 5.108 57.725 30.825 109.677 33.046 74.022 3.154 102.262-23.807 105.415-27.094-21.136-.533-38.187-9.905-43.648-13.28-1.955 3.02-3.02 5.463-3.02 5.463m45.514-7.906c.044 3.064.755 10.97 6.038 16.256-.088-3.908.311-9.994 3.243-14.702-3.11-1.687-6.661-1.82-9.281-1.554Zm38.676-22.12c1.243 1.954 3.508 6.618 1.776 12.57 2.176-1.555 4.617-4.176 5.506-8.35a13.53 13.53 0 0 0-1.288-9.283c-2.752 1.11-4.706 3.242-5.95 5.062m38.365-396.062c.444.665.799 1.331 1.022 2.086 1.198-.221 2.442-.444 3.64-.577-.888-.843-1.775-1.687-2.619-2.62-.622.444-1.332.843-2.088 1.066m-12.61 9.239a9.6 9.6 0 0 1-1.643 1.643c.577 1.11 1.155 2.221 1.643 3.286.533-1.11 1.066-2.22 1.643-3.286a7.177 7.177 0 0 1-1.643-1.643Zm-17.362-7.685c1.2.133 2.442.356 3.642.577a7.018 7.018 0 0 1 1.02-2.086 8.141 8.141 0 0 1-2.042-1.067 72.348 72.348 0 0 1-2.62 2.62m9.502-16.478c0-.8.133-1.554.4-2.31a76.005 76.005 0 0 1-3.285-1.687c.221 1.2.399 2.398.576 3.642.8 0 1.555.089 2.31.355ZM371.01 455.493c-2.842-3.33-6.26-4.663-8.702-5.196-1.155 2.798-3.598 10.748 1.243 18.344.71-3.82 2.62-9.461 7.504-13.148M673.491 84.659c0 1.732-.888 3.376-2.354 4.44-1.465 1.067-3.285 1.378-4.929.846-2.842-.889-4.484-4.354-4.484-4.354s-1.643 3.465-4.485 4.354c-1.687.532-3.464.221-4.93-.845a5.667 5.667 0 0 1-2.353-4.441c0-2.976 2.754-5.597 2.754-5.597s-3.775-.489-5.55-2.887c-1.022-1.421-1.289-3.242-.711-4.975.577-1.732 1.82-3.02 3.507-3.597 2.842-.933 6.172.888 6.172.888s-.71-3.731 1.066-6.174c1.022-1.421 2.664-2.22 4.485-2.22s3.464.799 4.485 2.22c1.776 2.398 1.066 6.174 1.066 6.174s3.33-1.866 6.171-.888c1.644.533 2.932 1.865 3.51 3.597.575 1.733.309 3.554-.711 4.975-1.732 2.443-5.551 2.887-5.551 2.887s2.797 2.62 2.752 5.597m-4.262-8.485c0-4.041-3.286-7.372-7.37-7.372s-7.372 3.286-7.372 7.372 3.285 7.374 7.371 7.374 7.37-3.286 7.37-7.374Zm-24.733 295.994c1.2.133 2.442.356 3.642.577a7.037 7.037 0 0 1 1.02-2.088 8.105 8.105 0 0 1-2.042-1.066 73.364 73.364 0 0 1-2.62 2.622m17.362 7.64a9.593 9.593 0 0 1-1.643 1.642c.577 1.11 1.155 2.22 1.643 3.287.533-1.11 1.066-2.22 1.643-3.287a7.194 7.194 0 0 1-1.643-1.643Zm-7.86-24.12c0-.8.133-1.555.4-2.309a76.696 76.696 0 0 1-3.285-1.688c.221 1.2.399 2.399.576 3.642.8 0 1.555.09 2.31.356Zm19.583 19.278c0 1.732-.888 3.376-2.354 4.44-1.465 1.067-3.285 1.378-4.929.846-2.842-.889-4.484-4.354-4.484-4.354s-1.643 3.465-4.485 4.354c-1.687.532-3.464.221-4.93-.845-1.464-1.065-2.308-2.665-2.353-4.441 0-2.976 2.754-5.597 2.754-5.597s-3.775-.489-5.55-2.888c-1.022-1.42-1.289-3.242-.711-4.974.577-1.732 1.82-3.02 3.507-3.597 2.842-.933 6.172.888 6.172.888s-.71-3.731 1.066-6.174c1.022-1.422 2.664-2.22 4.485-2.22s3.464.798 4.485 2.22c1.776 2.398 1.066 6.174 1.066 6.174s3.33-1.866 6.171-.888c1.644.532 2.932 1.865 3.51 3.597.575 1.732.309 3.553-.711 4.974-1.732 2.444-5.551 2.888-5.551 2.888s2.797 2.62 2.752 5.597m-4.262-8.485c0-4.041-3.286-7.372-7.37-7.372s-7.372 3.286-7.372 7.372 3.285 7.374 7.371 7.374 7.37-3.286 7.37-7.374Zm2.798-301.5c.177-1.243.354-2.442.577-3.642a76.634 76.634 0 0 1-3.286 1.688c.266.755.4 1.51.4 2.31a8.33 8.33 0 0 1 2.309-.356Zm2.486 305.588a7.024 7.024 0 0 1 1.022 2.086c1.198-.221 2.442-.444 3.64-.577-.888-.844-1.775-1.687-2.619-2.62-.622.444-1.332.843-2.088 1.066m-238.937-15.191c.178-1.243.355-2.443.577-3.642a77.454 77.454 0 0 1-3.286 1.688c.266.755.4 1.51.4 2.31a8.309 8.309 0 0 1 2.309-.356Zm44.449 133.206a8.47 8.47 0 0 1-1.689 1.644c.578 1.11 1.155 2.22 1.689 3.286.532-1.11 1.065-2.221 1.642-3.286a7.177 7.177 0 0 1-1.642-1.644Zm-171.045-174.47c-1.554 2.045-5.24 8.218-1.465 17.235 1.199-3.42 3.775-8.04 9.013-10.838-1.554-3.598-5.15-5.508-7.548-6.396Zm42.584 11.55c.088 4.93-2.176 9.06-4.042 11.68 4.308-.488 11.546-2.442 14.92-9.993-3.419-2.131-8.081-1.998-10.835-1.687m24.778 68.623c-10.079-2.398-16.207.311-19.36 2.71 4.308-.133 10.835.355 15.72 3.82 1.42-1.51 2.93-3.687 3.64-6.53Zm113.808 69.867c.177-1.243.355-2.442.578-3.642a77.454 77.454 0 0 1-3.287 1.689c.267.754.4 1.51.4 2.31a8.308 8.308 0 0 1 2.31-.357Zm-17.984.312c0-.8.134-1.555.4-2.31a76.244 76.244 0 0 1-3.286-1.688c.222 1.2.399 2.399.577 3.643.799 0 1.554.088 2.31.355Zm-9.547 16.434c1.2.133 2.442.355 3.642.577a6.99 6.99 0 0 1 1.02-2.087 8.142 8.142 0 0 1-2.042-1.066 72.264 72.264 0 0 1-2.62 2.62m-39.208-21.764c-3.153-1.955-6.928-2.31-9.547-2.221.221 2.755.088 7.73-2.62 13.459 3.73-1.29 9.502-4.397 12.167-11.193M312.398 256.906c-5.684.311-9.415 3.021-11.59 5.42 6.039-1.289 11.5.666 13.898 1.731 1.111-1.376 3.42-3.82 6.883-6.218-1.865-.577-4.885-1.199-9.148-.977m242.935 202.584c3.596-2.131 9.413-4.663 16.164-4.22 1.286-3.686 1.642-7.372 1.687-9.993-11.013 2.133-15.852 9.416-17.85 14.213Zm-63.72 24.341c0 1.732-.844 3.376-2.353 4.441-1.466 1.067-3.286 1.378-4.929.845-2.842-.888-4.484-4.354-4.484-4.354s-1.644 3.466-4.486 4.354c-1.687.533-3.463.222-4.929-.845-1.465-1.065-2.309-2.665-2.353-4.44 0-2.977 2.753-5.597 2.753-5.597s-3.774-.49-5.55-2.888c-1.021-1.421-1.288-3.243-.71-4.975.576-1.732 1.82-3.064 3.507-3.597 2.842-.933 6.172.889 6.172.889s-.71-3.732 1.066-6.174c1.02-1.423 2.664-2.221 4.485-2.221s3.463.798 4.484 2.22c1.777 2.398 1.067 6.175 1.067 6.175s3.33-1.867 6.172-.889c1.642.533 2.93 1.865 3.507 3.597.578 1.732.311 3.554-.71 4.975-1.732 2.444-5.551 2.888-5.551 2.888s2.798 2.62 2.754 5.596m-4.308-8.528c0-4.042-3.285-7.373-7.37-7.373s-7.371 3.286-7.371 7.373 3.285 7.373 7.37 7.373 7.37-3.287 7.37-7.373Zm5.33 4.131a8.264 8.264 0 0 1 1.02 2.087c1.244-.222 2.442-.444 3.641-.577-.888-.844-1.776-1.688-2.62-2.62-.621.443-1.331.843-2.042 1.065m69.536.4c-.932.489-10.79 5.996-9.458 17.545 2.398-3.643 6.972-8.75 14.165-10.616-1.066-3.642-3.063-5.774-4.707-6.974m33.304-286.976a8.109 8.109 0 0 1-2.043-1.065 73.131 73.131 0 0 1-2.62 2.62c1.199.133 2.442.355 3.641.577a7.011 7.011 0 0 1 1.022-2.087m-1.822-4.131c-1.02-1.421-1.286-3.243-.71-4.975.577-1.732 1.821-3.064 3.509-3.597 2.842-.933 6.171.889 6.171.889s-.71-3.732 1.067-6.175c1.02-1.422 2.664-2.22 4.484-2.22s3.463.798 4.485 2.22c1.776 2.398 1.066 6.174 1.066 6.174s3.33-1.866 6.172-.888c1.642.533 2.93 1.865 3.507 3.597s.311 3.554-.71 4.975c-1.732 2.443-5.551 2.888-5.551 2.888s2.798 2.62 2.754 5.595c0 1.733-.844 3.376-2.353 4.442-1.466 1.066-3.287 1.377-4.93.844-2.841-.889-4.485-4.353-4.485-4.353s-1.642 3.464-4.484 4.353c-1.688.533-3.464.222-4.929-.844-1.466-1.066-2.31-2.665-2.354-4.442 0-2.975 2.754-5.595 2.754-5.595s-3.774-.49-5.506-2.888m7.193 0c0 4.042 3.286 7.373 7.371 7.373s7.371-3.287 7.371-7.373-3.286-7.374-7.37-7.374-7.372 3.288-7.372 7.374Zm7.371 13.28a9.603 9.603 0 0 1-1.644 1.645c.578 1.11 1.155 2.22 1.644 3.286.533-1.11 1.065-2.221 1.643-3.286a7.22 7.22 0 0 1-1.643-1.644Zm12.655-9.194c.444.667.8 1.377 1.021 2.088 1.243-.222 2.443-.445 3.641-.578-.887-.843-1.776-1.687-2.62-2.62-.621.444-1.332.844-2.042 1.066m-20.515-14.88c0-.799.133-1.554.4-2.31a76.037 76.037 0 0 1-3.286-1.688c.222 1.2.4 2.4.578 3.644.799 0 1.554.088 2.308.354Zm17.984-.31c.178-1.244.356-2.443.577-3.643a76.15 76.15 0 0 1-3.286 1.689 6.8 6.8 0 0 1 .4 2.31 8.301 8.301 0 0 1 2.309-.357Z" fill="#fff"/><path d="M494.499 131.074c-5.373 0-16.74-3.42-16.74-3.42s16.429.222 23.223-1.91c0 0-1.11 5.33-6.483 5.33Zm143.202 292.972c1.554 2.088 3.952 4.575 7.371 5.775 7.416 2.708 16.43-3.021 16.43-3.021s.977 12.659-7.371 18.21c-4.173 2.754-9.68 2.977-16.385.623a44.942 44.942 0 0 1-1.554 7.15c2.975 1.333 6.438 3.42 10.123 6.796l.4.445v.622c0 4.574-.443 8.35-.488 8.483l-.178 1.243s-.178.444-.488 1.022c.888 2.266 1.688 5.686.8 9.727-2.577 12.082-15.454 13.947-15.454 13.947s6.573-6.93 3.909-14.302c-.667.222-1.245.355-1.245.355l-1.554-.755c-4.128-2.043-8.125-5.196-10.39-7.15-2.22 9.326.267 19.72.312 19.854l.176.755-.488.62c-4.041 5.02-10.301 7.774-10.567 7.907l-1.022.444s-.71.134-1.599.223c-3.64 7.506-1.198 18.432-1.198 18.432s-3.286-1.554-6.573-5.108c-3.507 3.732-29.04 28.338-95.69 28.338a284.9 284.9 0 0 1-12.123-.266c-53.417-2.266-103.194-29.005-111.454-33.623-1.953 2.798-3.685 5.818-5.106 8.616 4.707 2.31 6.617 7.996 4.307 12.704a9.47 9.47 0 0 1-8.526 5.33 9.269 9.269 0 0 1-4.173-.978c-4.707-2.31-6.66-7.994-4.351-12.702l2.93-5.998c1.954-4.041 4.351-8.882 5.594-13.857-1.642-1.066-3.33-2.133-4.973-3.198-16.917-10.927-32.903-21.232-42.45-18.256-2.087.666-3.508 1.688-4.174 3.11-1.599 3.198.889 7.818.889 7.818s-10.258-2.133-12.079-9.329c-1.154-4.485 1.2-7.772 3.065-9.238.133-2.221.844-8.395 4.173-12.526 4.485-5.595 9.903-6.307 14.698-6.928 8.614-1.111 11.812-5.553 11.812-5.553s1.421 8.884-2.754 14.792c4.263.754 12.656 2.575 20.96 6.35-4.974-6.84-4.219-14.301-2.976-18.832-.755-.933-1.51-2.043-1.51-2.043l.533-2.087c.089-.4 1.82-7.018 4.974-12.437h-.755c-1.51 0-2.754 0-2.842-.045h-.355l-.311-.178c-6.128-3.287-8.659-6.262-8.747-6.395l-.578-.667s-.489-.71-.843-1.599c-8.926.444-16.03 8.484-16.03 8.484 2.043-17.545 11.411-21.231 16.34-21.986.4-1.067 1.11-1.955 1.11-1.955l1.288-.577c.222-.089 5.728-2.443 11.322-3.198h.445l.399.088a105.379 105.379 0 0 0 10.036 3.598c-2.487-2.931-3.775-5.463-3.863-5.64l-.666-1.334s.133-1.021.443-2.043c-7.904-3.82-19.093-.976-19.093-.976s5.595-14.036 25.177-10.438c1.066-.666 1.954-.977 1.954-.977h1.51c.221 0 5.594-.09 10.301 1.154l.889.222.266.888s5.506 18.7 22.601 21.143c6.039-1.288 11.279-3.153 15.675-5.196 17.54-8.04 27.042-20.299 28.952-26.162 4.306-13.325-3.864-24.074-3.908-24.162l-.8-1.022.8-.978c.266-.354 26.953-31.935 66.872-41.085-36.145-8.528-52.663-21.053-58.035-25.939-1.82 5.64 1.021 11.104 1.065 11.193l1.2 2.265-2.576.088c-5.019.178-8.97-1.243-11.59-4.13-2.176-2.398-3.02-5.375-3.33-7.772-4.93 6.928-1.599 13.99-1.555 14.08l1.111 2.31h-2.532c-3.952 0-7.015-1.245-9.191-3.776-2.265-2.577-3.02-5.996-3.242-8.661-4.75 6.573-1.42 13.458-1.243 13.769l1.11 2.22-2.486.09h-.533c-3.996 0-7.06-1.244-9.191-3.731-2.043-2.444-2.754-5.553-2.932-8.174-3.995 6.307-1.331 12.215-1.198 12.526l1.155 2.4-2.665-.135c-4.707-.267-8.126-1.91-10.169-4.93-1.864-2.754-2.175-6.13-1.997-8.883-5.684 6.795-2.132 13.014-1.955 13.325l1.955 3.242-3.686-.888c-5.906-1.422-10.08-4.086-11.546-8.262-.088-.266-.133-.489-.221-.755-3.241 1.111-7.949 2.088-14.077 2.932 1.999 8.128 1.288 12.97 1.245 13.414v.489l-.312.4c-2.53 3.242-6.615 5.551-6.793 5.64l-.889.488c-6.794 13.814-24.733 11.016-24.733 11.016s7.194-5.775 8.037-13.147c-.444-.4-.665-.712-.665-.712l-.4-1.554c-1.332-5.418-.8-11.193-.489-13.725-8.348 4.22-15.852 11.993-15.94 12.082l-.267.266-.356.09c-3.018.888-6.927 1.02-9.324 1.02-1.243 0-2.042 0-2.132-.044l-1.331-.088s-.4-.045-1.022-.223c-7.594 5.464-7.238 16.479-7.238 16.479-9.191-11.948-6.616-21.453-4.13-26.25-.221-.933-.266-1.51-.266-1.51l.666-1.777c.133-.311 1.998-5.286 5.906-9.728-8.437-.177-14.654-2.22-14.965-2.31l-1.11-.354s-1.154-.933-2.131-2.177c-11.323.978-16.119 9.594-16.119 9.594-1.464-18.522 8.881-23.718 14.343-25.184.311-.845.621-1.51.621-1.51l.667-.755c.178-.222 4.751-5.597 13.277-6.797l.532-.088.49.266s4.439 2.532 12.876 4.709c-2.487-1.51-4.13-2.754-4.262-2.843l-.445-.355-.133-.534a46.225 46.225 0 0 1-1.11-6.13c-2.62-1.332-12.166-5.373-20.16 2 0 0 3.775-14.524 18.783-15.324 7.637-.4 11.812 1.554 13.145 2.31 1.286 0 5.195.133 7.814.755l.577.133.356.489s9.813 14.08 29.928 21.808c8.082-1.554 15.807-5.063 29.395-12.125 1.82-.933 3.641-1.91 5.418-2.932-15.72-8.262-26.11-16.567-29.928-19.854l-1.333 3.02-1.288-.267c-.71-.177-17.717-3.996-30.594-12.836l-.621-.444v-.755c-.09-.577-1.022-13.947 1.11-27.538l.221-1.332h3.242c0-18.078.755-30.381 1.066-34.868h-2.043l-.533-.755c-3.286-4.93-3.463-12.081-.622-16.922-1.997-2.444-3.995-6.086-4.306-11.016-2.265 1.91-4.04 3.153-4.04 3.153v-9.904s-.401.355-.668.533a9.579 9.579 0 0 1-5.772 1.91 9.635 9.635 0 0 1-6.128-2.222 59.755 59.755 0 0 1-10.435-11.193l-.665-.932.665-.933c3.064-4.22 6.573-7.994 10.435-11.193a9.67 9.67 0 0 1 11.9-.31c.267.221.533.4.8.62v-.576c0-1.688.621-3.243 1.776-4.442l1.599-1.688c1.554-1.643 4.44-1.643 5.994 0l1.599 1.688s.133.177.178.267a.951.951 0 0 0 .177-.267l1.598-1.688c1.554-1.643 4.441-1.643 5.995 0l1.6 1.688s.132.177.176.267c.09-.09.133-.178.178-.267l1.599-1.688c1.554-1.643 4.44-1.643 5.993 0l1.6 1.688s.133.177.177.267c.089-.09.133-.178.222-.267l1.599-1.688a3.811 3.811 0 0 1 1.909-1.11c0-.134 0-.267.044-.4.889-6.174 4.751-12.57 4.751-12.57l11.68 14.347c.31-7.284-.623-14.88-3.064-20.032l-1.111-2.31h23.89l-1.111 2.31c-2.265 4.664-3.197 11.415-3.108 18.033 6.527 3.11 20.293 4.353 27.486 4.575l25.8.8c.399-.666.798-1.289 1.109-2l-2.842-1.376.533-1.377c5.061-12.748 9.902-26.739 8.837-45.26l-.134-2.266 2.175.622s4.397 1.332 8.526 5.286c3.774 3.642 8.26 10.349 8.037 21.63v1.644l-1.687-.09c-3.375-.177-6.172 1.112-7.283 3.377-1.73 3.598.933 8.528 5.95 10.97 2.488 1.244 5.196 1.644 7.594 1.156 2.22-.444 3.907-1.6 4.706-3.243 1.466-3.02-.221-7.195-4.085-9.86l-1.331-.933.977-1.288c2.442-3.288 11.456-14.125 26.242-16.08l1.021-.132.533.888c7.594 12.836 4.619 26.65 3.509 30.558l-.445 1.556-1.554-.49c-4.485-1.377-8.792-.177-10.258 2.887-.798 1.644-.62 3.554.178 5.375l18.517.578c-.178-1.644-.932-3.332-2.31-4.886l-1.065-1.245 1.288-1.021c8.747-7.151 16.784-7.773 21.98-7.018 5.683.8 9.28 3.331 9.414 3.42l1.908 1.378-1.998 1.243c-3.819 2.443-7.237 5.464-10.301 8.75l80.549 2.577 24.643 9.86-24.643 9.86-97.023 3.066c-.489 1.065-.71 1.687-.755 1.732l-.622 1.598-2.575-1.244c-4.219 10.705-2.22 19.633 1.555 23.542 4.44 4.575 11.056.532 11.056.532s-1.11 10.039-7.105 11.504c-2.22.533-4.44.49-6.128.223.445.666 1.2 1.421 2.265 2.132 3.952 2.62 10.435.444 10.435.444s-.888 9.238-7.548 11.282c-2.221.666-4.486.71-6.084.622.355 2.309 1.554 6.084 5.417 6.573 5.773.71 9.547-4.886 9.547-4.886s2.93 14.125-7.105 17.723c-3.552 1.288-6.927.888-9.236.221.667 1.51 1.955 3.243 4.263 4.043 6.083 2.176 11.679-2.888 11.679-2.888s-.667 14.213-9.68 15.59c-4.219.623-7.55-.266-9.68-1.199.31 2.176 1.42 5.197 5.105 6.93 8.082 3.775 13.055-2.177 13.055-2.222 0 0 .844 9.861-6.261 13.903 12.7 17.234 21.225 23.852 28.109 29.226 4.35 3.375 8.081 6.307 11.988 11.015 7.46 8.973 16.785 18.567 33.437 18.567 17.583 0 35.345-11.238 35.345-32.647 0-14.923-10.745-22.963-17.23-27.76-1.553 3.82-1.996 8.395-.931 14.258 6.305 34.29-23.357 36.2-23.357 36.2s8.837-9.373 7.238-19.988c-3.241 17.278-19.448 15.235-19.448 15.235s6.216-7.552 6.127-14.79c-5.062 9.326-16.607 8.483-16.607 8.483s6.705-6.618 3.686-18.123c-1.066-4.086-2.265-8.75-.534-15.278 2.088-8.04 10.613-13.859 20.826-19.367-15.363-10.393-29.084-23.54-29.084-46.903 0-21.231 17.495-42.64 47.112-42.64s47.157 19.632 46.935 42.373c-.266 25.362-13.943 35.356-26.02 44.15-1.511 1.11-2.976 2.177-4.397 3.243 6.127 3.775 16.164 10.793 21.226 23.94 1.998-.488 5.594-1.066 9.146-.133 12.034 3.11 9.059 17.855 9.059 17.9 0 0-5.95-5.197-10.302-4.13-1.776.444-3.153 1.553-4.13 2.62 2.798 0 6.573.444 9.192 2.931 7.993 7.685 1.554 17.945 1.554 17.945s-4.795-6.53-10.301-6.04a8.045 8.045 0 0 0-3.952 1.465c3.952.888 8.836 3.731 9.947 10.571 2.042 12.436-9.015 16.878-9.015 16.878s.755-8.35-2.576-11.326c-2.086-1.865-4.928-2.043-6.216-1.998-7.282 9.904-21.225 21.32-46.979 22.03 6.483 9.55 19.715 3.51 19.715 3.51s.356 9.105-6.35 13.236c-3.063 1.865-6.882 2.22-11.456 1.065 5.373 6.751 16.297 4.798 16.297 4.798s-1.6 7.86-8.127 10.614c-2.486 1.067-5.283 1.156-8.258.268 1.554 3.241 5.639 8.039 16.43 8.039 3.818 0 6.882-.178 9.28-.311 9.324-.533 11.19-.311 15.363 9.949l.755 1.865c4.396 10.972 8.481 18.878 21.27 17.59 0 0 .088 6.484-6.484 10.437-2.486 1.51-5.461 2-8.88 1.555 5.905 9.816 20.737 5.952 20.78 5.952 0 0-1.154 10.793-9.724 15.279-3.996 2.088-8.747 2.354-14.21.755M609.105 254.73c-3.33-18.21 7.105-25.806 18.162-33.845 11.456-8.35 24.466-17.811 24.732-41.619.223-20.21-14.652-39.175-43.738-39.175s-43.96 20.343-43.96 39.486c0 22.608 13.9 35.134 29.086 45.216 1.687-.888 3.374-1.732 5.062-2.62 2.086-1.066 4.218-2.132 6.305-3.243-19.715-10.704-29.707-23.407-29.707-37.71 0-23.895 16.075-29.136 16.075-29.136s5.595 2.798 3.685 9.816c1.998-.667 3.419-1.689 4.263-3.065 2.575-4.22-.71-10.527-.71-10.527s6.66 1.2 9.28 6.707c1.199 2.531 1.376 5.42.621 8.705 1.955-.532 4.574-1.642 5.907-3.908 2.574-4.352-2.532-13.37-2.532-13.37s12.478 4.353 11.767 15.68c0 0 2.531-.844 3.375-1.999 2.798-3.908-.044-8.75-.044-8.75s15.185 8.306 15.185 27.583c0 24.562-22.29 35.977-42.006 46.06-12.92 6.618-25.177 12.88-27.485 21.675-1.51 5.775-.444 9.772.533 13.68 1.154 4.398 2.309 8.883-.623 15.014 10.613-3.288 9.992-17.368 9.992-17.368s7.681 11.681.799 23.986c13.277-3.865 10.258-24.385 10.258-24.385s11.367 12.303 2.885 27.716c3.287-1.378 17.052-7.818 12.878-30.604m-19.804-88.656s4.707-6.706 1.332-10.304c-3.108 1.643-12.522 7.995-12.522 25.495 0 13.503 10.08 25.54 29.929 35.888 15.807-8.616 30.593-19.365 30.593-38.153 0-10.438-4.795-17.1-7.948-20.388-1.199 7.462-11.19 7.151-11.19 7.151s1.422-7.106-1.465-10.926c1.687 12.66-14.476 12.748-14.476 12.748s4.13-8.928-.4-13.37c.09 1.865-.132 4.176-1.42 6.263-2.975 4.975-12.433 5.596-12.433 5.596Zm-55.728-52.944c-2.131 2.576-4.085 5.197-5.772 7.773h55.949c9.37 0 31.749 1.599 31.749 1.599s-22.38 1.599-31.75 1.599h-57.99a112.992 112.992 0 0 0-4.485 8.084l94.846-3.02 16.74-6.708-16.74-6.707-82.591-2.62h.044Zm-15.052-9.372c2.264 3.243 2.753 6.973 1.287 9.994-2.087 4.308-7.638 6.13-13.277 4.708.667 2.132 1.777 6.662.667 11.237l9.591 4.664c2.398-5.507 11.19-23.763 25.976-34.29-3.997-1.865-13.321-4.53-24.244 3.687Zm-17.23 8.306a13.485 13.485 0 0 0 3.375 2.354c4.885 2.399 10.258 1.555 12.123-1.865l-15.541-.49h.043Zm-50.354-9.772 34.991 17.012c6.528-.577 13.144-1.377 16.608-2.442-6.084-3.333-9.059-9.818-6.617-14.792 1.954-4.042 7.016-5.996 12.433-4.93 1.066-4.753 2.532-15.5-3.064-25.673-11.456 1.91-19.049 9.683-22.113 13.458 4.174 3.599 5.773 8.795 3.818 12.837-1.243 2.576-3.729 4.353-6.927 4.975-3.063.577-6.483.088-9.59-1.421-6.617-3.2-9.903-10.039-7.416-15.191 1.465-3.02 4.706-4.93 8.658-5.153-.266-13.725-8.213-19.41-12.122-21.364.533 17.278-3.863 30.603-8.614 42.73m1.599 4.307c-2.975 5.908-8.215 10.882-9.814 12.303-.178 1.599-.266 4.397-.31 5.464v.399l-.222.356c-.089.133-7.371 12.526-11.812 22.297.622.977 2.176 2.976 4.973 4.708 6.884-.133 8.215-4.575 8.215-4.575 1.376 6.751-5.418 7.996-7.637 8.217-.711 1.732-1.421 5.597 2.93 10.26h14.388c3.151-5.596 7.725-8.75 12.566-8.75 9.236 0 16.74 11.682 16.74 26.03s-7.504 26.027-16.74 26.027c-4.796 0-9.281-3.11-12.478-8.572h-14.253c-3.331 6.707.044 13.014.088 13.014 0 0-1.376 3.508-13.277 3.997 2.975 3.598 11.102 5.552 11.102 5.552s-5.33 4.398-17.496 7.595c-4.884 1.288-8.17 3.466-9.813 6.708-1.154 2.354-1.42 5.286-.755 8.35 1.421-2.176 3.774-4.708 7.326-5.863 4.441-1.422 8.926-1.821 12.79-1.866 6.482-.088 12.477-1.021 15.096-6.973 0 0 3.064 6.352-4.04 9.15-.71 1.866-1.82 5.774-.444 9.372.799 2.087 2.353 3.775 4.617 5.108-.62-13.148 12.478-17.945 12.478-17.945s-4.973 12.57 5.062 17.634c-.488-12.748 11.145-20.254 11.145-20.254s-3.374 9.904 1.2 16.256c1.775 2.444 4.529 4.13 8.214 4.975-5.506-14.302 8.392-22.164 8.392-22.164s-2.531 11.015 3.064 16.878c2.398 2.487 5.906 3.82 10.524 3.865-7.771-10.838-.177-20.477-.177-20.477s4.351 7.907 12.832 6.13c4.13-.844 5.906-3.776 6.66-6.04-2.397.755-6.082 1.066-10.523-1.022-9.503-4.487-6.528-15.412-6.528-15.412s5.196 4.663 11.99 3.641c3.108-.444 4.84-3.775 5.683-6.351-2.087.622-5.017.977-8.303-.222-8.126-2.931-7.372-12.481-7.372-12.481s6.173 4.442 12.3 2.22c3.908-1.421 5.062-5.33 5.33-8.083-1.733.932-4.175 1.732-7.105 1.376-9.148-1.11-8.393-13.37-8.393-13.37s4.973 1.067 8.48 0c2.132-.665 3.42-2.62 4.13-4.219-2.175.134-5.239-.088-7.815-1.776-5.416-3.553-4.572-9.15-4.572-9.15s5.328 2.044 9.413 1.022c1.509-.356 2.619-2 3.33-3.554-3.242.4-6.35-.666-8.792-3.197-4.529-4.665-7.016-15.058-2.131-27.139l-6.883-3.376c-4.04 8.35-13.1 6.174-14.786 3.153 0 0 10.123 1.466 12.388-5.64 1.244-3.954.133-7.24-.444-9.416-5.683 1.642-14.875 2.354-21.58 2.575-3.73.133-7.77-1.021-10.79-3.11 2.087-.087 5.239-.22 8.747-.443l-27.086-13.192h.178Zm-59.59 108.244a15.978 15.978 0 0 0 2.797-3.82c-4.307.444-8.793-1.2-12.21-4.62-3.42-3.42-5.064-7.95-4.62-12.215-1.42.712-2.663 1.644-3.818 2.799-2.752 2.754-4.351 6.263-4.573 9.86-.223 3.554.977 6.841 3.33 9.195 4.929 4.93 13.454 4.353 19.049-1.2m7.948-8.66-.932 3.109c-.622 2.087-1.599 3.953-2.842 5.64 4.707 1.865 15.497 6.352 24.733 12.037a58.95 58.95 0 0 0 7.371-2.842c-6.306-3.066-8.348-9.506-8.348-9.506s10.347.755 14.565-1.777c-3.197-8.305 2.042-15.278 2.042-15.278h4.308c1.065-4.487 2.975-7.33 4.84-9.105-9.237.62-21.004 1.598-27.442 1.598-11.812 0-19.45-6.53-19.45-16.656 0-9.284 7.505-16.834 16.741-16.834 8.037 0 12.79 6.218 12.79 6.218s-8.66-.089-8.438 7.463c.178 4.885 3.863 7.372 10.968 7.372 5.373 0 10.168-.089 15.497-.044-1.82-1.643-3.952-4.309-5.018-8.35h-4.574l-.444-.444c-6.128-6.13-5.062-11.682-3.996-14.258-4.263-2.843-5.861-6.13-5.95-6.264l-.31-.665.31-.667c1.244-2.797 2.753-5.818 4.262-8.75l-8.614.267c-7.148.222-20.959 1.465-27.486 4.575-.089 6.663.888 13.37 3.108 18.033l1.111 2.31h-20.604c-.355 1.865-.977 3.642-1.999 5.196l-.532.755h-2.087c.266 4.087 1.155 14.303 3.997 21.632a14.932 14.932 0 0 1 2.353-.889l3.108-.933-1.155 3.02c-1.464 3.865-.176 8.706 3.153 12.037 3.33 3.332 8.17 4.62 12.034 3.154l3.02-1.155h-.09Zm-5.373-66.715c9.059-3.509 25.31-4.174 27.22-4.22l10.39-.31c2.754-5.196 5.285-9.55 6.084-10.926h-40.186c-1.864 3.553-3.108 9.327-3.508 15.501m22.07 30.825c-.179-4.93 2.442-7.728 5.017-9.15-1.42-.755-3.508-1.466-6.216-1.466-7.504 0-13.588 6.13-13.588 13.636 0 8.44 6.084 13.503 16.296 13.503 7.637 0 31.083-2.132 38.143-2.132 6.661 0 12.7 2.088 16.607 3.82-2.398-3.198-7.371-7.196-17.317-7.551-9.591-.4-15.408-.177-24.866-.177-11.99 0-13.988-6.575-14.121-10.438m27.486 27.138h7.06c-.799-2.532-1.421-5.907-1.776-8.084-1.599 1.067-4.041 3.331-5.329 8.084m20.959 8.572c5.151 0 9.636-4.841 11.945-11.947-3.64-2.221-11.545-6.307-20.56-6.307a70.71 70.71 0 0 0-3.951.133c.888 10.172 5.373 18.121 12.61 18.121m13.544-22.83c0-12.614-6.084-22.83-13.588-22.83-9.902 0-12.61 14.302-13.01 17.234 1.2 0 2.487.088 3.775.133 14.475.577 19.98 7.906 22.069 12.97a36.69 36.69 0 0 0 .754-7.462m-27.62-14.125h-6.393c1.11 3.42 3.063 5.507 4.53 6.619.398-1.822 1.064-4.398 1.863-6.619Zm-56.393-63.87c.4 6.173 1.644 11.948 3.508 15.5h40.364c.088-1.11.178-2.264.31-3.02l.09-.577.443-.356s3.242-2.753 6.217-6.529l-23.711-.755c-1.954-.045-18.162-.71-27.22-4.22M380.78 84.704c4.085 11.237 2.753 29.447-1.598 37.71 4.35 8.261 5.639 26.516 1.598 37.709h13.898c-4.085-11.238-2.752-29.448 1.599-37.71-4.351-8.261-5.684-26.517-1.599-37.71H380.78Zm-19.45 25.005v23.364c3.642-3.243 7.861-4.131 7.861-4.131v-12.747c-3.464-3.464-5.596-5.685-5.862-9.905l-1.065 1.11a3.306 3.306 0 0 0-.888 2.266m-9.636.043v27.45c3.153-2.487 6.44-5.863 6.44-8.26v-19.19c0-.843-.312-1.642-.89-2.264l-1.598-1.688s-.444-.311-.71-.311-.489.089-.711.31l-1.6 1.689a3.31 3.31 0 0 0-.886 2.265m-9.636 0v27.449c3.153-2.487 6.438-5.863 6.438-8.26v-19.19c0-.843-.31-1.642-.888-2.264l-1.598-1.688s-.445-.311-.71-.311-.534.089-.711.31l-1.6 1.689a3.305 3.305 0 0 0-.887 2.265m-12.921 20.077.088-15.37a39.16 39.16 0 0 0-2.664-2.22c-2.398-1.777-5.64-1.688-7.949.222a57.686 57.686 0 0 0-9.191 9.638c3.42 4.53 6.838 7.73 9.191 9.683 2.31 1.91 5.596 2 7.949.223 1.288-.978 2.131-1.689 2.62-2.133m3.242 7.329c3.152-2.487 6.438-5.863 6.438-8.26v-19.19c0-.843-.311-1.642-.932-2.264l-1.6-1.689s-.443-.31-.71-.31-.532.089-.71.31l-1.6 1.689c-.576.622-.931 1.42-.931 2.264v27.45h.045Zm9.812 14.835h30.595c3.552-2.176 6.128-6.751 6.882-12.348-.4-6.662-1.82-12.88-3.907-16.344l-.489-.845.49-.844c1.775-2.931 3.063-7.773 3.64-13.191l-10.79-13.28c-.755 1.732-1.732 4.352-2.131 7.372-.844 5.863.666 7.373 5.062 11.815l.62.622v17.19c-11.589 2.043-15.985 15.101-15.985 15.101-.4-4.264.445-7.506 1.777-10.038v-1.6c-3.774 4.31-9.59 7.685-9.59 7.685v-7.684c-3.776 4.309-9.593 7.684-9.593 7.684v-8.084a48.155 48.155 0 0 1-2.53 2.71c-.534 7.772 3.641 12.302 5.95 14.169m-1.732 13.814h33.969c1.598-3.021 1.643-7.108.222-10.75h-35.035c-1.154 3.331-.888 7.507.888 10.75m2.176 38.33h24.955c.71-3.509 2.487-6.795 5.151-9.415a17.312 17.312 0 0 1 2.664-2.178c-3.241-7.994-4.173-19.054-4.44-23.229h-27.264c-.311 4.175-1.066 16.568-1.11 34.867m32.77 16.79a14.27 14.27 0 0 1-3.82-2.71c-2.84-2.842-4.35-6.751-4.261-10.97h-28.33c-1.554 10.97-1.155 21.807-.977 24.739 10.302 6.84 23.49 10.571 27.575 11.637l9.812-22.653v-.043Zm26.597 41.307c13.055-7.55 24.334-15.768 30.683-20.609h-3.108a35.13 35.13 0 0 0-11.989 1.687c-6.57 2.133-8.792 11.016-8.792 11.016s-6.171-9.239-1.909-18.255c1.82-3.864 5.462-6.485 10.613-7.995-9.236-5.33-19.316-9.372-22.78-10.66-3.596 3.376-8.126 5.152-12.522 5.152-1.286 0-2.574-.177-3.818-.488l-8.304 19.187c3.02 2.62 14.432 12.082 31.927 21.054m-80.637-4.575c-1.865-.577-4.885-1.2-9.148-.977-5.684.31-9.414 3.02-11.59 5.42 6.039-1.29 11.501.665 13.899 1.731 1.11-1.377 3.42-3.82 6.882-6.219m12.433 21.632c2.177.221 4.441.4 6.839.532 6.972.311 12.3.444 17.05.09-15.807-7.374-24.155-17.812-25.975-20.299-2.265-.444-5.418-.533-6.528-.577-4.84 2.842-7.68 6.174-8.57 7.328.09.889.312 2.799.933 5.33 1.865 1.332 9.324 6.396 16.341 7.596m-53.951 18.698c2.886-2.131 7.86-4.707 14.92-4.707a44.518 44.518 0 0 0-1.687-9.55c-3.198.622-11.768 3.287-13.233 14.302m36.233 22.342c-1.554-3.598-5.15-5.508-7.549-6.396-1.554 2.044-5.24 8.218-1.464 17.233 1.198-3.42 3.774-8.039 9.013-10.837Zm45.87 6.796c-3.42-2.133-8.082-2-10.835-1.688.09 4.93-2.175 9.06-4.04 11.682 4.306-.49 11.544-2.444 14.919-9.994m10.301 73.465c1.421-1.51 2.932-3.687 3.642-6.529-10.08-2.399-16.208.31-19.36 2.709 4.307-.133 10.834.356 15.718 3.82Zm6.262 11.904c9.547 2.132 18.25 2.442 25.932 1.598-11.9-5.062-16.74-17.1-17.94-20.565-2.663-.577-5.505-.755-7.149-.843-.754 6.573-5.106 10.616-7.326 12.348 1.021 1.687 3.241 4.841 6.483 7.462Zm-42.273 14.39c3.108-1.91 7.949-4.04 13.41-3.642.489-2.843.489-5.375.31-7.285-2.53.09-10.523 1.245-13.72 10.927Zm24.334 19.765c3.552.445 10.7 2.266 15.053 10.305 1.687-1.332 4.573-3.864 6.927-7.506l.177-.267.266-.177c.4-.267 7.594-5.063 21.004-7.55 4.529-.844 10.434-.668 14.609 1.242 0 0-2.62-.088-7.193.534-.223 1.82-.623 6.218-.268 10.393 3.376-.355 10.835-.444 16.03 4.576.934-1.29 2.265-3.42 3.109-6.041 0 0-1.332-10.838-7.816-17.323 0 0 3.198.311 6.173 3.953 7.593-4.886 10.967-8.839 11.012-8.884l3.197-3.82-.4 4.976s-.488 6.618 3.508 10.527c1.955 1.91 4.752 2.931 8.26 3.02-2.398-3.864-5.506-11.637.487-21.143l2.4-3.775.532 4.442s.843 6.751 5.905 10.438c2.62 1.91 5.95 2.709 9.903 2.442-2.798-3.775-6.573-11.814-.311-23.185l2.309-4.176.666 4.709c.09.444 1.643 10.57 11.19 11.06-1.555-3.42-2.887-9.905 4.04-17.012 2.043-2.087 4.041-3.82 5.773-5.374 6.438-5.641 9.68-8.484 5.417-17.59-1.688-3.552-1.82-6.928-.444-10.127 4.04-9.238 20.782-16.256 46.491-24.518v-.133c-1.243-6.884-2.397-13.37-5.772-18.966-5.151-8.572-13.854-14.48-15.63-15.634-38.765 5.908-66.429 34.911-71.357 40.463 2.175 3.287 7.77 13.46 3.685 26.029-2.665 8.172-14.032 20.432-30.64 28.071-14.519 6.662-37.964 11.992-67.36-.222-3.552.533-7.06 1.732-8.836 2.399.488 2.532 1.155 8.083-.799 14.435.977.932 3.152 2.799 6.927 4.842.932 0 3.375.088 5.283 0 .667-.845 1.421-1.555 2.177-2.178l.62-.487.756.221s16.874 3.687 36.766-1.554c0 0-4.173 9.994-36.81 4.797-3.552 3.197-6.04 10.35-7.105 13.725m236.983 11.192c1.2-1.021 2.22-2.131 3.154-3.33-7.505-.844-12.212-7.018-13.322-8.662-3.997-2.043-8.747-2.754-11.235-3.02.134 3.243 0 9.994-3.108 16.256 2.043 1.688 7.816 5.464 16.341 3.642 2.798-1.11 5.595-2.665 8.17-4.93m-24.6-12.703c-11.011 2.132-15.851 9.416-17.85 14.213 3.597-2.132 9.415-4.664 16.164-4.22 1.287-3.686 1.642-7.373 1.687-9.993Zm23.979-46.55c-4.573-9.015-25.088-5.373-25.266-5.328l-.754.133-.577-.534c-15.275-13.591-18.695-26.872-20.915-38.864-20.958 6.75-40.453 14.124-44.137 22.608-1.022 2.354-.888 4.796.4 7.506 5.283 11.237.22 15.68-6.174 21.32-1.73 1.511-3.685 3.198-5.594 5.197-8.037 8.261-2.62 14.968-2.353 15.28l1.909 2.265-2.93.354c-9.104 1.022-13.9-4.397-16.03-9.371-4.174 11.281 3.108 17.545 3.463 17.811l2.575 2.132-3.285.622c-6.173 1.154-11.323.31-15.275-2.62-3.286-2.4-5.063-5.73-6.04-8.35-3.729 9.46 2.531 15.944 2.842 16.21l2.31 2.355-3.287.356a31.08 31.08 0 0 1-2.797.133c-4.617 0-8.303-1.333-10.968-3.953-2.84-2.799-3.907-6.485-4.307-9.239-1.91 1.732-4.84 4.131-9.058 6.84 1.332 2.443 2.486 5.82 3.063 10.483l.09.399-.133.4c-1.6 5.33-4.885 8.883-5.019 9.061l-1.243 1.333s-1.287.266-2.753.178c-6.483 11.592-19.938 11.37-19.938 11.37 4.886-5.818 5.907-11.638 5.907-15.368-1.2-.978-1.998-1.91-1.998-1.91l-.223-1.688c-.577-4.442-.221-9.284 0-11.904-5.905 1.066-13.899 3.243-23.179 7.684-3.952 5.908-8.969 9.106-9.146 9.24l-1.555.976s-2.842-.222-4.707-.888c-2.93 3.997-3.64 9.105-3.774 12.17a823.01 823.01 0 0 1 16.873 8.04c1.599-2.31 3.243-5.064 4.885-8.262-4.707-2.31-6.616-7.994-4.308-12.703 2.31-4.708 7.994-6.662 12.7-4.353a9.398 9.398 0 0 1 4.796 5.463c.8 2.4.666 4.975-.444 7.24l-2.93 5.997c-1.644 3.33-3.553 7.195-4.84 11.237 7.68 3.776 51.375 24.474 89.562 26.517 35.923 1.91 57.059-8.661 66.916-15.59-.532-9.284 4.796-15.058 8.305-17.812-.178-.577-.267-1.066-.267-1.066l.977-1.776c.177-.267 3.907-6.93 10.967-11.015l.533-.311.577.133s2.975.577 7.15.444c-4.662-1.688-7.327-4.397-7.504-4.575l-.8-.844s-.31-.667-.666-1.555c-10.834.622-18.517 9.15-18.517 9.15s1.243-19.987 20.427-24.962c1.198-1.732 2.264-2.887 2.264-2.887h1.864c.356.044 8.393.311 14.787 3.73l.355.223.223.355s4.973 7.863 13.01 7.596c10.257-17.59-1.554-44.284-5.905-52.856m-5.596 89.366c-4.306 2.666-9.147 5.063-9.413 5.197l-.4.177h-.444c-6.883-.532-12.655-2.264-12.922-2.309l-.976-.311s-.578-.178-1.288-.533c-3.997 1.6-7.283 4.842-9.68 8.04 5.239 3.154 21.048 11.726 40.318 12.659-1.42-2.755-2.486-6.13-2.752-10.127a10.572 10.572 0 0 1-2.31-1.155l-.133-1.955c0-.31-.355-4.753 0-9.638m-24.91-1.377c-1.066-3.642-3.064-5.775-4.707-6.974-.933.489-10.79 5.997-9.459 17.545 2.398-3.642 6.972-8.75 14.165-10.571Zm-155.68-16.346c3.73-1.288 9.502-4.397 12.166-11.192-3.153-1.955-6.927-2.31-9.547-2.221.222 2.753.09 7.728-2.62 13.458m-47.645-1.777c.71-3.82 2.62-9.46 7.504-13.147-2.886-3.332-6.26-4.665-8.703-5.197-1.155 2.798-3.597 10.749 1.244 18.344m9.235 31.847c.356-2.754.223-5.464-.62-7.995l-.49-1.422 1.376-.577c2.754-1.11 5.418-3.331 8.127-6.707-3.686-1.821-12.7-6.174-19.804-9.372-15.23-6.796-27.708-7.55-27.708-7.55l2.53-2.31c2.665-2.443 3.597-5.775 3.908-8.173-2.664 1.377-5.55 1.777-8.392 2.132-4.619.577-8.97 1.155-12.656 5.775-3.774 4.708-3.507 12.258-3.507 12.258s-4.308 2.043-3.109 6.751c.621 2.444 2.664 4.043 4.396 5.02 0-1.243.178-2.71.889-4.131 1.11-2.221 3.152-3.82 6.083-4.752 10.967-3.42 27.575 7.284 45.114 18.61 1.287.844 2.575 1.644 3.863 2.488m-.932 20.742s7.015-16.834 16.918-21.809c-2.265-9.105 2.575-18.966 6.128-26.25l2.93-5.996c.755-1.51.844-3.242.311-4.841-.533-1.6-1.687-2.888-3.197-3.642-3.108-1.556-6.927-.223-8.437 2.886-.754 1.51-.888 3.243-.311 4.842 1.154 3.198 6.306 4.575 6.306 4.575s-7.15 16.789-16.919 21.808c2.265 9.105-2.574 18.966-6.127 26.25l-2.931 5.997c-1.51 3.108-.222 6.928 2.886 8.439 3.109 1.554 6.927.223 8.437-2.887.755-1.51.667-3.199.31-4.841-.798-3.465-6.304-4.575-6.304-4.575m226.594-7.063c-21.137-.532-38.188-9.905-43.65-13.28-1.954 3.02-3.019 5.463-3.019 5.463a31.57 31.57 0 0 1-1.91-6.085c-24.954 16.789-56.392 15.812-67.538 15.235-37.965-2-81.126-22.076-90.273-26.561-.8 3.464-.977 6.973 0 10.26 5.55 2.798 50.798 24.829 99.199 26.872 45.38 1.91 73.31-11.904 73.31-11.904s-19.804 15.68-73.443 15.102c-48.89-.533-94.404-23.94-100.487-27.183-2.664 1.244-5.107 3.465-7.238 6.13 9.148 5.108 57.725 30.825 109.678 33.045 74.02 3.154 102.263-23.806 105.415-27.094m8.081-14.17c-3.108-1.687-6.66-1.82-9.28-1.553.045 3.064.755 10.97 6.039 16.256-.089-3.909.31-9.994 3.241-14.702Zm35.39-28.737c-2.752 1.112-4.707 3.243-5.95 5.065 1.243 1.953 3.508 6.618 1.777 12.569 2.175-1.554 4.617-4.175 5.506-8.35a13.539 13.539 0 0 0-1.288-9.284m-10.879-53.255s11.633 6.44 19.27 2.442c3.952-2.086 6.04-6.04 6.972-8.571-19.138 2.043-21.491-14.391-21.491-14.391s7.86 2.843 12.211.266c2.087-1.243 3.286-3.198 3.952-4.619-12.522-.8-15.719-8.75-20.027-19.5l-.754-1.82c-3.419-8.483-3.775-8.44-12.256-7.995-2.486.133-5.55.31-9.458.31-21.402 0-20.78-16.611-20.78-16.611s6.926 4.042 11.367 2.22c2.22-.933 3.73-2.798 4.618-4.308-15.186-.355-17.184-13.636-17.184-13.636s9.857 5.152 15.452 1.644c2.442-1.51 3.597-4.087 4.174-5.952-16.607 4.086-20.826-11.238-20.826-11.238s32.549 2.71 49.777-21.364l.4-.533.667-.089s5.506-.755 9.368 2.71c1.998 1.777 3.198 4.308 3.597 7.506 1.687-1.91 3.553-5.241 2.754-10.127-1.644-10.038-12.744-8.173-12.744-8.173s2.885-6.929 9.634-7.55c3.464-.31 6.794.889 9.636 3.42.577-2.443.755-6.486-2.797-9.861-4.04-3.864-13.055-1.11-13.055-1.11s2.842-8.217 9.414-9.816c2.62-.667 5.373-.223 8.17 1.288-.31-3.02-1.687-7.55-6.927-8.928-4.396-1.155-10.346.977-10.346.977s-3.641-16.523-21.846-25.806c-3.065 2.532-5.684 5.152-7.55 8.262.134.088.267.178.4.31 6.927 5.153 18.561 13.814 18.561 30.382 0 17.81-13.232 35.8-38.542 35.8-17.14 0-27.398-9.462-35.88-19.722-3.685-4.442-7.325-7.284-11.5-10.526-7.104-5.552-15.984-12.437-29.217-30.514-.222.043-.355.133-.578.177-6.305 1.288-10.79-1.688-13.055-3.776-3.952 9.195 6.617 17.723 6.617 17.723s-12.966 2.664-19.715-4.442c-3.42-3.598-4.352-8.35-4.53-11.682-6.971 8.35 1.2 18.788 1.2 18.788s-11.501 0-16.608-7.062c-2.31-3.198-2.975-6.84-3.063-9.638-5.862 7.818-2.71 16.612-2.71 16.612s-13.898-2.576-13.498-16.168c-8.215 6.663-3.774 16.968-3.774 16.968s-8.837-1.333-11.856-9.283c-1.022-2.754-.977-5.552-.577-7.818-7.283 5.641-23.402 17.545-41.386 26.872-24.82 12.837-30.86 14.303-54.216 13.192-2.31-.133-4.485-.267-6.616-.49h-.356c-16.518-1.731-25.887-6.217-28.107-7.416-5.285.888-8.792 3.686-10.125 4.974.888 2.31 2.887 8.395 2.842 16.39 2.487.666 8.792 2.132 16.252 1.776a18.286 18.286 0 0 1 3.685-2.264l.4-.178h.444s18.206 1.732 29.485-2.71c0 0-.71 7.996-29.352 5.952-5.461 2.71-8.88 8.75-10.257 11.638 3.242 1.022 9.591 3.908 11.057 10.704 1.954 0 5.86 0 8.792-.8 18.96-20.565 27.708-12.081 27.708-12.081-2.131-.134-4.396.31-6.66 1.155-.223 1.732-.889 7.817 0 12.926 3.196-.534 10.39-1.156 15.275 2.797 1.154-.754 3.108-2.132 4.574-3.82 0-2.442-.002-13.769-3.598-21.853 0 0 2.93 2.4 4.53 5.996 6.394-.843 11.323-1.82 14.43-2.975-.621-6.84 4.086-10.571 4.086-10.571s-3.286 7.15-.311 13.236c1.154 2.354 3.198 4.264 6.394 5.507-.977-3.997-.977-11.015 7.371-17.455 6.35-5.419 3.952-12.082 3.952-12.082s6.794 5.863-1.687 14.569c-.489 1.865-1.421 6.93.888 10.35 1.11 1.642 2.93 2.708 5.328 3.241-.843-3.686-1.199-10.704 5.595-17.055 6.306-5.996 3.952-14.258 3.952-14.258s7.327 7.018-1.332 16.123c-.222 1.51-.71 6.84 2.042 10.039 1.155 1.376 2.799 2.176 4.93 2.487-1.066-3.865-1.955-11.593 5.461-17.99 6.395-6.395 4.618-13.502 4.618-13.502s7.105 5.863-1.954 15.28c-.133 1.554-.31 6.796 2.488 9.993 1.11 1.288 2.619 2.088 4.528 2.443-.977-3.864-1.643-11.46 5.64-18.122 6.083-6.085 5.283-13.547 5.283-13.547s6.706 5.641-2.619 15.324c-.09 1.466-.09 5.952 2.664 9.016 1.554 1.732 3.864 2.755 6.75 3.021-1.066-3.11-2.132-8.794 1.02-14.17l.4-.443s13.01-11.682 7.727-21.231c0 0 13.277 6.84-4.707 22.786 4.707 4.397 22.78 18.698 64.297 27.227.133 0 .266-.045.444-.089v.178h.088l.49.222c.443.266 10.923 6.663 17.095 16.923 3.64 6.084 4.885 12.88 6.171 20.031 2.176 12.126 4.619 25.85 19.939 39.798 4.128-.623 22.823-2.932 27.885 7.15 19.893 39.31 6.572 57.21-.089 63.073-11.368 10.037-26.154 8.262-29.395 7.728-4.085 2.487-6.927 5.996-8.303 7.995 2.619 1.333 7.015 4.664 8.258 12.259 1.82.489 6.084 1.466 10.835 1.865 1.51-.754 7.104-3.642 10.923-6.262.266-1.466.577-2.887 1.066-4.131l.178-.488.443-.267s14.476-9.816 16.786-20.875c0 0 6.837 9.682-14.565 23.185-1.465 4.353-1.42 10.97-1.288 14.169 3.42-.623 10.657-1.244 15.986 3.465 1.687-.845 5.283-2.932 7.948-5.953-5.906-28.248 7.548-29.003 7.548-29.003-1.599 1.687-2.752 3.686-3.552 5.818 1.554 1.377 5.329 4.575 9.325 6.84 1.42-2.71 4.885-7.95 11.19-9.194a79.38 79.38 0 0 0 .355-6.263c-1.51-1.465-8.88-7.017-18.694-10.438 0 0 3.241-.8 8.348.8 1.732-4.975 1.776-10.483 1.776-10.483s10.79 5.552 17.363 1.2c3.818-2.532 5.15-7.329 5.682-10.35-5.061 2.088-9.812 2.31-14.075.755-8.748-3.242-12.789-14.79-12.789-14.79m-322.15-36.733c-2.088 1.51-4.618 1.955-6.973 1.2h-.043c-2.132 3.997-3.73 8.083-3.73 8.083s-1.643-4.176-3.73-8.084h-.044c-2.398.756-4.93.311-6.972-1.2-2.043-1.51-3.286-3.774-3.286-6.306v-.045c-4.44-.799-8.836-1.065-8.836-1.065s3.463-2.888 6.527-6.041c-1.465-2.043-1.821-4.575-1.021-7.019.799-2.442 2.576-4.263 4.973-5.063h.044c-.621-4.485-1.731-8.706-1.731-8.706s3.819 2.4 7.77 4.354c1.465-2 3.82-3.154 6.35-3.154s4.884 1.154 6.35 3.154c4.085-2 7.77-4.309 7.77-4.354 0 0-1.11 4.53-1.732 8.706h.045c2.353.8 4.174 2.62 4.974 5.063.799 2.444.4 4.976-1.022 7.019 3.02 3.108 6.528 6.04 6.528 6.04s-4.486.31-8.837 1.066v.045c0 2.487-1.243 4.796-3.286 6.307m3.863-11.77c-.62.443-1.331.843-2.042 1.066a7.037 7.037 0 0 1 1.02 2.087c1.245-.222 2.443-.444 3.643-.577-.889-.845-1.777-1.688-2.62-2.62m-7.283-16.08c.267.755.4 1.51.4 2.31a8.343 8.343 0 0 1 2.308-.355c.178-1.244.356-2.444.577-3.642a75.545 75.545 0 0 1-3.285 1.687Zm-17.584 1.955c.799 0 1.554.088 2.31.355 0-.8.133-1.555.399-2.31a75.42 75.42 0 0 1-3.286-1.687 90.2 90.2 0 0 1 .577 3.642Zm-3.552 17.366a7.007 7.007 0 0 1 1.021-2.087 8.147 8.147 0 0 1-2.043-1.066 73.131 73.131 0 0 1-2.62 2.62c1.2.134 2.443.356 3.642.578m15.363 8.661a8.465 8.465 0 0 1-1.687-1.643c-.444.622-1.02 1.154-1.643 1.643.578 1.11 1.155 2.221 1.643 3.287.533-1.11 1.066-2.22 1.687-3.287Zm10.08-6.44c0-2.976-2.752-5.597-2.752-5.597s3.774-.489 5.506-2.887c1.02-1.422 1.287-3.242.71-4.974-.577-1.733-1.82-3.021-3.509-3.599-2.84-.932-6.171.889-6.171.889s.71-3.73-1.066-6.174c-1.021-1.421-2.665-2.221-4.485-2.221s-3.463.8-4.485 2.22c-1.775 2.4-1.065 6.175-1.065 6.175s-3.33-1.865-6.173-.889c-1.642.534-2.93 1.866-3.508 3.599-.577 1.732-.31 3.552.71 4.974 1.733 2.443 5.552 2.887 5.552 2.887s-2.797 2.62-2.754 5.597c0 1.732.844 3.375 2.354 4.442 1.465 1.065 3.285 1.376 4.929.843 2.842-.888 4.484-4.352 4.484-4.352s1.643 3.464 4.485 4.352c1.687.533 3.464.222 4.929-.843 1.465-1.067 2.309-2.665 2.354-4.442m-4.441-8.484c0 4.042-3.286 7.374-7.371 7.374s-7.371-3.287-7.371-7.374 3.286-7.373 7.37-7.373 7.372 3.287 7.372 7.373Zm-2.308 0c0-2.798-2.265-5.064-5.063-5.064s-5.062 2.266-5.062 5.064 2.265 5.063 5.062 5.063 5.063-2.264 5.063-5.063Zm105.592 1.377c-1.466-2.044-1.82-4.574-1.022-7.018.8-2.442 2.576-4.264 4.974-5.063h.045c-.623-4.487-1.732-8.706-1.732-8.706s3.818 2.399 7.77 4.353c1.466-1.999 3.819-3.153 6.35-3.153s4.885 1.154 6.35 3.153c4.084-1.999 7.77-4.308 7.77-4.353 0 0-1.11 4.53-1.731 8.706h.044c2.354.799 4.174 2.62 4.973 5.063.799 2.444.4 4.975-1.021 7.018 3.02 3.109 6.527 6.04 6.527 6.04s-4.484.312-8.836 1.067v.045c0 2.487-1.244 4.796-3.286 6.307-2.043 1.51-4.619 1.953-7.016 1.198h-.044c-2.131 3.998-3.73 8.084-3.73 8.084s-1.643-4.175-3.73-8.084h-.044c-2.398.755-4.929.311-6.972-1.198-2.087-1.51-3.286-3.776-3.286-6.307v-.045c-4.44-.8-8.836-1.066-8.836-1.066s3.463-2.887 6.528-6.041m2.619 4.841a7.035 7.035 0 0 1 1.021-2.087 8.15 8.15 0 0 1-2.043-1.066 72.234 72.234 0 0 1-2.619 2.62c1.198.134 2.442.356 3.64.578m15.365 8.661a7.205 7.205 0 0 1-1.643-1.643c-.444.622-1.022 1.154-1.643 1.643.578 1.11 1.155 2.221 1.643 3.287.532-1.11 1.066-2.22 1.643-3.287Zm13.1-11.904c-.623.444-1.334.844-2.044 1.067.444.622.8 1.332 1.022 2.087 1.199-.222 2.442-.444 3.64-.577-.887-.845-1.775-1.688-2.619-2.62m-7.283-16.08c.267.755.4 1.51.4 2.31a8.344 8.344 0 0 1 2.31-.355 90.2 90.2 0 0 1 .576-3.642 74.91 74.91 0 0 1-3.286 1.687Zm-17.628 1.955c.8 0 1.554.088 2.31.355 0-.8.133-1.555.4-2.31a76.116 76.116 0 0 1-3.287-1.687c.223 1.198.4 2.398.577 3.642Zm-4.351 11.148c1.732 2.443 5.55 2.887 5.55 2.887s-2.798 2.62-2.753 5.597c0 1.732.844 3.376 2.353 4.442 1.466 1.065 3.286 1.376 4.93.843 2.84-.888 4.484-4.352 4.484-4.352s1.643 3.464 4.485 4.352c1.687.533 3.464.222 4.929-.843 1.465-1.066 2.31-2.665 2.354-4.442 0-2.976-2.754-5.597-2.754-5.597s3.774-.489 5.506-2.887c1.022-1.422 1.288-3.242.71-4.974-.577-1.733-1.82-3.021-3.507-3.599-2.842-.931-6.172.889-6.172.889s.71-3.73-1.066-6.174c-1.021-1.421-2.664-2.221-4.484-2.221s-3.465.8-4.485 2.22c-1.777 2.4-1.066 6.175-1.066 6.175s-3.33-1.865-6.172-.888c-1.644.533-2.932 1.865-3.509 3.598-.576 1.732-.31 3.552.71 4.974m7.106 0c0-4.042 3.286-7.373 7.37-7.373s7.372 3.287 7.372 7.373-3.286 7.374-7.371 7.374-7.372-3.287-7.372-7.374Zm2.309 0c0 2.799 2.264 5.063 5.062 5.063s5.061-2.264 5.061-5.063-2.264-5.064-5.061-5.064-5.062 2.266-5.062 5.064Zm82.546 116.15s-4.484.31-8.835 1.066v.044c0 2.488-1.243 4.797-3.287 6.307s-4.617 1.955-6.971 1.2h-.044c-2.131 3.998-3.73 8.084-3.73 8.084s-1.643-4.176-3.73-8.084h-.044c-2.398.755-4.93.31-7.017-1.2-2.086-1.51-3.241-3.775-3.286-6.307v-.044c-4.44-.8-8.836-1.067-8.836-1.067s3.463-2.886 6.528-6.04c-1.466-2.043-1.82-4.575-1.022-7.018.8-2.443 2.576-4.264 4.974-5.063h.045c-.622-4.486-1.732-8.706-1.732-8.706s3.818 2.399 7.77 4.353c1.465-1.999 3.819-3.154 6.35-3.154s4.884 1.155 6.35 3.154c4.084-1.999 7.77-4.308 7.77-4.353 0 0-1.11 4.53-1.732 8.706h.045c2.353.799 4.174 2.62 4.973 5.063.8 2.443.4 4.975-1.021 7.019 3.02 3.108 6.527 6.04 6.527 6.04m-15.453-20.521c.267.755.4 1.51.4 2.31a8.308 8.308 0 0 1 2.31-.355c.177-1.245.355-2.443.576-3.642a75.535 75.535 0 0 1-3.286 1.687Zm-17.628 2c.8 0 1.555.088 2.31.354 0-.799.133-1.554.4-2.31a74.29 74.29 0 0 1-3.287-1.688c.222 1.2.4 2.4.577 3.643Zm-3.552 17.322a7.012 7.012 0 0 1 1.021-2.088 8.113 8.113 0 0 1-2.043-1.066 73.131 73.131 0 0 1-2.619 2.62c1.198.133 2.441.356 3.64.578m15.409 8.706a7.201 7.201 0 0 1-1.643-1.644 9.604 9.604 0 0 1-1.643 1.644c.577 1.11 1.155 2.22 1.644 3.287.532-1.111 1.065-2.221 1.642-3.287Zm10.08-6.44c0-2.977-2.754-5.597-2.754-5.597s3.775-.49 5.551-2.887c1.022-1.422 1.288-3.243.71-4.975-.577-1.733-1.82-3.064-3.507-3.598-2.842-.933-6.173.888-6.173.888s.71-3.731-1.065-6.174c-1.022-1.42-2.664-2.22-4.485-2.22s-3.464.8-4.485 2.22c-1.776 2.4-1.065 6.174-1.065 6.174s-3.331-1.865-6.172-.888c-1.644.534-2.932 1.865-3.509 3.598-.577 1.732-.31 3.553.71 4.975 1.732 2.442 5.506 2.887 5.551 2.887 0 0-2.797 2.62-2.752 5.596 0 1.732.843 3.376 2.353 4.442 1.465 1.065 3.286 1.376 4.928.844 2.842-.889 4.485-4.353 4.485-4.353s1.644 3.464 4.486 4.353c1.687.532 3.462.221 4.928-.844 1.465-1.066 2.308-2.665 2.353-4.442m1.866-2.31c1.243-.222 2.442-.443 3.64-.576-.888-.845-1.775-1.689-2.619-2.622-.622.444-1.333.845-2.043 1.066.444.667.8 1.378 1.022 2.088m-6.35-6.174c0 4.043-3.33 7.374-7.371 7.374s-7.371-3.288-7.371-7.374 3.286-7.373 7.37-7.373 7.372 3.287 7.372 7.373Zm-2.31 0c0-2.798-2.264-5.063-5.061-5.063s-5.062 2.265-5.062 5.063a5.061 5.061 0 1 0 10.124 0ZM284.203 228.657c-4.44-.8-8.837-1.067-8.837-1.067s3.464-2.886 6.528-6.04c-1.466-2.043-1.82-4.574-1.022-7.018.8-2.442 2.576-4.264 4.974-5.063h.044c-.622-4.486-1.732-8.706-1.732-8.706s3.82 2.4 7.771 4.353c1.466-1.999 3.819-3.153 6.35-3.153s4.883 1.154 6.35 3.153c4.084-1.999 7.77-4.308 7.77-4.353 0 0-1.11 4.53-1.732 8.706h.045c2.353.8 4.174 2.665 4.973 5.063.799 2.444.4 4.975-1.022 7.018 3.02 3.11 6.528 6.04 6.528 6.04s-4.484.311-8.836 1.067v.044c0 2.488-1.244 4.797-3.286 6.308-2.088 1.509-4.619 1.953-6.972 1.199h-.044c-2.132 3.997-3.73 8.083-3.73 8.083s-1.643-4.175-3.73-8.083h-.045c-2.398.754-4.928.31-6.97-1.2-2.043-1.51-3.286-3.776-3.286-6.307v-.044m15.629 6.485a8.465 8.465 0 0 1-1.687-1.644c-.444.622-1.02 1.155-1.643 1.644.578 1.11 1.155 2.22 1.643 3.286.533-1.11 1.066-2.22 1.687-3.286Zm13.055-11.904c-.62.444-1.331.844-2.042 1.066a8.26 8.26 0 0 1 1.02 2.087c1.245-.221 2.443-.444 3.643-.577-.889-.844-1.777-1.688-2.62-2.62m-7.283-16.079c.267.755.4 1.51.4 2.31a8.345 8.345 0 0 1 2.308-.356c.178-1.243.356-2.443.577-3.642a76.808 76.808 0 0 1-3.285 1.688Zm-17.584 1.953c.799 0 1.554.09 2.31.356 0-.8.133-1.554.399-2.31a76.677 76.677 0 0 1-3.286-1.688c.221 1.2.4 2.4.577 3.642Zm-4.351 11.15c1.73 2.443 5.55 2.887 5.55 2.887s-2.798 2.62-2.753 5.596c0 1.732.844 3.376 2.353 4.441 1.466 1.067 3.286 1.378 4.929.845 2.842-.888 4.485-4.354 4.485-4.354s1.643 3.466 4.485 4.354c1.687.533 3.464.222 4.928-.845 1.466-1.065 2.31-2.664 2.355-4.44 0-2.977-2.754-5.597-2.754-5.597s3.774-.489 5.506-2.888c1.022-1.42 1.288-3.241.71-4.974-.577-1.732-1.82-3.065-3.507-3.598-2.842-.933-6.173.889-6.173.889s.71-3.732-1.065-6.174c-1.022-1.421-2.664-2.221-4.485-2.221s-3.464.8-4.485 2.22c-1.776 2.4-1.066 6.175-1.066 6.175s-3.33-1.865-6.171-.889c-1.644.533-2.932 1.866-3.51 3.598-.576 1.733-.309 3.553.711 4.974m.756 6.174a7.008 7.008 0 0 1 1.021-2.087 8.147 8.147 0 0 1-2.043-1.066 73.131 73.131 0 0 1-2.62 2.62c1.2.134 2.443.356 3.642.578m6.35-6.219c0-4.041 3.285-7.372 7.37-7.372s7.372 3.286 7.372 7.372-3.287 7.373-7.372 7.373-7.37-3.286-7.37-7.373Zm2.309 0c0 2.798 2.264 5.064 5.062 5.064s5.061-2.266 5.061-5.064-2.264-5.063-5.061-5.063-5.062 2.266-5.062 5.063ZM281.893 77.551c-1.466-2.043-1.82-4.575-1.022-7.018.799-2.442 2.576-4.263 4.974-5.063h.044c-.622-4.486-1.732-8.706-1.732-8.706s3.819 2.399 7.77 4.309c1.467-2 3.82-3.154 6.35-3.154s4.884 1.155 6.35 3.154c4.085-2 7.77-4.309 7.77-4.309s-1.11 4.53-1.731 8.706h.044c2.353.8 4.175 2.62 4.974 5.063.799 2.443.4 4.975-1.022 7.018 3.02 3.11 6.528 6.04 6.528 6.04s-4.484.312-8.836 1.067v.045c0 2.487-1.244 4.796-3.286 6.307-2.088 1.51-4.619 1.953-6.972 1.2h-.045c-2.131 3.996-3.729 8.082-3.729 8.082s-1.643-4.174-3.73-8.083h-.045c-2.398.754-4.929.31-6.97-1.2-2.088-1.51-3.287-3.775-3.287-6.306v-.045c-4.44-.8-8.836-1.066-8.836-1.066s3.464-2.887 6.527-6.041m2.576 4.797a7.014 7.014 0 0 1 1.021-2.087 8.112 8.112 0 0 1-2.043-1.067 73.131 73.131 0 0 1-2.62 2.62c1.2.134 2.443.357 3.642.578m15.363 8.706a8.465 8.465 0 0 1-1.687-1.643c-.444.622-1.02 1.154-1.643 1.643.578 1.111 1.155 2.221 1.643 3.288.533-1.112 1.066-2.221 1.687-3.288Zm13.055-11.904c-.62.445-1.331.844-2.042 1.067.443.665.799 1.332 1.02 2.088 1.245-.223 2.443-.445 3.643-.578-.889-.845-1.777-1.688-2.62-2.62m-7.283-16.08c.267.755.4 1.51.4 2.31a8.322 8.322 0 0 1 2.308-.355c.178-1.244.356-2.443.577-3.643a75.664 75.664 0 0 1-3.285 1.688Zm-17.584 1.955c.799 0 1.554.089 2.31.355 0-.8.133-1.554.399-2.31a75.762 75.762 0 0 1-3.286-1.687c.221 1.199.4 2.398.577 3.642Zm-4.351 11.148c1.73 2.443 5.55 2.887 5.55 2.887s-2.798 2.62-2.753 5.597c0 1.732.844 3.375 2.353 4.442 1.466 1.065 3.286 1.376 4.929.843 2.842-.888 4.485-4.352 4.485-4.352s1.643 3.464 4.485 4.352c1.687.533 3.464.222 4.928-.843a5.668 5.668 0 0 0 2.355-4.442c0-2.976-2.754-5.597-2.754-5.597s3.774-.489 5.506-2.887c1.022-1.422 1.288-3.242.71-4.974-.577-1.733-1.82-3.02-3.507-3.598-2.842-.933-6.173.888-6.173.888s.71-3.73-1.065-6.174c-1.022-1.421-2.664-2.22-4.485-2.22s-3.464.799-4.485 2.22c-1.776 2.399-1.066 6.174-1.066 6.174s-3.33-1.865-6.171-.888c-1.644.533-2.932 1.865-3.51 3.598-.576 1.732-.309 3.552.711 4.974m7.105 0c0-4.042 3.286-7.373 7.371-7.373s7.372 3.287 7.372 7.373-3.287 7.374-7.372 7.374-7.37-3.287-7.37-7.374Zm2.31 0c0 2.799 2.264 5.063 5.062 5.063s5.061-2.264 5.061-5.063-2.264-5.063-5.061-5.063-5.062 2.265-5.062 5.063Zm391.42 297.77s-4.484.31-8.836 1.066v.044c0 2.488-1.243 4.797-3.286 6.308-2.087 1.51-4.618 1.953-7.015 1.198h-.045c-2.131 3.998-3.73 8.084-3.73 8.084s-1.643-4.175-3.73-8.084h-.044c-2.398.755-4.929.311-6.972-1.198-2.087-1.51-3.285-3.776-3.285-6.307v-.045c-4.441-.8-8.837-1.066-8.837-1.066s3.464-2.887 6.527-6.041c-1.465-2.044-1.82-4.574-1.021-7.018.799-2.442 2.576-4.264 4.973-5.063h.045c-.622-4.487-1.732-8.706-1.732-8.706s3.819 2.399 7.77 4.353c1.466-1.999 3.82-3.153 6.35-3.153s4.884 1.154 6.35 3.153c4.085-1.999 7.77-4.308 7.77-4.353 0 0-1.11 4.53-1.732 8.706h.045c2.353.799 4.175 2.62 4.973 5.063.8 2.444.4 4.975-1.021 7.018 3.02 3.109 6.527 6.04 6.527 6.04m-15.496-20.52c.267.755.4 1.51.4 2.31a8.343 8.343 0 0 1 2.308-.355 90.2 90.2 0 0 1 .577-3.642 75.492 75.492 0 0 1-3.285 1.687Zm-17.584 1.955c.799 0 1.554.088 2.31.355 0-.8.133-1.555.399-2.31a75.481 75.481 0 0 1-3.286-1.687 90.2 90.2 0 0 1 .577 3.642Zm-3.553 17.366a7.004 7.004 0 0 1 1.022-2.087 8.15 8.15 0 0 1-2.043-1.066 72.314 72.314 0 0 1-2.62 2.62c1.199.134 2.443.356 3.642.578m15.363 8.661a7.223 7.223 0 0 1-1.643-1.643c-.444.622-1.021 1.154-1.642 1.643.577 1.11 1.153 2.221 1.642 3.287.533-1.11 1.066-2.22 1.643-3.287Zm10.08-6.44c0-2.976-2.752-5.597-2.752-5.597s3.774-.489 5.506-2.887c1.02-1.422 1.287-3.242.71-4.974-.577-1.733-1.82-3.021-3.509-3.599-2.84-.932-6.171.889-6.171.889s.71-3.73-1.066-6.174c-1.021-1.421-2.665-2.221-4.485-2.221s-3.463.8-4.485 2.22c-1.775 2.4-1.065 6.175-1.065 6.175s-3.33-1.865-6.173-.889c-1.642.534-2.93 1.866-3.507 3.599-.578 1.732-.312 3.552.71 4.974 1.732 2.443 5.55 2.887 5.55 2.887s-2.796 2.62-2.753 5.597c0 1.732.844 3.375 2.354 4.442 1.465 1.065 3.285 1.376 4.929.843 2.842-.888 4.484-4.352 4.484-4.352s1.643 3.464 4.485 4.352c1.687.533 3.464.222 4.929-.843 1.465-1.067 2.309-2.665 2.354-4.442m1.953-2.266c1.2-.222 2.443-.444 3.641-.577-.887-.844-1.776-1.688-2.62-2.62-.621.443-1.332.843-2.042 1.066.444.622.8 1.332 1.021 2.087m-6.35-6.174c0 4.042-3.286 7.374-7.37 7.374s-7.372-3.287-7.372-7.374 3.286-7.373 7.371-7.373 7.372 3.287 7.372 7.373Zm-2.309 0c0-2.798-2.264-5.064-5.062-5.064s-5.061 2.266-5.061 5.064 2.264 5.063 5.061 5.063 5.062-2.264 5.062-5.063ZM645.383 77.551c-1.465-2.043-1.82-4.575-1.021-7.018.799-2.442 2.576-4.264 4.973-5.063h.045c-.622-4.486-1.732-8.706-1.732-8.706s3.819 2.399 7.77 4.309c1.466-2 3.82-3.154 6.35-3.154s4.884 1.155 6.35 3.154c4.085-2 7.77-4.309 7.77-4.309s-1.11 4.53-1.732 8.706h.045c2.353.8 4.175 2.62 4.973 5.063.8 2.443.4 4.975-1.021 7.018 3.02 3.11 6.527 6.04 6.527 6.04s-4.484.312-8.835 1.067v.045c0 2.487-1.244 4.796-3.286 6.307-2.088 1.51-4.62 1.953-7.017 1.2h-.043c-2.132 3.996-3.73 8.082-3.73 8.082s-1.643-4.175-3.731-8.083h-.044c-2.398.754-4.928.31-6.972-1.2-2.086-1.51-3.286-3.775-3.286-6.306v-.045c-4.44-.8-8.835-1.066-8.835-1.066s3.463-2.887 6.527-6.041m2.62 4.797a7.011 7.011 0 0 1 1.021-2.087 8.113 8.113 0 0 1-2.043-1.067 72.314 72.314 0 0 1-2.62 2.62c1.199.134 2.443.357 3.642.578m15.363 8.706a7.223 7.223 0 0 1-1.643-1.643c-.444.622-1.021 1.154-1.642 1.643.577 1.111 1.153 2.221 1.642 3.288.533-1.112 1.066-2.221 1.643-3.288Zm13.1-11.904c-.622.445-1.333.844-2.043 1.067.444.665.8 1.332 1.021 2.088 1.2-.223 2.443-.445 3.641-.578-.887-.845-1.776-1.688-2.62-2.62m-7.326-16.08c.267.755.4 1.51.4 2.31a8.322 8.322 0 0 1 2.308-.355c.178-1.244.356-2.443.577-3.643a75.61 75.61 0 0 1-3.285 1.688ZM651.6 65.026c.799 0 1.554.089 2.31.355 0-.8.133-1.554.399-2.31a75.823 75.823 0 0 1-3.286-1.687c.221 1.199.399 2.398.577 3.642Zm-4.351 11.148c1.73 2.443 5.55 2.887 5.55 2.887s-2.798 2.62-2.753 5.597c0 1.732.844 3.375 2.353 4.442 1.466 1.065 3.286 1.376 4.928.843 2.842-.888 4.486-4.352 4.486-4.352s1.643 3.464 4.485 4.352c1.687.533 3.464.222 4.928-.843a5.668 5.668 0 0 0 2.354-4.442c0-2.976-2.753-5.597-2.753-5.597s3.774-.489 5.506-2.887c1.021-1.422 1.287-3.242.71-4.974-.577-1.733-1.82-3.02-3.508-3.598-2.842-.933-6.172.888-6.172.888s.71-3.73-1.066-6.174c-1.021-1.421-2.664-2.22-4.484-2.22s-3.464.799-4.486 2.22c-1.775 2.399-1.065 6.174-1.065 6.174s-3.33-1.865-6.172-.888c-1.643.533-2.931 1.865-3.508 3.598-.578 1.732-.31 3.552.71 4.974m7.105 0c0-4.042 3.286-7.373 7.371-7.373s7.372 3.287 7.372 7.373-3.287 7.374-7.372 7.374-7.37-3.287-7.37-7.374Zm2.31 0c0 2.799 2.264 5.063 5.061 5.063s5.062-2.264 5.062-5.063-2.264-5.063-5.062-5.063-5.061 2.265-5.061 5.063Zm-247.33 1.377c-1.466-2.043-1.822-4.575-1.022-7.018.8-2.442 2.576-4.264 4.974-5.063h.043c-.62-4.486-1.73-8.706-1.73-8.706s3.818 2.399 7.77 4.309c1.465-2 3.819-3.154 6.35-3.154s4.884 1.155 6.35 3.154c4.084-2 7.77-4.309 7.77-4.309s-1.11 4.53-1.732 8.706h.045c2.353.8 4.173 2.62 4.973 5.063.799 2.443.4 4.975-1.021 7.018 3.018 3.11 6.527 6.04 6.527 6.04s-4.485.312-8.837 1.067v.045c0 2.487-1.198 4.796-3.286 6.307-2.087 1.51-4.617 1.953-6.97 1.2h-.045c-2.132 3.996-3.73 8.082-3.73 8.082s-1.643-4.175-3.73-8.083h-.045c-2.397.754-4.928.31-6.971-1.2-2.087-1.51-3.285-3.775-3.285-6.306v-.045c-4.441-.8-8.837-1.066-8.837-1.066s3.464-2.887 6.527-6.041m2.531 4.797a7.013 7.013 0 0 1 1.022-2.087 9.229 9.229 0 0 1-2.087-1.067 73.245 73.245 0 0 1-2.62 2.62c1.199.134 2.442.357 3.64.578m15.453 8.706a7.2 7.2 0 0 1-1.642-1.643 9.6 9.6 0 0 1-1.644 1.643c.577 1.111 1.155 2.221 1.644 3.288.532-1.112 1.065-2.221 1.642-3.288Zm13.055-11.904c-.622.445-1.332.844-2.086 1.067.443.665.798 1.332 1.02 2.088 1.243-.223 2.442-.445 3.642-.578-.888-.845-1.777-1.688-2.62-2.62m-7.239-16.08c.267.755.4 1.51.4 2.31a8.33 8.33 0 0 1 2.31-.355c.177-1.244.355-2.443.577-3.643a75.653 75.653 0 0 1-3.287 1.688Zm-17.583 1.955c.8 0 1.554.089 2.308.355 0-.8.134-1.554.4-2.31a75.718 75.718 0 0 1-3.285-1.687c.221 1.199.4 2.398.577 3.642Zm-4.352 11.148c1.732 2.443 5.55 2.887 5.55 2.887s-2.797 2.62-2.752 5.597c0 1.732.887 3.375 2.353 4.442 1.466 1.065 3.286 1.376 4.929.843 2.842-.888 4.484-4.352 4.484-4.352s1.644 3.464 4.486 4.352c1.687.533 3.463.222 4.929-.843a5.67 5.67 0 0 0 2.353-4.442c0-2.976-2.753-5.597-2.753-5.597s3.774-.489 5.55-2.887c1.021-1.422 1.288-3.242.71-4.974-.577-1.733-1.82-3.02-3.507-3.598-2.842-.933-6.172.888-6.172.888s.71-3.73-1.066-6.174c-1.02-1.421-2.664-2.22-4.485-2.22s-3.463.799-4.484 2.22c-1.777 2.399-1.067 6.174-1.067 6.174s-3.33-1.865-6.171-.888c-1.643.533-2.93 1.865-3.508 3.598-.577 1.732-.311 3.552.71 4.974m7.016 0c0-4.042 3.286-7.373 7.37-7.373s7.372 3.287 7.372 7.373-3.286 7.374-7.371 7.374-7.371-3.287-7.371-7.374Zm2.31 0a5.06 5.06 0 1 0 10.124 0c-.001-2.798-2.266-5.063-5.063-5.063s-5.062 2.265-5.062 5.063Zm25.709 49.969s1.465 2.31 6.083 2.22c2.176 0 7.86-.755 8.97-.843 11.766-.8 10.08 7.417 10.08 7.417-1.688-2.398-3.996-3.42-6.617-3.775-.577 1.333-1.82 3.287-4.173 4.93-3.02 2.132-6.617 2.399-8.215 2.399-.534 0-1.599-.089-1.599-.089-1.376-2.31-1.687-5.375-1.732-7.24-3.907-1.243-2.797-5.063-2.797-5.063m5.862 5.462c0 1.067.088 2.489.62 3.777 1.333 0 4.264-.311 6.395-1.822 1.155-.799 1.954-1.687 2.442-2.442h-.444c-1.154.088-6.927.354-8.526.444h-.487m139.516 58.452c-1.466-2.044-1.82-4.575-1.021-7.018.8-2.443 2.575-4.264 4.973-5.063h.045c-.622-4.487-1.732-8.706-1.732-8.706s3.818 2.399 7.77 4.353c1.466-2 3.819-3.154 6.35-3.154s4.885 1.155 6.35 3.154c4.086-2 7.77-4.308 7.77-4.353 0 0-1.11 4.53-1.73 8.706h.043c2.354.799 4.174 2.62 4.973 5.063.8 2.443.4 4.974-1.021 7.018 3.02 3.109 6.527 6.04 6.527 6.04s-4.484.311-8.836 1.066v.045c0 2.487-1.2 4.797-3.286 6.307-2.087 1.51-4.618 1.955-6.972 1.2h-.043c-2.132 3.996-3.73 8.084-3.73 8.084s-1.643-4.176-3.73-8.084h-.045c-2.397.755-4.93.31-6.971-1.2-2.087-1.51-3.286-3.775-3.286-6.307v-.045c-4.44-.799-8.836-1.066-8.836-1.066s3.463-2.887 6.526-6.04m2.576 4.842a7.038 7.038 0 0 1 1.022-2.088 9.23 9.23 0 0 1-2.087-1.066 72.264 72.264 0 0 1-2.62 2.62c1.2.133 2.442.356 3.642.577m15.408 8.706a7.203 7.203 0 0 1-1.644-1.643 9.55 9.55 0 0 1-1.642 1.643c.577 1.11 1.154 2.221 1.642 3.288.534-1.111 1.066-2.221 1.644-3.288Zm13.098-11.903c-.622.444-1.332.843-2.086 1.066a8.257 8.257 0 0 1 1.021 2.088c1.243-.223 2.442-.445 3.641-.579-.888-.843-1.777-1.687-2.62-2.62m-7.282-16.078c.266.755.4 1.51.4 2.309a8.352 8.352 0 0 1 2.309-.355c.176-1.244.354-2.443.577-3.643a76.185 76.185 0 0 1-3.286 1.689Zm-17.584 1.954c.8 0 1.554.089 2.31.355 0-.799.132-1.554.398-2.31a76.13 76.13 0 0 1-3.286-1.688c.223 1.2.4 2.399.578 3.643Zm-4.352 11.149c1.732 2.442 5.506 2.886 5.551 2.886 0 0-2.798 2.62-2.753 5.597 0 1.732.888 3.376 2.354 4.442 1.464 1.065 3.285 1.376 4.928.844 2.842-.889 4.485-4.354 4.485-4.354s1.642 3.465 4.484 4.354c1.688.532 3.464.221 4.929-.844 1.466-1.066 2.31-2.665 2.354-4.442 0-2.976-2.754-5.597-2.754-5.597s3.776-.488 5.551-2.886c1.022-1.422 1.288-3.243.71-4.975-.576-1.733-1.82-3.065-3.507-3.598-2.842-.933-6.173.888-6.173.888s.71-3.731-1.065-6.174c-1.022-1.42-2.664-2.22-4.484-2.22s-3.465.8-4.486 2.22c-1.776 2.4-1.065 6.174-1.065 6.174s-3.331-1.865-6.172-.888c-1.644.533-2.931 1.865-3.509 3.598-.577 1.732-.31 3.553.71 4.975m7.06 0c0-4.043 3.287-7.374 7.372-7.374s7.371 3.286 7.371 7.374-3.286 7.372-7.37 7.372-7.372-3.286-7.372-7.372Zm2.31 0c0 2.798 2.265 5.063 5.062 5.063s5.063-2.265 5.063-5.063-2.265-5.064-5.063-5.064-5.062 2.265-5.062 5.064Z" fill="#89734c"/></svg>