<?xml version="1.0" encoding="UTF-8" standalone="no"?>
<!DOCTYPE svg PUBLIC "-//W3C//DTD SVG 1.1//EN" "http://www.w3.org/Graphics/SVG/1.1/DTD/svg11.dtd">
<svg width="100%" height="100%" viewBox="0 0 960 640" version="1.1" xmlns="http://www.w3.org/2000/svg" xmlns:xlink="http://www.w3.org/1999/xlink" xml:space="preserve" xmlns:serif="http://www.serif.com/" style="fill-rule:evenodd;clip-rule:evenodd;stroke-linejoin:round;stroke-miterlimit:2;">
    <path d="M201.876,71.394L201.876,189.438C201.876,221.631 206.477,306.475 249.076,398.779C301.036,511.362 377.476,577.664 479.999,630.905C581.679,578.093 658.632,512.08 710.923,398.779C753.523,306.475 758.123,221.631 758.123,189.438L758.123,71.392C672.135,26.627 573.814,8.074 479.999,8.074C387.054,8.074 288.423,26.329 201.876,71.394Z" style="fill:rgb(4,30,66);fill-rule:nonzero;"/>
    <path d="M216.971,80.552L216.971,189.438C216.971,220.633 221.434,302.865 262.781,392.453C311.093,497.133 384.364,564.227 480,613.898C576.02,564.027 649.074,496.769 697.219,392.453C738.564,302.865 743.028,220.633 743.028,189.438L743.028,80.552C666.872,40.904 567.198,23.166 480,23.166C392.499,23.166 292.978,40.976 216.972,80.552L216.971,80.552Z" style="fill:rgb(185,151,91);fill-rule:nonzero;"/>
    <g>
        <path d="M593.358,301.246C605.78,294.258 622.474,278.728 622.474,278.728C631.404,252.33 639.118,216.938 639.118,216.938C639.118,213.444 634.897,207.765 634.897,207.765C630.674,205.583 620.921,204.127 620.921,204.127C606.507,206.456 587.728,220.577 572.778,232.305C580.544,232.305 594.134,229.796 594.134,229.796C591.415,236.784 581.709,255.032 581.709,255.032C587.921,255.419 599.957,252.702 599.957,252.702C595.298,267.066 586.37,284.552 586.37,284.552L593.358,301.246ZM489.507,252.12C487.56,251.295 485.604,250.492 483.639,249.712C477.879,247.419 472.911,245.617 472.911,245.617C472.911,245.617 471.728,245.625 469.397,245.89C468.814,245.957 468.158,246.04 467.431,246.142C465.682,246.392 463.941,246.689 462.208,247.032C453.088,248.824 438.205,252.882 417.798,262.071L417.797,262.071L416.045,258.469L413.708,253.668L390.315,285.863L390.317,285.863C398.264,287.349 406.493,287.833 414.055,287.797C430.689,287.716 444.085,285.117 444.085,285.117C452.791,277.779 460.506,269.82 465.787,264.037C467.547,262.11 469.036,260.424 470.201,259.083C471.755,257.296 472.732,256.121 473.006,255.807C478.443,254.254 482.715,253.478 489.507,252.121L489.507,252.12ZM525.236,273.367C512.038,262.885 503.485,260.041 503.485,260.041C503.485,260.041 504.276,275.047 503.112,279.803C490.284,297.406 474.985,313.909 474.985,313.909L520.869,292.875C523.526,283.083 525.236,273.367 525.236,273.367Z" style="fill:rgb(4,30,66);fill-rule:nonzero;"/>
        <path d="M479.998,158.859C337.852,158.859 243.516,204.907 235.93,208.729C240.432,297.439 277.177,457.658 428.696,562.294C448.972,551.439 462.487,533.181 470.521,518.954C486.496,538.268 488.148,565.219 488.149,565.234L488.149,565.235C486.984,578.436 479.998,593.111 479.998,593.111L479.999,593.111C493.195,586.264 506.068,578.811 518.577,570.777C538.83,557.753 557.157,543.756 573.734,529.057L573.735,529.059C574.211,528.637 574.685,528.213 575.161,527.789C628.596,472.505 630.124,389.651 630.124,389.651C618.477,341.317 598.017,324.539 598.017,324.539C602.093,346.651 604.616,370.916 604.616,370.916C591.611,399.643 568.318,418.861 568.318,418.861C547.354,421.191 530.734,419.101 501.641,409.252C476.405,400.71 457.675,387.415 457.675,387.415C457.675,387.415 448.067,386.832 437.002,387.997C427.638,388.982 416.329,391.491 416.329,391.491C428.849,369.362 436.275,346.88 437.627,336.654C429.105,327.637 419.889,319.058 410.467,312.278C389.733,313.244 373.237,314.444 373.237,314.444L380.225,286.105C380.225,286.105 375.456,290.076 370.127,295.406C364.406,301.127 358.096,308.234 358.096,308.234C345.671,313.279 328.201,315.997 328.201,315.997C319.273,313.669 310.731,307.845 310.731,307.845C331.696,276.788 365.86,264.363 365.86,264.363C359.647,256.989 360.036,251.165 360.036,251.165C368.746,245.407 376.703,240.665 383.735,236.786C382.013,241.338 381.775,244.55 381.775,244.55C381.775,244.55 393.73,234.91 401.009,230.542C409.162,225.65 417.105,221.466 417.105,221.466C422.378,204.476 431.418,190.699 433.748,188.742C433.748,188.742 438.511,187.98 440.981,188.274C441.444,193.832 447.791,202.69 450.372,206.086C437.186,210.393 425.766,218.974 425.766,218.974C425.766,218.974 454.738,211.245 480.383,210.386C515.128,209.221 536.541,217.057 536.541,217.057C531.321,224.592 524.254,232.531 524.254,232.531C581.728,213.048 587.729,198.157 618.883,191.461C630.239,193.304 640.525,196.992 640.525,196.992C647.902,204.756 649.649,212.715 649.649,212.715C645.379,245.908 631.985,283.194 631.985,283.194C621.503,296.004 603.451,307.651 603.451,307.651C621.503,305.323 648.291,297.153 648.291,297.153C664.945,309.307 686.811,335.724 695.883,347.097C714.77,294.712 722.198,245.559 724.069,208.729C716.484,204.907 622.149,158.859 479.999,158.859L479.998,158.859Z" style="fill:rgb(4,30,66);fill-rule:nonzero;"/>
    </g>
    <g>
        <path d="M320.438,381.996C320.438,381.996 328.003,370.03 333.761,364.538L325.676,341.798C322.641,338.959 319.967,336.141 317.526,332.966C315.468,330.283 313.537,327.505 311.74,324.641L303.743,345.502C303.743,345.502 311.12,366.077 320.438,381.996ZM331.308,394.014C331.308,394.014 335.967,410.127 349.943,421.191C349.943,421.191 370.907,412.456 401.188,409.558C401.188,409.558 362.365,393.642 337.132,375.783C337.132,375.783 331.697,382.757 331.308,394.014ZM444.087,285.117C444.087,285.117 430.69,287.717 414.055,287.797C406.493,287.832 398.264,287.349 390.317,285.863L407.399,293.853C419.729,294.435 434.187,294.242 449.036,290.748C456.122,284.148 467.186,272.113 473.01,262.02C473.01,262.02 473.203,259.302 473.007,255.807C472.732,256.122 471.755,257.296 470.201,259.083C468.749,260.752 467.278,262.404 465.786,264.037C460.506,269.821 452.792,277.779 444.086,285.117L444.087,285.117ZM394.976,386.654C394.976,386.654 396.371,384.458 398.258,380.8C390.858,373.936 382.747,368.893 382.747,368.893C391.691,368.644 399.341,369.963 402.826,370.693C403.386,369.263 403.932,367.761 404.461,366.205C395.653,359.178 385.011,354.191 385.011,354.191C394.768,352.761 404.321,353.473 407.68,353.806C407.92,352.434 408.11,351.044 408.267,349.644C397.754,342.454 382.456,338.224 382.456,338.224C389.339,335.987 395.693,334.974 399.756,334.517L392.062,325.493C392.062,325.493 383.425,325.105 374.107,325.833C362.093,326.64 351.075,328.212 351.075,328.212C349.244,329.588 346.458,331.802 344.408,333.404C340.676,336.746 339.333,338.587 336.936,341.606L337.311,363.788C344.453,367.118 372.467,379.934 394.976,386.654ZM513.771,450.307C513.771,450.307 517.848,459.915 520.468,473.6C522.713,485.328 521.633,492.526 521.633,492.526C484.363,449.822 430.305,423.536 430.305,423.536C430.305,423.536 505.231,485.262 488.149,565.234L488.149,565.235C486.984,578.436 479.998,593.111 479.998,593.111L479.999,593.111C493.195,586.264 506.068,578.811 518.577,570.777C538.83,557.753 557.157,543.756 573.734,529.057L573.735,529.057C552.72,481.952 513.771,450.307 513.771,450.307ZM417.797,262.07C438.205,252.881 453.089,248.824 462.208,247.032C463.941,246.689 465.682,246.392 467.431,246.142C468.085,246.049 468.741,245.966 469.397,245.891C471.73,245.624 472.908,245.617 472.908,245.617L472.912,245.617C445.82,240.837 413.707,253.667 413.707,253.667L413.707,253.668L416.045,258.47L417.797,262.07Z" style="fill:white;fill-rule:nonzero;"/>
    </g>
    <path d="M428.17,275.235C424.188,276.855 418.8,274.733 416.91,272.695C415.454,275.169 413.804,277.953 413.804,277.953C413.804,277.953 425.064,283.194 438.263,276.788C446.387,272.845 448.358,265.724 448.358,265.724C443.388,266.106 438.521,266.73 434.147,267.564C433.629,269.518 432.101,273.632 428.169,275.234L428.17,275.235ZM235.42,188.907C308.647,155.587 399.39,140.41 480,140.41C560.342,140.41 651.207,155.54 724.579,188.921L724.579,91.747C724.579,91.747 628.3,41.615 479.999,41.615C331.698,41.615 235.419,91.747 235.419,91.747L235.419,188.907L235.42,188.907Z" style="fill:rgb(200,16,46);fill-rule:nonzero;"/>
    <g>
        <path d="M366.876,120.352C359.91,121.651 352.967,123.069 346.049,124.605L346.049,73.949C341.796,74.895 337.549,75.888 333.31,76.922L333.31,140.382C344.43,137.663 355.623,135.253 366.876,133.156L366.876,120.352ZM480.461,97.377C481.486,97.377 482.508,97.38 483.533,97.387C486.971,105.85 490.407,114.342 493.845,122.86C498.446,122.965 503.045,123.12 507.645,123.324C504.211,114.729 500.772,106.159 497.337,97.62C498.757,97.66 500.178,97.704 501.599,97.755C503.61,94.177 505.625,90.602 507.644,87.029L507.644,70.817C505.634,67.077 503.621,63.348 501.609,59.629C490.231,59.23 478.845,59.146 467.463,59.377C467.463,80.53 467.463,101.682 467.461,122.833C471.794,122.745 476.127,122.703 480.461,122.707L480.461,97.377ZM480.461,72.051C485.191,72.056 489.923,72.114 494.654,72.225L494.654,84.75C489.923,84.638 485.192,84.579 480.461,84.575L480.461,72.05L480.461,72.051ZM283.279,129.555C288.112,127.93 292.965,126.366 297.837,124.862L297.837,112.057C292.965,113.561 288.112,115.126 283.279,116.75L283.279,104.226C290.041,101.954 296.841,99.798 303.677,97.76L303.677,84.958C292.63,88.25 281.677,91.85 270.831,95.754C270.831,116.907 270.831,138.06 270.829,159.213C274.963,157.723 279.113,156.279 283.279,154.88L283.279,129.555ZM663.05,125.138C667.623,126.558 672.18,128.03 676.72,129.555L676.72,154.88C680.88,156.28 685.032,157.724 689.168,159.213L689.168,106.718C687.246,102.377 685.318,98.039 683.385,93.704C674.434,90.582 665.412,87.666 656.327,84.96C654.377,88.03 652.423,91.11 650.469,94.2L650.469,146.704C654.676,147.912 658.87,149.164 663.05,150.46L663.05,125.138ZM663.05,99.812C667.62,101.23 672.176,102.702 676.72,104.231L676.72,116.753C672.176,115.227 667.62,113.753 663.05,112.337L663.05,99.812ZM431.01,124.652C433.02,120.839 435.032,117.035 437.045,113.241L437.045,71.709C435.037,68.203 433.025,64.699 431.009,61.197C421.661,61.939 412.332,62.896 403.028,64.067C401.021,67.977 399.019,71.889 397.022,75.804L397.022,117.352C399.022,120.732 401.024,124.122 403.028,127.522C412.332,126.353 421.661,125.396 431.009,124.652L431.01,124.652ZM409.943,76.043C414.651,75.506 419.363,75.023 424.08,74.593L424.08,112.437C419.362,112.865 414.65,113.347 409.943,113.886L409.943,76.043ZM550.974,63.34C546.664,62.841 542.349,62.388 538.03,61.979L538.03,125.439C542.349,125.847 546.663,126.299 550.974,126.797L550.974,63.339L550.974,63.34ZM620.777,128.004L620.777,86.472C618.805,82.363 616.828,78.256 614.845,74.152C603.689,71.656 592.467,69.47 581.19,67.595L581.19,131.053C592.467,132.926 603.69,135.112 614.845,137.608C616.825,134.398 618.802,131.195 620.777,128.003L620.777,128.004ZM608.017,123.314C603.367,122.328 598.706,121.396 594.034,120.52L594.034,82.675C598.702,83.553 603.364,84.485 608.017,85.47L608.017,123.315L608.017,123.314Z" style="fill:white;fill-rule:nonzero;"/>
    </g>
</svg>
