<?xml version="1.0" encoding="UTF-8" standalone="no"?>
<!DOCTYPE svg PUBLIC "-//W3C//DTD SVG 1.1//EN" "http://www.w3.org/Graphics/SVG/1.1/DTD/svg11.dtd">
<svg width="100%" height="100%" viewBox="0 0 960 640" version="1.1" xmlns="http://www.w3.org/2000/svg" xmlns:xlink="http://www.w3.org/1999/xlink" xml:space="preserve" xmlns:serif="http://www.serif.com/" style="fill-rule:evenodd;clip-rule:evenodd;stroke-linejoin:round;stroke-miterlimit:2;">
    <path d="M913.573,168.562C913.573,168.562 882.685,158.278 855.955,153.14C856.283,153.08 885.811,129.482 885.811,129.482C885.811,129.482 766.705,98.02 624.956,107.434C624.956,107.434 604.31,40 508.996,40C438.071,40 397.589,84.462 385.002,119.093C251.276,149.026 149.489,217.448 149.489,217.448L174.056,235.965C111.132,269.495 46.427,322.749 46.427,322.749C46.427,322.749 52.772,354.669 91.414,405.504C91.414,405.504 117.288,425.297 185.434,451.04C185.434,451.04 198.469,447.754 204.94,444.459C214.29,447.584 223.937,450.219 233.441,451.961C233.055,460.541 230.575,472.827 246.421,487.411L234.905,493.517C234.905,493.517 249.135,528.766 327.552,547.287C357.494,540.067 493.699,514.317 540.702,600L777.651,366.977L727.193,366.977L913.573,168.562Z" style="fill:rgb(221,203,164);fill-rule:nonzero;"/>
    <path d="M868.309,178.483C839.473,167.546 800.921,159.511 800.921,159.511L824.893,140.999C695.393,115.054 606.686,123.242 606.686,123.242C606.686,123.242 588.933,55.93 502.67,55.93C419.272,55.93 394.294,130.423 394.294,130.423C280.131,152.923 172.686,218.56 172.686,218.56L198.859,238.292C131.537,271.417 61.776,327.83 61.776,327.83C71.642,358.684 100.518,395.935 100.518,395.935C127.33,414.592 186.164,437.482 186.164,437.482C194.636,435.543 203.791,430.405 203.791,430.405C203.791,430.405 233.023,442.025 264.216,442.025C275.616,442.025 288.368,440.655 288.368,436.2C288.368,428.506 264.993,426.16 264.993,417.548C264.993,411.272 279.043,402.465 332.455,402.465C364.439,402.465 400.645,404.699 400.645,404.699C374.317,404.699 322.618,411.391 322.618,423.659C322.618,433.165 357.748,433.661 357.748,446.467C357.748,465.001 330.238,471.344 298.194,471.344C269.499,471.344 255.889,463.166 249.364,463.166C246.864,463.166 245.337,464.409 245.337,466.022C245.337,472.686 258.124,486.082 268.36,489.841L254.52,497.881C270.046,518.435 327.845,533.857 327.845,533.857C492.748,497.875 543.495,580.127 543.495,580.127L736.709,380.047L691.249,380.047L868.309,178.484L868.309,178.483Z" style="fill:rgb(21,71,52);fill-rule:nonzero;"/>
    <g>
        <path d="M579.846,145.916C526.713,144.182 473.357,147.338 422.349,155.14C421.958,158.363 421.72,161.64 421.72,164.967C421.72,168.661 422,172.287 422.472,175.849C472.122,170.549 526.852,168.755 581.552,174.549C581.924,171.4 582.146,168.209 582.146,164.967C582.146,158.398 581.331,152.032 579.846,145.916ZM501.94,245.18C531.465,245.18 557.255,229.198 571.182,205.43C527.647,211.006 485.952,218.261 449.38,225.546C463.473,237.766 481.822,245.179 501.94,245.179L501.94,245.18ZM501.94,84.762C460.968,84.762 427.197,115.48 422.349,155.14C422.349,155.14 462.577,137.023 572.016,126C558.323,101.403 532.08,84.762 501.939,84.762L501.94,84.762Z" style="fill:rgb(234,170,0);fill-rule:nonzero;"/>
    </g>
    <g>
        <path d="M579.846,145.916C581.369,152.152 582.141,158.548 582.146,164.967C582.146,168.21 581.924,171.4 581.552,174.548C616.353,178.227 651.158,184.972 684.654,195.848C646.862,197.134 608.348,200.671 571.182,205.429C557.255,229.198 531.465,245.179 501.939,245.179C481.823,245.179 463.473,237.767 449.38,225.546C371.904,240.992 317.475,256.582 317.475,256.582C355.833,258.289 377.506,267.182 377.506,267.182C278.373,287.224 186.206,325.432 156.276,338.505C163.426,349.876 172.742,363.17 172.742,363.17L157.937,381.485C184.4,386.3 217.194,383.498 217.194,383.498L266.354,353.392L304.93,364.964L316.558,349.067L303.887,349.067L329.291,308.107L350.648,349.05L341.082,349.05L347.552,363.17L374.204,358.434L385.554,343.977L375.407,343.977L390.554,320.692L379.148,320.692L403.128,280.102L423.613,322.018L414.539,322.014L428.278,346.471L417.444,346.471L439.638,386.906L461.812,355.762L446.589,355.762L469.517,321.281L454.8,321.281L487.855,264.533L516.525,322L504.594,322L524.134,355.747L510.334,355.747L529.267,397.627L561.361,345.183L543.651,345.183L569.873,302.524L553.783,302.524L588.876,231.209L625.732,305.899L612.792,305.899L636.52,345.172L620.295,345.172L638.466,384.081L668.116,338.927L652.173,338.927L686.598,289.304L668.116,289.304L723.266,213.191L752.319,265.548L814.154,189.463C742.909,162.809 661.664,148.587 579.846,145.916ZM421.72,164.967C421.72,161.639 421.958,158.363 422.349,155.14C347.797,166.54 278.249,187.878 221.826,218.427C221.826,218.427 308.91,187.974 422.472,175.849C421.999,172.288 421.72,168.661 421.72,164.967Z" style="fill:rgb(166,25,46);fill-rule:nonzero;"/>
    </g>
    <path d="M511.16,193.93C406.475,197.312 312.341,223.425 312.319,223.425C311.599,218.754 310.889,214.237 310.159,209.542C306.916,215.028 303.832,220.285 300.591,225.727C300.581,225.727 253.233,243.082 222.005,259.487C262.076,245.672 294.579,237.161 294.579,237.161C291.381,244.046 288.144,250.912 284.867,257.759C290.877,252.393 296.609,247.256 302.62,241.876C306.926,244.171 311.046,246.423 315.397,248.74C314.787,243.62 314.217,238.642 313.6,233.453C313.616,233.443 419.23,204.076 511.16,193.93Z" style="fill:white;fill-rule:nonzero;"/>
</svg>
