<?xml version="1.0" encoding="UTF-8" standalone="no"?>
<!DOCTYPE svg PUBLIC "-//W3C//DTD SVG 1.1//EN" "http://www.w3.org/Graphics/SVG/1.1/DTD/svg11.dtd">
<svg width="100%" height="100%" viewBox="0 0 960 640" version="1.1" xmlns="http://www.w3.org/2000/svg" xmlns:xlink="http://www.w3.org/1999/xlink" xml:space="preserve" xmlns:serif="http://www.serif.com/" style="fill-rule:evenodd;clip-rule:evenodd;stroke-linejoin:round;stroke-miterlimit:2;">
    <path d="M792.935,88.59C792.935,0.003 693.205,0.003 679.778,0.003L655.613,0C655.613,0 689.732,34.3 689.732,46.688C689.729,49.471 687.437,51.758 684.654,51.755L597.757,51.755C594.975,51.757 592.683,49.47 592.679,46.688C592.679,34.301 626.798,0 626.798,0C593.682,0 546.198,7.402 513.21,30.847C503.893,29.911 494.536,29.442 485.172,29.442C331.925,29.442 207.687,153.683 207.687,306.939C207.687,337.179 212.539,366.278 221.487,393.524C200.97,418.599 167.065,469.938 167.065,535.384C167.065,591.944 195.014,640 195.014,640C195.014,640 244.78,567.135 356.31,567.135C364.85,567.135 367.052,559.687 367.4,558.245C403.154,575.031 443.065,584.436 485.172,584.436C638.425,584.436 762.663,460.189 762.663,306.939C762.663,257.713 749.833,211.493 727.351,171.418C758.073,161.978 792.935,137.536 792.935,88.59Z" style="fill:white;fill-rule:nonzero;"/>
    <path d="M781.499,88.59C781.499,33.578 731.012,9.523 680.203,11.425C680.203,11.425 701.18,31.653 701.18,46.677C701.18,54.657 695.226,63.18 678.54,63.18L603.358,63.18C586.454,63.18 576.367,57.37 576.367,47.63C576.367,31.668 601.468,13.029 601.468,13.029C601.468,13.029 550.58,16.093 516.516,42.778C506.227,41.573 495.782,40.878 485.172,40.878C338.237,40.878 219.118,159.996 219.118,306.939C219.118,357.572 233.268,404.902 257.823,445.189C253.843,447.299 249.826,448.703 244.222,448.703C225.592,448.703 225.482,407.405 225.482,407.405C225.482,407.405 178.496,462.189 178.496,535.383C178.496,580.45 197.536,619.217 197.536,619.217C197.536,619.217 250.26,555.696 356.31,555.696C356.31,555.696 306.014,535.49 306.014,511.094C306.02,511.085 306.237,508.499 307.939,505.314C354.992,547.381 417.082,572.991 485.172,572.991C632.122,572.991 751.238,453.88 751.238,306.939C751.238,254.228 735.842,205.135 709.402,163.799C735.062,159.704 781.499,142.166 781.499,88.59ZM247.1,306.94C247.1,175.452 353.693,68.862 485.171,68.862C488.261,68.862 491.31,68.98 494.365,69.093C489.452,78.813 486.512,90.174 486.512,103.518C486.512,164.678 554.305,165.273 554.305,165.273L521.229,252.658L463.76,179.874C443.353,154.039 422.214,148.608 408.072,148.608C379.205,148.608 356.832,169.051 341.583,209.36L267.87,404.157C254.567,374.472 247.102,341.581 247.102,306.939L247.1,306.94ZM276.828,422.14C292.227,417.142 315.802,411.296 341.86,411.296C375.338,411.296 405.575,419.518 405.575,419.518L434.853,342.182L462.607,392.556L437.442,418.876C422.145,434.888 383.991,424.88 341.86,424.88C312.615,424.88 294.837,428.183 282.825,432.345C280.74,428.994 278.741,425.592 276.828,422.14ZM723.248,306.94C723.248,438.423 616.666,545.01 485.171,545.01C429.341,545.01 378.043,525.747 337.441,493.55C376.656,495.256 398.095,520.603 453.327,520.603C534.449,520.603 581.97,471.435 599.392,425.397L690.075,185.75C711.127,221.254 723.248,262.67 723.248,306.94Z" style="fill:rgb(1,1,1);fill-rule:nonzero;"/>
    <path d="M702.81,23.18C702.81,23.18 712.605,32.387 712.605,46.677C712.605,60.966 701.477,74.619 678.541,74.619L603.358,74.619C574.144,74.619 564.938,59.694 564.938,47.63C564.938,35.567 571.777,29.107 571.777,29.107C571.777,29.107 497.938,43.497 497.938,103.518C497.938,154.001 554.387,153.848 554.387,153.848L570.849,153.848L524.773,275.595L454.79,186.955C450.443,181.455 433.426,160.039 408.073,160.039C372.824,160.039 357.5,199.586 352.272,213.398L277.907,409.905C277.907,409.905 305.425,399.865 341.861,399.865C372.593,399.865 398.454,406.076 398.454,406.076L432.92,315L476.657,394.39L445.697,426.778C425.331,448.085 382.807,436.302 341.861,436.302C265.415,436.302 272.797,460.122 244.221,460.122C223.979,460.122 218.731,435.547 218.731,435.547C218.731,435.547 189.924,483.299 189.924,535.384C189.924,569.202 201.797,598.948 201.797,598.948C201.797,598.948 261.37,548.239 321.382,548.239C321.382,548.239 294.589,535.383 294.589,511.094C294.589,504.187 303.757,482.039 333.289,482.039C379.024,482.039 398.073,509.181 453.328,509.181C530.649,509.181 573.598,461.276 588.711,421.359L689.931,153.849C689.931,153.849 770.076,154.001 770.076,88.59C770.076,28.578 702.81,23.18 702.81,23.18Z" style="fill:rgb(200,16,46);fill-rule:nonzero;"/>
</svg>
