<?xml version="1.0" encoding="UTF-8" standalone="no"?>
<!DOCTYPE svg PUBLIC "-//W3C//DTD SVG 1.1//EN" "http://www.w3.org/Graphics/SVG/1.1/DTD/svg11.dtd">
<svg width="100%" height="100%" viewBox="0 0 960 640" version="1.1" xmlns="http://www.w3.org/2000/svg" xmlns:xlink="http://www.w3.org/1999/xlink" xml:space="preserve" xmlns:serif="http://www.serif.com/" style="fill-rule:evenodd;clip-rule:evenodd;stroke-linejoin:round;stroke-miterlimit:2;">
    <path d="M770.21,95.226L726.835,95.226C725.073,90.19 722.123,85.256 717.773,80.916C705.188,68.313 688.28,66.265 678.433,76.105C676.353,78.192 674.8,80.678 673.767,83.437C670.867,81.315 667.234,79.395 662.901,77.679C656.811,64.892 648.211,46.814 628.881,46.814C621.977,46.814 615.794,48.957 610.934,51.37C596.683,40.083 565.783,18.956 534.242,18.956C499.705,18.956 451.784,50.67 437.732,50.67C427.495,50.67 404.529,0 368.874,0C349.721,0 330.316,12.981 307.194,26.928C285.137,40.139 279.24,56.117 272.859,72.964C270.684,78.457 261.066,88.506 254.389,95.226L143.719,95.226L332.173,422.941L203.153,422.941L162.063,496.934L351.373,496.934C357.863,496.934 365.072,494.713 371.495,491.334L456.974,640L540.152,495.335L609.427,495.335L609.427,454.765L604.776,454.765C604.73,440.673 594.062,425.307 588.713,418.523L587.691,412.663L603.584,385.002L696.221,350.84C711.261,345.294 718.247,331.818 721.497,321.287C721.497,321.287 731.717,321.185 741.037,310.482C747.569,312.165 755.878,313.902 762.316,313.902C776.333,313.902 791.055,305.891 794.857,290.974C794.857,290.974 809.695,281.856 816.281,253.824L700.964,215.648L770.21,95.226Z" style="fill:white;fill-rule:nonzero;"/>
    <path d="M680.36,237.164L694.838,241.954L694.743,251.291C687.032,250.998 680.863,249.53 680.863,272.075C680.863,288.895 684.071,294.345 684.071,299.088C684.071,307.135 683.385,309.045 658.091,309.045C658.091,309.045 654.14,304.249 640.264,298.876C640.264,298.876 640.002,297.592 639.436,295.236L746.579,108.908L714.119,108.908C716.521,104.296 714.154,96.628 708.106,90.578C701.258,83.738 692.302,81.584 688.11,85.775C686.2,87.678 685.62,90.572 686.18,93.808L672.837,107.798C673.197,105.685 673.951,94.582 652.994,88.598C646.68,76.104 641.414,60.485 628.881,60.485C618.641,60.485 609.753,68.273 609.753,68.273C609.753,68.273 571.467,32.626 534.243,32.626C501.931,32.626 457.353,64.351 437.732,64.351C416.796,64.351 398.296,13.668 368.874,13.668C353.06,13.668 334.387,26.387 314.29,38.625C294.202,50.825 290.456,65.78 285.558,78.043C282.314,86.171 272.038,97.066 260.034,108.908L167.382,108.908L355.572,436.198C354.142,436.456 352.752,436.633 351.479,436.633L211.204,436.633L185.304,483.249L351.373,483.249C358.436,483.249 368.117,479.004 372.885,473.79L375.535,470.922L456.974,612.552L532.233,481.653L595.756,481.653L595.756,468.446L580.493,468.446L577.784,459.953L580.111,459.953L591.108,454.867C591.108,442.176 575.849,424.359 575.849,424.359L573.359,410.147L594.203,373.888L691.495,338.004C708.745,331.648 710.67,306.506 710.67,306.506C710.67,306.506 726.488,313.937 735.225,294.636C735.225,294.636 752.769,300.242 762.315,300.242C770.6,300.242 782.184,295.767 782.184,283.32C782.184,283.32 794.96,275.666 799.137,262.571L684.51,224.604L680.36,237.164ZM689.89,98.99C693.886,98.99 696.182,100.536 696.182,102.775C696.182,105.003 688.1,115.618 677.852,115.618C675.692,115.618 675.192,114.437 675.192,113.768C675.192,110.503 685.872,98.99 689.889,98.99L689.89,98.99ZM681.252,121.002C690.706,132.405 691.042,144.922 691.042,144.922L678.518,122.94C678.518,120.7 681.252,121.002 681.252,121.002ZM675.433,128.5C675.433,128.5 689.239,143.777 689.239,152.393C689.239,157.113 685.468,155.216 685.468,155.216L672.091,135.178L675.433,128.5ZM677.665,165.523C671.104,165.523 664.857,147.721 664.857,147.721C664.857,147.721 665.515,144.121 669.024,144.121C680.226,153.677 677.665,165.523 677.665,165.523ZM655.36,156.061C666.488,156.061 670.867,176.329 669.884,180.008C659.088,180.008 655.36,156.061 655.36,156.061ZM659.272,192.529C643.55,192.529 635.587,164.116 635.587,164.116C635.587,164.116 635.903,160.179 647.034,161.052C647.034,161.052 662.83,177.1 659.272,192.529ZM669.721,121.249C669.721,135.529 653.199,153.069 645.014,153.069C640.702,153.069 640.052,149.652 640.052,149.652C640.052,149.652 650.259,127.942 665.392,118.197C665.392,118.197 669.721,118.31 669.721,121.249ZM655.105,99.255C661.953,95.343 672.069,107.995 662.409,112.891C648.141,119.873 632.797,149.38 632.797,149.38C625.917,150.54 623.357,146.324 623.357,146.324C623.357,146.324 626.395,117.854 655.105,99.255ZM481.312,346.37C476,352.422 461.091,342.04 466.75,336.116L622.553,172.365C628.323,166.603 635.973,173.737 630.505,179.857L481.313,346.369L481.312,346.37ZM491.902,365.464L490.537,369.927L485.246,369.1L486.091,361.265C489.186,360.416 490.474,364.615 491.902,365.464ZM475.865,357.838C481.225,357.838 481.008,365.545 481.008,378.307C481.008,386.821 477.754,390.237 475.518,390.237C471.504,390.237 471.709,384.08 470.478,381.89C470.478,381.89 472.134,379.722 472.134,375.382C472.134,371.024 469.948,357.838 475.865,357.838ZM403.065,342.642C399.566,346.122 393.281,345.684 393.281,345.684C393.281,345.684 376.175,330.634 386.613,316.164C397.673,322.94 403.064,342.642 403.064,342.642L403.065,342.642ZM394.935,311.176C394.935,304.7 408.71,300.154 408.71,312.304C408.71,327.68 411.67,327.432 411.67,329.544C411.67,332.402 406.106,330.364 406.106,330.364C406.106,325.667 394.936,317.638 394.936,311.176L394.935,311.176ZM423.775,340.782C430.463,340.782 428.135,349.299 428.135,349.299C416.138,346.438 398.325,363.486 398.325,363.486C398.325,363.486 397.118,360.823 397.118,357.834C397.118,352.04 410.178,340.782 423.774,340.782L423.775,340.782ZM414.203,310.052C414.203,301.247 422.565,297.02 422.565,321.476C419.646,324.383 414.203,319.863 414.203,310.051L414.203,310.052ZM408.338,364.339C419.462,400.121 429.582,419.369 429.582,419.369L425.628,421.435C425.628,421.435 405.413,407.145 402.498,373.528L408.338,364.339ZM416.445,359.889C435.995,349.104 443.731,381.89 443.731,381.89C443.731,413.137 440.675,418.361 440.675,418.361C436.111,417.176 425.295,396.056 416.445,359.889ZM436.762,332.862C434.577,334.093 429.833,334.33 429.833,327.21C429.833,320.323 427.573,310.362 430.653,303.642C441.424,308.732 434.046,327.454 436.763,332.862L436.762,332.862ZM435.588,348.178C435.588,345.833 438.528,342.052 444.095,342.052C449.673,342.052 454.848,343.01 454.848,348.932C454.848,356.168 446.097,361.01 444.565,361.01C441.87,361.01 435.588,354.325 435.588,348.178ZM441.506,307.264C441.506,307.264 449.998,306.373 449.998,316.857C449.998,320.977 450.005,327.878 450.419,330.924C448.509,333.881 442.906,331.483 442.906,331.483C442.906,331.483 440.101,315.937 441.506,307.264ZM451.53,373.528C451.53,373.528 462.951,362.047 462.951,389.665C462.951,413.002 447.239,424.756 447.239,415.56C447.239,409.904 453.136,410.548 451.529,373.528L451.53,373.528ZM457.09,315.336C457.09,315.336 462.559,312.817 462.559,324.203C462.559,335.684 461.349,335.003 459.616,335.968C459.616,335.968 454.946,328.876 457.09,315.336ZM462.541,366.337C460.861,366.337 457.946,364.54 457.946,362.213C457.946,355.075 459.866,350.933 463.333,350.933C465.438,350.933 466.315,353.243 466.315,355.701C466.315,363.674 463.708,366.337 462.541,366.337ZM619.702,157.697C619.702,157.697 625.196,155.295 628.283,165.075C623.381,164.817 620.399,166.978 620.399,166.978C620.399,166.978 617.499,160.972 619.702,157.697ZM635.085,67.062L641.145,80.046C634.721,80.046 630.257,70.347 630.257,68.462C630.257,66.008 634.509,65.813 635.085,67.062ZM621.655,67.812L640.869,93.961C640.869,93.961 639.369,97.077 636.716,94.241L615.801,71.971C615.801,71.971 616.798,67.811 621.655,67.811L621.655,67.812ZM611.91,77.513L634.774,103.703C636.009,104.941 631.828,108.255 629.464,105.938L603.562,80.602C603.562,80.602 608.872,74.037 611.91,77.514L611.91,77.513ZM598.278,86.374C602.123,86.374 626.734,105.383 626.734,110.996C626.734,111.646 624.937,114.183 623.894,113.444L592.7,91.163C592.7,91.163 594.437,86.373 598.278,86.373L598.278,86.374ZM587.515,98.658C599.555,104.116 610.251,110.918 621.092,118.113C622.893,119.326 620.059,124.961 618.309,124.034L585.505,106.231C585.505,106.231 584.501,102.663 587.515,98.658ZM583.79,113.444C590.479,115.354 612.402,127.458 615.239,129.336C617.679,130.92 614.202,134.546 613.031,134.051L582.106,119.584C582.106,119.584 580.044,117.264 583.79,113.444ZM577.9,125.972C590.185,129.435 605.77,137.68 605.77,137.68C583.857,138.777 577.084,128.501 577.084,128.501L577.901,125.972L577.9,125.972ZM439.373,122.828C485.982,122.828 537.68,167.152 573.119,216.3L476.244,318.095C422.144,289.518 369.713,244.151 369.713,185.835C369.713,153.445 397.773,122.828 439.373,122.828ZM313.129,53.025C320.897,49.318 326.355,56.728 326.355,56.728C325.293,59.594 316.811,65.618 316.811,71.627C316.811,74.863 332.817,75.136 332.817,87.505C332.817,92.91 330.057,95.626 330.057,95.626L323.723,96.153C323.723,96.153 326.45,93.475 326.45,88.396C326.45,84.031 322.053,80.268 318.99,80.268C309.893,80.268 312.03,93.43 305.715,88.208C307.59,77.962 311.962,69.947 313.129,53.025ZM282.498,97.087C299.448,114.051 307.098,132.699 307.098,132.699C303.678,141.177 266.411,158.127 266.411,158.127L288.454,117.45L233.332,164.93C233.332,164.93 234.181,142.879 240.958,135.246C247.749,127.644 282.498,97.087 282.498,97.087ZM217.769,477.462L195.152,477.462L214.61,442.43L237.244,442.43L217.769,477.462ZM368.613,469.864C364.916,473.907 356.866,477.462 351.373,477.462L334.763,477.462L350.613,442.43L351.479,442.43C360.035,442.43 371.442,437.673 377.48,431.59L404.253,404.59L414.737,419.556L368.613,469.864ZM544.712,459.954L562.224,459.954L559.791,468.446L539.838,468.446L544.712,459.953L544.712,459.954ZM490.123,451.924C488.687,450.095 490.233,446.501 493.519,443.913C496.855,441.295 500.735,440.697 502.149,442.547C503.603,444.376 502.079,447.984 498.761,450.587C495.429,453.18 491.559,453.774 490.123,451.924ZM577.242,472.921L591.303,472.921L591.303,477.204L479.9,477.204C481.644,467.834 487.006,461.333 488.23,459.954L492.096,459.954L499.439,472.921L511.557,472.921L515.675,459.953L522.469,459.953L527.216,472.921L563.164,472.921L566.854,459.953L573.107,459.953L577.242,472.921ZM581.802,352.439C565.987,352.439 535.862,344.979 503.182,330.947L587.094,237.274C605.129,266.777 616.374,296.007 616.374,316.728C616.374,348.403 596.432,352.438 581.802,352.438L581.802,352.439ZM709.782,255.391L714.497,248.461L742.494,257.721L742.744,266.321L709.782,255.391ZM763.352,292.821C759.249,293.804 755.482,292.768 754.948,290.476C754.378,288.223 757.278,285.552 761.371,284.562C765.439,283.578 769.238,284.654 769.768,286.918C770.327,289.195 767.451,291.838 763.352,292.821ZM758.414,271.513L763.374,264.648L769.347,266.632L771.151,275.733L758.414,271.513ZM687.343,230.246L793.19,265.28C789.47,272.467 783.102,277.302 780.768,278.919L776.01,277.349L773.223,263.199L761.689,259.383L753.97,270.033L747.257,267.809L746.843,254.477L712.693,243.169L705.367,253.939L699.191,251.889L699.329,238.737L685.991,234.323L687.341,230.245L687.343,230.246Z" style="fill:rgb(1,1,1);fill-rule:nonzero;"/>
    <g>
        <path d="M395.25,370.917C389.238,356.433 391.894,353.132 391.894,353.132C391.894,353.132 372.581,337.265 378.311,317.524C378.311,317.524 328.601,245.494 328.601,202.787C328.601,180.68 339.329,182.831 339.329,164.759C339.329,149.921 329.177,138.832 321.905,138.832C313.568,138.832 287.545,156.015 249.433,178.476L263.857,145.418L229.097,181.041C229.097,181.041 222.307,146.267 241.011,127.581C244.042,124.524 247.151,121.507 250.239,118.487L183.929,118.487L364.888,433.167C368.185,431.593 371.23,429.658 373.356,427.5L401.883,398.74C397.32,388.054 395.251,376.983 395.251,370.917L395.25,370.917ZM613.138,150.508L609.752,142.878C592.219,145.832 576.528,136.943 572.043,134.63C567.548,132.349 572.453,122.526 572.453,122.526C572.453,122.526 571.237,120.407 568.481,118.486L550.141,118.486C546.689,121.586 545.883,126.368 548.705,129.279C568.166,149.476 583.79,171.151 596.237,192.045L616.579,170.659L613.138,150.509L613.138,150.508ZM687.505,121.401C698.152,133.986 693.759,146.871 693.759,146.871C693.759,156.606 688.613,156.443 688.613,156.443C688.613,179.085 676.728,175.109 676.728,175.109C676.728,204.909 643.903,192.829 643.903,192.829C638.548,192.136 634.088,190.651 630.459,188.889L608.235,213.689C622.642,241.738 631.279,266.664 635.885,282.199L729.993,118.486L690.123,118.486L687.505,121.401ZM535.137,359.053C535.137,357.052 505.297,349.128 493.59,344.643C482.887,348.849 496.79,350.996 496.79,364.897C496.79,373.135 492.78,382.798 492.78,382.798L486.82,384.488C486.82,384.488 474.96,406.366 467.34,403.144C456.464,422.272 452.014,426.698 434.735,426.698C429.185,426.698 424.301,425.081 420.007,422.378L382.312,463.491L456.974,593.335L521.187,481.654L475.024,481.654C475.024,469.762 482.586,459.954 482.586,459.954C482.586,441.026 494.244,436.994 502.928,436.219C521.381,434.596 528.904,436.198 528.904,427.182C528.904,420.815 528.349,413.302 528.349,413.302L535.137,413.302C535.137,388.507 528.204,382.487 528.204,369.832C528.204,364.985 535.137,362.892 535.137,359.053ZM529.732,466.784L533.658,459.954L527.207,459.954L529.732,466.784Z" style="fill:rgb(255,184,28);fill-rule:nonzero;"/>
        <path d="M502.026,468.446L508.297,468.446L511.003,459.953L497.22,459.953L502.026,468.446ZM564.693,405.973L579.167,380.8L563.024,388.723L564.693,405.973Z" style="fill:rgb(255,184,28);fill-rule:nonzero;"/>
    </g>
</svg>
