<?xml version="1.0" encoding="UTF-8" standalone="no"?>
<!DOCTYPE svg PUBLIC "-//W3C//DTD SVG 1.1//EN" "http://www.w3.org/Graphics/SVG/1.1/DTD/svg11.dtd">
<svg width="100%" height="100%" viewBox="0 0 960 640" version="1.1" xmlns="http://www.w3.org/2000/svg" xmlns:xlink="http://www.w3.org/1999/xlink" xml:space="preserve" xmlns:serif="http://www.serif.com/" style="fill-rule:evenodd;clip-rule:evenodd;stroke-linejoin:round;stroke-miterlimit:2;">
    <path d="M731.938,177.633L670.875,275.177C677.55,272.077 684.59,268.865 691.611,265.665L756.776,160.255C756.776,160.255 645.923,184.469 545.02,194.7C547.422,198.442 549.77,202.21 552.098,206.03C621.383,198.717 693.673,185.294 731.938,177.632L731.938,177.633Z" style="fill:none;fill-rule:nonzero;"/>
    <path d="M713.266,384.516L710.18,380.563C744.509,319.09 769.36,245.731 769.36,236.953C769.36,234.825 768.377,234.194 767.098,234.857C712.482,262.547 652.503,287.249 639.237,296.516L635.68,301.43C606.312,275.263 581.118,256.862 571.37,250.005C510.314,130.205 416.647,45.998 356.304,15.835C356.304,28.345 416.031,120.291 425.183,197.552C317.143,190.189 180.104,160.255 180.104,160.255L298.096,351.13C201.196,357.068 116.186,359.074 116.186,359.074C116.186,365.811 224.394,417.554 384.153,453.684C419.088,461.604 445.113,460.349 462.128,460.349C458.991,456.903 455.818,453.491 452.608,450.113C475.768,464.234 496.888,478.312 515.906,490.964C511.134,491.029 505.934,491.05 500.203,491.05C461.789,491.05 432.75,489.047 414.366,487.664C409.811,487.314 405.887,487.022 402.672,486.794C401.04,486.694 399.604,486.616 398.328,486.544L380.254,457.676C372.966,456.066 365.998,454.368 361.19,453.193L385.34,492.24C362.783,508.464 304.86,557.634 262.904,626.17L266.572,632.935C266.572,632.935 307.109,630.419 341.377,629.45C341.377,629.45 356.746,585.612 411.704,534.888L468.444,626.634L537.273,515.293C541.731,514.815 546.225,514.288 550.841,513.732C555.606,516.718 560.204,519.52 564.584,522.043C562.232,523.447 560.254,525.251 558.732,527.953C558.732,527.953 562.695,530.668 562.952,536.014C562.952,536.014 566.355,536.563 569.909,535.558C569.909,535.558 572.332,531.88 574.432,527.439C578.944,529.742 583.188,531.744 587.166,533.334C587.13,537.176 587.776,540.02 587.776,540.02C587.776,540.02 592.17,541.36 597.448,536.656C627.957,543.606 646.187,537.711 646.187,537.711C677.151,546.878 692.894,536.627 692.894,536.627C705.022,541.902 715.162,544.946 748.375,544.946C766.399,544.946 772.351,542.757 772.351,539.721C772.351,525.236 757.015,465.916 741.696,435.408C733.264,400.339 731.888,393.935 713.266,384.515L713.266,384.516Z" style="fill:none;fill-rule:nonzero;"/>
    <path d="M820.149,255.522L812.379,269.372L814.072,279.968C779.205,348.551 740.385,410.622 740.385,410.622L745.179,422.266L750.856,418.328L754.734,418.667C754.734,418.667 791.9,383.122 839.252,291.341C839.252,291.341 852.952,291.801 854.075,280.691C855.183,269.457 855.957,261.649 855.957,257.151C838.903,250.952 820.149,255.521 820.149,255.521L820.149,255.522ZM750.635,424.622L751.736,428.666C751.736,428.666 761.673,435.445 768.851,437.447L774.585,433.313C774.585,433.313 771.285,429.093 772.322,422.908C764.863,418.071 750.635,424.622 750.635,424.622Z" style="fill:none;fill-rule:nonzero;"/>
    <path d="M815.661,249.602L805.265,268.11L806.979,278.863C779.469,332.741 749.466,382.744 738.72,400.34C734.554,390.895 729.062,385.314 718.434,379.63C718.434,379.63 767.251,291.055 780.452,220.808C743.528,239.095 704.852,257.182 704.852,257.182L771.007,150.158C771.007,150.158 643.795,177.986 543.157,188.025C434.667,28.192 336.024,0 336.024,0C336.024,0 404.347,111.876 417.05,190.1C278.693,177.112 165.862,150.158 165.862,150.158L286.327,345.015C215.837,349.199 97.243,353.035 97.243,353.035C127.473,383.261 224.712,421.578 353.313,453.35L376.259,490.488C300.626,547.498 255.035,625.993 255.035,625.993L262.676,640C262.676,640 300.213,637.755 346.256,636.115C346.256,636.115 358.788,595.656 410.314,545.581L468.444,639.615L541.343,521.702L549.28,520.782L553.685,523.427C552.48,524.631 551.668,526.955 549.935,529.721C555.984,533.834 556.158,534.518 556.447,541.839C556.447,541.839 564.499,544.676 574.449,541.411L577.219,536.414L580.608,537.947C581.032,541.489 582.016,545.346 582.016,545.346C591.289,549.708 599.138,543.913 599.138,543.913C623.894,549.003 640.641,546.101 646.19,544.754C670.686,551.497 686.543,546.935 693.115,544.084C704.377,548.739 716.045,551.761 748.375,551.761C763.28,551.761 779.162,550.841 779.162,539.721C779.162,524.111 764.239,466.801 749.102,435.088C749.102,435.088 760.215,442.908 770.188,444.903L784.03,434.888C777.743,427.497 778.937,425.337 779.778,419.611C774.842,415.427 767.931,414.457 767.931,414.457C781.464,398.922 809.734,362.682 843.529,297.82C850.635,296.744 859.739,292.57 860.832,281.379C862.037,269.194 862.757,263.94 862.757,252.361C841.362,242.563 815.661,249.601 815.661,249.601L815.661,249.602Z" style="fill:white;fill-rule:nonzero;"/>
    <g>
        <path d="M731.938,177.633L670.875,275.177C677.55,272.077 684.59,268.865 691.611,265.665L756.776,160.255C756.776,160.255 645.923,184.469 545.02,194.7C547.422,198.442 549.77,202.21 552.098,206.03C621.383,198.717 693.673,185.294 731.938,177.632L731.938,177.633Z" style="fill:rgb(1,1,1);fill-rule:nonzero;"/>
        <path d="M741.696,435.409C733.264,400.34 731.888,393.936 713.266,384.516L710.18,380.563C744.508,319.09 769.36,245.732 769.36,236.953C769.36,234.825 768.377,234.194 767.098,234.858C712.482,262.547 652.502,287.249 639.237,296.516L635.68,301.431C606.312,275.263 581.118,256.862 571.37,250.005C510.314,130.206 416.647,45.998 356.304,15.835C356.304,28.345 416.031,120.291 425.183,197.553C317.142,190.189 180.104,160.255 180.104,160.255L298.096,351.13C201.196,357.068 116.186,359.074 116.186,359.074C116.186,365.811 224.394,417.554 384.153,453.684C419.088,461.604 445.113,460.349 462.128,460.349C458.991,456.903 455.818,453.491 452.608,450.113C475.768,464.234 496.888,478.312 515.906,490.964C511.134,491.029 505.934,491.05 500.203,491.05C461.789,491.05 432.75,489.047 414.366,487.664C409.811,487.314 405.887,487.022 402.672,486.794C401.04,486.694 399.604,486.616 398.328,486.544L380.254,457.676C372.966,456.066 365.998,454.368 361.19,453.193L385.34,492.24C362.783,508.464 304.86,557.634 262.904,626.17L266.572,632.935C266.572,632.935 307.109,630.419 341.377,629.45C341.377,629.45 356.746,585.612 411.704,534.888L468.444,626.634L537.273,515.293C541.731,514.815 546.225,514.288 550.841,513.732C555.606,516.718 560.204,519.52 564.584,522.043C562.232,523.447 560.254,525.251 558.732,527.953C558.732,527.953 562.695,530.668 562.952,536.014C562.952,536.014 566.355,536.563 569.909,535.558C569.909,535.558 572.332,531.88 574.432,527.439C578.944,529.742 583.188,531.744 587.166,533.334C587.13,537.176 587.776,540.02 587.776,540.02C587.776,540.02 592.17,541.36 597.448,536.656C627.957,543.606 646.187,537.711 646.187,537.711C677.151,546.878 692.894,536.627 692.894,536.627C705.022,541.902 715.162,544.946 748.375,544.946C766.399,544.946 772.351,542.757 772.351,539.721C772.351,525.236 757.015,465.916 741.696,435.408L741.696,435.409ZM468.443,573.388L436.011,521.98C448.595,521.751 472.563,521.003 503.022,518.551L468.443,573.388Z" style="fill:rgb(1,1,1);fill-rule:nonzero;"/>
        <path d="M750.635,424.622L751.736,428.666C751.736,428.666 761.673,435.445 768.851,437.447L774.585,433.313C774.585,433.313 771.285,429.093 772.322,422.908C764.863,418.071 750.635,424.622 750.635,424.622ZM820.149,255.522L812.379,269.372L814.072,279.968C779.205,348.551 740.385,410.623 740.385,410.623L745.179,422.266L750.856,418.328L754.734,418.667C754.734,418.667 791.9,383.122 839.252,291.341C839.252,291.341 852.952,291.801 854.075,280.691C855.183,269.457 855.957,261.649 855.957,257.151C838.903,250.952 820.149,255.521 820.149,255.521L820.149,255.522Z" style="fill:rgb(1,1,1);fill-rule:nonzero;"/>
    </g>
    <g>
        <path d="M425.254,522.928C424.328,523.698 423.486,524.482 422.578,525.266L468.443,598.522L519.388,517.125C517.92,517.275 516.43,517.404 514.976,517.525L468.443,591.921L425.254,522.928ZM724.425,182.822L664.862,277.986C666.837,277.059 668.832,276.144 670.875,275.178L731.938,177.633C693.674,185.296 621.384,198.718 552.098,206.031C552.791,207.171 553.471,208.323 554.162,209.467C619.382,202.438 686.771,190.189 724.425,182.822ZM402.673,486.795L385.098,458.739C383.491,458.389 381.865,458.047 380.255,457.677L398.328,486.546C399.604,486.617 401.04,486.696 402.673,486.796L402.673,486.795ZM565.293,533.306C569.994,526.962 573.184,522.914 573.94,520.369C569.791,522.172 564.477,523.163 561.583,527.569C561.583,527.569 563.697,529.629 565.293,533.306ZM589.457,537.662C589.457,537.662 592.594,537.255 595.338,534.504C595.338,534.504 592.426,529.999 590.688,525.808C588.62,531.075 589.458,537.662 589.458,537.662L589.457,537.662ZM574.966,426.591C577.476,446.564 582.272,455.033 582.272,455.033C582.272,455.033 589.8,460.927 604.134,466.793C589.657,440.013 574.966,426.591 574.966,426.591ZM418.162,515.714L423.929,512.485C423.929,512.485 447.612,516.305 589.533,501.665C586.153,499.205 584.479,499.69 584.479,494.045C584.479,492.241 584.785,491.942 581.691,491.942C578.605,491.942 577.279,491.122 573.626,491.122C569.075,491.122 562.286,495.684 492.746,495.684C437.415,495.684 398.645,491.037 396.086,491.037C393.559,491.037 388.576,495.777 373.757,507.695C373.757,507.695 402.897,507.317 418.162,515.715L418.162,515.714ZM345.822,604.616C324.498,600.539 280.461,607.902 280.461,607.902L268.66,624.917L337.589,621.681L345.822,604.616ZM820.003,277.526C796.957,318.912 771.888,373.77 744.463,407.704L752.367,402.75L754.099,401.035L752.67,405.69L756.02,404.097L750.98,412.978L755.675,409.211C755.675,409.211 779.133,382.831 838.457,275.67C825.263,273.67 820.003,277.526 820.003,277.526ZM822.426,261.449L817.618,269.054C817.618,269.054 829.233,266.838 844.691,268.131L850.286,260.248C833.261,257.036 822.426,261.448 822.426,261.448L822.426,261.449Z" style="fill:rgb(229,114,0);fill-rule:nonzero;"/>
        <path d="M749.249,408.488C749.249,408.488 747.057,410.266 743.649,411.214L746.543,417.344L748.329,415.965L747.616,413.759L750.596,408.081L749.249,408.488ZM769.824,424.394C765.002,421.885 755.611,425.6 755.611,425.6C755.611,425.6 765.141,427.831 770.526,430.284C770.526,430.284 769.571,428.088 769.824,424.394Z" style="fill:rgb(229,114,0);fill-rule:nonzero;"/>
    </g>
    <g>
        <path d="M402.673,486.795C405.887,487.023 409.811,487.315 414.366,487.665L397.679,461.212C393.794,460.542 389.496,459.666 385.098,458.739L402.673,486.795ZM436.01,521.98C429.706,522.08 426.242,522.072 426.242,522.072C425.892,522.357 425.589,522.65 425.254,522.928L468.444,591.921L514.976,517.525C510.884,517.91 506.914,518.265 503.022,518.551L468.443,573.388L436.01,521.98ZM707.42,194.459L650.343,284.982C654.637,282.836 659.566,280.477 664.863,277.986L724.425,182.822C686.771,190.189 619.382,202.438 554.163,209.467C555.733,212.046 557.277,214.642 558.793,217.254C612.385,211.349 667.286,202.014 707.421,194.459L707.42,194.459ZM426.391,216.424C426.391,212.204 426.199,207.938 425.818,203.604C388.694,207.532 366.568,216.299 358.068,220.28C371.095,216.649 394.208,215.536 426.391,216.424ZM708.505,387.58C708.505,387.58 663.348,324.198 576.513,260.251C583.891,275.512 590.759,291.276 596.938,307.557C597.815,309.845 597.684,311.841 595.734,311.841C576.716,311.841 509.569,274.911 443.609,281.528C477.867,314.15 511.925,359.928 478.901,343.237C478.901,343.237 513.383,364.517 553.881,407.194C584.051,407.194 590.05,412.284 591.824,416.503C595.26,424.647 600.26,439.115 620.012,462.41C629.079,462.41 630.737,461.818 634.058,453.67C634.058,453.67 636.528,464.07 631.988,471.698C673.156,504.224 753.094,536.992 765.315,536.992C770.234,536.992 760.105,492.256 736.953,438.46C729.39,404.385 725.216,394.834 708.505,387.58ZM333.27,348.84C333.27,348.84 345.045,355.768 364.38,370.36C359.633,362.144 347.109,353.202 333.398,344.88L303.31,347.086L305.53,350.678C314.722,350.091 323.97,349.467 333.27,348.839L333.27,348.84ZM510.467,401.538C505.702,427.283 510.688,447.948 510.688,447.948C509.872,439.343 516.655,410.487 516.655,410.487L510.467,401.537L510.467,401.538ZM495.349,386.84C490.605,416.382 497.288,439.95 497.288,439.95C495.862,429.093 501.525,397.126 501.525,397.126L495.349,386.84ZM480.39,373.474C475.497,405.048 483.124,430.262 483.124,430.262C481.705,415.897 486.578,382.427 486.578,382.427L480.39,373.474ZM446.357,321.371C446.357,321.371 388.295,273.324 316.215,261.224C313.61,261.224 308.399,272.18 308.399,272.18C308.399,272.18 316.03,265.298 318.35,265.298C380.076,277.18 446.357,321.371 446.357,321.371Z" style="fill:rgb(0,98,114);fill-rule:nonzero;"/>
    </g>
    <g>
        <path d="M611.865,526.962C620.273,521.98 626.435,517.24 626.435,517.24C598.706,518.451 588.256,515.072 588.256,515.072C593.218,510.119 599.416,505.849 603.34,501.928C600.353,502.399 597.284,502.727 594.287,502.983C594.251,504.331 592.772,505.863 588.542,508.429C580.392,509.741 572.224,510.946 564.042,512.043C566.32,514.467 568.75,516.826 571.449,519.065C573.327,518.451 575.329,517.845 577.469,517.119C577.469,518.815 577.016,520.775 576.367,522.736C579.883,525.118 583.639,527.127 587.572,528.73C588.007,526.014 588.823,523.177 590.47,520.611C591.874,521.003 592.637,525.109 593.425,526.235C595.481,529.244 598.183,529.735 598.685,532.215C610.311,534.889 625.059,535.63 644.508,533.185L649.904,528.809C621.449,529.322 611.864,526.963 611.864,526.963L611.865,526.962ZM565.778,485.256C553.343,489.226 548,486.446 548,486.446C550.438,484.016 552.014,479.246 552.014,479.246C541.008,482.319 537.594,479.261 537.594,479.261C539.34,478.206 541.104,473.986 541.104,473.986C526.819,473.986 519.014,476.339 519.014,476.339C530.879,477.829 538.652,483.039 545.256,489.775C554.562,489.112 560.257,488.278 564.246,487.629L565.778,485.256Z" style="fill:white;fill-rule:nonzero;"/>
        <path d="M541.703,478.05C541.703,478.05 547.73,478.413 554.712,475.925C554.712,475.925 555.082,480.601 551.921,484.799C551.921,484.799 557.827,484.757 569.966,481.949C569.966,481.949 568.918,484.372 567.453,487.08C569.649,486.717 571.303,486.482 573.045,486.482C576.948,486.482 577.415,487.302 580.84,487.302C587.298,487.302 588.093,488.642 589.048,496.162C590.356,498.079 591.871,499.377 592.904,500.496C597.684,500.125 603.19,499.605 608.728,498.82C608.728,498.82 602.566,507.374 593.268,513.675C593.268,513.675 619.071,516.106 632.436,514.431C632.436,514.431 626.666,521.474 618.729,525.522C618.729,525.522 636.564,526.662 655.72,526.335C655.72,526.335 651.96,530.491 648.215,533.513C648.215,533.513 671.887,538.853 688.724,534.846C627.914,510.66 594.447,474.05 543.552,474.05C542.797,476.196 541.702,478.05 541.702,478.05L541.703,478.05ZM296.37,587.516L282.692,605.03C282.692,605.03 322.909,598.757 347.027,602.42L353.723,590.937C340.573,584.123 296.371,587.516 296.371,587.516L296.37,587.516Z" style="fill:white;fill-rule:nonzero;"/>
        <path d="M302.622,579.675L298.385,584.985C298.385,584.985 339.902,581.828 355.049,588.827L364.9,574.001C351.478,571.827 302.622,579.675 302.622,579.675ZM309.81,570.879L304.978,576.745C304.978,576.745 354.704,568.997 366.465,571.855L367.338,570.658C355.028,566.602 309.811,570.878 309.811,570.878L309.81,570.879ZM326.562,551.633L312.06,568.163C312.06,568.163 352.37,563.978 368.917,568.626L385.637,549.309C368.657,546.515 326.562,551.633 326.562,551.633ZM348.188,529.885L329.082,548.845C329.082,548.845 364.33,544.07 387.578,547.121L396.717,537.027C388.01,529.6 348.188,529.885 348.188,529.885Z" style="fill:white;fill-rule:nonzero;"/>
        <path d="M351.813,526.577L350.812,527.483C350.812,527.483 385.194,526.955 398.388,535.195L400.37,533.107C389.703,527.047 351.813,526.577 351.813,526.577ZM370.813,510.154L354.397,524.254C354.397,524.254 392.697,524.952 402.098,531.274L416.212,517.354C403.806,510.311 370.813,510.154 370.813,510.154ZM348.858,603.96L349.378,607.432L354.864,597.802L354.33,594.472L348.858,603.96ZM356.165,591.422L356.728,594.751L365.959,581.265L365.356,577.458L356.165,591.422ZM367.27,574.75L367.92,578.727L368.807,577.587L368.044,573.687L367.27,574.75ZM369.94,571.178L370.72,575.227L386.42,557.557L385.761,552.737L369.94,571.178ZM387.796,550.45L388.484,555.304L397.974,545.16L396.774,540.52L387.796,550.45ZM398.663,538.467L399.875,543.164L401.721,541.24L401.065,535.858L398.663,538.467ZM403.129,533.677L403.806,539.123L416.276,526.891L416.123,520.554L403.129,533.677Z" style="fill:white;fill-rule:nonzero;"/>
    </g>
</svg>
