<?xml version="1.0" encoding="UTF-8" standalone="no"?>
<!DOCTYPE svg PUBLIC "-//W3C//DTD SVG 1.1//EN" "http://www.w3.org/Graphics/SVG/1.1/DTD/svg11.dtd">
<svg width="100%" height="100%" viewBox="0 0 960 640" version="1.1" xmlns="http://www.w3.org/2000/svg" xmlns:xlink="http://www.w3.org/1999/xlink" xml:space="preserve" xmlns:serif="http://www.serif.com/" style="fill-rule:evenodd;clip-rule:evenodd;stroke-linejoin:round;stroke-miterlimit:2;">
    <path d="M804.596,57.177L282.8,57.177C313.716,104.24 319.593,138.895 260.196,135.643L212.156,57.177L160.35,57.177L372.131,403.127C358.431,400.132 344.449,398.62 330.425,398.617C255.584,398.617 194.693,439.927 194.693,490.727C194.693,541.495 255.583,582.816 330.425,582.816C405.275,582.816 466.172,541.495 466.172,490.728C466.172,478.424 462.699,466.487 455.838,455.245L386.851,342.535C386.851,342.535 430.329,357.738 460.397,354.552C460.397,354.552 446.76,337.674 440.677,327.184C440.677,327.184 490.151,333.131 554.768,327.494L530.528,301.784C532.508,301.825 534.616,301.855 536.89,301.855C641.707,301.855 673.272,248.135 673.272,248.135L644.708,248.135C644.708,248.135 715.49,230.098 730.618,189.595L704.37,189.595C704.37,189.595 760.367,162.143 765.837,131.047L733.88,131.047C733.88,131.047 789.718,99.535 804.596,57.177Z" style="fill:rgb(255,184,28);fill-rule:nonzero;"/>
    <path d="M792.512,64.694L296.212,64.694C337.343,131.879 296.157,147.006 255.846,142.935L207.95,64.694L173.763,64.694L388.358,415.252C370.953,409.432 351.276,406.127 330.425,406.127C259.605,406.127 202.198,443.999 202.198,490.727C202.198,537.434 259.605,575.299 330.425,575.299C401.245,575.299 458.649,537.434 458.649,490.728C458.649,479.564 455.367,468.918 449.415,459.149L369.866,329.2C369.866,329.2 421.258,347.032 444.973,347.032C444.973,347.032 434.171,333.262 427.653,318.436C427.653,318.436 489.215,325.072 538.522,321.22L511.713,292.798C511.713,292.798 519.709,294.343 536.889,294.343C623.645,294.343 656.9,255.655 656.9,255.655L398.933,255.655L395.162,249.493L609.2,249.493C609.2,249.493 696.42,232.834 717.471,197.11L363.09,197.11L359.323,190.957L685.51,190.957C685.51,190.957 746.236,161.648 754.96,138.57L327.258,138.57L323.486,132.402L716.56,132.402C716.56,132.402 773.838,102.609 792.513,64.695L792.512,64.694Z" style="fill:rgb(0,48,135);fill-rule:nonzero;"/>
</svg>
