<svg xmlns="http://www.w3.org/2000/svg" viewBox="0 0 960 640"><path d="M708.644 374.292c-31.639 82.293-55.777 163.399-68.477 242.72H320.13c-12.7-79.247-36.838-160.352-68.479-242.72l105.243 80.289-27.184 49.761h106.283l-38.472-50.504 82.59-97.668 82.59 97.668-38.473 50.504h106.283l-27.183-49.761 105.242-80.289h.074Zm-392.45-262.4 24.138 44.264h-93.507l34.163-44.785-74.79-88.383-74.792 88.383 34.165 44.785H72.063L96.2 111.891.02 38.511l.668 1.634c30.6 79.618 50.654 150.845 61.348 217.616v.446h288.026v-.446c10.77-66.845 30.822-137.998 61.422-217.616l.668-1.634-96.181 73.38h.222Zm547.826 0 24.139 44.264h-93.507l34.163-44.785-74.79-88.383-74.792 88.383 34.165 44.785H619.89l24.138-44.265-96.181-73.38.668 1.634c30.6 79.618 50.654 150.845 61.35 217.616v.446h288.024v-.446c10.77-66.845 30.822-137.998 61.422-217.616l.67-1.634-96.183 73.38h.222Z" fill="#ffd100"/></svg>