<svg xmlns="http://www.w3.org/2000/svg" viewBox="0 0 960 640"><path d="M480 639.91C270.946 587.94 202.009 406.53 202.009 406.53s30.967-51.972 30.967-136.169c0-98.018-39.674-150.978-39.674-150.978L307.388 0s40.214 30.25 88.685 30.25S480 2.244 480 2.244s37.79 28.095 83.927 28.095c48.471 0 88.685-30.25 88.685-30.25l114.086 119.383s-39.674 52.96-39.674 150.98c0 84.197 30.967 136.168 30.967 136.168S689.054 588.028 480.09 640" fill="#89734c"/><path d="M479.999 20.645s38.417 24.325 83.926 24.325 86.62-25.94 86.62-25.94l97.57 102.148s-35.813 56.46-35.813 149.094c0 81.862 29.172 136.527 29.172 136.527-89.134 185.178-261.475 218.3-261.475 218.3s-172.343-33.122-261.477-218.3c0 0 29.174-54.665 29.174-136.527 0-92.635-35.815-149.094-35.815-149.094l97.57-102.149s39.047 25.941 86.62 25.941S480 20.645 480 20.645Z" fill="#041e42"/><path d="M479.999 44.162c14.54 7.45 46.765 21.453 83.836 21.453 35.008 0 65.527-12.207 82.672-20.735l76.206 79.799c-10.681 22.17-31.236 74.233-31.236 145.593 0 66.424 17.952 115.792 26.929 136.257-32.854 64.36-80.158 116.242-140.657 154.032-45.868 28.724-85.005 40.034-97.84 43.264-12.926-3.23-51.973-14.63-97.84-43.264-60.5-37.88-107.804-89.672-140.656-154.032 8.976-20.465 26.927-69.833 26.927-136.257 0-71.451-20.555-123.423-31.236-145.593l76.297-79.799c17.234 8.618 47.842 20.825 82.67 20.825S463.033 52.87 480 44.252m0-6.732c-14.363 7.54-46.946 22.171-83.928 22.171s-68.04-13.823-83.927-22.171l-82.131 86.082c10.592 21.004 32.404 73.065 32.404 146.67 0 68.488-19.48 118.664-27.558 136.438 79.26 157.98 223.238 198.013 245.05 203.309 21.811-5.296 165.79-45.33 245.049-203.31-8.079-17.773-27.557-67.95-27.557-136.437 0-73.605 21.812-125.666 32.404-146.67L647.673 37.61c-15.887 8.348-47.394 22.17-83.927 22.17s-67.95-13.643-83.837-22.17" fill="#003087"/><path d="M661.137 215.607V112.831l-15.438-15.44h-73.246l-15.44 15.44v102.776h25.583v-32.404h53.138v32.404h25.582-.179Zm-78.631-57.896v-24.953c0-5.387 4.398-9.785 9.784-9.785h33.57c5.387 0 9.785 4.398 9.785 9.785v24.953h-53.14Zm-179.523 42.457-15.44 15.44H314.3l-15.44-15.44V97.39h25.582v82.94c0 5.386 4.399 9.784 9.784 9.784h33.572c5.385 0 9.784-4.398 9.784-9.784v-82.94h25.581v102.777h-.179Zm129.077 0-15.44 15.44h-73.514l-15.26-15.26v-25.223l25.583 5.565c.179 5.206 4.488 9.335 9.783 9.335h33.572c5.386 0 9.784-4.398 9.784-9.783v-4.22l-72.976-18.31-5.745-7.36V112.83l15.529-15.439h73.515l15.259 15.26v26.48l-25.582-6.373c0-5.387-4.398-9.785-9.784-9.785h-33.572c-5.385 0-9.783 4.398-9.783 9.785v4.218l72.886 18.311 5.745 7.361v37.61-.09Z" fill="#fff"/><path d="m532.06 200.168-15.44 15.44h-73.514l-7.989-7.99 9.694-9.693c2.603 2.603 6.194 4.219 10.233 4.219h49.908c4.04 0 7.72-1.706 10.323-4.399 2.243-2.334 3.68-5.386 3.949-8.707V166.15l10.054-7.361 2.872 3.68v37.61l-.09.09Zm-12.836-64.269 12.836 3.232v-26.48l-7.361-7.36-9.334 9.335c2.153 2.333 3.59 5.296 3.859 8.617V135.9Zm-65.795-3.141c0-5.387 4.398-9.785 9.783-9.785h33.572c2.782 0 5.386 1.168 7.18 3.142l11.49-11.4c-2.603-2.782-6.283-4.487-10.412-4.487h-49.908c-4.13 0-7.81 1.705-10.412 4.487-2.424 2.604-3.95 6.015-3.95 9.874v22.262l12.746-9.695v-4.219l-.09-.179Zm0 47.932-12.746-2.783v9.964c0 3.95 1.615 7.45 4.128 10.053l11.131-11.13c-1.526-1.616-2.424-3.77-2.513-6.194m-22.71-26.48 2.873 3.68 72.976 18.312 12.656-9.783-78.63-19.57-9.875 7.452v-.09Zm139.041 15.71h78.54l-12.745 13.373h-53.14v32.404h-25.581l12.836-13.374V169.83h.09Zm83.568-64.809-9.245 9.245c2.603 2.603 4.218 6.194 4.218 10.144v77.823l-12.746 13.374h25.582V112.831l-7.81-7.81Zm-70.822 27.737c0-5.387 4.398-9.785 9.784-9.785h33.57c2.694 0 5.028 1.078 6.823 2.784l11.49-11.491c-2.604-2.603-6.194-4.218-10.144-4.218H584.12c-3.948 0-7.539 1.615-10.142 4.218-2.603 2.603-4.219 6.194-4.219 10.144v45.42l12.745-12.119v-24.953Zm-276.016 75.13 9.513-9.515c2.604 2.424 6.015 3.86 9.785 3.86h49.908c3.77 0 7.18-1.436 9.694-3.77 2.872-2.604 4.667-6.373 4.667-10.592v-77.823l13.016-12.657v102.777l-15.44 15.44H314.39l-7.72-7.72h-.18Zm4.936-97.84v77.823c0 4.129 1.795 7.899 4.577 10.502l11.22-11.22a9.7 9.7 0 0 1-2.871-6.911v-82.94l-12.837 12.656-.09.09Z" fill="#8d9093"/><path d="M581.52 539.198c14.363-9.785 27.916-20.377 40.663-31.956V254.384H581.52v284.814ZM297.154 463.708V254.474h-12.925c.18 5.206.359 10.502.359 15.887 0 62.116-15.349 110.587-25.224 135.45 11.042 20.735 23.698 40.034 37.79 57.897ZM500.288 580.757c11.13-3.949 25.133-9.694 40.662-17.593v-308.78h-40.662v326.373ZM662.845 254.384v209.234c14.092-17.863 26.75-37.161 37.79-57.897-9.964-24.863-25.224-73.334-25.224-135.45 0-5.385.18-10.68.36-15.887h-12.926ZM378.389 539.198V254.384h-40.662v252.858a364.428 364.428 0 0 0 40.662 31.956ZM459.625 580.757V254.384h-40.661v308.78a354.536 354.536 0 0 0 40.661 17.593Z" fill="#c8102e"/><path d="M337.73 507.242V254.384h-40.663v209.234c12.387 15.708 25.941 30.25 40.662 43.534M419.054 563.253V254.384H378.39v284.814c6.553 4.488 13.286 8.707 20.196 12.835 7.091 4.13 13.913 7.899 20.467 11.22ZM581.522 539.198V254.384h-40.663v308.78a367.817 367.817 0 0 0 20.465-11.22c6.912-4.04 13.645-8.348 20.198-12.836M662.843 463.708V254.474H622.18v252.858c14.72-13.375 28.275-27.916 40.662-43.534M500.286 580.757V254.384h-40.663v326.373a326.104 326.104 0 0 0 20.286 6.462c4.758-1.256 11.76-3.32 20.287-6.462" fill="#fff"/></svg>