<svg xmlns="http://www.w3.org/2000/svg" viewBox="0 0 960 640"><path fill="#6cace4" d="M915.48 395.973c.643-123.615-128.521-200.57-169.729-213.925 0 0 78.142 113.372 72.375 191.514-2.546 34.455-19.64 45.69-36.86 48-.341-67.799-28.562-124.322-48.418-155.74l15.015-16.333s-31.233-83.1-157.902-183.835l-20.173 13.07L448.545.185 327.468 78.615 308.63 66.414 44.517 237.494l152.96 82.407-31.274 20.258 168.126 90.594-30.498 19.757s117.354 65.053 233.621 55.638c10.96 6.827 22.361 13.313 34.072 19.214-58.226 30.49-126.452 13.864-126.452 13.864l-82.84 52.175c212.272 102.722 331.02 17.862 373.42-33.495 96.095-5.116 179.253-50.439 179.828-161.933"/><path fill="#010101" d="M898.57 400.492c0-69.97-48.344-144.639-114.616-183.025 58.785 107.188 66.74 178.376 28.245 208.69-12.062 9.5-29.998 14.14-50.08 13.956.459-5.884.726-11.818.726-17.794 0-59.971-22.328-114.624-53.677-158.144l16.368-18.028s-34.155-72.425-136.91-157.252l-18.84 12.203-121.242-78.542L327.46 100.99l-18.838-12.203L81.359 236.013l152.96 82.407-31.275 20.265L371.18 429.28l-29.255 18.955 4.757 2.329c34.364 15.558 110.869 44.32 192.766 36.474 19.005 12.863 40.74 24.706 65.221 33.98-37.51 38.828-106.42 44.712-156.124 35.999l-49.312 31.943c46.358 21.492 100.042 31.759 146.717 31.759 63.552 0 121.436-19.04 161.75-58.91 6.377-6.312 12.153-13.03 17.41-20.075 100.252-1.327 173.461-52.083 173.461-141.242Z"/><path fill="#fff" d="M698.233 391.295s17.16-5.217 34.013-1.285c-.56-3.79-1.219-7.554-1.962-11.294-2.12-8.713-10.875-27.218-49.278-38.41 0 0 13.171-7.538 37.15-2.922a259 259 0 0 0-4.315-10.416c-4.406-8.607-18.145-28.079-52.909-30.174 0 0 14.482-8.464 31.785-8.84-6.385-9.815-13.288-19.088-20.575-27.685l16.05-18.153c-14.464-22.837-45.922-66.147-102.028-115.426l-16.369 10.6-121.242-78.542-107.681 69.753 152.894 21.86 79.927 51.773-68.442-17.302-139.581 52.801 82.874 30.173-101.613 31.676 135.375 72.59s14.723-14.206 39.488-26.041h-.009c15.867-7.587 35.858-14.206 58.769-15.491 0 0-23.863-43.796-78.491-67.683l10.817-12.679s-19.106-7.036-64.337-10.475c0 0 52.819-25.908 107.105-22.227l66.047 42.785h28.286l-30.272 35.465c26.65 32.969 43.786 72.098 50.488 111.386 6.51 5.007 13.088 9.44 19.69 13.154 14.114 7.946 29.28 13.497 44.229 16.677.092-1.32.15-2.647.225-3.965-.133-8.714-3.681-31.417-36.108-41.683M643.968 532.895a123 123 0 0 1-3.698 4.29c-26.283 29.255-64.978 44.587-104.8 49.93-11.41 1.526-22.887 2.295-34.122 2.286 15.167 2.095 30.173 3.13 44.588 3.13 57.534 0 107.404-16.618 141.943-50.765.518-.508.994-1.051 1.502-1.568-12.194-1.177-42.76-6.694-45.413-7.303"/><path fill="#6cace4" d="m573.683 202.136-80.661-76.54-95.286-14.798 50.798-52.05-107.671 69.753 152.893 21.86zM505.247 184.833l-139.58 52.81 82.873 30.164-47.517-30.782zM569.782 137.282l31.65 20.499-15.274-31.1zM482.302 372.082s14.723-14.205 39.487-26.041l-174.862-46.55zM670.19 407.102c6.51 5.008 13.088 9.44 19.69 13.154 1.67.944 3.363 1.837 5.059 2.713-.969-16.118-3.89-32.995-8.857-50.439-8.471-29.513-22.452-57.35-40.79-81.972l4.682-30.307-30.273 35.481c26.651 32.97 43.787 72.09 50.49 111.37ZM689.437 540.202s-19.748-2.68-45.472-7.311a122 122 0 0 1-3.698 4.29c-26.283 29.255-64.979 44.587-104.8 49.93-11.402 1.526-22.887 2.295-34.122 2.285 0 0 20.509 1.495 36.384.46 2.06-.15 4.098-.326 6.118-.518 1.728-.158 3.447-.341 5.166-.55.1-.009.2-.025.3-.033 2.546-.302 5.093-.643 7.613-1.044 38.461-5.817 69.67-20.4 92.665-41.625z"/><path fill="#fff" d="M507.608 395.6c41.082-33.346 80.988-37.068 80.988-37.068s9.598 14.932 27.018 33.445c38.328 40.732 88.282 70.754 144.212 70.754 35.825 0 68.335-13.204 84.31-42.635 22.828-42.05 5.259-102.454-17.094-147.526 19.665 22.61 39.948 56.24 47.167 92.78 5.518 27.946 5.042 61.007-12.653 90.078-24.59 40.365-76.139 58.97-132.494 58.97-76.289-.01-158.395-40.54-221.454-118.799"/><path fill="#6cace4" d="M540.377 374.303a184 184 0 0 0-32.769 21.292c45.823 56.866 104.5 97.948 172.383 113.431 16.301 3.723 34.53 5.643 53.085 5.325 31.625-5.566 45.822-18.98 45.822-18.98-135.966 17.394-213.84-82.482-238.521-121.068M551.879 246.367l-.042-.016s11 26.86 31.007 38.903l13.656-9.974 11.894-1.277z"/><path fill="#fff" d="m322.452 189.795-56.032 71.89 101.003-62.276-30.214-19.572 27.46-18.554-55.471-35.933-32.093 71.765z"/><path fill="#6cace4" d="m235.352 219.116 52-8.872-20.925 51.44 56.03-71.89-45.347 7.321 32.093-71.765-169.578 107.48 110.05-44.671z"/></svg>