<?xml version="1.0" encoding="UTF-8" standalone="no"?>
<!DOCTYPE svg PUBLIC "-//W3C//DTD SVG 1.1//EN" "http://www.w3.org/Graphics/SVG/1.1/DTD/svg11.dtd">
<svg width="100%" height="100%" viewBox="0 0 960 640" version="1.1" xmlns="http://www.w3.org/2000/svg" xmlns:xlink="http://www.w3.org/1999/xlink" xml:space="preserve" xmlns:serif="http://www.serif.com/" style="fill-rule:evenodd;clip-rule:evenodd;stroke-linejoin:round;stroke-miterlimit:2;">
    <path d="M472.2,396.3L613.1,326C709.6,353.1 738.2,389.7 738.2,389.7L793.4,327.3C796.4,324.1 805.5,312.8 805.5,292.3C805.5,270.2 782.4,253 766.2,241.4C738.7,169.3 586.7,148.4 575.5,123.3C571.6,114.6 549.5,39.6 549.5,39.6C536.3,0.8 497.2,0.8 482.5,0.8C467.7,0.8 436,5.8 436,5.8C436,59.9 428.7,125.8 421,137.9C421,137.9 393.5,152.3 361.3,163.9L284.3,112L304.5,181.8C174.8,253.1 143.2,377.4 143.2,377.4C143.2,377.4 176.5,639.2 504.7,639.2C678.2,639.2 778.4,555.3 778.4,555.3L722.5,430.3C722.5,430.3 637.1,474.7 528,474.7C427.4,474.7 388.1,427.8 373.7,400.5C458.9,403 472.2,396.3 472.2,396.3Z" style="fill:rgb(151,153,155);fill-rule:nonzero;"/>
    <path d="M753.6,250.6C726.8,178.2 578.9,165 562.6,130.8C556,117.1 547.6,84.4 535.4,44.5C525.6,15.7 496.7,15.7 482.3,15.7C468.5,15.7 450.6,18.5 450.6,18.5C450.6,48 445,133.7 431.3,148.5C427.9,152.7 402.7,162.9 375.3,173.5L383.5,179L359.3,203.2L342,257.4L319.4,245.6L327.4,265.7L287.1,272.4L309.9,280.3L244.3,330.7L262,332.1L238.6,374.4C272.3,359.1 282.6,356.2 282.6,356.2L272.9,346.2L340.9,318.8C340.9,318.8 335.8,332.4 335.8,358.8C335.8,362.6 336.4,368.2 337.7,374.7C346.1,415.8 386.2,500.6 527.9,500.6C630.4,500.6 709.5,464.8 709.5,464.8L746.2,547C746.2,547 650,613.6 504.5,613.6C207.1,613.6 169.4,379.8 169.4,379.8C210.4,270.1 279.4,222.1 323.3,201.7L309.6,200.2L308.4,196.1C192.5,260 158.2,378.5 158.2,378.5C158.2,378.5 193.5,624.5 504.7,624.5C663.9,624.5 760.2,550.7 760.2,550.7L715.2,450C715.2,450 631.1,489.4 528,489.4C374.5,489.4 351.8,384.7 351.8,384.7C351.8,384.7 439.2,389.9 467.2,382.4L611.7,310.2C709.6,337.8 737.8,367.7 737.8,367.7L782.6,317.3C782.6,317.3 790.8,309.6 790.8,292.3C790.7,276.1 766.5,259.8 753.6,250.6ZM438.9,277.4L365.6,267.5L402.5,246.9L438.9,277.4ZM426.7,178.6L381.2,251.3L365.2,213.1L426.7,178.6ZM276.2,316.4L361.3,259.1L354.9,304.6L276.2,316.4Z" style="fill:rgb(0,32,91);fill-rule:nonzero;"/>
    <path d="M349.1,300.2L354.5,269.3L296.9,308.4L349.1,300.2ZM378.1,265.5L425.9,271.3L397.8,254.9L378.1,265.5ZM374.4,215.1L379.7,238.7L413.4,193.1L374.4,215.1Z" style="fill:white;fill-rule:nonzero;"/>
    <path d="M246.7,335.8L229.7,336.2L300.7,283.3L269.9,271.1L320.3,261.4L302.8,226L333.9,243.7L346.3,205.1C308.9,218.1 228.6,259.3 182,380.8C187.6,408.7 236.3,601.5 504.7,601.5C620.6,601.5 705.2,557.6 731.2,542.2L703.5,480.1C677.8,490 610.7,512.4 528.1,512.4C364.9,512.5 323.9,400.7 323.9,358.7C323.9,349.4 324.5,341.5 325.3,335.1L287.8,347.5L292.7,358.1L263.4,368.7L238.2,385.3L289.4,394.8L278.8,431.4L300.8,424.9L321.9,478.6L347.1,475.4L355.5,513.1C355.5,513.1 403,546 483.5,553.2C589.8,562.7 684.9,526.4 684.9,526.4C684.9,526.4 571.5,570.9 468.3,560C389.5,551.7 338.2,519.6 338.2,519.6L337.6,485.6L306.5,486L291.9,433.9L264.2,446.9L276.4,400.3L223.3,393.8L234.1,361.3L246.7,335.8ZM355.9,202.9L371.3,182.2L296.4,130.5L317.8,193.6L355.9,202.9Z" style="fill:white;fill-rule:nonzero;"/>
    <g>
        <path d="M717.2,255.5C655.9,250.5 632.1,230.4 632.1,214.6C632.1,207 639.1,205.6 643.8,205.6C668.8,205.6 707.5,225.4 713.8,242.3C702.8,230.5 683.6,220.2 669,220.2C665.9,220.2 662.6,221.1 662.6,225C662.6,234.9 680.2,250.4 744.5,257.6C719.9,186.6 584.1,181.6 553.6,137C545.1,124.6 531.1,45.4 517,34.5C501.5,22.6 461.7,28 461.7,28C461.7,39 459,136.2 438.9,156.5C425.3,167.9 402.5,172.9 375.2,187.3L359.4,203.1L342.1,257.3L319.5,245.5L327.5,265.6L287.2,272.3L310,280.2L244.4,330.6L262.1,332L238.7,374.3C272.4,359 282.7,356.1 282.7,356.1L273,346.1L341,318.7C341,318.7 335.9,332.3 335.9,358.7C335.9,362.5 336.5,368.1 337.8,374.6C340.7,369 394.2,270.3 508.8,263.6L460.8,300.7L365.6,374.2C365.6,374.2 444,377.5 463.2,372C523.8,343.8 572.3,317.5 610.3,298.4C646.8,280.1 673.7,268.6 692.3,268.6C715.3,268.6 747.2,290.8 774.5,309.6C774.5,309.6 776.2,308.2 777.6,305.2C784.2,281.7 750.1,263.3 717.2,255.5ZM354.9,304.6L276.2,316.4L361.3,259.1L354.9,304.6ZM426.7,178.6L381.2,251.3L365.2,213.1L426.7,178.6ZM365.6,267.5L402.5,246.9L438.9,277.4L365.6,267.5ZM498.6,146C487.3,146.7 464.4,154.1 464.4,154.1C464.4,154.1 485,142.2 489.2,135.8C493.4,129.4 494.5,57.3 494.5,57.3C494.5,57.3 501.1,127.9 506.7,135C512.3,142.1 533.1,150.9 533.1,150.9C533.1,150.9 506.9,145.5 498.6,146Z" style="fill:rgb(4,28,44);fill-rule:nonzero;"/>
    </g>
    <g>
        <path d="M506.8,135C501.2,127.9 494.6,57.3 494.6,57.3C494.6,57.3 493.5,129.4 489.3,135.8C485.1,142.2 464.5,154.1 464.5,154.1C464.5,154.1 487.4,146.6 498.7,146C507,145.5 533.3,150.9 533.3,150.9C533.3,150.9 512.4,142.1 506.8,135ZM337.7,374.6C340.6,371.7 399.2,313.3 460.8,300.7L508.8,263.6C394.2,270.4 340.7,369.1 337.7,374.6ZM780,295.1C780,280.5 760.8,270.6 744.5,257.6C680.2,250.4 662.6,234.9 662.6,225C662.6,221.1 665.9,220.2 669,220.2C683.6,220.2 702.8,230.5 713.8,242.3C707.4,225.5 668.8,205.6 643.8,205.6C639.1,205.6 632.1,207.1 632.1,214.6C632.1,230.4 655.9,250.5 717.2,255.5C750.1,263.3 784.2,281.6 777.6,305.3C778.9,302.9 780,299.6 780,295.1ZM659.4,295L683.3,303.5C687.7,301.6 692.5,299.3 692.9,298.7C693.2,298 693.2,297.5 692.2,296.6C691.5,295.9 680.8,292 674.2,289.5L659.4,295ZM679.5,287.4C685.9,289.9 694.7,293.5 695.4,293.6C696.4,293.8 698.1,293.9 699.1,293.6C699.9,293.4 705.1,290.8 708.9,288.8C705.2,287 697.7,283.5 692.7,283.5C687.9,283.6 679.5,287.4 679.5,287.4ZM703.1,295.7C702.9,296.2 703.1,296.6 703.9,297.2C704.8,297.9 717.2,304.3 718.2,304.4C719.2,304.5 720,304.5 721,304.3C721.7,304.1 726,301.4 728.9,299.4L712.4,290.5C708.1,292.6 703.5,295.1 703.1,295.7ZM714.8,308.8C715.1,308.2 715.2,307.8 715,307.2C714.2,306.3 701.9,299.9 700.6,299.7C699.2,299.5 698.4,299.5 697.2,300.1C696.1,300.6 689.9,304.1 687.6,305.3L706.8,314C710.5,311.8 714.5,309.3 714.8,308.8ZM738.4,315.6C738.9,315.7 740.1,315.4 741.4,314.9C742.1,314.6 744.9,312.3 746.8,310.7L732,301.3C728.4,303.6 724.7,306.1 724.3,306.6C724.3,306.7 724.4,307.1 725.1,308.2L738.4,315.6ZM744.5,317.1C744.1,318 744,318.3 744.2,318.5C744.7,319 752.4,324.1 757.6,327.6L763.6,321.6L749.9,312.8C747.4,314.5 744.7,316.6 744.5,317.1ZM736,319.6C736.3,319.1 736.1,318.5 735.6,317.9C734.8,317.2 723,310.8 722.1,310.6C721.1,310.4 719.3,310.7 718.4,311C717.9,311.2 714.4,313.6 711.2,315.9L729.3,324.3C732.4,322.3 735.7,320 736,319.6ZM739.2,322C738.7,322.2 735.3,324.8 732.7,326.8L749.1,336.9L755.2,330.2C750.2,326.8 743,321.8 742.4,321.6C741.8,321.4 740,321.7 739.2,322Z" style="fill:white;fill-rule:nonzero;"/>
        <path d="M610.4,298.5C698.8,322 736.5,352.6 736.5,352.6L745.9,342C741.5,338.7 708.9,316.3 645.1,295.4C664.1,287.9 687.1,279 693.3,279C707.4,279 736.4,297.3 767.5,317.7L774.6,309.7C747.4,290.9 715.5,268.7 692.4,268.7C673.7,268.7 646.8,280.2 610.4,298.5Z" style="fill:white;fill-rule:nonzero;"/>
    </g>
</svg>
