<?xml version="1.0" encoding="UTF-8" standalone="no"?>
<!DOCTYPE svg PUBLIC "-//W3C//DTD SVG 1.1//EN" "http://www.w3.org/Graphics/SVG/1.1/DTD/svg11.dtd">
<svg width="100%" height="100%" viewBox="0 0 960 640" version="1.1" xmlns="http://www.w3.org/2000/svg" xmlns:xlink="http://www.w3.org/1999/xlink" xml:space="preserve" xmlns:serif="http://www.serif.com/" style="fill-rule:evenodd;clip-rule:evenodd;stroke-linejoin:round;stroke-miterlimit:2;">
    <path d="M799.997,320.002C799.997,496.739 656.793,640 480.048,640C303.315,640 160.003,496.74 160.003,320.002C160.003,143.258 303.273,0 480.005,0C656.751,0 799.997,143.258 799.997,320.002" style="fill:rgb(162,170,173);fill-rule:nonzero;"/>
    <path d="M480.005,21.477C315.132,21.477 181.498,155.143 181.498,320.002C181.498,484.853 315.176,618.524 480.049,618.524C644.922,618.524 778.509,484.854 778.509,320.002C778.509,155.142 644.878,21.477 480.005,21.477ZM615.12,377.453L601.866,370.849L517.793,376.473L517.793,388.893L555.973,443.817L555.973,477.131L503.311,451.166L498.978,440.231L480.001,482.237L461.611,440.223L457.264,451.166L404.61,477.131L404.61,443.825L442.798,388.894L442.798,376.473L358.724,370.849L345.464,377.453L345.464,300.495L345.302,278.85L363.6,322.87L447.003,283.073L451.5,231.985L480.04,99.241L509.09,231.985L513.586,283.073L596.981,322.871L614.789,278.289L615.119,300.495L615.119,377.453L615.12,377.453Z" style="fill:rgb(4,30,66);fill-rule:nonzero;"/>
    <path d="M508.888,101.817L480.02,29.064L449.406,101.821C341.679,116.354 258.605,208.606 258.605,320.321C258.605,442.117 358.216,540.868 480.02,540.868C601.826,540.868 699.686,442.118 699.686,320.322C699.686,208.605 616.62,116.348 508.888,101.817ZM615.12,377.453L601.866,370.849L517.793,376.473L517.793,388.893L555.973,443.817L555.973,477.131L503.311,451.166L498.978,440.231L480.001,482.237L461.611,440.223L457.264,451.166L404.61,477.131L404.61,443.825L442.798,388.894L442.798,376.473L358.724,370.849L345.464,377.453L345.464,300.495L345.302,278.85L363.6,322.87L447.003,283.073L451.5,231.985L480.04,99.241L509.09,231.985L513.586,283.073L596.981,322.871L614.789,278.289L615.119,300.495L615.119,377.453L615.12,377.453Z" style="fill:white;fill-rule:nonzero;"/>
    <g>
        <path d="M345.287,278.851L363.589,322.871L446.991,283.071L451.491,231.985L457.685,203.375L415.663,175.823L432.576,275.977L387.853,231.355L386.626,266.565L321.184,241.872L345.453,306.134L345.453,300.494L345.287,278.851ZM442.785,376.473L383.455,372.503L407.451,393.439L393.346,411L423.954,415.979L442.785,388.893L442.785,376.473ZM480.027,482.037L461.597,440.223L461.247,441.108L480.031,532.323L499.042,440.431L498.964,440.231L480.027,482.037ZM517.78,388.894L536.62,416L567.6,411.013L553.486,393.438L577.513,372.476L517.779,376.472L517.78,388.894ZM513.575,283.073L596.971,322.871L614.778,278.289L615.107,300.492L615.107,307.162L639.779,241.862L574.313,266.565L573.078,231.355L528.359,275.984C529.505,269.03 545.272,175.822 545.272,175.822L502.926,203.632L509.081,231.984L513.575,283.074L513.575,283.073ZM651.158,308.228L615.108,308.058L615.108,339.68L651.158,308.228ZM309.777,308.228L345.451,339.349L345.451,308.058L309.777,308.228Z" style="fill:rgb(120,47,64);fill-rule:nonzero;"/>
    </g>
    <g>
        <path d="M442.717,376.473L388.322,372.836L411.312,392.901C410.948,393.918 398.842,408.891 398.842,408.891L425.77,413.273L442.717,388.894L442.717,376.473ZM456.953,206.44L419.715,181.988L419.789,182.431L449.411,254.815L451.42,231.986L456.953,206.44ZM432.553,280.107C432.518,280.079 432.483,280.06 432.447,280.031L390.577,238.269L389.354,270.69L326.753,247.143L387.874,311.249L439.268,286.725L432.553,280.107ZM466.468,451.326L480.061,519.986L479.995,482.264L466.468,451.326ZM317.635,311.15L345.385,335.364L345.385,311.02L317.635,311.15ZM540.946,182.211L503.56,206.873L507.753,226.19L540.946,182.211ZM634.653,247.076L572.138,270.728L553.858,302.33L566.36,308.297L634.653,247.076Z" style="fill:rgb(166,25,46);fill-rule:nonzero;"/>
    </g>
    <path d="M614.79,278.29L596.982,322.87L513.587,283.073L509.092,231.985L480.042,99.241L451.5,231.985L447.003,283.073L363.6,322.871L345.302,278.85L345.464,300.495L345.464,377.453L358.724,370.849L442.798,376.473L442.798,388.893L404.61,443.825L404.61,477.131L457.264,451.166L461.61,440.223L480.001,482.237L498.978,440.231L503.311,451.166L555.972,477.131L555.972,443.817L517.793,388.894L517.793,376.472L601.866,370.849L615.12,377.453L615.12,300.495L614.79,278.289L614.79,278.29ZM480.007,467.9L461.807,426.56L455.62,412.216L459.284,430.476L452.731,446.982L410.371,467.876L410.371,445.628L448.551,390.705L448.551,371.097L357.545,365.007L351.228,368.153L351.228,308.121L360.612,330.676L444.383,290.705L449.851,317.487L452.425,286.867L452.453,286.861L457.204,232.784L480.021,122.508L480.007,467.901L480.007,467.9Z" style="fill:rgb(83,86,90);fill-rule:nonzero;"/>
</svg>
