<!-- Created with Inkscape (http://www.inkscape.org/) -->
<svg width="86.235mm" height="52.917mm" version="1.1" viewBox="0 0 86.235 52.917" xmlns="http://www.w3.org/2000/svg">
 <g transform="translate(-86.519 -62.177)">
  <path d="m86.519 62.177 23.058 42.86h3.2572c0.65971 0 1.2674-0.36207 1.5793-0.94343 1.3868-2.5777 5.0546-9.3998 5.0546-9.3998l-16.314-30.332c-0.72396-1.3461-2.1295-2.1853-3.6589-2.1853zm25.957 0 26.714 49.666c1.0765 2.0026 3.1664 3.2503 5.4402 3.2503h11.381l3.6566-6.7945h-15.072c-1.1 0-2.111-0.60396-2.6329-1.5724l-22.993-42.746c-0.59703-1.111-1.7548-1.8042-3.0162-1.8042zm30.846 0c-1.2614 0-2.4192 0.69247-3.0162 1.8019l-8.8994 16.541 2.766 5.1372 12.627-23.48zm16.458 0c-1.5294 0-2.935 0.83919-3.6589 2.1853l-16.316 30.332 5.0591 9.3998c0.31182 0.58137 0.91725 0.94343 1.577 0.94343h3.2572l23.055-42.86zm-34.677 30.061-7.7907 14.486c-0.52181 0.96998-1.5328 1.5747-2.6329 1.5747h-15.072l3.6543 6.7945h11.383c2.2737 0 4.3636-1.2477 5.4402-3.2503l7.7815-14.468zm0.98015 18.572c-0.50144 0-0.90669 0.40755-0.90669 0.90899v2.4699c0 0.49988 0.40523 0.9044 0.90669 0.9044h7.109c0.50145 0 0.9067-0.40453 0.9067-0.9044v-2.4699c0-0.50144-0.40524-0.90899-0.9067-0.90899z" fill="#33058d"/>
 </g>
</svg>
