<?xml version="1.0" encoding="UTF-8" standalone="no"?>
<!DOCTYPE svg PUBLIC "-//W3C//DTD SVG 1.1//EN" "http://www.w3.org/Graphics/SVG/1.1/DTD/svg11.dtd">
<svg width="100%" height="100%" viewBox="0 0 70 80" version="1.1" xmlns="http://www.w3.org/2000/svg" xmlns:xlink="http://www.w3.org/1999/xlink" xml:space="preserve" xmlns:serif="http://www.serif.com/" style="fill-rule:evenodd;clip-rule:evenodd;stroke-linejoin:round;stroke-miterlimit:2;">
    <g id="Layer_2">
        <g id="Layer_2-2">
            <g transform="matrix(1.21352,0,0,1.21352,-7.47973,-8.58472)">
                <path d="M45.203,14.504C41.433,14.44 38.117,13.053 35.111,10.778C32.109,13.054 28.564,14.775 24.797,14.838C22.131,14.805 20.653,12.4 18.351,11.057C17.004,13.373 13.713,17.992 11.38,19.31C12.427,22.434 12.974,25.705 13,29C13,36.71 10.39,40.32 9.29,44.68L47.6,15.68C46.886,15.793 52.133,15.275 51.41,15.275L51.874,11.02" style="fill:rgb(35,31,32);fill-rule:nonzero;"/>
            </g>
            <path d="M55.12,5.75C55.12,5.75 50.31,10.75 45.43,10.75C39.14,10.74 35,5.36 35,5.36C35,5.36 30.86,10.74 24.58,10.74C19.7,10.74 14.88,5.74 14.88,5.74C12.71,15.57 4.68,16.28 4.68,16.28C6.746,20.21 7.882,24.562 8,29C8,37.85 3.8,40.34 3.8,48.44C3.8,57.36 9.87,66.72 20.93,69.54C26.19,70.87 29.81,71.22 32.49,72.19C32.83,72.51 35.05,74.94 35.05,74.94C35.05,74.94 37.27,72.51 37.62,72.19C40.29,71.19 43.92,70.87 49.17,69.54C60.24,66.72 66.3,57.36 66.3,48.44C66.3,40.34 62.1,37.85 62.1,29C62.204,24.569 63.323,20.221 65.37,16.29C65.37,16.29 57.37,15.58 55.17,5.75M59.69,29C59.69,38.36 63.89,41.07 63.89,48.44C63.89,58.75 55.89,65.31 48.54,67.2C42.69,68.69 38.86,68.86 36.29,70.11C36.29,70.11 35.35,70.97 35,71.37C34.65,70.97 33.71,70.11 33.71,70.11C31.14,68.86 27.32,68.69 21.47,67.2C14.08,65.31 6.11,58.75 6.11,48.44C6.11,41.07 10.31,38.36 10.31,29C10.294,25.154 9.487,21.352 7.94,17.83C7.94,17.83 13.41,16.72 15.94,9.75C18.338,11.846 21.387,13.051 24.57,13.16C28.48,13.051 32.207,11.468 35,8.73C37.794,11.467 41.521,13.05 45.43,13.16C48.612,13.048 51.661,11.843 54.06,9.75C56.6,16.75 62.06,17.83 62.06,17.83C60.513,21.352 59.706,25.154 59.69,29" style="fill:rgb(35,31,32);fill-rule:nonzero;"/>
            <g transform="matrix(1.21352,0,0,1.21352,-7.47973,-8.58472)">
                <path d="M47.59,15.69L9.28,44.69M53.8,15L8.8,49L53.8,15L52.198,12.201L9.28,44.69L8.8,49M21.65,64.43L58.575,36.486" style="fill:rgb(207,210,211);fill-rule:nonzero;"/>
            </g>
            <g transform="matrix(1.21352,0,0,1.21352,-7.47973,-8.58472)">
                <path d="M57.832,33.072L18.22,63.07L21.65,64.43L58.832,36.291M21.65,64.43L18.22,63.07L21.65,64.43Z" style="fill:rgb(207,210,211);fill-rule:nonzero;"/>
            </g>
            <g transform="matrix(1.21352,0,0,1.21352,-7.47973,-8.58472)">
                <path d="M25.5,49L21.3,42.51L16.64,46C17.545,46.031 18.272,46.784 18.272,47.689C18.272,47.716 18.271,47.743 18.27,47.77L18.27,60L21.56,57.51L21.56,48.9L25.31,54.69L28.79,52.06L28.79,36.84L25.5,39.33L25.5,49Z" style="fill:rgb(207,210,211);fill-rule:nonzero;"/>
            </g>
            <g transform="matrix(1.21352,0,0,1.21352,-7.47973,-8.58472)">
                <path d="M38.85,34.86L35.14,37.66L35.14,32L30.14,35.8C31.047,35.82 31.782,36.572 31.782,37.48C31.782,37.51 31.782,37.54 31.78,37.57L31.78,49.82L35.16,47.26L35.16,41.69L38.87,38.88L38.87,44.45L42.07,42L42.07,26.8L38.85,29.24L38.85,34.86Z" style="fill:rgb(207,210,211);fill-rule:nonzero;"/>
            </g>
            <g transform="matrix(1.21352,0,0,1.21352,-7.47973,-8.58472)">
                <path d="M48.26,33.44L48.26,22.11L43.26,25.91C44.167,25.93 44.902,26.682 44.902,27.59C44.902,27.62 44.902,27.65 44.9,27.68L44.9,39.88L54.23,32.82C54.101,31.53 54.101,30.23 54.23,28.94L48.26,33.44Z" style="fill:rgb(207,210,211);fill-rule:nonzero;"/>
            </g>
            <g transform="matrix(1.21352,0,0,1.21352,-7.47973,-8.58472)">
                <path d="M53.77,14.94L8.8,49C9.02,55.69 13.31,60.56 18.21,63.1L57.33,33.46C57.108,31.984 56.998,30.493 57,29C57.021,25.703 57.561,22.429 58.6,19.3C56.68,18.228 55.026,16.738 53.76,14.94M28.76,52.06L25.29,54.69L21.56,48.9L21.56,57.53L18.27,60L18.27,47.81C18.272,47.78 18.272,47.75 18.272,47.72C18.272,46.818 17.542,46.07 16.64,46.05L21.3,42.51L25.5,49L25.5,39.33L28.79,36.84L28.76,52.06ZM42.07,42L38.85,44.44L38.85,38.88L35.14,41.69L35.14,47.26L31.76,49.82L31.76,37.61C31.762,37.58 31.762,37.55 31.762,37.52C31.762,36.612 31.027,35.86 30.12,35.84L35.12,32.04L35.12,37.67L38.83,34.86L38.83,29.24L42.05,26.8L42.07,42ZM54.21,32.81L44.88,39.87L44.88,27.68C44.882,27.65 44.882,27.62 44.882,27.59C44.882,26.682 44.147,25.93 43.24,25.91L48.24,22.11L48.24,33.44L54.24,28.94C54.111,30.23 54.111,31.53 54.24,32.82" style="fill:rgb(35,31,32);fill-rule:nonzero;"/>
            </g>
            <g transform="matrix(1.21352,0,0,1.21352,-7.47973,-8.58472)">
                <path d="M21.6,64.43L22.13,64.57C26.76,65.76 32.43,66.37 34.13,67.36C34.433,67.601 34.717,67.865 34.98,68.15C35.245,67.864 35.532,67.599 35.84,67.36C37.55,66.36 43.22,65.76 47.84,64.57C54.26,62.93 61.17,57.18 61.17,48.44C61.17,44.08 59.27,41.21 58.03,36.83L21.6,64.43Z" style="fill:rgb(35,31,32);fill-rule:nonzero;"/>
            </g>
            <path d="M70,14.07L63.67,12.19C61.74,11.62 60.32,10.11 59.45,7.72L56.65,0L50.41,5.21C49.045,6.476 47.271,7.214 45.41,7.29C43.005,7.201 40.718,6.216 39,4.53L35,0.53L31,4.53C29.287,6.216 27.002,7.201 24.6,7.29C22.74,7.212 20.967,6.474 19.6,5.21L13.35,0L10.55,7.72C9.68,10.11 8.27,11.62 6.33,12.19L0,14.07L2.69,20.22C3.913,22.986 4.55,25.976 4.56,29C4.56,37.3 0.35,39.2 0.35,48.42C0.35,61.71 10.55,70.42 20.03,72.87C24.82,74.04 26.27,74.12 30.59,75.19L35,80L39.41,75.21C43.74,74.14 45.18,74.06 49.97,72.89C59.45,70.43 69.65,61.73 69.65,48.44C69.65,39.22 65.44,37.32 65.44,29.02C65.447,25.989 66.084,22.992 67.31,20.22L70,14.07ZM64.41,29C64.41,37.64 68.61,39.35 68.61,48.42C68.61,60.56 59.61,69.28 49.72,71.86C44.81,73.1 42.52,73.23 38.86,74.26C38.38,74.77 35,78.45 35,78.45C35,78.45 31.62,74.77 31.14,74.26C27.48,73.26 25.2,73.1 20.29,71.86C10.36,69.28 1.39,60.56 1.39,48.42C1.39,39.35 5.59,37.64 5.59,29C5.579,25.832 4.915,22.7 3.64,19.8L1.43,14.74L6.63,13.19C8.89,12.52 10.54,10.8 11.53,8.07L13.82,1.75L18.93,6C20.482,7.413 22.483,8.235 24.58,8.32C27.258,8.24 29.807,7.146 31.71,5.26L35,2L38.29,5.28C40.196,7.167 42.749,8.261 45.43,8.34C47.526,8.248 49.524,7.419 51.07,6L56.18,1.74L58.47,8.06C59.47,10.79 61.11,12.51 63.38,13.18L68.58,14.73L66.37,19.8C65.07,22.701 64.389,25.841 64.37,29.02" style="fill:rgb(35,31,32);fill-rule:nonzero;"/>
            <path d="M64.41,29C64.429,25.821 65.11,22.681 66.41,19.78L68.62,14.72L63.42,13.17C61.15,12.5 59.5,10.78 58.51,8.05L56.18,1.75L51.07,6C49.524,7.415 47.525,8.238 45.43,8.32C42.75,8.239 40.197,7.145 38.29,5.26L35,2L31.71,5.27C29.807,7.156 27.258,8.25 24.58,8.33C22.481,8.247 20.477,7.421 18.93,6L13.82,1.75L11.53,8.07C10.53,10.8 8.89,12.52 6.63,13.19L1.42,14.74L3.64,19.8C4.915,22.7 5.579,25.832 5.59,29C5.59,37.64 1.39,39.35 1.39,48.42C1.39,60.56 10.39,69.28 20.29,71.86C25.2,73.1 27.48,73.23 31.14,74.26C31.62,74.77 35,78.45 35,78.45C35,78.45 38.38,74.77 38.86,74.26C42.52,73.26 44.86,73.1 49.72,71.86C59.64,69.28 68.61,60.56 68.61,48.42C68.61,39.35 64.41,37.64 64.41,29M49.12,69.54C43.87,70.87 40.24,71.22 37.57,72.19C37.22,72.51 35,74.94 35,74.94C35,74.94 32.78,72.51 32.44,72.19C29.77,71.19 26.14,70.87 20.88,69.54C9.82,66.72 3.75,57.36 3.75,48.44C3.75,40.34 8,37.85 8,29C7.882,24.562 6.746,20.21 4.68,16.28C4.68,16.28 12.68,15.58 14.88,5.75C14.88,5.75 19.7,10.75 24.58,10.75C30.86,10.74 35,5.36 35,5.36C35,5.36 39.14,10.74 45.43,10.74C50.31,10.74 55.12,5.74 55.12,5.74C57.29,15.57 65.32,16.27 65.32,16.27C63.27,20.207 62.151,24.563 62.05,29C62.05,37.85 66.25,40.34 66.25,48.44C66.25,57.36 60.19,66.72 49.12,69.54" style="fill:rgb(207,210,211);fill-rule:nonzero;"/>
        </g>
    </g>
</svg>
