<svg xmlns="http://www.w3.org/2000/svg" xmlns:xlink="http://www.w3.org/1999/xlink" version="1.1" id="Layer_1" x="0px" y="0px" style="enable-background:new 0 0 1849.4 1040.29;" xml:space="preserve" viewBox="532.85 196.04 795.53 629.1">
<style type="text/css">
	.st0{fill:#031C2D;}
	.st1{fill:#B3E2D8;}
	.st2{fill:#153F36;}
	.st3{clip-path:url(#SVGID_00000163063765700647068930000015890184191535171263_);}
	.st4{fill:#004751;}
</style>
<g>
	<g>
		<path class="st0" d="M1217.88,527.01c62.53-41.17,93.79-96.07,93.79-151.74v-52.61c0,54.9-49.56,121.24-113.61,154.79    C1207.97,489.64,1215.6,504.89,1217.88,527.01z M1082.92,424.83v-54.14h59.47c16.01,0,25.93,3.05,35.08,9.15    c8.39-11.44,13.72-23.64,13.72-36.6c0-19.83-16.78-35.84-45.75-35.84h-84.64c-12.96,0-16.78,9.15-8.39,19.06l32.79,37.36    L779.45,215.14v61.76L1082.92,424.83z M841.97,429.41h19.83l15.25-28.97v-68.62l-43.46,83.88    C829.77,423.31,833.58,429.41,841.97,429.41z M940.33,659.68h28.21v-57.95l-37.36,34.31    C918.22,648.24,923.56,659.68,940.33,659.68z M600.26,691.71h122l37.36-71.67c10.67-20.59,26.69-29.74,49.56-29.74h234.85    c19.06,0,28.97,3.81,38.89,10.67c8.39-11.44,12.96-23.64,12.96-36.6c0-19.06-17.54-38.12-51.09-38.12H813    c-25.16,0-41.94,9.91-53.38,32.79l-38.12,72.44H600.26V691.71z M537.73,825.14h384.3c141.06,0,296.61-104.46,296.61-227.99v-55.66    c0,109.04-155.55,220.36-288.99,220.36H537.73V825.14z"/>
		<path class="st1" d="M537.73,761.86h391.92c133.44,0,288.99-111.32,288.99-220.36c0-29.74-8.39-49.56-20.59-64.05    c64.05-33.55,113.61-99.89,113.61-154.79c0-57.95-45.75-107.51-147.16-107.51H779.45l305.76,148.69l-32.79-37.36    c-8.39-9.91-4.57-19.06,8.39-19.06h84.64c28.97,0,45.75,16.01,45.75,35.84c0,48.8-72.44,86.16-125.81,86.16H841.97    c-8.39,0-12.2-6.1-8.39-13.73l43.46-83.88H760.38L600.26,631.47H721.5l38.12-72.44c11.44-22.88,28.21-32.79,53.38-32.79h231.8    c33.55,0,51.09,19.06,51.09,38.12c0,48.04-71.67,95.31-132.67,95.31h-22.88c-16.77,0-22.11-11.44-9.15-23.64l37.36-34.31    L537.73,761.86z"/>
	</g>
	<g>
		<path class="st2" d="M1178.59,474.4c67.87-29.74,122.01-97.61,122.01-151.75l-0.01,0.04c0-45.75-48.09-84.64-135.78-84.64H852.99    l186.81,90.7c-5.34-6.1-7.63-32.79,21.35-32.79h84.65c35.08,0,57.19,21.35,57.19,47.28c0,1.21-0.05,2.41-0.12,3.61    c-1.99,63.58-57.3,105.47-148.63,105.47H845.32c-14.49,0-24.02-6.86-24.02-25.92l0.01-4.11c-0.18-3.78,0.65-7.86,2.68-11.93    l28.45-55.63h-77.97L633.41,620.05h81.53l35.08-66.34c12.96-26.69,34.32-38.89,63.29-38.89h231.82c40.42,0,62.53,24.4,62.53,49.57    c0,1.24-0.05,2.47-0.13,3.7c-2.59,65.99-74.41,114.51-144.03,114.51h-19.82c-19.06,0-31.64-6.86-31.64-31.26v-1.99    c-0.05-0.92-0.04-1.83,0.02-2.74L634.11,750.45h295.88c128.11,0,277.58-107.52,277.58-208.94c-6.1-25.16-18.36-40.39-29.03-51.07    v-16.01"/>
	</g>
	<g>
		<defs>
			<path id="SVGID_1_" d="M1178.59,474.4c67.87-29.74,122.01-97.61,122.01-151.75l-0.01,0.04c0-45.75-48.09-84.64-135.78-84.64     H852.99l186.81,90.7c-5.34-6.1-7.63-32.79,21.35-32.79h84.65c35.08,0,57.19,21.35,57.19,47.28c0,1.21-0.05,2.41-0.12,3.61     c-1.99,63.58-57.3,105.47-148.63,105.47H845.32c-14.49,0-24.02-6.86-24.02-25.92l0.01-4.11c-0.18-3.78,0.65-7.86,2.68-11.93     l28.45-55.63h-77.97L633.41,620.05h81.53l35.08-66.34c12.96-26.69,34.32-38.89,63.29-38.89h231.82     c40.42,0,62.53,24.4,62.53,49.57c0,1.24-0.05,2.47-0.13,3.7c-2.59,65.99-74.41,114.51-144.03,114.51h-19.82     c-19.06,0-31.64-6.86-31.64-31.26v-1.99c-0.05-0.92-0.04-1.83,0.02-2.74L634.11,750.45h295.88     c128.11,0,277.58-107.52,277.58-208.94c-6.1-25.16-18.36-40.39-29.03-51.07v-16.01"/>
		</defs>
		<clipPath id="SVGID_00000052080503751113297640000016049046781361541545_">
			<use xlink:href="#SVGID_1_" style="overflow:visible;"/>
		</clipPath>
		<g style="clip-path:url(#SVGID_00000052080503751113297640000016049046781361541545_);">
			<g>
				<path class="st1" d="M1252.85,768.12c-5.93,0-10.06-2.29-14.06-4.51c-4.23-2.35-8.23-4.56-14.74-4.56      c-6.51,0-10.51,2.22-14.74,4.56c-4,2.22-8.13,4.51-14.06,4.51c-5.93,0-10.06-2.29-14.06-4.51c-4.23-2.35-8.23-4.56-14.74-4.56      s-10.5,2.22-14.74,4.56c-4,2.22-8.13,4.51-14.06,4.51c-5.93,0-10.06-2.29-14.06-4.51c-4.23-2.35-8.23-4.56-14.74-4.56      s-10.51,2.22-14.74,4.56c-4,2.22-8.13,4.51-14.06,4.51c-5.93,0-10.06-2.29-14.06-4.51c-4.23-2.35-8.23-4.56-14.74-4.56      s-10.51,2.22-14.74,4.56c-4,2.22-8.13,4.51-14.06,4.51c-5.93,0-10.06-2.29-14.06-4.51c-4.23-2.35-8.23-4.56-14.74-4.56      c-6.51,0-10.5,2.22-14.74,4.56c-4,2.22-8.13,4.51-14.06,4.51c-5.93,0-10.06-2.29-14.06-4.51c-4.23-2.35-8.23-4.56-14.74-4.56      c-6.51,0-10.51,2.22-14.74,4.56c-4,2.22-8.13,4.51-14.06,4.51s-10.06-2.29-14.06-4.51c-4.23-2.35-8.23-4.56-14.74-4.56      c-6.51,0-10.51,2.22-14.74,4.56c-4,2.22-8.13,4.51-14.06,4.51c-5.93,0-10.06-2.29-14.06-4.51c-4.23-2.35-8.23-4.56-14.74-4.56      c-6.51,0-10.5,2.22-14.74,4.56c-4,2.22-8.13,4.51-14.06,4.51c-5.93,0-10.06-2.29-14.06-4.51c-4.23-2.35-8.23-4.56-14.74-4.56      c-6.51,0-10.5,2.22-14.74,4.56c-4,2.22-8.13,4.51-14.06,4.51s-10.06-2.29-14.06-4.51c-4.23-2.35-8.23-4.56-14.74-4.56      c-6.51,0-10.51,2.22-14.74,4.56c-4,2.22-8.13,4.51-14.06,4.51c-5.93,0-10.06-2.29-14.06-4.51c-4.23-2.35-8.23-4.56-14.74-4.56      c-6.51,0-10.51,2.22-14.74,4.56c-4,2.22-8.13,4.51-14.06,4.51c-5.93,0-10.06-2.29-14.06-4.51c-4.23-2.35-8.23-4.56-14.74-4.56      c-6.51,0-10.51,2.22-14.74,4.56c-4,2.22-8.13,4.51-14.06,4.51s-10.06-2.29-14.06-4.51c-4.23-2.35-8.23-4.56-14.74-4.56v-5.17      c7.85,0,12.84,2.77,17.24,5.21c3.73,2.07,6.96,3.86,11.55,3.86s7.82-1.79,11.55-3.86c4.4-2.44,9.4-5.21,17.24-5.21      c7.85,0,12.84,2.77,17.24,5.21c3.73,2.07,6.96,3.86,11.55,3.86s7.82-1.79,11.55-3.86c4.4-2.44,9.4-5.21,17.24-5.21      c7.85,0,12.84,2.77,17.24,5.21c3.73,2.07,6.96,3.86,11.55,3.86c4.59,0,7.82-1.79,11.55-3.86c4.4-2.44,9.4-5.21,17.24-5.21      s12.84,2.77,17.24,5.21c3.73,2.07,6.96,3.86,11.55,3.86c4.59,0,7.82-1.79,11.55-3.86c4.4-2.44,9.4-5.21,17.24-5.21      s12.84,2.77,17.24,5.21c3.73,2.07,6.96,3.86,11.55,3.86c4.59,0,7.82-1.79,11.55-3.86c4.4-2.44,9.4-5.21,17.24-5.21      c7.85,0,12.84,2.77,17.24,5.21c3.73,2.07,6.96,3.86,11.55,3.86s7.82-1.79,11.55-3.86c4.4-2.44,9.4-5.21,17.24-5.21      c7.85,0,12.84,2.77,17.24,5.21c3.73,2.07,6.96,3.86,11.55,3.86c4.59,0,7.82-1.79,11.55-3.86c4.4-2.44,9.4-5.21,17.24-5.21      c7.85,0,12.84,2.77,17.24,5.21c3.73,2.07,6.96,3.86,11.55,3.86c4.59,0,7.82-1.79,11.55-3.86c4.4-2.44,9.4-5.21,17.24-5.21      s12.84,2.77,17.24,5.21c3.73,2.07,6.96,3.86,11.55,3.86c4.59,0,7.82-1.79,11.55-3.86c4.41-2.44,9.4-5.21,17.24-5.21      s12.84,2.77,17.24,5.21c3.73,2.07,6.96,3.86,11.55,3.86c4.59,0,7.82-1.79,11.55-3.86c4.4-2.44,9.4-5.21,17.24-5.21      s12.84,2.77,17.24,5.21c3.73,2.07,6.96,3.86,11.55,3.86c4.59,0,7.82-1.79,11.55-3.86c4.4-2.44,9.4-5.21,17.24-5.21      s12.84,2.77,17.24,5.21c3.73,2.07,6.96,3.86,11.55,3.86c4.59,0,7.82-1.79,11.55-3.86c4.41-2.44,9.4-5.21,17.24-5.21      s12.84,2.77,17.24,5.21c3.73,2.07,6.96,3.86,11.55,3.86V768.12z"/>
			</g>
			<g>
				<path class="st1" d="M1260.61,741.64c-5.93,0-10.06-2.29-14.06-4.51c-4.23-2.35-8.23-4.56-14.74-4.56      c-6.51,0-10.51,2.22-14.74,4.56c-4,2.22-8.13,4.51-14.06,4.51c-5.93,0-10.06-2.29-14.06-4.51c-4.23-2.35-8.23-4.56-14.74-4.56      c-6.51,0-10.5,2.22-14.74,4.56c-4,2.22-8.13,4.51-14.06,4.51c-5.93,0-10.06-2.29-14.06-4.51c-4.23-2.35-8.23-4.56-14.74-4.56      c-6.51,0-10.51,2.22-14.74,4.56c-4,2.22-8.13,4.51-14.06,4.51c-5.93,0-10.06-2.29-14.06-4.51c-4.23-2.35-8.23-4.56-14.74-4.56      s-10.51,2.22-14.74,4.56c-4,2.22-8.13,4.51-14.06,4.51c-5.93,0-10.06-2.29-14.06-4.51c-4.23-2.35-8.23-4.56-14.74-4.56      c-6.51,0-10.5,2.22-14.74,4.56c-4,2.22-8.13,4.51-14.06,4.51s-10.06-2.29-14.06-4.51c-4.23-2.35-8.23-4.56-14.74-4.56      c-6.51,0-10.51,2.22-14.74,4.56c-4,2.22-8.13,4.51-14.06,4.51c-5.93,0-10.06-2.29-14.06-4.51c-4.23-2.35-8.23-4.56-14.74-4.56      c-6.51,0-10.51,2.22-14.74,4.56c-4,2.22-8.13,4.51-14.06,4.51c-5.93,0-10.06-2.29-14.06-4.51c-4.23-2.35-8.23-4.56-14.74-4.56      c-6.51,0-10.5,2.22-14.74,4.56c-4,2.22-8.13,4.51-14.06,4.51c-5.93,0-10.06-2.29-14.06-4.51c-4.23-2.35-8.23-4.56-14.74-4.56      c-6.51,0-10.5,2.22-14.74,4.56c-4,2.22-8.13,4.51-14.06,4.51s-10.06-2.29-14.06-4.51c-4.23-2.35-8.23-4.56-14.74-4.56      c-6.51,0-10.51,2.22-14.74,4.56c-4,2.22-8.13,4.51-14.06,4.51c-5.93,0-10.06-2.29-14.06-4.51c-4.23-2.35-8.23-4.56-14.74-4.56      c-6.51,0-10.51,2.22-14.74,4.56c-4,2.22-8.13,4.51-14.06,4.51c-5.93,0-10.06-2.29-14.06-4.51c-4.23-2.35-8.23-4.56-14.74-4.56      c-6.51,0-10.5,2.22-14.74,4.56c-4,2.22-8.13,4.51-14.06,4.51c-5.93,0-10.06-2.29-14.06-4.51c-4.23-2.35-8.23-4.56-14.74-4.56      v-5.17c7.85,0,12.84,2.77,17.24,5.21c3.73,2.07,6.96,3.86,11.55,3.86s7.82-1.79,11.55-3.86c4.4-2.44,9.4-5.21,17.24-5.21      s12.84,2.77,17.24,5.21c3.73,2.07,6.96,3.86,11.55,3.86s7.82-1.79,11.55-3.86c4.4-2.44,9.4-5.21,17.24-5.21      s12.84,2.77,17.24,5.21c3.73,2.07,6.96,3.86,11.55,3.86c4.59,0,7.82-1.79,11.55-3.86c4.4-2.44,9.4-5.21,17.24-5.21      s12.84,2.77,17.24,5.21c3.73,2.07,6.96,3.86,11.55,3.86c4.59,0,7.82-1.79,11.55-3.86c4.4-2.44,9.4-5.21,17.24-5.21      c7.85,0,12.84,2.77,17.24,5.21c3.73,2.07,6.96,3.86,11.55,3.86c4.59,0,7.82-1.79,11.55-3.86c4.4-2.44,9.4-5.21,17.24-5.21      c7.85,0,12.84,2.77,17.24,5.21c3.73,2.07,6.96,3.86,11.55,3.86c4.59,0,7.82-1.79,11.55-3.86c4.4-2.44,9.4-5.21,17.24-5.21      s12.84,2.77,17.24,5.21c3.73,2.07,6.96,3.86,11.55,3.86c4.59,0,7.82-1.79,11.55-3.86c4.4-2.44,9.4-5.21,17.24-5.21      c7.85,0,12.84,2.77,17.24,5.21c3.73,2.07,6.96,3.86,11.55,3.86c4.59,0,7.82-1.79,11.55-3.86c4.4-2.44,9.4-5.21,17.24-5.21      c7.85,0,12.84,2.77,17.24,5.21c3.73,2.07,6.96,3.86,11.55,3.86c4.59,0,7.82-1.79,11.55-3.86c4.41-2.44,9.4-5.21,17.24-5.21      s12.84,2.77,17.24,5.21c3.73,2.07,6.96,3.86,11.55,3.86c4.59,0,7.82-1.79,11.55-3.86c4.4-2.44,9.4-5.21,17.24-5.21      c7.85,0,12.84,2.77,17.24,5.21c3.73,2.07,6.96,3.86,11.55,3.86c4.59,0,7.82-1.79,11.55-3.86c4.4-2.44,9.4-5.21,17.24-5.21      s12.84,2.77,17.24,5.21c3.73,2.07,6.96,3.86,11.55,3.86c4.59,0,7.82-1.79,11.55-3.86c4.4-2.44,9.4-5.21,17.24-5.21      s12.84,2.77,17.24,5.21c3.73,2.07,6.96,3.86,11.55,3.86V741.64z"/>
			</g>
			<g>
				<path class="st1" d="M1274.41,715.16c-5.93,0-10.06-2.29-14.06-4.51c-4.23-2.35-8.23-4.56-14.74-4.56      c-6.51,0-10.51,2.22-14.74,4.56c-4,2.22-8.13,4.51-14.06,4.51c-5.93,0-10.06-2.29-14.06-4.51c-4.23-2.35-8.23-4.56-14.74-4.56      c-6.51,0-10.5,2.22-14.74,4.56c-4,2.22-8.13,4.51-14.06,4.51c-6.13,0-9.45-2.5-12.37-4.7c-2.98-2.24-5.8-4.37-12.11-4.37      c-6.51,0-10.51,2.22-14.74,4.56c-4,2.22-8.13,4.51-14.06,4.51c-5.8,0-10.9-2.24-15.83-4.4c-5.23-2.29-10.64-4.67-17.27-4.67      c-6.51,0-10.51,2.22-14.74,4.56c-4,2.22-8.13,4.51-14.06,4.51c-5.93,0-10.06-2.29-14.06-4.51c-4.23-2.35-8.23-4.56-14.74-4.56      c-6.51,0-10.5,2.22-14.74,4.56c-4,2.22-8.13,4.51-14.06,4.51s-10.06-2.29-14.06-4.51c-4.23-2.35-8.23-4.56-14.74-4.56      c-6.51,0-10.51,2.22-14.74,4.56c-4,2.22-8.13,4.51-14.06,4.51c-5.93,0-10.06-2.29-14.06-4.51c-4.23-2.35-8.23-4.56-14.74-4.56      c-6.51,0-10.51,2.22-14.74,4.56c-4,2.22-8.13,4.51-14.06,4.51s-10.06-2.29-14.06-4.51c-4.23-2.35-8.23-4.56-14.74-4.56      c-6.51,0-10.5,2.22-14.74,4.56c-4,2.22-8.13,4.51-14.06,4.51s-10.06-2.29-14.06-4.51c-4.23-2.35-8.23-4.56-14.74-4.56      c-6.63,0-12.04,2.37-17.27,4.67c-4.93,2.16-10.03,4.4-15.83,4.4c-6.13,0-9.45-2.5-12.37-4.7c-2.98-2.25-5.8-4.37-12.11-4.37      c-6.51,0-10.51,2.22-14.74,4.56c-4,2.22-8.13,4.51-14.06,4.51c-5.93,0-10.06-2.29-14.06-4.51c-4.23-2.35-8.23-4.56-14.74-4.56      c-6.51,0-10.5,2.22-14.74,4.56c-4,2.22-8.13,4.51-14.06,4.51s-10.06-2.29-14.06-4.51c-4.23-2.35-8.23-4.56-14.74-4.56v-5.17      c7.85,0,12.84,2.77,17.24,5.21c3.73,2.07,6.96,3.86,11.55,3.86c4.59,0,7.82-1.79,11.55-3.86c4.4-2.44,9.4-5.21,17.24-5.21      s12.84,2.77,17.24,5.21c3.73,2.07,6.96,3.86,11.55,3.86c4.59,0,7.82-1.79,11.55-3.86c4.4-2.44,9.4-5.21,17.24-5.21      c8.04,0,11.86,2.87,15.22,5.41c2.72,2.05,4.87,3.66,9.26,3.66c4.72,0,9.11-1.93,13.76-3.96c5.45-2.39,11.63-5.1,19.35-5.1      c7.85,0,12.84,2.77,17.24,5.21c3.73,2.07,6.96,3.86,11.55,3.86c4.59,0,7.82-1.79,11.55-3.86c4.4-2.44,9.4-5.21,17.24-5.21      c7.85,0,12.84,2.77,17.24,5.21c3.73,2.07,6.96,3.86,11.55,3.86c4.59,0,7.82-1.79,11.55-3.86c4.4-2.44,9.4-5.21,17.24-5.21      c7.85,0,12.84,2.77,17.24,5.21c3.73,2.07,6.96,3.86,11.55,3.86c4.59,0,7.82-1.79,11.55-3.86c4.4-2.44,9.4-5.21,17.24-5.21      s12.84,2.77,17.24,5.21c3.73,2.07,6.96,3.86,11.55,3.86c4.59,0,7.82-1.79,11.55-3.86c4.4-2.44,9.4-5.21,17.24-5.21      c7.85,0,12.84,2.77,17.24,5.21c3.73,2.07,6.96,3.86,11.55,3.86c4.59,0,7.82-1.79,11.55-3.86c4.41-2.44,9.4-5.21,17.24-5.21      c7.72,0,13.9,2.71,19.35,5.1c4.65,2.04,9.04,3.96,13.76,3.96c4.59,0,7.82-1.79,11.55-3.86c4.4-2.44,9.4-5.21,17.24-5.21      c8.04,0,11.86,2.87,15.22,5.41c2.72,2.05,4.87,3.66,9.26,3.66c4.59,0,7.82-1.79,11.55-3.86c4.4-2.44,9.4-5.21,17.24-5.21      c7.85,0,12.84,2.77,17.24,5.21c3.73,2.07,6.96,3.86,11.55,3.86c4.59,0,7.82-1.79,11.55-3.86c4.4-2.44,9.4-5.21,17.24-5.21      s12.84,2.77,17.24,5.21c3.73,2.07,6.96,3.86,11.55,3.86V715.16z"/>
			</g>
			<g>
				<path class="st1" d="M1252.85,688.68c-5.93,0-10.06-2.29-14.06-4.51c-4.23-2.35-8.23-4.56-14.74-4.56      c-6.51,0-10.51,2.22-14.74,4.56c-4,2.22-8.13,4.51-14.06,4.51c-5.93,0-10.06-2.29-14.06-4.51c-4.23-2.35-8.23-4.56-14.74-4.56      s-10.5,2.22-14.74,4.56c-4,2.22-8.13,4.51-14.06,4.51c-5.93,0-10.06-2.29-14.06-4.51c-4.23-2.35-8.23-4.56-14.74-4.56      s-10.51,2.22-14.74,4.56c-4,2.22-8.13,4.51-14.06,4.51c-5.93,0-10.06-2.29-14.06-4.51c-4.23-2.35-8.23-4.56-14.74-4.56      c-6.51,0-10.51,2.22-14.74,4.56c-4,2.22-8.13,4.51-14.06,4.51c-5.93,0-10.06-2.29-14.06-4.51c-4.23-2.35-8.23-4.56-14.74-4.56      h-57.59c-6.51,0-10.51,2.22-14.74,4.56c-4,2.22-8.13,4.51-14.06,4.51c-5.93,0-10.06-2.29-14.06-4.51      c-4.23-2.35-8.23-4.56-14.74-4.56c-6.51,0-10.51,2.22-14.74,4.56c-4,2.22-8.13,4.51-14.06,4.51s-10.06-2.29-14.06-4.51      c-4.23-2.35-8.23-4.56-14.74-4.56c-6.51,0-10.5,2.22-14.74,4.56c-4,2.22-8.13,4.51-14.06,4.51s-10.06-2.29-14.06-4.51      c-4.23-2.35-8.23-4.56-14.74-4.56c-6.51,0-10.5,2.22-14.74,4.56c-4,2.22-8.13,4.51-14.06,4.51s-10.06-2.29-14.06-4.51      c-4.23-2.35-8.23-4.56-14.74-4.56c-6.51,0-10.51,2.22-14.74,4.56c-4,2.22-8.13,4.51-14.06,4.51c-5.93,0-10.06-2.29-14.06-4.51      c-4.23-2.35-8.23-4.56-14.74-4.56c-6.51,0-10.51,2.22-14.74,4.56c-4,2.22-8.13,4.51-14.06,4.51c-5.93,0-10.06-2.29-14.06-4.51      c-4.23-2.35-8.23-4.56-14.74-4.56v-5.17c7.85,0,12.84,2.77,17.24,5.21c3.73,2.07,6.96,3.86,11.55,3.86s7.82-1.79,11.55-3.86      c4.4-2.44,9.4-5.21,17.24-5.21c7.85,0,12.84,2.77,17.24,5.21c3.73,2.07,6.96,3.86,11.55,3.86c4.59,0,7.82-1.79,11.55-3.86      c4.4-2.44,9.4-5.21,17.24-5.21s12.84,2.77,17.24,5.21c3.73,2.07,6.96,3.86,11.55,3.86c4.59,0,7.82-1.79,11.55-3.86      c4.4-2.44,9.4-5.21,17.24-5.21c7.85,0,12.84,2.77,17.24,5.21c3.73,2.07,6.96,3.86,11.55,3.86c4.59,0,7.82-1.79,11.55-3.86      c4.4-2.44,9.4-5.21,17.24-5.21c7.85,0,12.84,2.77,17.24,5.21c3.73,2.07,6.96,3.86,11.55,3.86s7.82-1.79,11.55-3.86      c4.4-2.44,9.4-5.21,17.24-5.21c7.85,0,12.84,2.77,17.24,5.21c3.73,2.07,6.96,3.86,11.55,3.86c4.59,0,7.82-1.79,11.55-3.86      c4.4-2.44,9.4-5.21,17.24-5.21h57.59c7.85,0,12.84,2.77,17.24,5.21c3.73,2.07,6.96,3.86,11.55,3.86c4.59,0,7.82-1.79,11.55-3.86      c4.41-2.44,9.4-5.21,17.24-5.21s12.84,2.77,17.24,5.21c3.73,2.07,6.96,3.86,11.55,3.86c4.59,0,7.82-1.79,11.55-3.86      c4.4-2.44,9.4-5.21,17.24-5.21c7.85,0,12.84,2.77,17.24,5.21c3.73,2.07,6.96,3.86,11.55,3.86c4.59,0,7.82-1.79,11.55-3.86      c4.4-2.44,9.4-5.21,17.24-5.21c7.85,0,12.84,2.77,17.24,5.21c3.73,2.07,6.96,3.86,11.55,3.86c4.59,0,7.82-1.79,11.55-3.86      c4.41-2.44,9.4-5.21,17.24-5.21s12.84,2.77,17.24,5.21c3.73,2.07,6.96,3.86,11.55,3.86V688.68z"/>
			</g>
			<g>
				<path class="st1" d="M1252.85,662.19c-5.93,0-10.06-2.29-14.06-4.51c-4.23-2.35-8.23-4.56-14.74-4.56      c-6.51,0-10.51,2.22-14.74,4.56c-4,2.22-8.13,4.51-14.06,4.51c-5.93,0-10.06-2.29-14.06-4.51c-4.23-2.35-8.23-4.56-14.74-4.56      s-10.5,2.22-14.74,4.56c-4,2.22-8.13,4.51-14.06,4.51c-5.93,0-10.06-2.29-14.06-4.51c-4.23-2.35-8.23-4.56-14.74-4.56      s-10.51,2.22-14.74,4.56c-4,2.22-8.13,4.51-14.06,4.51c-5.93,0-10.06-2.29-14.06-4.51c-4.23-2.35-8.23-4.56-14.74-4.56      c-6.51,0-10.51,2.22-14.74,4.56c-4,2.22-8.13,4.51-14.06,4.51c-5.93,0-10.06-2.29-14.06-4.51c-4.23-2.35-8.23-4.56-14.74-4.56      c-6.51,0-10.5,2.22-14.74,4.56c-4,2.22-8.13,4.51-14.06,4.51c-5.93,0-10.06-2.29-14.06-4.51c-4.23-2.35-8.23-4.56-14.74-4.56      c-6.51,0-10.51,2.22-14.74,4.56c-4,2.22-8.13,4.51-14.06,4.51c-5.93,0-10.06-2.29-14.06-4.51c-4.23-2.35-8.23-4.56-14.74-4.56      c-6.51,0-10.51,2.22-14.74,4.56c-4,2.22-8.13,4.51-14.06,4.51s-10.06-2.29-14.06-4.51c-4.23-2.35-8.23-4.56-14.74-4.56      c-6.51,0-10.5,2.22-14.74,4.56c-4,2.22-8.13,4.51-14.06,4.51s-10.06-2.29-14.06-4.51c-4.23-2.35-8.23-4.56-14.74-4.56      c-6.51,0-10.5,2.22-14.74,4.56c-4,2.22-8.13,4.51-14.06,4.51s-10.06-2.29-14.06-4.51c-4.23-2.35-8.23-4.56-14.74-4.56      c-6.51,0-10.51,2.22-14.74,4.56c-4,2.22-8.13,4.51-14.06,4.51c-5.93,0-10.06-2.29-14.06-4.51c-4.23-2.35-8.23-4.56-14.74-4.56      c-6.51,0-10.51,2.22-14.74,4.56c-4,2.22-8.13,4.51-14.06,4.51c-5.93,0-10.06-2.29-14.06-4.51c-4.23-2.35-8.23-4.56-14.74-4.56      v-5.17c7.85,0,12.84,2.77,17.24,5.21c3.73,2.07,6.96,3.86,11.55,3.86s7.82-1.79,11.55-3.86c4.4-2.44,9.4-5.21,17.24-5.21      c7.85,0,12.84,2.77,17.24,5.21c3.73,2.07,6.96,3.86,11.55,3.86c4.59,0,7.82-1.79,11.55-3.86c4.4-2.44,9.4-5.21,17.24-5.21      s12.84,2.77,17.24,5.21c3.73,2.07,6.96,3.86,11.55,3.86c4.59,0,7.82-1.79,11.55-3.86c4.4-2.44,9.4-5.21,17.24-5.21      c7.85,0,12.84,2.77,17.24,5.21c3.73,2.07,6.96,3.86,11.55,3.86c4.59,0,7.82-1.79,11.55-3.86c4.4-2.44,9.4-5.21,17.24-5.21      c7.85,0,12.84,2.77,17.24,5.21c3.73,2.07,6.96,3.86,11.55,3.86s7.82-1.79,11.55-3.86c4.4-2.44,9.4-5.21,17.24-5.21      c7.85,0,12.84,2.77,17.24,5.21c3.73,2.07,6.96,3.86,11.55,3.86c4.59,0,7.82-1.79,11.55-3.86c4.4-2.44,9.4-5.21,17.24-5.21      s12.84,2.77,17.24,5.21c3.73,2.07,6.96,3.86,11.55,3.86c4.59,0,7.82-1.79,11.55-3.86c4.4-2.44,9.4-5.21,17.24-5.21      s12.84,2.77,17.24,5.21c3.73,2.07,6.96,3.86,11.55,3.86c4.59,0,7.82-1.79,11.55-3.86c4.41-2.44,9.4-5.21,17.24-5.21      s12.84,2.77,17.24,5.21c3.73,2.07,6.96,3.86,11.55,3.86c4.59,0,7.82-1.79,11.55-3.86c4.4-2.44,9.4-5.21,17.24-5.21      c7.85,0,12.84,2.77,17.24,5.21c3.73,2.07,6.96,3.86,11.55,3.86c4.59,0,7.82-1.79,11.55-3.86c4.4-2.44,9.4-5.21,17.24-5.21      c7.85,0,12.84,2.77,17.24,5.21c3.73,2.07,6.96,3.86,11.55,3.86c4.59,0,7.82-1.79,11.55-3.86c4.41-2.44,9.4-5.21,17.24-5.21      s12.84,2.77,17.24,5.21c3.73,2.07,6.96,3.86,11.55,3.86V662.19z"/>
			</g>
			<g>
				<path class="st1" d="M1252.85,635.71c-5.93,0-10.06-2.29-14.06-4.51c-4.23-2.35-8.23-4.56-14.74-4.56      c-6.51,0-10.51,2.22-14.74,4.56c-4,2.22-8.13,4.51-14.06,4.51c-5.93,0-10.06-2.29-14.06-4.51c-4.23-2.35-8.23-4.56-14.74-4.56      s-10.5,2.22-14.74,4.56c-4,2.22-8.13,4.51-14.06,4.51c-5.93,0-10.06-2.29-14.06-4.51c-4.23-2.35-8.23-4.56-14.74-4.56      s-10.51,2.22-14.74,4.56c-4,2.22-8.13,4.51-14.06,4.51c-5.93,0-10.06-2.29-14.06-4.51c-4.23-2.35-8.23-4.56-14.74-4.56      c-6.51,0-10.51,2.22-14.74,4.56c-4,2.22-8.13,4.51-14.06,4.51c-5.93,0-10.06-2.29-14.06-4.51c-4.23-2.35-8.23-4.56-14.74-4.56      c-6.51,0-10.5,2.22-14.74,4.56c-4,2.22-8.13,4.51-14.06,4.51c-5.93,0-10.06-2.29-14.06-4.51c-4.23-2.35-8.23-4.56-14.74-4.56      c-6.51,0-10.51,2.22-14.74,4.56c-4,2.22-8.13,4.51-14.06,4.51c-5.93,0-10.06-2.29-14.06-4.51c-4.23-2.35-8.23-4.56-14.74-4.56      c-6.51,0-10.51,2.22-14.74,4.56c-4,2.22-8.13,4.51-14.06,4.51s-10.06-2.29-14.06-4.51c-4.23-2.35-8.23-4.56-14.74-4.56      c-6.51,0-10.5,2.22-14.74,4.56c-4,2.22-8.13,4.51-14.06,4.51s-10.06-2.29-14.06-4.51c-4.23-2.35-8.23-4.56-14.74-4.56      c-6.51,0-10.5,2.22-14.74,4.56c-4,2.22-8.13,4.51-14.06,4.51c-5.85,0-9.95-1.95-13.92-3.84c-4.26-2.03-8.29-3.94-14.88-3.94      c-6.59,0-10.62,1.91-14.88,3.94c-3.97,1.89-8.07,3.84-13.92,3.84c-5.85,0-9.95-1.95-13.92-3.84c-4.26-2.03-8.29-3.94-14.88-3.94      c-6.59,0-10.62,1.91-14.88,3.94c-3.97,1.89-8.07,3.84-13.92,3.84c-5.93,0-10.06-2.29-14.06-4.51      c-4.23-2.35-8.23-4.56-14.74-4.56v-5.17c7.85,0,12.84,2.77,17.24,5.21c3.73,2.07,6.96,3.86,11.55,3.86      c4.68,0,7.93-1.55,11.7-3.34c4.38-2.08,9.34-4.44,17.1-4.44c7.76,0,12.72,2.36,17.1,4.44c3.77,1.79,7.02,3.34,11.7,3.34      c4.68,0,7.93-1.55,11.7-3.34c4.38-2.08,9.34-4.44,17.1-4.44c7.76,0,12.72,2.36,17.1,4.44c3.77,1.79,7.02,3.34,11.7,3.34      c4.59,0,7.82-1.79,11.55-3.86c4.4-2.44,9.4-5.21,17.24-5.21c7.85,0,12.84,2.77,17.24,5.21c3.73,2.07,6.96,3.86,11.55,3.86      c4.59,0,7.82-1.79,11.55-3.86c4.4-2.44,9.4-5.21,17.24-5.21c7.85,0,12.84,2.77,17.24,5.21c3.73,2.07,6.96,3.86,11.55,3.86      s7.82-1.79,11.55-3.86c4.4-2.44,9.4-5.21,17.24-5.21c7.85,0,12.84,2.77,17.24,5.21c3.73,2.07,6.96,3.86,11.55,3.86      c4.59,0,7.82-1.79,11.55-3.86c4.4-2.44,9.4-5.21,17.24-5.21s12.84,2.77,17.24,5.21c3.73,2.07,6.96,3.86,11.55,3.86      c4.59,0,7.82-1.79,11.55-3.86c4.4-2.44,9.4-5.21,17.24-5.21s12.84,2.77,17.24,5.21c3.73,2.07,6.96,3.86,11.55,3.86      c4.59,0,7.82-1.79,11.55-3.86c4.41-2.44,9.4-5.21,17.24-5.21s12.84,2.77,17.24,5.21c3.73,2.07,6.96,3.86,11.55,3.86      c4.59,0,7.82-1.79,11.55-3.86c4.4-2.44,9.4-5.21,17.24-5.21c7.85,0,12.84,2.77,17.24,5.21c3.73,2.07,6.96,3.86,11.55,3.86      c4.59,0,7.82-1.79,11.55-3.86c4.4-2.44,9.4-5.21,17.24-5.21c7.85,0,12.84,2.77,17.24,5.21c3.73,2.07,6.96,3.86,11.55,3.86      c4.59,0,7.82-1.79,11.55-3.86c4.41-2.44,9.4-5.21,17.24-5.21s12.84,2.77,17.24,5.21c3.73,2.07,6.96,3.86,11.55,3.86V635.71z"/>
			</g>
			<g>
				<path class="st1" d="M1252.85,609.23c-5.93,0-10.06-2.29-14.06-4.51c-4.23-2.35-8.23-4.56-14.74-4.56      c-6.51,0-10.51,2.22-14.74,4.56c-4,2.22-8.13,4.51-14.06,4.51c-5.93,0-10.06-2.29-14.06-4.51c-4.23-2.35-8.23-4.56-14.74-4.56      s-10.5,2.22-14.74,4.56c-4,2.22-8.13,4.51-14.06,4.51c-5.93,0-10.06-2.29-14.06-4.51c-4.23-2.35-8.23-4.56-14.74-4.56      s-10.51,2.22-14.74,4.56c-4,2.22-8.13,4.51-14.06,4.51c-5.93,0-10.06-2.29-14.06-4.51c-4.23-2.35-8.23-4.56-14.74-4.56      c-6.51,0-10.51,2.22-14.74,4.56c-4,2.22-8.13,4.51-14.06,4.51c-5.93,0-10.06-2.29-14.06-4.51c-4.23-2.35-8.23-4.56-14.74-4.56      c-6.51,0-10.5,2.22-14.74,4.56c-4,2.22-8.13,4.51-14.06,4.51c-5.93,0-10.06-2.29-14.06-4.51c-4.23-2.35-8.23-4.56-14.74-4.56      c-6.51,0-10.51,2.22-14.74,4.56c-4,2.22-8.13,4.51-14.06,4.51c-5.93,0-10.06-2.29-14.06-4.51c-4.23-2.35-8.23-4.56-14.74-4.56      c-6.51,0-10.51,2.22-14.74,4.56c-4,2.22-8.13,4.51-14.06,4.51s-10.06-2.29-14.06-4.51c-4.23-2.35-8.23-4.56-14.74-4.56      c-6.51,0-10.5,2.22-14.74,4.56c-4,2.22-8.13,4.51-14.06,4.51s-10.06-2.29-14.06-4.51c-4.23-2.35-8.23-4.56-14.74-4.56      c-6.51,0-10.5,2.22-14.74,4.56c-4,2.22-8.13,4.51-14.06,4.51s-10.06-2.29-14.06-4.51c-4.23-2.35-8.23-4.56-14.74-4.56      c-6.51,0-10.51,2.22-14.74,4.56c-4,2.22-8.13,4.51-14.06,4.51c-5.93,0-10.06-2.29-14.06-4.51c-4.23-2.35-8.23-4.56-14.74-4.56      c-6.51,0-10.51,2.22-14.74,4.56c-4,2.22-8.13,4.51-14.06,4.51c-5.93,0-10.06-2.29-14.06-4.51c-4.23-2.35-8.23-4.56-14.74-4.56      v-5.17c7.85,0,12.84,2.77,17.24,5.21c3.73,2.07,6.96,3.86,11.55,3.86s7.82-1.79,11.55-3.86c4.4-2.44,9.4-5.21,17.24-5.21      c7.85,0,12.84,2.77,17.24,5.21c3.73,2.07,6.96,3.86,11.55,3.86c4.59,0,7.82-1.79,11.55-3.86c4.4-2.44,9.4-5.21,17.24-5.21      s12.84,2.77,17.24,5.21c3.73,2.07,6.96,3.86,11.55,3.86c4.59,0,7.82-1.79,11.55-3.86c4.4-2.44,9.4-5.21,17.24-5.21      c7.85,0,12.84,2.77,17.24,5.21c3.73,2.07,6.96,3.86,11.55,3.86c4.59,0,7.82-1.79,11.55-3.86c4.4-2.44,9.4-5.21,17.24-5.21      c7.85,0,12.84,2.77,17.24,5.21c3.73,2.07,6.96,3.86,11.55,3.86s7.82-1.79,11.55-3.86c4.4-2.44,9.4-5.21,17.24-5.21      c7.85,0,12.84,2.77,17.24,5.21c3.73,2.07,6.96,3.86,11.55,3.86c4.59,0,7.82-1.79,11.55-3.86c4.4-2.44,9.4-5.21,17.24-5.21      s12.84,2.77,17.24,5.21c3.73,2.07,6.96,3.86,11.55,3.86c4.59,0,7.82-1.79,11.55-3.86c4.4-2.44,9.4-5.21,17.24-5.21      s12.84,2.77,17.24,5.21c3.73,2.07,6.96,3.86,11.55,3.86c4.59,0,7.82-1.79,11.55-3.86c4.41-2.44,9.4-5.21,17.24-5.21      s12.84,2.77,17.24,5.21c3.73,2.07,6.96,3.86,11.55,3.86c4.59,0,7.82-1.79,11.55-3.86c4.4-2.44,9.4-5.21,17.24-5.21      c7.85,0,12.84,2.77,17.24,5.21c3.73,2.07,6.96,3.86,11.55,3.86c4.59,0,7.82-1.79,11.55-3.86c4.4-2.44,9.4-5.21,17.24-5.21      c7.85,0,12.84,2.77,17.24,5.21c3.73,2.07,6.96,3.86,11.55,3.86c4.59,0,7.82-1.79,11.55-3.86c4.41-2.44,9.4-5.21,17.24-5.21      s12.84,2.77,17.24,5.21c3.73,2.07,6.96,3.86,11.55,3.86V609.23z"/>
			</g>
			<g>
				<path class="st1" d="M1252.85,582.75c-5.93,0-10.06-2.29-14.06-4.51c-4.23-2.35-8.23-4.56-14.74-4.56      c-6.51,0-10.51,2.22-14.74,4.56c-4,2.22-8.13,4.51-14.06,4.51c-5.93,0-10.06-2.29-14.06-4.51c-4.23-2.35-8.23-4.56-14.74-4.56      s-10.5,2.22-14.74,4.56c-4,2.22-8.13,4.51-14.06,4.51c-5.93,0-10.06-2.29-14.06-4.51c-4.23-2.35-8.23-4.56-14.74-4.56      s-10.51,2.22-14.74,4.56c-4,2.22-8.13,4.51-14.06,4.51c-5.93,0-10.06-2.29-14.06-4.51c-4.23-2.35-8.23-4.56-14.74-4.56      c-6.51,0-10.51,2.22-14.74,4.56c-4,2.22-8.13,4.51-14.06,4.51c-5.93,0-10.06-2.29-14.06-4.51c-4.23-2.35-8.23-4.56-14.74-4.56      c-6.51,0-10.5,2.22-14.74,4.56c-4,2.22-8.13,4.51-14.06,4.51c-5.93,0-10.06-2.29-14.06-4.51c-4.23-2.35-8.23-4.56-14.74-4.56      c-6.51,0-10.51,2.22-14.74,4.56c-4,2.22-8.13,4.51-14.06,4.51c-5.93,0-10.06-2.29-14.06-4.51c-4.23-2.35-8.23-4.56-14.74-4.56      c-6.51,0-10.51,2.22-14.74,4.56c-4,2.22-8.13,4.51-14.06,4.51s-10.06-2.29-14.06-4.51c-4.23-2.35-8.23-4.56-14.74-4.56      c-6.51,0-10.5,2.22-14.74,4.56c-4,2.22-8.13,4.51-14.06,4.51s-10.06-2.29-14.06-4.51c-4.23-2.35-8.23-4.56-14.74-4.56      c-6.51,0-10.5,2.22-14.74,4.56c-4,2.22-8.13,4.51-14.06,4.51s-10.06-2.29-14.06-4.51c-4.23-2.35-8.23-4.56-14.74-4.56      c-6.51,0-10.51,2.22-14.74,4.56c-4,2.22-8.13,4.51-14.06,4.51c-5.93,0-10.06-2.29-14.06-4.51c-4.23-2.35-8.23-4.56-14.74-4.56      c-6.51,0-10.51,2.22-14.74,4.56c-4,2.22-8.13,4.51-14.06,4.51c-5.93,0-10.06-2.29-14.06-4.51c-4.23-2.35-8.23-4.56-14.74-4.56      v-5.17c7.85,0,12.84,2.77,17.24,5.21c3.73,2.07,6.96,3.86,11.55,3.86s7.82-1.79,11.55-3.86c4.4-2.44,9.4-5.21,17.24-5.21      c7.85,0,12.84,2.77,17.24,5.21c3.73,2.07,6.96,3.86,11.55,3.86c4.59,0,7.82-1.79,11.55-3.86c4.4-2.44,9.4-5.21,17.24-5.21      s12.84,2.77,17.24,5.21c3.73,2.07,6.96,3.86,11.55,3.86c4.59,0,7.82-1.79,11.55-3.86c4.4-2.44,9.4-5.21,17.24-5.21      c7.85,0,12.84,2.77,17.24,5.21c3.73,2.07,6.96,3.86,11.55,3.86c4.59,0,7.82-1.79,11.55-3.86c4.4-2.44,9.4-5.21,17.24-5.21      c7.85,0,12.84,2.77,17.24,5.21c3.73,2.07,6.96,3.86,11.55,3.86s7.82-1.79,11.55-3.86c4.4-2.44,9.4-5.21,17.24-5.21      c7.85,0,12.84,2.77,17.24,5.21c3.73,2.07,6.96,3.86,11.55,3.86c4.59,0,7.82-1.79,11.55-3.86c4.4-2.44,9.4-5.21,17.24-5.21      s12.84,2.77,17.24,5.21c3.73,2.07,6.96,3.86,11.55,3.86c4.59,0,7.82-1.79,11.55-3.86c4.4-2.44,9.4-5.21,17.24-5.21      s12.84,2.77,17.24,5.21c3.73,2.07,6.96,3.86,11.55,3.86c4.59,0,7.82-1.79,11.55-3.86c4.41-2.44,9.4-5.21,17.24-5.21      s12.84,2.77,17.24,5.21c3.73,2.07,6.96,3.86,11.55,3.86c4.59,0,7.82-1.79,11.55-3.86c4.4-2.44,9.4-5.21,17.24-5.21      c7.85,0,12.84,2.77,17.24,5.21c3.73,2.07,6.96,3.86,11.55,3.86c4.59,0,7.82-1.79,11.55-3.86c4.4-2.44,9.4-5.21,17.24-5.21      c7.85,0,12.84,2.77,17.24,5.21c3.73,2.07,6.96,3.86,11.55,3.86c4.59,0,7.82-1.79,11.55-3.86c4.41-2.44,9.4-5.21,17.24-5.21      s12.84,2.77,17.24,5.21c3.73,2.07,6.96,3.86,11.55,3.86V582.75z"/>
			</g>
			<g>
				<path class="st1" d="M1252.85,556.27c-5.93,0-10.06-2.29-14.06-4.51c-4.23-2.35-8.23-4.56-14.74-4.56      c-6.51,0-10.51,2.22-14.74,4.56c-4,2.22-8.13,4.51-14.06,4.51c-5.93,0-10.06-2.29-14.06-4.51c-4.23-2.35-8.23-4.56-14.74-4.56      s-10.5,2.22-14.74,4.56c-4,2.22-8.13,4.51-14.06,4.51c-5.93,0-10.06-2.29-14.06-4.51c-4.23-2.35-8.23-4.56-14.74-4.56      s-10.51,2.22-14.74,4.56c-4,2.22-8.13,4.51-14.06,4.51c-5.93,0-10.06-2.29-14.06-4.51c-4.23-2.35-8.23-4.56-14.74-4.56      c-6.51,0-10.51,2.22-14.74,4.56c-4,2.22-8.13,4.51-14.06,4.51s-10.06-2.29-14.06-4.51c-4.23-2.35-8.23-4.56-14.74-4.56      c-6.51,0-10.5,2.22-14.74,4.56c-4,2.22-8.13,4.51-14.06,4.51c-5.93,0-10.06-2.29-14.06-4.51c-4.23-2.35-8.23-4.56-14.74-4.56      c-6.51,0-10.51,2.22-14.74,4.56c-4,2.22-8.13,4.51-14.06,4.51s-10.06-2.29-14.06-4.51c-4.23-2.35-8.23-4.56-14.74-4.56      c-6.51,0-10.51,2.22-14.74,4.56c-4,2.22-8.13,4.51-14.06,4.51s-10.06-2.29-14.06-4.51c-4.23-2.35-8.23-4.56-14.74-4.56      c-6.51,0-10.5,2.22-14.74,4.56c-4,2.22-8.13,4.51-14.06,4.51s-10.06-2.29-14.06-4.51c-4.23-2.35-8.23-4.56-14.74-4.56      c-6.51,0-10.5,2.22-14.74,4.56c-4,2.22-8.13,4.51-14.06,4.51s-10.06-2.29-14.06-4.51c-4.23-2.35-8.23-4.56-14.74-4.56      c-6.51,0-10.51,2.22-14.74,4.56c-4,2.22-8.13,4.51-14.06,4.51c-5.93,0-10.06-2.29-14.06-4.51c-4.23-2.35-8.23-4.56-14.74-4.56      c-6.51,0-10.51,2.22-14.74,4.56c-4,2.22-8.13,4.51-14.06,4.51c-5.93,0-10.06-2.29-14.06-4.51c-4.23-2.35-8.23-4.56-14.74-4.56      v-5.17c7.85,0,12.84,2.77,17.24,5.21c3.73,2.07,6.96,3.86,11.55,3.86s7.82-1.79,11.55-3.86c4.4-2.44,9.4-5.21,17.24-5.21      c7.85,0,12.84,2.77,17.24,5.21c3.73,2.07,6.96,3.86,11.55,3.86c4.59,0,7.82-1.79,11.55-3.86c4.4-2.44,9.4-5.21,17.24-5.21      c7.85,0,12.84,2.77,17.24,5.21c3.73,2.07,6.96,3.86,11.55,3.86c4.59,0,7.82-1.79,11.55-3.86c4.4-2.44,9.4-5.21,17.24-5.21      c7.85,0,12.84,2.77,17.24,5.21c3.73,2.07,6.96,3.86,11.55,3.86c4.59,0,7.82-1.79,11.55-3.86c4.4-2.44,9.4-5.21,17.24-5.21      c7.85,0,12.84,2.77,17.24,5.21c3.73,2.07,6.96,3.86,11.55,3.86s7.82-1.79,11.55-3.86c4.4-2.44,9.4-5.21,17.24-5.21      c7.85,0,12.84,2.77,17.24,5.21c3.73,2.07,6.96,3.86,11.55,3.86c4.59,0,7.82-1.79,11.55-3.86c4.4-2.44,9.4-5.21,17.24-5.21      c7.85,0,12.84,2.77,17.24,5.21c3.73,2.07,6.96,3.86,11.55,3.86c4.59,0,7.82-1.79,11.55-3.86c4.4-2.44,9.4-5.21,17.24-5.21      s12.84,2.77,17.24,5.21c3.73,2.07,6.96,3.86,11.55,3.86c4.59,0,7.82-1.79,11.55-3.86c4.4-2.44,9.4-5.21,17.24-5.21      s12.84,2.77,17.24,5.21c3.73,2.07,6.96,3.86,11.55,3.86c4.59,0,7.82-1.79,11.55-3.86c4.4-2.44,9.4-5.21,17.24-5.21      c7.85,0,12.84,2.77,17.24,5.21c3.73,2.07,6.96,3.86,11.55,3.86c4.59,0,7.82-1.79,11.55-3.86c4.4-2.44,9.4-5.21,17.24-5.21      c7.85,0,12.84,2.77,17.24,5.21c3.73,2.07,6.96,3.86,11.55,3.86c4.59,0,7.82-1.79,11.55-3.86c4.41-2.44,9.4-5.21,17.24-5.21      s12.84,2.77,17.24,5.21c3.73,2.07,6.96,3.86,11.55,3.86V556.27z"/>
			</g>
			<g>
				<path class="st1" d="M1252.85,529.79c-5.93,0-10.06-2.29-14.06-4.51c-4.23-2.35-8.23-4.56-14.74-4.56      c-6.51,0-10.51,2.22-14.74,4.56c-4,2.22-8.13,4.51-14.06,4.51c-5.93,0-10.06-2.29-14.06-4.51c-4.23-2.35-8.23-4.56-14.74-4.56      s-10.5,2.22-14.74,4.56c-4,2.22-8.13,4.51-14.06,4.51c-5.93,0-10.06-2.29-14.06-4.51c-4.23-2.35-8.23-4.56-14.74-4.56      s-10.51,2.22-14.74,4.56c-4,2.22-8.13,4.51-14.06,4.51c-5.93,0-10.06-2.29-14.06-4.51c-4.23-2.35-8.23-4.56-14.74-4.56      c-6.51,0-10.51,2.22-14.74,4.56c-4,2.22-8.13,4.51-14.06,4.51s-10.06-2.29-14.06-4.51c-4.23-2.35-8.23-4.56-14.74-4.56      c-6.51,0-10.5,2.22-14.74,4.56c-4,2.22-8.13,4.51-14.06,4.51c-5.93,0-10.06-2.29-14.06-4.51c-4.23-2.35-8.23-4.56-14.74-4.56      c-6.51,0-10.51,2.22-14.74,4.56c-4,2.22-8.13,4.51-14.06,4.51s-10.06-2.29-14.06-4.51c-4.23-2.35-8.23-4.56-14.74-4.56      c-6.51,0-10.51,2.22-14.74,4.56c-4,2.22-8.13,4.51-14.06,4.51s-10.06-2.29-14.06-4.51c-4.23-2.35-8.23-4.56-14.74-4.56      c-6.51,0-10.5,2.22-14.74,4.56c-4,2.22-8.13,4.51-14.06,4.51s-10.06-2.29-14.06-4.51c-4.23-2.35-8.23-4.56-14.74-4.56      c-6.51,0-10.5,2.22-14.74,4.56c-4,2.22-8.13,4.51-14.06,4.51s-10.06-2.29-14.06-4.51c-4.23-2.35-8.23-4.56-14.74-4.56      c-6.51,0-10.51,2.22-14.74,4.56c-4,2.22-8.13,4.51-14.06,4.51c-5.93,0-10.06-2.29-14.06-4.51c-4.23-2.35-8.23-4.56-14.74-4.56      c-6.51,0-10.51,2.22-14.74,4.56c-4,2.22-8.13,4.51-14.06,4.51c-5.93,0-10.06-2.29-14.06-4.51c-4.23-2.35-8.23-4.56-14.74-4.56      v-5.17c7.85,0,12.84,2.77,17.24,5.21c3.73,2.07,6.96,3.86,11.55,3.86s7.82-1.79,11.55-3.86c4.4-2.44,9.4-5.21,17.24-5.21      c7.85,0,12.84,2.77,17.24,5.21c3.73,2.07,6.96,3.86,11.55,3.86c4.59,0,7.82-1.79,11.55-3.86c4.4-2.44,9.4-5.21,17.24-5.21      c7.85,0,12.84,2.77,17.24,5.21c3.73,2.07,6.96,3.86,11.55,3.86c4.59,0,7.82-1.79,11.55-3.86c4.4-2.44,9.4-5.21,17.24-5.21      c7.85,0,12.84,2.77,17.24,5.21c3.73,2.07,6.96,3.86,11.55,3.86c4.59,0,7.82-1.79,11.55-3.86c4.4-2.44,9.4-5.21,17.24-5.21      c7.85,0,12.84,2.77,17.24,5.21c3.73,2.07,6.96,3.86,11.55,3.86s7.82-1.79,11.55-3.86c4.4-2.44,9.4-5.21,17.24-5.21      c7.85,0,12.84,2.77,17.24,5.21c3.73,2.07,6.96,3.86,11.55,3.86c4.59,0,7.82-1.79,11.55-3.86c4.4-2.44,9.4-5.21,17.24-5.21      c7.85,0,12.84,2.77,17.24,5.21c3.73,2.07,6.96,3.86,11.55,3.86c4.59,0,7.82-1.79,11.55-3.86c4.4-2.44,9.4-5.21,17.24-5.21      s12.84,2.77,17.24,5.21c3.73,2.07,6.96,3.86,11.55,3.86c4.59,0,7.82-1.79,11.55-3.86c4.4-2.44,9.4-5.21,17.24-5.21      s12.84,2.77,17.24,5.21c3.73,2.07,6.96,3.86,11.55,3.86c4.59,0,7.82-1.79,11.55-3.86c4.4-2.44,9.4-5.21,17.24-5.21      c7.85,0,12.84,2.77,17.24,5.21c3.73,2.07,6.96,3.86,11.55,3.86c4.59,0,7.82-1.79,11.55-3.86c4.4-2.44,9.4-5.21,17.24-5.21      c7.85,0,12.84,2.77,17.24,5.21c3.73,2.07,6.96,3.86,11.55,3.86c4.59,0,7.82-1.79,11.55-3.86c4.41-2.44,9.4-5.21,17.24-5.21      s12.84,2.77,17.24,5.21c3.73,2.07,6.96,3.86,11.55,3.86V529.79z"/>
			</g>
			<g>
				<path class="st1" d="M1328.38,503.3c-5.93,0-10.06-2.29-14.06-4.51c-4.23-2.35-8.23-4.56-14.74-4.56s-10.5,2.22-14.74,4.56      c-4,2.22-8.13,4.51-14.06,4.51c-5.93,0-10.06-2.29-14.06-4.51c-4.23-2.35-8.23-4.56-14.74-4.56s-10.51,2.22-14.74,4.56      c-4,2.22-8.13,4.51-14.06,4.51c-5.93,0-10.06-2.29-14.06-4.51c-4.23-2.35-8.23-4.56-14.74-4.56s-10.51,2.22-14.74,4.56      c-4,2.22-8.13,4.51-14.06,4.51c-5.93,0-10.06-2.29-14.06-4.51c-4.23-2.35-8.23-4.56-14.74-4.56c-6.51,0-10.5,2.22-14.74,4.56      c-4,2.22-8.13,4.51-14.06,4.51c-5.93,0-10.06-2.29-14.06-4.51c-4.23-2.35-8.23-4.56-14.74-4.56c-6.51,0-10.51,2.22-14.74,4.56      c-4,2.22-8.13,4.51-14.06,4.51c-5.93,0-10.06-2.29-14.06-4.51c-4.23-2.35-8.23-4.56-14.74-4.56c-6.51,0-10.51,2.22-14.74,4.56      c-4,2.22-8.13,4.51-14.06,4.51s-10.06-2.29-14.06-4.51c-4.23-2.35-8.23-4.56-14.74-4.56c-6.51,0-10.5,2.22-14.74,4.56      c-4,2.22-8.13,4.51-14.06,4.51c-5.93,0-10.06-2.29-14.06-4.51c-4.23-2.35-8.23-4.56-14.74-4.56c-6.51,0-10.51,2.22-14.74,4.56      c-4,2.22-8.13,4.51-14.06,4.51s-10.06-2.29-14.06-4.51c-4.23-2.35-8.23-4.56-14.74-4.56c-6.51,0-10.51,2.22-14.74,4.56      c-4,2.22-8.13,4.51-14.06,4.51c-5.93,0-10.06-2.29-14.06-4.51c-4.23-2.35-8.23-4.56-14.74-4.56c-6.51,0-10.5,2.22-14.74,4.56      c-4,2.22-8.13,4.51-14.06,4.51s-10.06-2.29-14.06-4.51c-4.23-2.35-8.23-4.56-14.74-4.56s-10.5,2.22-14.74,4.56      c-4,2.22-8.13,4.51-14.06,4.51s-10.06-2.29-14.06-4.51c-4.23-2.35-8.23-4.56-14.74-4.56c-6.51,0-10.51,2.22-14.74,4.56      c-4,2.22-8.13,4.51-14.06,4.51v-5.17c4.59,0,7.82-1.79,11.55-3.86c4.4-2.44,9.4-5.21,17.24-5.21c7.85,0,12.84,2.77,17.24,5.21      c3.73,2.07,6.96,3.86,11.55,3.86c4.59,0,7.82-1.79,11.55-3.86c4.4-2.44,9.4-5.21,17.24-5.21c7.85,0,12.84,2.77,17.24,5.21      c3.73,2.07,6.96,3.86,11.55,3.86c4.59,0,7.82-1.79,11.55-3.86c4.4-2.44,9.4-5.21,17.24-5.21c7.85,0,12.84,2.77,17.24,5.21      c3.73,2.07,6.96,3.86,11.55,3.86c4.59,0,7.82-1.79,11.55-3.86c4.4-2.44,9.4-5.21,17.24-5.21c7.85,0,12.84,2.77,17.24,5.21      c3.73,2.07,6.96,3.86,11.55,3.86c4.59,0,7.82-1.79,11.55-3.86c4.4-2.44,9.4-5.21,17.24-5.21s12.84,2.77,17.24,5.21      c3.73,2.07,6.96,3.86,11.55,3.86c4.59,0,7.82-1.79,11.55-3.86c4.4-2.44,9.4-5.21,17.24-5.21s12.84,2.77,17.24,5.21      c3.73,2.07,6.96,3.86,11.55,3.86c4.59,0,7.82-1.79,11.55-3.86c4.4-2.44,9.4-5.21,17.24-5.21c7.85,0,12.84,2.77,17.24,5.21      c3.73,2.07,6.96,3.86,11.55,3.86c4.59,0,7.82-1.79,11.55-3.86c4.4-2.44,9.4-5.21,17.24-5.21c7.85,0,12.84,2.77,17.24,5.21      c3.73,2.07,6.96,3.86,11.55,3.86c4.59,0,7.82-1.79,11.55-3.86c4.4-2.44,9.4-5.21,17.24-5.21c7.85,0,12.84,2.77,17.24,5.21      c3.73,2.07,6.96,3.86,11.55,3.86c4.59,0,7.82-1.79,11.55-3.86c4.4-2.44,9.4-5.21,17.24-5.21s12.84,2.77,17.24,5.21      c3.73,2.07,6.96,3.86,11.55,3.86c4.59,0,7.82-1.79,11.55-3.86c4.4-2.44,9.4-5.21,17.24-5.21c7.85,0,12.84,2.77,17.24,5.21      c3.73,2.07,6.96,3.86,11.55,3.86c4.59,0,7.82-1.79,11.55-3.86c4.4-2.44,9.4-5.21,17.24-5.21c7.85,0,12.84,2.77,17.24,5.21      c3.73,2.07,6.96,3.86,11.55,3.86V503.3z"/>
			</g>
			<g>
				<path class="st1" d="M1328.12,476.82c-5.93,0-10.06-2.29-14.06-4.51c-4.23-2.35-8.23-4.56-14.74-4.56      c-6.51,0-10.51,2.22-14.74,4.56c-4,2.22-8.13,4.51-14.06,4.51c-5.93,0-10.06-2.29-14.06-4.51c-4.23-2.35-8.23-4.56-14.74-4.56      s-10.51,2.22-14.74,4.56c-4,2.22-8.13,4.51-14.06,4.51c-5.93,0-10.06-2.29-14.06-4.51c-4.23-2.35-8.23-4.56-14.74-4.56      c-6.51,0-10.5,2.22-14.74,4.56c-4,2.22-8.13,4.51-14.06,4.51c-5.93,0-10.06-2.29-14.06-4.51c-4.23-2.35-8.23-4.56-14.74-4.56      s-10.51,2.22-14.74,4.56c-4,2.22-8.13,4.51-14.06,4.51c-5.93,0-10.06-2.29-14.06-4.51c-4.23-2.35-8.23-4.56-14.74-4.56      c-6.51,0-10.51,2.22-14.74,4.56c-4,2.22-8.13,4.51-14.06,4.51c-5.93,0-10.06-2.29-14.06-4.51c-4.23-2.35-8.23-4.56-14.74-4.56      c-6.51,0-10.5,2.22-14.74,4.56c-4,2.22-8.13,4.51-14.06,4.51s-10.06-2.29-14.06-4.51c-4.23-2.35-8.23-4.56-14.74-4.56      c-6.51,0-10.51,2.22-14.74,4.56c-4,2.22-8.13,4.51-14.06,4.51s-10.06-2.29-14.06-4.51c-4.23-2.35-8.23-4.56-14.74-4.56      c-6.51,0-10.51,2.22-14.74,4.56c-4,2.22-8.13,4.51-14.06,4.51c-5.93,0-10.06-2.29-14.06-4.51c-4.23-2.35-8.23-4.56-14.74-4.56      s-10.5,2.22-14.74,4.56c-4,2.22-8.13,4.51-14.06,4.51c-5.93,0-10.06-2.29-14.06-4.51c-4.23-2.35-8.23-4.56-14.74-4.56      c-6.51,0-10.5,2.22-14.74,4.56c-4,2.22-8.13,4.51-14.06,4.51s-10.06-2.29-14.06-4.51c-4.23-2.35-8.23-4.56-14.74-4.56      c-6.51,0-10.51,2.22-14.74,4.56c-4,2.22-8.13,4.51-14.06,4.51c-5.93,0-10.06-2.29-14.06-4.51c-4.23-2.35-8.23-4.56-14.74-4.56      c-6.51,0-10.5,2.22-14.74,4.56c-4,2.22-8.13,4.51-14.06,4.51v-5.17c4.59,0,7.82-1.79,11.55-3.86c4.4-2.44,9.4-5.21,17.24-5.21      s12.84,2.77,17.24,5.21c3.73,2.07,6.96,3.86,11.55,3.86c4.59,0,7.82-1.79,11.55-3.86c4.4-2.44,9.4-5.21,17.24-5.21      c7.85,0,12.84,2.77,17.24,5.21c3.73,2.07,6.96,3.86,11.55,3.86c4.59,0,7.82-1.79,11.55-3.86c4.4-2.44,9.4-5.21,17.24-5.21      c7.85,0,12.84,2.77,17.24,5.21c3.73,2.07,6.96,3.86,11.55,3.86c4.59,0,7.82-1.79,11.55-3.86c4.4-2.44,9.4-5.21,17.24-5.21      c7.85,0,12.84,2.77,17.24,5.21c3.73,2.07,6.96,3.86,11.55,3.86c4.59,0,7.82-1.79,11.55-3.86c4.4-2.44,9.4-5.21,17.24-5.21      s12.84,2.77,17.24,5.21c3.73,2.07,6.96,3.86,11.55,3.86c4.59,0,7.82-1.79,11.55-3.86c4.4-2.44,9.4-5.21,17.24-5.21      c7.85,0,12.84,2.77,17.24,5.21c3.73,2.07,6.96,3.86,11.55,3.86c4.59,0,7.82-1.79,11.55-3.86c4.4-2.44,9.4-5.21,17.24-5.21      s12.84,2.77,17.24,5.21c3.73,2.07,6.96,3.86,11.55,3.86c4.59,0,7.82-1.79,11.55-3.86c4.41-2.44,9.4-5.21,17.24-5.21      c7.85,0,12.84,2.77,17.24,5.21c3.73,2.07,6.96,3.86,11.55,3.86c4.59,0,7.82-1.79,11.55-3.86c4.4-2.44,9.4-5.21,17.24-5.21      s12.84,2.77,17.24,5.21c3.73,2.07,6.96,3.86,11.55,3.86c4.59,0,7.82-1.79,11.55-3.86c4.4-2.44,9.4-5.21,17.24-5.21      s12.84,2.77,17.24,5.21c3.73,2.07,6.96,3.86,11.55,3.86c4.59,0,7.82-1.79,11.55-3.86c4.41-2.44,9.4-5.21,17.24-5.21      s12.84,2.77,17.24,5.21c3.73,2.07,6.96,3.86,11.55,3.86c4.59,0,7.82-1.79,11.55-3.86c4.4-2.44,9.4-5.21,17.24-5.21      c7.85,0,12.84,2.77,17.24,5.21c3.73,2.07,6.96,3.86,11.55,3.86V476.82z"/>
			</g>
			<g>
				<path class="st1" d="M1310.44,450.34c-5.93,0-10.06-2.29-14.06-4.51c-4.23-2.35-8.23-4.56-14.74-4.56s-10.51,2.22-14.74,4.56      c-4,2.22-8.13,4.51-14.06,4.51c-5.93,0-10.06-2.29-14.06-4.51c-4.23-2.35-8.23-4.56-14.74-4.56c-6.51,0-10.51,2.22-14.74,4.56      c-4,2.22-8.13,4.51-14.06,4.51c-5.93,0-10.06-2.29-14.06-4.51c-4.23-2.35-8.23-4.56-14.74-4.56s-10.5,2.22-14.74,4.56      c-4,2.22-8.13,4.51-14.06,4.51c-5.93,0-10.06-2.29-14.06-4.51c-4.23-2.35-8.23-4.56-14.74-4.56s-10.51,2.22-14.74,4.56      c-4,2.22-8.13,4.51-14.06,4.51c-5.93,0-10.06-2.29-14.06-4.51c-4.23-2.35-8.23-4.56-14.74-4.56s-10.51,2.22-14.74,4.56      c-4,2.22-8.13,4.51-14.06,4.51c-5.93,0-10.06-2.29-14.06-4.51c-4.23-2.35-8.23-4.56-14.74-4.56c-6.51,0-10.5,2.22-14.74,4.56      c-4,2.22-8.13,4.51-14.06,4.51c-5.93,0-10.06-2.29-14.06-4.51c-4.23-2.35-8.23-4.56-14.74-4.56c-6.51,0-10.51,2.22-14.74,4.56      c-4,2.22-8.13,4.51-14.06,4.51c-5.93,0-10.06-2.29-14.06-4.51c-4.23-2.35-8.23-4.56-14.74-4.56c-6.51,0-10.51,2.22-14.74,4.56      c-4,2.22-8.13,4.51-14.06,4.51c-5.93,0-10.06-2.29-14.06-4.51c-4.23-2.35-8.23-4.56-14.74-4.56c-6.51,0-10.5,2.22-14.74,4.56      c-4,2.22-8.13,4.51-14.06,4.51c-5.93,0-10.06-2.29-14.06-4.51c-4.23-2.35-8.23-4.56-14.74-4.56c-6.51,0-10.5,2.22-14.74,4.56      c-4,2.22-8.13,4.51-14.06,4.51s-10.06-2.29-14.06-4.51c-4.23-2.35-8.23-4.56-14.74-4.56c-6.51,0-10.51,2.22-14.74,4.56      c-4,2.22-8.13,4.51-14.06,4.51s-10.06-2.29-14.06-4.51c-4.23-2.35-8.23-4.56-14.74-4.56v-5.17c7.85,0,12.84,2.77,17.24,5.21      c3.73,2.07,6.96,3.86,11.55,3.86c4.59,0,7.82-1.79,11.55-3.86c4.4-2.44,9.4-5.21,17.24-5.21c7.85,0,12.84,2.77,17.24,5.21      c3.73,2.07,6.96,3.86,11.55,3.86c4.59,0,7.82-1.79,11.55-3.86c4.4-2.44,9.4-5.21,17.24-5.21s12.84,2.77,17.24,5.21      c3.73,2.07,6.96,3.86,11.55,3.86c4.59,0,7.82-1.79,11.55-3.86c4.4-2.44,9.4-5.21,17.24-5.21c7.85,0,12.84,2.77,17.24,5.21      c3.73,2.07,6.96,3.86,11.55,3.86s7.82-1.79,11.55-3.86c4.4-2.44,9.4-5.21,17.24-5.21c7.85,0,12.84,2.77,17.24,5.21      c3.73,2.07,6.96,3.86,11.55,3.86c4.59,0,7.82-1.79,11.55-3.86c4.4-2.44,9.4-5.21,17.24-5.21c7.85,0,12.84,2.77,17.24,5.21      c3.73,2.07,6.96,3.86,11.55,3.86c4.59,0,7.82-1.79,11.55-3.86c4.4-2.44,9.4-5.21,17.24-5.21s12.84,2.77,17.24,5.21      c3.73,2.07,6.96,3.86,11.55,3.86c4.59,0,7.82-1.79,11.55-3.86c4.4-2.44,9.4-5.21,17.24-5.21s12.84,2.77,17.24,5.21      c3.73,2.07,6.96,3.86,11.55,3.86c4.59,0,7.82-1.79,11.55-3.86c4.4-2.44,9.4-5.21,17.24-5.21s12.84,2.77,17.24,5.21      c3.73,2.07,6.96,3.86,11.55,3.86c4.59,0,7.82-1.79,11.55-3.86c4.4-2.44,9.4-5.21,17.24-5.21s12.84,2.77,17.24,5.21      c3.73,2.07,6.96,3.86,11.55,3.86c4.59,0,7.82-1.79,11.55-3.86c4.4-2.44,9.4-5.21,17.24-5.21s12.84,2.77,17.24,5.21      c3.73,2.07,6.96,3.86,11.55,3.86c4.59,0,7.82-1.79,11.55-3.86c4.4-2.44,9.4-5.21,17.24-5.21s12.84,2.77,17.24,5.21      c3.73,2.07,6.96,3.86,11.55,3.86V450.34z"/>
			</g>
			<g>
				<path class="st1" d="M1310.44,423.86c-5.93,0-10.06-2.29-14.06-4.51c-4.23-2.35-8.23-4.56-14.74-4.56s-10.51,2.22-14.74,4.56      c-4,2.22-8.13,4.51-14.06,4.51c-5.93,0-10.06-2.29-14.06-4.51c-4.23-2.35-8.23-4.56-14.74-4.56c-6.51,0-10.51,2.22-14.74,4.56      c-4,2.22-8.13,4.51-14.06,4.51c-5.93,0-10.06-2.29-14.06-4.51c-4.23-2.35-8.23-4.56-14.74-4.56s-10.5,2.22-14.74,4.56      c-4,2.22-8.13,4.51-14.06,4.51c-5.93,0-10.06-2.29-14.06-4.51c-4.23-2.35-8.23-4.56-14.74-4.56s-10.51,2.22-14.74,4.56      c-4,2.22-8.13,4.51-14.06,4.51c-5.93,0-10.06-2.29-14.06-4.51c-4.23-2.35-8.23-4.56-14.74-4.56s-10.51,2.22-14.74,4.56      c-4,2.22-8.13,4.51-14.06,4.51c-5.93,0-10.06-2.29-14.06-4.51c-4.23-2.35-8.23-4.56-14.74-4.56c-6.51,0-10.5,2.22-14.74,4.56      c-4,2.22-8.13,4.51-14.06,4.51c-5.93,0-10.06-2.29-14.06-4.51c-4.23-2.35-8.23-4.56-14.74-4.56c-6.51,0-10.51,2.22-14.74,4.56      c-4,2.22-8.13,4.51-14.06,4.51c-5.93,0-10.06-2.29-14.06-4.51c-4.23-2.35-8.23-4.56-14.74-4.56c-6.51,0-10.51,2.22-14.74,4.56      c-4,2.22-8.13,4.51-14.06,4.51s-10.06-2.29-14.06-4.51c-4.23-2.35-8.23-4.56-14.74-4.56c-6.51,0-10.5,2.22-14.74,4.56      c-4,2.22-8.13,4.51-14.06,4.51c-5.93,0-10.06-2.29-14.06-4.51c-4.23-2.35-8.23-4.56-14.74-4.56c-6.51,0-10.5,2.22-14.74,4.56      c-4,2.22-8.13,4.51-14.06,4.51c-5.93,0-10.06-2.29-14.06-4.51c-4.23-2.35-8.23-4.56-14.74-4.56v-5.17      c7.85,0,12.84,2.77,17.24,5.21c3.73,2.07,6.96,3.86,11.55,3.86c4.59,0,7.82-1.79,11.55-3.86c4.4-2.44,9.4-5.21,17.24-5.21      s12.84,2.77,17.24,5.21c3.73,2.07,6.96,3.86,11.55,3.86c4.59,0,7.82-1.79,11.55-3.86c4.4-2.44,9.4-5.21,17.24-5.21      c7.85,0,12.84,2.77,17.24,5.21c3.73,2.07,6.96,3.86,11.55,3.86s7.82-1.79,11.55-3.86c4.4-2.44,9.4-5.21,17.24-5.21      c7.85,0,12.84,2.77,17.24,5.21c3.73,2.07,6.96,3.86,11.55,3.86c4.59,0,7.82-1.79,11.55-3.86c4.4-2.44,9.4-5.21,17.24-5.21      s12.84,2.77,17.24,5.21c3.73,2.07,6.96,3.86,11.55,3.86c4.59,0,7.82-1.79,11.55-3.86c4.4-2.44,9.4-5.21,17.24-5.21      s12.84,2.77,17.24,5.21c3.73,2.07,6.96,3.86,11.55,3.86c4.59,0,7.82-1.79,11.55-3.86c4.41-2.44,9.4-5.21,17.24-5.21      s12.84,2.77,17.24,5.21c3.73,2.07,6.96,3.86,11.55,3.86c4.59,0,7.82-1.79,11.55-3.86c4.4-2.44,9.4-5.21,17.24-5.21      s12.84,2.77,17.24,5.21c3.73,2.07,6.96,3.86,11.55,3.86c4.59,0,7.82-1.79,11.55-3.86c4.4-2.44,9.4-5.21,17.24-5.21      c7.85,0,12.84,2.77,17.24,5.21c3.73,2.07,6.96,3.86,11.55,3.86c4.59,0,7.82-1.79,11.55-3.86c4.41-2.44,9.4-5.21,17.24-5.21      s12.84,2.77,17.24,5.21c3.73,2.07,6.96,3.86,11.55,3.86c4.59,0,7.82-1.79,11.55-3.86c4.4-2.44,9.4-5.21,17.24-5.21      c7.85,0,12.84,2.77,17.24,5.21c3.73,2.07,6.96,3.86,11.55,3.86V423.86z"/>
			</g>
			<g>
				<path class="st1" d="M1310.44,397.38c-5.93,0-10.06-2.29-14.06-4.51c-4.23-2.35-8.23-4.56-14.74-4.56s-10.51,2.22-14.74,4.56      c-4,2.22-8.13,4.51-14.06,4.51c-5.93,0-10.06-2.29-14.06-4.51c-4.23-2.35-8.23-4.56-14.74-4.56c-6.51,0-10.51,2.22-14.74,4.56      c-4,2.22-8.13,4.51-14.06,4.51c-5.93,0-10.06-2.29-14.06-4.51c-4.23-2.35-8.23-4.56-14.74-4.56s-10.5,2.22-14.74,4.56      c-4,2.22-8.13,4.51-14.06,4.51c-5.93,0-10.06-2.29-14.06-4.51c-4.23-2.35-8.23-4.56-14.74-4.56s-10.51,2.22-14.74,4.56      c-4,2.22-8.13,4.51-14.06,4.51c-5.93,0-10.06-2.29-14.06-4.51c-4.23-2.35-8.23-4.56-14.74-4.56s-10.51,2.22-14.74,4.56      c-4,2.22-8.13,4.51-14.06,4.51c-5.93,0-10.06-2.29-14.06-4.51c-4.23-2.35-8.23-4.56-14.74-4.56c-6.51,0-10.5,2.22-14.74,4.56      c-4,2.22-8.13,4.51-14.06,4.51c-5.93,0-10.06-2.29-14.06-4.51c-4.23-2.35-8.23-4.56-14.74-4.56c-6.51,0-10.51,2.22-14.74,4.56      c-4,2.22-8.13,4.51-14.06,4.51c-5.93,0-10.06-2.29-14.06-4.51c-4.23-2.35-8.23-4.56-14.74-4.56c-6.51,0-10.51,2.22-14.74,4.56      c-4,2.22-8.13,4.51-14.06,4.51s-10.06-2.29-14.06-4.51c-4.23-2.35-8.23-4.56-14.74-4.56c-6.51,0-10.5,2.22-14.74,4.56      c-4,2.22-8.13,4.51-14.06,4.51c-5.93,0-10.06-2.29-14.06-4.51c-4.23-2.35-8.23-4.56-14.74-4.56c-6.51,0-10.5,2.22-14.74,4.56      c-4,2.22-8.13,4.51-14.06,4.51c-5.93,0-10.06-2.29-14.06-4.51c-4.23-2.35-8.23-4.56-14.74-4.56v-5.17      c7.85,0,12.84,2.77,17.24,5.21c3.73,2.07,6.96,3.86,11.55,3.86c4.59,0,7.82-1.79,11.55-3.86c4.4-2.44,9.4-5.21,17.24-5.21      s12.84,2.77,17.24,5.21c3.73,2.07,6.96,3.86,11.55,3.86c4.59,0,7.82-1.79,11.55-3.86c4.4-2.44,9.4-5.21,17.24-5.21      c7.85,0,12.84,2.77,17.24,5.21c3.73,2.07,6.96,3.86,11.55,3.86s7.82-1.79,11.55-3.86c4.4-2.44,9.4-5.21,17.24-5.21      c7.85,0,12.84,2.77,17.24,5.21c3.73,2.07,6.96,3.86,11.55,3.86c4.59,0,7.82-1.79,11.55-3.86c4.4-2.44,9.4-5.21,17.24-5.21      s12.84,2.77,17.24,5.21c3.73,2.07,6.96,3.86,11.55,3.86c4.59,0,7.82-1.79,11.55-3.86c4.4-2.44,9.4-5.21,17.24-5.21      s12.84,2.77,17.24,5.21c3.73,2.07,6.96,3.86,11.55,3.86c4.59,0,7.82-1.79,11.55-3.86c4.41-2.44,9.4-5.21,17.24-5.21      s12.84,2.77,17.24,5.21c3.73,2.07,6.96,3.86,11.55,3.86c4.59,0,7.82-1.79,11.55-3.86c4.4-2.44,9.4-5.21,17.24-5.21      s12.84,2.77,17.24,5.21c3.73,2.07,6.96,3.86,11.55,3.86c4.59,0,7.82-1.79,11.55-3.86c4.4-2.44,9.4-5.21,17.24-5.21      c7.85,0,12.84,2.77,17.24,5.21c3.73,2.07,6.96,3.86,11.55,3.86c4.59,0,7.82-1.79,11.55-3.86c4.41-2.44,9.4-5.21,17.24-5.21      s12.84,2.77,17.24,5.21c3.73,2.07,6.96,3.86,11.55,3.86c4.59,0,7.82-1.79,11.55-3.86c4.4-2.44,9.4-5.21,17.24-5.21      c7.85,0,12.84,2.77,17.24,5.21c3.73,2.07,6.96,3.86,11.55,3.86V397.38z"/>
			</g>
			<g>
				<path class="st1" d="M1310.44,370.89c-5.93,0-10.06-2.29-14.06-4.51c-4.23-2.35-8.23-4.56-14.74-4.56s-10.51,2.22-14.74,4.56      c-4,2.22-8.13,4.51-14.06,4.51c-5.93,0-10.06-2.29-14.06-4.51c-4.23-2.35-8.23-4.56-14.74-4.56c-6.51,0-10.51,2.22-14.74,4.56      c-4,2.22-8.13,4.51-14.06,4.51c-5.93,0-10.06-2.29-14.06-4.51c-4.23-2.35-8.23-4.56-14.74-4.56s-10.5,2.22-14.74,4.56      c-4,2.22-8.13,4.51-14.06,4.51c-5.93,0-10.06-2.29-14.06-4.51c-4.23-2.35-8.23-4.56-14.74-4.56s-10.51,2.22-14.74,4.56      c-4,2.22-8.13,4.51-14.06,4.51c-5.93,0-10.06-2.29-14.06-4.51c-4.23-2.35-8.23-4.56-14.74-4.56s-10.51,2.22-14.74,4.56      c-4,2.22-8.13,4.51-14.06,4.51c-5.93,0-10.06-2.29-14.06-4.51c-4.23-2.35-8.23-4.56-14.74-4.56c-6.51,0-10.5,2.22-14.74,4.56      c-4,2.22-8.13,4.51-14.06,4.51c-5.93,0-10.06-2.29-14.06-4.51c-4.23-2.35-8.23-4.56-14.74-4.56c-6.51,0-10.51,2.22-14.74,4.56      c-4,2.22-8.13,4.51-14.06,4.51c-5.93,0-10.06-2.29-14.06-4.51c-4.23-2.35-8.23-4.56-14.74-4.56c-6.51,0-10.51,2.22-14.74,4.56      c-4,2.22-8.13,4.51-14.06,4.51s-10.06-2.29-14.06-4.51c-4.23-2.35-8.23-4.56-14.74-4.56c-6.51,0-10.5,2.22-14.74,4.56      c-4,2.22-8.13,4.51-14.06,4.51c-5.93,0-10.06-2.29-14.06-4.51c-4.23-2.35-8.23-4.56-14.74-4.56c-6.51,0-10.5,2.22-14.74,4.56      c-4,2.22-8.13,4.51-14.06,4.51c-5.93,0-10.06-2.29-14.06-4.51c-4.23-2.35-8.23-4.56-14.74-4.56v-5.17      c7.85,0,12.84,2.77,17.24,5.21c3.73,2.07,6.96,3.86,11.55,3.86c4.59,0,7.82-1.79,11.55-3.86c4.4-2.44,9.4-5.21,17.24-5.21      s12.84,2.77,17.24,5.21c3.73,2.07,6.96,3.86,11.55,3.86c4.59,0,7.82-1.79,11.55-3.86c4.4-2.44,9.4-5.21,17.24-5.21      c7.85,0,12.84,2.77,17.24,5.21c3.73,2.07,6.96,3.86,11.55,3.86s7.82-1.79,11.55-3.86c4.4-2.44,9.4-5.21,17.24-5.21      c7.85,0,12.84,2.77,17.24,5.21c3.73,2.07,6.96,3.86,11.55,3.86c4.59,0,7.82-1.79,11.55-3.86c4.4-2.44,9.4-5.21,17.24-5.21      s12.84,2.77,17.24,5.21c3.73,2.07,6.96,3.86,11.55,3.86c4.59,0,7.82-1.79,11.55-3.86c4.4-2.44,9.4-5.21,17.24-5.21      s12.84,2.77,17.24,5.21c3.73,2.07,6.96,3.86,11.55,3.86c4.59,0,7.82-1.79,11.55-3.86c4.41-2.44,9.4-5.21,17.24-5.21      s12.84,2.77,17.24,5.21c3.73,2.07,6.96,3.86,11.55,3.86c4.59,0,7.82-1.79,11.55-3.86c4.4-2.44,9.4-5.21,17.24-5.21      s12.84,2.77,17.24,5.21c3.73,2.07,6.96,3.86,11.55,3.86c4.59,0,7.82-1.79,11.55-3.86c4.4-2.44,9.4-5.21,17.24-5.21      c7.85,0,12.84,2.77,17.24,5.21c3.73,2.07,6.96,3.86,11.55,3.86c4.59,0,7.82-1.79,11.55-3.86c4.41-2.44,9.4-5.21,17.24-5.21      s12.84,2.77,17.24,5.21c3.73,2.07,6.96,3.86,11.55,3.86c4.59,0,7.82-1.79,11.55-3.86c4.4-2.44,9.4-5.21,17.24-5.21      c7.85,0,12.84,2.77,17.24,5.21c3.73,2.07,6.96,3.86,11.55,3.86V370.89z"/>
			</g>
			<g>
				<path class="st1" d="M1310.44,344.41c-5.93,0-10.06-2.29-14.06-4.51c-4.23-2.35-8.23-4.56-14.74-4.56s-10.51,2.22-14.74,4.56      c-4,2.22-8.13,4.51-14.06,4.51c-5.93,0-10.06-2.29-14.06-4.51c-4.23-2.35-8.23-4.56-14.74-4.56c-6.51,0-10.51,2.22-14.74,4.56      c-4,2.22-8.13,4.51-14.06,4.51c-5.93,0-10.06-2.29-14.06-4.51c-4.23-2.35-8.23-4.56-14.74-4.56s-10.5,2.22-14.74,4.56      c-4,2.22-8.13,4.51-14.06,4.51c-5.93,0-10.06-2.29-14.06-4.51c-4.23-2.35-8.23-4.56-14.74-4.56s-10.51,2.22-14.74,4.56      c-4,2.22-8.13,4.51-14.06,4.51c-5.93,0-10.06-2.29-14.06-4.51c-4.23-2.35-8.23-4.56-14.74-4.56s-10.51,2.22-14.74,4.56      c-4,2.22-8.13,4.51-14.06,4.51s-10.06-2.29-14.06-4.51c-4.23-2.35-8.23-4.56-14.74-4.56c-6.51,0-10.5,2.22-14.74,4.56      c-4,2.22-8.13,4.51-14.06,4.51c-5.93,0-10.06-2.29-14.06-4.51c-4.23-2.35-8.23-4.56-14.74-4.56c-6.51,0-10.51,2.22-14.74,4.56      c-4,2.22-8.13,4.51-14.06,4.51c-5.93,0-10.06-2.29-14.06-4.51c-4.23-2.35-8.23-4.56-14.74-4.56c-6.51,0-10.51,2.22-14.74,4.56      c-4,2.22-8.13,4.51-14.06,4.51s-10.06-2.29-14.06-4.51c-4.23-2.35-8.23-4.56-14.74-4.56c-6.51,0-10.5,2.22-14.74,4.56      c-4,2.22-8.13,4.51-14.06,4.51c-5.93,0-10.06-2.29-14.06-4.51c-4.23-2.35-8.23-4.56-14.74-4.56c-6.51,0-10.5,2.22-14.74,4.56      c-4,2.22-8.13,4.51-14.06,4.51v-5.17c4.59,0,7.82-1.79,11.55-3.86c4.4-2.44,9.4-5.21,17.24-5.21c7.85,0,12.84,2.77,17.24,5.21      c3.73,2.07,6.96,3.86,11.55,3.86c4.59,0,7.82-1.79,11.55-3.86c4.4-2.44,9.4-5.21,17.24-5.21c7.85,0,12.84,2.77,17.24,5.21      c3.73,2.07,6.96,3.86,11.55,3.86s7.82-1.79,11.55-3.86c4.4-2.44,9.4-5.21,17.24-5.21c7.85,0,12.84,2.77,17.24,5.21      c3.73,2.07,6.96,3.86,11.55,3.86c4.59,0,7.82-1.79,11.55-3.86c4.4-2.44,9.4-5.21,17.24-5.21s12.84,2.77,17.24,5.21      c3.73,2.07,6.96,3.86,11.55,3.86c4.59,0,7.82-1.79,11.55-3.86c4.4-2.44,9.4-5.21,17.24-5.21c7.85,0,12.84,2.77,17.24,5.21      c3.73,2.07,6.96,3.86,11.55,3.86c4.59,0,7.82-1.79,11.55-3.86c4.4-2.44,9.4-5.21,17.24-5.21s12.84,2.77,17.24,5.21      c3.73,2.07,6.96,3.86,11.55,3.86c4.59,0,7.82-1.79,11.55-3.86c4.4-2.44,9.4-5.21,17.24-5.21c7.85,0,12.84,2.77,17.24,5.21      c3.73,2.07,6.96,3.86,11.55,3.86c4.59,0,7.82-1.79,11.55-3.86c4.4-2.44,9.4-5.21,17.24-5.21c7.85,0,12.84,2.77,17.24,5.21      c3.73,2.07,6.96,3.86,11.55,3.86c4.59,0,7.82-1.79,11.55-3.86c4.41-2.44,9.4-5.21,17.24-5.21s12.84,2.77,17.24,5.21      c3.73,2.07,6.96,3.86,11.55,3.86c4.59,0,7.82-1.79,11.55-3.86c4.4-2.44,9.4-5.21,17.24-5.21c7.85,0,12.84,2.77,17.24,5.21      c3.73,2.07,6.96,3.86,11.55,3.86V344.41z"/>
			</g>
			<g>
				<path class="st1" d="M1310.44,317.93c-5.93,0-10.06-2.29-14.06-4.51c-4.23-2.35-8.23-4.56-14.74-4.56s-10.51,2.22-14.74,4.56      c-4,2.22-8.13,4.51-14.06,4.51c-5.93,0-10.06-2.29-14.06-4.51c-4.23-2.35-8.23-4.56-14.74-4.56c-6.51,0-10.51,2.22-14.74,4.56      c-4,2.22-8.13,4.51-14.06,4.51c-5.93,0-10.06-2.29-14.06-4.51c-4.23-2.35-8.23-4.56-14.74-4.56s-10.5,2.22-14.74,4.56      c-4,2.22-8.13,4.51-14.06,4.51c-5.93,0-10.06-2.29-14.06-4.51c-4.23-2.35-8.23-4.56-14.74-4.56s-10.51,2.22-14.74,4.56      c-4,2.22-8.13,4.51-14.06,4.51c-5.93,0-10.06-2.29-14.06-4.51c-4.23-2.35-8.23-4.56-14.74-4.56s-10.51,2.22-14.74,4.56      c-4,2.22-8.13,4.51-14.06,4.51s-10.06-2.29-14.06-4.51c-4.23-2.35-8.23-4.56-14.74-4.56c-6.51,0-10.5,2.22-14.74,4.56      c-4,2.22-8.13,4.51-14.06,4.51c-5.93,0-10.06-2.29-14.06-4.51c-4.23-2.35-8.23-4.56-14.74-4.56c-6.51,0-10.51,2.22-14.74,4.56      c-4,2.22-8.13,4.51-14.06,4.51c-5.93,0-10.06-2.29-14.06-4.51c-4.23-2.35-8.23-4.56-14.74-4.56c-6.51,0-10.51,2.22-14.74,4.56      c-4,2.22-8.13,4.51-14.06,4.51s-10.06-2.29-14.06-4.51c-4.23-2.35-8.23-4.56-14.74-4.56c-6.51,0-10.5,2.22-14.74,4.56      c-4,2.22-8.13,4.51-14.06,4.51c-5.93,0-10.06-2.29-14.06-4.51c-4.23-2.35-8.23-4.56-14.74-4.56c-6.51,0-10.5,2.22-14.74,4.56      c-4,2.22-8.13,4.51-14.06,4.51v-5.17c4.59,0,7.82-1.79,11.55-3.86c4.4-2.44,9.4-5.21,17.24-5.21c7.85,0,12.84,2.77,17.24,5.21      c3.73,2.07,6.96,3.86,11.55,3.86c4.59,0,7.82-1.79,11.55-3.86c4.4-2.44,9.4-5.21,17.24-5.21c7.85,0,12.84,2.77,17.24,5.21      c3.73,2.07,6.96,3.86,11.55,3.86s7.82-1.79,11.55-3.86c4.4-2.44,9.4-5.21,17.24-5.21c7.85,0,12.84,2.77,17.24,5.21      c3.73,2.07,6.96,3.86,11.55,3.86c4.59,0,7.82-1.79,11.55-3.86c4.4-2.44,9.4-5.21,17.24-5.21s12.84,2.77,17.24,5.21      c3.73,2.07,6.96,3.86,11.55,3.86c4.59,0,7.82-1.79,11.55-3.86c4.4-2.44,9.4-5.21,17.24-5.21c7.85,0,12.84,2.77,17.24,5.21      c3.73,2.07,6.96,3.86,11.55,3.86c4.59,0,7.82-1.79,11.55-3.86c4.4-2.44,9.4-5.21,17.24-5.21s12.84,2.77,17.24,5.21      c3.73,2.07,6.96,3.86,11.55,3.86c4.59,0,7.82-1.79,11.55-3.86c4.4-2.44,9.4-5.21,17.24-5.21c7.85,0,12.84,2.77,17.24,5.21      c3.73,2.07,6.96,3.86,11.55,3.86c4.59,0,7.82-1.79,11.55-3.86c4.4-2.44,9.4-5.21,17.24-5.21c7.85,0,12.84,2.77,17.24,5.21      c3.73,2.07,6.96,3.86,11.55,3.86c4.59,0,7.82-1.79,11.55-3.86c4.41-2.44,9.4-5.21,17.24-5.21s12.84,2.77,17.24,5.21      c3.73,2.07,6.96,3.86,11.55,3.86c4.59,0,7.82-1.79,11.55-3.86c4.4-2.44,9.4-5.21,17.24-5.21c7.85,0,12.84,2.77,17.24,5.21      c3.73,2.07,6.96,3.86,11.55,3.86V317.93z"/>
			</g>
			<g>
				<path class="st1" d="M1310.44,291.45c-5.93,0-10.06-2.29-14.06-4.51c-4.23-2.35-8.23-4.56-14.74-4.56s-10.51,2.22-14.74,4.56      c-4,2.22-8.13,4.51-14.06,4.51c-5.93,0-10.06-2.29-14.06-4.51c-4.23-2.35-8.23-4.56-14.74-4.56c-6.51,0-10.51,2.22-14.74,4.56      c-4,2.22-8.13,4.51-14.06,4.51c-5.93,0-10.06-2.29-14.06-4.51c-4.23-2.35-8.23-4.56-14.74-4.56s-10.5,2.22-14.74,4.56      c-4,2.22-8.13,4.51-14.06,4.51c-5.93,0-10.06-2.29-14.06-4.51c-4.23-2.35-8.23-4.56-14.74-4.56s-10.51,2.22-14.74,4.56      c-4,2.22-8.13,4.51-14.06,4.51c-5.93,0-10.06-2.29-14.06-4.51c-4.23-2.35-8.23-4.56-14.74-4.56s-10.51,2.22-14.74,4.56      c-4,2.22-8.13,4.51-14.06,4.51s-10.06-2.29-14.06-4.51c-4.23-2.35-8.23-4.56-14.74-4.56c-6.51,0-10.5,2.22-14.74,4.56      c-4,2.22-8.13,4.51-14.06,4.51c-5.93,0-10.06-2.29-14.06-4.51c-4.23-2.35-8.23-4.56-14.74-4.56c-6.51,0-10.51,2.22-14.74,4.56      c-4,2.22-8.13,4.51-14.06,4.51c-5.93,0-10.06-2.29-14.06-4.51c-4.23-2.35-8.23-4.56-14.74-4.56c-6.51,0-10.51,2.22-14.74,4.56      c-4,2.22-8.13,4.51-14.06,4.51s-10.06-2.29-14.06-4.51c-4.23-2.35-8.23-4.56-14.74-4.56c-6.51,0-10.5,2.22-14.74,4.56      c-4,2.22-8.13,4.51-14.06,4.51c-5.93,0-10.06-2.29-14.06-4.51c-4.23-2.35-8.23-4.56-14.74-4.56c-6.51,0-10.5,2.22-14.74,4.56      c-4,2.22-8.13,4.51-14.06,4.51v-5.17c4.59,0,7.82-1.79,11.55-3.86c4.4-2.44,9.4-5.21,17.24-5.21c7.85,0,12.84,2.77,17.24,5.21      c3.73,2.07,6.96,3.86,11.55,3.86c4.59,0,7.82-1.79,11.55-3.86c4.4-2.44,9.4-5.21,17.24-5.21c7.85,0,12.84,2.77,17.24,5.21      c3.73,2.07,6.96,3.86,11.55,3.86s7.82-1.79,11.55-3.86c4.4-2.44,9.4-5.21,17.24-5.21c7.85,0,12.84,2.77,17.24,5.21      c3.73,2.07,6.96,3.86,11.55,3.86c4.59,0,7.82-1.79,11.55-3.86c4.4-2.44,9.4-5.21,17.24-5.21s12.84,2.77,17.24,5.21      c3.73,2.07,6.96,3.86,11.55,3.86c4.59,0,7.82-1.79,11.55-3.86c4.4-2.44,9.4-5.21,17.24-5.21c7.85,0,12.84,2.77,17.24,5.21      c3.73,2.07,6.96,3.86,11.55,3.86c4.59,0,7.82-1.79,11.55-3.86c4.4-2.44,9.4-5.21,17.24-5.21s12.84,2.77,17.24,5.21      c3.73,2.07,6.96,3.86,11.55,3.86c4.59,0,7.82-1.79,11.55-3.86c4.4-2.44,9.4-5.21,17.24-5.21c7.85,0,12.84,2.77,17.24,5.21      c3.73,2.07,6.96,3.86,11.55,3.86c4.59,0,7.82-1.79,11.55-3.86c4.4-2.44,9.4-5.21,17.24-5.21c7.85,0,12.84,2.77,17.24,5.21      c3.73,2.07,6.96,3.86,11.55,3.86c4.59,0,7.82-1.79,11.55-3.86c4.41-2.44,9.4-5.21,17.24-5.21s12.84,2.77,17.24,5.21      c3.73,2.07,6.96,3.86,11.55,3.86c4.59,0,7.82-1.79,11.55-3.86c4.4-2.44,9.4-5.21,17.24-5.21c7.85,0,12.84,2.77,17.24,5.21      c3.73,2.07,6.96,3.86,11.55,3.86V291.45z"/>
			</g>
			<g>
				<path class="st1" d="M1299.24,264.97c-5.93,0-10.06-2.29-14.06-4.51c-4.23-2.35-8.23-4.56-14.74-4.56      c-6.51,0-10.51,2.22-14.74,4.56c-4,2.22-8.13,4.51-14.06,4.51c-5.93,0-10.06-2.29-14.06-4.51c-4.23-2.35-8.23-4.56-14.74-4.56      s-10.51,2.22-14.74,4.56c-4,2.22-8.13,4.51-14.06,4.51c-5.93,0-10.06-2.29-14.06-4.51c-4.23-2.35-8.23-4.56-14.74-4.56      c-6.51,0-10.5,2.22-14.74,4.56c-4,2.22-8.13,4.51-14.06,4.51c-5.93,0-10.06-2.29-14.06-4.51c-4.23-2.35-8.23-4.56-14.74-4.56      c-6.51,0-10.51,2.22-14.74,4.56c-4,2.22-8.13,4.51-14.06,4.51c-5.93,0-10.06-2.29-14.06-4.51c-4.23-2.35-8.23-4.56-14.74-4.56      s-10.51,2.22-14.74,4.56c-4,2.22-8.13,4.51-14.06,4.51s-10.06-2.29-14.06-4.51c-4.23-2.35-8.23-4.56-14.74-4.56      c-6.51,0-10.5,2.22-14.74,4.56c-4,2.22-8.13,4.51-14.06,4.51s-10.06-2.29-14.06-4.51c-4.23-2.35-8.23-4.56-14.74-4.56      s-10.51,2.22-14.74,4.56c-4,2.22-8.13,4.51-14.06,4.51c-5.93,0-10.06-2.29-14.06-4.51c-4.23-2.35-8.23-4.56-14.74-4.56      c-6.51,0-10.51,2.22-14.74,4.56c-4,2.22-8.13,4.51-14.06,4.51c-5.93,0-10.06-2.29-14.06-4.51c-4.23-2.35-8.23-4.56-14.74-4.56      c-6.51,0-10.5,2.22-14.74,4.56c-4,2.22-8.13,4.51-14.06,4.51c-5.93,0-10.06-2.29-14.06-4.51c-4.23-2.35-8.23-4.56-14.74-4.56      c-6.51,0-10.5,2.22-14.74,4.56c-4,2.22-8.13,4.51-14.06,4.51v-5.17c4.59,0,7.82-1.79,11.55-3.86c4.4-2.44,9.4-5.21,17.24-5.21      c7.85,0,12.84,2.77,17.24,5.21c3.73,2.07,6.96,3.86,11.55,3.86c4.59,0,7.82-1.79,11.55-3.86c4.4-2.44,9.4-5.21,17.24-5.21      c7.85,0,12.84,2.77,17.24,5.21c3.73,2.07,6.96,3.86,11.55,3.86c4.59,0,7.82-1.79,11.55-3.86c4.4-2.44,9.4-5.21,17.24-5.21      c7.85,0,12.84,2.77,17.24,5.21c3.73,2.07,6.96,3.86,11.55,3.86c4.59,0,7.82-1.79,11.55-3.86c4.4-2.44,9.4-5.21,17.24-5.21      s12.84,2.77,17.24,5.21c3.73,2.07,6.96,3.86,11.55,3.86c4.59,0,7.82-1.79,11.55-3.86c4.4-2.44,9.4-5.21,17.24-5.21      c7.85,0,12.84,2.77,17.24,5.21c3.73,2.07,6.96,3.86,11.55,3.86c4.59,0,7.82-1.79,11.55-3.86c4.41-2.44,9.4-5.21,17.24-5.21      s12.84,2.77,17.24,5.21c3.73,2.07,6.96,3.86,11.55,3.86c4.59,0,7.82-1.79,11.55-3.86c4.4-2.44,9.4-5.21,17.24-5.21      c7.85,0,12.84,2.77,17.24,5.21c3.73,2.07,6.96,3.86,11.55,3.86c4.59,0,7.82-1.79,11.55-3.86c4.4-2.44,9.4-5.21,17.24-5.21      c7.85,0,12.84,2.77,17.24,5.21c3.73,2.07,6.96,3.86,11.55,3.86c4.59,0,7.82-1.79,11.55-3.86c4.4-2.44,9.4-5.21,17.24-5.21      s12.84,2.77,17.24,5.21c3.73,2.07,6.96,3.86,11.55,3.86c4.59,0,7.82-1.79,11.55-3.86c4.4-2.44,9.4-5.21,17.24-5.21      s12.84,2.77,17.24,5.21c3.73,2.07,6.96,3.86,11.55,3.86c4.59,0,7.82-1.79,11.55-3.86c4.4-2.44,9.4-5.21,17.24-5.21v5.17      c-6.51,0-10.5,2.22-14.74,4.56C1309.3,262.68,1305.17,264.97,1299.24,264.97z"/>
			</g>
			<g>
				<path class="st1" d="M1310.44,236.76c-5.93,0-10.06-2.29-14.06-4.51c-4.23-2.35-8.23-4.56-14.74-4.56s-10.51,2.22-14.74,4.56      c-4,2.22-8.13,4.51-14.06,4.51c-5.93,0-10.06-2.29-14.06-4.51c-4.23-2.35-8.23-4.56-14.74-4.56c-6.51,0-10.51,2.22-14.74,4.56      c-4,2.22-8.13,4.51-14.06,4.51c-5.93,0-10.06-2.29-14.06-4.51c-4.23-2.35-8.23-4.56-14.74-4.56s-10.5,2.22-14.74,4.56      c-4,2.22-8.13,4.51-14.06,4.51c-5.93,0-10.06-2.29-14.06-4.51c-4.23-2.35-8.23-4.56-14.74-4.56s-10.51,2.22-14.74,4.56      c-4,2.22-8.13,4.51-14.06,4.51c-5.93,0-10.06-2.29-14.06-4.51c-4.23-2.35-8.23-4.56-14.74-4.56s-10.51,2.22-14.74,4.56      c-4,2.22-8.13,4.51-14.06,4.51s-10.06-2.29-14.06-4.51c-4.23-2.35-8.23-4.56-14.74-4.56c-6.51,0-10.5,2.22-14.74,4.56      c-4,2.22-8.13,4.51-14.06,4.51c-5.93,0-10.06-2.29-14.06-4.51c-4.23-2.35-8.23-4.56-14.74-4.56c-6.51,0-10.51,2.22-14.74,4.56      c-4,2.22-8.13,4.51-14.06,4.51c-5.93,0-10.06-2.29-14.06-4.51c-4.23-2.35-8.23-4.56-14.74-4.56c-6.51,0-10.51,2.22-14.74,4.56      c-4,2.22-8.13,4.51-14.06,4.51s-10.06-2.29-14.06-4.51c-4.23-2.35-8.23-4.56-14.74-4.56c-6.51,0-10.5,2.22-14.74,4.56      c-4,2.22-8.13,4.51-14.06,4.51c-5.93,0-10.06-2.29-14.06-4.51c-4.23-2.35-8.23-4.56-14.74-4.56c-6.51,0-10.5,2.22-14.74,4.56      c-4,2.22-8.13,4.51-14.06,4.51v-5.17c4.59,0,7.82-1.79,11.55-3.86c4.4-2.44,9.4-5.21,17.24-5.21c7.85,0,12.84,2.77,17.24,5.21      c3.73,2.07,6.96,3.86,11.55,3.86c4.59,0,7.82-1.79,11.55-3.86c4.4-2.44,9.4-5.21,17.24-5.21c7.85,0,12.84,2.77,17.24,5.21      c3.73,2.07,6.96,3.86,11.55,3.86s7.82-1.79,11.55-3.86c4.4-2.44,9.4-5.21,17.24-5.21c7.85,0,12.84,2.77,17.24,5.21      c3.73,2.07,6.96,3.86,11.55,3.86c4.59,0,7.82-1.79,11.55-3.86c4.4-2.44,9.4-5.21,17.24-5.21s12.84,2.77,17.24,5.21      c3.73,2.07,6.96,3.86,11.55,3.86c4.59,0,7.82-1.79,11.55-3.86c4.4-2.44,9.4-5.21,17.24-5.21c7.85,0,12.84,2.77,17.24,5.21      c3.73,2.07,6.96,3.86,11.55,3.86c4.59,0,7.82-1.79,11.55-3.86c4.4-2.44,9.4-5.21,17.24-5.21s12.84,2.77,17.24,5.21      c3.73,2.07,6.96,3.86,11.55,3.86c4.59,0,7.82-1.79,11.55-3.86c4.4-2.44,9.4-5.21,17.24-5.21c7.85,0,12.84,2.77,17.24,5.21      c3.73,2.07,6.96,3.86,11.55,3.86c4.59,0,7.82-1.79,11.55-3.86c4.4-2.44,9.4-5.21,17.24-5.21c7.85,0,12.84,2.77,17.24,5.21      c3.73,2.07,6.96,3.86,11.55,3.86c4.59,0,7.82-1.79,11.55-3.86c4.41-2.44,9.4-5.21,17.24-5.21s12.84,2.77,17.24,5.21      c3.73,2.07,6.96,3.86,11.55,3.86c4.59,0,7.82-1.79,11.55-3.86c4.4-2.44,9.4-5.21,17.24-5.21c7.85,0,12.84,2.77,17.24,5.21      c3.73,2.07,6.96,3.86,11.55,3.86V236.76z"/>
			</g>
			<g>
				<path class="st1" d="M1310.44,210.28c-5.93,0-10.06-2.29-14.06-4.51c-4.23-2.35-8.23-4.56-14.74-4.56s-10.51,2.22-14.74,4.56      c-4,2.22-8.13,4.51-14.06,4.51c-5.93,0-10.06-2.29-14.06-4.51c-4.23-2.35-8.23-4.56-14.74-4.56c-6.51,0-10.51,2.22-14.74,4.56      c-4,2.22-8.13,4.51-14.06,4.51c-5.93,0-10.06-2.29-14.06-4.51c-4.23-2.35-8.23-4.56-14.74-4.56s-10.5,2.22-14.74,4.56      c-4,2.22-8.13,4.51-14.06,4.51c-5.93,0-10.06-2.29-14.06-4.51c-4.23-2.35-8.23-4.56-14.74-4.56s-10.51,2.22-14.74,4.56      c-4,2.22-8.13,4.51-14.06,4.51c-5.93,0-10.06-2.29-14.06-4.51c-4.23-2.35-8.23-4.56-14.74-4.56s-10.51,2.22-14.74,4.56      c-4,2.22-8.13,4.51-14.06,4.51s-10.06-2.29-14.06-4.51c-4.23-2.35-8.23-4.56-14.74-4.56c-6.51,0-10.5,2.22-14.74,4.56      c-4,2.22-8.13,4.51-14.06,4.51c-5.93,0-10.06-2.29-14.06-4.51c-4.23-2.35-8.23-4.56-14.74-4.56c-6.51,0-10.51,2.22-14.74,4.56      c-4,2.22-8.13,4.51-14.06,4.51s-10.06-2.29-14.06-4.51c-4.23-2.35-8.23-4.56-14.74-4.56c-6.51,0-10.51,2.22-14.74,4.56      c-4,2.22-8.13,4.51-14.06,4.51c-5.93,0-10.06-2.29-14.06-4.51c-4.23-2.35-8.23-4.56-14.74-4.56c-6.51,0-10.5,2.22-14.74,4.56      c-4,2.22-8.13,4.51-14.06,4.51c-5.93,0-10.06-2.29-14.06-4.51c-4.23-2.35-8.23-4.56-14.74-4.56c-6.51,0-10.5,2.22-14.74,4.56      c-4,2.22-8.13,4.51-14.06,4.51v-5.17c4.59,0,7.82-1.79,11.55-3.86c4.4-2.44,9.4-5.21,17.24-5.21c7.85,0,12.84,2.77,17.24,5.21      c3.73,2.07,6.96,3.86,11.55,3.86c4.59,0,7.82-1.79,11.55-3.86c4.4-2.44,9.4-5.21,17.24-5.21c7.85,0,12.84,2.77,17.24,5.21      c3.73,2.07,6.96,3.86,11.55,3.86s7.82-1.79,11.55-3.86c4.4-2.44,9.4-5.21,17.24-5.21c7.85,0,12.84,2.77,17.24,5.21      c3.73,2.07,6.96,3.86,11.55,3.86c4.59,0,7.82-1.79,11.55-3.86c4.4-2.44,9.4-5.21,17.24-5.21c7.85,0,12.84,2.77,17.24,5.21      c3.73,2.07,6.96,3.86,11.55,3.86c4.59,0,7.82-1.79,11.55-3.86c4.4-2.44,9.4-5.21,17.24-5.21c7.85,0,12.84,2.77,17.24,5.21      c3.73,2.07,6.96,3.86,11.55,3.86c4.59,0,7.82-1.79,11.55-3.86c4.4-2.44,9.4-5.21,17.24-5.21c7.85,0,12.84,2.77,17.24,5.21      c3.73,2.07,6.96,3.86,11.55,3.86c4.59,0,7.82-1.79,11.55-3.86c4.4-2.44,9.4-5.21,17.24-5.21c7.85,0,12.84,2.77,17.24,5.21      c3.73,2.07,6.96,3.86,11.55,3.86c4.59,0,7.82-1.79,11.55-3.86c4.4-2.44,9.4-5.21,17.24-5.21c7.85,0,12.84,2.77,17.24,5.21      c3.73,2.07,6.96,3.86,11.55,3.86c4.59,0,7.82-1.79,11.55-3.86c4.41-2.44,9.4-5.21,17.24-5.21s12.84,2.77,17.24,5.21      c3.73,2.07,6.96,3.86,11.55,3.86c4.59,0,7.82-1.79,11.55-3.86c4.4-2.44,9.4-5.21,17.24-5.21c7.85,0,12.84,2.77,17.24,5.21      c3.73,2.07,6.96,3.86,11.55,3.86V210.28z"/>
			</g>
		</g>
	</g>
	<g>
		<polygon class="st0" points="858.29,343.27 852.44,354.71 774.4,354.71 633.34,620.06 619.61,620.06 767.54,343.27   "/>
		<path class="st0" d="M829.24,226.61h335.5c94.55,0,135.78,44.22,135.78,96.07c0-45.75-48.09-84.64-135.78-84.64H852.8    L829.24,226.61z"/>
		<path class="st0" d="M1065.62,440.87c57.95,0,137.25-40.41,137.25-97.6c0,65.57-55.66,109.04-148.69,109.04H845.26    c-14.49,0-24.02-6.86-24.02-25.92l0.01-5.34c0,10.67,8,19.82,20.96,19.82H1065.62z"/>
		<path class="st4" d="M1207.5,541.52c0-35.08-12.26-53.38-29.03-67.1v16.01C1189.14,501.11,1201.4,516.36,1207.5,541.52z"/>
		<path class="st0" d="M911.98,649.04v2.29c0,24.4,12.58,31.26,31.64,31.26h19.82c70.91,0,144.11-50.32,144.11-118.19    c0,55.66-77.78,106.75-144.11,106.75h-22.88C919.98,671.15,912.74,659.71,911.98,649.04z"/>
		<path class="st0" d="M917.69,633.02c-3.05,3.05-5.25,8.13-5.68,13.57L634.04,750.45h-32.79L917.69,633.02z"/>
	</g>
</g>
</svg>