<?xml version="1.0" encoding="UTF-8"?>
<svg id="Layer_2" data-name="Layer 2" xmlns="http://www.w3.org/2000/svg" viewBox="0 0 1010.3 787.78">
  <defs>
    <style>
      .cls-1 {
        fill: #230f62;
      }

      .cls-1, .cls-2, .cls-3 {
        stroke-width: 0px;
      }

      .cls-2 {
        fill: #9e7dc5;
      }

      .cls-3 {
        fill: #fff;
      }
    </style>
  </defs>
  <g id="Layer_1-2" data-name="Layer 1">
    <g>
      <g>
        <polygon class="cls-1" points="365.96 106.29 255.92 0 1010.3 0 737.4 265.39 728.8 196.5 513.9 404.46 503.75 329 489.88 329 211.44 630.43 229.59 541.01 0 787.78 365.96 106.29"/>
        <polygon class="cls-3" points="383.52 103.55 291 14.17 975.4 14.17 747.94 235.37 740.27 173.98 731.68 173.98 524.21 374.76 516.14 314.83 483.68 314.83 235.41 583.6 253.5 494.51 64.47 697.67 383.52 103.55"/>
      </g>
      <g>
        <path class="cls-2" d="m405.82,100.06l-259.47,483.18,154.46-221.94-16.96,74.15h0l-18,88.66,204.35-287.45h125.52l111.06-63.64h-133.3l-69,18.53,69.56-91.49h250.88l106.13-67.89h0s-595.53,0-595.53,0l147.56,67.89h-77.28Z"/>
        <polygon class="cls-2" points="786.3 130.28 756.16 155.98 761.32 197.25 786.3 130.28"/>
        <polygon class="cls-2" points="531.88 296.83 537.3 337.05 537.3 337.05 561.38 272.8 531.88 296.83"/>
      </g>
      <g>
        <polygon class="cls-1" points="470.2 236.66 265.85 524.11 475.8 296.83 531.88 296.83 561.38 272.8 537.3 337.05 609.8 266.89 706.79 173.02 595.73 236.66 470.2 236.66"/>
        <polygon class="cls-1" points="931.07 32.17 824.94 100.06 574.06 100.06 504.5 191.55 573.49 173.02 590.26 155.98 756.16 155.98 786.3 130.28 761.32 197.25 931.07 32.17"/>
        <polygon class="cls-1" points="483.1 100.06 335.54 32.17 405.82 100.06 483.1 100.06"/>
        <polygon class="cls-1" points="300.82 361.3 146.35 583.24 283.85 435.45 300.82 361.3"/>
      </g>
    </g>
  </g>
</svg>