<?xml version="1.0" encoding="UTF-8"?>
<svg id="Layer_2" data-name="Layer 2" xmlns="http://www.w3.org/2000/svg" viewBox="0 0 711.03 706.5">
  <defs>
    <style>
      .cls-1 {
        fill: #fff;
      }

      .cls-1, .cls-2, .cls-3, .cls-4 {
        stroke-width: 0px;
      }

      .cls-2 {
        fill: #eb8b04;
      }

      .cls-3 {
        fill: #00b9b3;
      }

      .cls-4 {
        fill: #011e42;
      }
    </style>
  </defs>
  <g id="Layer_1-2" data-name="Layer 1">
    <g>
      <g>
        <path class="cls-2" d="m578.04,489.66c3,0,5.97-.3,8.88-.89v50.04l-231.29,167.68-231.53-166.99v-49.65c2.47.32,5.02.5,7.65.5,0,0,5.6-.32,6.52-.46v42.36l217.33,156.75,217.14-157.42v-42.18s3.32.25,5.29.25Z"/>
        <path class="cls-2" d="m574.91,243.81c4.21,0,8.22.43,12.01,1.26v-77.92L355.53,0,124.11,167.14v78.09c3.95-.93,8.08-1.42,12.34-1.42"/>
      </g>
      <path class="cls-4" d="m685.29,354.57l-.63-.77-.55-.51,26.14,2.9v-44.75c0-35.54-15.44-59.57-42.36-65.94l-16.96-4.01.05,17.03c-6.46-6.34-14.5-10.77-23.96-13.01l-16.96-4.01.05,16.04c-8.96-8.87-20.91-13.72-35.2-13.72-.73,0-1.44.04-2.16.07v-69.49L355.53,17.48l-217.25,156.91v69.47c-.61-.02-1.21-.05-1.83-.05-14.69,0-27.76,5.66-37.64,16.1v-19.03l-18.18,6.2c-8.4,2.87-15.68,7.58-21.68,13.81v-20.01l-18.18,6.2C15.24,255.79,0,281.42,0,315.64c0,28.95,7.15,49.2,24.83,68.14l-24.83,5.52v40.42c0,32,15.92,54.21,42.58,59.41l16.37,3.19v-14.3c6.42,5.52,14.32,9.32,23.49,11.11l16.37,3.19v-13.54c8.61,7.45,19.81,11.57,32.95,11.57,2.19,0,4.37-.17,6.53-.46,0,0,0,0-.01,0v42.36l217.33,156.75,217.14-157.42v-42.17s0,0,0,0c1.74.15,3.51.25,5.3.25,11.82,0,23.28-4.67,32.17-12.96v15.21l16.56-3.47c9.32-1.96,17.57-6.19,24.3-12.38v15.85l16.56-3.48c12.87-2.7,23.7-9.71,31.32-20.28,8.01-11.11,12.07-25.45,12.07-42.64,0-30.09-6.01-46.67-25.74-70.96Zm-115.75-110.46s.03,0,.05,0c-.02,0-.03,0-.05,0Zm-428.23-.07s-.01,0-.02,0c0,0,.01,0,.02,0Z"/>
      <g>
        <path class="cls-3" d="m488.16,354.84l-25.01-88.19h-29.7v155.38c10.94.7,19.54,1.4,29.7,2.8v-73.49l25.01,76.99c10.16,2.1,19.54,4.2,29.7,5.6v-167.28h-29.7v88.19Z"/>
        <path class="cls-3" d="m372.49,355.54c12.51.7,24.23.7,36.73,1.4-.78-11.2-.78-21.7-.78-32.9h-35.95v-25.2c14.85.7,28.92.7,44.55.7v-32.9h-73.47v151.18c25.01-.7,49.24.7,74.25,2.8v-32.9c-15.63-1.4-29.7-1.4-45.33-2.1v-30.1Z"/>
        <path class="cls-3" d="m136.45,257.55c-28.14,0-42.99,26.6-42.99,58.09s9.38,49.69,28.92,68.59l10.16,10.5c10.94,11.2,13.29,21,13.29,33.6,0,10.5-3.91,16.8-11.72,16.8s-11.72-7.7-11.72-21v-30.8l-28.92,7v29.4c0,23.8,10.16,46.89,38.3,46.89,23.45,0,43.77-23.1,43.77-53.89,0-28-6.25-44.79-21.88-60.19l-12.51-12.6c-12.51-11.9-16.41-21.7-16.41-37.09,0-21,7.03-23.8,10.94-23.8,8.6,0,10.16,8.4,10.16,23.1v28.7l29.7-4.2v-25.9c0-30.1-12.51-53.19-39.08-53.19Z"/>
        <polygon class="cls-3" points="193.5 433.93 222.42 428.33 222.42 266.65 193.5 266.65 193.5 433.93"/>
        <path class="cls-3" d="m327.94,306.54c0-23.1-15.63-39.89-38.3-39.89h-44.55v158.88l28.92-3.5v-62.29h7.82c9.38,0,13.29,2.8,13.29,13.3v47.59l28.92-2.1v-48.29c0-14-3.91-23.8-13.29-30.1,10.16-5.6,17.19-14.7,17.19-33.6Zm-42.21,22.4h-11.72v-30.8h11.72c9.38,0,13.29,5.6,13.29,14.7,0,9.8-4.69,16.1-13.29,16.1Z"/>
        <path class="cls-3" d="m578.82,345.74c-9.38-11.9-14.85-21.7-14.85-33.6,0-21.7,6.25-23.1,10.16-23.1,8.6,0,11.72,10.5,11.72,23.8v24.5l28.92,3.5v-29.4c0-25.9-9.38-53.89-39.86-53.89-24.23,0-41.42,23.1-41.42,54.59,0,22.4,7.03,40.59,21.88,58.79l19.54,25.2c9.38,11.9,10.94,21,10.94,30.8,0,9.1-1.56,17.5-10.16,17.5-9.38,0-13.29-7-13.29-25.2v-25.2l-28.92-4.9v29.4c0,36.4,17.98,57.39,44.55,57.39,17.98,0,37.52-15.4,37.52-50.39,0-25.2-3.91-39.19-22.67-62.29l-14.07-17.5Z"/>
        <path class="cls-3" d="m623.95,354.21v120.78c18.03-3.78,32.47-19.37,32.47-49.46,0-25.2-3.91-39.19-22.67-62.29l-9.81-9.03Z"/>
        <path class="cls-3" d="m655.64,340.84v-29.4c0-22.57-7.13-46.74-31.78-52.57l.23,78.47,31.55,3.5Z"/>
        <path class="cls-3" d="m696.51,340.84v-29.4c0-22.57-7.13-46.74-31.78-52.57l.23,78.47,31.55,3.5Z"/>
        <path class="cls-3" d="m674.62,363.23l-9.81-9.03v120.78c18.03-3.78,32.47-19.37,32.47-49.46,0-25.2-3.91-39.19-22.67-62.29Z"/>
        <path class="cls-3" d="m53.6,315.64c0,31.5,9.38,49.69,31.47,68.59v-124.15c-21.54,7.35-31.47,29.81-31.47,55.56Z"/>
        <path class="cls-3" d="m53.6,429.73c0,20.93,7.87,41.32,31.47,45.92v-82.32l-31.47,7v29.4Z"/>
        <path class="cls-3" d="m13.74,315.64c0,31.5,9.38,49.69,31.47,68.59v-124.15c-21.54,7.35-31.47,29.81-31.47,55.56Z"/>
        <path class="cls-3" d="m13.74,429.73c0,20.93,7.87,41.32,31.47,45.92v-82.32l-31.47,7v29.4Z"/>
      </g>
      <g>
        <path class="cls-1" d="m177.34,265.16c.86,1.27,1.66,2.59,2.43,3.95v-16.21h109.88c16.71,0,30.87,6.94,40.19,18.4v-18.4h20.12V39.19l-97.72,71.89v129.79h-7.74l-17.21-113.15-74.83,53.92v64.62c10.09,3.26,18.66,9.68,24.88,18.89Z"/>
        <path class="cls-1" d="m531.6,252.91v15.42c6.73-10.41,16-18.02,26.98-21.81v-64.87l-74.8-53.92-16.83,113.15h-7.74V111.08l-98.05-71.89v213.72h170.43Z"/>
        <path class="cls-1" d="m535.06,469.44c-4.69-5.88-8.33-12.88-10.89-20.77-59.18-12.59-114.69-17.17-163-17.53v67.31l98.71-28.01v7.34l-98.71,48.99v140.71l197.41-143.12v-38.02c-9.2-3.31-17.25-9.03-23.52-16.89Z"/>
        <path class="cls-1" d="m184.59,449.65c-2.74,7.5-6.63,14.41-11.59,20.36-5.81,6.98-12.86,12.33-20.54,15.8v39.22l71.76,51.92v-103.65l7.74.04,16.18,120.92,101.81,73.22v-236.35c-99.23.58-165.35,18.52-165.35,18.52Z"/>
      </g>
    </g>
  </g>
</svg>