<?xml version="1.0" encoding="UTF-8"?>
<svg id="Layer_2" data-name="Layer 2" xmlns="http://www.w3.org/2000/svg" viewBox="0 0 388.02 796.93">
  <defs>
    <style>
      .cls-1 {
        fill: #0c1d38;
      }

      .cls-1, .cls-2, .cls-3 {
        stroke-width: 0px;
      }

      .cls-2 {
        fill: #ffb81c;
      }

      .cls-3 {
        fill: #fdd006;
      }
    </style>
  </defs>
  <g id="Layer_1-2" data-name="Layer 1">
    <g>
      <g>
        <polygon class="cls-3" points="368.39 255.77 11.69 255.77 37.91 281.96 342.16 281.96 368.39 255.77"/>
        <rect class="cls-3" x="370.81" y="255.77" width="0" height="0"/>
      </g>
      <path class="cls-1" d="m243.68,126.03c-6.24-7.17-13.97-13.04-22.51-17.21.62-.17,1.27-.26,1.95-.26h26.08L192,0l-58.37,108.56h26.33c.51,0,.99.05,1.46.16-23.44,11.35-38.88,35.16-38.88,61.93,0,38.23,30.81,69.33,68.69,69.33,18.4,0,35.77-7.24,48.93-20.4,13.15-13.15,20.4-30.53,20.4-48.93,0-16.28-5.99-32.13-16.87-44.62Z"/>
      <path class="cls-2" d="m193.04,26.33v88.2h11.54c.89-9.66,4.99-16.97,18.14-16.97h7.85l-37.53-71.23Z"/>
      <path class="cls-3" d="m133.39,165.48c4.69-2.6,11.14-4.84,13.87-5.74,7.95-2.61,24.22-6.98,43.88-6.98s35.93,4.38,43.88,6.98c2.73.89,9.17,3.13,13.86,5.73-1.1-11.78-5.93-23.06-13.9-32.22-8.02-9.21-18.7-15.75-30.41-18.71,0,0,0,0,0,0h-13.08s-1.46,0-1.46,0V26.13l-38.41,71.43h7.93c13.33,0,16.68,7.17,17.51,16.97-24.01,6.04-41.5,26.52-43.69,50.94Z"/>
      <path class="cls-2" d="m191.14,156.75c-28.59,0-52.17,9.3-58,13.41,0,.16,0,.32,0,.48,0,32.16,25.88,58.33,57.69,58.33.23,0,.45-.01.68-.02,15.21-.18,29.55-6.25,40.47-17.16,11.08-11.08,17.18-25.69,17.18-41.15,0-.16,0-.32,0-.48-5.83-4.12-29.4-13.41-58-13.41Z"/>
      <polygon class="cls-3" points="35.52 283.82 10.8 259.13 10.8 343.36 35.52 283.82"/>
      <polygon class="cls-2" points="344.56 283.82 370.82 347.07 370.82 257.59 344.56 283.82"/>
      <path class="cls-2" d="m341.78,284.96h-148.18l30.55,25.27c51.62.28,110.57,16.86,143.19,36.28l-25.56-61.56Z"/>
      <path class="cls-2" d="m12.21,347.79c32.11-19.94,92.38-37.23,145.07-37.55l29.3-25.28H38.29l-26.08,62.82Z"/>
      <polygon class="cls-2" points="222.84 364.33 222.84 313.04 191.54 287.15 191.54 392.83 222.76 364.25 222.84 364.33"/>
      <polygon class="cls-3" points="188.54 287.24 158.78 312.91 158.78 366.53 188.54 392.85 188.54 287.24"/>
      <path class="cls-3" d="m358.89,400.68c-32.6-16.03-72.75-30.07-134.37-33.98l-30.61,28.02c63.45.36,101.32,9.68,138.03,33.88l26.95-27.92Z"/>
      <path class="cls-3" d="m158.15,564.5l28.28-28.28c-48.29-.25-83.25-5.62-106.77-16.4-25.02-11.47-37.19-28.96-37.19-53.48,0-48.9,44.35-71.05,143.64-71.62l-30.77-27.22c-78.61,6.34-145.83,35.25-145.83,99.03s56.12,92.76,148.63,97.98Z"/>
      <g>
        <path class="cls-2" d="m331.01,431.59c-36.4-24.2-73.89-33.5-137.1-33.86l29.46,27.21c58.77,4.95,89.97,15.82,132.62,53.04l-24.98-46.39Z"/>
        <polygon class="cls-2" points="333.99 430.8 361.21 481.33 361.21 402.6 333.99 430.8"/>
      </g>
      <polygon class="cls-2" points="191.54 399.61 191.54 531.12 222.84 499.82 222.84 428.52 191.54 399.61"/>
      <path class="cls-3" d="m225.02,501.87l-31.33,31.33c49.62.26,85.85,5.74,110.66,16.74,26.31,11.66,39.64,30.03,39.64,54.59,0,49.25-47.71,72.52-150.04,73.1l30.28,26.46c84.57-5.36,154.26-34.87,154.26-101.76s-56.18-95.67-153.48-100.46Z"/>
      <path class="cls-2" d="m222.99,706.99l-31.45-27.49v105.98l54.36-35.82c-12.86-9.19-21.61-22.49-22.91-42.68Z"/>
      <path class="cls-3" d="m188.54,679.56l-29.93,28.11c-1.28,19.61-9.41,33.45-22.25,42l52.18,33.98v-104.09Z"/>
      <path class="cls-2" d="m186.21,677.63c-66.9-.38-112.64-10.89-147.7-33.9l-26.49,26.46c33.5,16.31,74.67,31.26,145.3,34.57l28.89-27.13Z"/>
      <path class="cls-3" d="m12.03,574.87l27.49,65.94c34.6,22.95,79.95,33.43,146.56,33.82l-31.21-28.38c-67.18-4.97-101.89-25.83-142.84-71.38Z"/>
      <polygon class="cls-3" points="36.54 641.47 10.8 579.72 10.8 667.18 36.54 641.47"/>
      <polygon class="cls-3" points="188.54 538.36 158.78 568.12 158.78 645.76 188.54 672.81 188.54 538.36"/>
      <polygon class="cls-2" points="222.84 569.66 191.54 538.36 191.54 672.73 222.84 644.6 222.84 569.66"/>
      <path class="cls-2" d="m341,604.53c0-23.6-12.38-40.56-37.86-51.85-24.44-10.83-60.29-16.23-109.52-16.48l29.65,29.65c65.63,3.88,84.77,18.6,84.77,40.33s-18.89,36.88-83.46,40.89l-30.67,27.57c100.32-.56,147.1-22.88,147.1-70.1Z"/>
      <polygon class="cls-3" points="188.54 399.68 158.78 427.36 158.78 499.43 188.54 530.96 188.54 399.68"/>
      <path class="cls-2" d="m78.78,414.94c-22.41,11.07-33.3,27.89-33.3,51.4s11.59,39.83,35.43,50.76c23.14,10.6,57.72,15.88,105.63,16.12l-31.12-32.97c-57.54-4.17-75.44-18.71-75.44-37.56s18.35-34.39,77.65-38.36l28.61-26.61c-49.4.28-84.59,5.91-107.46,17.22Z"/>
      <path class="cls-1" d="m342.58,519.88c-25.27-15.22-61.39-24.13-110.22-27.13v-57.39c47.62,5.88,79.21,13.21,122.48,54.31l15.89,14.35v-108.06l-5.26-2.63c-28.04-14.02-68.28-30.52-133.11-35.6v-37.79c52.49,1.99,106.95,19.87,133.33,36.75l14.65,9.37v-119.79H1.28v119.79l14.65-9.37c26.38-16.88,80.84-34.76,133.33-36.75v38.55C54.25,367.35,0,406.47,0,466.53c0,35.17,14.93,62.08,44.37,79.96,24.36,14.8,58.73,23.65,104.89,26.98v62.79c-28.94-2.66-51.05-8.51-70.69-18.6-20.25-10.41-38.39-25.5-60.67-50.48l-16.62-18.63v126.99l5.33,2.61c21.48,10.54,40.39,17.73,61.31,23.31,24.18,6.45,50.58,10.51,80.43,12.36-2.15,12.34-7.94,21.72-17.28,27.94l-12.02,8.01,12.1,7.88,55.09,35.87,5.22,3.4,5.21-3.43,54.45-35.87,11.58-7.63-11.29-8.06c-10.16-7.26-16.07-16.59-18.2-28.94,42.57-3.56,78.43-13.24,104.17-28.19,15.91-9.24,28.28-20.59,36.76-33.73,9.2-14.25,13.86-30.65,13.86-48.73,0-36.55-15.29-64.3-45.44-82.46Zm-119.2-94.94l-29.46-27.21c63.21.36,100.7,9.66,137.1,33.86l24.98,46.39c-42.65-37.22-73.85-48.09-132.62-53.04Zm1.2,222.13c64.57-4.01,83.46-19.3,83.46-40.89s-19.14-36.45-84.77-40.33l-29.65-29.65c49.23.25,85.08,5.65,109.52,16.48,25.48,11.29,37.86,28.25,37.86,51.85,0,47.22-46.77,69.54-147.1,70.1l30.67-27.57Zm-33.04,25.66v-134.37l31.3,31.3v74.94l-31.3,28.13Zm40.82-35.76v-60.94c24.62,2.03,42.55,5.95,53.39,11.66,11.26,5.94,12.78,12.68,12.78,18.49,0,7.06,0,25.27-66.17,30.79Zm-40.82-105.85v-131.51l31.3,28.92v71.29l-31.3,31.3Zm169.67-49.79l-27.21-50.53,27.21-28.2v78.73Zm-2.32-80.64l-26.95,27.92c-36.71-24.2-74.58-33.52-138.03-33.88l30.61-28.02c61.62,3.91,101.77,17.94,134.37,33.98Zm-167.35-7.85v-105.68l31.3,25.89v51.29l-.08-.08-31.22,28.58Zm32.62-82.59l-30.55-25.27h148.18l25.56,61.56c-32.62-19.43-91.57-36.01-143.19-36.28Zm146.66,36.83l-26.26-63.25,26.26-26.23v89.48Zm0-91.3h0s0,0,0,0h0Zm-360.02,3.35l24.72,24.69-24.72,59.54v-84.23Zm1.41,88.66l26.08-62.82h148.29l-29.3,25.28c-52.69.32-112.96,17.6-145.07,37.55Zm-2.69,118.74c0-63.77,67.22-92.69,145.83-99.03l30.77,27.22c-99.29.57-143.64,22.72-143.64,71.62,0,24.52,12.16,42.02,37.19,53.48,23.51,10.78,58.48,16.14,106.77,16.4l-28.28,28.28c-92.51-5.21-148.63-32.14-148.63-97.98Zm70.47-3.84c0,18.86,17.9,33.39,75.44,37.56l31.12,32.97c-47.9-.24-82.49-5.52-105.63-16.12-23.84-10.93-35.43-27.53-35.43-50.76s10.89-40.33,33.3-51.4c22.87-11.31,58.06-16.94,107.46-17.22l-28.61,26.61c-59.3,3.97-77.65,19.26-77.65,38.36Zm69.28-28.15v55.66c-21.76-2.02-37.86-5.79-47.94-11.22-10.47-5.65-11.82-11.67-11.82-16.29s1.35-10.82,11.9-16.65c10.13-5.6,26.2-9.45,47.86-11.49Zm5.6,211.71l31.21,28.38c-66.61-.39-111.96-10.87-146.56-33.82l-27.49-65.94c40.94,45.56,75.66,66.42,142.84,71.38ZM10.8,579.72l25.74,61.75-25.74,25.71v-87.45Zm1.22,90.47l26.49-26.46c35.06,23.01,80.8,33.52,147.7,33.9l-28.89,27.13c-70.62-3.3-111.8-18.25-145.3-34.57Zm176.52,113.46l-52.18-33.98c12.83-8.56,20.97-22.39,22.25-42l29.93-28.11v104.09Zm0-110.84l-29.76-27.06v-77.64l29.76-29.76v134.45Zm0-141.85l-29.76-31.53v-72.07l29.76-27.68v131.28Zm0-138.11l-29.76-26.32v-53.62l29.76-25.67v105.62Zm-150.63-110.89l-26.22-26.19h356.7l-26.22,26.19H37.91Zm207.99,467.71l-54.36,35.82v-105.98l31.45,27.49c1.3,20.19,10.05,33.5,22.91,42.68Zm-21.66-45.57l-30.28-26.46c102.33-.58,150.04-23.85,150.04-73.1,0-24.56-13.34-42.93-39.64-54.59-24.81-11-61.04-16.48-110.66-16.74l31.33-31.33c97.3,4.79,153.48,32.43,153.48,100.46s-69.7,96.4-154.26,101.76Z"/>
    </g>
  </g>
</svg>