<?xml version="1.0" encoding="UTF-8" standalone="no"?>
<!DOCTYPE svg PUBLIC "-//W3C//DTD SVG 1.1//EN" "http://www.w3.org/Graphics/SVG/1.1/DTD/svg11.dtd">
<svg width="100%" height="100%" viewBox="0 0 960 640" version="1.1" xmlns="http://www.w3.org/2000/svg" xmlns:xlink="http://www.w3.org/1999/xlink" xml:space="preserve" xmlns:serif="http://www.serif.com/" style="fill-rule:evenodd;clip-rule:evenodd;stroke-linecap:round;stroke-linejoin:round;stroke-miterlimit:1.5;">
    <path d="M511.181,160.361C551.162,154.785 750.476,176.902 817.451,253.035C884.427,329.167 459.539,443.377 441.232,446.086C422.926,448.795 428.909,322.497 428.909,322.497L498.989,229.552C498.989,229.552 471.201,165.937 511.181,160.361Z" style="stroke:black;stroke-width:1px;"/>
    <path d="M262.656,512.316L228.94,521.276C228.94,521.276 259.098,524.625 306.638,524.625C647.62,524.625 874.003,317.174 874.003,284.144C874.003,280.508 872.823,277.429 872.823,277.429C751.963,421.224 511.975,520.339 262.656,512.316Z" style="fill:rgb(252,76,2);fill-rule:nonzero;"/>
    <path d="M574.51,118.311C447.172,118.311 308.446,167.706 308.446,167.706C308.446,167.706 451.158,160.53 451.158,220.206C451.158,275.844 350.322,316.657 350.322,316.657C350.322,316.657 411.545,330.987 411.545,366.382C411.545,446.795 213.119,496.762 213.119,496.762C629.504,516.942 867.271,294.362 867.271,253.172C867.271,214.949 751.458,118.312 574.509,118.312L574.51,118.311ZM506.048,386.103C506.048,386.103 636.728,323.093 681.178,285.719L522.271,290.915L685.928,248.548C638.835,212.732 552.508,190.655 552.508,190.655C604.885,189.519 692.287,198.895 764.648,259.36C683.441,329.967 574.781,367.892 506.048,386.103Z" style="fill:white;fill-rule:nonzero;"/>
    <path d="M574.51,126.494C494.642,126.494 409.564,146.425 358.375,160.84C358.375,160.84 459.349,164.913 459.349,220.206C459.349,265.211 403.035,299.87 372.479,315.379C392.402,323.469 419.729,339.452 419.729,366.382C419.729,426.232 324.4,468.776 263.788,489.791C641.345,489.791 859.08,289.135 859.08,253.173C859.08,220.612 747.291,126.494 574.51,126.494ZM441.375,408.761C441.375,408.761 608.973,328.337 654.926,294.77L448.686,301.5L666.214,245.2C616.353,211.828 504.766,186.693 504.766,186.693C504.766,186.693 661.683,155.069 777.576,259.149C647.344,378.099 441.376,408.76 441.376,408.76L441.375,408.761Z" style="fill:rgb(185,151,91);fill-rule:nonzero;"/>
</svg>
