<?xml version="1.0" encoding="UTF-8" standalone="no"?>
<!DOCTYPE svg PUBLIC "-//W3C//DTD SVG 1.1//EN" "http://www.w3.org/Graphics/SVG/1.1/DTD/svg11.dtd">
<svg width="100%" height="100%" viewBox="0 0 960 640" version="1.1" xmlns="http://www.w3.org/2000/svg" xmlns:xlink="http://www.w3.org/1999/xlink" xml:space="preserve" xmlns:serif="http://www.serif.com/" style="fill-rule:evenodd;clip-rule:evenodd;stroke-linejoin:round;stroke-miterlimit:2;">
    <path d="M741.62,252.91C740.079,270.888 723.772,287.693 723.772,287.693L710.389,281.101L699.302,251.375L747.259,151.171C750.701,157.888 752.504,164.675 752.504,164.675C759.474,150.932 760.451,137.044 759.447,125.815L768.384,107.073L763.382,34.119C760.955,24.339 751.429,14.606 739.528,10.822C728.244,7.229 716.828,9.285 708.698,15.94L545.355,142.244C462.28,144.578 400.882,180.909 363.26,244.599L182.39,390.087C182.39,390.087 215.908,453.627 292.911,446.004L342.691,437.051C348.041,460.151 377.848,593.469 493.196,625.749C473.656,588.194 448.406,521.292 473.184,466.461C506.23,572.507 554.659,569.547 554.659,569.547C507.804,503.11 545.964,432.457 545.964,432.457C565.064,465.067 592.604,479.604 615.08,479.604C615.08,479.604 582.1,436.143 599.488,379.301L702.102,383.088L748.137,363.765L776.41,312.425L754.228,302.328C761.152,270.983 741.62,252.909 741.62,252.909L741.62,252.91Z" style="fill:rgb(1,1,1);fill-rule:nonzero;"/>
    <g>
        <path d="M745.055,305.033L745.147,305.033C746.097,301.289 750.301,282.021 744.491,268.878C739.41,284.317 730.368,292.801 726.342,295.965L703.702,284.952L703.8,285.067L750.216,315.084L721.844,321.726L721.785,321.716L721.765,321.726L696.417,312.36C696.489,312.36 696.489,312.314 696.496,312.314L696.332,312.284C697.827,304.571 700.2,287.772 694.83,275.589C689.611,291.401 680.661,300.633 675.816,304.699L651.346,295.624L630.783,241.92L705.491,121.22C709.741,125.678 714.291,131.746 718.001,139.785C721.701,127.924 718.159,112.682 715.753,104.683L724.821,90.015L746.098,74.637L750.052,94.589L714.566,192.911L742.708,132.274C743.928,133.228 746.511,135.28 752.308,147.23C755.271,137.742 750.78,116.65 750.78,116.65L758.989,100.962L755.12,39.902C751.875,45.108 748.524,56.255 747.108,60.707C740.23,13.714 722.028,48.61 717.498,20.504L702.39,32.198C701.197,38.098 699.302,50.019 698.928,68.073C698.928,68.073 688.365,56.913 684.995,46.324C683.684,52.924 681.658,65.965 681.218,85.613C681.218,85.613 669.39,73.093 665.77,61.323C664.348,68.696 662.21,82.905 661.731,104.126C661.731,104.126 648.985,90.671 644.901,77.902C643.301,86.016 640.979,101.638 640.422,124.858C640.422,124.858 625.584,109.148 621.538,94.681L546.398,152.721C541.414,158.632 517.987,182.499 509.371,218.345C509.371,218.345 509.351,193.035 511.365,185.233C504.768,189.98 479.957,209.408 466.418,223.496C466.418,223.496 468.057,197.95 478.554,183.437C456.392,199.603 422.585,233.858 422.585,233.858C450.531,185.538 472.902,171.153 484.147,161.793C427.719,179.657 378.694,219.276 357.187,286.179C357.187,286.179 357.607,272.806 359.66,261.758L199.569,388.406C199.569,388.406 224.223,433.795 293.646,432.045L384.3,417.652C384.3,417.652 375.271,393.451 376.17,376.367C387.192,414.505 406.226,428.684 406.226,428.684C406.226,428.684 355.339,435.388 355.339,435.428C364.558,468.818 384.785,562.839 476.817,607.038C455.376,565.658 451.619,526.41 455.225,493.528C461.041,454.328 481.032,430.461 481.032,430.461C484.285,476.489 506.112,511.29 520.36,529.445C524.058,534.632 528.195,539.389 532.798,543.516C532.798,543.516 514.268,509.975 527.816,449.794C529.022,446.397 539.316,417.586 549.879,407.02C563.596,445.699 597.022,460.625 597.022,460.625C573.155,411.263 593.875,363.978 593.875,363.978C593.875,363.978 701.282,367.984 702.102,368.018L742.465,351.084L763.237,313.393L745.055,305.033Z" style="fill:rgb(134,38,51);fill-rule:nonzero;"/>
        <path d="M678.051,245.533L694.837,269.453L685.362,245.841L694.837,221.443L678.051,245.533Z" style="fill:rgb(134,38,51);fill-rule:nonzero;"/>
    </g>
    <g>
        <path d="M518.105,173.28C519.757,168.094 509.443,169.176 509.443,169.176C516.563,164.501 523.849,161.78 527.507,160.583C530.071,157.423 532.215,154.895 533.29,153.695C528.209,154.098 515.075,156.911 489.294,175.303C499.779,173.303 511.122,172.683 518.104,173.28L518.105,173.28ZM745.055,305.033L745.147,305.033C746.097,301.289 750.301,282.021 744.491,268.878C739.41,284.317 730.368,292.801 726.342,295.965L703.702,284.952L703.8,285.067L750.216,315.084L721.844,321.726L721.785,321.716L721.765,321.726L696.417,312.36C696.489,312.36 696.489,312.314 696.496,312.314L696.332,312.284C697.827,304.571 700.2,287.772 694.83,275.59C689.611,291.401 680.661,300.633 675.816,304.699L651.346,295.624L630.783,241.92L705.491,121.22C709.741,125.678 714.291,131.746 718.001,139.785C721.701,127.924 718.159,112.683 715.753,104.683L724.821,90.016L746.098,74.636L750.052,94.589L714.566,192.911L742.708,132.274C743.928,133.228 746.511,135.28 752.308,147.23C755.271,137.743 750.78,116.65 750.78,116.65L758.989,100.963L746.852,70.66L712.482,89.668L599.395,218.04C603.723,216.962 560.821,232.187 546.823,250.247C546.823,250.247 576.296,255.932 579.036,275.675C567.522,280.3 356.472,423.458 446.674,569.515C454.575,581.785 464.469,594.355 476.816,607.039C455.375,565.659 451.618,526.409 455.224,493.528C461.269,438.729 487.896,401.588 487.896,401.588C487.896,401.588 487.077,482.932 520.359,529.446C524.057,534.632 528.195,539.389 532.797,543.516C532.797,543.516 514.267,509.975 527.815,449.794C532.607,428.418 541.426,403.703 556.605,375.918C547.157,420.268 587.206,451.885 597.021,460.625C573.154,411.263 593.874,363.978 593.874,363.978C593.874,363.978 701.281,367.984 702.101,368.018L739.611,331.279L742.464,351.084L763.236,313.392L745.054,305.032L745.055,305.033ZM222.111,391.622C233.631,412.318 260.763,417.983 276.598,419.514C272.015,414.98 256.751,399.004 261.472,387.278C261.472,387.278 274.369,397.408 291.895,399.267C291.895,399.267 277.352,358.913 302.17,327.752C265.832,356.871 222.111,391.622 222.111,391.622Z" style="fill:rgb(221,203,164);fill-rule:nonzero;"/>
    </g>
    <g>
        <path d="M599.396,218.04L712.48,89.668L593.547,211.464C593.547,211.464 563.95,216.454 521.088,250.284C542.555,291.506 440.053,420.111 396.653,386.006C405.518,412.145 437.758,401.46 437.758,401.46C433.424,411.485 391.348,483.699 446.675,569.514C356.473,423.458 567.523,280.3 579.037,275.674C576.297,255.932 546.824,250.247 546.824,250.247C560.822,232.187 603.724,216.962 599.396,218.04Z" style="fill:rgb(1,1,1);fill-rule:nonzero;"/>
        <path d="M649.11,198.842L614.614,240.638L644.553,295.994L624.24,240.638L649.11,198.842ZM347.123,291.322C340.363,297.069 322.378,311.53 302.17,327.752C277.352,358.913 291.895,399.267 291.895,399.267C274.369,397.408 261.472,387.278 261.472,387.278C256.751,399.005 272.015,414.981 276.598,419.514C283.837,420.216 288.695,420.049 288.695,420.049L365.823,406.424C365.823,406.424 254.463,381.074 347.123,291.323L347.123,291.322Z" style="fill:rgb(1,1,1);fill-rule:nonzero;"/>
    </g>
</svg>
