<?xml version="1.0" encoding="UTF-8" standalone="no"?>
<!DOCTYPE svg PUBLIC "-//W3C//DTD SVG 1.1//EN" "http://www.w3.org/Graphics/SVG/1.1/DTD/svg11.dtd">
<svg width="100%" height="100%" viewBox="0 0 960 640" version="1.1" xmlns="http://www.w3.org/2000/svg" xmlns:xlink="http://www.w3.org/1999/xlink" xml:space="preserve" xmlns:serif="http://www.serif.com/" style="fill-rule:evenodd;clip-rule:evenodd;stroke-linejoin:round;stroke-miterlimit:2;">
    <path d="M480,639.2C303.7,639.2 160.8,496.3 160.8,320C160.8,143.7 303.7,0.8 480,0.8C656.3,0.8 799.2,143.7 799.2,320C799.2,496.3 656.3,639.2 480,639.2" style="fill:rgb(255,184,28);fill-rule:nonzero;"/>
    <path d="M479.8,620.8C313.7,620.8 179.1,486.2 179.1,320.1C179.1,154 313.7,19.5 479.8,19.5C645.9,19.5 780.5,154.1 780.5,320.2C780.5,486.3 645.9,620.8 479.8,620.8" style="fill:rgb(0,48,135);fill-rule:nonzero;"/>
    <path d="M592.7,73.7C617.8,81.9 638.3,89.6 637.3,91.9C636.4,94.2 615.2,88.1 590.1,79.9C552.4,67.5 506,50.2 506.5,48.9C507,47.6 555,61.3 592.7,73.7M611.6,283.3C612.7,284.8 561.6,305.7 519.6,320.6C491.7,330.5 467.7,337.8 465.7,335.1C463.7,332.4 486.3,323.2 514.2,313.2C556.3,298.4 610.5,281.8 611.6,283.3M274.8,200.6C272.3,195.8 269.6,183.6 269.6,171C269.6,135.7 293.4,123.9 328.4,117.2C334.3,116.1 335.2,115.4 339.3,109.5C365.6,70.9 399,51.7 436,51.7C458.9,51.7 473.8,57 543.8,81.9C562.7,88.6 585.3,97 613.3,107C626.7,111.8 641.4,117 657.5,122.5C679.4,130.1 686.3,133.7 686.3,137.7C686.3,142.4 677.9,143.4 677.9,147.2C677.9,150.2 689.2,153.6 699.7,154.6C689.7,162.6 658.2,157.8 658.2,150.1C658.2,146 664.6,143.9 664.6,140.7C664.6,135.9 645.2,126.3 624.9,124.1C632.9,151 626,161.3 626,167.2C626,172.9 634.9,175.8 646.1,173.5C651.7,180 660.5,185.7 667.4,188.1C666.3,189.9 665.7,193.3 666.4,195.4C669.3,194.3 673.7,193.3 676.7,193.3C682.8,200 685.4,213.4 684.2,221.8C677.2,219.4 668.2,218 662.3,217.9C656.2,208.8 646.3,200.3 636.2,195.1C618.8,192.6 591.7,197.6 576.4,203.3C584.5,204.5 600.5,204.1 608.1,203.1C611.6,206.1 618.4,209.7 622.6,211.6C621.4,213.7 621.4,216.8 622.1,218.6C625.2,216.8 629,215.4 631.9,215C638.5,220 644.4,231.5 645.6,241.2C639.2,240 631.2,239.6 625.7,239.9C615.2,229.7 598.9,219.9 587.2,219.9C574.5,219.9 562.8,226.5 554.7,226.5C542.4,226.5 530.1,212.9 510.7,212.9C505.3,212.9 500.1,213.9 494.8,215.8C495.9,226.9 502.4,239 506.7,244.9C503.2,245.3 497.7,245.2 494.3,244.9C497.3,249.3 501.5,252 504.1,252.7C496.6,257.2 492,261.7 489.4,270.2C495.3,271.7 501.6,271.1 505.2,269.4C507.6,266.3 511.4,263.5 515.2,262.5C525.5,268.4 531.3,277.7 532.1,284.2C524.7,284.9 517.5,287.6 513.8,289.9C507,287.8 501.7,287.1 497.2,287.1C489,287.1 482.3,289.7 476.2,289.7C470,289.7 465.8,286.2 464.7,282.7C466.5,277.1 468.1,268.2 468.1,260.9C468.1,240.7 450,224.2 420.4,222.2C427.3,225.5 435.5,231.2 438.3,235.6C432.3,238.3 425.8,245.6 425.8,251.9C425.8,257.2 430,262 434.4,263.5C436.8,261.7 440.6,259.8 443.4,259.1C450.9,265.9 455.4,276 455.5,283.7C450.1,283.1 440.9,284.4 435.6,285.5C430.7,281.4 426.6,279 422.9,277.4C415.6,274.4 409.8,275.4 404.1,273.8C399.4,272.5 396,269.4 395.6,266.8C401.5,261.4 407.5,251.2 407.5,240.9C407.5,226.5 398.9,218.1 391.1,218.1C385,218.1 380.2,223.2 380.2,230.5C380.2,238.7 387,246.9 397.3,247.7C391.2,253.9 384.1,258.3 375.3,258.3C370,258.3 366,256.7 363.8,256.7C359.9,256.7 355.5,258.4 353.6,258.4C352.7,258.4 352.2,257.9 352.2,257C352.2,253.9 358,246.7 361.3,243.5C355.5,243 351.5,243.9 347.6,247C342.1,251.3 339.7,258 332.9,258C326.5,258 323.8,250.3 318.7,245.6C315,242.2 312.5,242.2 306.8,237C297.7,228.7 295.6,219.9 294.1,217.9C291.3,214.2 279,208.8 274.8,200.6M330.9,214.2C330.9,209.4 327.8,205.6 323.9,204.4C324.3,199.7 326.4,195.4 328.9,193.4C326.7,192.4 322.7,192.8 320.5,195.4C318.5,197.7 317.7,201.5 317.1,205.5C316.6,208.6 316.2,211.8 315.5,214.7C314.3,219.6 312.1,222.1 310.3,222.5C311.9,223.5 314.5,224.2 316.6,223.3C320.1,221.7 321.8,218 322.4,213.2C324,214 325.5,215.9 325.5,218C325.5,220.9 323.2,223.2 320,224C326,224.3 330.9,219.8 330.9,214.2M281.9,149.6C297.3,145 308.2,147.8 308.2,155.7C308.2,160.6 304.5,163.2 304.5,168.2C304.5,172.7 308.4,174.9 312.8,174.9C323.1,174.9 331.7,166.3 331.7,155.2C331.7,144.7 323.8,136 309.6,136C298.8,136.1 287.3,142.1 281.9,149.6" style="fill:white;fill-rule:nonzero;"/>
    <path d="M651.8,520.7C646.1,520.7 641.9,525.4 638.3,529.9C627.5,543.5 616.4,550.8 599.3,550.8C572.8,550.8 547,528.4 547,500.7C547,483.9 554.5,465.3 554.5,451.3C554.5,440.6 547.8,434.9 540.4,434.9C537,434.9 534.6,436.8 534.6,438.3C534.6,440.7 542.6,437.6 542.6,449C542.6,462.3 533.7,482 533.7,502.8C533.7,536.1 565,562.9 597.5,562.9C616.9,562.9 631.4,553.6 642,539.5C643.5,542.8 647,545.3 651.5,545.3C658,545.3 662.9,539.9 662.9,532.9C662.9,526.7 658.1,520.7 651.8,520.7M560,467.4C564.3,471.5 580.1,483.2 598.2,495C616.3,506.7 633.4,516.4 638.9,518.6C640.1,519.1 640.9,519.2 641,518.9C641.2,518.6 641.1,518.3 639.6,517.4C627,509.5 613.2,500.8 600,492.2C586.7,483.6 573.1,474.6 560.8,466.3C559.3,465.3 559,465.3 558.8,465.6C558.7,465.9 559,466.5 560,467.4M560.7,491.8C560.6,492.3 560.6,492.9 560.5,493.5C560.4,494.1 560.4,494.6 560.3,495.2C560.2,498.7 565.6,501.8 568.6,496.8C568.4,498.1 568.3,499.3 568.1,500.6C568,504 573.4,507.2 576.5,502.1C576.3,503.4 576.2,504.6 576,505.9C575.9,509.3 581.4,512.4 584.4,507.4C584.3,508.7 584.1,509.9 584,511.2C583.9,514.6 589.4,517.7 592.4,512.6C592.3,513.9 592.1,515.1 592,516.4C591.6,519.8 597.4,522.8 600.4,517.8L600,521.6C599.9,525 605.4,528 608.5,523L608.1,526.8C608,530.6 614.2,532.8 616.9,528.3C616.8,529.3 616.7,529.9 616.6,530.9C616,536.2 622,539.2 625.9,536.3C628.5,534.3 632,530.9 634.2,528.1C637.6,523.8 631.6,520.1 628.3,522.8C627.4,523.5 626.6,524.2 625.7,524.9C625.8,523.4 625.8,521.9 625.9,520.4C626,517.3 620.5,513.8 617.6,520.8C617.7,519 617.7,517.2 617.8,515.4C617.9,512.3 612.4,508.8 609.5,515.8C609.6,514 609.7,512.2 609.7,510.4C609.8,507.2 604.3,503.8 601.5,510.7C601.6,508.9 601.7,507.1 601.7,505.2C601.8,502 596.4,498.5 593.5,505.5C593.6,503.7 593.7,501.9 593.7,500C593.8,496.8 588.4,493.3 585.5,500.2C585.6,498.4 585.7,496.5 585.8,494.7C585.9,491.5 580.5,487.9 577.6,494.9C577.7,493.1 577.8,491.2 577.9,489.4C578,486.2 572.6,482.6 569.8,489.6C569.9,487.8 570,485.9 570.1,484.1C570.2,481 565.3,478.2 562.9,482.3C562.7,482.7 562.4,483.1 562.2,483.7C562.3,482.1 562.4,480.4 562.5,478.8C562.6,474.8 556,473.1 554.6,477.1C553.7,479.7 552.9,486.3 552.8,490.1C552.7,493.4 558.2,496 560.7,491.8M417.4,449C417.4,437.6 425.4,440.8 425.4,438.3C425.4,436.9 423,434.9 419.6,434.9C412.2,434.9 405.6,440.6 405.6,451.3C405.6,465.3 413.1,483.9 413.1,500.7C413.1,528.4 387.4,550.8 360.8,550.8C343.6,550.8 332.5,543.4 321.8,529.9C318.2,525.4 314,520.7 308.3,520.7C302,520.7 297.2,526.7 297.2,532.8C297.2,539.8 302.2,545.2 308.6,545.2C313,545.2 316.5,542.7 318.1,539.4C328.7,553.6 343.2,562.8 362.6,562.8C395.1,562.8 426.4,536 426.4,502.7C426.3,482 417.4,462.2 417.4,449M321.1,518.7C326.6,516.4 343.8,506.8 361.8,495.1C379.9,483.4 395.6,471.7 400,467.5C401,466.6 401.3,465.9 401.1,465.7C400.9,465.4 400.6,465.4 399.1,466.4C386.8,474.7 373.2,483.7 359.9,492.3C346.6,500.9 332.8,509.7 320.3,517.5C318.8,518.4 318.7,518.7 318.9,519C319.2,519.2 319.9,519.2 321.1,518.7M397.6,478.4C397.7,480 397.8,481.7 397.9,483.3L397.2,481.9C394.8,477.8 389.9,480.7 390,483.7C390.1,485.5 390.2,487.4 390.3,489.2C387.4,482.2 382.1,485.8 382.2,489C382.3,490.8 382.4,492.7 382.5,494.5C379.6,487.5 374.2,491.1 374.3,494.3C374.4,496.1 374.5,498 374.6,499.8C371.7,492.8 366.3,496.4 366.4,499.6C366.5,501.4 366.6,503.2 366.6,505.1C363.7,498.1 358.3,501.7 358.4,504.8C358.5,506.6 358.6,508.4 358.6,510.3C355.8,503.4 350.3,506.8 350.4,510C350.5,511.8 350.5,513.6 350.6,515.4C347.7,508.4 342.3,511.9 342.3,515C342.4,516.8 342.4,518.6 342.5,520.4C339.6,513.5 334.1,516.9 334.2,520C334.3,521.5 334.3,523 334.4,524.5C333.5,523.8 332.7,523.1 331.8,522.4C328.5,519.7 322.5,523.4 325.9,527.7C328.1,530.5 331.6,533.9 334.2,535.9C338.1,538.9 344.1,535.9 343.5,530.5C343.4,529.5 343.3,528.9 343.2,527.9C345.9,532.4 352.1,530.2 352,526.4C351.9,525.1 351.7,523.9 351.6,522.6C354.7,527.7 360.2,524.7 360.1,521.2L359.7,517.4C362.7,522.5 368.5,519.4 368.1,516C368,514.7 367.8,513.5 367.7,512.2C370.7,517.3 376.2,514.2 376.1,510.8L375.6,507C378.6,512.1 384.1,509 384,505.5C383.8,504.2 383.7,503 383.5,501.7C386.6,506.8 392,503.6 391.9,500.2C391.7,498.9 391.6,497.7 391.4,496.4C394.4,501.5 399.8,498.3 399.7,494.8L399.5,493.1C399.4,492.5 399.4,492 399.3,491.4C401.8,495.6 407.3,493 407.2,489.4C407.2,485.6 406.3,478.9 405.4,476.4C404.2,472.7 397.5,474.4 397.6,478.4" style="fill:rgb(255,184,28);fill-rule:nonzero;"/>
    <path d="M319.9,224C323,223.1 325.4,220.8 325.4,218C325.4,215.9 323.9,214 322.4,213.2C321.8,218 320.1,221.7 316.6,223.3C317.2,223.5 318.5,223.9 319.9,224" style="fill:rgb(200,16,46);fill-rule:nonzero;"/>
    <path d="M480,410.9C392.3,345.5 290.3,260.1 227.9,185.8C228,186.1 228.1,186.3 228.2,186.6C228.1,186.3 228,186.1 227.9,185.8C228.9,197.5 237.7,222 258.1,244.4C312.2,303.5 391,368.4 463,423.4C449.4,433.3 436.3,442.7 423.9,451.4C423.4,454.2 423.9,460.7 424.5,463.6C425.5,466.4 428.7,470.9 430.9,472.7C446.4,461.4 462.9,449.2 480,436.3C497,449.2 513.6,461.4 529.1,472.7C531.4,470.9 534.5,466.4 535.5,463.6C536,460.7 536.5,454.3 536.1,451.4C523.7,442.7 510.6,433.3 497,423.4C569,368.4 647.8,303.5 701.9,244.4C722.4,222 731.2,197.5 732.1,185.8C669.7,260.2 567.7,345.5 480,410.9Z" style="fill:white;fill-rule:nonzero;"/>
</svg>
