<?xml version="1.0" encoding="UTF-8" standalone="no"?>
<!DOCTYPE svg PUBLIC "-//W3C//DTD SVG 1.1//EN" "http://www.w3.org/Graphics/SVG/1.1/DTD/svg11.dtd">
<svg width="100%" height="100%" viewBox="0 0 960 640" version="1.1" xmlns="http://www.w3.org/2000/svg" xmlns:xlink="http://www.w3.org/1999/xlink" xml:space="preserve" xmlns:serif="http://www.serif.com/" style="fill-rule:evenodd;clip-rule:evenodd;stroke-linejoin:round;stroke-miterlimit:2;">
    <path d="M866.603,223.57C852.167,122.789 727.688,121.092 727.688,121.092L763.622,97.449C763.622,97.449 593.666,69.862 384.954,135.777C200.658,193.975 75.273,289.83 93.402,416.424C107.838,517.221 232.317,518.911 232.317,518.911L196.387,542.54C196.387,542.54 366.334,570.132 575.053,504.222C759.349,446.015 884.737,350.172 866.602,223.57L866.603,223.57Z" style="fill:white;fill-rule:nonzero;"/>
    <g>
        <path d="M847.273,229.68C828.838,101.019 629.473,128.266 526.479,160.79C471.316,178.208 435.229,195.889 435.229,195.889C622.063,129.037 753.035,176.759 753.035,176.759C691.04,172.407 632.753,192.503 632.753,192.503C632.753,192.503 695.376,205.118 703.693,263.233C714.688,339.963 649.375,427.782 448.063,491.358C338.31,526.006 245.963,531.504 245.963,531.504C245.963,531.504 376.19,550.666 572.809,488.571C754.769,431.11 862.833,338.379 847.273,229.679L847.273,229.68Z" style="fill:rgb(200,16,46);fill-rule:nonzero;"/>
        <path d="M480.244,394.698C536.096,377.058 583.548,350.749 609.052,325.65C623.152,311.77 630.572,298.264 628.927,286.797C628.295,282.423 626.35,278.586 623.298,275.263C603.902,254.132 538.478,254.422 463.542,278.083C376.817,305.478 310.244,353.777 314.854,385.978C319.469,418.178 393.515,422.084 480.244,394.698Z" style="fill:rgb(200,16,46);fill-rule:nonzero;"/>
    </g>
    <g>
        <path d="M387.196,151.419C205.23,208.889 97.171,301.621 112.742,410.316C131.166,538.973 330.534,511.739 433.525,479.206C488.69,461.779 524.775,444.103 524.775,444.103C337.938,510.955 206.965,463.23 206.965,463.23C268.964,467.584 327.255,447.496 327.255,447.496C327.255,447.496 264.631,434.874 256.315,376.755C245.325,300.03 310.631,212.211 511.946,148.642C621.699,113.985 714.043,108.485 714.043,108.485C714.043,108.485 583.821,89.33 387.196,151.419Z" style="fill:rgb(1,1,1);fill-rule:nonzero;"/>
        <path d="M451.799,229.861C382.693,251.681 346.543,279.307 334.057,308.255L308.947,366.422C308.947,366.422 339.424,311.792 462.789,272.838C555.811,243.458 612.593,250.87 623.298,275.263C626.35,278.586 628.295,282.423 628.927,286.797C630.572,298.264 623.151,311.77 609.052,325.65C585.75,358.421 541.259,393.666 502.222,417.472C533.396,407.63 673.312,341.245 663.161,270.371C653.735,204.604 571.979,191.906 451.799,229.861Z" style="fill:rgb(1,1,1);fill-rule:nonzero;"/>
        <path d="M466.279,314.658C430.068,326.098 402.161,345.428 403.942,357.851C405.717,370.269 436.507,371.079 472.717,359.643C508.923,348.205 536.831,328.872 535.056,316.448C533.271,304.024 502.476,303.221 466.278,314.658L466.279,314.658Z" style="fill:rgb(1,1,1);fill-rule:nonzero;"/>
    </g>
</svg>
